<svg xmlns:xlink="http://www.w3.org/1999/xlink" xmlns="http://www.w3.org/2000/svg" viewBox="-40.94377899169922 -146.29818725585938 68.82828521728516 163.4471893310547" preserveAspectRatio="xMidYMid meet" width="300"  height="400" >
            <g transform="translate(0, -27) scale(0.7)" preserveAspectRatio="none">
<path style="" d="M-2.965-149.375c-4.738,1.453-9.697,8.317-9.874,21.216c-0.05,3.625-0.383,7.968-2.885,10.804 c6.138-3.344,7.708-10.578,8.562-13.141c1.3-3.904,0.119-8.12,1.421-12c1.411-4.205,10.473-10.794,16.24,3.357 C8.278-150.177,1.411-150.717-2.965-149.375z" fill="#323232"></path><path style="" d="M-42.949-146.008c2.854,1.428,6.067,2.823,9.27,1.743c2.842-0.959,5.699-5.647,8-8.872 c-7.425,0.911-9.287,6.018-17.808,2.658c0.822,1.808,2.501,2.892,4.141,3.604C-40.506-146.305-41.597-145.856-42.949-146.008z" fill="#464646"></path><path style="" d="M-35.999-136.179c0.093-0.816,2.923-9.401,3.327-9.306c-3.376-0.799-7.382,0.255-10.785,0.568 c1.181,1.178,2.49,2.17,3.761,3.221c-1.855,0.167-3.948,0.639-5.816,0.004C-44.353-137.788-39.055-137.31-35.999-136.179z" fill="#323232"></path><path style="" d="M-13.576-90.416c-2.885-2.992-5.808-6.812-7.947-10.411c-5.946,0.332-10.651-4.866-10.67-8.625 c-0.016-3.237,4.513-5.914,7.582-1.062c0.259-0.779,0.818-1.314,1.757-1.512c0.052-0.011-2.084-21.829-0.163-24.595 c-2.104-1.588-9.928-8.299-11.949-9.524c-3.212,5.843-5.914,15.941-13.983,16.67c1,1.22,2.485,2.201,3.599,3.271 c-1.128,0.401-2.427,0.55-3.624,0.563c2.141,4.942,6.283,9.395,13.586,10.678c-1.488,0.805-3.374,1.021-4.72,2.009 c1.102,0.569,2.428,0.556,3.549,0.991c-1.584,0.918-2.308,2.44-3.262,3.938c2.546,0.055,6.092,1.123,7.974,2.826 c-1.088,0.13-2.151,0.429-3.274,0.404C-28.667-101.669-23.393-92.84-13.576-90.416z" fill="#1E1E1E"></path><path style="" d="M-43.319-116.359c3.986,1.527,9.457,1.181,11.927,0.534c-1.679-1.247-3.404-1.895-5.225-2.804 c0.907,0.003,2.408-1.046,2.762-1.676c-5.168-0.394-8.644-2.39-12.799-4.011c2.714,3.061,3.963,5.505,8.77,6.159 C-39.667-118.188-41.39-117.04-43.319-116.359z" fill="#323232"></path><path style="" d="M-16.953-101.226c-1.609-0.127-3.823-1.422-5.313-2.074c0.232-0.309,0.607-0.52,1.011-0.537 c-1.095-0.795-2.448-1.358-3.299-2.462c0.354-0.246,0.778-0.53,1.333-0.533c-4.182-6.089-7.294-16.137-6.15-22.954 c3.574,2.468,7.222,3.12,11.479,3.341c-2.242,3.88-1.341,15.019-0.159,14.949c-0.575,0.034-1.171,0.042-1.753,0.014 c0.253,0.961,0.768,1.875,1.42,2.646c-0.394-0.057-0.899,0.112-1.294,0.062C-19.544-108.377-17.792-103.349-16.953-101.226z" fill="#323232"></path><path style="" d="M20.324-143.391c0.801-2.264,0.211-5.375-1.353-8.36c-1.941-1.54-5.463-0.225-5.584-0.35 C14.549-149.897,17.641-145.096,20.324-143.391z" fill="#1E1E1E"></path><path style="" d="M11.968-154.309c-2.639-5.904-4.279-7.036-9.592-8.288c-2.475-0.119-4.671,1.964-6.018,3.989 C-1.414-157.495,8.793-154.13,11.968-154.309z" fill="#323232"></path><path style="" d="M29.682-133.626c-0.795-2.918-2.738-5.011-4.735-7.062c-3.126-3.21-7.342-8.185-8.895-9.646 c-1.861-1.752-3.918-6.791-6.724-7.689c-6.235-1.996-9.832-0.814-15.815,1.056c1.95,1.333,13.256,6.743,15.078,9.338 c0.553,0.788,4.486,9.01,3.775,9.446c0.508-0.311,1.084-0.772,1.605-0.961c0.17,0.826,0.39,1.598,0.396,2.461 c0.67-0.452,1.352-1.002,2.099-1.3c0.29,1.278,0.626,3.025,0.226,4.291c0.567-0.284,1.192-0.629,1.779-0.786 c0.09,1.355,0.15,2.732,0.22,4.119c0.5-0.134,1.067-0.233,1.617-0.282c0.284-0.025-0.294,4.393-0.342,4.755 c4.033,0.264,4.236,5.771,3.023,10.708c1.173-0.911,2.845-3.204,3.218-4.605c0.644,1.64,0.65,3.049,0.243,5.761 C31.319-123.051,31.395-127.336,29.682-133.626z" fill="#323232"></path><path style="" d="M16.052-150.334c-1.861-1.752-3.918-6.791-6.724-7.689c-6.235-1.996-9.832-0.814-15.815,1.056 c1.95,1.333,13.256,6.743,15.078,9.338c0.553,0.788,4.486,9.01,3.775,9.446c0.508-0.311,1.084-0.772,1.605-0.961 c0.039,0.19,0.081,0.377,0.123,0.564c1.976-2.93,3.182-6.503,3.547-10.098C16.986-149.393,16.437-149.972,16.052-150.334z" fill="#1E1E1E"></path><path style="" d="M-1.141-154.24c7.066,0.611,10.865,5.39,13.104,14.893c0.174-9.503-4.206-17.06-10.437-20.7 c-9.305-5.437-16.761-1.279-21.793-5.363c0.459,2.212,2.383,3.842,4.361,4.777c-7.799,1.045-14.742,3.818-19.06,14.488 c0,10.946,10.379,13.853,15.134,2.101C-14.072-153.554-4.827-154.558-1.141-154.24z" fill="#323232"></path><path style="" d="M-19.001-133.002c-0.204-0.681-5.969-6.555-7.178-7.188c-4.306,6.412-14.654,5.161-21.953,1.041 c0.881,2.118,3.246,5.438,4.632,6.274c-2.446-0.254-5.218-0.799-6.649-1.095c2.537,4.636,7.459,7.65,14.03,8.969 c-2.081,0.245-5.491,0.906-7.868,0.868C-30.833-113.833-22.218-117.659-19.001-133.002z" fill="#1E1E1E"></path><path style="" d="M-46.785-127.909c3.748,1.95,11.818,1.589,15.802-1.628c-8.327,2.09-16.029,0.015-19.366-8.443 C-50.977-132.246-48.429-128.765-46.785-127.909z" fill="#323232"></path><path style="" d="M-21.045-139.335c3.005-4.96,1.237-12.891,19.2-15.869c-9.158-3.855-17.625-1.794-23.625,6.583 c-4.228,5.902-8.392,10.746-20.346,7.314c1.316,2.469,5.955,5.118,8.316,6.277c-2.465,1.252-5.19,1.404-8.446,1.901 C-33.104-127.533-26.009-131.142-21.045-139.335z" fill="#464646"></path><path style="" d="M-6.442-154.701c-2.854-2.297-7.626-1.406-10.532,0.486c-7.613,4.958-6.921,16.899-13.511,20.436 c-2.263,1.214-9.08,2.642-15.199,0.612c-0.088,0.013-0.173,0.024-0.262,0.038c12.841,5.596,19.937,1.988,24.9-6.206 c2.747-4.535,1.516-11.548,15.003-14.995C-6.175-154.454-6.298-154.585-6.442-154.701z" fill="#323232"></path><path style="" d="M-13.106-154.759c-4.083,1.729-9.299,7.197-11.158,15.412c-1.207,5.333-1.593,15.149-14.343,14.33 c3.582,2.118,6.019,3.768,10.257,4.051c-0.741,1.514-3.065,2.148-4.591,2.291c6.408,3.17,12.125,1.672,13.801-1.712 c3.44-6.948,4.245-16.927,6.094-20.112c2.347-4.043,8.909-13.962,21.637-7.129C3.093-157.875-6.097-157.727-13.106-154.759z" fill="#464646"></path><path style="" d="M-19.165-149.913c-1.649,2-3.144,4.509-4.203,7.476c2.636,2.403,5.6,4.56,9.093,5.405 c0.321-1.221,0.647-2.268,1.012-3.033C-15.755-143.127-18.003-146.329-19.165-149.913z" fill="#5A5A5A"></path><path style="" d="M3.144-149.674c-2.387-4.578-6.749-4.658-9.295-4.271c-7.803,1.188-11.954,9.543-12.478,20.779 c-0.62,13.276-6.778,16.933-14.158,14.56c6.345,3.07,11.985,1.575,13.647-1.782c3.44-6.948,4.245-16.927,6.094-20.112 C-11.06-143.921-6.057-151.544,3.144-149.674z" fill="#323232"></path><path style="" d="M1.526-153.291c-10.147-1.459-17.25,6.767-18.21,18.606c-0.571,7.042,0.96,17.33-7.903,18.809 c10.9,0.639,12.202-10.355,13.392-17.023c1.82-10.199,9.486-15.508,12.949-15.602c4.743-0.128,7.633,5.85,9.503,9.331 C10.045-148.815,6.542-152.569,1.526-153.291z" fill="#464646"></path><path style="" d="M-10.348-136.19c0.309-0.915,0.661-1.783,1.052-2.6c-1.268-2.747-2.008-5.786-2.874-8.83 c-1.129,1.482-2.062,3.219-2.795,5.141C-13.664-140.24-12.215-137.964-10.348-136.19z" fill="#5A5A5A"></path><path style="" d="M-1.298-137.996c-2.321,0.112-5.188,1.55-6.836,3.583c-1.712-11.934,11.754-24.195,18.634-4.726 c-0.805-1.178-3.4-3.087-4.737-3.345c0.44,0.82,0.598,1.763,0.975,2.565c-1.347-1.166-3.904-1.961-6.216-2.079 c0.741,1.165,1.838,2.005,2.112,2.829c-1.185-1.138-4.675-1.273-6.438-0.873C-2.867-139.134-1.298-138.875-1.298-137.996z" fill="#1E1E1E"></path><path style="" d="M-6.666-142.079c-0.148,0.192-0.473,0.343-0.794,0.586c-0.308,0.922-0.539,1.889-0.674,2.883 c0.035,0.14,0.07,0.281,0.118,0.435c1.056-3.054,5.565-5.335,8.779-3.802c2.247,0.159,4.674,0.932,5.975,2.058 c-0.377-0.802-0.535-1.745-0.975-2.565c0.111,0.021,0.241,0.07,0.368,0.112C3.085-146.612-2.885-146.983-6.666-142.079z" fill="#323232"></path><path style="" d="M-10.156-116.52c5.665-7.48-2.848-13.48,1.28-23.695c-4.812,7.965,1.153,18.715-3.531,22.918 c-2.598,2.331-5.698,0.563-8.939-2.946C-17.355-112.172-11.917-114.195-10.156-116.52z" fill="#464646"></path><path style="" d="M13.455-138.887c2.014-4.379,2.842-8.284,2.413-11.639c-1.568-3.481-3.731-8.082-6.539-9.687 c-0.025-0.014-0.053,2.174-0.081,2.166c4.069,3.549,5.083,10.179,3.635,19.524C13.072-138.65,13.264-138.774,13.455-138.887z" fill="#323232"></path><path style="" d="M15.375-135.03c4.728-5.115,4.95-12.589,3.597-16.721c1.307,2.045,3.076,4.231,3.534,6.816 C22.812-143.207,22.046-137.486,15.375-135.03z" fill="#464646"></path><path style="" d="M13.514-144.402c-0.751-7.689-4.292-15.912-11.138-18.195c4.652,0.03,6.081,1.523,7.943,3.313 C11.563-158.087,14.549-152.505,13.514-144.402z" fill="#464646"></path><path style="" d="M24.947-140.688c-0.227-0.233-0.461-0.478-0.699-0.728c-1,2.306-3.198,5.374-5.76,7.258 c0.034,0.539,0.06,1.09,0.087,1.635c2.682-2.265,6.456-4.703,9.007-5.194C26.788-138.768,25.875-139.734,24.947-140.688z" fill="#1E1E1E"></path><path style="" d="M18.623-131.644c0.021,0.43,0.047,0.852,0.069,1.285c0.5-0.134,1.067-0.233,1.617-0.282 c0.049-0.004,0.07,0.128,0.076,0.342c7.348-4.157,9.8,3.338,6.339,13.605c-0.02,0.754-0.113,1.612-0.272,2.672 c4.848-8.992,4.942-13.28,3.25-19.527C27.167-136.295,22.696-134.874,18.623-131.644z" fill="#464646"></path><path style="" d="M20.367-129.666c-0.078,1.316-0.367,3.528-0.4,3.78c4.033,0.264,4.236,5.771,3.023,10.708 c1.173-0.911,2.845-3.204,3.218-4.605c0.017,0.042,0.028,0.084,0.044,0.126C27.37-125.716,25.969-131.72,20.367-129.666z" fill="#1E1E1E"></path><path style="" d="M-10.568-160.725c-7.25-0.166-21.625,9.071-28.765,0.564c3,7.782,8.685,7.403,14.233,5.411 c3.551-1.275,7.222-2.817,10.952-3.456c7.805-1.336,15.673-1.841,22.146,5.98C1.031-162.708-6.141-160.624-10.568-160.725z" fill="#464646"></path><path style="" d="M-18.05-155.345c-5.116,1.043-7.422,4.507-9.485,7.155c-2.214,2.841-4.161,8.542-15.155,7.431 c4.268,2.3,10.709,2.876,14.413-0.61C-23.992-145.403-23.405-151.973-18.05-155.345z" fill="#5A5A5A"></path><polygon style="" points="-31.857,-142.227 -29.934,-142.711 -31.857,-143.195 -32.372,-145.719 -32.886,-143.195 -34.81,-142.711 -32.886,-142.227 -32.372,-139.703 " fill="#FFFFFF" fill-opacity="0.3"></polygon><polygon style="" points="-42.973,-129.793 -41.049,-130.277 -42.973,-130.761 -43.487,-133.285 -44.001,-130.761 -45.925,-130.277 -44.001,-129.793 -43.487,-127.27 " fill="#FFFFFF" fill-opacity="0.3"></polygon><polygon style="" points="-35.387,-113.995 -33.463,-114.479 -35.387,-114.963 -35.901,-117.487 -36.416,-114.963 -38.34,-114.479 -36.416,-113.995 -35.901,-111.471 " fill="#FFFFFF" fill-opacity="0.3"></polygon><polygon style="" points="-13.301,-136.395 -10.327,-137.143 -13.301,-137.891 -14.096,-141.793 -14.892,-137.891 -17.866,-137.143 -14.892,-136.395 -14.096,-132.492 " fill="#FFFFFF" fill-opacity="0.3"></polygon><polygon style="" points="6.254,-155.322 9.229,-156.07 6.254,-156.818 5.459,-160.721 4.664,-156.818 1.689,-156.07 4.664,-155.322 5.459,-151.419 " fill="#FFFFFF" fill-opacity="0.3"></polygon><circle style="" r="1.722" cx="-31.392" cy="-127.167" fill="#FFFFFF" fill-opacity="0.3"></circle><circle style="" r="1.722" cx="22.99" cy="-134.653" fill="#FFFFFF" fill-opacity="0.3"></circle><circle style="" r="1.722" cx="-14.488" cy="-157.244" fill="#FFFFFF" fill-opacity="0.3"></circle><circle style="" r="1.198" cx="-29.275" cy="-149.427" fill="#FFFFFF" fill-opacity="0.3"></circle><circle style="" r="1.198" cx="26.608" cy="-123.738" fill="#FFFFFF" fill-opacity="0.3"></circle><circle style="" r="1.198" cx="-17.866" cy="-132.292" fill="#FFFFFF" fill-opacity="0.3"></circle></g></svg>
