<svg xmlns:xlink="http://www.w3.org/1999/xlink" xmlns="http://www.w3.org/2000/svg" viewBox="-40.94377899169922 -146.29818725585938 68.82828521728516 163.4471893310547" preserveAspectRatio="xMidYMid meet" width="300"  height="400"><!---0011-00350002400038--><g><path style="" d="M10.18-7.21C10.01-6.76,9.71-6.38,9.5-5.96C8.46-6.67,7.17-7.04,5.98-6.62C4.79-6.19,3.79-5.36,2.89-4.48C1.99-3.59,1.17-2.62,0.2-1.81c-0.97,0.82-2.38,1.57-3.49,0.94c-1.27-0.72-2.39-1.7-3.27-2.87c-0.21-0.29-0.42-0.61-0.4-0.97C-6.95-4.9-6.87-5.08-6.8-5.26c0.46-1.08,0.95-2.19,1.41-3.26c-0.6-1.15-1.13-2.32-1.59-3.53c-0.15-0.39-0.3-0.79-0.3-1.21c0.01-0.35,0.11-0.68,0.21-1.01c0.22-0.7,0.43-1.41,0.72-2.09c0.24-0.57,0.53-1.13,0.71-1.72c0.38-1.21,0.15-2.24,0-3.44c-0.17-1.29-0.12-2.66-0.07-3.96c0.08-1.82,1.02-2.93,2.16-4.26c1.31-1.53,2.95-2.16,4.66-2.18c1.49-0.01,3.02,0.43,4.46,1.16c0.04,0.01,0.07,0.03,0.11,0.05c1.11,0.57,2.1,1.43,2.64,2.55c0.3,0.64,0.46,1.35,0.59,2.05c0.3,1.62,0.33,3.34,0.68,4.93c0.08,0.37,0.2,0.75,0.2,1.14c-0.01,0.38-0.14,0.74-0.28,1.1c-0.44,1.2-0.89,2.07-0.49,3.32c0.01,0.04,0.02,0.07,0.03,0.11c0.16,0.45,0.32,0.9,0.51,1.33c0.06,0.14,0.13,0.28,0.2,0.42c0.1,0.19,0.21,0.39,0.24,0.6c0.03,0.25-0.04,0.51-0.12,0.75c-0.19,0.62-0.42,1.23-0.67,1.82c-0.08,0.21-0.17,0.41-0.26,0.61c0.33,0.6,0.58,1.15,0.82,1.74C9.91-7.91,10.04-7.57,10.18-7.21z" fill="#A1A1A1"></path><g><path style="" d="M5.57-30.76c-0.08,0.06-0.17,0.09-0.26,0.13c-0.69,0.23-1.39,0.25-2.11,0.22c-0.15,0.11-0.3,0.23-0.49,0.25c-0.26,0.03-0.46-0.22-0.51-0.48H1.6c-0.31,0-0.63,0-0.94-0.06c-0.3-0.05-0.58-0.16-0.84-0.32c-0.09-0.05-0.18-0.12-0.2-0.22c-0.02-0.11,0.05-0.22,0.15-0.27c0.09-0.05,0.2-0.06,0.31-0.07c0.35-0.03,0.7-0.04,1.05-0.03c-0.04-0.09-0.05-0.2-0.02-0.31C2.6-31.93,4.13-31.49,5.57-30.76z" fill="#E5E5E5"></path><path style="" d="M5.346-29.597c-0.44-0.065-0.945-0.033-1.352-0.034c-0.609-0.001-1.219,0.059-1.816,0.18c-0.303,0.061-0.616,0.145-0.846,0.352c-0.058,0.052-0.112,0.117-0.121,0.195c-0.01,0.094,0.05,0.181,0.115,0.249c0.172,0.179,0.408,0.296,0.655,0.324c-0.237-0.016-0.548,0.071-0.783,0.107c-0.232,0.036-0.484,0.097-0.626,0.284c-0.183,0.24-0.096,0.615,0.136,0.809c0.137,0.114,0.316,0.177,0.494,0.173c0.153,0.233,0.353,0.538,0.603,0.66c0.497,0.243,1.083,0.227,1.626,0.122c0.543-0.105,1.069-0.293,1.616-0.379c0.503-0.08,1.403-0.08,1.285-0.832c0.219,0.016,0.431-0.187,0.485-0.4c0.054-0.213-0.03-0.446-0.186-0.601c-0.156-0.154-0.374-0.235-0.592-0.256c0.151,0.015,0.259-0.358,0.229-0.451c-0.056-0.178-0.391-0.358-0.551-0.414C5.602-29.55,5.477-29.578,5.346-29.597z" fill="#E5E5E5"></path><path style="" d="M0.857-25.307c0.028,0.033,0.06,0.065,0.095,0.092c0.245,0.192,0.604,0.279,0.907,0.303c0.366,0.029,0.734-0.031,1.087-0.131c0.191-0.054,0.388-0.125,0.525-0.269c0.03-0.031,0.058-0.068,0.064-0.111c0.016-0.112-0.112-0.186-0.219-0.222c-0.72-0.236-1.494-0.225-2.252-0.213C0.673-25.851,0.671-25.531,0.857-25.307z" fill="#E5E5E5"></path><path style="" d="M1.841-23.093c0.01,0.012,0.031-0.007,0.025-0.021c-0.006-0.015-0.023-0.02-0.039-0.023c-0.4-0.09-0.814-0.115-1.222-0.082c-0.11,0.009-0.224,0.023-0.319,0.08c-0.248,0.146-0.162,0.459,0.012,0.626c0.151,0.144,0.357,0.211,0.559,0.262c0.885,0.221,1.811,0.193,2.723,0.164c0.127-0.004,0.254-0.008,0.381-0.012c0.273-0.009,0.549-0.018,0.811-0.093c0.35-0.1,0.656-0.312,0.993-0.45c0.452-0.185,1.02-0.29,1.216-0.738c0.069-0.157,0.066-0.364-0.062-0.477c-0.061-0.054-0.143-0.08-0.224-0.091c-0.545-0.072-0.988,0.464-1.531,0.544c0.06-0.1-0.08-0.245-0.178-0.306c-0.099-0.062-0.221-0.068-0.337-0.073c-0.847-0.035-1.723-0.065-2.512,0.245c-0.092,0.036-0.186,0.08-0.249,0.157s-0.082,0.197-0.019,0.274L1.841-23.093z" fill="#E5E5E5"></path><path style="" d="M0.826-20.911c0.108,0.129,0.279,0.183,0.442,0.223c0.628,0.154,1.309,0.179,1.904-0.074c0.033-0.014,0.068-0.03,0.089-0.06c0.027-0.037,0.027-0.086,0.019-0.131c-0.045-0.263-0.313-0.424-0.567-0.504c-0.522-0.164-1.087-0.132-1.627-0.041C0.821-21.455,0.63-21.146,0.826-20.911z" fill="#E5E5E5"></path><path style="" d="M4.674-21.311c0.078,0.092,0.191,0.146,0.304,0.185c0.215,0.074,0.461,0.102,0.663-0.002c0.202-0.104,0.325-0.375,0.212-0.571c-0.083-0.143-0.257-0.205-0.42-0.225c-0.186-0.023-0.376-0.005-0.555,0.053C4.637-21.794,4.491-21.526,4.674-21.311z" fill="#E5E5E5"></path><path style="" d="M4.114-19.764c0.285,0.104,0.601,0.073,0.899,0.014c0.811-0.162,1.581-0.53,2.216-1.06c0.051-0.043,0.102-0.088,0.132-0.147c0.081-0.162-0.044-0.371-0.216-0.428c-0.172-0.057-0.363,0.004-0.516,0.101c-0.153,0.097-0.282,0.228-0.43,0.333c-0.118,0.083-0.256,0.151-0.4,0.139c-0.102-0.008-0.195-0.056-0.294-0.081c-0.248-0.063-0.508,0.015-0.752,0.093c-0.263,0.084-0.771,0.2-0.938,0.446C3.646-20.106,3.876-19.851,4.114-19.764z" fill="#E5E5E5"></path></g><path style="" d="M9.77-8.24C9.46-8.22,9.15-8.25,8.85-8.29c-1.72-0.22-3.2-0.62-4.74,0.51C3.89-7.62,3.69-7.45,3.45-7.33c-0.2,0.1-0.42,0.15-0.63,0.21c-1.56,0.44-2.9,1.27-3.98,2.48c0.61-1.65,1.56-3.21,2.89-4.37c1.32-1.16,3.11-1.93,4.87-1.9c-1.03-0.78-2.41-1.08-3.67-0.8c-1.63,0.36-2.9,1.55-4.08,2.74c-0.23-1.75,0.22-3.57,1.22-5.02c1.39-2,4.44-3.79,6.9-2.8c0.73,0.3,1.36,0.82,2.05,1.17c0.01,0.04,0.02,0.07,0.03,0.11c0.16,0.45,0.32,0.9,0.51,1.33c-0.19,0.02-0.38,0-0.56-0.04c-0.57-0.12-1.06-0.49-1.6-0.69c-1.43-0.53-3.09,0.15-4.11,1.28c-0.11,0.12-0.21,0.29-0.12,0.42c0.06,0.09,0.19,0.11,0.3,0.12c0.83,0.05,1.67,0,2.5-0.15c0.68-0.12,1.46-0.28,2.01,0.15c0.25,0.19,0.4,0.48,0.53,0.77c0.27,0.56,0.5,1.14,0.7,1.73c-0.08,0.21-0.17,0.41-0.26,0.61C9.28-9.38,9.53-8.83,9.77-8.24z" fill="#BABABA"></path></g><!---0009-00560002100039--><g><path style="" d="M8.68-25.2c-0.31,1.52-1.04,2.68-2.2,3.51c-0.3,0.23-0.63,0.42-0.98,0.6c-1.75,0.88-4.78,1.04-6.9,0.17c-0.35-0.14-0.67-0.3-0.96-0.5c-0.94-0.65-1.62-1.61-2.13-2.64c-2.18-4.47-0.54-9.54-0.65-14.27c0-0.08,0-0.15-0.01-0.23c-0.04-1.14-0.17-2.29-0.2-3.43c-0.09-3.6,1.38-7.43,4.67-9.25c1.41-0.78,3.12-1.06,4.66-0.59c2.26,0.7,3.12,2.55,3.48,4.71c0.04,0.23,0.08,0.45,0.11,0.68c0.04,0.24,0.08,0.49,0.12,0.74c0.1,0.65,0.2,1.31,0.28,1.97c0.16,1.22,0.29,2.45,0.34,3.69c0.04,0.87,0.03,1.76-0.03,2.64c-0.01,0.35-0.04,0.71-0.08,1.07c-0.14,1.24-0.36,2.06-0.06,3.32c0.16,0.64,0.3,1.36,0.42,2.12C8.88-28.98,9.02-26.83,8.68-25.2z" fill="#A1A1A1"></path><path style="" d="M7.97-43.73c-1.72,0.01-3.53,0.64-5.06,1.38c-0.45,0.21-0.89,0.45-1.36,0.6c-0.56,0.19-1.15,0.25-1.72,0.4C-2-40.89-3.82-39.9-5.15-38.56c-0.04-1.14-0.17-2.29-0.2-3.43c-0.09-3.6,1.38-7.43,4.67-9.25c1.41-0.78,3.12-1.06,4.66-0.59c2.26,0.7,3.12,2.55,3.48,4.71c0.04,0.23,0.08,0.45,0.11,0.68c0.04,0.24,0.08,0.49,0.12,0.74C7.79-45.05,7.89-44.39,7.97-43.73z" fill="#BABABA"></path><path style="" d="M8.68-28.39c0.04,2.05-0.86,3.99-1.74,5.85c-0.14,0.29-0.28,0.59-0.46,0.85c-0.09,0.13-0.18,0.24-0.29,0.35C6-21.15,5.78-21,5.54-20.88c-0.17,0.09-0.34,0.16-0.52,0.23c-0.41,0.16-0.83,0.3-1.25,0.4c-1,0.26-2.04,0.37-3.06,0.33c-0.52-0.02-1.05-0.08-1.5-0.33c-0.32-0.18-0.52-0.41-0.61-0.67c-0.39-0.98,0.62-2.41,1.17-3.21c0.32-0.46,0.68-0.9,1-1.35c0.09-0.12,0.18-0.25,0.27-0.38c0.16-0.24,0.31-0.48,0.43-0.73c0.19-0.37,0.33-0.76,0.4-1.18c0.02-0.13,0.03-0.28-0.06-0.38c-0.17-0.18-0.46-0.03-0.65,0.13c-0.22,0.18-0.44,0.37-0.66,0.57c-0.65,0.57-1.28,1.19-1.86,1.83c-0.14,0.15-0.3,0.32-0.51,0.34c-0.53,0.04-0.28-0.88-0.25-1.14c0.22-2.14,0.8-4.17,1.77-6.08c-0.28-0.68-0.57-1.35-0.85-2.03c-0.11-0.25-0.22-0.53-0.19-0.8c0.03-0.23,0.15-0.44,0.28-0.63c0.87-1.3,2.14-2.26,3.39-3.2c0.76-0.57,2.23-1.77,3.25-1.41c0.52,0.19,0.9,0.62,1.24,1.05c0.54,0.69,1.04,1.39,1.51,2.12c-0.01,0.35-0.04,0.71-0.08,1.07c-0.14,1.24-0.36,2.06-0.06,3.32c0.16,0.64,0.3,1.36,0.42,2.12c-0.05-0.03-0.11-0.04-0.16-0.02c-0.08,0.02-0.14,0.1-0.2,0.16c-0.6,0.74-1.21,1.47-1.82,2.2C6.15-28.28,5.93-28,5.7-27.73c-0.33,0.39-0.66,0.79-0.92,1.22c-0.21,0.35-0.38,0.71-0.47,1.1C6.07-25.75,7.73-26.87,8.68-28.39z" fill="#BABABA"></path><path style="" d="M-1.736-40.116c-0.002,0.058-0.078,0.074-0.135,0.065c-0.235-0.036-0.466-0.092-0.692-0.165c-0.018-0.006-0.036-0.012-0.048-0.026c-0.015-0.017-0.017-0.041-0.017-0.063c-0.007-0.27,0.083-0.532,0.138-0.797c0.053-0.259,0.072-0.525,0.055-0.788c0.072-0.136,0.282-0.121,0.423-0.182c0.141-0.062,0.245-0.201,0.263-0.354C-1.7-41.624-1.7-40.989-1.736-40.116z" fill="#A1A1A1"></path><path style="" d="M1.17-41.625c-0.01,0-0.022-0.006-0.032-0.006c-0.32,0.09-0.654,0.133-0.974,0.203c0.06-0.15,0.157-0.371,0.207-0.511c0.08-0.26,0.15-0.52,0.2-0.78c0.03-0.2,0.05-0.39,0.12-0.57c0.07-0.19,0.2-0.36,0.38-0.42c0.03-0.02,0.07-0.02,0.1-0.01c0.08,0.02,0.1,0.12,0.1,0.19C1.32-42.93,1.27-42.215,1.17-41.625z" fill="#A1A1A1"></path><path style="" d="M7.69-45.7c-0.42-0.03-0.84,0.01-1.25,0.14c-0.03-0.08,0.01-0.23-0.02-0.31c-0.59-0.13-1.2-0.22-1.76-0.45c-0.56-0.24-1.07-0.66-1.25-1.24c-0.07-0.21-0.08-0.44-0.1-0.67c-0.04-0.54-0.08-1.08-0.05-1.62c0.01-0.45,0.01-1.02,0.23-1.42c0.02-0.04,0.05-0.08,0.1-0.1c0.04-0.01,0.08,0.01,0.12,0.03c0.19,0.12,0.22,0.39,0.24,0.61c0.03,0.49,0.07,0.97,0.1,1.45c0.04,0.63,0.11,1.31,0.56,1.74c0.69,0.66,1.86,0.39,2.67,0.88c0.1,0.06,0.2,0.14,0.29,0.22C7.61-46.2,7.65-45.95,7.69-45.7z" fill="#A1A1A1"></path><path style="" d="M3.434-21.647c-0.305,0.258-0.649,0.454-1.064,0.543c-0.764,0.163-1.306-0.129-1.919-0.525c-0.11-0.071-0.222-0.146-0.298-0.253c-0.076-0.107-0.109-0.254-0.048-0.371c0.096-0.186,0.221-0.155,0.426-0.199c1.066-0.229,2.214-0.252,3.146-0.817c0.419-0.254,0.787-0.613,1.258-0.748c0.068-0.019,0.143-0.033,0.207-0.003c0.084,0.04,0.118,0.148,0.102,0.24c-0.016,0.092-0.071,0.171-0.126,0.247c-0.383,0.527-0.826,0.98-1.254,1.461C3.726-21.918,3.585-21.775,3.434-21.647z" fill="#A1A1A1"></path><g><path style="" d="M1.555-34.107c0.137-0.056,0.281-0.162,0.28-0.31c0-0.086-0.051-0.163-0.108-0.228c-0.321-0.363-1.666-0.821-1.971-0.208C-0.605-34.125,1.169-33.951,1.555-34.107z" fill="#E5E5E5"></path><path style="" d="M2.17-33.561c0.078,0.128,0.213,0.21,0.35,0.272c0.391,0.177,0.887,0.212,1.221-0.058c0.139-0.113,0.243-0.297,0.195-0.47c-0.061-0.218-0.318-0.307-0.541-0.35C3.063-34.23,1.739-34.269,2.17-33.561z" fill="#E5E5E5"></path><path style="" d="M4.596-34.297c0.29,0.142,0.641,0.155,0.94,0.033c0.128-0.052,0.251-0.132,0.315-0.254c0.065-0.121,0.055-0.29-0.051-0.378c-0.054-0.045-0.124-0.065-0.192-0.083c-0.355-0.096-1.055-0.217-1.324,0.14C4.138-34.644,4.437-34.375,4.596-34.297z" fill="#E5E5E5"></path><path style="" d="M3.759-31.509c0.54-0.046,1.089,0.018,1.604,0.188c0.133,0.044,0.28,0.112,0.319,0.246c0.029,0.103-0.018,0.216-0.095,0.29c-0.077,0.074-0.179,0.116-0.28,0.151c-0.684,0.236-1.386,0.255-2.108,0.225c-0.147,0.111-0.303,0.226-0.485,0.247c-0.261,0.031-0.464-0.217-0.509-0.476c-0.201,0-0.401,0-0.602,0c-0.315,0-0.632,0-0.941-0.058c-0.296-0.056-0.582-0.165-0.84-0.321c-0.089-0.054-0.183-0.124-0.201-0.227c-0.019-0.107,0.055-0.212,0.149-0.265c0.095-0.053,0.206-0.063,0.314-0.072c0.348-0.026,0.697-0.036,1.045-0.029c-0.069-0.165-0.036-0.415,0.107-0.521s0.327-0.14,0.505-0.151c0.675-0.044,1.365,0.182,1.882,0.618C3.674-31.62,3.761-31.576,3.759-31.509z" fill="#E5E5E5"></path><path style="" d="M5.346-29.597c-0.44-0.065-0.945-0.033-1.352-0.034c-0.609-0.001-1.219,0.059-1.816,0.18c-0.303,0.061-0.616,0.145-0.846,0.352c-0.058,0.052-0.112,0.117-0.121,0.195c-0.01,0.094,0.05,0.181,0.115,0.249c0.172,0.179,0.408,0.296,0.655,0.324c-0.237-0.016-0.548,0.071-0.783,0.107c-0.232,0.036-0.484,0.097-0.626,0.284c-0.183,0.24-0.096,0.615,0.136,0.809c0.137,0.114,0.316,0.177,0.494,0.173c0.153,0.233,0.353,0.538,0.603,0.66c0.497,0.243,1.083,0.227,1.626,0.122c0.543-0.105,1.069-0.293,1.616-0.379c0.503-0.08,1.403-0.08,1.285-0.832c0.219,0.016,0.431-0.187,0.485-0.4c0.054-0.213-0.03-0.446-0.186-0.601c-0.156-0.154-0.374-0.235-0.592-0.256c0.151,0.015,0.259-0.358,0.229-0.451c-0.056-0.178-0.391-0.358-0.551-0.414C5.602-29.55,5.477-29.578,5.346-29.597z" fill="#E5E5E5"></path><path style="" d="M0.857-25.307c0.028,0.033,0.06,0.065,0.095,0.092c0.245,0.192,0.604,0.279,0.907,0.303c0.366,0.029,0.734-0.031,1.087-0.131c0.191-0.054,0.388-0.125,0.525-0.269c0.03-0.031,0.058-0.068,0.064-0.111c0.016-0.112-0.112-0.186-0.219-0.222c-0.72-0.236-1.494-0.225-2.252-0.213C0.673-25.851,0.671-25.531,0.857-25.307z" fill="#E5E5E5"></path><path style="" d="M1.841-23.093c0.01,0.012,0.031-0.007,0.025-0.021c-0.006-0.015-0.023-0.02-0.039-0.023c-0.4-0.09-0.814-0.115-1.222-0.082c-0.11,0.009-0.224,0.023-0.319,0.08c-0.248,0.146-0.162,0.459,0.012,0.626c0.151,0.144,0.357,0.211,0.559,0.262c0.885,0.221,1.811,0.193,2.723,0.164c0.127-0.004,0.254-0.008,0.381-0.012c0.273-0.009,0.549-0.018,0.811-0.093c0.35-0.1,0.656-0.312,0.993-0.45c0.452-0.185,1.02-0.29,1.216-0.738c0.069-0.157,0.066-0.364-0.062-0.477c-0.061-0.054-0.143-0.08-0.224-0.091c-0.545-0.072-0.988,0.464-1.531,0.544c0.06-0.1-0.08-0.245-0.178-0.306c-0.099-0.062-0.221-0.068-0.337-0.073c-0.847-0.035-1.723-0.065-2.512,0.245c-0.092,0.036-0.186,0.08-0.249,0.157s-0.082,0.197-0.019,0.274L1.841-23.093z" fill="#E5E5E5"></path><path style="" d="M0.826-20.911c0.108,0.129,0.279,0.183,0.442,0.223c0.628,0.154,1.309,0.179,1.904-0.074c0.033-0.014,0.068-0.03,0.089-0.06c0.027-0.037,0.027-0.086,0.019-0.131c-0.045-0.263-0.313-0.424-0.567-0.504c-0.522-0.164-1.087-0.132-1.627-0.041C0.821-21.455,0.63-21.146,0.826-20.911z" fill="#E5E5E5"></path><path style="" d="M4.674-21.311c0.078,0.092,0.191,0.146,0.304,0.185c0.215,0.074,0.461,0.102,0.663-0.002c0.202-0.104,0.325-0.375,0.212-0.571c-0.083-0.143-0.257-0.205-0.42-0.225c-0.186-0.023-0.376-0.005-0.555,0.053C4.637-21.794,4.491-21.526,4.674-21.311z" fill="#E5E5E5"></path><path style="" d="M5.54-20.88c-0.17,0.09-0.34,0.16-0.52,0.23c-0.41,0.16-0.83,0.3-1.25,0.4c0.01-0.04,0.03-0.07,0.05-0.11c0.08-0.11,0.23-0.2,0.4-0.27c0.19-0.07,0.39-0.13,0.53-0.17c0.05-0.02,0.09-0.03,0.14-0.04c0.04-0.02,0.09-0.03,0.13-0.04c0.17-0.04,0.33-0.05,0.48-0.01C5.51-20.89,5.53-20.88,5.54-20.88z" fill="#E5E5E5"></path></g></g><!---0021-00610003200023--><g><g><path style="" d="M7.43-46.82c-0.01,0.08-0.03,0.16-0.04,0.24c-0.05,0.31-0.12,0.61-0.24,0.89c-0.07,0.15-0.14,0.29-0.24,0.43c-0.35,0.51-0.77,0.98-1.24,1.39c-1.28,1.1-2.85,1.72-4.48,2.13c-0.01,0-0.03,0.01-0.04,0.01c-0.32,0.09-0.64,0.16-0.96,0.23c-0.01,0-0.03,0.01-0.04,0.01c-0.09,0.02-0.19,0.04-0.28,0.06c-0.1,0.02-0.2,0.04-0.3,0.05h-0.01c-0.04,0.01-0.06,0.01-0.1,0.02c-0.36,0.07-0.73,0.13-1.09,0.17c-0.02,0-0.04,0.01-0.06,0.01c-0.26,0.04-0.51,0.07-0.77,0.09c-0.03,0.01-0.05,0.01-0.08,0.01C-3.37-41-4.19-40.97-5.02-41c-0.6-0.03-1.19-0.08-1.77-0.16c-1.8-0.25-3.57-0.72-5.32-1.23c-0.35-0.1-0.7-0.2-1.05-0.31c-0.46-0.14-0.92-0.31-1.34-0.54c-0.14-0.08-0.28-0.16-0.42-0.25c-0.37-0.23-0.72-0.47-1.05-0.75c-0.15-0.13-0.3-0.26-0.44-0.4c-0.29-0.29-0.56-0.63-0.76-0.99c-0.19-0.3-0.33-0.62-0.43-0.96c-0.05-0.17-0.08-0.33-0.09-0.49c-0.01-0.01-0.01-0.02,0-0.03c-0.06-0.53,0.04-1.02,0.15-1.57c0.32-1.76,0.96-3.45,1.6-5.11c0.22-0.57,0.49-1.16,1.01-1.41c0.06-0.03,0.13-0.06,0.2-0.08c-0.01-0.06-0.01-0.13-0.02-0.19c-0.02-0.31-0.03-0.62,0.01-0.93c0.06-0.37,0.21-0.73,0.49-0.98c0.28-0.24,0.7-0.34,1.04-0.18c0.5,0.23,1,0.45,1.51,0.65c0.45,0.18,0.9,0.33,1.36,0.47c0.19,0.07,0.39,0.13,0.59,0.18c0.03,0.01,0.05,0.02,0.08,0.03c0.04,0.01,0.09,0.03,0.13,0.04c0.24,0.07,0.48,0.13,0.72,0.19c0.14,0.04,0.28,0.07,0.43,0.1c0.15,0.04,0.31,0.07,0.47,0.1c0.22,0.05,0.44,0.09,0.67,0.13c0.2,0.03,0.4,0.07,0.61,0.09c0.17,0.03,0.33,0.05,0.5,0.07c0.08,0.01,0.15,0.02,0.23,0.03c0.57,0.07,1.13,0.11,1.7,0.13c0.01,0,0.01,0,0.02,0c0.72,0.03,1.45,0.02,2.17-0.03c0.64-0.04,1.28-0.11,1.91-0.21c0.23-0.02,0.45-0.06,0.67-0.1c0.06-0.01,0.12-0.02,0.19-0.04c0.14-0.02,0.3-0.06,0.46-0.1c0.28-0.06,0.57-0.13,0.85-0.22c0.29-0.08,0.56-0.17,0.77-0.27c0.06-0.03,0.13-0.06,0.2-0.09c0.05-0.02,0.1-0.04,0.15-0.07c0.23-0.1,0.47-0.22,0.69-0.35c0.19-0.11,0.36-0.23,0.51-0.38c0.09-0.09,0.19-0.2,0.32-0.22c0.59-0.09,0.86,1.11,0.97,1.51c0.13,0.43,0.19,0.86,0.23,1.29c0.02,0.29,0.03,0.59,0.03,0.89c0.83-0.45,0.91,1.35,0.98,1.79c0.14,0.78,0.21,1.53,0.38,2.29C7.49-48.73,7.59-47.76,7.43-46.82z" fill="#BABABA"></path><path style="" d="M5.93-53.74c-0.18,0.12-0.35,0.24-0.54,0.35c-0.33,0.18-0.69,0.3-1.05,0.42c-0.27,0.09-0.53,0.18-0.81,0.24c-0.06,0.02-0.13,0.03-0.18-0.01c-0.03-0.03-0.05-0.08-0.06-0.12c-0.03-0.12-0.06-0.24-0.09-0.36c-0.02-0.07-0.03-0.14,0-0.2c0.02-0.06,0.07-0.09,0.12-0.11c0.29-0.15,0.62-0.18,0.92-0.27c0.54-0.16,0.97-0.52,1.47-0.76c0.06-0.03,0.13-0.05,0.19-0.07C5.92-54.34,5.93-54.04,5.93-53.74z" fill="#A1A1A1"></path><path style="" d="M-4.216-55.493c0.023,0.131,0.021,0.277,0.008,0.427c-0.083,0.955-0.166,1.911-0.248,2.867c-0.032,0.366-0.649,0.229-0.894,0.21c-0.205-0.016-0.417-0.053-0.582-0.175c-0.248-0.184-0.172-0.383-0.184-0.637c-0.042-0.869,0.021-1.744,0.189-2.598c0.046-0.237,0.143-0.516,0.378-0.567c0.283-0.061,0.589-0.08,0.873-0.014C-4.383-55.913-4.258-55.728-4.216-55.493z" fill="#DCDCDC"></path><path style="" d="M2.177-55.416c0.102,0.614,0.167,1.218,0.124,1.854c-0.009,0.132-0.022,0.266,0.001,0.396s0.089,0.26,0.203,0.326c0.16,0.093,0.361,0.042,0.538-0.012c0.21-0.064,0.435-0.138,0.561-0.317c0.096-0.136,0.117-0.311,0.133-0.477c0.052-0.565,0.068-1.136,0.005-1.7c-0.032-0.293-0.077-0.801-0.315-1.01c-0.101-0.089-0.234-0.135-0.368-0.157c-0.308-0.05-0.988,0.034-1.004,0.46C2.049-55.859,2.145-55.61,2.177-55.416z" fill="#DCDCDC"></path><path style="" d="M-6.14-55.51c-0.29,0.21-0.53,0.5-0.7,0.82c-0.26,0.5-0.37,1.03-0.29,1.59c-1.11-0.04-2.1-0.27-3.18-0.56c0.08-0.88,0.29-1.75,0.64-2.57c0.04,0.01,0.09,0.03,0.13,0.04c0.95,0.27,1.92,0.48,2.9,0.61C-6.47-55.55-6.31-55.53-6.14-55.51z" fill="#DCDCDC"></path><path style="" d="M0.06-53.6c0.02,0.3,0.15,0.69-0.15,0.75c-1.04,0.22-2.1,0.28-3.16,0.19c-0.49-0.05-0.8,0.01-0.85-0.51c-0.05-0.48-0.04-0.96,0.04-1.43c0.09-0.51,0.42,0.13,0.48,0.32c0.04,0.16,0.1,0.33,0.22,0.45c0.44,0.44,0.99-0.03,1.12-0.48c0.11-0.34,0.19-0.71,0.22-1.07c0.64-0.04,1.28-0.11,1.91-0.21C-0.05-54.92,0-54.26,0.06-53.6z" fill="#DCDCDC"></path><path style="" d="M1.84-53.81c0,0.06,0.02,0.59-0.01,0.6c-0.33,0.07-0.69,0.1-1.02,0.13c-0.04-0.87-0.04-1.77-0.06-2.65c0.14-0.02,0.3-0.06,0.46-0.1c-0.06,0.31-0.06,0.64,0.01,0.94C1.29-54.59,1.51-53.87,1.84-53.81z" fill="#DCDCDC"></path><path style="" d="M4.54-54.02c-0.4,0.15-0.8,0.27-1.2,0.42c-0.1-0.94-0.2-1.87-0.31-2.81c0.28-0.12,0.57-0.26,0.84-0.42C4.2-55.92,4.43-54.97,4.54-54.02z" fill="#DCDCDC"></path><path style="" d="M-2.184-54.304c-0.169,0.378-0.025,0.855,0.292,1.121c0.29,0.243,0.719,0.319,1.063,0.162s0.572-0.552,0.507-0.924C-0.456-54.723-1.818-55.121-2.184-54.304z" fill="#BABABA"></path><path style="" d="M-6.64-55.58c-0.05,0.09-0.13,0.18-0.21,0.25c-0.28,0.24-0.69,0.29-1.05,0.22c-0.15,0.3-0.42,0.55-0.75,0.61c-0.33,0.05-0.7-0.1-0.84-0.4c-0.09-0.18-0.09-0.38-0.09-0.58c0.01-0.24,0.02-0.47,0.04-0.71C-8.59-55.92-7.62-55.71-6.64-55.58z" fill="#BABABA"></path></g><g><path style="" d="M-13.972-45.845c0.548-2.428,1.353-4.798,2.396-7.057c0.989-0.106,2.222-0.107,3.058,0.432c-0.301,1.24-0.648,2.543-0.98,3.775c-0.098,0.364-0.199,0.731-0.374,1.066c-0.36,0.691-1.017,1.197-1.742,1.482C-12.339-45.863-13.194-45.833-13.972-45.845z" fill="#DCDCDC"></path><path style="" d="M-2.62-46.28c-0.16,0.42,0.24,0.88,0.15,1.33c-0.01,0.07-0.05,0.15-0.11,0.18c-0.1,0.05-0.21-0.03-0.29-0.1c-0.56-0.43-1.23-0.7-1.92-0.78c-0.17-0.02-0.37-0.02-0.47,0.13c-0.12,0.18,0.05,0.42,0.2,0.59c0.44,0.46,0.84,0.96,1.19,1.49c0.22,0.32,0.43,0.76,0.21,1.08c0.2,0.07,0.1,0.22-0.08,0.33c-0.18,0.12-0.41,0.07-0.62,0.02c-1.63-0.41-3.19-1.27-4.87-1.14c-0.36,0.02-0.77,0.13-0.96,0.45c-0.03,0.04-0.05,0.1-0.04,0.15c0.02,0.1,0.13,0.14,0.23,0.16c1.66,0.45,3.37,0.8,4.98,1.39c-0.6-0.03-1.19-0.08-1.77-0.16c-1.8-0.25-3.57-0.72-5.32-1.23c-0.35-0.1-0.7-0.2-1.05-0.31c-0.13-0.58-0.17-1.23-0.28-1.8c1.31-0.2,2.69-0.44,3.7-1.29c0.92-0.78,1.39-1.96,1.71-3.12c0.29-1.03,0.48-2.09,0.58-3.15c1.01,0.05,1.95,0.16,2.95,0.21c0.6,0.04,1.22,0.07,1.8,0.25c-0.08,0.5-0.17,1.17-0.25,1.67c-0.02,0.17-0.05,0.35,0.01,0.51c0.1,0.25,0.37,0.36,0.58,0.53c0.63,0.47,0.72,1.5,0.19,2.07C-2.33-46.64-2.54-46.5-2.62-46.28z" fill="#DCDCDC"></path></g><path style="" d="M-11.05-53.54c-0.03,0.1-0.06,0.2-0.09,0.3c0.03,0.07-0.07,0.07-0.14,0.09c-0.06,0.02-0.13,0-0.2-0.02c-0.28-0.08-0.56-0.17-0.83-0.28c-0.18-0.06-0.36-0.13-0.53-0.21c-0.32,0.53-0.66,1.08-0.97,1.65c-0.39,0.69-0.73,1.4-0.97,2.11c-0.43,1.3-0.55,2.74-0.07,4.02c0.33,0.13,0.68-0.09,0.97,0.12c0.12,0.1,0.19,0.25,0.21,0.41c0.01,0.16-0.01,0.31-0.03,0.47c-0.01,0.06-0.03,0.13-0.08,0.16c-0.03,0.02-0.07,0.03-0.11,0.03c-0.33,0.01-0.67-0.02-1-0.07c0.01,0.45,0,0.88-0.03,1.27c-0.37-0.23-0.72-0.47-1.05-0.75c0.01-0.09,0-0.17-0.01-0.26c-0.09-0.78-0.57-0.84-1.19-1.13c-0.01,0-0.02-0.01-0.03-0.01c-0.26-0.12-0.51-0.26-0.74-0.43c0.05-0.24,0.1-0.49,0.16-0.73c0.02-0.09,0.05-0.19,0.08-0.28h0.01c0.14,0.03,0.27,0.08,0.4,0.14c0.32,0.14,0.63,0.34,0.95,0.5c0.03,0.02,0.07,0.03,0.12,0.03c0.04,0,0.13-0.06,0.13-0.1c-0.27-1.33-0.09-2.72,0.34-4.01c0.02-0.05,0.03-0.1,0.05-0.15c0.43-1.24,1.07-2.4,1.76-3.51c-0.27-0.17-0.52-0.37-0.73-0.6c-0.09-0.1-0.23-0.27-0.26-0.42c0.06-0.03,0.13-0.06,0.2-0.08c-0.01-0.06-0.01-0.13-0.02-0.19c0.2-0.05,0.47,0.15,0.62,0.24c0.54,0.35,1.11,0.66,1.7,0.93C-12.16-54.18-10.96-53.89-11.05-53.54z" fill="#A1A1A1"></path><g><path style="" d="M-1.449-54.696c-0.139,0.093-0.249,0.226-0.305,0.396c-0.117,0.352-0.021,0.765,0.239,1.03c0.217,0.221,0.672,0.244,0.931,0.088c0.07-0.042,0.132-0.099,0.186-0.16c0.241-0.269,0.361-0.661,0.246-1.003C-0.337-54.894-1.024-54.982-1.449-54.696z" fill="#B3B3B3"></path><path style="" d="M-1.185-54.252c0.044,0.205,0.183,0.386,0.369,0.482c0.061,0.031,0.129,0.054,0.197,0.049c0.134-0.011,0.241-0.132,0.268-0.264s-0.011-0.269-0.069-0.39c-0.053-0.112-0.127-0.218-0.231-0.284C-0.963-54.859-1.256-54.585-1.185-54.252z" fill="#E5E5E5"></path></g><g><path style="" d="M-9.78-56.08c-0.08,0.8-0.24,1.6-0.48,2.37c-0.08,0.23-0.2,0.46-0.38,0.64c-0.02,0.03-0.05,0.06-0.08,0.09c-0.36,0.03-0.73-0.04-1.07-0.18c-0.24-0.1-0.6-0.24-0.68-0.52c-0.03-0.13-0.01-0.26,0-0.39c0.13-0.91,0.43-1.87,0.73-2.74c0.26-0.81,1.24-0.26,1.85,0.06c0.02,0.01,0.03,0.02,0.05,0.03C-9.64-56.61-9.76-56.31-9.78-56.08z" fill="#BABABA"></path><path style="" d="M-10.91-54.58c-0.06,0.4-0.08,0.81,0.07,1.18c0.05,0.12,0.12,0.23,0.2,0.33c-0.02,0.03-0.05,0.06-0.08,0.09c-0.36,0.03-0.73-0.04-1.07-0.18c-0.24-0.1-0.6-0.24-0.68-0.52c-0.03-0.13-0.01-0.26,0-0.39c0.13-0.91,0.43-1.87,0.73-2.74c0.26-0.81,1.24-0.26,1.85,0.06c-0.16,0.03-0.3,0.13-0.41,0.25c-0.2,0.23-0.28,0.59-0.37,0.88C-10.77-55.28-10.85-54.93-10.91-54.58z" fill="#DCDCDC"></path></g><path style="" d="M-1.19-46.98c0.07,0.23-0.02,0.47-0.11,0.69c-0.26,0.66-0.52,1.34-0.57,2.06c-0.07,1.02,0.29,2.03,0.24,3.04c-0.28,0.05-0.55,0.08-0.83,0.1c0.22-1.07-0.42-2.21-0.16-3.27c0.18-0.72,0.73-1.28,0.95-1.98c0.09-0.28,0.16-0.62,0.44-0.69C-1.18-47.09-1.26-47-1.19-46.98z" fill="#A1A1A1"></path><path style="" d="M-0.54-41.36c0.29-0.13,0.57-0.25,0.88-0.37c-0.01,0.02-0.01,0.05-0.02,0.07c-0.27,0.1-0.51,0.19-0.75,0.28C-0.47-41.37-0.5-41.37-0.54-41.36z" fill="#DCDCDC"></path><path style="" d="M0.76-45.76C0.7-45,0.62-44.18,0.56-43.42c-0.02,0.28-0.04,0.55-0.07,0.83c-0.02,0.23-0.06,0.46-0.11,0.69c-0.01,0.06-0.03,0.11-0.04,0.17c-0.01,0.02-0.01,0.05-0.02,0.07c-0.27,0.1-0.51,0.19-0.75,0.28c-0.16,0.06-0.31,0.12-0.47,0.19c-0.28,0.11-0.52,0.22-0.8,0.33c0-0.46,0.01-0.93,0.03-1.41c0.02-0.79,0.05-1.59,0.04-2.37C-0.78-44.87,0.03-45.25,0.76-45.76z" fill="#BABABA"></path><path style="" d="M-1.63-44.64c0.85-0.23,1.66-0.61,2.39-1.12C0.7-45,0.62-44.18,0.56-43.42c-0.61,0.56-1.42,0.89-2.23,1.15C-1.65-43.06-1.62-43.86-1.63-44.64z" fill="#DCDCDC"></path><path style="" d="M1.318-48.518c-0.057-0.244-0.14-0.481-0.247-0.707c-0.12-0.254-0.27-0.493-0.389-0.748c-0.254-0.542-0.365-1.221-0.318-1.818C-0.12-51.645-0.62-51.5-1.121-51.559c-0.226-0.027-0.47-0.092-0.671,0.016c0.516,1.135,0.851,2.39,1.202,3.588c0.325-0.121,0.531-0.193,0.856-0.314S0.974-48.565,1.318-48.518z" fill="#DCDCDC"></path><path style="" d="M-1.612-45.609c-0.221,0.618-0.135,1.311-0.156,1.966c-0.016,0.488-0.031,0.984,0.086,1.458c0.006,0.024,0.015,0.052,0.039,0.061c0.022,0.009,0.046-0.003,0.066-0.015c0.565-0.347,0.422-1.391,0.387-1.941c-0.025-0.401-0.183-0.858-0.079-1.235c0.235-0.861,0.751-1.542,0.816-2.475c0.031-0.45-0.019-0.903-0.1-1.347c-0.141-0.772-0.378-1.531-0.76-2.216c-0.064-0.115-0.149-0.239-0.279-0.256c-0.379-0.05-0.237,0.926-0.196,1.089c0.209,0.827,0.805,1.541,0.881,2.391C-0.829-47.252-1.315-46.439-1.612-45.609z" fill="#EAE8F5"></path><path style="" d="M1.19-41.74c-0.01,0-0.03,0.01-0.04,0.01c-0.32,0.09-0.64,0.16-0.96,0.23c0.06-0.15,0.13-0.3,0.18-0.44c0.08-0.26,0.15-0.52,0.2-0.78c0.03-0.2,0.05-0.39,0.12-0.57c0.07-0.19,0.2-0.36,0.38-0.42c0.03-0.02,0.07-0.02,0.1-0.01c0.08,0.02,0.1,0.12,0.1,0.19C1.32-42.93,1.29-42.33,1.19-41.74z" fill="#A1A1A1"></path><path style="" d="M1.25-43.751c0.157-0.76,0.314-1.52,0.471-2.281c0.119-0.575,0.238-1.151,0.282-1.736c0.026-0.339,0.026-0.683-0.045-1.015c-0.112-0.519-0.394-0.984-0.573-1.484S1.14-51.36,1.439-51.799c0.132-0.193,0.323-0.338,0.521-0.462c0.247-0.155,0.548-0.287,0.823-0.189c0.046,0.734,0.597,1.428,0.645,2.162c0.018,0.274-0.046,0.546-0.122,0.809c-0.109,0.376-0.245,0.745-0.406,1.102c-0.177,0.392-0.388,0.78-0.435,1.208c0.113,0.024,0.226-0.028,0.329-0.078c0.234-0.114,0.491-0.211,0.713-0.347c0.159-0.097,0.237-0.22,0.451-0.166c0.109,0.425-0.057,0.869-0.251,1.262c-0.558,1.131-1.388,2.147-2.467,2.8L1.25-43.751z" fill="#DCDCDC"></path><path style="" d="M7.39-46.58c-0.05,0.31-0.12,0.61-0.24,0.89c-0.24,0.01-0.48,0.06-0.71,0.13c-0.03-0.08,0.01-0.23-0.02-0.31c-0.59-0.13-1.2-0.22-1.76-0.45c-0.29-0.13-0.57-0.3-0.8-0.52c-0.2-0.2-0.36-0.43-0.44-0.7c-0.01-0.01-0.01-0.01-0.01-0.02c-0.07-0.21-0.08-0.44-0.1-0.67c-0.03-0.37-0.05-0.73-0.06-1.09c0-0.18,0-0.35,0.01-0.53c0.01-0.29,0.01-0.62,0.06-0.93c0.04-0.18,0.09-0.35,0.17-0.49c0.02-0.04,0.05-0.08,0.1-0.1c0.04-0.01,0.08,0.01,0.12,0.03c0.19,0.12,0.22,0.39,0.24,0.61c0.03,0.49,0.07,0.97,0.1,1.45c0.04,0.63,0.11,1.31,0.56,1.74c0.69,0.66,1.86,0.39,2.67,0.88C7.32-46.64,7.36-46.61,7.39-46.58z" fill="#A1A1A1"></path><path style="" d="M-12.018-44.987c0.088,0.066,0.202,0.115,0.307,0.08c0.157-0.052,0.203-0.253,0.192-0.418c-0.022-0.307-0.281-0.994-0.708-0.681C-12.557-45.765-12.261-45.171-12.018-44.987z" fill="#A1A1A1"></path><path style="" d="M-10.689-46.367c-0.004,0.148,0.08,0.284,0.174,0.4c0.1,0.123,0.222,0.238,0.374,0.283c0.152,0.045,0.339,0.003,0.422-0.132c0.046-0.075,0.056-0.167,0.049-0.255c-0.013-0.187-0.096-0.371-0.24-0.491C-10.131-46.747-10.679-46.761-10.689-46.367z" fill="#A1A1A1"></path><path style="" d="M-9.438-47.562c0.093,0.099,0.208,0.182,0.341,0.21c0.133,0.028,0.284-0.008,0.371-0.112c0.117-0.14,0.089-0.351,0.023-0.522C-8.975-48.685-10.061-48.226-9.438-47.562z" fill="#A1A1A1"></path><path style="" d="M-8.966-49.275c0.049,0.043,0.11,0.069,0.171,0.092c0.166,0.062,0.339,0.103,0.515,0.123c0.085,0.009,0.181,0.011,0.246-0.045c0.042-0.036,0.063-0.09,0.074-0.144c0.074-0.368-0.311-0.686-0.66-0.683C-8.921-49.929-9.257-49.533-8.966-49.275z" fill="#A1A1A1"></path><path style="" d="M-9.075-51.047c-0.007,0.118,0.064,0.227,0.148,0.309c0.232,0.224,0.594,0.301,0.898,0.192c0.168-0.06,0.334-0.216,0.298-0.391c-0.02-0.096-0.096-0.17-0.178-0.225C-8.163-51.331-9.042-51.58-9.075-51.047z" fill="#A1A1A1"></path></g><!---0027-00340002800038--><g><path style="" d="M-1.62-0.99C-2.05-0.85-2.5-0.71-2.95-0.73c-0.42-0.02-0.82-0.18-1.21-0.33C-5.12-1.44-6.2-1.42-7.17-1.07C-7.66-0.9-8.12-0.63-8.59-0.39c-2.42,1.25-5.2,2-7.93,1.72c-0.89-0.09-1.77-0.33-2.63-0.6c-0.06-0.02-0.11-0.04-0.17-0.06c-0.34-0.11-0.65-0.26-0.96-0.42c-0.29-0.16-0.58-0.34-0.88-0.52c-0.61-0.37-1.21-0.8-1.73-1.29c-0.3-0.28-0.31-0.34-0.21-0.69c0.1-0.36,0.18-0.72,0.31-1.08c0.11-0.3,0.24-0.58,0.39-0.86c0.06-0.1,0.23-0.33,0.29-0.49c0,0,0,0,0.01,0c0.02-0.05,0.03-0.09,0.02-0.13c-0.07-0.43-0.26-0.83-0.4-1.24c-0.14-0.41-0.24-0.86-0.13-1.27c0.04-0.17,0.11-0.32,0.19-0.47c0.01-0.03,0.03-0.05,0.05-0.08c0.2-0.38,0.49-0.73,0.75-1.08c-0.51-1.01-0.93-2.06-1.25-3.15c-0.2-0.69-0.36-1.43-0.14-2.12c0.11-0.37,0.33-0.69,0.55-1.01c0.7-1.02,1.46-2.06,2.16-3.09c-0.06-0.94-0.24-1.82-0.46-2.74c-0.37-1.56-0.04-3.29,0.76-4.67c0.47-0.79,1.07-1.52,1.76-2.12c0.28-0.25,0.58-0.48,0.9-0.69c0.03-0.02,0.07-0.04,0.1-0.06c0.57-0.37,1.17-0.67,1.79-0.91c2.34-0.93,4.94-0.96,7.38,0.13c1.43,0.64,2.89,1.49,3.88,2.68c0.63,0.75,1.07,1.63,1.22,2.69c0.01,0.05,0.03,0.09,0.06,0.13v0.01c0.08,0.13,0.23,0.24,0.29,0.37v0.01l0.01,0.01c0.12,0.26,0.14,0.57,0.15,0.85c0.03,1.12-0.2,2.22-0.47,3.29c-0.06,0.26-0.19,0.56-0.2,0.83c-0.01,0.24,0.09,0.46,0.16,0.7c0.08,0.26,0.16,0.53,0.21,0.8c0.06,0.25,0.11,0.5,0.15,0.75c0.19,1.15,0.21,2.33,0.06,3.49c-0.07,0.54-0.17,1.07-0.31,1.6c-0.09,0.32-0.38,0.82-0.37,1.15c0.02,0.31,0.39,0.67,0.53,0.96c0.33,0.71,0.46,1.51,0.46,2.3c0,0.34-0.01,0.69-0.02,1.05C-2.31-4.87-2.41-4.02-2.55-3.2c0.07,0.07,0.13,0.15,0.2,0.23C-1.91-2.41-1.63-1.69-1.62-0.99z" fill="#BABABA"></path><g><path style="" d="M-2.55-12.77c-0.55,0.91-1.43,1.37-2.36,2.07c-1.36,1.02-2.71,2.04-4.07,3.06c-0.43,0.33-0.87,0.65-1.37,0.86c-1.26,0.51-3.13-0.12-4.38-0.47c-1.01-0.28-1.98-0.75-2.21-1.87c-0.13-0.63,0.09-1.29,0.37-1.87c0.08-0.16,1.34-2.6,1.47-2.6c0.56,0.32,1.28,0.35,1.86,0.07c0.05-0.01,0.09-0.04,0.11-0.08c0.06-0.1-0.04-0.22-0.13-0.29c-1.14-0.9-2.15-1.98-3.08-3.1c-0.05-0.89-0.11-1.85,0.01-2.73c0.1-0.72,0.62-1.18,0.95-1.81c0.37-0.74,0.67-1.54,0.99-2.3c0.47-1.1,0.71-2.03,0.17-3.12c-0.42-0.85-1.02-1.63-1.23-2.56c2.34-0.93,4.94-0.96,7.38,0.13c1.43,0.64,2.89,1.49,3.88,2.68c0,0.62-0.08,1.22-0.29,1.74c-0.28,0.71-0.75,1.34-1.24,1.93c-0.34,0.41-0.7,0.81-0.9,1.31c-0.07,0.18-0.11,0.4,0.02,0.54c0.04,0.06,0.11,0.1,0.18,0.12c0.95,0.42,2.15-0.43,2.68-1.16c0.36-0.5,0.61-1.07,0.83-1.65c0.08,0.13,0.23,0.24,0.29,0.37v0.01c0.15,1.42-0.11,2.88-0.71,4.16c-0.71,1.53-1.96,2.81-3.47,3.56c-0.28,0.15-0.6,0.32-0.66,0.63c0.52,0.25,1.14,0.13,1.69-0.05c1.12-0.38,2.15-1.01,3.01-1.82c0.06,0.25,0.11,0.5,0.15,0.75C-2.42-15.11-2.4-13.93-2.55-12.77z" fill="#DCDCDC"></path><path style="" d="M-2.26-5.71C-2.31-4.87-2.41-4.02-2.55-3.2c-0.36-0.38-0.78-0.71-1.26-0.81C-4.6-4.16-5.66-3.98-6.42-3.78c-1.47,0.4-2.81,1.15-4.26,1.59c-1.41,0.43-2.62,0.54-4.09,0.66c2.23-1.3,4.4-2.72,6.48-4.24c1.18-0.86,2.34-1.77,3.66-2.39c0.24,0.25,0.4,0.55,0.67,0.76C-3.33-6.9-2.76-6.33-2.26-5.71z" fill="#DCDCDC"></path></g><path style="" d="M-16.68-3.21c-0.01,0.04-0.07,0.06-0.12,0.06h-1.58c-0.71,0.97-0.96,2.43-0.94,3.82c-0.34-0.11-0.65-0.26-0.96-0.42c0.01-1.28,0.19-2.56,0.52-3.8c-0.82-0.25-1.62-0.65-2.34-1.13c0.02-0.05,0.03-0.09,0.02-0.13c-0.07-0.43-0.26-0.83-0.4-1.24c-0.14-0.41-0.24-0.86-0.13-1.27c0.04-0.17,0.11-0.32,0.19-0.47c0.01-0.03,0.03-0.05,0.05-0.08c0.58,0.44,1.17,0.85,1.77,1.26c0.05-0.87,0.77-1.53,0.98-2.37c0.37-1.44-0.79-2.88-0.63-4.35c0.04-0.46,0.22-0.9,0.39-1.33c0.32-0.78,0.66-1.56,0.95-2.35c0.27-0.72,0.22-1.22-0.04-1.94c-0.31-0.9-0.27-1.87-0.13-2.83c0.06-0.36,0.13-0.71,0.2-1.06c0.32-1.66,0.52-3.33,0.64-5.01c0.28-0.25,0.58-0.48,0.9-0.69c0.03-0.02,0.07-0.04,0.1-0.06c-0.09,0.69-0.19,1.39-0.29,2.12c-0.23,1.67-0.55,3.68-0.47,5.36c0.01,0.27,0.03,0.54,0.04,0.81c0.12,1.4,0.29,2.76-0.08,4.15c-0.24,0.89-0.61,1.75-0.97,2.6c-0.22,0.52-0.08,1.11-0.01,1.67c0.1,0.71,0.39,1.38,0.49,2.09c0.09,0.62-0.14,1.31-0.35,1.89c-0.36,1-0.72,1.93,0.1,2.8c0.31,0.33,0.69,0.59,1.04,0.88c0.34,0.27,0.76,0.61,1.03,0.96C-16.7-3.26-16.68-3.24-16.68-3.21z" fill="#A1A1A1"></path><path style="" d="M-7.259-18.053c-0.679,0.644-1.406,1.269-2.28,1.604c-1.073,0.412-2.297,0.346-3.373-0.06c-1.076-0.406-2.01-1.133-2.776-1.99C-12.901-17.816-10.111-18.351-7.259-18.053z" fill="#BABABA"></path><path style="" d="M-6.952-11.385c-1.164,1.075-2.478,1.986-3.893,2.699c-0.528,0.266-1.103,0.51-1.69,0.442c-0.399-0.046-0.766-0.234-1.124-0.418c-0.747-0.385-1.519-0.792-2.023-1.465C-12.73-9.77-9.899-11.013-6.952-11.385z" fill="#BABABA"></path><g><path style="" d="M-10.52-28.199c0.131,0.131,0.285,0.245,0.463,0.295c0.178,0.05,0.384,0.027,0.527-0.091c0.143-0.117,0.204-0.337,0.113-0.499c-0.08-0.142-0.248-0.208-0.406-0.249c-0.18-0.047-0.678-0.194-0.839-0.056C-10.839-28.646-10.641-28.32-10.52-28.199z" fill="#FFFFFF"></path><path style="" d="M-7.981-27.097c0.073,0.144,0.21,0.245,0.352,0.322c0.322,0.174,0.703,0.249,1.063,0.179c0.161-0.031,0.322-0.095,0.429-0.219c0.107-0.124,0.146-0.317,0.056-0.454c-0.091-0.14-0.274-0.181-0.438-0.21c-0.314-0.056-0.628-0.111-0.941-0.167C-7.82-27.709-8.196-27.52-7.981-27.097z" fill="#FFFFFF"></path><path style="" d="M-6.344-26.07c-0.215,0.11-0.156,0.343-0.444,0.349c-0.55,0.012-1.102-0.031-1.644-0.129c-0.082-0.015-0.164-0.031-0.24-0.065c-0.155-0.07-0.267-0.208-0.396-0.319c-0.197-0.168-0.438-0.274-0.678-0.371c-0.437-0.178-0.882-0.336-1.334-0.475c-0.362-0.111-0.736-0.21-1.114-0.186c-0.118,0.008-0.241,0.03-0.333,0.103c-0.147,0.116-0.127,0.346-0.052,0.499c0.053,0.107,0.14,0.192,0.227,0.275c-0.04,0.019-0.061,0.067-0.06,0.111c0.002,0.045,0.021,0.086,0.043,0.125c0.061,0.109,0.142,0.211,0.249,0.276c0.107,0.065,0.242,0.09,0.36,0.048c0.062,0.175,0.17,0.312,0.329,0.407c0.024,0.015,0.063,0.024,0.075-0.002c-0.183,0.018-0.355,0.198-0.381,0.379c-0.026,0.181,0.051,0.367,0.174,0.503c0.123,0.136,0.287,0.228,0.456,0.3c0.532,0.228,1.129,0.281,1.651,0.532c-0.162,0.163-0.347,0.386-0.315,0.614c0.033,0.233,0.267,0.379,0.484,0.471c0.423,0.18,0.877,0.286,1.336,0.311c0.016,0.001,0.035,0.005,0.038,0.021c0.003,0.015-0.031,0.013-0.021,0.001c-0.442,0.332-1.032,0.381-1.582,0.321c-0.383-0.042-0.773-0.13-1.149-0.046c-0.038,0.009-0.078,0.02-0.106,0.047c-0.087,0.084-0.004,0.231,0.091,0.306c0.195,0.156,0.435,0.245,0.673,0.319c0.956,0.296,1.972,0.397,2.968,0.295c0.178-0.018,0.357-0.043,0.527-0.101c0.132-0.045,0.258-0.111,0.396-0.13c0.173-0.024,0.346,0.025,0.521,0.032c0.293,0.011,0.6-0.115,0.771-0.359c0.152-0.217,0.138-0.629-0.08-0.802c-0.093-0.074-0.212-0.107-0.328-0.132c-0.249-0.053-0.504-0.079-0.758-0.077c0.203-0.049,0.342-0.157,0.489-0.306c0.049-0.05,0.096-0.109,0.099-0.179c0.004-0.083-0.053-0.155-0.112-0.215c-0.115-0.118-0.245-0.221-0.386-0.306c0.123-0.099,0.277-0.149,0.425-0.204c0.148-0.055,0.299-0.12,0.404-0.239c0.104-0.119,0.148-0.305,0.061-0.437c-0.056-0.086-0.163-0.149-0.165-0.252c-0.001-0.039,0.015-0.076,0.035-0.11c0.112-0.187,0.339-0.262,0.54-0.347c0.2-0.085,0.414-0.23,0.429-0.447c0.017-0.245-0.229-0.424-0.459-0.51C-5.181-26.376-5.819-26.339-6.344-26.07z" fill="#FFFFFF"></path><path style="" d="M-12.725-23.013c-0.005,0.085,0.024,0.17,0.067,0.244c0.17,0.295,0.529,0.427,0.867,0.467c0.156,0.019,0.319,0.022,0.467-0.034s0.276-0.182,0.297-0.338c0.018-0.136-0.048-0.274-0.146-0.37c-0.098-0.096-0.225-0.158-0.352-0.21c-0.177-0.072-0.362-0.13-0.553-0.133C-12.297-23.391-12.709-23.284-12.725-23.013z" fill="#FFFFFF"></path><path style="" d="M-13.411-19.756c-0.168,0.08-0.221,0.212,0.036,0.424c0.319,0.264,0.761,0.305,1.173,0.335c0.552,0.54,1.37,0.695,2.137,0.784c1.019,0.118,2.047,0.144,3.073,0.17c0.235,0.006,0.475,0.011,0.701-0.056c0.368-0.109,0.669-0.421,0.766-0.792c0.117-0.003,0.192-0.004,0.298-0.054c0.106-0.05,0.194-0.159,0.181-0.275c-0.022-0.19-0.26-0.255-0.45-0.275c-1.249-0.132-2.498-0.265-3.747-0.397c-0.555-0.059-1.111-0.126-1.67-0.085c-0.55,0.04-1.097,0.14-1.65,0.107C-12.729-19.88-13.179-19.867-13.411-19.756z" fill="#FFFFFF"></path><path style="" d="M-12.83-17.552c0.337,0.244,0.728,0.401,1.122,0.537c0.36,0.125,0.73,0.236,1.11,0.263c0.38,0.027,0.776-0.035,1.101-0.234c0.051-0.032,0.104-0.07,0.123-0.127c0.045-0.134-0.111-0.243-0.241-0.298c-0.795-0.333-1.616-0.603-2.453-0.806c-0.236-0.057-0.962-0.343-1.154-0.112C-13.434-18.076-13.014-17.686-12.83-17.552z" fill="#FFFFFF"></path><path style="" d="M-12.042-15.471c-0.095,0.193,0.051,0.444,0.209,0.593c0.409,0.386,1.007,0.476,1.564,0.548c0.378,0.334,0.837,0.538,1.341,0.544c0.504,0.005,1.001-0.115,1.486-0.255c0.538-0.156,1.078-0.339,1.541-0.654c0.464-0.315,0.85-0.777,0.967-1.326c0.192,0.005,0.351,0.054,0.514-0.049c0.163-0.103,0.245-0.353,0.111-0.491c-0.075-0.077-0.189-0.096-0.295-0.109c-0.9-0.115-1.813-0.127-2.715-0.034c-0.277,0.029-0.572,0.076-0.776,0.265c-0.204,0.189-0.25,0.569-0.02,0.727c0.059,0.04,0.019,0.05,0.066,0.104c-0.395,0.334-0.931,0.494-1.444,0.432c0.031-0.123-0.036-0.255-0.136-0.334c-0.1-0.079-0.226-0.115-0.35-0.143c-0.393-0.091-0.76-0.045-1.155-0.02c-0.257,0.016-0.54-0.086-0.776,0.063C-11.974-15.57-12.017-15.523-12.042-15.471z" fill="#FFFFFF"></path></g></g><!---0024-00560002400042--><g><path style="" d="M-2.82-39.84c0.36,0.97,0.38,2.01,0.33,3.06c0,0,0,0,0,0.01c-0.03,0.61-0.08,1.21-0.1,1.81c-0.08,2.51,0,3.74-0.06,5.64c-0.05,1.74-0.1,3.61-0.3,5.35c-0.01,0.09-0.02,0.17-0.03,0.26c0,0.02-0.01,0.04-0.01,0.05c-0.1,0.76-0.3,1.52-0.62,2.22c-0.35,0.8-0.84,1.55-1.45,2.2c-0.1,0.12-0.21,0.24-0.33,0.34c-0.07,0.08-0.15,0.15-0.22,0.21c-0.25,0.22-0.51,0.43-0.79,0.61c-0.03,0.03-0.07,0.05-0.1,0.07c-0.49,0.32-1.02,0.54-1.58,0.68c-0.42,0.11-0.85,0.18-1.29,0.21c-1.06,0.09-2.17-0.03-3.22-0.28c-0.53-0.11-1.04-0.26-1.53-0.43c-0.51-0.17-1-0.38-1.47-0.65c-0.27-0.14-0.54-0.3-0.8-0.48c-0.58-0.39-1.11-0.84-1.57-1.35c-0.43-0.45-0.8-0.94-1.12-1.47c-0.39-0.68-0.7-1.42-0.88-2.2c-0.11-0.47-0.18-0.95-0.22-1.43c-0.12-1.46,0.05-2.93,0.37-4.38c0.42-1.88,0.62-3.83,0.9-5.74c0.27-1.87,0.71-3.73,0.74-5.62c0.03-1.67-0.06-3.29,0.23-4.92c0.05-0.24,0.1-0.49,0.16-0.73c0.02-0.09,0.05-0.19,0.08-0.28c0.38-1.34,1.05-2.61,2-3.59c0.27-0.29,0.56-0.54,0.87-0.77c0.31-0.22,0.65-0.41,1.02-0.57c0.66-0.3,1.39-0.5,2.11-0.62c0.52-0.1,1.03-0.15,1.51-0.17c0.37-0.02,0.73,0,1.08,0.05c0.72,0.11,1.39,0.35,2,0.71c1.25,0.72,2.25,1.9,2.95,3.24c0.61,1.18,1.14,2.59,1.44,4.03v0.01c0.35,1.65,0.39,3.35-0.08,4.83C-2.8-39.9-2.81-39.87-2.82-39.84z" fill="#BABABA"></path><g><path style="" d="M-8.52-52.47c-0.3,1.24-0.65,2.54-0.98,3.77c-0.1,0.37-0.2,0.74-0.37,1.07c-0.36,0.69-1.02,1.2-1.74,1.48c-0.73,0.29-1.58,0.32-2.36,0.31c0.53-2.33,1.29-4.61,2.27-6.79c0.52-0.1,1.03-0.15,1.51-0.17c0.37-0.02,0.73,0,1.08,0.05C-8.9-52.68-8.7-52.59-8.52-52.47z" fill="#DCDCDC"></path><path style="" d="M-2.49-36.78c0,0,0,0,0,0.01c-0.2,0.44-0.46,0.87-0.71,1.29c-0.48,0.84-0.92,1.7-1.31,2.59c-0.24,0.54-0.46,1.1-0.49,1.69c-0.04,0.8,0.28,1.56,0.49,2.33c0.18,0.66,0.32,1.42,0.32,2.17c0,0.27-0.02,0.54-0.06,0.8c-0.02,0.18-0.05,0.36-0.1,0.54c-0.03,0.14-0.08,0.27-0.13,0.4c-0.24,0.6-0.61,1.14-1.02,1.65c-0.07,0.1-0.14,0.19-0.22,0.28c-0.34,0.41-0.7,0.81-0.9,1.31c-0.07,0.18-0.11,0.4,0.02,0.54c0.01,0.02,0.02,0.03,0.04,0.04c0.04,0.04,0.09,0.06,0.14,0.08c0.95,0.42,2.15-0.43,2.68-1.16c0.32-0.44,0.55-0.93,0.75-1.44c-0.1,0.76-0.3,1.52-0.62,2.22c-0.35,0.8-0.84,1.55-1.45,2.2c-0.1,0.12-0.21,0.24-0.33,0.34c-0.07,0.08-0.15,0.15-0.22,0.21c-0.25,0.22-0.51,0.43-0.79,0.61c-0.03,0.03-0.07,0.05-0.1,0.07c-0.49,0.32-1.02,0.54-1.58,0.68c-0.42,0.11-0.85,0.18-1.29,0.21c-1.06,0.09-2.17-0.03-3.22-0.28c-0.53-0.11-1.04-0.26-1.53-0.43c-0.51-0.17-1-0.38-1.47-0.65c-0.27-0.14-0.54-0.3-0.8-0.48c0.01-0.26,0.03-0.51,0.06-0.76c0.1-0.72,0.62-1.18,0.95-1.81c0.37-0.74,0.67-1.54,0.99-2.3c0.47-1.1,0.71-2.03,0.17-3.12c-0.42-0.85-1.02-1.63-1.23-2.56c-0.03-0.09-0.05-0.18-0.06-0.27c-0.04-0.34-0.03-0.68-0.01-1.02c0.12-2.69,0.02-5.25,0.4-7.91c0.1-0.68,0.52-1.26,0.93-1.81c0.26-0.35,0.59-0.67,0.85-1.01c0.44,0.4,0.9,0.78,1.38,1.13c0.18,0.12,0.36,0.25,0.56,0.31c0.21,0.07,0.44,0.06,0.67,0.05c0.76-0.03,1.52-0.12,2.27-0.28c0.18-0.04,0.4-0.1,0.46-0.28c-0.3-0.27-0.68-0.43-1.06-0.57c-1.34-0.51-2.65-0.98-4.05-1.3c-0.17-0.64-0.21-1.38-0.33-2.03c1.31-0.2,2.69-0.44,3.7-1.29c0.92-0.78,1.39-1.96,1.71-3.12c0.29-1.03,0.48-2.09,0.58-3.15c0.11,0.01,0.23,0.01,0.34,0.02c1.25,0.72,2.25,1.9,2.95,3.24c0.61,1.18,1.14,2.59,1.44,4.03c-0.05-0.02-0.11-0.06-0.15-0.1c-0.56-0.43-1.23-0.7-1.92-0.78c-0.17-0.02-0.37-0.02-0.47,0.13c-0.12,0.18,0.05,0.42,0.2,0.59c0.44,0.46,0.84,0.96,1.19,1.49c0.22,0.32,0.43,0.76,0.21,1.08c0.2,0.07,0.1,0.22-0.08,0.33c-0.18,0.12-0.41,0.07-0.62,0.02c-1.63-0.41-3.19-1.27-4.87-1.14c-0.36,0.02-0.77,0.13-0.96,0.45c-0.03,0.04-0.05,0.1-0.04,0.15c0.02,0.1,0.13,0.14,0.23,0.16c2.35,0.64,4.8,1.07,6.93,2.26c0.1,0.05,0.19,0.12,0.27,0.2c0,0.03-0.01,0.06-0.02,0.09C-2.46-38.87-2.44-37.83-2.49-36.78z" fill="#DCDCDC"></path></g><path style="" d="M-13.67-45.35c0.01,0.16-0.01,0.31-0.03,0.47c-0.01,0.06-0.03,0.13-0.08,0.16c-0.03,0.02-0.07,0.03-0.11,0.03c-0.33,0.01-0.67-0.02-1-0.07c0.01,0.45,0,0.88-0.03,1.27c-0.13,2.1-0.68,3.47-1.08,5.32c-0.31,1.41-0.52,2.86-0.64,4.3c-0.16,1.86-0.37,3.52-0.6,5.27c-0.09,0.69-0.19,1.39-0.29,2.12c-0.23,1.67-0.55,3.68-0.47,5.36c0.01,0.27,0.03,0.54,0.04,0.81c-0.43-0.45-0.8-0.94-1.12-1.47c0.06-0.36,0.13-0.71,0.2-1.06c0.32-1.66,0.52-3.33,0.64-5.01c0.03-0.36,0.06-0.72,0.08-1.08c0.13-2.08,0.52-4.17,0.77-6.24s0.48-4.1,0.99-6.12c0.25-0.97,0.5-1.95,0.43-2.95c0.01-0.09,0-0.17-0.01-0.26c-0.09-0.78-0.57-0.84-1.19-1.13c-0.01,0-0.02-0.01-0.03-0.01c-0.26-0.12-0.51-0.26-0.74-0.43c0.05-0.24,0.1-0.49,0.16-0.73c0.02-0.09,0.05-0.19,0.08-0.28h0.01c0.14,0.03,0.27,0.08,0.4,0.14c0.32,0.14,0.63,0.34,0.95,0.5c0.03,0.02,0.07,0.03,0.12,0.03c0.04,0,0.13-0.06,0.13-0.1c-0.27-1.33-0.09-2.72,0.34-4.01c0.02-0.05,0.03-0.1,0.05-0.15c0.27-0.29,0.56-0.54,0.87-0.77c0.31-0.22,0.65-0.41,1.02-0.57c-0.39,0.69-0.73,1.4-0.97,2.11c-0.43,1.3-0.55,2.74-0.07,4.02c0.33,0.13,0.68-0.09,0.97,0.12C-13.76-45.66-13.69-45.51-13.67-45.35z" fill="#A1A1A1"></path><path style="" d="M-7.26-18.05c-0.26,0.25-0.54,0.5-0.82,0.72c-0.42,0.11-0.85,0.18-1.29,0.21c-1.06,0.09-2.17-0.03-3.22-0.28c-0.53-0.11-1.04-0.26-1.53-0.43c-0.51-0.17-1-0.38-1.47-0.65c0.77,0.18,1.54,0.27,2.31,0.32c0.52,0.02,1.04,0.03,1.56,0.03c0.78,0,1.56-0.03,2.35-0.02C-8.67-18.15-7.97-18.12-7.26-18.05z" fill="#BABABA"></path><path style="" d="M-12.382-29.335c-0.39-0.063-0.776-0.155-1.153-0.275c-0.276-0.088-0.555-0.196-0.769-0.392c-0.351-0.322-0.466-0.823-0.52-1.296c-0.095-0.835-0.054-1.685,0.122-2.507c0.018-0.082-0.069-0.045,0.005-0.084C-14.002-32.333-13.268-30.79-12.382-29.335z" fill="#BABABA"></path><g><path style="" d="M-8.24-35.149c0.122,0.011,0.251,0.002,0.356-0.061c0.105-0.063,0.176-0.193,0.142-0.311c-0.024-0.082-0.094-0.143-0.168-0.188c-0.184-0.112-0.64-0.227-0.794-0.001C-8.912-35.404-8.479-35.17-8.24-35.149z" fill="#FFFFFF"></path><path style="" d="M-9.907-34.73c-0.133-0.125-0.115-0.372,0.035-0.477c0.085-0.06,0.194-0.072,0.298-0.071c0.454,0.005,0.879,0.239,1.217,0.542c0.11,0.098,0.222,0.229,0.198,0.375c-0.021,0.127-0.14,0.215-0.26,0.26c-0.18,0.068-0.384,0.071-0.566,0.008c0.072,0.162,0.017,0.341-0.082,0.488c-0.098,0.147-0.275,0.239-0.452,0.235c-0.127-0.003-0.249-0.051-0.363-0.106c-0.291-0.14-0.559-0.328-0.79-0.554c-0.148-0.145-0.285-0.316-0.321-0.52c-0.011-0.061-0.011-0.128,0.021-0.181c0.026-0.045,0.072-0.075,0.119-0.096c0.148-0.064,0.32-0.043,0.473,0.007c0.153,0.05,0.297,0.126,0.452,0.173C-9.919-34.693-9.915-34.686-9.907-34.73z" fill="#FFFFFF"></path><path style="" d="M-5.706-32.074c-0.059-0.11-0.176-0.175-0.288-0.231c-0.506-0.25-1.047-0.43-1.602-0.531c-0.098-0.018-0.217-0.025-0.276,0.055c-0.056,0.076-0.02,0.185,0.025,0.268c0.074,0.135,0.17,0.259,0.283,0.364c-0.545-0.14-1.121-0.157-1.673-0.05c-0.059,0.011-0.121,0.026-0.167,0.065c-0.138,0.121,0.022,0.352,0.118,0.441c0.295,0.273,0.67,0.44,1.037,0.603c0.31,0.138,0.622,0.276,0.95,0.363c0.157,0.042,0.371,0.105,0.533,0.086c0.108-0.013,0.199-0.092,0.256-0.185c0.105-0.173,0.105-0.404,0.001-0.577c0.134,0.032,0.275,0.004,0.405-0.04c0.122-0.041,0.242-0.099,0.33-0.193C-5.661-31.76-5.626-31.926-5.706-32.074z" fill="#FFFFFF"></path><path style="" d="M-10.52-28.199c0.131,0.131,0.285,0.245,0.463,0.295c0.178,0.05,0.384,0.027,0.527-0.091c0.143-0.117,0.204-0.337,0.113-0.499c-0.08-0.142-0.248-0.208-0.406-0.249c-0.18-0.047-0.678-0.194-0.839-0.056C-10.839-28.646-10.641-28.32-10.52-28.199z" fill="#FFFFFF"></path><path style="" d="M-7.981-27.097c0.073,0.144,0.21,0.245,0.352,0.322c0.322,0.174,0.703,0.249,1.063,0.179c0.161-0.031,0.322-0.095,0.429-0.219c0.107-0.124,0.146-0.317,0.056-0.454c-0.091-0.14-0.274-0.181-0.438-0.21c-0.314-0.056-0.628-0.111-0.941-0.167C-7.82-27.709-8.196-27.52-7.981-27.097z" fill="#FFFFFF"></path><path style="" d="M-6.344-26.07c-0.215,0.11-0.156,0.343-0.444,0.349c-0.55,0.012-1.102-0.031-1.644-0.129c-0.082-0.015-0.164-0.031-0.24-0.065c-0.155-0.07-0.267-0.208-0.396-0.319c-0.197-0.168-0.438-0.274-0.678-0.371c-0.437-0.178-0.882-0.336-1.334-0.475c-0.362-0.111-0.736-0.21-1.114-0.186c-0.118,0.008-0.241,0.03-0.333,0.103c-0.147,0.116-0.127,0.346-0.052,0.499c0.053,0.107,0.14,0.192,0.227,0.275c-0.04,0.019-0.061,0.067-0.06,0.111c0.002,0.045,0.021,0.086,0.043,0.125c0.061,0.109,0.142,0.211,0.249,0.276c0.107,0.065,0.242,0.09,0.36,0.048c0.062,0.175,0.17,0.312,0.329,0.407c0.024,0.015,0.063,0.024,0.075-0.002c-0.183,0.018-0.355,0.198-0.381,0.379c-0.026,0.181,0.051,0.367,0.174,0.503c0.123,0.136,0.287,0.228,0.456,0.3c0.532,0.228,1.129,0.281,1.651,0.532c-0.162,0.163-0.347,0.386-0.315,0.614c0.033,0.233,0.267,0.379,0.484,0.471c0.423,0.18,0.877,0.286,1.336,0.311c0.016,0.001,0.035,0.005,0.038,0.021c0.003,0.015-0.031,0.013-0.021,0.001c-0.442,0.332-1.032,0.381-1.582,0.321c-0.383-0.042-0.773-0.13-1.149-0.046c-0.038,0.009-0.078,0.02-0.106,0.047c-0.087,0.084-0.004,0.231,0.091,0.306c0.195,0.156,0.435,0.245,0.673,0.319c0.956,0.296,1.972,0.397,2.968,0.295c0.178-0.018,0.357-0.043,0.527-0.101c0.132-0.045,0.258-0.111,0.396-0.13c0.173-0.024,0.346,0.025,0.521,0.032c0.293,0.011,0.6-0.115,0.771-0.359c0.152-0.217,0.138-0.629-0.08-0.802c-0.093-0.074-0.212-0.107-0.328-0.132c-0.249-0.053-0.504-0.079-0.758-0.077c0.203-0.049,0.342-0.157,0.489-0.306c0.049-0.05,0.096-0.109,0.099-0.179c0.004-0.083-0.053-0.155-0.112-0.215c-0.115-0.118-0.245-0.221-0.386-0.306c0.123-0.099,0.277-0.149,0.425-0.204c0.148-0.055,0.299-0.12,0.404-0.239c0.104-0.119,0.148-0.305,0.061-0.437c-0.056-0.086-0.163-0.149-0.165-0.252c-0.001-0.039,0.015-0.076,0.035-0.11c0.112-0.187,0.339-0.262,0.54-0.347c0.2-0.085,0.414-0.23,0.429-0.447c0.017-0.245-0.229-0.424-0.459-0.51C-5.181-26.376-5.819-26.339-6.344-26.07z" fill="#FFFFFF"></path><path style="" d="M-12.725-23.013c-0.005,0.085,0.024,0.17,0.067,0.244c0.17,0.295,0.529,0.427,0.867,0.467c0.156,0.019,0.319,0.022,0.467-0.034s0.276-0.182,0.297-0.338c0.018-0.136-0.048-0.274-0.146-0.37c-0.098-0.096-0.225-0.158-0.352-0.21c-0.177-0.072-0.362-0.13-0.553-0.133C-12.297-23.391-12.709-23.284-12.725-23.013z" fill="#FFFFFF"></path><path style="" d="M-13.411-19.756c-0.168,0.08-0.221,0.212,0.036,0.424c0.319,0.264,0.761,0.305,1.173,0.335c0.552,0.54,1.37,0.695,2.137,0.784c1.019,0.118,2.047,0.144,3.073,0.17c0.235,0.006,0.475,0.011,0.701-0.056c0.368-0.109,0.669-0.421,0.766-0.792c0.117-0.003,0.192-0.004,0.298-0.054c0.106-0.05,0.194-0.159,0.181-0.275c-0.022-0.19-0.26-0.255-0.45-0.275c-1.249-0.132-2.498-0.265-3.747-0.397c-0.555-0.059-1.111-0.126-1.67-0.085c-0.55,0.04-1.097,0.14-1.65,0.107C-12.729-19.88-13.179-19.867-13.411-19.756z" fill="#FFFFFF"></path><path style="" d="M-9.37-17.12c-1.06,0.09-2.17-0.03-3.22-0.28c-0.08-0.04-0.16-0.09-0.24-0.15c-0.15-0.11-0.44-0.38-0.45-0.61c0-0.06,0.02-0.12,0.06-0.17c0.19-0.23,0.92,0.05,1.15,0.11c0.12,0.03,0.23,0.06,0.35,0.09c0.72,0.19,1.42,0.43,2.11,0.72C-9.48-17.36-9.34-17.25-9.37-17.12z" fill="#FFFFFF"></path></g><path style="" d="M-12.018-44.987c0.088,0.066,0.202,0.115,0.307,0.08c0.157-0.052,0.203-0.253,0.192-0.418c-0.022-0.307-0.281-0.994-0.708-0.681C-12.557-45.765-12.261-45.171-12.018-44.987z" fill="#A1A1A1"></path><path style="" d="M-10.689-46.367c-0.004,0.148,0.08,0.284,0.174,0.4c0.1,0.123,0.222,0.238,0.374,0.283c0.152,0.045,0.339,0.003,0.422-0.132c0.046-0.075,0.056-0.167,0.049-0.255c-0.013-0.187-0.096-0.371-0.24-0.491C-10.131-46.747-10.679-46.761-10.689-46.367z" fill="#A1A1A1"></path><path style="" d="M-9.438-47.562c0.093,0.099,0.208,0.182,0.341,0.21c0.133,0.028,0.284-0.008,0.371-0.112c0.117-0.14,0.089-0.351,0.023-0.522C-8.975-48.685-10.061-48.226-9.438-47.562z" fill="#A1A1A1"></path><path style="" d="M-8.966-49.275c0.049,0.043,0.11,0.069,0.171,0.092c0.166,0.062,0.339,0.103,0.515,0.123c0.085,0.009,0.181,0.011,0.246-0.045c0.042-0.036,0.063-0.09,0.074-0.144c0.074-0.368-0.311-0.686-0.66-0.683C-8.921-49.929-9.257-49.533-8.966-49.275z" fill="#A1A1A1"></path><path style="" d="M-9.075-51.047c-0.007,0.118,0.064,0.227,0.148,0.309c0.232,0.224,0.594,0.301,0.898,0.192c0.168-0.06,0.334-0.216,0.298-0.391c-0.02-0.096-0.096-0.17-0.178-0.225C-8.163-51.331-9.042-51.58-9.075-51.047z" fill="#A1A1A1"></path></g><!---0010-00600000800011--><g><g><path style="" d="M-4.216-55.493c0.023,0.131,0.021,0.277,0.008,0.427c-0.083,0.955-0.166,1.911-0.248,2.867c-0.032,0.366-0.649,0.229-0.894,0.21c-0.205-0.016-0.417-0.053-0.582-0.175c-0.248-0.184-0.172-0.383-0.184-0.637c-0.042-0.869,0.021-1.744,0.189-2.598c0.046-0.237,0.143-0.516,0.378-0.567c0.283-0.061,0.589-0.08,0.873-0.014C-4.383-55.913-4.258-55.728-4.216-55.493z" fill="#DCDCDC"></path></g></g></svg>
