<svg xmlns:xlink="http://www.w3.org/1999/xlink" xmlns="http://www.w3.org/2000/svg" viewBox="-23.429250717163086 -62.70800018310547 38.21411895751953 70.16029357910156" width="164" height="108"><!---0011-00360002900041--><g><path style="" d="M-1.89,2.511c1.293,0.117,2.506-0.006,3.484-0.86c0.732-0.639,1.498-1.239,2.293-1.797C4.92-0.87,6.024-1.531,7.246-1.843s2.588-0.237,3.656,0.435c0.822,0.518,1.157,1.452,1.906,2.071c0.593,0.49,1.173-0.312,1.494-0.779c0.327-0.475,0.551-1.061,0.464-1.644c-0.084-0.563-0.282-1.102-0.572-1.592c-0.07-0.118-0.981-1.341-1.067-1.253c0.434-0.445,0.739-1.011,0.888-1.614c0.073-0.295,0.108-0.599,0.103-0.903c-0.006-0.367-0.142-0.49-0.372-0.765c-0.883-1.05-1.773-2.128-2.372-3.372c-0.877-1.825-0.472-3.958-0.812-5.889c-0.237-1.349-0.744-2.639-1.023-3.98c-0.415-1.996-0.767-4.005-1.065-6.022c-0.309-2.094-1.482-3.936-3.597-4.569c-2.401-0.719-4.986-0.667-7.058,0.912c-3.495,2.665-2.556,7.038-2.736,10.864c-0.072,1.529-0.364,3.022-0.797,4.486c-0.421,1.422-1.157,2.748-1.523,4.207c-0.518,2.061-0.542,4.597,1.069,6.2c-0.03,0.07-0.06,0.14-0.09,0.21c-0.274,0.64-0.758,0.987-0.731,1.78c0.022,0.645,0.445,0.98,0.938,1.364C-6.449-1.037-7.24-0.51-6.637,0.263c0.388,0.498,1.004,0.819,1.535,1.137C-4.122,1.988-3.033,2.408-1.89,2.511z" fill="#A8BF00"></path><path style="" d="M14.765-1.759c-0.084-0.563-0.282-1.102-0.572-1.592c-0.07-0.118-0.981-1.341-1.068-1.253c0.434-0.445,0.739-1.011,0.888-1.614c0.073-0.295,0.108-0.599,0.103-0.903c0-0.018-0.005-0.03-0.006-0.047c-0.849-0.164-1.731-0.269-2.586-0.103C10.737-7.119,10.19-6.726,9.5-6.361c-1.084,0.574-1.215,0.77-2.361,1.194C6.781-5.034,5.441-4.422,5.083-4.292C4.92-4.232,4.486-4.181,4.052-4.141C4.681-5.314,5.377-6.365,6.458-7c2.271-0.875,3.938-1.021,5.54-1.332c-1.32-1.356-2.779-1.841-4.526-1.252C6.626-9.298,5.254-8.164,4.444-7.75C3.277-7.153,1.99-6.661,0.7-6.412C-0.649-6.151-1.851-6.487-2.918-7.35c-0.894-0.723-1.732-1.445-1.766-2.703c-0.03-1.096,0.742-2.124,0.841-3.24c0.295-3.297,0.388-6.621,0.834-9.903c0.425-3.13,1.228-6.37,3.336-8.783c-0.884,0.203-1.733,0.58-2.51,1.172c-3.495,2.665-2.556,7.038-2.736,10.864c-0.072,1.529-0.364,3.022-0.797,4.486c-0.421,1.422-1.157,2.748-1.523,4.207c-0.518,2.061-0.542,4.597,1.069,6.2c-0.03,0.07-0.06,0.14-0.09,0.21c-0.274,0.64-0.758,0.987-0.731,1.78c0.022,0.646,0.445,0.98,0.938,1.364C-6.449-1.037-7.24-0.51-6.637,0.263c0.388,0.498,1.004,0.819,1.535,1.137c0.98,0.587,2.068,1.007,3.211,1.111c1.293,0.117,2.506-0.006,3.484-0.86c0.732-0.639,1.498-1.239,2.293-1.797C4.92-0.87,6.024-1.531,7.246-1.843c1.223-0.311,2.588-0.237,3.656,0.435c0.822,0.518,1.157,1.452,1.906,2.071c0.593,0.49,1.173-0.312,1.494-0.779C14.628-0.59,14.853-1.176,14.765-1.759z" fill="#7C9900"></path><path style="" d="M11.372-11.258c-0.45-0.936-0.562-1.953-0.611-2.982c-0.105-0.12-0.229-0.225-0.393-0.33c-0.215-0.137-0.451-0.247-0.703-0.286c-0.849-0.132-1.755,0.771-2.311,1.31c-0.694,0.673-1.282,1.45-1.806,2.26C5.49-11.195,5.3-10.755,5.211-10.729c1.129-0.329,2.943-0.517,4.123-0.466c0.863,0.038,1.427,0.038,2.146,0.13C11.445-11.13,11.404-11.192,11.372-11.258z" fill="#7C9900"></path><path style="" d="M6.75-4.625c1.137-0.587,2.536-0.691,3.788-0.445c1.044,0.204,2.321,0.874,2.926,1.781c0.319,0.479,0.189,0.664-0.307,0.87c-0.493,0.205-1.132,0.086-1.648,0.026c-0.6-0.07-1.196-0.174-1.8-0.211c-1.898-0.117-4.145,0.257-5.7,1.407C3.804-1.4,3.656-1.7,3.592-1.981C4.55-2.954,5.537-3.999,6.75-4.625z" fill="#A8BF00"></path><g><path style="" d="M5.968-20.379c-0.02,0.356-0.062,0.712-0.139,1.062c-0.055,0.065-0.107,0.133-0.161,0.192c-0.107,0.117-0.219,0.229-0.337,0.335c-0.026,0.024-0.058,0.04-0.085,0.063l-0.039,0.211c0.092-0.075,0.196-0.136,0.283-0.218c0.095-0.088,0.183-0.183,0.271-0.278c-0.112,0.407-0.253,0.805-0.448,1.177c-0.564,1.072-1.693,2.014-3.101,2.615c0.033-0.049,0.06-0.1,0.069-0.119c0.322-0.683,0.581-1.395,0.784-2.122c0.07-0.008,0.146-0.03,0.17-0.035c0.173-0.043,0.343-0.096,0.51-0.157c0.334-0.123,0.654-0.282,0.956-0.471c0.181-0.114,0.342-0.256,0.508-0.391l0.039-0.211c-0.213,0.185-0.435,0.359-0.675,0.506c-0.306,0.187-0.631,0.342-0.97,0.459c-0.161,0.056-0.326,0.098-0.491,0.139c0.223-0.838,0.362-1.697,0.421-2.562c0.082-0.01,0.229-0.116,0.306-0.159c0.567-0.313,1.082-0.715,1.539-1.173L5.335-21.68c-0.23,0.237-0.476,0.46-0.738,0.661c-0.23,0.175-0.47,0.336-0.721,0.481c-0.104,0.06-0.229,0.109-0.331,0.175c0.009-0.161,0.01-0.322,0.013-0.483c0.169-0.042,0.567-0.356,0.653-0.42c0.266-0.196,0.515-0.414,0.745-0.651c0.101-0.105,0.189-0.221,0.282-0.333l-0.047-0.189c-0.115,0.143-0.221,0.292-0.349,0.424c-0.225,0.232-0.47,0.445-0.73,0.636c-0.133,0.098-0.27,0.19-0.411,0.276c-0.023,0.014-0.086,0.045-0.142,0.083c0.001-0.158,0.008-0.316,0.003-0.474c-0.005-0.151-0.02-0.302-0.03-0.453C3.541-22,3.537-22.058,3.521-22.122c-0.031-0.381-0.073-0.761-0.136-1.138c-0.195-1.149-0.539-2.273-1.019-3.336c-0.12-0.265-0.248-0.526-0.385-0.783c-0.025-0.047-0.131-0.274-0.236-0.436c0.485,0.11,1.015,0.383,1.34,0.716c0.387,0.397,0.708,0.899,0.998,1.383l0.083,0.139l0.052-0.153c0.007-0.019,0.024-0.03,0.037-0.036c0.032-0.013,0.072-0.012,0.102,0.001c0.068,0.031,0.117,0.106,0.157,0.175c0.133,0.225,0.242,0.499,0.335,0.836l0.039,0.14l0.092-0.112c0.07-0.085,0.208-0.106,0.301-0.049c0.099,0.061,0.153,0.195,0.166,0.409c0.012,0.209-0.002,0.437-0.041,0.655L5.4-23.685l0.012,0.022c0.029,0.056,0.058,0.115,0.087,0.175c0.059,0.121,0.128,0.236,0.2,0.348c-0.093,0.087-0.2,0.317-0.24,0.376c-0.08,0.115-0.179,0.215-0.266,0.324l0.047,0.189c0.077-0.092,0.162-0.178,0.233-0.275c0.057-0.077,0.243-0.295,0.313-0.462c0.111,0.155,0.166,0.348,0.167,0.55c-0.093,0.095-0.2,0.291-0.234,0.334c-0.11,0.134-0.225,0.265-0.345,0.39c-0.012,0.012-0.026,0.022-0.038,0.034l0.041,0.163c0.038-0.038,0.083-0.069,0.12-0.108c0.121-0.127,0.237-0.259,0.348-0.394c0.012-0.015,0.031-0.035,0.049-0.055c-0.012,0.034-0.017,0.07-0.032,0.103L5.85-21.948l0.005,0.025C5.968-21.418,5.997-20.898,5.968-20.379l0.154-0.061c0.023-0.502-0.008-1.004-0.115-1.492c0.175-0.4,0.126-0.874-0.125-1.186c-0.097-0.121-0.174-0.28-0.248-0.434c-0.026-0.054-0.052-0.107-0.078-0.157c0.037-0.223,0.05-0.452,0.038-0.665c-0.015-0.266-0.093-0.438-0.236-0.527c-0.119-0.075-0.277-0.07-0.397-0.002c-0.089-0.3-0.194-0.55-0.319-0.762c-0.052-0.088-0.116-0.187-0.225-0.235c-0.068-0.031-0.154-0.032-0.223-0.002c-0.014,0.006-0.026,0.013-0.038,0.021c-0.28-0.463-0.591-0.938-0.965-1.321c-0.41-0.42-1.103-0.754-1.685-0.812l-0.093-0.009l0.011,0.093c0.172,1.432,0.016,2.876-0.418,4.242l0.135,0.073c0.075-0.249,0.146-0.5,0.206-0.753c0.137,0.205,0.563,0.394,0.697,0.512c0.02,0.018,0.034,0.041,0.054,0.059l0.013-0.201c-0.186-0.17-0.482-0.461-0.737-0.492c0.239-1.061,0.322-2.154,0.215-3.243c0.086,0.176,0.237,0.384,0.271,0.449c0.133,0.252,0.258,0.507,0.375,0.767c0.234,0.52,0.435,1.056,0.602,1.601c0.237,0.777,0.4,1.576,0.493,2.383c-0.141-0.234-0.313-0.454-0.38-0.548c-0.233-0.32-0.5-0.615-0.796-0.878c-0.012-0.011-0.03-0.027-0.043-0.039L2.1-23.797c0.266,0.242,0.513,0.506,0.725,0.796c0.142,0.194,0.27,0.397,0.384,0.609c0.014,0.026,0.094,0.171,0.164,0.307c0.016,0.198,0.033,0.396,0.04,0.595c0.051,1.567-0.189,3.143-0.685,4.63c-0.005,0.016-0.013,0.032-0.018,0.049C2.687-16.906,2.659-17,2.639-17.08c-0.053-0.214-0.118-0.426-0.193-0.633c-0.139-0.379-0.325-0.737-0.534-1.083l-0.082,0.159c0.127,0.217,0.254,0.434,0.353,0.665c0.133,0.309,0.24,0.629,0.319,0.956c0.017,0.07,0.039,0.362,0.096,0.507c-0.068,0.185-0.131,0.371-0.207,0.553C2.31-15.765,2.2-15.588,2.118-15.398c-0.015,0.035-0.053,0.117-0.065,0.182c-1.248-1.411-1.909-3.339-1.8-5.221c0.1,0.078,0.201,0.156,0.298,0.239c0.194,0.166,0.378,0.345,0.549,0.535C1.381-19.35,1.617-19,1.829-18.637l0.082-0.159c-0.137-0.227-0.277-0.452-0.442-0.66c-0.208-0.262-0.436-0.508-0.684-0.733c-0.124-0.113-0.277-0.29-0.41-0.392c-0.018-0.014-0.067-0.051-0.115-0.076l0.001-0.011l-0.019-0.023c-0.259-0.318-0.4-0.698-0.399-1.072c0.181-0.185,0.352-0.275,0.521-0.275l0.108,0l-0.038-0.102c-0.104-0.274-0.098-0.587,0.017-0.858c0.006-0.013,0.011-0.021,0.012-0.026c0.003,0.003,0.008,0.007,0.016,0.015c0.063,0.068,0.09,0.166,0.119,0.269c0.013,0.044,0.025,0.089,0.04,0.131l0.063,0.177l0.076-0.172c0.145-0.33,0.262-0.669,0.365-1.012l-0.135-0.073c-0.089,0.28-0.173,0.562-0.286,0.835c-0.028-0.091-0.063-0.182-0.132-0.257c-0.019-0.021-0.063-0.067-0.126-0.067c-0.002,0-0.005,0-0.008,0c-0.042,0.002-0.1,0.025-0.141,0.121c-0.118,0.275-0.135,0.59-0.051,0.876c-0.183,0.03-0.363,0.14-0.548,0.335l-0.02,0.021l-0.001,0.029c-0.009,0.41,0.138,0.826,0.414,1.175c-0.168,2.016,0.545,4.106,1.912,5.597l0.035,0.038l0.048-0.019c1.521-0.609,2.739-1.616,3.343-2.761c0.245-0.466,0.405-0.972,0.522-1.489c0.001-0.003,0.005-0.006,0.006-0.01c0.002-0.004,0.002-0.017,0.002-0.03c0.083-0.377,0.129-0.762,0.146-1.146L5.968-20.379z" fill="#647C00" fill-opacity="0.59"></path><path style="" d="M5.847-5.758C5.678-6.374,5.073-6.892,4.369-7.029C4.084-7.561,3.626-7.988,3.076-8.234C3.062-8.24,3.049-8.241,3.035-8.247l0.004,0.163c0.52,0.239,0.951,0.647,1.214,1.156L4.27-6.895l0.037,0.006c0.655,0.115,1.242,0.607,1.396,1.17C5.742-5.577,5.81-5.222,5.605-4.991c-0.141,0.158-0.373,0.213-0.603,0.25C4.371-4.639,3.738-4.598,3.231-4.619c-0.086-0.004-0.303-0.189-0.42-0.29c-0.059-0.05-0.11-0.094-0.146-0.12C2.42-5.204,2.222-5.354,2.042-5.502C1.658-5.816,1.331-6.147,1.065-6.486C1.398-7.007,2.065-7.378,2.679-7.41C3.674-7.494,4.432-6.63,4.699-5.742C4.748-5.598,4.755-5.444,4.653-5.38c-0.69,0.186-1.507-0.182-2.127-0.529C3.165-6.472,3.673-6.46,3.831-5.48c0.275-0.667-0.452-1.285-1.045-0.84C2.597-6.201,2.429-6.055,2.282-5.88c0.459,0.354,2.893,1.372,2.56,0.092C4.373-7.611,2.108-8.182,0.976-6.605C0.802-6.844,0.464-7.367,0.534-7.774C0.56-7.92,0.636-8.032,0.767-8.116C0.86-8.176,0.976-8.2,1.086-8.217c0.29-0.046,0.588-0.085,0.89-0.085c0.344,0,0.693,0.052,1.038,0.206c0.009,0.004,0.016,0.01,0.025,0.014L3.035-8.247C2.363-8.533,1.693-8.464,1.063-8.366c-0.127,0.02-0.261,0.049-0.377,0.124C0.52-8.136,0.419-7.987,0.387-7.8C0.299-7.297,0.73-6.67,0.92-6.424c0.277,0.359,0.623,0.708,1.027,1.039C2.13-5.236,2.33-5.083,2.578-4.906c0.034,0.024,0.082,0.065,0.136,0.112C2.925-4.614,3.097-4.475,3.225-4.47c0.093,0.004,0.189,0.006,0.289,0.006c0.459,0,0.985-0.044,1.512-0.129c0.258-0.041,0.52-0.105,0.692-0.299C5.896-5.093,5.943-5.409,5.847-5.758z" fill="#647C00" fill-opacity="0.59"></path><path style="" d="M7.438-4.636c-0.245,0.051-0.501,0.037-0.75,0.053c-0.245,0.015-0.49,0.032-0.734,0.055c-0.262,0.024-0.829,0.055-1.045,0.23C5.275-4.279,5.627-4.341,5.99-4.365c0.211-0.014,0.432-0.011,0.64-0.043c0.379-0.059,0.867,0,1.225-0.187c0.72-0.67-0.246-1.757-0.974-1.917c0.209,0.046,0.5,0.387,0.642,0.537c0.188,0.199,0.384,0.447,0.419,0.728C7.985-4.897,7.764-4.704,7.438-4.636z" fill="#647C00" fill-opacity="0.59"></path><path style="" d="M8.959-11.388c0.332,0.984,1.678,0.305,2.294-0.174c-0.051-0.127-0.109-0.252-0.149-0.382c-0.286-0.287-0.62-0.534-1.018-0.621c-0.421-0.038-0.462,0.562-0.224,0.77c-0.049-0.354,0.013-0.775,0.448-0.509c0.303,0.155,0.566,0.376,0.794,0.63c-0.515,0.403-1.713,1.079-2.002,0.238c-0.136-0.477-0.308-1.183-0.049-1.604c0.554-0.27,1.383,0.201,1.934,0.623c-0.016-0.069-0.037-0.136-0.05-0.205c-0.337-0.235-0.701-0.436-1.087-0.568C8.503-13.702,8.697-12.21,8.959-11.388z" fill="#647C00" fill-opacity="0.59"></path><path style="" d="M-2.571-11.856c-0.186-0.148-0.335-0.32-0.488-0.49c0.057-0.047,0.118-0.114,0.159-0.147c0.164-0.131,0.343-0.242,0.533-0.332c0.093-0.044,0.196-0.063,0.293-0.098l0.079-0.195c-0.035,0.011-0.072,0.011-0.106,0.023c-0.233,0.08-0.457,0.187-0.664,0.321c-0.093,0.06-0.18,0.136-0.266,0.206c-0.041,0.033-0.095,0.07-0.139,0.11c-0.631-0.754-0.974-1.648-1.148-2.338c-0.191-0.758-0.351-1.54-0.506-2.296c-0.065-0.32-0.132-0.639-0.2-0.958c0.034,0.023,0.068,0.045,0.096,0.068c0.149,0.122,0.297,0.246,0.444,0.372c1.131,0.973,2.169,2.055,3.107,3.215c0.177,0.219,0.337,0.449,0.502,0.676l0.131-0.061c-0.162-0.212-0.307-0.437-0.475-0.645c0.018-0.03,0.031-0.067,0.035-0.091c0.022-0.143,0.049-0.285,0.083-0.426c0.086-0.357,0.227-0.697,0.391-1.026l-0.134-0.099c-0.09,0.178-0.171,0.361-0.24,0.549c-0.065,0.179-0.12,0.362-0.165,0.547c-0.024,0.1-0.084,0.269-0.091,0.405c-0.053-0.065-0.111-0.126-0.164-0.19c0.009-0.014,0.017-0.034,0.022-0.064c0.025-0.164,0.025-0.33,0.056-0.494c0.061-0.327,0.167-0.645,0.315-0.943c0.001-0.002,0.003-0.004,0.004-0.006l-0.115-0.085c-0.082,0.163-0.161,0.328-0.219,0.5c-0.072,0.214-0.125,0.435-0.156,0.659c-0.013,0.092-0.03,0.196-0.026,0.291c-0.301-0.357-0.594-0.72-0.914-1.06c-0.511-0.543-1.046-1.063-1.604-1.557c-0.275-0.243-0.556-0.48-0.843-0.71c0.487,0.068,1.92,0.293,2.062,0.328c0.447,0.109,0.868,0.234,1.249,0.374l0.067-0.134c-0.005-0.002-0.009-0.004-0.014-0.006c-0.387-0.142-0.813-0.269-1.267-0.379c-0.549-0.133-1.786-0.31-2.186-0.333c-0.023,0.158-0.044,0.316-0.071,0.474c0.059,0.279,0.118,0.559,0.175,0.838c0.155,0.758,0.316,1.542,0.508,2.304c0.229,0.908,0.727,2.168,1.8,3.02c0.028,0.022,0.058,0.039,0.087,0.061l0.058-0.144C-2.536-11.835-2.554-11.843-2.571-11.856z" fill="#647C00" fill-opacity="0.59"></path><path style="" d="M7.524-17.317c1.007-0.339,2.331-0.06,3.095,0.613c-0.009-0.076-0.019-0.153-0.03-0.229c-0.817-0.623-2.117-0.861-3.112-0.527c-0.579,0.195-1.15,0.504-1.667,0.882l0.064,0.139C6.384-16.817,6.949-17.124,7.524-17.317z" fill="#647C00" fill-opacity="0.59"></path><path style="" d="M4.085-15.042c0.472-0.079,0.953,0.279,1.137,0.759l0.039,0.118c0.086-0.348-0.274-0.799-0.683-0.994c0.347-0.471,0.795-0.91,1.295-1.28l-0.064-0.139c-0.535,0.391-1.013,0.858-1.378,1.361c-0.13-0.04-0.26-0.055-0.378-0.024c-0.649,0.192-1.113,0.75-1.422,1.427l0.143,0.183C3.049-14.292,3.471-14.844,4.085-15.042z" fill="#647C00" fill-opacity="0.59"></path><path style="" d="M-4.485-7.453C-4.708-7.472-4.93-7.511-5.143-7.569l-0.063-0.017c-0.204-0.053-0.274-0.08-0.258-0.25c0.015-0.161,0.056-0.322,0.118-0.478L-5.51-8.297C-5.561-8.15-5.601-7.999-5.614-7.849c-0.009,0.099,0.013,0.166,0.046,0.22c-0.037,0.043-0.068,0.108-0.086,0.136c-0.064,0.1-0.135,0.196-0.211,0.287c-0.156,0.185-0.334,0.351-0.526,0.498c-0.201,0.153-0.42,0.283-0.65,0.393c0.02,0.044,0.049,0.085,0.07,0.129C-6.89-6.223-6.827-6.252-6.812-6.26c0.247-0.134,0.481-0.295,0.693-0.479c0.211-0.184,0.402-0.392,0.557-0.624c0.019-0.029,0.068-0.096,0.096-0.161c0.067,0.039,0.144,0.064,0.221,0.084l0.062,0.016C-4.96-7.364-4.73-7.323-4.497-7.304c0.103,0.009,0.214,0.014,0.33,0.014c0.248,0,0.508-0.057,0.771-0.142l-0.05-0.119C-3.818-7.453-4.185-7.428-4.485-7.453z" fill="#647C00" fill-opacity="0.59"></path><path style="" d="M10.713-15.517c-0.886,0.164-1.773,0.107-2.42-0.182l-0.058-0.026L8.2-15.672c-0.651,0.96-1.633,1.799-2.625,2.242l-0.04,0.018l-0.004,0.044c-0.08,0.949-0.217,1.903-0.402,2.841c-0.028-0.013-0.054-0.03-0.082-0.043c-0.627-0.29-1.188-0.451-1.716-0.495c-0.288-0.025-0.6,0.001-0.903,0.067c-0.11-0.749-0.006-1.783,0.347-2.632l-0.143-0.183c-0.417,0.914-0.544,2.052-0.385,2.866c-0.253,0.069-0.497,0.16-0.706,0.28c-0.215-0.176-0.463-0.305-0.72-0.409c0.195-0.115,0.373-0.305,0.537-0.584c0.839-1.427,0.606-3.203-0.592-4.525c-0.54-0.595-1.339-1.09-2.374-1.47l-0.067,0.134c0,0,0.001,0,0.001,0c0.343,0.126,0.649,0.268,0.938,0.418c-0.022,0.03-0.042,0.059-0.055,0.075c-0.171,0.209-0.31,0.44-0.432,0.681l0.115,0.085c0.116-0.233,0.256-0.453,0.419-0.655c0.019-0.023,0.061-0.065,0.093-0.11c0.094,0.052,0.195,0.101,0.283,0.155c-0.108,0.074-0.197,0.236-0.261,0.335c-0.099,0.152-0.188,0.31-0.27,0.471l0.134,0.099c0.079-0.158,0.153-0.319,0.248-0.467c0.073-0.113,0.166-0.217,0.235-0.332c0.006-0.01,0.01-0.023,0.015-0.034c0.336,0.219,0.63,0.456,0.865,0.715c1.154,1.273,1.379,2.98,0.575,4.349c-0.099,0.169-0.203,0.302-0.311,0.402c-0.222-0.373-0.44-0.748-0.68-1.11c-0.305-0.46-0.647-0.895-0.981-1.334l-0.131,0.061c0.127,0.174,0.261,0.344,0.386,0.52c-0.051-0.01-0.101-0.023-0.152-0.03c-0.452-0.069-0.917-0.021-1.354,0.112l-0.079,0.195c0.362-0.128,0.741-0.207,1.124-0.188c0.121,0.006,0.242,0.02,0.361,0.041c0.035,0.006,0.158,0.049,0.246,0.067c0.396,0.569,0.773,1.15,1.128,1.746c-0.058,0.039-0.116,0.085-0.177,0.107c-0.087-0.028-0.17-0.069-0.259-0.088c-0.429-0.092-0.932-0.137-1.365-0.057c-0.104,0.019-0.204,0.055-0.304,0.089c-0.418-0.131-0.823-0.33-1.199-0.618l-0.058,0.144c0.2,0.148,0.407,0.274,0.62,0.382c-0.234,0.099-0.45,0.231-0.661,0.367l0.086,0.122c0.205-0.132,0.414-0.259,0.638-0.353c0.036-0.015,0.083-0.03,0.128-0.046c0.069,0.03,0.135,0.07,0.205,0.096c-0.101,0.047-0.202,0.094-0.296,0.154c-0.251,0.161-0.449,0.385-0.619,0.633c-0.156-0.077-0.312-0.151-0.474-0.211c0.044-0.029,0.089-0.058,0.132-0.087c0.093-0.063,0.19-0.124,0.286-0.186l-0.086-0.122c-0.095,0.062-0.191,0.122-0.284,0.185c-0.098,0.066-0.175,0.14-0.289,0.13c-0.158-0.013-0.365-0.155-0.514-0.218c0.002,0.037,0.031,0.172,0.009,0.201c-0.026,0.034-0.147,0.03-0.189,0.036c-0.156,0.024-0.311,0.052-0.465,0.085c-0.013,0.003-0.028,0.006-0.041,0.009l0.184,0.099c0.169-0.033,0.338-0.064,0.509-0.084c0.037-0.004,0.048,0.188,0.051,0.386l0.13,0.07c0-0.177,0.004-0.355,0.038-0.529c0.319,0.082,0.627,0.214,0.929,0.364c-0.316,0.526-0.468,1.172-0.358,1.831C-2.891-8.261-2.86-8.161-2.831-8.06c-0.444-0.553-0.688-1.263-0.687-1.97l-0.13-0.07c0.003,0.192-0.002,0.391,0.001,0.42c-0.089,0.012-0.176,0.035-0.264,0.056c-0.2-0.032-0.398-0.051-0.59-0.036c-1.218,0.144-2.266,0.764-2.968,1.677c0.002-0.01,0.003-0.023,0.006-0.032c0.035-0.122,0.078-0.243,0.127-0.361c0.098-0.234,0.224-0.457,0.376-0.661c0.225-0.303,0.468-0.548,0.809-0.713c0.616-0.298,1.272-0.52,1.944-0.651l-0.184-0.099c-0.28,0.059-0.586,0.117-0.846,0.232c-0.408,0.136-0.957,0.286-1.29,0.56c-0.207,0.17-0.394,0.365-0.554,0.581c-0.185,0.25-0.333,0.527-0.442,0.818c0.014,0.191,0.034,0.379,0.064,0.566c0.674-0.963,1.734-1.622,2.975-1.768c0.092-0.011,0.173-0.015,0.252-0.017c-0.413,0.154-0.786,0.398-1.021,0.724C-5.364-8.65-5.447-8.476-5.51-8.297l0.162-0.016c0.056-0.142,0.128-0.28,0.217-0.404c0.32-0.444,0.907-0.743,1.506-0.818c0.093,0.64,0.358,1.253,0.79,1.727c-0.005,0.01-0.011,0.02-0.016,0.03c-0.194,0.107-0.395,0.175-0.596,0.228l0.05,0.119c0.157-0.05,0.314-0.101,0.471-0.182c-0.03,0.079-0.058,0.159-0.074,0.242c-0.034,0.178-0.03,0.358,0.003,0.533c-0.557-0.322-1.222-0.434-1.849-0.29c-0.078,0.018-0.156,0.055-0.235,0.082l0.165,0.098c0.035-0.01,0.068-0.025,0.103-0.033c0.623-0.143,1.312-0.02,1.847,0.328l0.013-0.02C-2.941-6.636-2.915-6.602-2.9-6.564l0.135-0.076c-0.088-0.225-0.134-0.459-0.087-0.703c0.025-0.132,0.081-0.255,0.146-0.374c0.083,0.189,0.187,0.368,0.307,0.536l0.072-0.159c-0.215-0.315-0.37-0.67-0.433-1.049c-0.164-0.978,0.232-1.959,0.985-2.44c0.318-0.203,0.696-0.341,1.076-0.349c0.406-0.008,0.817,0.022,1.209,0.137c0.357,0.104,0.692,0.282,0.975,0.523l0.042,0.035l0.046-0.028c0.484-0.293,1.168-0.452,1.746-0.403c0.511,0.042,1.056,0.2,1.667,0.481c0.284,0.131,0.56,0.284,0.827,0.451l0.088-0.111c-0.069-0.043-0.132-0.097-0.202-0.138c-0.139-0.081-0.284-0.15-0.428-0.222c0.187-0.942,0.326-1.902,0.407-2.857c0.986-0.451,1.956-1.277,2.613-2.226c0.662,0.277,1.547,0.328,2.429,0.17C10.716-15.417,10.715-15.467,10.713-15.517z" fill="#647C00" fill-opacity="0.59"></path><path style="" d="M13.852-7.757c-0.5,0.345-1.091,0.571-1.693,0.63l-0.039,0.004l-0.019,0.034c-0.583,1.033-1.555,1.793-2.648,2.165c0.081-0.83-0.212-1.721-0.822-2.302C8.55-7.315,8.448-7.377,8.359-7.455c0.043-0.076,0.089-0.19,0.114-0.227C8.541-7.787,8.617-7.887,8.7-7.981C9.03-8.359,9.467-8.648,9.951-8.785l0.593-0.168L9.928-8.933C8.997-8.901,8.03-9.183,7.403-9.67c-0.462-0.36-0.809-0.874-0.973-1.445c-0.197-0.681,0.153-1.335,0.38-1.664c0.159-0.232,0.44-0.467,0.635-0.467c0.115,0.012,0.181,0.078,0.227,0.203c0.201,0.54,0.329,1.124,0.453,1.689c0.049,0.223,0.097,0.445,0.15,0.665l0.015,0.063l0.064-0.005c0.706-0.058,1.275-0.012,1.74,0.14c0.587,0.191,1.032,0.616,1.16,1.108l0.019,0.072l0.072-0.018c0.401-0.102,0.845-0.074,1.274,0.05c-0.051-0.067-0.105-0.132-0.155-0.201c-0.367-0.078-0.739-0.087-1.085-0.011c-0.163-0.51-0.631-0.944-1.238-1.142c-0.47-0.153-1.038-0.202-1.735-0.151c-0.047-0.198-0.091-0.398-0.135-0.6c-0.125-0.57-0.254-1.16-0.459-1.71c-0.083-0.224-0.221-0.285-0.322-0.298c-0.113-0.013-0.231,0.035-0.345,0.102c0.282-0.743,0.922-1.36,1.684-1.583c0.628-0.182,1.329-0.099,1.915,0.197c-0.002-0.06-0.005-0.12-0.007-0.18c-0.603-0.285-1.305-0.351-1.95-0.161c-0.867,0.254-1.637,1.066-1.908,1.927l0.006-0.002c-0.079,0.077-0.15,0.157-0.2,0.229c-0.417,0.606-0.559,1.242-0.4,1.791c0.174,0.601,0.538,1.142,1.026,1.521c0.563,0.437,1.384,0.716,2.216,0.765c-0.331,0.153-0.63,0.373-0.879,0.64c-0.126,0.135-0.24,0.283-0.338,0.441C8.3-7.689,8.269-7.618,8.248-7.548c-0.012-0.009-0.023-0.02-0.035-0.029C8.104-7.948,7.387-8.855,7.283-8.968c-0.403-0.44-0.878-0.809-1.384-1.126L5.812-9.983C6.685-9.437,7.447-8.706,7.94-7.798c0.001,0.002,0.002,0.006,0.003,0.009C7.248-8.228,6.41-8.445,5.621-8.556c-0.12-0.035-0.228-0.099-0.334-0.171c-0.18-0.18-0.374-0.341-0.579-0.489c-0.711-0.675-1.87-0.959-2.783-0.64c-0.841-0.833-2.682-1.645-3.585-0.6c-0.665,0.773-0.402,1.901,0.19,2.553c-0.147,0.07-0.427,0.5-0.45,0.757c-0.017,0.099,0,0.192,0.005,0.287l-0.002-0.002c-0.159-0.142-0.291-0.307-0.41-0.481l-0.072,0.159c0.104,0.146,0.219,0.283,0.351,0.406C-2.049-6.766-2.049-6.757-2.05-6.748l0.389-0.045c-0.01-0.101-0.027-0.197-0.014-0.313c0.012-0.14,0.1-0.248,0.145-0.374c0.026-0.138,0.187-0.106,0.305-0.397C-1.274-8.191-1.459-8.191-1.488-8.33c-0.393-0.61-0.47-1.401,0.016-1.976c0.748-0.908,2.438-0.213,3.233,0.508C1.405-9.639,1.095-9.386,0.885-9.006c-1.025-0.62-1.748-0.046-1.624,1.105c0.098,0.862,0.681,1.622,1.43,2.044C0.627-4.138,2.97-2.815,4.278-4.073C2.764-3.369,0.926-4.182,0.836-5.945c-1.028-0.487-1.969-2.1-1.11-3.082c0.38-0.252,0.916,0.042,1.257,0.233c0.02-0.059,0.031-0.119,0.049-0.177c0.015-0.048,0.054-0.093,0.083-0.133C1.175-9.185,1.241-9.26,1.314-9.329c0.139-0.133,0.302-0.24,0.477-0.318c0.356-0.159,0.757-0.2,1.143-0.157c0.4,0.044,0.792,0.176,1.139,0.379C4.279-9.305,4.51-9.164,4.686-9.004c0.157,0.144,0.3,0.305,0.469,0.44C5.472-8.221,5.76-7.85,6.069-7.479C5.984-7.791,5.818-8.068,5.624-8.328C6.684-8.162,7.723-7.87,8.468-7.07c1.021,0.971,1.128,2.875-0.146,3.661c-1.311,0.831-2.84-0.071-4.258,0.21c1.427,0.238,3.014,0.737,4.378-0.016C9.019-3.57,9.329-4.134,9.432-4.744c1.145-0.37,2.165-1.166,2.781-2.237c0.617-0.068,1.219-0.303,1.731-0.656C13.916-7.675,13.886-7.717,13.852-7.757z" fill="#647C00" fill-opacity="0.59"></path><path style="" d="M2.598-1.449c0.71-0.001,1.423-0.219,1.996-0.632L4.506-2.203c-0.799,0.574-1.88,0.756-2.823,0.474c-0.996-0.299-1.82-1.025-2.151-1.895c-1.035-0.682-1.585-1.865-1.44-3.015c0.101,0.476,0.442,0.888,0.807,1.158c0.458,0.401,1.105,0.484,1.494,0.972c0.715,1.02,1.842,2.015,3.149,1.197C2.908-3.28,2.362-3.169,1.83-3.455C1.292-3.679,1.006-4.22,0.581-4.681C-0.103-5.416-1.55-5.645-1.661-6.793L-2.05-6.748C-2.097-6.449-2.1-6.147-2.06-5.851c-0.218-0.13-0.42-0.276-0.567-0.484C-2.695-6.431-2.724-6.537-2.765-6.64L-2.9-6.564c0.042,0.108,0.081,0.217,0.151,0.316c0.038,0.054,0.087,0.095,0.13,0.143l-0.035-0.034C-3.153-6.263-3.642-6.283-4.12-6.217l0.065,0.168c0.526-0.07,1.064-0.06,1.536,0.054c0.148,0.138,0.321,0.243,0.501,0.341C-1.872-4.928-1.478-4.256-0.89-3.77c-0.268,0.438-0.629,0.807-1.036,1.12l0.084,0.12c0.41-0.327,0.777-0.708,1.068-1.151C-0.716-3.637-0.662-3.588-0.6-3.548c0.008,0.021,0.024,0.04,0.033,0.061c-0.044,0.154-0.08,0.311-0.099,0.47c-0.02,0.162-0.025,0.325-0.02,0.488c-0.038,0.04-0.075,0.106-0.102,0.141C-0.856-2.299-0.935-2.22-1.014-2.14l0.11,0.105c0.085-0.087,0.167-0.177,0.241-0.274c0.008,0.079,0.019,0.158,0.031,0.236l0.143-0.067c-0.051-0.303-0.063-0.612-0.02-0.916c0.011-0.078,0.034-0.154,0.054-0.23C-0.289-2.97-0.076-2.674,0.197-2.42C0.188-2.408,0.179-2.399,0.169-2.385c-0.056,0.077-0.095,0.174-0.134,0.26c-0.078,0.177-0.135,0.363-0.173,0.552C-0.154-1.486-0.151-1.398-0.16-1.31c-0.064-0.107-0.121-0.213-0.172-0.318l-0.058,0.19c0.065,0.124,0.13,0.25,0.209,0.366c-0.006,0.243,0.008,0.486,0.058,0.724c0.071,0.342,0.204,0.686,0.385,1.036C0.118,0.86-0.04,1.009-0.226,1.118c-0.528,0.309-1.159,0.261-1.771,0.215c-0.319-0.023-0.647-0.05-0.956-0.021c-0.047,0.004-0.093,0.011-0.139,0.017l-0.031,0.155c0.061-0.007,0.122-0.016,0.183-0.022c0.297-0.025,0.606-0.003,0.932,0.022c0.635,0.046,1.29,0.095,1.858-0.235C0.033,1.14,0.19,0.995,0.335,0.832c0.208,0.373,0.476,0.752,0.813,1.145c0.153-0.095,0.303-0.201,0.446-0.326c0.071-0.062,0.146-0.119,0.217-0.18c0.369-0.436,0.643-0.942,0.765-1.468C2.594-0.073,2.6-0.152,2.612-0.229l-0.15-0.102c-0.014,0.1-0.01,0.202-0.032,0.301c-0.164,0.706-0.6,1.386-1.199,1.876C0.568,1.064,0.172,0.336,0.022-0.378c-0.086-0.41-0.085-0.84,0.01-1.248c0.046-0.196,0.113-0.386,0.205-0.565C0.256-2.228,0.284-2.274,0.3-2.32c0.33,0.283,0.724,0.5,1.149,0.654C1.434-1.625,1.426-1.579,1.422-1.549C1.393-1.356,1.423-1.162,1.419-0.968c-0.007,0.307-0.014,0.613-0.021,0.92C1.39,0.301,1.382,0.65,1.375,0.999l0.15,0.003C1.53,0.782,1.535,0.563,1.54,0.344c0.013-0.595,0.027-1.19,0.04-1.785c0.001-0.033,0.012-0.101,0.014-0.165C1.61-1.6,1.624-1.591,1.64-1.586c0.267,0.08,0.545,0.118,0.824,0.128C2.453-1.401,2.481-1.311,2.487-1.27c0.019,0.14,0.03,0.281,0.032,0.422c0.002,0.174-0.032,0.345-0.056,0.517l0.15,0.102C2.657-0.506,2.68-0.786,2.659-1.066C2.654-1.135,2.657-1.348,2.598-1.449z" fill="#647C00" fill-opacity="0.59"></path><path style="" d="M-0.473-2.003c-0.01-0.045-0.009-0.091-0.017-0.136l-0.143,0.067c0.005,0.034,0.006,0.068,0.013,0.101c0.014,0.065,0.054,0.14,0.078,0.209c-0.041-0.013-0.079-0.03-0.13-0.032c-0.16-0.008-0.321,0.001-0.481,0.006c0.081-0.069,0.156-0.15,0.211-0.204c0.014-0.013,0.024-0.029,0.037-0.042l-0.11-0.105c-0.027,0.027-0.049,0.058-0.077,0.084c-0.07,0.065-0.144,0.126-0.221,0.183c-0.027,0.02-0.089,0.05-0.128,0.087c-0.243,0.018-0.483,0.074-0.724,0.119l-0.008,0.134c0.494-0.095,0.997-0.133,1.496-0.113c0.055,0.002,0.102,0.02,0.155,0.041c0.015,0.005,0.031,0.011,0.046,0.016c0.022,0.051,0.059,0.099,0.086,0.15l0.058-0.19C-0.395-1.758-0.447-1.885-0.473-2.003z" fill="#647C00" fill-opacity="0.59"></path><path style="" d="M-5.519-5.211c0.05-0.182,0.212-0.316,0.283-0.521c0.357-0.161,0.766-0.262,1.181-0.317L-4.12-6.217c-0.372,0.051-0.738,0.15-1.093,0.318C-5.211-5.932-5.2-5.959-5.204-5.997c-0.23-0.407-0.59-0.379-0.936-0.146c0.315-0.384,0.749-0.673,1.225-0.806l-0.165-0.098c-0.582,0.199-1.167,0.633-1.479,1.29c-0.033,0.04-0.057,0.087-0.089,0.129c0.032,0.046,0.074,0.086,0.108,0.131c0.156-0.222,0.343-0.423,0.606-0.561c0.195-0.125,0.52-0.087,0.555,0.097c0.048,0.192-0.211,0.412-0.303,0.666C-5.77-5.13-5.846-4.96-5.918-4.788l0.203,0.023C-5.651-4.914-5.592-5.066-5.519-5.211z" fill="#647C00" fill-opacity="0.59"></path><path style="" d="M-4.419-0.859C-4.748-1.09-5.11-1.266-5.494-1.377c1.31,0.094,2.631-0.341,3.652-1.154l-0.084-0.12c-1.086,0.832-2.531,1.225-3.639,1.171c0,0-0.406-0.888-0.593-1.296C-6.176-2.831-6.193-2.89-6.229-2.932c-0.011-0.025-0.023-0.049-0.023-0.049c0.08-0.291,0.215-1.071,0.413-1.502c0.034-0.097,0.083-0.187,0.124-0.281l-0.203-0.023c-0.246,0.592-0.4,1.225-0.466,1.879L-6.3-2.726c0.09,0.274,0.17,0.615,0.172,0.972c0.026,0.02,0.048,0.04,0.075,0.06C-6.079-1.651-6.109-1.61-6.138-1.568C-6.142-1.522-6.14-1.477-6.146-1.431l-0.011,0.076l0.076,0.009c0.08,0.01,0.149,0.04,0.226,0.054l-0.016-0.169C-5.91-1.469-5.949-1.48-5.988-1.485c0.021-0.201,0.009-0.399-0.014-0.59l0.296,0.647c0,0,0.001,0.002,0.001,0.002c-0.055-0.012-0.11-0.023-0.165-0.034l0.016,0.169c0.467,0.087,0.897,0.243,1.292,0.518c-0.156,0.093-0.307,0.195-0.443,0.308l0.002-0.031C-5.279-0.516-5.54-0.566-5.788-0.644l0.034,0.159c0.204,0.056,0.413,0.101,0.632,0.122c-0.159,0.15-0.288,0.315-0.355,0.498c-0.018,0.05-0.014,0.101-0.023,0.152C-5.6,0.111-5.73-0.043-5.848-0.206l-0.113,0.058c0.146,0.198,0.283,0.403,0.401,0.62l0.035-0.019c0.003,0.128,0.029,0.258,0.091,0.388c0.082,0.171,0.215,0.319,0.383,0.437c-0.081,0.006-0.163,0.018-0.227,0.017c0.059,0.035,0.119,0.07,0.176,0.104c0.029,0.017,0.06,0.031,0.09,0.048c0.048-0.001,0.097-0.003,0.137-0.014C-4.857,1.43-4.836,1.42-4.817,1.408c0.127,0.058,0.261,0.106,0.409,0.132c0.125,0.022,0.25,0.031,0.373,0.031c0.233,0,0.463-0.031,0.687-0.062c0.074-0.01,0.149-0.018,0.223-0.027l0.031-0.155c-0.092,0.01-0.184,0.02-0.275,0.033c-0.345,0.046-0.671,0.091-1.014,0.032C-4.808,1.318-5.15,1.088-5.298,0.777C-5.395,0.574-5.407,0.38-5.336,0.186c0.22-0.597,1.185-1.028,1.703-1.26c0.469-0.21,0.96-0.363,1.459-0.458l0.008-0.134C-2.688-1.568-3.204-1.43-3.695-1.211C-3.893-1.122-4.155-1.004-4.419-0.859z" fill="#647C00" fill-opacity="0.59"></path><path style="" d="M-6.134-0.61c0.122,0.052,0.251,0.089,0.38,0.125l-0.034-0.159c-0.236-0.074-0.46-0.173-0.668-0.3l-0.102-0.062c-0.025,0.034-0.046,0.069-0.069,0.103l0.079,0.076c0.216,0.209,0.41,0.438,0.587,0.679l0.113-0.058C-5.944-0.34-6.024-0.486-6.134-0.61z" fill="#647C00" fill-opacity="0.59"></path><path style="" d="M11.223-4.643c0.367-0.036,0.754,0.068,1.125,0.169c0.366,0.099,0.74,0.198,1.112,0.169c-0.047-0.054-0.092-0.106-0.132-0.149c-0.276,0-0.558-0.063-0.849-0.142c0.312-0.51,0.825-0.951,1.394-1.177c0.021-0.055,0.035-0.112,0.053-0.167c-0.657,0.228-1.258,0.718-1.603,1.305c-0.364-0.098-0.739-0.192-1.114-0.158C10.558-4.729,9.95-4.241,9.695-3.58c-0.2,0.521-0.18,1.13,0.029,1.709c0.057,0.014,0.115,0.02,0.172,0.036c-0.227-0.571-0.257-1.178-0.06-1.691C10.07-4.136,10.627-4.584,11.223-4.643z" fill="#647C00" fill-opacity="0.59"></path><path style="" d="M13.747-3.656c-0.385-0.221-0.927-0.245-1.311-0.021c-0.054-0.038-0.112-0.077-0.123-0.083c-0.073-0.038-0.153-0.055-0.233-0.066c-0.174-0.023-0.358-0.002-0.515,0.079c-0.191,0.099-0.357,0.265-0.442,0.464c-0.371,0.974,0.49,1.901,1.195,2.426c0.07,0.04,0.142,0.069,0.214,0.092l0.055-0.19c-0.318-0.113-0.596-0.382-0.81-0.679c-0.596-0.573-0.953-1.906,0.145-2.008c0.213,0.011,0.266-0.013,0.379,0.056c-0.113,0.096-0.207,0.218-0.263,0.376c-0.238,0.731,0.279,1.397,1.026,1.328c0.281-0.028,0.891-0.023,0.874-0.425c-0.202-0.347-0.566-0.461-0.88-0.346c0.279,0.094,0.604,0.204,0.713,0.392c-0.042,0.143-0.526,0.207-0.706,0.203c-0.664,0.055-1.044-0.494-0.857-1.091c0.195-0.553,0.968-0.632,1.452-0.346c0.522,0.269,0.778,0.893,0.766,1.468c0.028,0.63-0.649,0.881-1.195,1.066c-0.226,0.088-0.443,0.078-0.644,0.006l-0.055,0.19c0.55,0.173,1.138-0.126,1.62-0.402C15.017-1.76,14.58-3.219,13.747-3.656z" fill="#647C00" fill-opacity="0.59"></path><path style="" d="M-2.095-4.315L-2.263-4.42c0.118,0.641-0.075,1.406-0.447,1.875c-0.254,0.32-0.467,0.46-0.633,0.412c-0.082-0.023-0.138-0.064-0.169-0.125C-3.57-2.367-3.557-2.543-3.474-2.781c0.122-0.349,0.18-0.715,0.191-1.087l-0.149-0.014c-0.009,0.36-0.066,0.714-0.183,1.051c-0.086,0.246-0.092,0.428-0.044,0.572C-3.674-2.286-3.69-2.314-3.69-2.314c-0.933,0.507-2.096-0.324-2.035-1.36c0.036-0.603,0.289-1.107,0.794-1.461c0.237-0.166,0.513-0.283,0.801-0.317c0.235-0.028,0.483,0.051,0.522,0.317c0.045,0.312-0.164,0.602-0.282,0.874l-0.312,0.719c-0.055,0.113-0.184,0.414-0.25,0.519c-0.033,0-0.068,0-0.092,0.002c-0.3-0.205-0.894-0.628-0.594-1.083c0.086-0.167,0.405-0.226,0.563-0.141c-0.044,0.187-0.18,0.366-0.331,0.482c0.016-0.012,0.12,0.001,0.148-0.005c0.052-0.012,0.104-0.034,0.147-0.065c0.083-0.059,0.122-0.162,0.171-0.251c0.029-0.056,0.085-0.174-0.007-0.281C-4.755-4.533-5.08-4.46-5.284-4.201c-0.352,0.604,0.225,1.093,0.722,1.359c0.096-0.004,0.123,0.009,0.199-0.022c0.323-0.457,0.576-1.21,0.852-1.801c0.004,0.025,0.007,0.051,0.011,0.075c0.037,0.192,0.074,0.391,0.075,0.594c0,0.039-0.008,0.076-0.009,0.115l0.149,0.014c0.001-0.044,0.01-0.086,0.01-0.13c-0.001-0.217-0.041-0.422-0.078-0.621C-3.398-4.864-3.601-5.45-3.168-5.45c0.043,0,0.086,0.006,0.125,0.017c0.229,0.06,0.397,0.223,0.498,0.349c0.149,0.186,0.237,0.417,0.282,0.665L-2.095-4.315c-0.039-0.319-0.14-0.622-0.334-0.863c-0.115-0.144-0.309-0.33-0.577-0.4c-0.149-0.038-0.353-0.024-0.473,0.114C-3.548-5.544-3.631-5.61-3.737-5.631c-1.798-0.268-3.034,2.306-1.451,3.366c0.456,0.297,1.07,0.35,1.557,0.087c0.053,0.09,0.132,0.157,0.248,0.189c0.035,0.01,0.07,0.015,0.106,0.015c0.205,0,0.43-0.157,0.684-0.477C-2.221-2.92-2.014-3.657-2.095-4.315z" fill="#647C00" fill-opacity="0.59"></path><path style="" d="M-6.991-3.058c0.008,0.235,0.082,0.42,0.18,0.59c-0.06-0.283-0.108-0.568-0.147-0.857C-6.97-3.237-6.994-3.16-6.991-3.058z" fill="#647C00" fill-opacity="0.59"></path></g></g><!---0009-00510002000032--><g><path style="" d="M-1.565-22.188c-2.186-0.787-3.112-2.712-3.379-4.924c-0.202-1.674-0.347-3.968-0.329-5.653c0.017-1.589,0.067-3.178,0.133-4.765c0.062-1.507,0.029-3.074,0.359-4.553c0.484-2.163,1.707-3.815,3.818-4.569c1.946-0.695,4.243-0.591,6.086,0.363c1.097,0.567,2.314,1.407,2.675,2.655C8.103-42.58,8-41.355,8-40.272c0,2.512,0.057,5.023,0.128,7.534c0.062,2.209,0.444,4.945-0.628,7.03c-1.569,3.05-5.763,4.647-8.978,3.551C-1.507-22.167-1.537-22.177-1.565-22.188z" fill="#A8BF00"></path><path style="" d="M7.798-43.633c-0.362-1.247-1.579-2.087-2.675-2.655c-1.843-0.954-4.14-1.058-6.086-0.363c-2.111,0.754-3.334,2.406-3.818,4.569c-0.331,1.478-0.297,3.046-0.359,4.553c-0.065,1.588-0.115,3.176-0.133,4.765c-0.018,1.685,0.126,3.979,0.329,5.653c0.2,1.655,0.769,3.148,1.959,4.126c0.051-0.384,0.122-0.765,0.187-1.284c0.27-2.147,0.997-4.133,2.096-5.998c-0.145-0.609-0.304-1.216-0.476-1.818c-0.143-0.5-0.305-1.074-0.275-1.6c0.006-0.103,0.039-0.234,0.141-0.248c0.072-0.01,0.135,0.046,0.185,0.099c1.126,1.171,1.951,2.636,3.23,3.656c0.34,0.271,0.703,0.498,1.069,0.732c0.161,0.103,0.265,0.14,0.456,0.172c0.075,0.013,0.316,0.015,0.363,0.089c-0.377-0.593-0.699-1.208-0.978-1.849c-0.397-0.913-0.789-1.829-1.209-2.732c0.31-0.705,0.66-1.312,0.97-2.017c1.798-0.934,3.539-1.974,5.241-3.074C8.01-39.33,8-39.801,8-40.272C8-41.355,8.103-42.58,7.798-43.633z" fill="#7C9900"></path><path style="" d="M5.122-46.288c-1.843-0.954-4.14-1.058-6.086-0.363c-0.736,0.263-1.357,0.641-1.884,1.106c-0.377,0.523-0.708,1.08-0.96,1.677c-0.718,1.701-0.834,3.648-0.353,5.429c0.212,0.783,0.645,1.845,1.278,2.667c0.542,0.703,1.229,1.232,2.049,1.261c2.475,0.087,3.436-3.136,4.352-4.861c1.046-1.97,2.091-3.94,3.137-5.91C6.185-45.687,5.641-46.019,5.122-46.288z" fill="#647C00"></path><path style="" d="M5.63-23.55c-0.02-0.06-0.05-0.11-0.07-0.16c0.03-0.22,0.05-0.45,0.03-0.66c-0.01-0.27-0.09-0.44-0.23-0.53c-0.12-0.08-0.28-0.07-0.4,0c-0.09-0.3-0.19-0.55-0.32-0.77c-0.05-0.08-0.11-0.18-0.22-0.23c-0.07-0.03-0.16-0.03-0.23,0c-0.01,0-0.02,0.01-0.03,0.02c-0.28-0.47-0.59-0.94-0.97-1.32c-0.41-0.42-1.1-0.76-1.68-0.81l-0.1-0.01l0.02,0.09c0.106,0.912,0.08,1.832-0.06,2.736L1.5-25.152c0.134-0.849,0.177-1.713,0.09-2.578c0.09,0.17,0.24,0.38,0.27,0.45c0.13,0.25,0.26,0.5,0.38,0.76c0.23,0.52,0.43,1.06,0.6,1.6c0.24,0.78,0.4,1.58,0.49,2.39c-0.14-0.24-0.31-0.46-0.38-0.55c-0.23-0.32-0.5-0.62-0.79-0.88c-0.18-0.16-0.51-0.5-0.78-0.53c0.048-0.219,0.085-0.441,0.12-0.662L1.37-25.194c-0.124,0.8-0.335,1.588-0.65,2.344c-0.03-0.1-0.06-0.19-0.13-0.26c-0.02-0.02-0.06-0.07-0.13-0.07c0,0,0,0-0.01,0c-0.04,0-0.1,0.03-0.14,0.12c-0.11,0.28-0.13,0.59-0.05,0.88c-0.17,0.03-0.34,0.13-0.51,0.31c0.07,0.01,0.14,0.01,0.21,0.02c0.14-0.12,0.27-0.19,0.4-0.19h0.11l-0.04-0.1c-0.1-0.28-0.09-0.59,0.02-0.86c0.01-0.01,0.01-0.02,0.01-0.02c0.01,0,0.01,0,0.02,0.01c0.06,0.07,0.09,0.17,0.12,0.27c0.01,0.04,0.02,0.09,0.04,0.13l0.06,0.18l0.08-0.17c0.25-0.57,0.43-1.17,0.57-1.77c0.14,0.21,0.56,0.4,0.7,0.51C2.34-23.6,2.6-23.31,2.82-23c0.15,0.19,0.27,0.4,0.39,0.61c0.01,0.01,0.04,0.07,0.07,0.13c0.07-0.02,0.15-0.05,0.22-0.07c-0.03-0.31-0.06-0.62-0.12-0.93c-0.19-1.15-0.53-2.27-1.01-3.34c-0.12-0.26-0.25-0.52-0.39-0.78c-0.02-0.05-0.13-0.27-0.24-0.43c0.49,0.11,1.02,0.38,1.34,0.71c0.39,0.4,0.71,0.9,1,1.38l0.09,0.14l0.05-0.15c0-0.02,0.02-0.03,0.03-0.04c0.04-0.01,0.08-0.01,0.11,0.01c0.06,0.03,0.11,0.1,0.15,0.17c0.14,0.23,0.25,0.5,0.34,0.84l0.04,0.14l0.09-0.12c0.07-0.08,0.21-0.1,0.3-0.04c0.1,0.06,0.15,0.19,0.17,0.4c0.01,0.21-0.01,0.44-0.05,0.66v0.02l0.01,0.03c0.03,0.05,0.06,0.11,0.09,0.17c0.01,0.02,0.02,0.04,0.03,0.05c0.04-0.02,0.08-0.06,0.12-0.09C5.64-23.54,5.64-23.54,5.63-23.55z" fill="#647C00" fill-opacity="0.59"></path></g><!---0011-00660001800015--><g><path style="" d="M-1.376-55.938c0.192-0.71,0.575-2.223,0.89-2.514c0.292,0.441,0.509,1.512,0.686,2.304c0.133,0.596-0.051,1.3-0.345,1.843c-0.043,0.08-0.1,0.166-0.189,0.187C-1.182-53.913-1.489-55.52-1.376-55.938z" fill="#E6BBA8"></path><path style="" d="M-0.563-54.702c0.069,0.058,0.184,0.031,0.236-0.041c0.077-0.105,0.045-0.235,0.008-0.348c-0.141-0.434,0.012-0.841-0.033-1.282c-0.028-0.274-0.165-0.542-0.332-0.756c-0.127,0.343-0.221,0.714-0.292,1.072c-0.059,0.296-0.057,0.521,0.061,0.805c0.07,0.17,0.181,0.314,0.252,0.481c0.017,0.041,0.043,0.085,0.083,0.104C-0.54-54.647-0.6-54.678-0.563-54.702z" fill="#B37E78" fill-opacity="0.5"></path><path style="" d="M-6.164-54.597c-0.249-1.281-0.552-2.552-0.909-3.808c1.003,1.067,1.707,2.472,2.035,3.899c-0.342-0.055-0.668-0.146-1.01-0.201C-6.087-54.714-6.196-54.573-6.164-54.597z" fill="#E6BBA8"></path><path style="" d="M3.092-62.457c-0.016-0.084-0.033-0.164-0.048-0.251c0.044,2.655-0.664,5.306-1.551,7.79c0.71,0.031,1.47,0.109,2.152-0.093c0.262-0.077,0.532-0.18,0.709-0.389c0.188-0.223,0.339-0.35,0.383-0.564C4.019-58.155,3.274-60.483,3.092-62.457z" fill="#E6BBA8"></path><path style="" d="M2.229-54.792c0.903-1.09,1.069-1.757,1.216-2.747c0.442,0.578,0.701,1.274,0.787,1.997C3.654-55.193,2.891-54.925,2.229-54.792z" fill="#F4D5BF"></path></g><!---0021-00600003200026--><g><g><path style="" d="M-14.324-53.883c-0.094-0.252-0.04-0.534,0.028-0.794c0.165-0.637,0.45-1.195,0.756-1.778c4.792,1.52,9.917,1.977,14.902,1.328c1.211-0.157,2.444-0.414,3.394-1.182c0.449,0.935,0.739,1.945,0.853,2.975c-4.994,2.226-10.587,2.909-16.005,2.179c-0.847-0.114-1.706-0.264-2.46-0.667C-13.609-52.223-14.025-53.083-14.324-53.883z" fill="#D2D4D6"></path><path style="" d="M4.019-55.838c-0.81,0.412-1.74,0.592-2.658,0.711c-3.016,0.392-6.082,0.373-9.095-0.034c-0.152,0.732-0.246,1.52-0.259,2.244c1.276,0.574,2.605,0.981,3.991,1.18c1.055,0.151,2.127,0.293,3.197,0.363c1.729-0.316,3.426-0.788,5.07-1.419C4.287-53.813,4.202-54.834,4.019-55.838z" fill="#FFFFFF"></path><path style="" d="M-9.837-55.506c-0.288-0.057-0.573-0.129-0.86-0.194c-0.351,1.03-0.553,2.111-0.577,3.2c0.313,0.258,0.488,0.506,0.882,0.603C-10.369-53.114-10.18-54.336-9.837-55.506z" fill="#7C9900"></path><path style="" d="M-10.737-54.173c-0.118-0.061-0.218-0.151-0.305-0.251c-0.134,0.633-0.219,1.277-0.233,1.924c0.313,0.258,0.488,0.506,0.882,0.603c0.014-0.725,0.094-1.451,0.223-2.168C-10.365-54.051-10.563-54.083-10.737-54.173z" fill="#647C00"></path><path style="" d="M-11.902-55.985c-0.286-0.075-0.569-0.162-0.853-0.245c-0.333,0.994-0.531,2.033-0.56,3.081c0.312,0.26,0.485,0.51,0.878,0.609C-12.407-53.701-12.223-54.865-11.902-55.985z" fill="#7C9900"></path><path style="" d="M-12.766-54.818c-0.118-0.062-0.217-0.152-0.304-0.253c-0.138,0.632-0.227,1.275-0.245,1.923c0.312,0.26,0.485,0.51,0.878,0.609c0.019-0.725,0.103-1.451,0.237-2.167C-12.395-54.694-12.593-54.727-12.766-54.818z" fill="#647C00"></path></g><path style="" d="M0.198-51.451c-5.12,0.206-10.209,0.374-15.337,0.59c-0.569,1.419-1.131,3.307-1.205,4.834c-0.567,0.221-1.527,1.014-1.406,1.61c0.51,2.506,3.673,4.305,5.757,5.372c3.354,1.719,7.964,2.457,12.044,1.583C0.219-42.124,0.725-46.787,0.198-51.451z" fill="#CFE401"></path><path style="" d="M7.369-45.694c-0.04-0.178-0.374-1.036-0.294-1.165C7.58-47.671,8.037-49,7.383-49.858c-0.209-0.275-0.54-0.437-0.771-0.692c-0.119-0.131-0.238-0.262-0.357-0.393c-1.029-1.133-3.05-0.629-4.579-0.565c-0.494,0.021-0.985,0.037-1.479,0.057c0.527,4.663,0.022,9.327-0.147,13.99c2.535-0.543,4.867-1.704,6.561-3.65c0.559-0.642,1.222-1.444,1.232-2.025C7.858-44.009,7.549-44.882,7.369-45.694z" fill="#A8BF00"></path><path style="" d="M-16.344-46.027c-0.567,0.221-1.527,1.014-1.406,1.61c0.377,1.854,2.206,3.32,3.976,4.39c-0.002-0.112-0.002-0.223,0.059-0.33c0.19-0.333,0.687-0.3,1.016-0.34c0.066-0.008,0.842-0.097,0.837-0.136c-0.123-0.833-0.812-1.144-1.45-1.532c-0.695-0.423-1.365-0.926-1.877-1.564c0.264-0.176,1.076,0.227,1.355,0.315c0.602,0.19,1.125,0.484,1.736,0.642c1.075,0.278,2.25,0.625,3.256,0.414c-0.963-0.327-1.823-0.761-2.559-1.462c-0.005-0.019-0.011-0.038-0.016-0.057c0.034-0.693-0.036-1.49,0.132-2.163c0.071-0.282,0.215-0.556,0.237-0.841c0.024-0.309-0.047-0.632-0.026-0.945c1.073,0.403,2.192,0.439,3.325,0.27c-1.661-0.494-3.256-1.211-4.727-2.127c-0.434-0.27-0.701-0.643-0.938-1.043c-0.576,0.023-1.288-0.083-1.865-0.059C-15.847-49.567-16.27-47.554-16.344-46.027z" fill="#A8BF00"></path><path style="" d="M6.611-41.111c0.559-0.642,1.222-1.444,1.232-2.025c0.013-0.788-0.233-1.573-0.414-2.316l-6.241,6.869l0.171-0.411c-0.526,0.514-1.052,1.028-1.578,1.542c-0.015,0.015-0.028,0.032-0.042,0.049C2.393-37.916,4.848-39.086,6.611-41.111z" fill="#7C9900"></path><path style="" d="M2.375-38.771c1.865-1.08,3.588-2.211,5.086-3.422c0.221-0.337,0.377-0.666,0.382-0.944c0.007-0.397-0.057-0.793-0.142-1.184L2.375-38.771z" fill="#A8BF00"></path><path style="" d="M1.75-43.694c0.204,0.277,0.336,0.605,0.382,0.945c1.352-0.641,2.606-1.619,3.488-2.828c-0.959,0.402-2.029,0.524-3.065,0.439C2.318-44.72,1.988-44.113,1.75-43.694z" fill="#CFE401"></path><path style="" d="M-0.862-43.979c-1.504,0.25-3.209,0.195-4.674-0.228c1.207-0.821,2.66-1.274,4.12-1.283C-1.231-45.092-1.048-44.377-0.862-43.979z" fill="#A8BF00"></path><path style="" d="M-6.679-48.729c1.759,1.015,3.787,1.559,5.818,1.558c-0.405-0.544-0.802-1.061-1.116-1.662C-3.549-48.897-5.11-48.842-6.679-48.729z" fill="#A8BF00"></path><path style="" d="M-14.586-49.968c0.248,0.016,0.538,0.138,0.727,0.196c0.381,0.116,0.75,0.265,1.131,0.381c0.115,0.035,0.288,0.062,0.369,0.161c0.09,0.11,0.085,0.297,0,0.406c-0.152,0.194-0.379,0.379-0.632,0.414c-0.3,0.041-0.664-0.113-0.923-0.248c-0.363-0.188-0.852-0.458-1.035-0.842c-0.075-0.158-0.078-0.342,0.097-0.427C-14.775-49.964-14.684-49.975-14.586-49.968z" fill="#7C9900"></path><path style="" d="M6.063-50.774c-0.662,1.923-2.401,3.434-4.398,3.82c-0.237-0.832-0.309-1.618-0.509-2.46C2.781-49.325,4.824-49.718,6.063-50.774z" fill="#7C9900"></path><path style="" d="M7.259-47.931c0.073-0.21,0.413-0.824,0.066-0.957c-0.222-0.085-0.566,0.173-0.745,0.279c-0.203,0.119-0.391,0.263-0.593,0.383c-0.506,0.3-0.998,0.621-1.489,0.945c-0.127,0.083-0.383,0.365-0.241,0.529c0.11,0.127,0.567,0.116,0.721,0.128c0.291,0,0.58,0.032,0.868,0.066c0.207,0.024,0.557,0.144,0.723,0.004c0.177-0.149,0.303-0.454,0.402-0.658C7.082-47.445,7.174-47.687,7.259-47.931z" fill="#7C9900"></path><path style="" d="M-0.806-52.028c-2.068,0.154-4.149,0.05-6.197-0.153c-2.536-0.251-5.065-0.802-7.367-1.895c-0.121,0.048-0.257,0.099-0.341,0.198c0,0-0.674,3.159-0.674,3.159c-0.04,0.188,2.412,0.937,2.651,1.007c0.394,0.116,0.792,0.224,1.191,0.324c3.72,0.935,7.633,1.199,11.43,0.643c0.155-0.023,0.291-0.044,0.437-0.066l0.122-3.345C0.024-52.103-0.396-52.058-0.806-52.028z" fill="#CFE401"></path><path style="" d="M5.903-53.806c-1.459,0.92-3.493,1.409-5.456,1.651L0.325-48.81c1.099-0.165,1.99-0.325,3.134-0.69c0.82-0.262,2.646-0.875,2.979-1.563C6.438-51.272,5.886-53.795,5.903-53.806z" fill="#A8BF00"></path><path style="" d="M1.845-52.368c-0.038,0.012-0.082,0.027-0.116,0.038c0.164,0.87,0.347,1.806,0.397,2.69c0.562-0.887,0.858-1.936,0.859-2.987C2.611-52.529,2.231-52.441,1.845-52.368z" fill="#7C9900"></path><path style="" d="M-1.725-41.122c-0.05,0.452-0.106,0.903-0.164,1.353c-0.022,0.172-0.342,2.616-0.297,2.626c1.533,0.316,3.493-0.402,3.808-2.086c0.273-1.46,0.31-2.942,0.25-4.422c-0.015-0.366-0.152-0.829-0.068-1.184c0.184-0.77,0.651-1.423,0.562-2.21c-0.076-0.668-0.303-1.101-0.632-1.925c0.103-0.051,0.215-0.082,0.318-0.133c0.14-0.925,0.196-1.771,0.247-2.705c-0.144-0.24-0.38-0.472-0.611-0.629c-1.311,0.191-2.419,0.242-3.743,0.257c-0.039,0.576-0.085,1.229-0.124,1.805c-0.035,0.524-0.133,1.104,0.036,1.626c0.086,0.265,0.254,0.464,0.41,0.688c0.186,0.268,0.467,0.677,0.595,0.978c0.076,0.181-0.107,0.965-0.169,1.155c-0.238,0.728-0.186,1.5-0.216,2.254C-1.558-42.821-1.631-41.971-1.725-41.122z" fill="#CFE401"></path><path style="" d="M-0.349-51.506c0.18-0.155,0.408-0.251,0.677-0.248c0.451,0.006,0.863,0.326,1.04,0.731c0.441,1.007-0.645,2.192-1.655,1.577C-1.003-49.882-0.928-51.005-0.349-51.506z" fill="#647C00"></path><path style="" d="M1.462-50.649c-0.011-0.125-0.041-0.25-0.095-0.373c-0.142-0.324-0.436-0.585-0.778-0.683c-0.142,0.003-0.286,0.014-0.409,0.084c-0.285,0.162-0.406,0.526-0.367,0.838c0.025,0.206,0.12,0.368,0.26,0.478c0.141,0.112,0.328,0.17,0.535,0.166C1.013-50.146,1.344-50.336,1.462-50.649z" fill="#7C9900"></path><path style="" d="M1.734-48.97c0.092-0.045,0.189-0.076,0.282-0.118c-1.277,0.151-2.564,0.222-3.849,0.204c0.209,0.305,0.605,0.612,0.814,0.917c1.015-0.109,2.003-0.227,3.003-0.392C1.908-48.542,1.826-48.739,1.734-48.97z" fill="#A8BF00"></path><path style="" d="M-0.77-46.788c-0.091,0.626-0.146,1.361-0.315,1.971c0.975,0.138,1.908,0.208,2.871,0.169c0.003-0.064,0.004-0.129,0.018-0.188c0.17-0.711,0.562-1.326,0.554-2.034C1.315-46.842,0.273-46.815-0.77-46.788z" fill="#A8BF00"></path><path style="" d="M-1.247-39.988c-0.133,0.968-0.309,1.936-0.377,2.911c1.414,0.063,2.968-0.669,3.246-2.153c0.113-0.604,0.178-1.213,0.22-1.823C0.941-40.414-0.146-40.022-1.247-39.988z" fill="#A8BF00"></path><path style="" d="M-2.179-50.375c-0.035,0.524-0.133,1.104,0.036,1.626c0.086,0.265,0.254,0.464,0.41,0.688c0.186,0.268,0.467,0.677,0.595,0.978c0.076,0.181-0.107,0.965-0.169,1.155c-0.238,0.728-0.186,1.5-0.216,2.254c-0.034,0.853-0.108,1.704-0.202,2.552c-0.037,0.336-0.08,0.672-0.122,1.007c0.163,0.047,0.335,0.079,0.499,0.097c0.185-1.061,0.31-2.132,0.374-3.207c0.044-0.74,0.04-1.485,0.151-2.219c0.09-0.599,0.579-1.171,0.287-1.804c-0.157-0.342-0.405-0.646-0.602-0.965c-0.087-0.142-0.331-0.406-0.348-0.564c-0.1-0.98-0.044-2.093,0.135-3.062c-0.227-0.114-0.453-0.228-0.68-0.342c-0.008,0-0.016,0-0.025,0C-2.094-51.604-2.14-50.952-2.179-50.375z" fill="#F7FF57"></path><path style="" d="M-15.384-50.718c-0.04,0.188,2.412,0.937,2.651,1.007c0.164,0.048,0.33,0.089,0.495,0.135c0.066-1.018,0.187-2.005,0.408-3.017c-1.009-0.288-1.98-0.702-2.894-1.217C-14.818-53.373-15.384-50.718-15.384-50.718z" fill="#A8BF00"></path><path style="" d="M-6.521-49.021c-0.06-0.833-0.186-1.869-0.118-2.701c-1.217-0.088-2.649-0.345-3.834-0.636c-0.151,0.844-0.208,1.755-0.136,2.609C-9.287-49.321-7.909-49.093-6.521-49.021z" fill="#F7FF57"></path></g><!---0027-00370003200047--><g><path style="" d="M-23.196,4.354c0.406,0.57,0.901,1.075,1.457,1.501c1.477,1.134,3.363,1.667,5.216,1.59c1.811-0.075,3.461-0.936,4.91-1.967c1.586-1.129,3.101-2.437,4.947-3.054c2.031-0.68,4.333-0.785,6.107,0.943C-0.29,3.629-0.026,3.9,0.279,4.118c0.377,0.269,0.722,0.3,1.162,0.327C1.846,3.496,1.59,2.093,0.928,1.32C0.145,0.405-0.564-0.484-1.139-1.556c0,0.028,0,0.056,0,0.083C-0.03-2.63,0.224-4.078-0.012-5.693c-0.041-0.28-0.16-0.549-0.324-0.78c-0.327-0.462-0.574-0.789-0.941-1.343c-0.893-1.348-0.791-3.157-0.784-4.713c0.007-1.487-0.202-3.029-0.286-4.524c-0.178-3.156-0.309-6.317-0.275-9.479c0.021-1.932-0.363-3.847-1.8-5.227c-1.535-1.474-4.497-1.662-6.502-1.399c-2.168,0.284-4.92,1.19-6.073,3.218c-1.206,2.122-1.264,4.645-1.653,6.995c-0.322,1.941-0.411,3.884-1.029,5.784c-0.785,2.413-1.326,4.901-1.698,7.411c-0.288,1.94-0.878,3.594-0.512,5.584c-0.75,0.983-1.268,2.141-1.514,3.353c-0.178,0.875,0.587,1.539,1.152,2.231C-22.874,2.233-23.045,3.339-23.196,4.354z" fill="#CFE401"></path><path style="" d="M-23.196,4.354c0.406,0.57,0.901,1.075,1.457,1.501c1.477,1.134,3.363,1.667,5.216,1.59c1.811-0.075,3.461-0.936,4.91-1.967c1.586-1.129,3.101-2.437,4.947-3.054c2.031-0.68,4.333-0.785,6.107,0.943C-0.29,3.629-0.026,3.9,0.279,4.118c0.377,0.269,0.722,0.3,1.162,0.327C1.846,3.496,1.59,2.093,0.928,1.32C0.145,0.405-0.564-0.484-1.139-1.556c0,0.028,0,0.056,0,0.083C-0.03-2.63,0.224-4.078-0.012-5.693c-0.041-0.28-0.16-0.549-0.324-0.78c-0.327-0.462-0.574-0.789-0.941-1.343c-0.893-1.348-0.791-3.157-0.784-4.713c0.007-1.487-0.202-3.029-0.286-4.524c-0.178-3.156-0.309-6.317-0.275-9.479c0.021-1.932-0.363-3.847-1.8-5.227c-1.535-1.474-4.497-1.662-6.502-1.399c-2.168,0.284-4.92,1.19-6.073,3.218c-1.206,2.122-1.264,4.645-1.653,6.995c-0.322,1.941-0.411,3.884-1.029,5.784c-0.785,2.413-1.326,4.901-1.698,7.411c-0.288,1.94-0.878,3.594-0.512,5.584c-0.75,0.983-1.268,2.141-1.514,3.353c-0.178,0.875,0.587,1.539,1.152,2.231C-22.874,2.233-23.045,3.339-23.196,4.354z" fill="#CFE401"></path><path style="" d="M-16.25-6.792C-17-7-17.599-7.504-18.133-8.139c-0.372-0.442-0.752-0.958-0.89-1.545c-0.167-0.708,0.109-1.359,0.352-2.014c0.566-1.523,1.416-2.909,1.932-4.456c0.788-2.359,1.196-4.79,1.564-7.242c0.182-1.216,0.203-2.421,0.383-3.644c0.099-0.668,0.076-1.303,0.142-1.959c0.117-1.167,0.275-2.272,0.671-3.353c-1.247,0.52-2.379,1.289-3.017,2.411c-1.206,2.122-1.263,4.645-1.653,6.995c-0.322,1.941-0.411,3.884-1.029,5.784c-0.785,2.413-1.326,4.901-1.698,7.411c-0.288,1.94-0.878,3.594-0.512,5.584c-0.75,0.983-1.268,2.141-1.514,3.353c-0.178,0.875,0.587,1.539,1.152,2.231c-0.623,0.816-0.795,1.921-0.945,2.937c0.406,0.57,0.901,1.075,1.457,1.501c1.477,1.134,3.363,1.667,5.216,1.59c1.811-0.075,3.461-0.936,4.91-1.967c0.057-0.04,0.113-0.082,0.169-0.123c-1.406,0.48-2.911,0.666-4.388,0.5c-1.774-0.2-3.457-0.864-4.886-1.935c0.323-0.477,1.088-1.14,1.662-1.17c0.671-0.035,1.039-0.055,1.692-0.21c1.035-0.246,1.839-0.842,2.481-1.678c1.117-1.453,2.534-2.578,4.11-3.5c-0.674-0.139-1.291,0.107-1.897,0.367c-0.713,0.306-1.388,0.735-2.071,1.103c-1.204,0.649-2.763,1.706-4.186,1.596c-0.145-0.011-0.889-0.176-0.852-0.392c0.141-0.815,0.463-1.611,0.771-2.375c0.101-0.251,0.339-0.591,0.264-0.872c-0.238-0.889,0.436-1.464,1.147-1.801c1.209-0.572,2.428-1.14,3.655-1.671L-16.25-6.792z" fill="#A8BF00"></path><path style="" d="M-5.508,0.876C-6.282,0.96-7.144,1.603-7.721,2.082C-8.283,2.55-8.767,3.11-9.174,3.718c0.789-0.528,1.609-0.994,2.508-1.295c1.293-0.433,2.695-0.627,4.002-0.269C-2,2.166-1.339,2.224-0.687,2.379C-2.037,1.419-3.836,0.694-5.508,0.876z" fill="#A8BF00"></path><path style="" d="M-4.025-4.426c1.4,0.429,2.323,1.608,2.956,2.871c0.721-0.789,1.057-1.71,1.12-2.722C-0.026-4.16-0.11-4.049-0.212-3.958C-1.229-3.052-1.918-4.27-2.535-4.942c-0.197-0.214-0.742-0.896-1.071-0.872c-2.582,0.186-4.254,1.537-6.727,2.981C-8.146-3.52-5.306-4.611-4.025-4.426z" fill="#A8BF00"></path><path style="" d="M-4.108-9.421c0.67,0.912,1.905,1.349,2.937,1.76c-0.035-0.052-0.067-0.098-0.105-0.155c-0.893-1.348-0.791-3.157-0.784-4.713c0.006-1.411-0.179-2.87-0.27-4.293c-0.353,0.979-0.706,1.958-1.06,2.937c-0.286,0.793-0.708,1.537-0.919,2.358C-4.486-10.835-4.551-10.024-4.108-9.421z" fill="#A8BF00"></path><g><path style="" d="M-2.281-16.137c-0.987-0.498-2.015,0.13-2.562,1.011c-0.058,0.013-0.128,0.051-0.161,0.062c-0.05,0.017-0.103,0.024-0.154,0.038l0.015,0.163c0.063-0.013,0.128-0.027,0.189-0.047c-0.092,0.179-0.164,0.363-0.212,0.55c-0.12-0.154-0.251-0.297-0.392-0.432c0.072-0.009,0.142-0.023,0.194-0.031c0.044-0.007,0.129-0.021,0.221-0.04l-0.015-0.163c-0.073,0.019-0.144,0.042-0.219,0.054c-0.106,0.017-0.249-0.004-0.35,0.027c-0.118-0.1-0.241-0.193-0.369-0.28c0.012-0.103-0.038-0.244-0.057-0.344c-0.007-0.036-0.015-0.071-0.022-0.107c0.474-0.014,0.963-0.031,1.429-0.166c0.207-0.06,0.901-0.293,1.154-0.778c0.191-0.367,0.428-0.823,0.517-1.272c0.085-0.438-0.128-0.925-0.533-1.221c-0.081-0.688-0.502-1.392-1.107-1.844c-0.217-0.163-0.46-0.29-0.716-0.38c-0.13-0.045-0.263-0.081-0.398-0.106c-0.036-0.007-0.224-0.046-0.321-0.047c-0.074-0.036-0.159-0.065-0.254-0.084c-0.861-0.143-1.695,0.383-2.237,1.01c-0.126,0.141-0.208,0.3-0.277,0.464c-0.004-0.184-0.022-0.368-0.072-0.546c0.646-0.324,1.203-0.946,1.477-1.65c0.649,0.248,1.592,0.383,2.334,0.152c0.079,0.171,0.183,0.33,0.298,0.483c0,0.001,0,0.001,0.001,0.002l0.001,0.001c0.304,0.402,0.7,0.745,1.04,1.037c0.37,0.317,0.823,0.686,1.355,0.841c-0.002-0.052-0.004-0.104-0.006-0.157c-0.482-0.156-0.904-0.501-1.251-0.798c-0.369-0.316-0.804-0.694-1.105-1.138c-0.083-0.265,0.035-0.564,0.291-0.753c-0.27,0.029-0.413,0.247-0.441,0.489c-0.022-0.043-0.053-0.083-0.072-0.127l-0.027-0.064l-0.066,0.023c-0.744,0.256-1.724,0.106-2.366-0.156l-0.072-0.03l-0.027,0.074c-0.257,0.718-0.827,1.356-1.484,1.666l-0.06,0.028l0.02,0.063c0.078,0.248,0.105,0.512,0.084,0.772c-0.01,0.13-0.033,0.259-0.067,0.385c-0.011,0.042-0.059,0.142-0.068,0.221c-0.004,0.011-0.008,0.021-0.012,0.032l0.134,0.035c0.004-0.013,0.01-0.025,0.014-0.038c0.047-0.073,0.079-0.186,0.102-0.304c0.099-0.331,0.195-0.656,0.429-0.915c0.507-0.589,1.3-1.093,2.1-0.962c0.655,0.133,0.72,0.728,0.075,0.962c0,0-0.76,0.329-0.76,0.329c-1.963,0.663-0.984,3.152,0.499,3.742c0.036,0.082,0.097,0.18,0.109,0.207c0.015,0.031,0.024,0.065,0.038,0.097l0.158-0.016c-0.009-0.022-0.015-0.046-0.024-0.068c-0.024-0.055-0.05-0.108-0.077-0.161c0.288,0.078,0.588,0.091,0.888-0.004c0.846-0.386,0.934-1.439,0.951-2.236c-0.007-0.357-0.025-1.165-0.573-1.036c-0.664,0.296-1.166,0.732-1.792,1.093c-0.228,0.19-0.387,0.457-0.401,0.772c0,0.386,0.469,0.39,0.74,0.379c0.503-0.049,1.402,0.082,1.452-0.646c-0.035-0.316-0.251-0.57-0.553-0.653c-0.373-0.021-0.468,0.379-0.47,0.626c0.106-0.788,0.785-0.602,0.884,0.032c-0.062,0.565-0.886,0.445-1.315,0.491c-0.259,0.004-0.601,0.012-0.59-0.234c0.09-0.827,1.18-1.058,1.729-1.544c0.225-0.137,0.516-0.307,0.609-0.059c0.367,1.063,0.065,3.321-1.493,2.907c-0.989-0.314-1.794-1.412-1.746-2.449c0.122-0.844,1.114-1.145,1.797-1.443c0.539-0.197,0.652-0.652,0.39-0.957c0.007,0.001,0.014,0.002,0.021,0.003c0.13,0.023,0.259,0.056,0.384,0.098c0.25,0.084,0.487,0.207,0.698,0.366c0.582,0.436,0.985,1.115,1.051,1.773l0.003,0.035l0.028,0.02c0.375,0.26,0.576,0.698,0.5,1.089c-0.084,0.428-0.316,0.874-0.502,1.232c-0.225,0.433-0.871,0.648-1.063,0.703c-0.458,0.133-0.949,0.147-1.423,0.161c-0.03-0.099-0.066-0.196-0.105-0.291L-6.474-16.1c0.041,0.096,0.082,0.192,0.113,0.292c0.044,0.14,0.077,0.284,0.099,0.429c0.002,0.016,0.009,0.032,0.011,0.049c-0.779-0.48-1.71-0.71-2.616-0.616c-0.06-0.575-0.44-1.031-0.615-1.524c-0.191-0.495,0.143-1.04,0.321-1.535c0.032-0.069,0.056-0.141,0.08-0.213l-0.134-0.035c-0.023,0.066-0.044,0.132-0.073,0.195c-0.193,0.522-0.528,1.086-0.323,1.635c0.201,0.548,0.593,0.994,0.622,1.552l0.007,0.072l0.069-0.008c1.398-0.175,2.898,0.489,3.717,1.624c0.137,0.209,0.084,0.157,0.125-0.028c0.223-1.156,1.529-2.438,2.751-1.794l0.042-0.093C-2.279-16.112-2.28-16.124-2.281-16.137z" fill="#647C00" fill-opacity="0.59"></path><path style="" d="M-2.107-13.892c-0.006-0.101-0.014-0.202-0.021-0.303c-1.021,2.453-4.663,3.294-6.574,1.396c-0.36-0.397-0.842-0.714-1.305-0.969c-1.016-0.582-1.08-2.1,0.324-2.096c-0.557-0.238-1.213,0.237-1.23,0.826c-0.013,0.229,0.032,0.43,0.114,0.61c-0.054-0.04-0.106-0.078-0.143-0.114c-0.138-0.132-0.256-0.284-0.355-0.447c-0.212-0.349-0.34-0.746-0.413-1.146c-0.147-0.807-0.098-1.685,0.167-2.463c0.012-0.034,0.027-0.068,0.037-0.103c0.19-0.641,0.546-1.193,0.86-1.789c-0.512,0.457-0.786,1.109-1.008,1.741c-0.261,0.747-0.353,1.539-0.265,2.327c0.084,0.753,0.341,1.56,0.936,2.067c0.098,0.084,0.259,0.225,0.397,0.256c0.06,0.072,0.124,0.141,0.195,0.205c-0.038,0.013-0.073,0.027-0.092,0.032c-0.106,0.032-0.216,0.052-0.327,0.059c-0.214,0.015-0.429-0.016-0.632-0.085c-0.307-0.104-0.563-0.315-0.775-0.558c-0.141-0.161-0.242-0.345-0.399-0.575c0.064,0.354,0.233,0.651,0.478,0.907c0.276,0.288,0.671,0.447,1.065,0.478c0.2,0.016,0.403,0,0.597-0.054c0.052-0.014,0.166-0.038,0.225-0.087c0.267,0.214,0.573,0.392,0.848,0.556C-7.466-10.826-3.479-11.147-2.107-13.892z" fill="#647C00" fill-opacity="0.59"></path><path style="" d="M-2.586-22.745c-1.011-0.869-2.387-1.274-3.651-1.009c0.14-0.104,0.286-0.199,0.443-0.274c0.352-0.169,0.74-0.262,1.131-0.266c0.801,0,1.558,0.348,2.063,0.934c-0.001-0.07-0.003-0.14-0.005-0.209c-0.529-0.545-1.268-0.874-2.03-0.874c-0.01,0-0.02,0-0.03,0c-0.403,0-0.809,0.101-1.173,0.272c-0.185,0.087-0.361,0.194-0.524,0.318c-0.054,0.041-0.174,0.114-0.202,0.185c-0.425,0.132-0.834,0.333-1.202,0.636c-0.99-0.396-2.629,0.421-3.35,1.397c-0.8,0.881-1.3,2.65-1.005,3.546c-0.705,0.531-1.21,1.622-0.841,2.466c-0.014-0.879,0.201-1.773,0.928-2.343l0.005-0.004l0.034-0.029c0,0-0.006-0.041-0.006-0.041c-0.382-2.228,1.421-5.005,3.778-4.912c-0.909,0.23-1.767,0.998-1.831,1.945c0.405-0.952,1.265-1.77,2.34-1.881l-0.001-0.001c0.002,0,0.004,0,0.007,0.001c0.792-0.569,1.777-0.977,2.75-0.8c0.875,0.157,1.711,0.572,2.376,1.165C-2.583-22.599-2.584-22.672-2.586-22.745z" fill="#647C00" fill-opacity="0.59"></path><path style="" d="M-2.575-22.293c-0.002-0.055-0.002-0.109-0.004-0.164c-0.433-0.389-1.003-0.49-1.649-0.281C-3.574-22.787-3.067-22.7-2.575-22.293z" fill="#647C00" fill-opacity="0.59"></path><path style="" d="M-18.638-7.138c0.582-0.12,0.967-0.535,1.501-0.647c-0.547-0.043-1.013,0.398-1.532,0.456c-0.585,0.108-0.851-0.411-1.273-0.717C-19.833-7.487-19.212-7.025-18.638-7.138z" fill="#647C00" fill-opacity="0.59"></path><path style="" d="M-16.35,0.908c-0.084,0.252-0.2,0.487-0.347,0.672c-0.254,0.32-0.467,0.46-0.633,0.412c-0.082-0.023-0.138-0.064-0.169-0.125c-0.057-0.108-0.044-0.284,0.039-0.522c0.073-0.209,0.122-0.424,0.156-0.642l-0.148-0.032c-0.032,0.213-0.079,0.422-0.15,0.625c-0.086,0.246-0.092,0.428-0.044,0.572c-0.015-0.028-0.031-0.056-0.031-0.056c-0.933,0.507-2.096-0.324-2.035-1.36c0.036-0.603,0.289-1.107,0.794-1.461c0.237-0.166,0.513-0.283,0.801-0.317c0.235-0.028,0.483,0.051,0.522,0.317c0.045,0.312-0.164,0.602-0.282,0.874c0,0-0.043,0.099-0.064,0.148l0.126,0.186c0.106-0.253,0.211-0.507,0.319-0.738c0.004,0.025,0.007,0.051,0.011,0.075c0.037,0.192,0.074,0.391,0.075,0.594c0.001,0.183-0.016,0.363-0.042,0.541l0.148,0.032c0.029-0.189,0.046-0.381,0.045-0.575c-0.001-0.217-0.041-0.422-0.078-0.621c-0.046-0.246-0.249-0.832,0.183-0.832c0.043,0,0.086,0.006,0.125,0.017c0.229,0.06,0.397,0.223,0.498,0.349C-16.151-0.484-16.139,0.275-16.35,0.908l0.155,0.009c0.213-0.666,0.195-1.452-0.22-1.97c-0.115-0.144-0.309-0.33-0.577-0.4c-0.149-0.038-0.353-0.024-0.473,0.114c-0.069-0.079-0.152-0.145-0.259-0.166c-1.798-0.268-3.034,2.306-1.451,3.366c0.456,0.297,1.07,0.35,1.557,0.087c0.053,0.09,0.132,0.157,0.248,0.189c0.035,0.01,0.07,0.015,0.106,0.015c0.205,0,0.43-0.157,0.684-0.477c0.165-0.208,0.294-0.473,0.385-0.757L-16.35,0.908z" fill="#647C00" fill-opacity="0.59"></path><path style="" d="M-18.439,1.102c-0.033,0-0.068,0-0.092,0.002c-0.3-0.205-0.894-0.628-0.594-1.083c0.086-0.167,0.406-0.226,0.563-0.141c-0.044,0.187-0.18,0.366-0.331,0.482c0.016-0.012,0.12,0.001,0.147-0.005c0.052-0.012,0.104-0.034,0.147-0.065c0.083-0.059,0.122-0.162,0.171-0.251c0.029-0.056,0.085-0.174-0.007-0.281c-0.308-0.169-0.633-0.096-0.837,0.163c-0.352,0.604,0.225,1.093,0.722,1.359c0.096-0.004,0.123,0.009,0.199-0.022c0.197-0.279,0.367-0.668,0.533-1.063l-0.126-0.186c-0.081,0.186-0.248,0.571-0.248,0.571C-18.244,0.696-18.372,0.997-18.439,1.102z" fill="#647C00" fill-opacity="0.59"></path><path style="" d="M-20.12-10.506c-0.021,0.093-0.041,0.204-0.02,0.318c0.004,0.022,0.006,0.047,0.007,0.073c0.003,0.049,0.008,0.109,0.031,0.161c-0.39,0.208-0.676,0.421-0.897,0.663c-0.273,0.301-0.433,0.652-0.471,1.001l0.169-0.023c0.042-0.304,0.172-0.611,0.413-0.877c0.224-0.246,0.522-0.46,0.939-0.675l0.135-0.07L-19.95-10c-0.024-0.012-0.029-0.072-0.032-0.125c-0.002-0.031-0.004-0.062-0.01-0.09c-0.016-0.086,0-0.178,0.019-0.256c0.044-0.189,0.125-0.363,0.229-0.524l-0.133-0.058C-19.984-10.885-20.073-10.706-20.12-10.506z" fill="#647C00" fill-opacity="0.59"></path><path style="" d="M-9.166-8.918C-8.859-9.16-8.611-9.491-8.4-9.856c1.179-0.221,2.265-0.909,2.97-1.88l-0.198,0.01c-0.652,0.848-1.612,1.435-2.655,1.668c0.029-0.059,0.07-0.107,0.097-0.168c0.061-0.14,0.102-0.3,0.149-0.453c0.45-0.313,0.849-0.686,1.196-1.109l-0.149-0.057c-0.284,0.34-0.609,0.639-0.962,0.906c0.067-0.274,0.116-0.564,0.142-0.872c0.007-0.081,0.012-0.168,0.015-0.259l-0.151-0.108c0,0.125-0.005,0.246-0.014,0.355c-0.048,0.576-0.171,1.093-0.365,1.539c-0.221,0.509-0.544,0.941-0.935,1.25c-0.02,0.016-0.036,0.022-0.055,0.035c0.097-0.305,0.146-0.628,0.129-0.961c-0.02-0.392-0.122-0.78-0.295-1.132c-0.066-0.135-0.158-0.327-0.271-0.448c0.032-0.141,0.021-0.297,0.01-0.444l-0.002-0.034c-0.021-0.258-0.041-0.525,0.012-0.776c0.023-0.106,0.084-0.322,0.209-0.509l-0.125-0.09c-0.112,0.166-0.188,0.367-0.231,0.568c-0.032,0.151-0.038,0.304-0.035,0.456c-0.17-0.276-0.493-0.376-0.836-0.307c-0.041-0.377-0.163-0.745-0.373-1.061l-0.171,0.015c0.229,0.317,0.36,0.698,0.396,1.088c-0.131,0.045-0.26,0.114-0.382,0.207c-0.019-0.26-0.152-0.495-0.371-0.715c-0.26-0.259-0.63-0.419-1.043-0.448c-0.347-0.025-0.718,0.038-1.115,0.187c-0.828,0.311-1.361,0.991-1.756,1.773c0.015-0.141,0.031-0.281,0.067-0.418l0.008-0.055c0.153-0.598,0.473-1.152,0.924-1.576c0.439-0.414,0.993-0.688,1.694-0.841c0.163-0.035,0.323-0.024,0.479,0.011l-0.102-0.164c-0.134-0.017-0.271-0.024-0.41,0.006c-0.728,0.159-1.306,0.446-1.765,0.878c-0.086,0.08-0.16,0.172-0.24,0.258c0.03-0.091,0.06-0.177,0.066-0.192c0.182-0.463,0.458-0.888,0.801-1.249c0.172-0.18,0.36-0.345,0.563-0.49c0.101-0.072,0.206-0.14,0.313-0.202c0.051-0.029,0.269-0.118,0.142-0.204c-0.043-0.029-0.089,0.005-0.127,0.024c-0.097,0.049-0.191,0.109-0.281,0.168c-0.83,0.545-1.463,1.403-1.7,2.394c-0.063,0.082-0.112,0.176-0.168,0.264c-0.031-0.003-0.067-0.001-0.099-0.003c0.017-0.102-0.009-0.234-0.011-0.336c-0.004-0.232-0.004-0.463,0.002-0.695c0.011-0.463,0.042-0.926,0.092-1.391c0.084-0.123,0.177-0.304,0.205-0.346c0.114-0.175,0.235-0.345,0.364-0.51c0.255-0.325,0.538-0.628,0.845-0.905c0.15-0.136,0.31-0.263,0.484-0.368c0.05-0.03,0.186-0.078,0.28-0.133c0.052,0.435,0.103,0.877,0.08,1.286l0.095-0.035c0.032-0.581-0.027-1.187-0.084-1.773c-0.031-0.324-0.063-0.658-0.08-0.978c-0.046-0.94,0.009-1.849,0.063-2.728l0.006-0.091l-0.091,0.012c-0.637,0.086-1.117,0.385-1.641,0.807l-0.047,0.038c-0.295,0.236-0.709,0.569-0.847,0.963c-0.045-0.042-0.108-0.07-0.174-0.062c-0.066,0.008-0.116,0.047-0.158,0.083c-0.239,0.208-0.5,0.464-0.65,0.813c-0.077-0.043-0.178-0.05-0.268-0.011c-0.103,0.046-0.185,0.147-0.224,0.278c-0.029,0.097-0.034,0.195-0.038,0.29l-0.001,0.029c-0.015,0.294-0.055,0.579-0.125,0.837l0.124,0.105c0.092-0.299,0.136-0.628,0.151-0.935l0.001-0.03c0.004-0.09,0.008-0.174,0.032-0.253c0.027-0.089,0.079-0.156,0.142-0.185c0.057-0.023,0.142-0.012,0.171,0.042l0.081,0.146l0.055-0.157c0.129-0.37,0.4-0.64,0.648-0.854c0.026-0.022,0.054-0.045,0.078-0.048c0.032,0,0.064,0.024,0.081,0.058c0.047,0.093,0.109,0.178,0.144,0.277c-0.024-0.069,0.047-0.298,0.074-0.374c0.043-0.125,0.117-0.237,0.199-0.339c0.171-0.212,0.387-0.385,0.599-0.555l0.047-0.038c0.423-0.341,0.82-0.591,1.291-0.713c-0.011,0.01-0.019,0.012-0.031,0.023c-0.086,0.082-0.157,0.178-0.219,0.28c-0.126,0.207-0.211,0.434-0.314,0.653c-0.206,0.44-0.392,0.89-0.558,1.346c-0.137,0.375-0.242,0.76-0.352,1.144l0.156-0.004c0.045-0.157,0.076-0.317,0.126-0.473c0.177-0.55,0.382-1.091,0.615-1.62c0.116-0.263,0.239-0.524,0.369-0.781c0.111-0.22,0.223-0.413,0.392-0.584c-0.051,0.844-0.1,1.715-0.055,2.619c0.016,0.323,0.048,0.659,0.08,0.984c0.011,0.114,0.026,0.236,0.04,0.353c-0.135,0.022-0.351,0.162-0.404,0.196c-0.158,0.103-0.303,0.223-0.443,0.349c-0.296,0.267-0.571,0.558-0.82,0.87c-0.146,0.183-0.296,0.385-0.428,0.595c0.112-0.849,0.294-1.686,0.529-2.509l-0.156,0.004c-0.21,0.732-0.39,1.474-0.502,2.227c-0.03,0.203-0.036,0.409-0.057,0.613c-0.004,0.01-0.012,0.019-0.016,0.029c-0.011,0.028-0.022,0.057-0.023,0.087c0,0.017,0.015,0.027,0.024,0.042c-0.02,0.205-0.045,0.409-0.058,0.615c-0.141-0.202-0.38-0.37-0.537-0.55c-0.163-0.186-0.306-0.388-0.453-0.588l-0.062,0.187c0.013,0.017,0.023,0.036,0.035,0.052c0.125,0.164,0.273,0.314,0.411,0.466c0.062,0.068,0.425,0.499,0.588,0.603c-0.003,0.054-0.013,0.108-0.015,0.162c-0.003,0.06-0.002,0.121-0.004,0.182c-0.038-0.026-0.079-0.05-0.105-0.072c-0.141-0.116-0.276-0.241-0.405-0.371c-0.222-0.225-0.413-0.478-0.601-0.732l-0.055,0.167c0.179,0.236,0.356,0.475,0.565,0.686c0.133,0.133,0.271,0.26,0.417,0.379c0.049,0.04,0.114,0.101,0.18,0.124c-0.005,0.171-0.012,0.342-0.013,0.513c0,0.143,0.001,0.286,0.004,0.43c0,0.021-0.003,0.051-0.002,0.08c-0.577-0.022-1.226,0.07-1.881,0.299c0.016-0.086-0.06-0.226-0.087-0.292c-0.069-0.166-0.13-0.337-0.18-0.51c-0.102-0.349-0.166-0.71-0.189-1.073c-0.012-0.185-0.002-0.373,0.007-0.554c0.007-0.15,0.015-0.306,0.011-0.461c-0.007-0.249,0.041-0.44,0.295-0.563l0.095-0.045l-0.074-0.075c-0.113-0.114-0.169-0.355-0.164-0.543c0.001,0.002,0.003,0.006,0.004,0.007c0.08,0.152,0.162,0.303,0.246,0.452c0.169,0.299,0.347,0.593,0.543,0.876c0.067,0.096,0.152,0.177,0.223,0.271l0.055-0.167c-0.049-0.066-0.109-0.122-0.155-0.189c-0.271-0.391-0.509-0.804-0.732-1.223c-0.017-0.032-0.07-0.158-0.128-0.241c0.036-0.075,0.084-0.145,0.144-0.209c0.018,0.058,0.044,0.116,0.054,0.139c0.094,0.216,0.234,0.404,0.353,0.605c0.17,0.287,0.358,0.562,0.559,0.828l0.062-0.187c-0.283-0.385-0.546-0.784-0.762-1.21c-0.019-0.038-0.09-0.222-0.168-0.299c0.058-0.064,0.118-0.124,0.16-0.209c0.036-0.073,0.046-0.162,0.071-0.242l-0.124-0.105c-0.026,0.095-0.042,0.2-0.082,0.282c-0.048,0.098-0.121,0.174-0.197,0.255c-0.121,0.127-0.245,0.258-0.273,0.479c-0.025,0.2,0.022,0.481,0.144,0.661c-0.271,0.17-0.305,0.426-0.299,0.657c0.004,0.149-0.003,0.302-0.011,0.45c-0.007,0.136-0.006,0.277-0.005,0.417c-0.028-0.026-0.056-0.05-0.071-0.063c-0.109-0.101-0.221-0.198-0.338-0.29c-0.232-0.185-0.479-0.353-0.736-0.502c-0.268-0.155-0.549-0.286-0.838-0.397c-0.015,0.051-0.031,0.101-0.045,0.152c0.094,0.031,0.167,0.055,0.187,0.063c0.299,0.127,0.586,0.281,0.859,0.457c0.275,0.177,0.535,0.376,0.776,0.597c0.029,0.026,0.126,0.136,0.207,0.159c0.035,0.516,0.148,1.028,0.337,1.51c0.017,0.044,0.095,0.275,0.172,0.361c-0.115,0.042-0.226,0.102-0.339,0.152c0.097-0.195-0.198-0.585-0.286-0.723c-0.171-0.267-0.37-0.517-0.596-0.739c-0.113-0.111-0.232-0.215-0.357-0.311c-0.104-0.08-0.275-0.152-0.358-0.243c0.309,0.339,0.601,0.694,0.868,1.067c0.131,0.184,0.257,0.372,0.374,0.566c0.044,0.073,0.142,0.358,0.244,0.434c-0.131,0.061-0.265,0.11-0.393,0.182c-0.246,0.138-0.506,0.297-0.752,0.48c-0.038-0.052-0.083-0.102-0.101-0.124c-0.114-0.141-0.223-0.286-0.326-0.436c-0.405-0.59-0.714-1.245-0.921-1.93c-0.011,0.046-0.023,0.091-0.034,0.137c-0.012,0.047-0.024,0.094-0.035,0.142c0.238,0.7,0.583,1.365,1.024,1.957c0.057,0.077,0.156,0.265,0.263,0.356c-0.244,0.197-0.457,0.425-0.62,0.682l0.133,0.058c0.334-0.517,0.923-0.901,1.441-1.191c0.976-0.546,2.057-0.757,2.912-0.688c-0.112,0.202-0.2,0.424-0.261,0.669c-0.568-0.032-1.179,0.148-1.745,0.535c-0.345,0.236-0.886,0.679-1.097,1.224l0.136,0.06c0.194-0.509,0.715-0.933,1.045-1.159c0.527-0.361,1.092-0.532,1.617-0.511c-0.041,0.211-0.054,0.444-0.049,0.693c-0.445-0.197-0.919-0.1-1.363,0.301c-0.268,0.241-0.488,0.583-0.636,0.947l0.142,0.062c0.132-0.332,0.326-0.655,0.595-0.897c0.262-0.235,0.79-0.577,1.372-0.215l0.004-0.01l0.007,0.003c0.393-0.914,0.939-1.742,1.869-2.092c0.377-0.142,0.733-0.2,1.051-0.178c0.377,0.027,0.714,0.171,0.948,0.405c0.204,0.204,0.315,0.481,0.318,0.748c-0.152,0.153-0.284,0.345-0.376,0.583c-0.243,0.511-0.427,1.015-0.778,1.425c-0.316,0.421-0.73,0.687-1.159,0.945c-0.317,0.105-0.7,0.111-0.974,0.021c-0.485-0.174-0.811-0.631-0.994-1.113c0.35-0.594,1.32-1.279,2.269-1.029c0.105,0.02,0.212,0.074,0.196,0.117c-0.391,0.663-1.366,0.834-2.091,0.659c0.649,0.285,1.497,0.204,2.021-0.318c0.283-0.227,0.306-0.539-0.095-0.605c-0.966-0.21-2.031,0.299-2.452,1.198c0.189,0.515,0.54,1.031,1.094,1.231c0.209,0.057,0.436,0.075,0.66,0.063c-0.15,0.092-0.301,0.185-0.447,0.29c-0.03,0.026-0.049,0.053-0.07,0.081c-0.714-0.292-2.379-0.571-1.986-1.587c0.135-0.281,0.416-0.454,0.729-0.61c-0.353-0.028-0.736,0.178-0.897,0.531c-0.458,1.194,1.212,1.542,2.081,1.805c-0.037,0.137,0.009,0.276,0.11,0.373c-0.151,0.202-0.354,0.366-0.595,0.44c-0.386,0.118-0.938,0.018-1.638-0.298c-0.248-0.112-0.688-0.35-0.85-0.685c-0.006-0.012-0.003-0.03-0.009-0.043l-0.155,0.022c0.011,0.029,0.016,0.06,0.029,0.087c0.183,0.378,0.657,0.636,0.923,0.756c0.529,0.239,0.981,0.359,1.351,0.359c0.144,0,0.274-0.018,0.393-0.054c0.274-0.085,0.504-0.272,0.675-0.502c0.073,0.034,0.157,0.054,0.25,0.047c1.638-0.009,3.531-0.955,3.946-2.643c-0.847,1.401-2.257,2.449-3.939,2.417c-0.265,0.003-0.378-0.167-0.19-0.336c0.648-0.447,1.484-0.801,1.986-1.478c0.373-0.436,0.576-0.986,0.804-1.467c0.47-1.242,2.109-1.399,1.495,0.591c0,0,0.219-0.263,0.219-0.263c0.002-0.005,0.002-0.01,0.004-0.016c0.031-0.026,0.054-0.055,0.075-0.085c0.009,0.011,0.019,0.024,0.026,0.035c0.094,0.142,0.175,0.292,0.242,0.448c0.128,0.299,0.204,0.62,0.221,0.945C-9.28-8.88-9.897-7.918-10.891-7.39l0.069,0.12c0.112-0.061,0.229-0.117,0.332-0.188C-9.697-7.364-8.75-6.94-8.16-6.383l0.103-0.109c-0.576-0.543-1.477-0.955-2.268-1.085c0.194-0.152,0.371-0.319,0.52-0.506c0.841,0.131,1.546,0.419,2.128,0.9c0.252,0.209,0.522,0.527,0.809,0.919l0.146-0.055c-0.305-0.419-0.591-0.756-0.859-0.979c-0.587-0.485-1.294-0.781-2.13-0.922C-9.586-8.395-9.482-8.581-9.4-8.778C-9.31-8.822-9.227-8.87-9.166-8.918z" fill="#647C00" fill-opacity="0.59"></path><path style="" d="M-17.601-10.055l-0.142-0.062c-0.09,0.221-0.159,0.448-0.179,0.672c-0.097,0.013-0.189-0.004-0.27-0.069c-0.168-0.136-0.256-0.404-0.241-0.574c0.009-0.103,0.038-0.202,0.075-0.299l-0.136-0.06c-0.043,0.112-0.078,0.226-0.088,0.345c-0.019,0.214,0.087,0.536,0.296,0.705c0.096,0.077,0.203,0.116,0.316,0.116c0.012,0,0.024-0.005,0.036-0.006c0,0.174,0.034,0.338,0.093,0.491l0.155-0.022C-17.83-9.154-17.776-9.614-17.601-10.055z" fill="#647C00" fill-opacity="0.59"></path><path style="" d="M-21.455-3.86c0.002-0.01,0.003-0.023,0.006-0.032c0.035-0.122,0.078-0.243,0.127-0.361c0.098-0.234,0.224-0.457,0.376-0.661c0.03-0.041,0.073-0.07,0.105-0.109l-0.143-0.068c-0.025,0.031-0.059,0.055-0.083,0.087c-0.189,0.254-0.34,0.537-0.449,0.834c-0.055,0.149-0.099,0.302-0.133,0.457c-0.008,0.037-0.021,0.091-0.016,0.138c-0.075,0.117-0.135,0.245-0.2,0.369l0.161,0.008c0.341-0.637,0.84-1.166,1.443-1.55l-0.144-0.068C-20.802-4.551-21.164-4.238-21.455-3.86z" fill="#647C00" fill-opacity="0.59"></path><path style="" d="M-16.94,5.436c-0.139,0.012-0.277,0.031-0.414,0.049c-0.345,0.046-0.671,0.091-1.014,0.032c-0.426-0.074-0.768-0.304-0.916-0.615c-0.008-0.016-0.006-0.032-0.013-0.048l-0.145,0.017c0.011,0.032,0.007,0.063,0.022,0.095c0.082,0.171,0.215,0.319,0.383,0.437c-0.084,0.006-0.169,0.02-0.233,0.018c-0.185-0.005-0.37-0.027-0.552-0.064c-0.367-0.075-0.722-0.212-1.044-0.403c-0.944-0.557-1.631-1.685-1.951-2.381c-0.021,0.065-0.049,0.125-0.068,0.191c0.324,0.706,0.964,1.742,1.942,2.319c0.546,0.323,1.164,0.489,1.76,0.489c0.097,0,0.228,0.014,0.321-0.013c0.017-0.005,0.038-0.015,0.057-0.027c0.127,0.058,0.261,0.106,0.409,0.132c0.125,0.022,0.25,0.031,0.373,0.031c0.233,0,0.463-0.031,0.687-0.062c0.135-0.018,0.27-0.037,0.407-0.048c0.172-0.015,0.35-0.012,0.531-0.003l0.001-0.151C-16.579,5.423-16.763,5.42-16.94,5.436z" fill="#647C00" fill-opacity="0.59"></path><path style="" d="M-21.635-1.96l-0.074,0.02l0.021,0.074c0.143,0.501,0.122,1.068-0.058,1.556c-0.177,0.481-0.508,0.902-0.931,1.192c-0.01,0.001-0.02,0.003-0.029,0.003c0,0,0,0.001,0.001,0.001c0.041,0.048,0.082,0.095,0.123,0.142c0.739-0.006,1.375,0.62,1.779,1.202c0,0,0.294,0.43,0.294,0.43c-0.287-0.747-0.398-1.517-0.492-2.31c-0.17,0.447-0.132,0.941,0.009,1.398c-0.384-0.44-0.878-0.812-1.444-0.865c0.372-0.299,0.667-0.694,0.832-1.142c0.182-0.493,0.21-1.063,0.081-1.576c0.005,0.019,0.359-0.133,0.572-0.229l-0.071-0.128C-21.22-2.097-21.424-2.015-21.635-1.96z" fill="#647C00" fill-opacity="0.59"></path><path style="" d="M-2.968-2.661c-0.539-0.592-1.43-0.79-2.101-0.477c-0.306-0.52-0.742-0.932-1.33-1.259C-6.996-4.73-7.656-4.939-8.227-5.109c-0.538-0.16-1.14-0.208-1.791-0.144c-0.373,0.037-0.831,0.139-1.123,0.594c-0.542-0.32-1.229-0.336-1.823-0.109c-0.429-0.076-0.849-0.121-1.251-0.1c-0.151,0.008-0.291,0.026-0.432,0.043c-0.274-0.315-0.593-0.585-0.929-0.832l-0.238,0.008c0.354,0.247,0.688,0.524,0.979,0.845c-0.356,0.056-0.675,0.145-0.958,0.263l0.021-0.013c-0.062-0.064-0.124-0.127-0.183-0.193c-0.222-0.235-0.441-0.472-0.688-0.688c0.223,0.327,0.424,0.671,0.659,0.986c-0.093,0.047-0.189,0.091-0.272,0.145c-0.196,0.128-0.361,0.292-0.487,0.478c-0.24-0.273-0.413-0.599-0.544-0.941l-0.133,0.073c0.138,0.371,0.333,0.718,0.599,1.01c-0.005,0.01-0.011,0.02-0.016,0.03c-0.556,0.306-1.173,0.364-1.635,0.325c-0.224-0.019-0.445-0.058-0.659-0.116l-0.063-0.017c-0.204-0.053-0.274-0.08-0.258-0.25c0.022-0.245,0.116-0.488,0.243-0.711l-0.182,0.024c-0.107,0.216-0.19,0.442-0.211,0.673c-0.009,0.099,0.013,0.166,0.046,0.22c-0.037,0.043-0.068,0.108-0.086,0.136c-0.064,0.1-0.135,0.196-0.211,0.287c-0.156,0.185-0.334,0.351-0.526,0.498c-0.2,0.152-0.418,0.282-0.646,0.392l0.071,0.128c0.078-0.035,0.139-0.063,0.154-0.071c0.247-0.134,0.481-0.295,0.693-0.479c0.211-0.184,0.402-0.392,0.557-0.624c0.019-0.029,0.068-0.096,0.096-0.161c0.067,0.039,0.144,0.064,0.221,0.084l0.062,0.016c0.223,0.061,0.453,0.102,0.686,0.121c0.103,0.009,0.214,0.014,0.33,0.014c0.396,0,0.821-0.107,1.242-0.324c-0.03,0.079-0.058,0.159-0.074,0.242c-0.034,0.178-0.03,0.358,0.003,0.533c-0.557-0.322-1.222-0.434-1.849-0.29c-0.655,0.149-1.36,0.626-1.714,1.372c-0.433,0.52-0.72,1.271-0.462,1.649c0.086-0.779,0.352-1.565,1.088-1.95c0.152-0.098,0.38-0.093,0.491,0.001l0.106-0.096c-0.224-0.22-0.516-0.184-0.803,0.009c0.338-0.412,0.811-0.722,1.328-0.84c0.623-0.143,1.312-0.02,1.847,0.328l0.013-0.02c0.046,0.149,0.11,0.294,0.204,0.427c0.038,0.054,0.087,0.095,0.13,0.143l-0.035-0.034c-0.492-0.122-0.974-0.143-1.446-0.081l0.034,0.173c0.529-0.071,1.072-0.063,1.548,0.052c0.305,0.283,0.697,0.461,1.082,0.63c0.253,0.11,0.474,0.211,0.693,0.347c-0.1,0.051-0.204,0.097-0.282,0.175c-0.122,0.121-0.184,0.262-0.183,0.42c0.001,0.266,0.191,0.418,0.407,0.527c-0.553,1-1.567,1.679-2.626,2.059l0.041,0.173c1.116-0.39,2.103-1.144,2.72-2.167c0.064,0.026,0.127,0.051,0.187,0.072c-0.035,0.066-0.055,0.156-0.076,0.223c-0.051,0.169-0.088,0.343-0.11,0.519c-0.02,0.162-0.025,0.325-0.02,0.488c-0.038,0.04-0.075,0.106-0.102,0.141c-0.092,0.119-0.194,0.23-0.305,0.332c-0.07,0.065-0.144,0.126-0.221,0.183c-0.027,0.02-0.089,0.05-0.128,0.087c-0.189,0.014-0.374,0.062-0.561,0.092l-0.002,0.138c0.408-0.067,0.819-0.098,1.229-0.089l0.016-0.15c-0.131-0.002-0.262,0.001-0.393,0.005c0.081-0.069,0.156-0.15,0.211-0.204c0.101-0.098,0.193-0.204,0.278-0.316c0.012,0.113,0.02,0.226,0.044,0.337c0.014,0.065,0.054,0.14,0.078,0.209c-0.041-0.013-0.079-0.03-0.13-0.032c-0.029-0.002-0.059,0.002-0.088,0.001l-0.016,0.15c0.032,0.001,0.065-0.003,0.097-0.002c0.055,0.002,0.102,0.02,0.155,0.041c0.015,0.005,0.031,0.011,0.046,0.016c0.252,0.577,0.749,1.211,1.164,1.573c-0.217,0.526-0.514,0.901-0.914,1.133c-0.528,0.309-1.159,0.261-1.771,0.215c-0.136-0.01-0.274-0.019-0.411-0.026l-0.001,0.151c0.131,0.006,0.264,0.015,0.401,0.025c0.635,0.046,1.29,0.095,1.858-0.235c0.442-0.257,0.77-0.667,1.001-1.253c0.057-0.016,0.094-0.042,0.148-0.06c-0.255,0.722-0.217,1.539,0.103,2.232c0.044-0.025,0.089-0.047,0.133-0.073c-0.319-0.698-0.333-1.527-0.039-2.238c0.08-0.034,0.147-0.075,0.219-0.113l-0.053-0.11c-0.163,0.091-0.357,0.167-0.586,0.228h0c-0.484-0.426-1.114-1.25-1.247-1.863c-0.075-0.345-0.087-0.703-0.037-1.052c0.025-0.172,0.065-0.343,0.119-0.508c0.012-0.036,0.037-0.091,0.051-0.142c0.017,0.006,0.036,0.013,0.052,0.019c0.01,0.004,0.021,0.008,0.031,0.012c0.495,0.953,1.318,1.742,2.279,2.227l-0.013,0.014c0.022,0.021,0.036,0.049,0.057,0.071c-0.06,0.24-0.149,0.472-0.304,0.665c-0.102,0.127-0.235,0.236-0.401,0.329l0.053,0.11c0.175-0.093,0.332-0.195,0.442-0.326c0.033,0.652,0.19,1.418,0.33,2.064c0.008-0.005,0.016-0.011,0.023-0.016c0.036-0.025,0.074-0.05,0.11-0.075c-0.149-0.684-0.32-1.496-0.348-2.15c0.09-0.144,0.158-0.298,0.207-0.462c0.519,0.595,0.787,1.386,0.754,2.171c0,0,0.001,0,0.001-0.001c0.049-0.036,0.099-0.073,0.148-0.109c0.004-0.003,0.008-0.006,0.011-0.008c0-0.771-0.28-1.539-0.784-2.129c0.643,0.273,1.332,0.414,2.023,0.414c0.48,0,0.961-0.066,1.428-0.201L-8.27,2.895c-1.098,0.316-2.33,0.238-3.38-0.216c-0.983-0.425-1.824-1.2-2.356-2.131c0.082,0.033,0.164,0.067,0.247,0.1c0.422,0.167,0.859,0.338,1.246,0.571c0.188,0.112,0.39,0.211,0.586,0.307c0.239,0.117,0.486,0.237,0.702,0.381c0.036,0.024,0.076,0.053,0.12,0.083c0.206,0.146,0.507,0.36,0.776,0.36c0.123,0,0.239-0.045,0.336-0.162c0.114-0.137,0.158-0.308,0.183-0.442C-9.8,1.699-9.806,1.651-9.8,1.602c0.148,0.187,0.389,0.41,0.446,0.46c0.252,0.221,0.539,0.403,0.848,0.532c0.291,0.122,0.603,0.182,0.918,0.21c0.001,0,0.002-0.001,0.002-0.001c0.09-0.043,0.178-0.089,0.269-0.128l0,0c-0.388-0.002-0.775-0.07-1.131-0.22C-8.75,2.33-9.028,2.151-9.272,1.934c-0.125-0.111-0.24-0.232-0.345-0.362c-0.033-0.04-0.096-0.154-0.166-0.21c0.01-0.34-0.049-0.672-0.174-0.984c0.135,0.101,0.27,0.201,0.41,0.286c0.759,0.458,1.586,0.695,2.416,0.695c0.129,0,0.258-0.006,0.388-0.018c0.22-0.02,0.506-0.06,0.763-0.197c0.264-0.141,0.453-0.374,0.505-0.624c0.054-0.254-0.009-0.58-0.223-0.731c0.171-0.382,0.172-0.836,0.001-1.319c-0.146-0.414-0.418-0.798-0.735-1.097c0.109-0.01,0.214-0.027,0.325-0.022c0.227,0.011,0.452,0.073,0.652,0.181c0.42,0.227,0.766,0.658,0.947,1.185c0.15,0.436,0.203,0.946,0.16,1.56c-0.024,0.35-0.09,0.697-0.27,1.002c-0.181,0.307-0.427,0.575-0.699,0.805c0.035-0.006,0.07-0.015,0.105-0.021c0.169-0.088,0.316-0.201,0.435-0.34c0.089-0.104,0.154-0.22,0.25-0.321c0.254-0.269,0.305-0.767,0.329-1.115c0.044-0.634-0.011-1.164-0.168-1.619c-0.196-0.57-0.558-1.021-1.018-1.268c-0.283-0.153-0.612-0.222-0.932-0.195C-6.35-2.793-6.478-2.785-6.562-2.752C-6.711-2.874-6.866-2.98-7.025-3.051c-0.31-0.138-0.66-0.191-0.996-0.138c-0.147,0.023-0.289,0.061-0.415,0.141c-0.052,0.033-0.111,0.071-0.155,0.114C-8.627-2.9-8.663-2.792-8.696-2.772c0.493-0.295,1.072-0.381,1.609-0.142c0.527,0.235,1.029,0.811,1.249,1.433c0.116,0.328,0.206,0.814-0.024,1.265l-0.035,0.069l0.07,0.033c0.189,0.089,0.253,0.376,0.206,0.602c-0.044,0.208-0.205,0.403-0.429,0.523c-0.182,0.097-0.4,0.152-0.707,0.18C-7.681,1.274-8.62,1.047-9.47,0.534c-0.205-0.123-0.403-0.264-0.598-0.421l0.016,0.049c-0.038-0.074-0.088-0.14-0.135-0.208l-0.135,0.075c0.046,0.089,0.086,0.182,0.157,0.254c0.212,0.441,0.301,0.951,0.208,1.436c-0.033,0.173-0.08,0.288-0.151,0.375c-0.205,0.245-0.547,0.033-0.911-0.225c-0.044-0.032-0.086-0.061-0.124-0.086c-0.224-0.149-0.476-0.272-0.719-0.391c-0.193-0.094-0.393-0.191-0.575-0.301c-0.398-0.239-0.84-0.414-1.268-0.582c-0.172-0.068-0.343-0.136-0.512-0.207c-0.056-0.024-0.12-0.047-0.188-0.071c-0.3-0.108-0.641-0.23-0.642-0.529c0-0.117,0.044-0.219,0.138-0.312c0.217-0.215,0.559-0.297,0.849-0.352c0.16-0.03,0.322-0.05,0.484-0.061c0.074-0.005,0.139-0.019,0.212-0.032c0.056-0.01,0.25-0.064,0.297-0.047c-0.341-0.128-0.717-0.071-1.066-0.001c-0.148,0.029-0.303,0.069-0.451,0.125c-0.247-0.156-0.515-0.284-0.781-0.4c-0.493-0.216-0.958-0.42-1.25-0.832c-0.215-0.305-0.293-0.653-0.225-1.008c0.073-0.383,0.316-0.732,0.666-0.959c0.486-0.316,1.148-0.498,1.966-0.542c1.083-0.061,2.278,0.259,3.549,0.926c-0.315,0.22-0.573,0.547-0.708,0.905c-0.25-0.093-0.527-0.105-0.786-0.035c-0.344,0.094-0.75,0.361-0.736,0.764c0.039-0.061,0.086-0.126,0.139-0.191c0.166-0.202,0.391-0.397,0.635-0.428c0.248-0.067,0.525-0.046,0.761,0.058l0.076,0.034l0.025-0.08c0.149-0.461,0.542-0.891,0.98-1.071c0.847-0.344,1.63,0.098,2.373,0.46c-0.069-0.034-0.144-0.164-0.21-0.217c-0.069-0.055-0.136-0.122-0.209-0.171C-8.498-3.887-8.747-3.96-8.958-4.017c-0.447-0.12-0.933-0.137-1.367,0.041c-0.059,0.024-0.113,0.062-0.17,0.094c-0.759-0.408-1.489-0.677-2.191-0.833c0.52-0.128,1.087-0.064,1.53,0.223l0.067,0.043l0.04-0.069c0.201-0.357,0.515-0.532,1.047-0.585c0.631-0.064,1.214-0.017,1.733,0.138c0.563,0.168,1.213,0.375,1.797,0.7c0.586,0.327,1.015,0.74,1.308,1.264l0.036,0.064l0.065-0.034C-4.444-3.3-3.591-3.123-3.08-2.561c0.468,0.514,0.65,1.307,0.475,2.07C-2.849,0.578-3.654,1.287-4.44,1.98c0.071-0.004,0.141-0.008,0.212-0.01c0.052-0.031,0.106-0.058,0.155-0.092C-3.77,1.672-3.552,1.394-3.31,1.122c0.401-0.451,0.717-0.988,0.852-1.58C-2.273-1.267-2.468-2.112-2.968-2.661z" fill="#647C00" fill-opacity="0.59"></path><path style="" d="M-19.116-4.592c0.32-0.444,0.907-0.743,1.506-0.818c0.036,0.246,0.105,0.486,0.192,0.718l0.133-0.073c-0.205-0.532-0.287-1.112-0.18-1.668c0.584,0.151,1.142,0.43,1.653,0.786l0.238-0.008c-0.145-0.107-0.286-0.221-0.44-0.314c0.164,0.016,0.325,0.038,0.5,0.038c0.417,0,0.864-0.042,1.329-0.107l-0.07-0.153c-0.759,0.099-1.461,0.124-2.093,0.046c-0.193-0.099-0.387-0.187-0.588-0.261c0.044-0.029,0.089-0.058,0.132-0.087c0.292-0.197,0.595-0.401,0.924-0.54c0.4-0.168,1.166-0.406,1.811-0.115c0.564,0.256,1.187,0.362,1.802,0.316c-0.454,0.349-1.041,0.505-1.581,0.598c-0.144,0.025-0.269,0.025-0.407,0.043l0.07,0.153c0.122-0.017,0.238-0.027,0.363-0.048c0.638-0.11,1.35-0.294,1.847-0.789c0.052-0.008,0.105-0.013,0.157-0.023c0.275,0.501,0.791,0.915,1.472,1.139c0.39,0.128,0.79,0.175,1.176,0.22c0.233,0.027,0.473,0.055,0.708,0.101c0.394,0.077,0.782,0.212,1.157,0.342l0.191,0.067c0.149,0.053,0.304,0.109,0.461,0.147c0.029,0.007,0.083,0.031,0.14,0.057c0.201,0.09,0.425,0.128,0.638,0.191c-0.035-0.01-0.107-0.324-0.129-0.372C-6.06-5.125-6.1-5.249-6.152-5.368c-0.111-0.259-0.251-0.505-0.409-0.738c-0.056-0.082-0.107-0.138-0.161-0.213l-0.146,0.055c0.062,0.084,0.119,0.149,0.183,0.242c0.233,0.342,0.395,0.664,0.522,1.046c0.027,0.082,0.02,0.108,0.021,0.109c-0.045,0.019-0.231-0.063-0.311-0.098C-6.519-4.994-6.576-5.02-6.618-5.03c-0.149-0.037-0.3-0.09-0.446-0.143L-7.257-5.24c-0.38-0.132-0.773-0.269-1.178-0.348c-0.24-0.046-0.483-0.075-0.718-0.102C-9.532-5.734-9.925-5.78-10.3-5.904c-0.626-0.206-1.1-0.578-1.363-1.027c0.307-0.076,0.582-0.198,0.841-0.339l-0.069-0.12c-0.26,0.138-0.54,0.254-0.848,0.326c-0.755,0.176-1.562,0.098-2.269-0.223c-0.698-0.316-1.508-0.064-1.931,0.113c-0.342,0.145-0.651,0.353-0.95,0.554c-0.075,0.05-0.152,0.1-0.229,0.15c-0.13-0.043-0.256-0.098-0.388-0.13l-0.074-0.018l-0.017,0.075c-0.027,0.121-0.021,0.246-0.033,0.37c-0.031,0.017-0.059,0.037-0.091,0.052c-0.759,0.352-1.533,0.473-2.179,0.333c-0.203-0.043-0.7-0.177-0.923-0.475c-0.16-0.212-0.209-0.607-0.034-0.798l0.063-0.069l-0.081-0.046c-0.328-0.188-0.468-0.648-0.459-0.995c0.001-0.048,0.026-0.095,0.033-0.143l-0.169,0.023c-0.004,0.039-0.014,0.077-0.015,0.116c-0.009,0.377,0.132,0.844,0.464,1.083c-0.163,0.26-0.103,0.68,0.078,0.92c0.158,0.211,0.421,0.34,0.654,0.424c-0.081,0.046-0.158,0.109-0.225,0.164c-0.176,0.145-0.328,0.316-0.471,0.494l0.143,0.068c0.14-0.171,0.287-0.337,0.46-0.475c0.043-0.034,0.214-0.125,0.284-0.186c0.062,0.017,0.125,0.034,0.167,0.043c0.186,0.04,0.381,0.06,0.583,0.06c0.535,0,1.118-0.137,1.69-0.403c0.004-0.002,0.008-0.004,0.012-0.007c-0.005,0.146-0.003,0.289,0.011,0.436c-0.089,0.012-0.176,0.035-0.264,0.056c-0.2-0.032-0.398-0.051-0.59-0.036c-0.713,0.084-1.356,0.347-1.917,0.721l0.144,0.068c0.526-0.335,1.131-0.562,1.791-0.64c0.092-0.011,0.173-0.015,0.252-0.017c-0.413,0.154-0.786,0.398-1.021,0.724c-0.063,0.087-0.104,0.187-0.152,0.283l0.182-0.024C-19.176-4.478-19.154-4.54-19.116-4.592z" fill="#647C00" fill-opacity="0.59"></path><path style="" d="M-10.27-0.173c-0.04-0.139-0.046-0.276-0.037-0.39c0.02-0.268,0.184-0.397,0.441-0.519c0.491-0.232,1.047-0.295,1.569-0.177c0.537,0.12,1.02,0.422,1.36,0.85c0.152,0.192,0.346,0.475,0.405,0.729c0.013,0.055,0.006,0.101-0.022,0.142c-0.071,0.101-0.264,0.155-0.421,0.173C-7.18,0.66-7.378,0.625-7.589,0.59C-7.659,0.578-7.729,0.566-7.8,0.557c-0.299-0.041-0.601-0.098-0.898-0.17c-0.092-0.022-0.189-0.055-0.215-0.124C-8.971,0.11-8.717-0.068-8.638-0.12c0.163-0.105,0.469-0.253,0.689-0.062c0.218,0.189,0.367,0.479,0.399,0.776L-7.4,0.578c-0.036-0.333-0.205-0.66-0.45-0.873c-0.218-0.19-0.527-0.171-0.869,0.049c-0.283,0.183-0.402,0.382-0.335,0.561c0.05,0.134,0.19,0.185,0.32,0.217c0.302,0.074,0.61,0.132,0.914,0.173c0.069,0.009,0.138,0.021,0.207,0.033c0.162,0.027,0.327,0.055,0.497,0.055c0.052,0,0.105-0.003,0.158-0.009c0.118-0.014,0.405-0.063,0.527-0.236c0.053-0.075,0.069-0.166,0.046-0.262C-6.452,0.004-6.658-0.298-6.82-0.502c-0.361-0.456-0.874-0.776-1.444-0.904c-0.553-0.123-1.145-0.058-1.666,0.188c-0.258,0.122-0.501,0.284-0.527,0.644c-0.005,0.069,0.018,0.125,0.022,0.189c-0.013-0.014-0.021-0.031-0.034-0.044c-0.153-0.151-0.367-0.281-0.601-0.397c-0.113-0.132-0.202-0.277-0.235-0.512c-0.045-0.317,0.195-0.506,0.462-0.612c0.165-0.065,0.337-0.101,0.508-0.142c0.152-0.036,0.313-0.156,0.478-0.084c-0.544-0.239-1.7,0.127-1.597,0.859c0.021,0.149,0.066,0.262,0.118,0.364c-0.367-0.143-0.784-0.239-1.196-0.263c-0.361-0.358-0.771-0.698-1.253-1.039c-0.076-0.053-0.168-0.106-0.265-0.162c-0.331-0.19-0.705-0.405-0.65-0.745c0.059-0.368,0.346-0.625,0.512-0.746c0.26-0.188,0.53-0.217,0.842-0.25c0.107-0.012,0.242-0.061,0.346-0.056c-0.077-0.004-0.151-0.034-0.225-0.054c-0.337-0.092-0.777,0.04-1.051,0.239c-0.319,0.231-0.522,0.531-0.572,0.843c-0.071,0.441,0.37,0.695,0.724,0.898c0.094,0.054,0.183,0.105,0.253,0.155c0.484,0.341,0.894,0.682,1.253,1.042l0.021,0.02l0.029,0.001c0.769,0.039,1.588,0.345,1.993,0.746c0.067,0.066,0.116,0.149,0.174,0.225c0.016,0.048,0.055,0.082,0.078,0.126l0.135-0.075C-10.216-0.088-10.239-0.133-10.27-0.173z" fill="#647C00" fill-opacity="0.59"></path><path style="" d="M-17.681,2.915c-0.199,0.089-0.461,0.206-0.724,0.351c-0.126-0.089-0.262-0.161-0.397-0.233l-0.175,0.092c0.144,0.072,0.291,0.131,0.428,0.226c-0.156,0.093-0.307,0.195-0.443,0.308l0.002-0.031c-0.536-0.036-1.024-0.187-1.453-0.447l-0.578-0.353l0.487,0.47c0.394,0.381,0.727,0.818,0.988,1.299l0.035-0.019c0.002,0.097,0.035,0.195,0.069,0.293l0.145-0.017c-0.077-0.186-0.091-0.365-0.024-0.543c0.019-0.052,0.051-0.102,0.081-0.152l-0.12-0.085c-0.038,0.06-0.078,0.12-0.101,0.185c-0.018,0.05-0.014,0.101-0.023,0.152c-0.183-0.319-0.392-0.621-0.634-0.896c0.313,0.134,0.654,0.212,1.012,0.246c-0.102,0.097-0.185,0.203-0.254,0.313l0.12,0.085c0.312-0.518,1.149-0.897,1.622-1.108c0.522-0.233,1.071-0.389,1.628-0.481l0.002-0.138C-16.567,2.526-17.139,2.673-17.681,2.915z" fill="#647C00" fill-opacity="0.59"></path><path style="" d="M-17.373,2.461l-0.041-0.173c-0.737,0.265-1.495,0.389-2.138,0.357c0,0-0.406-0.888-0.593-1.296c-0.018-0.055-0.035-0.114-0.054-0.163l-0.018,0.007c-0.011-0.025-0.023-0.049-0.023-0.049c0.08-0.291,0.215-1.071,0.413-1.503c0.088-0.25,0.201-0.49,0.32-0.727c0.05-0.182,0.212-0.316,0.283-0.521c0.354-0.16,0.758-0.26,1.169-0.315l-0.034-0.173c-0.379,0.05-0.752,0.151-1.113,0.322c0.002-0.034,0.013-0.061,0.009-0.099c-0.039-0.069-0.087-0.11-0.133-0.155l-0.106,0.096c0.031,0.026,0.057,0.056,0.064,0.096c0.048,0.192-0.211,0.412-0.303,0.666c-0.388,0.731-0.617,1.541-0.701,2.385l0.084,0.183c0.117,0.356,0.22,0.825,0.154,1.295l-0.011,0.076l0.076,0.009c0.073,0.009,0.138,0.033,0.207,0.047l0.004-0.161c-0.04-0.008-0.079-0.019-0.12-0.025c0.021-0.201,0.009-0.399-0.014-0.59l0.296,0.647c0,0,0.001,0.002,0.001,0.002c-0.054-0.012-0.109-0.022-0.163-0.034l-0.004,0.161c0.312,0.062,0.605,0.161,0.883,0.299l0.175-0.092c-0.218-0.115-0.442-0.216-0.679-0.285C-18.766,2.799-18.046,2.696-17.373,2.461z" fill="#647C00" fill-opacity="0.59"></path><path style="" d="M-22.217-2.324c-0.363,0.102-0.627,0.332-0.85,0.626c-0.091,0.12-0.15,0.256-0.207,0.395c-0.044,0.163-0.095,0.324-0.128,0.489c-0.006,0.032-0.003,0.061-0.007,0.093c0.077-0.223,0.17-0.456,0.3-0.67c0.229-0.376,0.546-0.693,0.972-0.798l0.043-0.011l0.011-0.044c0.085-0.34,0.22-0.655,0.379-0.953l-0.161-0.008C-22.009-2.927-22.135-2.637-22.217-2.324z" fill="#647C00" fill-opacity="0.59"></path><path style="" d="M-2.51-6.53c0.048,0.034,0.096,0.067,0.142,0.102c0.236,0.172,0.483,0.319,0.734,0.436c0.32,0.149,0.675,0.226,1.029,0.226c0.186,0,0.369-0.039,0.55-0.082C-0.067-5.895-0.079-5.94-0.094-5.985c-0.49,0.113-1.018,0.069-1.477-0.144c-0.242-0.113-0.48-0.254-0.708-0.421c-0.047-0.035-0.096-0.069-0.145-0.103c-0.198-0.139-0.402-0.283-0.545-0.476c-0.087-0.118-0.107-0.23-0.055-0.308c0.058-0.087,0.195-0.117,0.352-0.075c0.303,0.077,0.601,0.182,0.886,0.312l0.051,0.023l0.037-0.042c0.146-0.165,0.36-0.283,0.59-0.35c-0.029-0.043-0.059-0.087-0.089-0.132c-0.22,0.071-0.424,0.188-0.575,0.342C-2.051-7.483-2.34-7.583-2.635-7.658c-0.223-0.059-0.419-0.004-0.514,0.137c-0.088,0.131-0.066,0.311,0.059,0.48C-2.932-6.827-2.718-6.676-2.51-6.53z" fill="#647C00" fill-opacity="0.59"></path><path style="" d="M-1.49-6.688c0.119,0.241,0.485,0.429,0.668,0.429c0.002,0,0.005,0,0.007,0c0.145-0.005,0.271-0.09,0.394-0.172c0.029-0.019,0.054-0.032,0.081-0.049C-0.37-6.522-0.397-6.56-0.426-6.601c-0.026,0.016-0.053,0.03-0.078,0.046c-0.104,0.07-0.212,0.143-0.314,0.146c-0.001,0-0.003,0-0.004,0c-0.122,0-0.439-0.157-0.533-0.346c-0.035-0.071-0.029-0.132,0.018-0.19c0.098-0.12,0.401-0.101,0.643-0.032c-0.042-0.059-0.086-0.12-0.129-0.181C-1.019-7.191-1.314-7.21-1.454-7.039C-1.538-6.936-1.551-6.811-1.49-6.688z" fill="#647C00" fill-opacity="0.59"></path><path style="" d="M-2.555-8.937l0.059,0.2l0.082-0.192c0.097-0.227,0.283-0.414,0.504-0.528c-0.009-0.044-0.015-0.089-0.022-0.134c-0.214,0.101-0.409,0.24-0.534,0.442c-0.19-0.513-0.538-0.938-0.979-1.229l-0.155,0.076C-3.106-9.999-2.724-9.517-2.555-8.937z" fill="#647C00" fill-opacity="0.59"></path><path style="" d="M-0.08-3.57l-0.1,0.1c-0.07-0.06-0.11-0.13-0.17-0.2c0,0.21-0.1,0.42-0.29,0.6C-0.85-2.88-1.14-2.75-1.5-2.7c-0.13,0.02-0.26,0.03-0.4,0.03c-0.55,0-1.12-0.16-1.65-0.47c-0.07-0.04-0.16-0.1-0.24-0.16l0.08-0.12c0.08,0.05,0.17,0.11,0.24,0.15c0.62,0.37,1.31,0.52,1.94,0.42c0.34-0.05,0.6-0.16,0.79-0.33c0.2-0.18,0.28-0.39,0.24-0.6c-0.05-0.24-0.26-0.46-0.57-0.57c-0.16-0.06-0.33-0.09-0.5-0.12c-0.14-0.02-0.28-0.05-0.41-0.08c-0.1-0.03-0.19-0.09-0.28-0.12c-0.12-0.04-0.23-0.1-0.34-0.14c-0.08-0.04-0.17-0.06-0.25-0.11c-0.01,0-0.02-0.01-0.03-0.02c-0.29-0.14-0.57-0.3-0.81-0.49C-3.85-5.56-3.98-5.69-4.1-5.82l0.08-0.07c0.4,0.44,1.01,0.72,1.52,0.96c0.1,0.04,0.2,0.08,0.3,0.12c0.49,0.17,1,0.28,1.51,0.3h0.05l0.02,0.05C-0.52-4.12-0.33-3.82-0.08-3.57z" fill="#647C00" fill-opacity="0.59"></path><path style="" d="M-4.983-4.602c-0.256-0.363-0.406-0.733-0.445-1.1c-0.016-0.155-0.008-0.315,0.031-0.466c0.059-0.23,0.141-0.441,0.423-0.441c0.178,0,0.357,0.134,0.508,0.279c0.081,0.172,0.209,0.344,0.365,0.514l0.082-0.074C-4.232-6.121-4.39-6.392-4.438-6.724c-0.08-0.556,0.061-1.283,0.555-1.655c0.271-0.206,0.632-0.297,0.969-0.241c0.437,0.07,0.673,0.212,0.903,0.543l0.124,0.179l0.013-0.217c0.009-0.154,0.104-0.313,0.227-0.446c-0.02-0.052-0.04-0.103-0.058-0.156c-0.123,0.119-0.23,0.264-0.283,0.42C-2.216-8.57-2.476-8.702-2.891-8.769c-0.375-0.058-0.78,0.041-1.083,0.27c-0.58,0.437-0.693,1.241-0.613,1.796c0.005,0.032,0.02,0.065,0.028,0.097c-0.202-0.141-0.438-0.22-0.669-0.082c-0.018,0.011-0.026,0.03-0.042,0.043c-0.099-0.354-0.15-0.718-0.149-1.08C-5.459-9.206-4.541-10.4-3.179-9.12C-3.33-9.541-3.749-9.948-4.282-9.921C-5.818-9.743-5.846-7.663-5.403-6.51c-0.075,0.108-0.122,0.232-0.148,0.362C-6.077-6.591-6.455-7.221-6.538-7.83c-0.099-0.728,0.189-1.609,0.466-2.144c0.178-0.344,0.513-0.556,0.887-0.633c0.186-0.038,0.378-0.046,0.567-0.03c0.367,0.03,0.714,0.148,1.018,0.334l0.155-0.076c-0.17-0.112-0.351-0.209-0.546-0.276c0.305-0.189,0.653-0.304,1.012-0.328c0.316-0.021,0.632,0.035,0.926,0.149c-0.002-0.054-0.003-0.107-0.004-0.161c-0.299-0.107-0.615-0.16-0.932-0.137c-0.426,0.027-0.836,0.179-1.185,0.423c-0.741-0.193-1.648-0.074-2.031,0.665c-0.301,0.58-0.585,1.472-0.481,2.233c0.092,0.673,0.517,1.373,1.109,1.841c-0.008,0.105-0.009,0.204,0,0.282c0.042,0.393,0.201,0.787,0.473,1.171c0.391,0.554,0.922,0.962,1.311,1.217l0.084-0.124C-4.089-3.67-4.605-4.066-4.983-4.602z" fill="#647C00" fill-opacity="0.59"></path><path style="" d="M-6.97-9.129c-0.58-0.08-1.178-0.029-1.738,0.141c-0.445,0.136-0.934,0.222-1.357,0.409c-0.739,0.327-1.391,0.827-1.94,1.416c-0.185,0.199-0.548,0.538-0.265,0.804c0.427,0.4,1.226,0.089,1.706-0.032c0.733-0.184,1.502-0.415,2.109-0.884C-7.825-7.761-7.25-8.306-6.97-9.129z" fill="#F7FF57" fill-opacity="0.32"></path><path style="" d="M-9.243-2.002c0.594-0.522,1.346-0.962,2.146-1.041c0.445-0.044,1.051,0.03,1.402,0.333c1.072,0.926-1.99,2-2.534,2.132c-0.425,0.103-0.859,0.166-1.296,0.185c-0.451,0.02-0.715-0.083-0.526-0.613C-9.908-1.403-9.551-1.731-9.243-2.002z" fill="#F7FF57" fill-opacity="0.32"></path></g></g><!---0021-00490002200031--><g><path style="" d="M-2.753-27.138c0.384-2.112,0.171-4.38,0.203-6.5c0.037-2.455,0.564-4.816-0.741-7.098c-1.094-1.912-2.955-3.322-4.999-4.089c-1.466-0.55-3.072-0.602-4.602-0.323c-1.021,0.186-2.085,0.619-2.875,1.304c-0.581,0.504-1.002,1.211-0.992,1.996c0.026,2.034-0.313,4.108-0.465,6.143C-17.563-31.18-19.072-24.431-14.5-21.5c1.182,0.758,2.871,0.91,4.274,0.961c2.483,0.09,4.751-1.312,6.152-3.302C-3.358-24.858-2.965-25.974-2.753-27.138z" fill="#CFE401"></path><path style="" d="M-5.875-40.375c-0.199-0.253-0.354-0.562-0.639-0.736c-0.517-0.316-1.427-0.479-2.016-0.515c-0.314-0.019-0.618,0.013-0.931,0.025c-0.132,0.005-0.373-0.004-0.356,0.159c0.023,0.211,0.735,0.412,0.899,0.498c1.139,0.593,2.336,1.452,3.653,1.569C-5.528-39.681-5.633-40.068-5.875-40.375z" fill="#A8BF00"></path><path style="" d="M-8.163-27.882c-0.164,0.221-0.33,0.44-0.497,0.658c2.41-1.024,4.787-2.799,6.118-5.072c-0.007-0.451-0.014-0.901-0.007-1.342c0.021-1.381,0.187-2.731,0.105-4.055c-0.738,1.506-1.441,3.026-2.267,4.494C-5.749-31.356-6.902-29.579-8.163-27.882z" fill="#A8BF00"></path><path style="" d="M-13.833-43.615c0.602,0.19,1.125,0.484,1.736,0.642c1.075,0.278,2.25,0.625,3.256,0.414c-0.963-0.327-1.823-0.761-2.559-1.462c-0.005-0.019-0.011-0.038-0.016-0.057c0.019-0.386,0.009-0.804,0.022-1.216c-0.502,0.015-1.004,0.056-1.498,0.146c-1.021,0.186-2.085,0.619-2.875,1.304c-0.581,0.504-1.002,1.211-0.992,1.996c0.026,2.034-0.313,4.108-0.465,6.143c-0.021,0.278-0.046,0.565-0.074,0.858c-0.005,0.054-0.011,0.111-0.017,0.166c-0.075,0.765-0.164,1.572-0.242,2.402c0,0.001,0,0.001,0,0.002c-0.025,0.269-0.048,0.541-0.069,0.813c-0.004,0.047-0.008,0.095-0.011,0.142c-0.019,0.258-0.036,0.517-0.05,0.777c-0.003,0.058-0.006,0.116-0.009,0.174c-0.013,0.257-0.021,0.513-0.027,0.77c-0.001,0.058-0.002,0.115-0.003,0.173c-0.003,0.258-0.003,0.515,0.003,0.771c0.001,0.054,0.003,0.107,0.005,0.161c0.008,0.26,0.021,0.52,0.041,0.776c0.003,0.043,0.008,0.086,0.012,0.129c0.023,0.266,0.051,0.53,0.089,0.79c0.004,0.026,0.009,0.051,0.013,0.076c0.264,1.741,0.887,3.33,2.169,4.519c0.2-0.956,0.442-1.922,0.414-2.864c-0.041-1.414,0.278-2.915,0.483-4.313c0.307-2.097,0.888-4.191,0.93-6.308c0.018-0.905-0.206-1.82-0.209-2.732c-0.002-0.553-0.043-1.073,0.003-1.606l0,0c0-0.001,0-0.002,0-0.003c0.007-0.082,0.022-0.166,0.034-0.25c0.008-0.026,0.011-0.052,0.025-0.077c0.19-0.333,0.687-0.3,1.016-0.34c0.066-0.008,0.842-0.097,0.837-0.136c-0.123-0.833-0.812-1.144-1.45-1.532c-0.678-0.412-1.329-0.903-1.836-1.519c-0.002-0.017-0.005-0.034-0.006-0.05C-14.866-44.071-14.104-43.7-13.833-43.615z" fill="#A8BF00"></path><path style="" d="M-6.677-21.454c0.068-0.039,0.131-0.085,0.197-0.126c-0.76-0.093-1.491,0.321-2.012,0.857c0.099-0.024,0.194-0.056,0.292-0.085C-7.773-21.182-7.235-21.459-6.677-21.454z" fill="#647C00" fill-opacity="0.59"></path><path style="" d="M-8.991-20.646c0.646-0.324,1.203-0.946,1.477-1.65c0.474,0.181,1.106,0.298,1.701,0.26c0.077-0.06,0.152-0.123,0.227-0.185c-0.665,0.099-1.415-0.026-1.943-0.242l-0.072-0.03l-0.027,0.074c-0.257,0.718-0.827,1.356-1.484,1.666l-0.06,0.028l0.02,0.063c0.006,0.019,0.007,0.04,0.012,0.059c0.051-0.007,0.1-0.019,0.151-0.028C-8.991-20.636-8.99-20.641-8.991-20.646z" fill="#647C00" fill-opacity="0.59"></path><path style="" d="M-6.237-23.754c0.14-0.104,0.286-0.199,0.443-0.274c0.352-0.169,0.74-0.262,1.131-0.266c0.272,0,0.534,0.053,0.787,0.129c0.028-0.044,0.055-0.088,0.081-0.133c-0.273-0.086-0.553-0.146-0.841-0.146c-0.01,0-0.02,0-0.03,0c-0.403,0-0.809,0.101-1.173,0.272c-0.185,0.087-0.361,0.194-0.524,0.318c-0.054,0.041-0.174,0.114-0.202,0.185c-0.425,0.132-0.834,0.333-1.202,0.636c-0.99-0.396-2.629,0.421-3.35,1.397c-0.238,0.262-0.444,0.605-0.616,0.978c0.053,0.006,0.105,0.015,0.158,0.021c0.648-1.331,1.893-2.374,3.351-2.316c-0.909,0.23-1.767,0.998-1.831,1.945c0.405-0.952,1.265-1.77,2.34-1.881l-0.001-0.001c0.002,0,0.004,0,0.007,0.001c0.792-0.569,1.777-0.977,2.75-0.8c0.214,0.039,0.426,0.097,0.635,0.164c0.031-0.04,0.064-0.079,0.094-0.12C-4.883-23.844-5.576-23.892-6.237-23.754z" fill="#647C00" fill-opacity="0.59"></path><path style="" d="M-14.438-21.471c0.053,0.033,0.117,0.052,0.171,0.082c0.275-0.181,0.554-0.334,0.865-0.415c-0.011,0.01-0.019,0.012-0.031,0.023c-0.086,0.082-0.157,0.178-0.219,0.28c-0.064,0.105-0.117,0.215-0.167,0.326c0.05,0.021,0.095,0.05,0.147,0.07c0.021-0.043,0.04-0.088,0.062-0.131c0.111-0.22,0.223-0.413,0.392-0.584c-0.017,0.28-0.029,0.567-0.042,0.853c0.048,0.015,0.099,0.025,0.148,0.038c0.015-0.339,0.031-0.678,0.051-1.008l0.006-0.091l-0.091,0.012C-13.64-21.948-14.04-21.751-14.438-21.471z" fill="#647C00" fill-opacity="0.59"></path></g></svg>