<svg xmlns:xlink="http://www.w3.org/1999/xlink" xmlns="http://www.w3.org/2000/svg" viewBox="-40.94377899169922 -146.29818725585938 68.82828521728516 163.4471893310547" preserveAspectRatio="xMidYMid meet" width="300"  height="400"><!---0013-00370003200043--><g><g><path style="" d="M1.412-21.179c0.906,0.592,1.728,1.289,2.456,2.082c0.94,1.025,1.715,2.2,2.28,3.464c0.216,0.503,0.412,1.015,0.559,1.544c0.149,0.489,0.618,0.836,1.153,0.716c0.485-0.093,0.877-0.622,0.738-1.12c-0.229-0.794-0.528-1.562-0.888-2.304c-0.692-1.431-1.615-2.755-2.725-3.89l0.001-0.01c-0.759-0.774-1.6-1.463-2.516-2.055C1.432-23.431,0.374-21.858,1.412-21.179z" fill="#D3D3D3"></path><path style="" d="M6.302,1.788c0.02,0.078,0.05,0.152,0.088,0.223c0.13,0.25,0.251,0.503,0.382,0.752c0.053,0.108,0.123,0.231,0.239,0.26c0.142,0.041,0.265-0.073,0.361-0.175c0.721-0.834,0.764-1.84,0.776-2.899c0.006-0.411,0.016-0.835,0.009-1.251c0.005-0.518,0.006-1.046-0.019-1.562c0.006-0.411-0.007-0.815-0.02-1.218C8.073-5.128,8.008-6.167,7.891-7.207c-0.102-0.949-0.129-2.078-0.518-2.957c-0.057-0.117-0.127-0.24-0.207-0.337c-0.06-0.073-0.126-0.133-0.206-0.176c-0.203-0.113-0.477-0.091-0.602,0.098c-0.045,0.072-0.061,0.164-0.077,0.256c-0.05,0.246-0.082,0.484-0.101,0.728c-0.178,1.727,0.153,3.467,0.23,5.2c0.032,0.772,0.043,1.542,0.035,2.32c0.014,0.22,0.005,0.439,0.01,0.663C6.456-0.983,6.518-0.534,6.48-0.1c-0.04,0.51-0.119,1.026-0.177,1.543C6.285,1.558,6.28,1.679,6.302,1.788z" fill="#D3D3D3"></path><path style="" d="M9.875,2.375c0.057,0.117,0.123,0.231,0.189,0.345c0.022,0.056,0.05,0.099,0.081,0.151c0.071,0.101,0.139,0.192,0.23,0.264c0.141,0.116,0.397,0.155,0.493-0.002c0.04-0.059,0.054-0.129,0.059-0.195c0.09-0.756,0.188-1.516,0.074-2.255c-0.034-0.191-0.071-0.391-0.135-0.581c-0.321-1.024-0.587-2.069-0.881-3.103c-0.6-2.128-1.223-4.259-1.863-6.382c-0.133-0.442-0.269-0.894-0.402-1.336c-0.375-1.239-2.057-0.552-1.681,0.665c0.05,0.152,0.09,0.308,0.14,0.461C6.77-7.624,7.352-5.65,7.921-3.681C7.996-3.41,8.072-3.138,8.139-2.864c0.322,1.185,0.62,2.39,1.027,3.551c0.004,0.009,0.004,0.009,0.007,0.019C9.379,1.281,9.6,1.838,9.875,2.375z" fill="#D3D3D3"></path><path style="" d="M2.094-4.946c0.103,0.26,0.248,0.493,0.447,0.705c0.444,0.459,1.076,0.65,1.689,0.816c0,0,0.009-0.004,0.013,0.006c0.957,0.267,1.964,0.61,2.967,0.622c0.075,0.003,0.146-0.004,0.213-0.02c0.14-0.045,0.26-0.167,0.319-0.309c0.195-0.41,0.165-0.936,0.165-1.388c0-0.505-0.023-1.013-0.076-1.519c-0.084-1.01-0.252-2.019-0.484-3.002C7.243-9.51,7.104-9.993,6.822-10.387c-0.104-0.131-0.252-0.266-0.414-0.223c-0.158,0.052-0.205,0.253-0.209,0.427c-0.003,0.152-0.026,0.333-0.047,0.492c-0.036,0.52-0.063,1.036-0.09,1.552C6.037-7.538,6.025-6.931,6.031-6.332C6.034-6.139,6.197-5.01,6.01-4.925c-0.036,0.014-0.08,0.01-0.124,0.006C5.357-4.957,4.841-5.065,4.34-5.243C4.181-5.299,4.028-5.367,3.9-5.478C3.677-5.669,3.691-5.9,3.759-6.153c0.036-0.122,0.063-0.24,0.108-0.365c0.463-1.646,1.218-3.214,2.215-4.598c0.103-0.138,0.221-0.292,0.278-0.465c0.067-0.177,0.069-0.382-0.037-0.545c-0.071-0.101-0.175-0.178-0.285-0.242c-0.084-0.053-0.168-0.106-0.259-0.123c-0.239-0.045-0.443,0.154-0.612,0.339c-0.918,1.052-1.783,2.157-2.419,3.42C2.229-7.709,1.645-6.134,2.094-4.946z" fill="#D3D3D3"></path><path style="" d="M6.197-10.505c0.141-0.174,0.286-0.339,0.44-0.508c0.125-0.135,0.192-0.312,0.193-0.496c-0.336,0.133-0.613,0.415-0.628,0.776C6.2-10.657,6.199-10.581,6.197-10.505z" fill="#D3D3D3"></path><path style="" d="M6.061-10.613c0.002-0.022,0.016-0.039,0.034-0.046c-0.231-0.317-0.366-0.845-0.154-1.186c0.112-0.195,0.276-0.26,0.461-0.269c0.282-0.004,0.621,0.163,0.842,0.323c1.117,0.752,2.234,1.504,3.3,2.34C11.5-8.698,12.32-7.863,13.15-6.989c-0.265,0.577-0.496,1.171-0.664,1.786c-0.406-0.446-0.815-0.891-1.245-1.319c-0.632-0.642-1.333-1.139-2.044-1.686C9.155-8.234,9.119-8.274,9.077-8.3C9.34-7.899,9.586-7.491,9.823-7.079L9.826-7.07c1.153,2.039,2.109,4.242,3.56,6.077c0.007-0.035,0.023-0.074,0.03-0.109c0.14-0.496,0.276-1.002,0.416-1.498c0.126-0.426,0.213-0.816-0.102-1.186c-0.331-0.385-0.658-0.761-0.989-1.146c-0.083-0.092-0.172-0.179-0.255-0.271c0.167-0.615,0.398-1.209,0.664-1.786c0.07,0.074,0.14,0.146,0.21,0.22c0.439,0.472,0.877,0.943,1.313,1.406c0.399,0.423,1.036,1.053,1.103,1.672c0.025,0.248-0.052,0.505-0.115,0.745c-0.129,0.47-0.254,0.95-0.371,1.426c-0.068,0.306-0.114,0.615-0.207,0.91c-0.025,0.096-0.054,0.183-0.092,0.273c-0.267,0.654-0.618,1.438-1.415,1.442c-0.899,0.012-1.715-0.935-2.167-1.681c-0.583-0.942-1.022-1.972-1.512-2.972C9.413-4.529,8.908-5.513,8.38-6.476C8.287-6.632,8.199-6.802,8.105-6.959C7.5-8.01,6.812-9.006,6.183-10.037c-0.027-0.043-0.055-0.086-0.077-0.142C6.042-10.315,6.01-10.474,6.061-10.613z" fill="#B2B2B2"></path><path style="" d="M7.937-20.596c-0.662,2.682-2.881,4.513-4.976,6.131c-0.39,0.301-0.997,0.336-1.336-0.075c-0.307-0.372-0.342-1.005,0.075-1.327c0.999-0.771,2.004-1.548,2.86-2.479c0.715-0.778,1.314-1.764,1.583-2.852c0.118-0.479,0.75-0.763,1.199-0.59C7.854-21.591,8.064-21.109,7.937-20.596L7.937-20.596z" fill="#FFFFFF"></path><path style="" d="M7.737-11.788c0.281,0.561,0.378,1.189-0.206,1.5c-0.209,0.111-0.467,0.095-0.69,0.013c-0.859-0.317-1.564-0.944-1.898-1.827c-0.217-0.571,0.012-1.343,0.724-1.291c0.523,0.038,1.017,0.305,1.399,0.676C7.27-12.519,7.545-12.169,7.737-11.788z" fill="#D3D3D3"></path><path style="" d="M6.148-15.633c0.216,0.503,0.412,1.015,0.559,1.544c0.149,0.489,0.618,0.836,1.153,0.716c0.485-0.093,0.877-0.622,0.738-1.12c-0.229-0.794-0.528-1.562-0.888-2.304c0.013,0.291-0.072,0.577-0.281,0.815C7.116-15.628,6.59-15.498,6.148-15.633z" fill="#B2B2B2"></path><path style="" d="M1.412-21.179c0.906,0.592,1.728,1.289,2.456,2.082l0.088,0.005c0.322,0.008,0.662-0.113,0.862-0.372c0.179-0.23,0.226-0.538,0.214-0.839c-0.002-0.13-0.024-0.262-0.047-0.383l0.001-0.01c-0.759-0.774-1.6-1.463-2.516-2.055C1.432-23.431,0.374-21.858,1.412-21.179z" fill="#FFFFFF"></path><path style="" d="M15.78-3.69c0.02,0.25-0.06,0.5-0.12,0.74C15.53-2.48,15.41-2,15.29-1.52c-0.084,0.338-0.078,0.694-0.245,1.007c0.042-0.298-0.026-0.6-0.112-0.889c-0.415-1.394-1.256-2.45-2.193-3.528c-0.08-0.09-0.17-0.18-0.25-0.27c-0.41-0.45-0.82-0.89-1.25-1.32c-0.642-0.642-1.367-1.192-2.093-1.735C8.805-8.51,8.432-8.751,8.121-9.043C7.783-9.361,7.48-9.727,7.18-10.08c-0.45-0.53-0.9-1.37-0.28-1.91c0.13,0.06,0.25,0.13,0.34,0.2c1.12,0.75,2.24,1.5,3.3,2.34c0.96,0.75,1.78,1.59,2.61,2.46c0.07,0.08,0.14,0.15,0.21,0.22c0.44,0.47,0.88,0.94,1.31,1.41C15.07-4.94,15.71-4.31,15.78-3.69z" fill="#D3D3D3"></path><path style="" d="M7.717-24.709c-0.101-0.286-0.212-0.573-0.334-0.85c-0.229-0.534-0.507-1.043-0.805-1.539c0.005,0.024,0.017,0.045,0.02,0.07c0.006,0.04,0.009,0.079,0.014,0.119c0.139,0.173,0.253,0.366,0.331,0.577c0.012,0.031,0.018,0.066,0.028,0.098c0.024,0.076,0.051,0.152,0.066,0.231c0.017,0.086,0.022,0.174,0.026,0.263c0.002,0.037,0.011,0.073,0.011,0.111c0.006,0.755,0.052,1.51,0.065,2.264c0.057-0.015,0.119-0.02,0.171-0.044C7.804-23.642,7.886-24.238,7.717-24.709z" fill="#D3D3D3"></path></g><g><path style="" d="M7.5-18.81c-0.12-3.03-0.25-6.06-0.26-9.09c0-0.623,0.013-1.246,0.021-1.868c-0.291-0.607-0.692-1.148-1.168-1.619c-0.014-0.013-0.027-0.027-0.041-0.039c-0.016-0.015-0.034-0.027-0.05-0.042c-0.309-0.263-0.64-0.501-0.974-0.711c-1.392-0.876-2.869-1.259-4.516-1.098c-2.446,0.239-4.602,1.521-6.379,3.203c-0.075,0.088-0.151,0.173-0.224,0.263c-0.151,0.901-0.313,1.802-0.497,2.701c-0.03,0.18-0.07,0.37-0.05,0.55c0.03,0.38,0.25,0.64,0.13,1.04c-0.1,0.38-0.43,0.67-0.7,0.95c-0.7,0.73-0.97,2.02-1.09,2.95c-0.1,0.77-0.07,1.54-0.16,2.31c-0.08,0.74-0.26,1.48-0.38,2.22c-0.15,0.81-0.09,1.63-0.14,2.46c-0.06,0.93-0.07,1.87-0.07,2.81c0,0.23,0,0.46-0.01,0.7c0,0.1,0,0.2-0.01,0.3v0.01c0,0.73-0.02,1.46-0.06,2.19v0.01c-0.05,0.7-0.13,1.4-0.25,2.09c-0.01,0.03-0.01,0.07-0.02,0.1c-0.01,0.06-0.02,0.13-0.03,0.19c-0.15,0.79-0.37,1.59-0.36,2.4c0,0.06,0,0.12,0.01,0.18c0.09,1.3,0.9,2.1,1.94,2.51c0.24,0.1,0.5,0.18,0.77,0.24c0.22,0.04,0.44,0.08,0.67,0.1c0.36,0.04,0.73,0.05,1.08,0.03c1.05-0.07,2.1-0.36,3.13-0.77c0.01,0,0.02-0.01,0.03-0.01c0.61-0.24,1.19-0.5,1.77-0.78c0.05-0.02,0.1-0.05,0.15-0.07C0.08-2.55,0.4-2.71,0.72-2.85c0.01-0.01,0.03-0.02,0.05-0.03c1.5-0.73,2.99-1.43,4.64-1.76c0.25-0.05,0.51-0.09,0.77-0.13c0.31-0.04,0.63-0.06,0.96-0.07C7.32-4.85,7.5-4.85,7.68-4.85c0.22,0,0.45,0.01,0.66,0.09c0.4,0.14,0.68,0.5,0.94,0.84c0.2-0.19,0.41-0.39,0.61-0.6c0.54-0.59,1.02-1.25,1.11-2.06c0.12-1.06-0.7-1.67-1.25-2.48C7.9-11.82,7.64-15.6,7.5-18.81z" fill="#141414"></path><path d="M9.19-5.54C8.88-5.73,8.5-5.74,8.14-5.73C6.3-5.68,4.47-5.26,2.78-4.51C1.34-3.87,0.1-2.73-1.42-2.29C-2.13-2.08-3-2.18-3.47-2.75c-0.7-0.85-0.17-2.11-0.06-3.21c0.08-0.72-0.05-1.44-0.14-2.16c-0.44-3.59,0.01-7.29,1.3-10.67c0.66,0.78,1.88,0.93,2.85,0.93c-0.36,0-1.37-1.66-1.58-1.96c-0.48-0.68-0.91-1.39-1.26-2.15C-3-23.35-2.33-24.9-2.18-26.41c0.05-0.53,0.06-1.06,0.11-1.6c0.13-1.59,0.63-3.01,1.21-4.49c0.073-0.185,0.15-0.38,0.226-0.573c-1.978,0.465-3.74,1.586-5.234,2.999c-0.075,0.088-0.151,0.173-0.224,0.263c-0.151,0.901-0.313,1.802-0.497,2.701c-0.03,0.18-0.07,0.37-0.05,0.55c0.03,0.38,0.25,0.64,0.13,1.04c-0.1,0.38-0.43,0.67-0.7,0.95c-0.7,0.73-0.97,2.02-1.09,2.95c-0.1,0.77-0.07,1.54-0.16,2.31c-0.08,0.74-0.26,1.48-0.38,2.22c-0.15,0.81-0.09,1.63-0.14,2.46c-0.06,0.93-0.07,1.87-0.07,2.81c0,0.23,0,0.46-0.01,0.7c0,1.53,0,3.11-0.32,4.6c-0.01,0.03-0.01,0.07-0.02,0.1c-0.01,0.06-0.02,0.13-0.03,0.19c-0.15,0.79-0.37,1.59-0.36,2.4c0,0.06,0,0.12,0.01,0.18C-9.65-1.79-8.07-0.97-6.4-0.8c0.36,0.04,0.73,0.05,1.08,0.03c1.05-0.07,2.1-0.36,3.13-0.77c0.62-0.24,1.21-0.51,1.8-0.79c0.05-0.02,0.1-0.05,0.15-0.07C0.08-2.55,0.4-2.7,0.72-2.85c0.01-0.01,0.03-0.02,0.05-0.03c2.04-0.96,4.07-1.83,6.37-1.96C7.32-4.85,7.5-4.85,7.68-4.85c0.22,0,0.45,0.01,0.66,0.09c0.4,0.14,0.68,0.5,0.94,0.84c0.2-0.19,0.41-0.39,0.61-0.6C9.85-4.65,9.8-4.78,9.74-4.91C9.61-5.16,9.44-5.4,9.19-5.54z"></path><path d="M-1.791-5.206C0.3-7.122,2.863-8.124,5.453-9.204c0.26-0.108,0.525-0.218,0.806-0.237c1.124-0.078,2.129,1.012,2.643,1.906c0.11,0.192,0.211,0.399,0.215,0.62S9.002-6.457,8.792-6.389C8.415-6.266,7.637-6.69,7.272-6.782C6.633-6.942,5.979-7.02,5.32-7.037C4.108-7.069,2.896-6.888,1.715-6.63C0.483-6.36-0.665-5.763-1.791-5.206z"></path><path d="M5.81-10.36c-0.33-0.78-0.76-1.47-0.91-2.32c-0.32-1.69-0.19-3.52-0.22-5.24c-0.03-1.76-0.05-3.53-0.05-5.3c0-3.028,0.049-6.062,0.146-9.092c-0.242-0.141-0.485-0.278-0.733-0.39C3.816-26.516,3.789-20.308,4.01-14.13c0.04,0.84,0.1,1.71,0.4,2.51c0.29,0.8,0.76,1.5,0.98,2.33C5.8-7.78,5.65-6.18,5.41-4.64c0.25-0.05,0.51-0.09,0.77-0.13c0.18-1.18,0.29-2.37,0.15-3.55C6.25-9.03,6.09-9.71,5.81-10.36z"></path></g></g><!---0010-00560002100037--><g><g><path style="" d="M6.837-31.044C6.326-31.238,5.789-30.91,5.6-30.449c-0.059,0.144-0.12,0.288-0.184,0.43c-0.02,0.044-0.04,0.088-0.061,0.131c0.31,0.584,0.591,1.182,0.824,1.804c0.045,0.119,0.076,0.241,0.116,0.361c0.011,0.015,0.018,0.032,0.029,0.047c0.438-0.687,0.82-1.409,1.129-2.162C7.655-30.332,7.309-30.866,6.837-31.044z" fill="#FFFFFF"></path></g><g><path style="" d="M-6.486-25.71c0.037,0.076,0.073,0.152,0.112,0.218c0.587,1.016,1.127,1.98,2.066,2.718c1.598,1.257,3.67,1.619,5.651,1.47c1.827-0.138,3.894-0.785,5.104-2.113c0.333-0.365,0.618-0.771,0.859-1.201c-0.029-1.094-0.06-2.188-0.064-3.282c0-4.4,0.22-8.78,0.34-13.18c0.01-0.22,0.01-0.44,0.02-0.66c0.04-1.51,0.04-3.03-0.2-4.51c-0.26-1.6-0.91-3.38-2.06-4.56c-0.25-0.28-0.54-0.52-0.86-0.72c-0.69-0.44-1.52-0.68-2.49-0.61c-1.57,0.11-2.55-0.03-3.75,1.12c-1.41,1.34-2.31,2.89-2.84,4.56c0,0,0,0,0,0.01c-0.51,1.58-0.68,3.28-0.63,5c0.14,4.83-0.39,9.6-1.36,14.34c-0.03,0.18-0.07,0.37-0.05,0.55C-6.615-26.245-6.471-26.008-6.486-25.71z" fill="#141414"></path><path d="M-6.486-25.71c0.037,0.076,0.073,0.152,0.112,0.218c0.587,1.016,1.127,1.98,2.066,2.718c0.637,0.501,1.351,0.854,2.103,1.095c-0.049-0.099-0.107-0.191-0.153-0.292C-3-23.35-2.33-24.9-2.18-26.41c0.05-0.53,0.06-1.06,0.11-1.6c0.13-1.59,0.63-3.01,1.21-4.49c1.11-2.83,2.5-6.52,5.25-8.11c0.6-0.35,1.21-0.7,1.89-0.89c0.33-0.09,0.66-0.14,1-0.19c0.11-0.02,0.21-0.03,0.32-0.05c0.04-1.51,0.04-3.03-0.2-4.51c-0.46-2.78-2.09-6.13-5.41-5.89c-1.57,0.11-2.55-0.03-3.75,1.12c-2.76,2.63-3.57,6.04-3.47,9.57c0.14,4.83-0.39,9.6-1.36,14.34c-0.03,0.18-0.07,0.37-0.05,0.55C-6.615-26.245-6.471-26.008-6.486-25.71z"></path><path d="M4.64-22.14c-0.002-0.361-0.01-0.719-0.01-1.08c0-3.56,0.05-7.13,0.19-10.69c0.13-3.27,0.4-6.52,0.6-9.79c0.02-0.21,0.03-0.43,0.04-0.64c0.05-0.75,0.08-1.5,0.08-2.26c0.03-1.41-0.02-2.82-0.2-4.21c-0.25-0.28-0.54-0.52-0.86-0.72c0.31,1.89,0.36,3.84,0.29,5.76c-0.01,0.17-0.01,0.35-0.02,0.52c-0.03,0.73-0.07,1.46-0.11,2.18c-0.16,2.65-0.39,5.29-0.51,7.93c-0.203,4.428-0.284,8.872-0.262,13.312C4.132-21.92,4.39-22.023,4.64-22.14z"></path></g></g><!---0021-00580003100022--><g><path style="" d="M7.44-46.2c-0.06,0.23-0.17,0.43-0.3,0.63C6.77-45,6.28-44.5,5.78-44.03c-0.12,0.11-0.24,0.22-0.36,0.33c-0.25,0.22-0.51,0.43-0.78,0.63c-2.29,1.76-5.11,2.82-7.99,3.16c-0.12,0.01-0.24,0.03-0.36,0.03c-1.53,0.16-3.07,0.11-4.59-0.11c-0.25-0.03-0.49-0.06-0.74-0.11c-0.92-0.16-1.83-0.38-2.73-0.67c-0.23-0.06-0.45-0.13-0.67-0.21c-0.27-0.09-0.54-0.19-0.8-0.29c-0.04-0.01-0.07-0.03-0.11-0.04c-0.47-0.19-1.05-0.4-1.62-0.68c-0.19-0.1-0.38-0.19-0.56-0.3c-0.12-0.06-0.23-0.13-0.33-0.2s-0.2-0.14-0.29-0.21c-0.03-0.02-0.05-0.04-0.08-0.06c-0.25-0.19-0.47-0.41-0.64-0.66c-0.06-0.08-0.12-0.18-0.17-0.27s-0.09-0.17-0.12-0.27c-0.01-0.01-0.01-0.03-0.02-0.05c-0.03-0.08-0.05-0.17-0.06-0.26c-0.01-0.02-0.01-0.03-0.01-0.04c-0.02-0.11-0.03-0.22-0.03-0.33v-0.08c0.11-3.15,0.74-6.29,1.85-9.24c0.11-0.3,0.26-0.64,0.53-0.82c0.29-0.21,0.55-0.05,0.81,0.13c0.14,0.1,0.29,0.2,0.46,0.29c0.25,0.14,0.52,0.27,0.8,0.38c0.6,0.24,1.24,0.43,1.79,0.61c0.22,0.07,0.43,0.13,0.65,0.19c0.19,0.05,0.39,0.1,0.58,0.15c0.04,0.01,0.08,0.02,0.12,0.03c0.21,0.05,0.41,0.09,0.61,0.13c0.22,0.05,0.45,0.09,0.67,0.12c0.25,0.04,0.51,0.08,0.76,0.11c0.03,0,0.07,0.01,0.1,0.01c0.52,0.06,1.05,0.1,1.58,0.13c1.25,0.07,2.51,0.11,3.76,0.06h0.05c0.3-0.01,0.6-0.03,0.9-0.06h0.04c0.38-0.03,0.77-0.07,1.15-0.12c0.21-0.03,0.41-0.06,0.62-0.09c0.09-0.01,0.19-0.03,0.28-0.05c0.16-0.02,0.32-0.05,0.47-0.09c0.08-0.01,0.15-0.03,0.23-0.05c0.49-0.1,0.96-0.22,1.43-0.37c0.22-0.07,0.44-0.14,0.65-0.22c0.13-0.05,0.26-0.1,0.39-0.16c0.13-0.05,0.26-0.11,0.39-0.17c0.11-0.05,0.21-0.1,0.3-0.15c0.31-0.16,0.52-0.33,0.8-0.61c0.21-0.2,0.62,0.89,0.64,0.94c0.02,0.04,0.03,0.08,0.04,0.12c0.17,0.42,0.32,0.84,0.45,1.27c0.29,0.97,0.5,1.96,0.64,2.95c0.01,0.04,0.01,0.08,0.02,0.12C7.42-48.26,7.67-47.09,7.44-46.2z" fill="#2C2C2C"></path><path style="" d="M6.17-53.52c-0.38,0.23-0.79,0.41-1.21,0.57c-0.23,0.1-0.47,0.18-0.72,0.25c-0.33,0.12-0.68,0.21-1.02,0.3c-0.55,0.13-1.1,0.18-1.64,0.28c-0.07,0.01-0.15,0.02-0.22,0.04c-0.26,0.05-0.51,0.1-0.77,0.14c-0.42,0.07-0.84,0.12-1.26,0.17c-0.16,0.02-0.32,0.03-0.48,0.04c-0.33,0.04-0.66,0.06-0.99,0.08c-0.87,0.05-1.75,0.06-2.64,0.03c-0.93-0.03-1.86-0.11-2.79-0.24c-0.25-0.04-0.51-0.08-0.76-0.12c-0.85-0.14-1.7-0.33-2.54-0.55c-0.06,0.16-0.11,0.3-0.16,0.43c-0.03,0.14-0.06,0.28-0.1,0.43c0.48,0.34,1.03,0.59,1.6,0.75c0.43,0.13,0.87,0.21,1.32,0.27c0.25,0.03,0.5,0.06,0.75,0.08c0.15,0.02,0.3,0.03,0.45,0.04c0.88,0.09,1.84,0.24,2.71,0.09c-1.03,0.22-2.09,0.31-3.14,0.29c-0.25,0-0.49-0.01-0.74-0.03c-1.08-0.07-2.16-0.27-3.19-0.58c-0.83,3.12-1.45,6.29-1.87,9.49c-0.04-0.01-0.07-0.03-0.11-0.04c-0.47-0.19-1.05-0.4-1.62-0.68c-0.19-0.1-0.38-0.19-0.56-0.3c-0.12-0.06-0.23-0.13-0.33-0.2s-0.2-0.14-0.29-0.21c-0.03-0.02-0.05-0.04-0.08-0.06c-0.25-0.19-0.47-0.41-0.64-0.66c-0.06-0.08-0.12-0.18-0.17-0.27s-0.09-0.17-0.12-0.27c-0.01-0.01-0.01-0.03-0.02-0.05c-0.03-0.08-0.05-0.17-0.06-0.26c-0.01-0.02-0.01-0.03-0.01-0.04c-0.02-0.11-0.03-0.22-0.03-0.33v-0.08c0.11-3.15,0.74-6.29,1.85-9.24c0.11-0.3,0.26-0.64,0.53-0.82c0.29-0.21,0.55-0.05,0.81,0.13c0.14,0.1,0.29,0.2,0.46,0.29c0.25,0.14,0.52,0.27,0.8,0.38c0.6,0.24,1.24,0.43,1.79,0.61c0.22,0.07,0.43,0.13,0.65,0.19c0.19,0.06,0.39,0.11,0.58,0.15c0.04,0.01,0.08,0.02,0.12,0.03c0.2,0.05,0.41,0.09,0.61,0.13c0.22,0.05,0.45,0.09,0.67,0.12c0.25,0.04,0.51,0.08,0.76,0.11c0.03,0,0.07,0.01,0.1,0.01c0.52,0.06,1.05,0.1,1.58,0.13c1.25,0.07,2.51,0.11,3.76,0.06h0.05c0.3-0.01,0.6-0.03,0.9-0.06h0.04c0.38-0.03,0.77-0.07,1.15-0.12c0.21-0.03,0.41-0.06,0.62-0.09c0.09-0.01,0.19-0.03,0.28-0.05c0.16-0.02,0.32-0.05,0.47-0.09c0.08-0.01,0.15-0.03,0.23-0.05c0.49-0.1,0.96-0.22,1.43-0.37c0.22-0.07,0.43-0.14,0.65-0.22c0.13-0.05,0.26-0.1,0.39-0.16c0.13-0.05,0.26-0.11,0.39-0.17c0.11-0.05,0.21-0.1,0.3-0.15c0.31-0.16,0.52-0.33,0.8-0.61c0.21-0.2,0.62,0.89,0.64,0.94C6.15-53.6,6.16-53.56,6.17-53.52z" fill="#141414"></path><path style="" d="M-5.57-40.56c-0.06,0.12-0.18,0.2-0.31,0.23c-0.5,0.12-1.01-0.28-1.49-0.4c-0.26-0.07-0.53-0.12-0.8-0.16c-0.24-0.04-0.49-0.07-0.74-0.09C-9.04-40.99-9.18-41-9.31-41c-0.83-0.03-1.66,0.05-2.46,0.23c-0.23-0.06-0.45-0.13-0.67-0.21c0.35-0.28,0.7-0.53,1.07-0.78c0.49-0.33,1.12-0.86,1.7-1.01c0.35-0.09,0.7-0.07,1.05,0.02c0.24,0.05,0.47,0.14,0.7,0.26c0.56,0.25,1.09,0.62,1.54,0.9c0.26,0.17,0.62,0.37,0.78,0.65C-5.54-40.83-5.52-40.68-5.57-40.56z" fill="#141414"></path><path style="" d="M5.54-46.6c0,0.76-0.03,1.51-0.08,2.26c-0.01,0.21-0.02,0.43-0.04,0.64c-0.25,0.22-0.51,0.43-0.78,0.63c0.04-0.72,0.08-1.45,0.11-2.18c0.01-0.17,0.01-0.35,0.02-0.52c0.07-1.92,0.02-3.87-0.29-5.76c-0.07-0.39-0.14-0.78-0.24-1.17C4.17-53.02,4.09-53.34,4-53.65c0.13-0.05,0.26-0.11,0.39-0.17c0.11-0.05,0.21-0.1,0.3-0.15c0.1,0.34,0.19,0.68,0.27,1.02c0.17,0.71,0.29,1.42,0.38,2.14C5.52-49.42,5.57-48.01,5.54-46.6z" fill="#141414"></path><path style="" d="M7.44-46.2c-0.06,0.23-0.17,0.43-0.3,0.63C6.77-45,6.28-44.5,5.78-44.03c-0.12,0.11-0.24,0.22-0.36,0.33c-0.25,0.22-0.51,0.43-0.78,0.63c-2.29,1.76-5.11,2.82-7.99,3.16c-0.12,0.01-0.24,0.03-0.36,0.03c0.01-0.02,0.01-0.03,0.02-0.05c0.1-0.22,0.27-0.38,0.42-0.56c0.43-0.48,0.76-1.04,1.02-1.63c0.14-0.59,0.14-1.23,0.17-1.79c0.07-1.05,0.11-2.1,0.11-3.15c0.01-1.54-0.05-3.06-0.17-4.59c-0.02-0.26-0.05-0.53-0.07-0.79h0.05c0.3-0.01,0.6-0.03,0.9-0.06h0.04c0.03,0.26,0.05,0.51,0.07,0.77c0.14,1.64,0.2,3.27,0.17,4.91c0.29-0.23,0.57-0.47,0.81-0.74c0.39-0.47,0.57-1,0.64-1.61c0.11-0.92,0.15-1.84,0.12-2.77c-0.01-0.26-0.02-0.52-0.04-0.77c0.09-0.01,0.19-0.03,0.28-0.05c0.16-0.02,0.32-0.05,0.47-0.09c0.08-0.01,0.15-0.03,0.23-0.05c0.02,0.26,0.03,0.52,0.05,0.78c0.05,1.16,0.01,2.34-0.18,3.48c-0.24,1.41-1.3,2.28-2.38,3.08c-0.01,0-0.02,0-0.02,0.01c-0.03,0.89-0.07,1.79-0.15,2.68c-0.03,0.33-0.09,0.65-0.16,0.96c0.02,0.02,0.04,0.04,0.06,0.06c2.2-0.87,4.32-2.21,6.02-3.92c0.27-0.26,0.53-0.54,0.77-0.83c0.14-0.15,0.27-0.31,0.4-0.47c0.52-0.66,0.98-1.36,1.34-2.11C7.42-48.26,7.67-47.09,7.44-46.2z" fill="#141414"></path><path d="M-7.92-42.49c-0.04,0.22-0.07,0.43-0.11,0.65c-0.05,0.32-0.1,0.63-0.14,0.95c-0.24-0.04-0.49-0.07-0.74-0.09c0.08-0.59,0.18-1.18,0.29-1.77C-8.38-42.7-8.15-42.61-7.92-42.49z"></path><path d="M-12.83-53.98c-1.33,0.58-1.66,2.22-1.83,3.64c-0.04,0.35-0.07,0.69-0.11,1c-0.25,2.35-0.51,4.7-0.76,7.05c-0.12-0.06-0.23-0.13-0.33-0.2s-0.2-0.14-0.29-0.21c-0.03-0.02-0.05-0.04-0.08-0.06c0.11-0.95,0.21-1.9,0.31-2.85c0.12-1.12,0.19-2.27,0.32-3.41c0.08-0.86,0.2-1.72,0.38-2.55c0.24-1.1,0.7-2.16,1.59-2.79C-13.38-54.22-13.11-54.09-12.83-53.98z"></path><path style="" d="M-8.17-40.89c-0.05,0.3-0.09,0.6-0.13,0.9c-0.25-0.03-0.49-0.06-0.74-0.11c0.04-0.29,0.08-0.59,0.13-0.88C-8.66-40.96-8.41-40.93-8.17-40.89z" fill="#141414"></path><path style="" d="M-7.36-47.97c0,1.87-0.26,3.66-0.56,5.48c-0.23-0.12-0.46-0.21-0.7-0.26c0.01-0.07,0.03-0.15,0.04-0.22c0.45-2.39,0.55-4.8,0.4-7.21c-0.01-0.16-0.02-0.31-0.03-0.47c-0.02-0.33-0.05-0.67-0.08-1c-0.01-0.11-0.02-0.22-0.04-0.33c-0.01-0.26-0.05-0.51-0.08-0.77c0.25,0.04,0.51,0.08,0.76,0.11c0.03,0.26,0.06,0.52,0.08,0.78c0.03,0.24,0.05,0.47,0.07,0.71c0.02,0.19,0.03,0.39,0.04,0.58c0.02,0.14,0.02,0.28,0.02,0.42C-7.38-49.42-7.36-48.7-7.36-47.97z" fill="#141414"></path></g><!---0029-00330003000046--><g><g><path style="" d="M-2.46-4.97c-0.28-0.48-0.5-1.01-0.77-1.5c-1.48-2.67-1.55-5.83-1.66-8.81c-0.13-3.35-0.25-6.7-0.26-10.05c-0.003-0.894-0.003-1.79,0.003-2.687c-0.461-0.717-1.168-1.322-1.859-1.651c-0.071-0.022-0.135-0.052-0.209-0.07c-1.684-0.396-3.731-0.211-5.422,0.062c-1.462,0.236-2.886,0.903-4.201,1.784c-0.083,0.088-0.169,0.173-0.249,0.263c-0.109,0.123-0.303,0.296-0.422,0.461c-0.001,0.017-0.022,0.067-0.092,0.162c-0.078,0.107-0.156,0.215-0.232,0.324c-0.137,0.197-0.269,0.396-0.398,0.598c-0.238,0.374-0.457,0.758-0.67,1.147c-0.028,0.159-0.052,0.317-0.081,0.476c-0.04,0.2-0.08,0.41-0.06,0.61c0.04,0.42,0.25,0.71,0.14,1.15c-0.11,0.42-0.43,0.74-0.71,1.05c-0.7,0.8-0.96,2.23-1.08,3.26c-0.1,0.85-0.08,1.71-0.16,2.56c-0.08,0.82-0.26,1.63-0.39,2.44c-0.14,0.91-0.09,1.82-0.14,2.73c-0.05,1.03-0.06,2.07-0.07,3.1c-0.01,2.07-0.02,4.14-0.37,6.18c-0.16,0.89-0.38,1.77-0.36,2.66c0.01,0.44,0.07,0.83,0.19,1.17c0.03,0.12,0.08,0.23,0.13,0.33c0.04,0.11,0.1,0.21,0.16,0.3c0.05,0.09,0.1,0.17,0.17,0.25c0.1,0.13,0.21,0.25,0.33,0.36c0.07,0.07,0.15,0.14,0.24,0.2c0.34,0.25,0.73,0.44,1.15,0.56c0.08,0.03,0.16,0.05,0.24,0.07c0.11,0.03,0.22,0.05,0.34,0.07c0.21,0.04,0.44,0.06,0.66,0.08h0.04c0.26,0.01,0.52,0.01,0.77-0.01c0.09,0,0.17-0.01,0.24-0.02c0.19-0.01,0.37-0.04,0.56-0.07c0.32-0.05,0.62-0.12,0.92-0.21c0.2-0.06,0.4-0.12,0.59-0.19c0.3-0.1,0.59-0.21,0.88-0.33c1.09-0.46,2.15-1.03,3.18-1.62c0.41-0.23,0.85-0.51,1.29-0.79c0.14-0.09,0.29-0.19,0.44-0.28c0.15-0.09,0.3-0.18,0.46-0.27C-8.89,0.7-8.58,0.54-8.27,0.4c0.15-0.06,0.3-0.12,0.45-0.17c0.21-0.07,0.43-0.13,0.64-0.17c0.04-0.01,0.07-0.01,0.11-0.01c0.34-0.03,0.72,0.04,1.01-0.02c0.81-0.18,1.65-0.1,2.47-0.21c0.3-0.03,0.6-0.1,0.85-0.26c0.38-0.25,0.5-0.65,0.57-1.07c0-0.01,0-0.03,0.01-0.04c0.03-0.25,0.06-0.5,0.11-0.74c0.07-0.29,0.18-0.58,0.21-0.87C-1.76-3.86-2.13-4.4-2.46-4.97z" fill="#2C2C2C"></path><path style="" d="M-2.17-1.51c-0.07,0.42-0.19,0.82-0.57,1.07c-0.25,0.16-0.55,0.23-0.85,0.26c-0.82,0.11-1.66,0.03-2.47,0.21c-0.29,0.06-0.67-0.01-1.01,0.02c-0.04,0-0.07,0-0.11,0.01c-0.21,0.04-0.43,0.1-0.64,0.17c-1.24,0.42-2.47,1.37-3.57,1.99c-1.03,0.59-2.09,1.16-3.18,1.62c-0.29,0.12-0.58,0.23-0.88,0.33c0.09-0.09,0.18-0.16,0.27-0.23c2.02-1.58,4.11-3.08,6.2-4.58c0.36-0.26,0.73-0.52,1.11-0.74c0.23-0.14,0.46-0.26,0.71-0.36C-7.11-1.77-7.05-1.79-7-1.81C-5.45-2.37-3.77-2.01-2.17-1.51z" fill="#141414"></path><path style="" d="M-3.85-2.59c-0.33,0.11-0.69,0.03-1.03-0.04c-0.45-0.11-0.9-0.19-1.34-0.24c-0.34-0.04-0.69-0.06-1.03-0.07c-0.24-0.02-0.47-0.02-0.71,0C-9-2.93-10.05-2.79-11.11-2.56c-1.99,0.43-4.86,1.1-6.51,2.33c2.93-2.17,5.78-4.26,8.97-6.02c0.14-0.08,0.28-0.15,0.42-0.23C-8-6.59-7.76-6.7-7.51-6.77c0.24-0.07,0.48-0.11,0.73-0.1c0.88,0.04,1.61,0.67,2.23,1.3c0.33,0.34,0.39,0.55,0.69,0.93C-3.45-4.12-2.85-2.94-3.85-2.59z" fill="#141414"></path><path style="" d="M-14.92-23.37c0.145-1.967,0.322-3.885,0.505-5.796c-0.845,0.326-1.662,0.775-2.444,1.297c-0.076,0.081-0.154,0.158-0.228,0.241c-0.109,0.123-0.303,0.296-0.422,0.461c-0.001,0.017-0.022,0.067-0.092,0.162c-0.078,0.107-0.156,0.215-0.232,0.324c-0.137,0.197-0.269,0.396-0.398,0.598c-0.235,0.369-0.452,0.749-0.662,1.133c-0.031,0.163-0.056,0.327-0.089,0.49c-0.04,0.2-0.08,0.41-0.06,0.61c0.04,0.42,0.25,0.71,0.14,1.15c-0.11,0.42-0.43,0.74-0.71,1.05c-0.7,0.8-0.96,2.23-1.08,3.26c-0.1,0.85-0.08,1.71-0.16,2.56c-0.08,0.82-0.26,1.63-0.39,2.44c-0.14,0.91-0.09,1.82-0.14,2.73c-0.05,1.03-0.06,2.07-0.07,3.1c-0.01,2.07-0.02,4.14-0.37,6.18c-0.16,0.89-0.38,1.77-0.36,2.66c0.01,0.44,0.07,0.83,0.19,1.17c0.03,0.12,0.08,0.23,0.13,0.33c0.04,0.11,0.1,0.21,0.16,0.3c0.05,0.09,0.1,0.17,0.17,0.25c0.1,0.13,0.21,0.25,0.33,0.36c0.07,0.07,0.16,0.14,0.24,0.2c0.34,0.25,0.73,0.44,1.15,0.56c0.08,0.03,0.16,0.05,0.24,0.07c0.11,0.03,0.22,0.05,0.34,0.07c0.21,0.04,0.44,0.06,0.66,0.08h0.04c0.26,0.01,0.52,0.01,0.77-0.01c0.09,0,0.17-0.01,0.24-0.02c0.19-0.01,0.37-0.04,0.56-0.07c0-0.52-0.28-1-0.53-1.46c-0.9-1.69-1.46-3.59-1.37-5.51c0.1-2.22,0.89-4,0.77-6.23c-0.1-2.01,0.05-4.03,0.44-6c0.32-1.61,0.71-4.02,1.75-5.34c0.52,0.49,1.13,0.88,1.78,1.16c0.15,0.07,0.39,0.07,0.4-0.09c0-0.06-0.03-0.11-0.06-0.16C-14.79-20.51-15.05-21.67-14.92-23.37z" fill="#141414"></path><path style="" d="M-9.07-10.82c-0.14-0.53-0.26-1.07-0.35-1.64c-0.27-1.76-0.32-3.56-0.33-5.34c-0.02-3.93,0.15-7.85,0.49-11.77c0.011-0.125,0.02-0.251,0.03-0.376c-0.248-0.004-0.493-0.017-0.743-0.008c-0.295,3.489-0.501,6.974-0.527,10.474c-0.02,3.24-0.06,6.62,0.93,9.74c0.12,0.38,0.27,0.76,0.44,1.13c0.31,0.71,0.66,1.41,0.9,2.13C-8-6.59-7.76-6.7-7.51-6.77c-0.09-0.25-0.2-0.5-0.31-0.75C-8.32-8.63-8.75-9.69-9.07-10.82z" fill="#141414"></path><path style="" d="M-7.87-1.38v-0.05c-0.06-0.52-0.08-1.01-0.09-1.51c0.24-0.02,0.47-0.02,0.71,0c0,0.15,0.01,0.3,0.02,0.45c0.02,0.25,0.05,0.5,0.07,0.75C-7.41-1.64-7.64-1.52-7.87-1.38z" fill="#141414"></path><path d="M-7.91-4.33c0.06-0.76-0.08-1.47-0.32-2.15C-8-6.59-7.76-6.7-7.51-6.77c0.18,0.49,0.32,1,0.37,1.53c0.07,0.77-0.1,1.53-0.11,2.3c-0.24-0.02-0.47-0.02-0.71,0C-7.97-3.39-7.95-3.85-7.91-4.33z"></path><path d="M-7.07,0.05c-0.04,0-0.07,0-0.11,0.01c-0.21,0.04-0.43,0.1-0.64,0.17c0.06-0.45,0.03-0.92-0.02-1.37c-0.01-0.09-0.02-0.15-0.03-0.24c0.23-0.14,0.46-0.26,0.71-0.36c0.04,0.28,0.07,0.56,0.09,0.84C-7.05-0.58-7.04-0.26-7.07,0.05z"></path><path d="M-16.94-27.783c-0.048,0.052-0.099,0.102-0.146,0.155c-0.109,0.123-0.303,0.296-0.422,0.461c-0.001,0.017-0.022,0.067-0.092,0.162c-0.033,0.045-0.065,0.091-0.098,0.137c-0.003,0.54-0.004,1.08,0.027,1.619c0.08,1.17,0.24,2.31-0.28,3.41c-0.41,0.86-0.9,1.63-1.12,2.56c-0.46,1.95-0.48,4.06-0.63,6.06c-0.16,2.08-0.27,4.17-0.29,6.26c-0.03,3.92,0.33,7.87,1.46,11.63c0.26,0.01,0.52,0.01,0.77-0.01c-2.15-7.04-1.51-14.6-0.85-21.85c0.1-1.08,0.23-2.15,0.71-3.14c0.4-0.81,0.89-1.55,1.03-2.47c0.15-1-0.04-2.04-0.08-3.05C-16.968-26.496-16.96-27.14-16.94-27.783z"></path></g><g><path style="" d="M-13.64-17.42c-0.96,0.54-1.84,1.19-2.63,1.94c-1.02,0.97-1.88,2.1-2.53,3.33c-0.25,0.49-0.48,0.99-0.66,1.51c-0.18,0.48-0.68,0.8-1.22,0.65c-0.49-0.12-0.86-0.67-0.69-1.16c0.28-0.78,0.63-1.53,1.04-2.25c0.79-1.39,1.81-2.66,3.01-3.73v-0.01c0.82-0.73,1.72-1.37,2.69-1.91C-13.53-19.67-12.54-18.04-13.64-17.42z" fill="#D3D3D3"></path><path style="" d="M-14.3,6.74c0.01,0.08,0.01,0.16,0,0.24c-0.03,0.28-0.05,0.56-0.08,0.84c-0.01,0.12-0.03,0.26-0.13,0.33c-0.12,0.09-0.28,0.03-0.41-0.03c-1-0.51-1.42-1.43-1.83-2.41c-0.16-0.38-0.33-0.77-0.48-1.16c-0.2-0.48-0.4-0.97-0.57-1.46c-0.16-0.38-0.3-0.76-0.44-1.14c-0.35-0.99-0.68-1.98-0.96-2.99c-0.26-0.92-0.66-1.98-0.62-2.94c0.01-0.13,0.03-0.27,0.07-0.39c0.03-0.09,0.07-0.17,0.13-0.24c0.15-0.18,0.42-0.26,0.61-0.13c0.07,0.05,0.12,0.13,0.17,0.21c0.14,0.21,0.26,0.42,0.37,0.64c0.82,1.54,1.16,3.28,1.74,4.92c0.26,0.73,0.54,1.45,0.84,2.17c0.07,0.21,0.16,0.41,0.24,0.62c0.16,0.4,0.27,0.84,0.47,1.23c0.23,0.46,0.5,0.91,0.75,1.37C-14.37,6.52-14.32,6.63-14.3,6.74z" fill="#B2B2B2"></path><path style="" d="M-17.48,8.6c-0.01,0.13-0.03,0.26-0.05,0.39c0,0.06-0.01,0.11-0.02,0.17c-0.03,0.12-0.06,0.23-0.12,0.33c-0.09,0.16-0.32,0.29-0.47,0.18c-0.06-0.04-0.1-0.1-0.13-0.16c-0.37-0.67-0.75-1.34-0.92-2.07c-0.04-0.19-0.08-0.39-0.09-0.59c-0.08-1.07-0.22-2.14-0.33-3.21c-0.23-2.2-0.44-4.41-0.63-6.62c-0.04-0.46-0.08-0.93-0.12-1.39c-0.11-1.29,1.75-1.27,1.85,0c0.01,0.16,0.03,0.32,0.04,0.48c0.18,2.05,0.37,4.1,0.57,6.14c0.03,0.28,0.06,0.56,0.1,0.84c0.14,1.22,0.31,2.45,0.36,3.68c0,0.01,0,0.01,0,0.02C-17.42,7.4-17.42,8-17.48,8.6z" fill="#B2B2B2"></path><path style="" d="M-12.83-1.07c0,0.28-0.05,0.55-0.16,0.82c-0.25,0.59-0.78,1-1.3,1.38c0,0-0.01,0-0.01,0.01c-0.81,0.6-1.64,1.29-2.59,1.67c-0.07,0.03-0.14,0.05-0.21,0.06c-0.15,0.01-0.31-0.06-0.42-0.17c-0.34-0.31-0.51-0.81-0.68-1.23c-0.19-0.47-0.36-0.95-0.5-1.44c-0.3-0.97-0.52-1.97-0.67-2.97c-0.08-0.48-0.13-0.98-0.01-1.45c0.05-0.16,0.14-0.34,0.31-0.36c0.17-0.01,0.29,0.16,0.36,0.32c0.06,0.14,0.15,0.3,0.23,0.44c0.23,0.47,0.45,0.94,0.67,1.41c0.25,0.55,0.49,1.11,0.71,1.67c0.07,0.18,0.34,1.29,0.55,1.3c0.04,0,0.08-0.02,0.12-0.04c0.49-0.23,0.94-0.52,1.35-0.87c0.13-0.11,0.25-0.23,0.33-0.38c0.14-0.26,0.04-0.47-0.12-0.68c-0.08-0.1-0.15-0.2-0.24-0.3c-1.06-1.36-2.37-2.54-3.84-3.46c-0.15-0.09-0.32-0.19-0.44-0.33C-19.52-5.81-19.6-6-19.56-6.19c0.03-0.12,0.1-0.23,0.18-0.33c0.06-0.08,0.12-0.16,0.2-0.21c0.21-0.13,0.48-0.02,0.71,0.09c1.27,0.64,2.51,1.35,3.59,2.29C-14-3.59-12.85-2.34-12.83-1.07z" fill="#D3D3D3"></path><path style="" d="M-18.83-4.73c-0.2-0.11-0.4-0.21-0.61-0.31c-0.17-0.08-0.3-0.22-0.37-0.39c0.37,0,0.74,0.16,0.89,0.49C-18.89-4.87-18.86-4.8-18.83-4.73z" fill="#D3D3D3"></path><path style="" d="M-18.74-4.88c-0.01-0.02-0.03-0.03-0.05-0.03c0.1-0.38,0.03-0.92-0.3-1.16c-0.18-0.14-0.36-0.14-0.54-0.08c-0.27,0.1-0.53,0.38-0.68,0.61c-0.78,1.11-1.56,2.22-2.26,3.39c-0.627,1.051-1.092,2.13-1.553,3.248c0.47,0.439,0.913,0.906,1.304,1.416c0.219-0.564,0.44-1.128,0.689-1.684c0.36-0.83,0.84-1.55,1.31-2.32c0.03-0.04,0.05-0.09,0.08-0.13c-0.1,0.47-0.18,0.94-0.25,1.41v0.01c-0.33,2.32-0.41,4.72-1.1,6.96c-0.02-0.03-0.05-0.06-0.07-0.09c-0.32-0.41-0.64-0.83-0.96-1.24c-0.28-0.35-0.51-0.68-0.35-1.14c0.17-0.48,0.34-0.95,0.51-1.43c0.044-0.116,0.096-0.23,0.141-0.346c-0.391-0.511-0.834-0.978-1.304-1.416c-0.039,0.094-0.078,0.187-0.117,0.282c-0.24,0.6-0.48,1.2-0.72,1.79c-0.22,0.54-0.59,1.36-0.42,1.96c0.07,0.24,0.24,0.45,0.39,0.65c0.3,0.39,0.6,0.79,0.89,1.19c0.18,0.26,0.34,0.53,0.54,0.77c0.06,0.08,0.12,0.15,0.19,0.22c0.5,0.51,1.13,1.11,1.89,0.82c0.86-0.32,1.28-1.5,1.43-2.36c0.2-1.09,0.23-2.21,0.32-3.32c0.09-1.09,0.2-2.19,0.34-3.28c0.03-0.18,0.05-0.37,0.08-0.55c0.18-1.2,0.46-2.38,0.67-3.57c0.01-0.05,0.02-0.1,0.02-0.16C-18.61-4.61-18.64-4.77-18.74-4.88z" fill="#D3D3D3"></path><path style="" d="M-12.83-1.07c0,0.28-0.05,0.55-0.16,0.82c-0.25,0.59-0.78,1-1.3,1.38c0,0-0.01,0-0.01,0.01c0.19-0.94,0.16-1.91-0.49-2.69c-0.1-0.12-0.2-0.23-0.32-0.33c-1.06-1.36-2.37-2.54-3.84-3.46c-0.15-0.09-0.32-0.19-0.44-0.33C-19.52-5.81-19.6-6-19.56-6.19c0.03-0.12,0.1-0.23,0.18-0.33c0.06-0.08,0.12-0.16,0.2-0.21c0.21-0.13,0.48-0.02,0.71,0.09c1.27,0.64,2.51,1.35,3.59,2.29C-14-3.59-12.85-2.34-12.83-1.07z" fill="#FFFFFF"></path><path style="" d="M-19.39-0.18c-0.14,1.09-0.25,2.19-0.34,3.28c-0.09,1.11-0.12,2.23-0.32,3.32c-0.15,0.86-0.57,2.04-1.43,2.36c-0.76,0.29-1.39-0.31-1.89-0.82c-0.07-0.07-0.13-0.14-0.19-0.22c0.42-0.05,0.83-0.28,1.11-0.6c0.1-0.1,0.19-0.22,0.25-0.36c0.02-0.04,0.03-0.07,0.04-0.11c0.02,0.03,0.05,0.06,0.07,0.09c0.69-2.24,0.77-4.64,1.1-6.96c0.05,0.14,0.12,0.28,0.2,0.41c0.06,0.08,0.12,0.16,0.2,0.21c0.22,0.16,0.54,0.11,0.76-0.04C-19.63,0.24-19.5,0.03-19.39-0.18z" fill="#FFFFFF"></path><path style="" d="M-17.44,6.79C-17.42,7.4-17.42,8-17.48,8.6c-0.01,0.13-0.03,0.26-0.05,0.39c0,0.06-0.01,0.11-0.02,0.17c-0.03,0.12-0.06,0.23-0.12,0.33c-0.09,0.16-0.32,0.29-0.47,0.18c-0.06-0.04-0.1-0.1-0.13-0.16c-0.37-0.67-0.75-1.34-0.92-2.07c0.24,0.2,0.55,0.32,0.87,0.35c0.11,0,0.22,0,0.32-0.05c0.11-0.05,0.19-0.15,0.26-0.25C-17.6,7.27-17.5,7.04-17.44,6.79z" fill="#D3D3D3"></path><path style="" d="M-14.3,6.74c0.01,0.08,0.01,0.16,0,0.24c-0.03,0.28-0.05,0.56-0.08,0.84c-0.01,0.12-0.03,0.26-0.13,0.33c-0.12,0.09-0.28,0.03-0.41-0.03c-1-0.51-1.42-1.43-1.83-2.41c-0.16-0.38-0.33-0.77-0.48-1.16c0.22,0.04,0.46-0.01,0.65-0.13c0.3-0.19,0.47-0.52,0.59-0.85c0.04-0.12,0.07-0.24,0.1-0.37c0.07,0.21,0.16,0.41,0.24,0.62c0.16,0.4,0.27,0.84,0.47,1.23c0.23,0.46,0.5,0.91,0.75,1.37C-14.37,6.52-14.32,6.63-14.3,6.74z" fill="#D3D3D3"></path><path style="" d="M-20.343-17.206c0.522,2.715,2.684,4.669,4.731,6.402c0.381,0.323,0.999,0.392,1.369,0c0.335-0.354,0.408-0.984,0-1.329c-0.976-0.826-1.959-1.658-2.78-2.636c-0.686-0.818-1.241-1.835-1.453-2.936c-0.093-0.484-0.723-0.804-1.191-0.657C-20.2-18.195-20.442-17.725-20.343-17.206L-20.343-17.206z" fill="#FFFFFF"></path><path style="" d="M-20.778-5.356c-0.056,0.625,0.088,1.245,0.76,1.319c0.24,0.027,0.48-0.083,0.662-0.242c0.698-0.611,1.133-1.454,1.119-2.397c-0.009-0.611-0.518-1.245-1.175-0.934c-0.483,0.228-0.853,0.658-1.077,1.143C-20.609-6.208-20.74-5.781-20.778-5.356z" fill="#FFFFFF"></path><path style="" d="M-18.8-12.15c-0.25,0.49-0.48,0.99-0.66,1.51c-0.18,0.48-0.68,0.8-1.22,0.65c-0.49-0.12-0.86-0.67-0.69-1.16c0.28-0.78,0.63-1.53,1.04-2.25c-0.03,0.29,0.04,0.58,0.24,0.83C-19.79-12.2-19.26-12.04-18.8-12.15z" fill="#B2B2B2"></path><path style="" d="M-13.64-17.42c-0.96,0.54-1.84,1.19-2.63,1.94h-0.09c-0.33-0.01-0.67-0.15-0.86-0.42c-0.17-0.24-0.2-0.55-0.17-0.85c0.01-0.13,0.04-0.26,0.07-0.38v-0.01c0.82-0.73,1.72-1.37,2.69-1.91C-13.53-19.67-12.54-18.04-13.64-17.42z" fill="#FFFFFF"></path></g></g><!---0023-00560002200039--><g><g><path style="" d="M-18.9-22.7c-0.004,0.016-0.013,0.03-0.018,0.045c0.361,0.786,0.845,1.493,1.553,2.048c1.558,1.222,4.002,1.354,5.961,1.125c1.744-0.204,3.954-0.492,5.215-1.832c0.553-0.588,0.881-1.278,1.073-2.015c-0.01-0.667-0.032-1.334-0.034-2.001c-0.01-2.58-0.01-5.18,0.17-7.75c0.18-2.69,0.73-5.35,0.87-8.04c0.09-1.78-0.02-3.63-0.49-5.33c0-0.01,0-0.01,0-0.01c-0.38-1.36-0.98-2.62-1.89-3.7c-0.01-0.02-0.03-0.03-0.04-0.05c-0.09-0.1-0.18-0.2-0.27-0.3c-0.22-0.23-0.45-0.44-0.7-0.64c-0.25-0.19-0.51-0.36-0.79-0.5c-0.65-0.36-1.37-0.55-2.12-0.49c-0.21,0.02-0.42,0.03-0.61,0.04h-0.01c-1.22,0.07-2.09,0.1-3.13,1.2c-0.17,0.18-0.34,0.37-0.5,0.56c-0.18,0.22-0.35,0.44-0.51,0.66c-0.15,0.22-0.29,0.43-0.43,0.65v0.01c-0.09,0.15-0.18,0.3-0.27,0.45c-0.18,0.31-0.33,0.62-0.47,0.94c-0.06,0.13-0.11,0.26-0.17,0.39c-0.03,0.05-0.05,0.1-0.06,0.15c-0.06,0.14-0.11,0.28-0.16,0.43c-0.07,0.17-0.12,0.34-0.18,0.51c-0.1,0.33-0.19,0.66-0.26,0.99c-0.04,0.13-0.06,0.27-0.09,0.4c-0.16,0.73-0.26,1.48-0.31,2.25c-0.02,0.16-0.03,0.33-0.03,0.49c-0.01,0.18-0.02,0.36-0.02,0.54c-0.01,0.38-0.01,0.77,0,1.16v0.14c0.01,0.23,0.01,0.46,0.01,0.68v0.01c0.01,0.7,0.01,1.4,0,2.1c-0.02,0.78-0.04,1.56-0.09,2.34c-0.02,0.44-0.05,0.89-0.08,1.33c-0.23,3.11-0.64,6.19-1.2,9.26c-0.04,0.2-0.08,0.41-0.06,0.61C-19-23.43-18.79-23.14-18.9-22.7z" fill="#2C2C2C"></path><path style="" d="M-5.57-40.56c-0.06,0.12-0.18,0.2-0.31,0.23c-0.5,0.12-1.01-0.28-1.49-0.4c-0.26-0.07-0.53-0.12-0.8-0.16c-0.24-0.04-0.49-0.07-0.74-0.09C-9.04-40.99-9.18-41-9.31-41c-1.29-0.05-2.59,0.17-3.79,0.64c-0.01-0.06,0.03-0.12,0.08-0.17c0.01-0.02,0.04-0.04,0.06-0.05c0.51-0.42,1.04-0.81,1.59-1.18c0.49-0.33,1.12-0.86,1.7-1.01c0.35-0.09,0.7-0.07,1.05,0.02c0.24,0.05,0.47,0.14,0.7,0.26c0.56,0.25,1.09,0.62,1.54,0.9c0.26,0.17,0.62,0.37,0.78,0.65C-5.54-40.83-5.52-40.68-5.57-40.56z" fill="#141414"></path><path style="" d="M-18.9-22.7c-0.004,0.016-0.013,0.03-0.018,0.045c0.361,0.786,0.845,1.493,1.553,2.048c0.41,0.322,0.884,0.564,1.391,0.748c0.026-0.035,0.047-0.077,0.074-0.111c0.088,0.083,0.191,0.145,0.284,0.222c0.509,0.152,1.043,0.25,1.586,0.302c-0.797-1.277-1.009-2.378-0.89-3.924c0.36-4.88,0.9-9.47,1.3-14.35c0.36-4.41,1.12-8.77,2.25-13.04c1.04,0.32,2.11,0.51,3.19,0.58c0.25,0.02,0.49,0.03,0.74,0.03c0.32,0.01,0.63,0.01,0.95-0.01c-0.01-0.02-0.03-0.03-0.04-0.05c-0.09-0.1-0.18-0.2-0.27-0.3c-0.07-0.01-0.14-0.01-0.21-0.02c-0.15-0.01-0.3-0.02-0.45-0.04c-0.25-0.02-0.5-0.05-0.75-0.08c-0.45-0.06-0.89-0.14-1.32-0.27c-0.57-0.16-1.12-0.41-1.6-0.75c0.04-0.15,0.07-0.29,0.1-0.43c-1.22,0.07-2.09,0.1-3.13,1.2c-0.17,0.18-0.34,0.37-0.5,0.56c-0.18,0.22-0.35,0.44-0.51,0.66c-0.15,0.22-0.29,0.43-0.43,0.65v0.01c-0.09,0.15-0.18,0.3-0.27,0.45c-0.18,0.31-0.33,0.62-0.47,0.94c-0.06,0.13-0.11,0.26-0.17,0.39c-0.03,0.05-0.05,0.1-0.06,0.15c-0.06,0.14-0.11,0.28-0.16,0.43c-0.07,0.17-0.12,0.34-0.18,0.51c-0.1,0.33-0.19,0.66-0.26,0.99c-0.04,0.13-0.06,0.27-0.09,0.4c-0.16,0.73-0.26,1.48-0.31,2.25c-0.02,0.16-0.03,0.33-0.03,0.49c-0.01,0.18-0.02,0.36-0.02,0.54c-0.01,0.38-0.01,0.77,0,1.16v0.14c0.04,0.22,0.01,0.47,0.01,0.68v0.01c0.01,0.7,0.01,1.4,0,2.1c-0.02,0.78-0.04,1.56-0.09,2.34c-0.02,0.44-0.05,0.89-0.08,1.33c-0.2,3.11-0.59,6.22-1.2,9.26c-0.04,0.2-0.08,0.41-0.06,0.61C-19-23.43-18.79-23.14-18.9-22.7z" fill="#141414"></path><path style="" d="M-9.737-19.721c0.035-3.287,0.192-6.568,0.477-9.849c0.3-3.46,0.49-6.96,0.96-10.42c0.04-0.3,0.08-0.6,0.13-0.9c-0.24-0.04-0.49-0.07-0.74-0.09C-8.96-40.69-9-40.39-9.04-40.1c-0.38,2.92-0.56,5.87-0.82,8.8c-0.356,3.901-0.603,7.792-0.638,11.702C-10.246-19.633-9.993-19.674-9.737-19.721z" fill="#141414"></path><path style="" d="M-7.36-47.97c0,1.87-0.26,3.66-0.56,5.48c-0.23-0.12-0.46-0.21-0.7-0.26c0.01-0.07,0.03-0.15,0.04-0.22c0.45-2.39,0.55-4.8,0.4-7.21c-0.01-0.16-0.02-0.31-0.03-0.47c-0.02-0.33-0.05-0.67-0.08-1c0.28,0.14,0.54,0.31,0.79,0.5c0.02,0.19,0.03,0.39,0.04,0.58c0.02,0.14,0.02,0.28,0.02,0.42C-7.38-49.42-7.36-48.7-7.36-47.97z" fill="#141414"></path><path d="M-7.92-42.49c-0.04,0.22-0.07,0.43-0.11,0.65c-0.05,0.32-0.1,0.63-0.14,0.95c-0.24-0.04-0.49-0.07-0.74-0.09c0.08-0.59,0.18-1.18,0.29-1.77C-8.38-42.7-8.15-42.61-7.92-42.49z"></path><path d="M-18.163-21.415c0.159,0.201,0.337,0.389,0.531,0.567c0.328-0.62,0.652-1.231,0.761-1.952c0.15-1-0.04-2.04-0.08-3.05c-0.03-1.05-0.01-2.09,0.06-3.14c0.27-4.35,0.87-8.69,1.33-13.03c0.01-0.09,0.02-0.18,0.03-0.27c0.25-2.35,0.51-4.7,0.76-7.05c0.04-0.31,0.07-0.65,0.11-1c-0.18,0.22-0.35,0.44-0.51,0.66c-0.15,0.22-0.29,0.43-0.43,0.65v0.01c-0.13,1.14-0.2,2.29-0.32,3.41c-0.1,0.95-0.2,1.9-0.31,2.85c-0.39,3.63-0.79,7.25-1.16,10.88c-0.23,2.2-0.41,4.42-0.28,6.63c0.08,1.17,0.24,2.31-0.28,3.41C-18.019-21.696-18.091-21.556-18.163-21.415z"></path></g><g><path style="" d="M-13.45-25.83c-0.29,0.17-0.57,0.34-0.84,0.53c-0.12,0.09-0.25,0.18-0.37,0.27c0,0.01-0.1,0.08-0.13,0.1c-0.05,0.04-0.09,0.08-0.14,0.12c-0.04,0.04-0.09,0.07-0.13,0.11h-0.01c-0.44,0.38-0.84,0.78-1.22,1.22c-0.11,0.13-0.22,0.25-0.32,0.38c-0.05,0.06-0.1,0.12-0.15,0.18c0,0,0,0-0.01,0.01v0.01c-0.01,0-0.01,0.02-0.03,0.04c-0.2,0.27-0.39,0.55-0.56,0.83c-0.1,0.17-0.2,0.34-0.28,0.51c-0.23,0.39-0.43,0.79-0.6,1.2c-0.21,0.49-0.89,0.56-1.3,0.34c-0.49-0.26-0.54-0.86-0.34-1.32c0.12-0.28,0.25-0.56,0.39-0.83c0.79-1.55,1.9-2.93,3.22-4.04c0.58-0.51,1.2-0.95,1.86-1.33c0.46-0.27,1.02-0.1,1.3,0.35C-12.83-26.72-13.02-26.08-13.45-25.83z" fill="#D3D3D3"></path><path style="" d="M-19.313-26.406c0.848,2.397,2.377,4.566,4.443,6.165c0.405,0.314,1.023,0.405,1.414,0c0.336-0.348,0.433-1.01,0-1.346c-0.469-0.363-0.913-0.754-1.326-1.174c-0.201-0.204-0.394-0.415-0.58-0.632c-0.052-0.06-0.103-0.121-0.153-0.182c0.065,0.079,0.01,0.012-0.023-0.029c-0.097-0.125-0.193-0.25-0.287-0.378c-0.335-0.46-0.638-0.941-0.905-1.439c-0.074-0.138-0.146-0.278-0.215-0.419c-0.028-0.056-0.055-0.113-0.081-0.17c-0.009-0.019-0.106-0.236-0.066-0.143c0.034,0.078-0.036-0.087-0.042-0.102c-0.03-0.072-0.06-0.145-0.088-0.217c-0.057-0.146-0.111-0.292-0.163-0.439c-0.166-0.471-0.696-0.829-1.23-0.665C-19.107-27.425-19.492-26.911-19.313-26.406L-19.313-26.406z" fill="#FFFFFF"></path><path style="" d="M-17.64-21.52c-0.23,0.39-0.43,0.79-0.6,1.2c-0.21,0.49-0.89,0.56-1.3,0.34c-0.49-0.26-0.54-0.86-0.34-1.32c0.12-0.28,0.25-0.56,0.39-0.83c0.11,0.28,0.29,0.52,0.56,0.66C-18.54-21.27-18.07-21.36-17.64-21.52z" fill="#B2B2B2"></path><path style="" d="M-13.45-25.83c-0.29,0.17-0.57,0.34-0.84,0.53c-0.12,0.09-0.25,0.18-0.37,0.27c0,0.01-0.1,0.08-0.13,0.1c-0.05,0.04-0.09,0.08-0.14,0.12c-0.04,0.04-0.09,0.07-0.13,0.11h-0.01c-0.05,0.02-0.11,0.01-0.16,0.01c-0.35-0.04-0.68-0.25-0.86-0.56c-0.12-0.21-0.17-0.46-0.19-0.71c-0.01-0.08-0.01-0.15,0.01-0.21c0.58-0.51,1.2-0.95,1.86-1.33c0.46-0.27,1.02-0.1,1.3,0.35C-12.83-26.72-13.02-26.08-13.45-25.83z" fill="#FFFFFF"></path></g></g></svg>
