<svg xmlns:xlink="http://www.w3.org/1999/xlink" xmlns="http://www.w3.org/2000/svg" viewBox="-40.94377899169922 -146.29818725585938 68.82828521728516 163.4471893310547" preserveAspectRatio="xMidYMid meet" width="300"  height="400"><!---0009-00560002100035--><g><path style="" d="M9.01-25.29c-0.05,0.07-0.42,0.32-1.08,0.61c-0.56,0.25-1.34,0.53-2.31,0.75c-0.69,0.16-1.48,0.29-2.37,0.36c-0.09,0.01-0.19,0.01-0.28,0.02H2.96c-0.49,0.03-0.99,0.04-1.54,0.02c-0.99-0.03-1.98-0.12-2.9-0.24c-2.33-0.31-4.15-0.81-4.25-0.88c-0.13-0.09,0-3.71,0-6.07c0-2.36,0.29-9.6,0.52-12.34c0.23-2.75,1.9-8.77,6.63-9.21c4.73-0.45,6.11,3.75,6.33,5.25c0.08,0.55,0.19,2.02,0.3,3.78c0.09,1.54,0.18,3.28,0.25,4.8c0.08,1.59,0.13,2.94,0.15,3.54v0.05c0.02,0.63,0.11,1.84,0.21,3.2v0.01c0.02,0.29,0.04,0.58,0.06,0.87c0.04,0.64,0.09,1.3,0.13,1.92c0.04,0.53,0.07,1.04,0.1,1.49C9.03-26.19,9.06-25.35,9.01-25.29z" fill="#0C0C0C"></path><path style="" d="M8.72-30.77c-0.64,0.84-1.25,1.7-1.85,2.56c-0.4,0.55-0.78,1.11-1.18,1.65c-0.76,1.04-1.55,2.06-2.44,2.99c-0.09,0.01-0.19,0.01-0.28,0.02c-0.49,0.03-1,0.04-1.55,0.02c-0.99-0.03-1.98-0.12-2.9-0.24c-0.68-2.42-0.73-5.3,0.4-7.49c1.37-2.62,2.12-4.98,3.74-7.26c0.43-0.6,0.91-1.18,1.44-1.73c0.53-0.56,1.1-1.07,1.71-1.55c0.71-0.55,1.46-1.04,2.24-1.44c0.09,1.54,0.18,3.28,0.25,4.8c0.03,0.55,0.05,1.08,0.07,1.55c0.01,0.21,0.02,0.4,0.03,0.59c0,0.08,0,0.17,0.01,0.24c0.01,0.21,0.02,0.41,0.02,0.57c0.01,0.24,0.01,0.44,0.02,0.59v0.05c0.02,0.63,0.11,1.85,0.21,3.21v0.01C8.68-31.34,8.7-31.06,8.72-30.77z" fill="#141414"></path><path style="" d="M9.01-25.29c-0.05,0.07-0.42,0.32-1.08,0.61c0.41-0.87,0.75-1.77,1.02-2.68C9.03-26.19,9.06-25.35,9.01-25.29z" fill="#141414"></path><g><path d="M5.81-41.8c-0.61,0.48-1.18,0.99-1.71,1.55c-0.05-0.21-0.08-0.43-0.09-0.65c-0.12-2.13,1.7-3.19,1.51-5.47c-0.05-0.54-0.22-1.06-0.42-1.57c-0.19-0.51-0.38-1.03-0.48-1.56c-0.15-0.74,0.32-1.65,0.4-1.59c0.08,0.05-0.19,1.05,0.64,2.56c0.43,0.77,0.97,1.52,1.08,2.4C6.9-44.66,5.86-43.27,5.81-41.8z"></path><path d="M8.45-34.9v0.05C8.26-35.34,8-35.8,7.65-36.18c-0.67-0.74-1.63-1.16-2.35-1.86c-0.62-0.59-1.03-1.37-1.2-2.21c0.53-0.56,1.1-1.07,1.71-1.55c0,0.13,0,0.27,0.02,0.41c0.08,0.72,0.45,1.4,0.97,1.92c0.43,0.43,0.95,0.77,1.5,1.03c0.03,0.55,0.05,1.08,0.07,1.55c0.01,0.21,0.02,0.41,0.03,0.59c0,0.08,0,0.17,0.01,0.24c0.01,0.21,0.01,0.4,0.02,0.57C8.44-35.25,8.44-35.05,8.45-34.9z"></path><path d="M8.85-28.85c-0.29,0.4-0.76,0.68-1.26,0.73c-0.24,0.02-0.49-0.01-0.72-0.09c0.6-0.86,1.21-1.72,1.85-2.56C8.76-30.13,8.81-29.47,8.85-28.85z"></path><path d="M8.72-30.77c-0.64,0.84-1.25,1.7-1.85,2.56c-0.43-0.14-0.81-0.45-1.03-0.85c-0.21-0.39-0.27-0.85-0.53-1.21c-0.33-0.46-0.96-0.66-1.51-0.53c-0.56,0.12-1.02,0.54-1.25,1.06c-0.24,0.52-0.25,1.14-0.1,1.69c-0.71-0.53-1.3-1.21-1.73-1.97c-0.24-0.43-0.36-0.92-0.31-1.4c0.03-0.34,1.12-1.57,2.1-1.85c0.9-0.26,1.87-0.22,2.7,0.22c0.72,0.37,1.27,0.99,1.84,1.56c0.2,0.2,0.42,0.41,0.71,0.44c0.3,0.03,0.59-0.15,0.77-0.39c0.05-0.06,0.09-0.12,0.13-0.19C8.68-31.34,8.7-31.06,8.72-30.77z"></path><path d="M6.12-25.02c-0.07,0.4-0.24,0.78-0.5,1.09c-0.69,0.16-1.48,0.29-2.37,0.36c0.89-0.93,1.68-1.95,2.44-2.99c0.01,0,0.01,0,0.02,0.01C6.1-26.16,6.21-25.56,6.12-25.02z"></path><path d="M5.69-26.56c-0.76,1.04-1.55,2.06-2.44,2.99c-0.09,0.01-0.19,0.01-0.28,0.02c0.16-0.13,0.31-0.28,0.41-0.46c0.14-0.26,0.18-0.52,0.07-0.8c-0.18-0.5-1.72,0.22-3.41-2.43c-0.64-1-0.44-2.22-0.14-3.41c0.22,0.82,0.62,1.61,1.21,2.24c0.58,0.62,1.35,1.09,2.2,1.23c0.41,0.08,0.84,0.08,1.26,0.14C4.98-26.98,5.39-26.85,5.69-26.56z"></path></g></g><!---0021-00620003200024--><g><path style="" d="M7.75-47.02c0,0.2-0.4,0.75-1,1.4c-0.5,0.54-1.15,1.17-1.8,1.71c-0.47,0.4-0.94,0.75-1.37,1.02C3-42.53,2.22-42.13,1.41-41.75c-0.26,0.12-0.52,0.23-0.78,0.34c0,0,0,0,0,0.01c-1.42,0.61-2.78,1.1-3.22,1.15c-0.19,0.02-0.4,0.04-0.61,0.05c-2.17,0.12-5.26-0.12-9.63-1.55c-0.31-0.1-0.59-0.21-0.86-0.34c-1.35-0.61-2.23-1.44-2.78-2.34c-0.12-0.2-0.23-0.4-0.32-0.61c-0.79-1.73-0.59-3.54-0.47-4.33c0.2-1.38,1.19-3.77,1.69-5.09c0.38-1,1.04-2.58,1.37-3.26c0.1-0.21,0.17-0.33,0.19-0.33c0.1,0.03,0.83,0.43,2.15,0.82c1.16,0.34,5.46,0.8,9.32,0.87c0.25,0.01,0.5,0.01,0.75,0.01h0.74c4.16-0.05,5.6-1.1,5.66-1.15c0.06-0.04-0.03-0.24,0.05-0.29c0.09-0.05,0.34-0.02,0.56,0.1c0.22,0.12,0.82,2.29,0.86,2.58c0.02,0.22-0.06,0.36-0.09,0.41c-0.01,0.01-0.02,0.02-0.02,0.02C6.2-53.9,7.76-48.21,7.75-47.02z" fill="#141414"></path><path style="" d="M-11.91-53.77c-0.12,0.25-1.37,0.12-1.45,0.24c-0.05,0.08-0.11,0.27-0.19,0.53c-0.32,1.05-0.79,3.22-0.86,3.47c-0.09,0.3-0.21,0.72-0.32,0.96c-0.1,0.23-0.26,1.54-0.44,1.97c-0.18,0.42-1.32,1.16-1.31,2.02c0,0.05,0,0.1,0.01,0.15c-0.12-0.2-0.23-0.4-0.32-0.61c0.29-0.75,1.19-1.58,1.32-1.73c0.15-0.18,0.34-1.79,0.34-1.91c0-0.13,0.13-0.21,0.23-0.28c0.1-0.08,0.28-0.93,0.49-1.98c0.13-0.6,0.31-1.34,0.45-1.97c0.11-0.46,0.18-0.87,0.18-1.09c0-0.51-0.83-1.23-0.83-1.23l2.7,0.83C-11.91-54.4-11.78-54.02-11.91-53.77z" fill="#0C0C0C"></path><path style="" d="M-5.4-42.23c0,0.11,0.84,1.07,2.2,2.03c-2.17,0.12-5.26-0.12-9.63-1.55c-0.31-0.1-0.59-0.21-0.86-0.34c0.09-0.11,0.15-0.18,0.15-0.28c0-0.17-2.44-1.51-2.37-1.76c0.08-0.25,4.84,0.78,4.99,0.43c0.15-0.35-3.15-2.16-3.1-2.44c0.05-0.28,1.49-2.69,1.6-2.97c0.11-0.28,0.86-3.73,1.18-3.78c0.24-0.04,6.499,2.71,9.079,3.67c0,3.363-0.249,5.73-0.339,7.76C-3.41-41.9-5.39-42.34-5.4-42.23z" fill="#262626"></path><path style="" d="M6.163-53.216c-1.37,0.68-2.796,1.287-4.275,1.678c0.002,0.148,0.06,0.319,0.143,0.441c1.024-0.378,2.052-0.743,3.085-1.094c0.014,0.113,0.016,0.23-0.073,0.301c-0.925,0.731-1.945,1.336-3.065,1.705c0.131,0.763,0.079,1.576-0.072,2.335c-0.081-0.927-0.204-1.829-0.412-2.735c-0.924,0.42-2.004,0.579-3,0.385c0.101,1.842,0.081,3.691-0.06,5.53c0.365,0.013,0.709-0.199,1.015-0.397s0.596-0.43,0.936-0.563s0.752-0.152,1.046,0.064c0.147-0.406,0.266-0.886,0.272-1.318c0.349,1.16-0.002,2.96,0.141,3.077s2.676-2.245,4.12-6.442c0.323-0.939,0.618-1.938,0.415-2.91C6.318-53.171,6.223-53.205,6.163-53.216z" fill="#262626"></path><path style="" d="M6.08-55.11c0.02,0.22-0.06,0.36-0.09,0.41c-0.84,0.19-1.67,0.48-2.45,0.84c-0.64-0.71-1.29-1.41-1.93-2.12C1.59-56,1.56-56.03,1.53-56.03c-0.03,0-0.06,0.01-0.03,0.03c0.06,0.7,0.11,1.41,0.14,2.11c0.01,0.24-0.01,0.53-0.22,0.64c-0.76,0.42-1.74,0.21-2.61,0.27c-0.11,0-0.24,0-0.32-0.08c-0.06-0.06-0.07-0.16-0.08-0.25c-0.06-1.01-0.14-2.03-0.2-3.04h0.74c4.16-0.05,5.6-1.1,5.66-1.15c0.06-0.04-0.03-0.24,0.05-0.29c0.09-0.05,0.34-0.02,0.56,0.1C5.44-57.57,6.04-55.4,6.08-55.11z" fill="#262626"></path><path style="" d="M-2.54-52.66c-0.05,0.11-0.34-0.31-0.42-0.38c-0.07-0.07-2.96-0.09-4.03-0.27s-2.12-0.37-2.29-0.52c-0.16-0.15,0.085-2.664,0.085-2.664c-2.26-0.18-4.215-0.836-5.005-1.226c0.1-0.21,0.17-0.33,0.19-0.33c0.1,0.03,0.83,0.43,2.15,0.82c1.16,0.34,5.46,0.8,9.32,0.87C-2.53-55.26-2.51-52.75-2.54-52.66z" fill="#262626"></path><path style="" d="M1.87-43.33c-0.02,0.45-0.19,1.05-0.46,1.58c-0.26,0.12-0.52,0.23-0.78,0.34c0.48-0.84,0.78-1.78,0.86-2.74C1.64-43.89,1.78-43.62,1.87-43.33z" fill="#0C0C0C"></path><path style="" d="M1.917-53.402c0.08-0.068,0.185-0.097,0.286-0.124c0.667-0.178,1.333-0.356,2-0.533c0.081-0.022,0.192-0.03,0.226,0.047c0.027,0.062-0.021,0.13-0.067,0.18c-0.431,0.468-0.913,0.889-1.435,1.253C2.714-52.432,2.4-52.15,2.14-52.104c-0.251,0.044-0.279-0.245-0.31-0.431C1.785-52.801,1.675-53.194,1.917-53.402z" fill="#0C0C0C"></path><path style="" d="M-2.525-52.106c0.125-0.235-0.011-0.541-0.23-0.692s-0.496-0.185-0.76-0.211c-1.065-0.102-2.136-0.132-3.205-0.09c-0.017-0.054-0.103-0.016-0.101,0.04c0.002,0.056,0.056,0.095,0.104,0.124c0.922,0.555,2.041,0.776,3.105,0.615c0.282-0.043,0.611-0.098,0.817,0.098c0.041,0.039,0.076,0.088,0.127,0.112C-2.617-52.084-2.552-52.056-2.525-52.106z" fill="#0C0C0C"></path><path style="" d="M-4.058-51.68c-0.031-0.001-0.068,0.001-0.083,0.028c-0.021,0.039,0.025,0.08,0.064,0.1c0.418,0.221,0.837,0.441,1.255,0.662c0.09,0.048,0.182,0.096,0.282,0.115c0.1,0.019,0.211,0.006,0.29-0.059c0.053-0.044-0.24-0.426-0.277-0.466c-0.12-0.133-0.278-0.264-0.448-0.328c-0.131-0.049-0.245-0.029-0.381-0.026C-3.589-51.65-3.825-51.671-4.058-51.68z" fill="#262626"></path><path style="" d="M-10.726-56.714c-0.078,0.829-0.157,1.917-0.235,2.746c-0.006,0.061-0.013,0.125-0.051,0.173c-0.038,0.047-0.039,0.081-0.078,0.034c-1.474-0.323-2.905-0.839-4.246-1.531c0.171-0.852,0.458-1.522,0.786-2.39c0.081-0.157,0.239-0.252,0.341-0.197C-13.378-57.431-12.27-56.937-10.726-56.714z" fill="#0C0C0C"></path><path style="" d="M-0.821-54.442c-0.062-0.03-0.137-0.041-0.198-0.01c-0.054,0.027-0.09,0.081-0.104,0.139c-0.014,0.058-0.008,0.12,0.006,0.178c0.044,0.18,0.166,0.337,0.324,0.434c0.158,0.097,0.349,0.135,0.533,0.119c0.074-0.007,0.15-0.022,0.213-0.063c0.063-0.04,0.112-0.108,0.113-0.183c0.002-0.082-0.053-0.157-0.122-0.203c-0.106-0.072-0.243-0.101-0.36-0.149c-0.036-0.015-0.075-0.022-0.111-0.038c-0.048-0.022-0.087-0.059-0.126-0.094C-0.705-54.36-0.757-54.411-0.821-54.442z" fill="#141414"></path><path d="M0.011-55.664c-0.482,0-0.872,0.39-0.872,0.872c0,0.482,0.39,0.872,0.872,0.872c0.482,0,0.872-0.39,0.872-0.872C0.883-55.273,0.493-55.664,0.011-55.664z"></path><path d="M6.75-45.62c-0.437,0.552-1.142,1.17-1.792,1.71c0.36-0.71,0.642-1.47,0.562-2.46c-0.05-0.54-0.22-1.06-0.42-1.57c-0.19-0.51-0.38-1.03-0.48-1.56c-0.15-0.74,0.32-1.65,0.4-1.59c0.08,0.05-0.19,1.05,0.64,2.56c0.43,0.77,0.97,1.52,1.08,2.4C6.76-45.96,6.76-45.78,6.75-45.62z"></path></g><!---0024-00570002400037--><g><path style="" d="M-2.5-41.46c-0.04,0.69-0.1,1.14-0.09,1.21c0.01,0.05,0.01,0.21,0,0.46c-0.02,1.31-0.2,5-0.23,6.24c-0.04,1.47-0.53,9.41-0.68,9.72c-0.16,0.3-2.21,2.39-8.23,1.42c-0.87-0.14-1.85-0.33-2.84-0.56c-0.37-0.08-0.74-0.17-1.1-0.26c-0.58-0.15-1.14-0.31-1.66-0.46c-0.16-0.05-0.31-0.1-0.46-0.14c-0.28-0.09-0.54-0.18-0.78-0.27c-0.93-0.32-1.6-0.65-1.78-0.91c-0.36-0.54,1.04-10.08,1.26-12.52c0.21-2.44,0.95-5.2,0.98-5.48c0.4-3.87,0.26-8.76,4.15-9.9c0.13-0.04,0.27-0.07,0.41-0.09c1.05-0.23,2.38-0.2,4.06,0.16c2.01,0.43,3.46,1.34,4.48,2.48C-2.5-47.6-2.41-43.49-2.5-41.46z" fill="#141414"></path><path style="" d="M-5.4-42.23c0,0.02,0.05,0.1,0.14,0.21c0.34,0.41,1.31,1.37,2.67,2.23c-0.02,1.31-0.2,5-0.23,6.24c-0.04,1.47-0.53,9.41-0.68,9.72c-0.16,0.3-2.21,2.39-8.23,1.42c-0.87-0.14-1.85-0.33-2.84-0.56c-0.37-0.08-0.74-0.17-1.1-0.26c0.02-0.31,0.05-0.66,0.09-1.03c0.05-0.53,0.1-1.11,0.16-1.68c0.11-1.07,0.21-2.14,0.27-2.88c0.01-0.17,0.02-0.37,0.04-0.61c0.12-1.99,0.34-6.14,0.49-7.88v-0.01c0.02-0.2,0.04-0.37,0.05-0.5c0.09-0.82,0.26-1.93,0.42-2.76c0.1-0.56,0.2-1.01,0.26-1.16c0.15-0.37,0.35-0.45,0.35-0.63c0-0.17-2.44-1.51-2.37-1.76c0.05-0.15,1.85,0.17,3.27,0.36c0.91,0.13,1.66,0.21,1.72,0.07c0.08-0.2-0.93-0.86-1.82-1.45c-0.69-0.45-1.3-0.87-1.28-0.99c0.05-0.28,1.49-2.69,1.6-2.97c0.11-0.28,0.86-3.73,1.18-3.78c0.24-0.04,3.65,1.57,6.23,2.53c2.51,2.76,2.6,6.87,2.51,8.9C-3.41-41.9-5.39-42.34-5.4-42.23z" fill="#262626"></path><path style="" d="M-13.55-53c-0.32,1.05-0.79,3.22-0.86,3.47c-0.09,0.3-0.21,0.72-0.32,0.96c-0.1,0.23-0.26,1.54-0.44,1.97c-0.18,0.42-1.32,1.16-1.31,2.02c0.01,0.86,0.99,1.33,0.9,1.86c-0.1,0.53-0.28,0.53-0.33,0.6s-0.05,3.71-0.15,4.47c-0.1,0.76-0.63,6.06-0.82,8.33c-0.14,1.73-0.35,4.43-0.45,5.63c-0.16-0.05-0.31-0.1-0.46-0.14c0.17-1.74,0.54-5.64,0.6-6.5c0.07-1.11,0.73-6.92,0.78-7.99s0.02-3.89,0.11-4.08c0.07-0.15,0.26-0.27,0.27-0.39c0.03-0.42-0.83-0.93-0.85-1.82c-0.01-0.83,1.25-1.98,1.41-2.16c0.15-0.18,0.34-1.79,0.34-1.91c0-0.13,0.13-0.21,0.23-0.28c0.1-0.08,0.28-0.93,0.49-1.98c0.13-0.6,0.31-1.34,0.45-1.97C-13.83-52.95-13.69-52.98-13.55-53z" fill="#0C0C0C"></path><g><path d="M-9.849-44.686c-0.026-0.392-0.053-0.787-0.012-1.179c0.041-0.391,0.154-0.783,0.383-1.103c0.137-0.191,0.326-0.36,0.557-0.405c0.289-0.055,0.572,0.091,0.854,0.175c0.504,0.15,1.051,0.103,1.55,0.268c0.333,0.11,0.661,0.315,1.006,0.252c0.391-0.072,0.587-0.532,0.781-0.878c0.048-0.086-0.03-0.162-0.099-0.232c-0.07-0.069-0.16-0.112-0.243-0.165c-0.432-0.272-0.647-0.776-0.955-1.183c-0.532-0.705-1.37-1.138-2.238-1.301c-0.916-0.172-1.921,0.035-2.659,0.604c-0.738,0.569-1.211,1.467-1.262,2.398c-0.032,0.582,0.071,1.126,0.38,1.62s0.777,0.886,1.317,1.106C-10.282-44.625-10.05-44.589-9.849-44.686z"></path><path style="" d="M-7.377-48.558c0.1,0.195,0.307,0.311,0.523,0.347c0.216,0.036,0.431-0.047,0.469-0.262c0.024-0.134-0.033-0.273-0.126-0.373c-0.092-0.1-0.216-0.166-0.342-0.217c-0.137-0.056-0.539-0.254-0.675-0.141C-7.666-49.09-7.441-48.684-7.377-48.558z" fill="#262626"></path><path d="M-5.366-46.897c0.352,0.133,0.734,0.173,1.09,0.295c0.357,0.122,0.709,0.355,0.82,0.715c0.017-0.204-0.048-0.462-0.188-0.611c0.198,0.054,0.357,0.2,0.484,0.361c-0.039-0.263-0.267-0.474-0.508-0.584s-0.509-0.152-0.762-0.235c-0.253-0.082-0.506-0.219-0.632-0.454C-5.154-47.233-5.273-47.075-5.366-46.897z"></path><path d="M-10.92-43.7c-0.06,0.14-0.81,0.06-1.72-0.07c-0.1-0.43-0.12-0.91-0.1-1.38C-11.85-44.56-10.84-43.9-10.92-43.7z"></path><path d="M-5.54-37.65c-0.86,1.04-2.31,1.54-3.62,1.23c0.2-0.04,0.37-0.17,0.52-0.31c0.63-0.55,1.1-1.15,1.3-1.96c0.15-0.58,0.08-1.44-0.23-1.95s-0.9-0.81-1.48-0.94c-0.63-0.14-1.31-0.01-1.93-0.19c-0.86-0.26-1.46-1.1-1.66-1.99v-0.01c0.91,0.13,1.66,0.21,1.72,0.07c0.08-0.2-0.93-0.86-1.82-1.45c0.02-0.49,0.09-0.99,0.16-1.43c0.39,1.08,0.98,2.2,2.4,2.36c1.22,0.13,3.42-0.01,4.78,1.99c0.06,0.07,0.1,0.14,0.14,0.21c0.11,0.17,0.22,0.36,0.31,0.57C-4.38-40.23-4.69-38.69-5.54-37.65z"></path><path d="M-14.15-40.58c-0.16,0.83-0.33,1.94-0.42,2.76c-0.01,0.13-0.03,0.3-0.05,0.5v0.01c-0.54,0.65-1.33,2.28-0.55,4.29c-1-0.68-1.97-1.55-2.24-2.74c-0.28-1.2,0.15-2.5,0.96-3.43C-15.94-39.79-15.22-40.4-14.15-40.58z"></path><path d="M-7.89-38.85c-0.17,0.57-0.54,1.22-1.02,1.58c-0.47,0.36-1.27,0.55-1.72,0.21c-0.56-0.42-1.09-0.77-1.78-0.89c-0.67-0.12-1.41-0.03-1.97,0.39c-0.07,0.05-0.15,0.13-0.24,0.24c0.02-0.2,0.04-0.37,0.05-0.5c0.09-0.82,0.26-1.93,0.42-2.76c0.29-0.05,0.6-0.07,0.95-0.05C-10.19-40.45-9.35-38.14-7.89-38.85z"></path><path d="M-9.279-26.639c0.608-0.533,1.073-1.238,1.268-2.022c0.195-0.784,0.108-1.645-0.29-2.348s-1.116-1.229-1.916-1.345c-0.658-0.095-1.324,0.08-1.988,0.068c-1.076-0.019-2.488-0.374-2.735-1.422c-0.105-0.445-0.033-0.91,0.04-1.361c0.07-0.435,0.142-0.875,0.314-1.281c0.172-0.406,0.457-0.781,0.854-0.971c-0.299,0.582-0.132,1.41,0.341,1.862c0.431,0.411,1.063,0.536,1.659,0.533s1.187-0.118,1.783-0.104c1.236,0.028,2.497,0.482,3.466,1.259c1.56,1.251,1.562,3.057,1.344,3.804c-0.267,0.914-0.769,1.771-1.494,2.389C-7.359-26.96-8.328-26.584-9.279-26.639z"></path><path d="M-15.11-29.43c-0.02,0.24-0.03,0.44-0.04,0.61c-0.06,0.74-0.16,1.81-0.27,2.88c-0.21,0.28-0.33,0.62-0.33,0.97c0,0.24,0.06,0.48,0.17,0.71c-0.04,0.37-0.07,0.72-0.09,1.03c-0.58-0.15-1.14-0.31-1.66-0.46c-0.16-0.05-0.31-0.1-0.46-0.14c-0.28-0.09-0.54-0.18-0.78-0.27c-0.21-0.54-0.34-1.07-0.24-1.7c0.23-1.59,1.23-2.61,2.44-3.18C-15.96-29.18-15.54-29.33-15.11-29.43z"></path><path d="M-14.57-22.97c-0.37-0.08-0.74-0.17-1.1-0.26c0.02-0.31,0.05-0.66,0.09-1.03c0.06,0.15,0.14,0.29,0.23,0.42C-15.14-23.51-14.87-23.22-14.57-22.97z"></path><path d="M-8.56-29.82c-0.04,0.69-0.21,1.39-0.59,1.97c-0.39,0.58-0.94,1.29-1.62,1.12c-2.45-0.6-3.69-0.04-4.17,0.3c-0.19,0.13-0.35,0.3-0.48,0.49c0.11-1.07,0.21-2.14,0.27-2.88c0.01-0.17,0.02-0.37,0.04-0.61c0.84-0.21,1.72-0.25,2.59-0.12c0.68,0.11,1.35,0.28,2.03,0.31C-9.8-29.22-9.08-29.38-8.56-29.82z"></path></g></g></svg>
