<?xml version="1.0"?>
<svg xmlns:xlink="http://www.w3.org/1999/xlink" xmlns="http://www.w3.org/2000/svg" viewBox="-40.94377899169922 -146.29818725585938 68.82828521728516 163.4471893310547" preserveAspectRatio="xMidYMid meet" width="300" height="400"><g id="backhair" data-body-part="backhair"><g xmlns="http://www.w3.org/2000/svg" transform="translate(0, -27) scale(0.7)" preserveAspectRatio="none"><!---0052-01580008700107--><g><g><path style="" d="M-14.368-58.438l-0.897-0.443c0.397-0.802-0.087-1.85-0.704-2.485c-0.413-0.425-0.903-0.77-1.421-1.135c-0.401-0.282-0.815-0.574-1.199-0.91c-2.013-1.764-2.845-4.38-3.524-6.907l0.965-0.259c0.64,2.379,1.415,4.835,3.218,6.415c0.344,0.302,0.718,0.565,1.115,0.845c0.534,0.376,1.085,0.764,1.563,1.256C-14.368-61.155-13.753-59.681-14.368-58.438z" fill="#1E1E1E"/><path style="" d="M-31.447-61.102l-0.199-0.98c0.535-0.108,1.017-0.605,1.199-1.237c0.164-0.567,0.124-1.251-0.119-2.033c-0.148-0.478-0.318-0.816-0.534-1.066c-0.275-0.318-0.67-0.545-1.087-0.784c-0.127-0.073-0.254-0.146-0.378-0.222c-1.508-0.918-2.651-2.275-3.218-3.822c-0.605-1.656-0.51-3.531,0.256-5.016l0.889,0.459c-0.64,1.24-0.717,2.815-0.206,4.213c0.489,1.335,1.482,2.512,2.798,3.312c0.117,0.071,0.237,0.14,0.357,0.208c0.471,0.271,0.959,0.551,1.346,0.997c0.309,0.358,0.542,0.81,0.733,1.424c0.302,0.972,0.344,1.849,0.125,2.606C-29.773-62.047-30.543-61.286-31.447-61.102z" fill="#1E1E1E"/><path style="" d="M-39.288-83.377c-3.056-1.802-4.96-4.354-5.226-7.004c-0.242-2.419,0.858-4.759,1.742-6.64l0.905,0.426c-0.875,1.861-1.866,3.97-1.652,6.114c0.233,2.329,1.961,4.604,4.739,6.242L-39.288-83.377z" fill="#1E1E1E"/><path style="" d="M29.855-79.44c-0.851-2.215-3.783-3.068-4.642-5.28c-0.798-2.054,0.521-4.27,1.782-6.078c1.214-1.741,0.18-4.239-0.514-6.245c-0.344-0.996-0.919-1.895-1.518-2.761c-0.59-0.853-1.227-1.675-1.893-2.473c-0.172-1.037-0.707-2.032-0.58-3.074c0.168-1.38,1.311-2.408,2.378-3.3c2.992-2.503,2.215-7.204,0.061-10.456l-1.873-0.898c1.536-1.209,1.533-3.657,1.535-4.519c0.038-15.634-10.04-31.66-26.695-28.643c-10.31-4.021-25.762,0.726-32.333,13.932c-4.53,6.407-8.297,15.711-4.514,21.438c-0.89,1.128,0.599,2.64,2.339,3.351c0.009,0.031,0.017,0.062,0.025,0.092c-0.914,0.201-0.854,2.417,0.563,3.043c0.289,3.066-0.265,6.167-1.955,8.974c-1.095,1.818-2.577,3.398-3.515,5.302c-1.425,2.896-1.433,6.449-0.021,9.351c0.477,0.98,1.105,1.888,1.492,2.908c0.387,1.019,0.504,2.218-0.04,3.163c-0.876,1.522-2.952,1.729-4.459,2.629c-2.419,1.445-3.135,5.106-1.439,7.356c0.517,0.685,1.201,1.229,1.727,1.908c0.525,0.679,0.888,1.58,0.614,2.393c-0.324,0.959-1.478,1.459-2.476,1.284c-0.997-0.175-1.829-0.882-2.434-1.694c-0.173,1.141,0.549,2.298,1.561,2.852c1.013,0.554,2.249,0.579,3.37,0.304c2.043-0.501,3.884-2.106,4.262-4.175c0.347-1.899-0.471-4.098,0.667-5.657c1.421-1.945,3.674-0.035,5.2,0.482c2.213,0.75,5.018-0.291,6.544-1.945c0.969-1.051,1.615-2.419,2.787-3.238c-1.181,0.825-0.425,4.82-0.031,5.964c0.775,2.248,2.16,4.328,3.874,5.969c1.191,1.14,2.565,2.093,3.629,3.352c1.064,1.259,1.801,2.954,1.389,4.55c-0.412,1.596-1.947,3.059-3.79,2.032c1.621,1.73,4.332,2.378,7.013,1.323c2.429-0.956,4.096-3.691,4.784-6.09c0.734-2.56,0.623-5.297,0.141-7.916c0.763,1.961,1.525,3.922,2.288,5.883c-0.05-1.922,0.125-3.85,0.52-5.732c0.167,2.375,2.501,4.376,4.874,4.178c0.749-0.062,1.721-0.205,2.055,0.469c0.154,0.31,0.087,0.676,0.053,1.02c-0.171,1.691,0.577,3.448,1.915,4.497c0.858,0.673,2.368,0.899,3.431,0.715c0.756-0.131,1.491-0.611,1.733-1.339c-0.349,0.045-0.698,0.09-1.047,0.135c-0.664,0.085-1.362,0.167-1.984-0.083c-1.723-0.691-0.514-2.266,0.666-2.677c0.531-0.185,1.1-0.251,1.619-0.465c0.915-0.377,1.618-1.229,1.814-2.199c0.196-0.97-0.12-2.028-0.816-2.731c-0.331-0.334-0.766-0.636-0.837-1.101c-0.184-1.196,3.788-2.018,4.575-3.141c0.524-0.746,0.708-1.768,0.311-2.588c-0.133-0.274-0.326-0.522-0.412-0.815c-0.185-0.633,0.265-1.376,0.912-1.504c0.181,1.803,1.826,3.343,3.637,3.404c-1.06,1.609-1.075,3.803-0.176,5.507c0.899,1.704,2.63,2.905,4.513,3.316c0.545,0.119,1.114,0.177,1.662,0.073c1.391-0.265,2.385-1.503,3.014-2.772c-0.598,0.487-1.297,0.934-2.068,0.924c-0.771-0.01-1.568-0.672-1.45-1.434c0.045-0.291,0.21-0.548,0.371-0.795c0.544-0.833,1.087-1.666,1.631-2.5c1.186-1.818,3.334-2.558,4.187-4.553c0.201-0.471,0.258-0.992,0.26-1.505C30.126-78.319,30.061-78.902,29.855-79.44z" fill="#1E1E1E"/><path style="" d="M-34.105-114.335c0.877,2.975,0.904,6.188,0.197,9.214c-0.525,2.249-1.604,4.414-3.32,5.96c1.969-1.12,3.862-2.546,4.928-4.545c1.417-2.655,1.158-5.853,0.863-8.848L-34.105-114.335z" fill="#323232"/><path style="" d="M-20.885-87.308c-1.06-2.411-3.986-4.762-6.603-5.222c-0.64-0.113-1.333-0.126-1.905,0.184c-0.872,0.471-0.727,1.419-0.929,2.232c-0.441,1.77-1.448,2.54-2.525,3.841c-0.868,1.05-0.619,2.79-0.094,3.931c0.319,0.693,0.812,1.576,1.282,2.171c0.293,0.372,0.705,0.734,0.677,1.206c-0.016,0.277-0.187,0.517-0.351,0.741c-1.383,1.883-2.519,3.054-2.109,5.512c0.563,2.907,3.074,4.744,3.649,7.591c0.066,0.327,0.101,0.676-0.024,0.985c-0.227,0.558-0.873,0.786-1.401,1.075c-1.775,0.971-2.618,3.307-1.987,5.229c0.631,1.922,2.596,3.284,4.619,3.326c-1.548-0.215-2.562-2.17-1.846-3.56c0.681-1.322,1.59-1.155,2.752-1.512c1.317-0.405,2.278-1.663,2.925-2.812c0.536-0.951,0.977-2.017,0.873-3.104c-0.077-0.806-0.447-1.55-0.729-2.309c-0.283-0.759-0.481-1.607-0.21-2.37c0.271-0.763,1.174-1.343,1.911-1.007c2.062-0.803,2.632-2.847,3.113-5.007C-18.974-79.885-19.361-83.841-20.885-87.308z" fill="#1E1E1E"/><path style="" d="M-39.979-78.905c-0.728,0.491-1.59,0.767-2.607,1.035c-0.929,0.245-1.499,0.424-1.884,1.303c-0.656,1.496-0.618,3.281,0.102,4.748c-1.843-1.872-1.654-5.684,0.925-6.886c0.612-0.285,1.308-0.339,1.931-0.599c1.092-0.454,1.858-1.525,2.118-2.678c0.26-1.154,0.059-2.376-0.38-3.474c-0.335-0.837-0.805-1.619-1.086-2.476c-0.34-1.034-0.494-2.433,0.577-3.096c-0.631,2.244,0.744,3.449,1.674,5.298c0.784,1.558,1.02,3.444,0.185,5.032C-38.858-79.872-39.372-79.314-39.979-78.905z" fill="#323232"/><path style="" d="M-45.96-65.509c1.328,0.337,3.183-0.386,4.042-1.457c1.198-1.494,0.508-3.828-0.114-5.391c-0.516-1.295-1.546-3.618,0.138-4.512c-1.236,0.656-1.602,1.792-1.578,3.158c0.021,1.179,0.449,2.314,0.96,3.377c0.319,0.665,0.184,0.906,0.004,1.621c-0.18,0.715-0.653,1.366-1.312,1.697c-0.208,0.104-0.432,0.177-0.659,0.229c-1.667,0.38-3.536-0.469-4.347-1.973C-48.639-67.237-47.449-65.886-45.96-65.509z" fill="#323232"/><path style="" d="M-33.799-81.675c-0.7-0.686-1.08-1.644-1.235-2.612c-0.332-2.068-0.024-4.216,1.815-5.506c0.627-0.439,1.462-0.887,1.437-1.652c-0.028-0.885-1.166-1.238-1.682-1.958c-0.056-0.078-2.11,2.464-2.294,2.825c-0.529,1.033-0.841,2.191-0.91,3.349C-36.8-84.994-35.952-82.649-33.799-81.675z" fill="#323232"/><path style="" d="M-25.632-68.036c-0.815-1.419-1.67-2.864-1.939-4.478c-0.269-1.614,0.184-3.463,1.537-4.383c0.654-0.445,1.47-0.647,2.043-1.193c1.151-1.095,0.82-3.023,0.089-4.434c-0.528-1.017-1.498-2.068-2.616-1.821c0.493,1.064,0.994,2.156,1.097,3.324c0.102,1.169-0.271,2.45-1.226,3.13c-0.577,0.411-1.295,0.563-1.931,0.874c-2.157,1.059-2.948,4.19-1.552,6.146c-2.339-2.533-1.342-6.173,1.705-7.528c0.361-0.161,0.762-0.3,0.99-0.623c0.335-0.473,0.153-1.151-0.201-1.61c-0.354-0.459-0.85-0.789-1.229-1.227c-0.921-1.064-1.033-2.61-0.848-4.005c0.185-1.395,0.618-2.763,0.617-4.17c-0.001-0.741-0.162-1.513-0.493-2.173c-0.64,0.502-0.545,1.351-0.729,2.091c-0.441,1.77-1.449,2.54-2.525,3.841c-0.868,1.05-0.619,2.791-0.094,3.931c0.319,0.693,0.812,1.576,1.282,2.171c0.293,0.372,0.705,0.734,0.677,1.206c-0.016,0.277-0.187,0.517-0.351,0.741c-1.383,1.883-2.519,3.054-2.11,5.512c0.563,2.907,3.074,4.744,3.649,7.591c0.066,0.327,0.101,0.676-0.024,0.985c-0.227,0.558-0.873,0.786-1.401,1.075c-1.775,0.971-2.618,3.307-1.987,5.229c0.631,1.922,2.596,3.284,4.619,3.326c-1.549-0.215-2.562-2.17-1.846-3.56c0.681-1.321,1.59-1.155,2.752-1.512c1.317-0.406,2.278-1.663,2.925-2.812c0.336-0.597,0.617-1.241,0.768-1.904C-24.281-65.617-24.951-66.851-25.632-68.036z" fill="#323232"/><path style="" d="M-36.208-107.695c0.867-2.894,0.59-6.171-1.24-8.613c0.409,1.894,0.059,4.508-0.977,6.157c-0.795,1.266-1.986,2.222-3.002,3.318c-2.017,2.177-3.186,4.01-3.277,7.112c-0.128,4.389,3.85,6.777,7.887,6.901c-1.045-0.233-1.862-1.094-2.314-2.064c-0.383-0.822-0.501-1.708-0.68-2.583c-0.314-1.535-0.012-3.15,0.611-4.588C-38.34-104.035-36.836-105.598-36.208-107.695z" fill="#323232"/><path style="" d="M-32.336-111.084c-0.757-0.313-1.277-2.179-1.703-2.83c-0.596-0.909-1.365-1.677-1.923-2.629c-1.134-1.935-1.917-4.103-2.287-6.315C-38.714-117.948-37.216-113.103-32.336-111.084z" fill="#323232"/><path style="" d="M-33.48-117.323c-4.85-1.787-4.419-10.454-0.984-14.766C-36.682-127.778-35.735-119.462-33.48-117.323z" fill="#323232"/><path style="" d="M-39.452-94.218c-2.258-1.495-3.462-5.182-2.837-7.79c0.234-0.976,0.496-2.786,1.322-3.449C-44.503-102.619-43.665-95.924-39.452-94.218z" fill="#464646"/><path style="" d="M-29.161-81.634c-0.694-1.083-1.955-3.856-1.181-5.138c-0.678,1.123-0.929,2.569-0.496,3.813c0.301,0.865,0.642,1.751,1.253,2.449c0.264,0.301,0.62,0.588,1.018,0.546C-28.426-80.557-28.832-81.121-29.161-81.634z" fill="#464646"/><path style="" d="M-30.744-70.622c-0.9-1.346-1.828-4.93-0.525-6.289c-1.418,1.48-2.09,3.707-1.211,5.668c0.753,1.68,2.548,2.431,3.415,3.993C-29.264-68.501-30.04-69.57-30.744-70.622z" fill="#464646"/><path style="" d="M-27.942-64.012c2.141-2.04,0.507-4.471-0.394-6.605c0.963,2.282,1.315,6.38-1.363,7.707C-29.077-63.218-28.445-63.533-27.942-64.012z" fill="#464646"/><path style="" d="M-21.499-82.79c-0.926-1.738,0.024-4.329,0.769-6.018c-1.078,0.831-1.751,2.235-2.064,3.537c-0.218,0.905-0.209,1.897,0.214,2.725c0.311,0.608,0.82,1.087,1.226,1.637c0.406,0.549,0.718,1.244,0.542,1.903c-0.219,0.821-1.077,1.263-1.707,1.835c-1.214,1.104-1.839,2.766-0.934,4.255c0.454,0.747,1.226,1.294,2.081,1.475c-1.217-0.75-2.237-3.199-1.176-4.416c0.346-0.396,0.838-0.628,1.256-0.948c1.2-0.918,1.563-2.315,1.047-3.715C-20.543-81.332-21.091-82.026-21.499-82.79z" fill="#323232"/><path style="" d="M-19.09-82.57c0.164,0.098,0.339,0.177,0.521,0.236c-1.038-0.335-1.546-4.481-0.889-5.144C-20.803-86.12-20.817-83.596-19.09-82.57z" fill="#323232"/><path style="" d="M-14.431-87.849c-0.325-1.871,0.777-3.414,0.904-5.23c0.071-1.016-0.185-2.102-0.909-2.819c0.715,0.708,0.321,2.989,0.069,3.81c-0.374,1.218-1.033,2.004-1.04,3.38c-0.006,1.258,0.413,2.567,1.356,3.401c0.339,0.3,0.738,0.533,1.052,0.859c0.526,0.546,0.774,1.381,0.523,2.096c-0.251,0.715-1.048,1.228-1.788,1.061c0.557,0.522,1.506,0.484,2.096,0c0.59-0.484,0.824-1.32,0.692-2.071c-0.132-0.752-0.588-1.418-1.16-1.923c-0.392-0.346-0.844-0.63-1.171-1.038C-14.154-86.756-14.336-87.302-14.431-87.849z" fill="#323232"/><path style="" d="M-23.42-101.975c-0.088-1.054-0.313-2.1-0.518-2.88c-0.576-2.181-1.713-4.219-3.311-5.816c0.179,0.861,0.357,1.722,0.536,2.582c-1.322-1.737-2.948-3.241-4.783-4.423c0.834,0.537,0.964,1.644,1.248,2.501c0.35,1.059,0.825,2.074,1.104,3.173c0.852,3.363-0.253,6.298-0.097,9.613c0.149,3.169,2.208,6.699,5.663,6.933c0.715,0.048,1.452-0.208,2.059-0.579c0.821-0.501,1.078-1.409,1.718-1.934c-1.233,1.011-3.037,1.39-4.476,0.703c-1.439-0.687-2.287-2.542-1.637-3.998c0.455-1.019,1.485-1.67,2.04-2.638C-23.395-99.572-23.32-100.778-23.42-101.975z" fill="#323232"/><path style="" d="M13.671-76.025c-0.288-1.377,2.609-2.413,2.896-3.968c0.397-2.148-0.984-4.356-2.144-6.028c-0.498-0.717-1.575-1.314-1.926-2.04c-0.14-0.29-0.122-0.628-0.093-0.949c0.061-0.659,0.158-1.315,0.292-1.964c-0.71,0.628-1.42,1.255-2.13,1.883c-0.394,0.348-0.795,0.706-1.047,1.167c-0.772,1.416,0.17,3.537,1.268,4.497c1.009,0.883,2.471,1.28,3.166,2.427c0.595,0.982,0.389,2.376-0.465,3.144c-0.354,0.318-0.83,0.583-0.918,1.051c-0.095,0.505,0.316,0.946,0.523,1.417c0.534,1.217-0.324,2.561-1.139,3.611c1.608-0.106,2.756-2.105,2.037-3.547C13.877-75.555,13.724-75.772,13.671-76.025z" fill="#323232"/><path style="" d="M12.108-78.11c-0.365,1.372-1.492,2.502-3.271,2.655c-0.433,0.037-0.876,0.002-1.286-0.143c-1.346-0.474-2.048-2.026-2.045-3.453c-0.005,2.781,7.865,2.843,5.289-3.173C12.074-81.106,12.475-79.487,12.108-78.11z" fill="#323232"/><path style="" d="M19.669-102.464c0.174-1.795,1.346-2.235,1.972-3.615c-1.532,3.377,0.945,4.161,3.149,5.688c1.262,0.874,2.444,1.874,3.389,3.092c1.779,2.294,2.594,5.563,1.276,8.15c-0.798,1.567-2.351,3.013-2.003,4.737c0.174,0.859,0.867,1.591,1.715,1.811c0.848,0.22,1.81-0.083,2.38-0.749c0.262,1.483-1.498,2.588-3.004,2.56c-2.496-0.046-4.793-2.136-5.074-4.617c-0.2-1.763,0.503-3.484,0.933-5.206c0.85-3.404-1.267-5.41-3.349-7.68C19.987-99.454,19.522-100.879,19.669-102.464z" fill="#323232"/><path style="" d="M24.711-88.379c1.003-1.843,1.015-3.98,0.267-5.914c-0.436-1.127-1.848-3.645-2.904-4.245c3.167,1.799,6.978,6.369,4.227,10.159c-0.333,0.458-0.809,0.795-1.163,1.237c-0.604,0.755-0.804,1.815-0.517,2.738C24.018-85.642,24.053-87.169,24.711-88.379z" fill="#464646"/><path style="" d="M28.961-81.513c1.543,0.231,3.096-0.535,2.919-2.514c-1.383,1.701-4.13,2.152-4.935-0.305c-0.307-0.938-0.211-1.964,0.032-2.92c-0.856,0.984-1.139,2.103-0.799,3.42C26.521-82.506,27.738-81.696,28.961-81.513z" fill="#464646"/><path style="" d="M24.789-100.39c-2.204-1.528-4.681-2.311-3.149-5.688c-0.626,1.38-1.798,1.82-1.972,3.615c-0.147,1.585,0.319,3.01,1.384,4.172c0.966,1.053,1.936,2.051,2.617,3.157c1.149-1.203,2.02-2.68,2.407-4.276C25.66-99.753,25.233-100.083,24.789-100.39z" fill="#1E1E1E"/><path style="" d="M24.046-69.186c0.544-0.833,1.087-1.666,1.631-2.5c1.186-1.818,3.334-2.558,4.187-4.553c0.201-0.471,0.258-0.992,0.26-1.505c0.002-0.576-0.063-1.159-0.269-1.697c-0.018-0.047-0.049-0.085-0.069-0.131c-0.797-0.073-1.587-0.254-2.354-0.491c-1.332-0.411-2.735-1.149-3.683-2.198c-0.64-0.708-0.997-2.376-1.999-2.608c-1.033-0.239-1.686,1.064-1.935,2.096c-0.404,1.677-0.688,2.83-0.374,4.576c0.344,1.914-0.358,2.646-1.32,4.181c0.02,0.001,0.039,0.007,0.059,0.008c-1.06,1.609-1.075,3.803-0.176,5.507c0.899,1.704,2.63,2.905,4.513,3.316c0.545,0.119,1.114,0.177,1.662,0.073c1.391-0.265,2.385-1.503,3.014-2.772c-0.598,0.487-1.297,0.934-2.068,0.924c-0.771-0.01-1.568-0.672-1.45-1.434C23.72-68.682,23.885-68.939,24.046-69.186z" fill="#323232"/><path style="" d="M22.218-79.293c-0.773-1.666-0.749-3.658-0.02-5.338c-0.136-0.108-0.28-0.197-0.448-0.236c-1.033-0.239-1.686,1.064-1.935,2.096c-0.157,0.653-0.282,1.223-0.375,1.783c0.194,0.308,0.415,0.598,0.68,0.854c0.61,0.588,1.428,1.052,1.68,1.861c0.227,0.73-0.095,1.526-0.558,2.134c-0.464,0.608-1.066,1.099-1.528,1.708c-1.278,1.688-1.229,4.252,0.113,5.889c-0.847-2.069-0.207-4.652,1.508-6.086c0.627-0.525,1.419-0.962,1.677-1.737C23.341-77.353,22.656-78.35,22.218-79.293z" fill="#1E1E1E"/><path style="" d="M21.192-73.373c0.322-0.551,0.984-1.321,1.64-1.456c0.183-0.038,0.051-0.337-0.096-0.229c-0.325,0.239-0.736,0.37-1.071,0.604c-0.313,0.219-0.604,0.499-0.867,0.776c-0.543,0.573-0.844,1.444-0.951,2.211c-0.123,0.881-0.004,1.775,0.352,2.59c0.241,0.552,0.862,1.727,1.603,1.606c0.113-0.018,0.15-0.146,0.136-0.24c-0.042-0.289-0.337-0.505-0.524-0.713c-0.25-0.278-0.455-0.593-0.614-0.931c-0.329-0.701-0.448-1.504-0.361-2.272C20.524-72.155,20.829-72.752,21.192-73.373z" fill="#464646"/><path style="" d="M25.774-80.234c-0.25-0.326-0.775-0.051-0.567,0.331c0.705,1.292,0.99,2.743,0.386,4.141c-0.516,1.194-1.641,2.228-2.858,2.668c-0.096,0.035-0.057,0.166,0.042,0.151c1.519-0.243,2.766-1.177,3.394-2.588C26.817-76.983,26.767-78.938,25.774-80.234z" fill="#464646"/><path style="" d="M20.557-78.127c-0.084-0.428-0.234-1.051-0.756-1.1c-0.08-0.008-0.163,0.05-0.202,0.116c-0.211,0.356,0.043,0.789,0.125,1.146c0.086,0.375,0.115,0.766,0.094,1.15c-0.011,0.193-0.01,0.387-0.022,0.578c-0.011,0.18-0.069,0.382-0.113,0.557c-0.094,0.375-0.318,0.766-0.551,1.071c-0.075,0.098,0.082,0.207,0.166,0.128c0.33-0.31,0.566-0.641,0.804-1.022c0.231-0.369,0.426-0.808,0.487-1.24C20.653-77.209,20.648-77.665,20.557-78.127z" fill="#464646"/><path style="" d="M13.613-83.149c-0.13-0.206-0.34-0.313-0.53-0.457c-0.18-0.136-0.361-0.272-0.532-0.42c-0.341-0.295-0.648-0.618-0.942-0.959c-0.307-0.355-0.52-0.78-0.691-1.217c-0.175-0.45-0.319-0.905-0.382-1.384c-0.008-0.063-0.105-0.067-0.102,0c0.028,0.489,0.09,0.984,0.24,1.451c0.149,0.465,0.369,0.899,0.578,1.339c0.212,0.445,0.514,0.859,0.853,1.215c0.319,0.335,0.784,0.81,1.27,0.844C13.583-82.723,13.719-82.981,13.613-83.149z" fill="#464646"/><path style="" d="M15.305-81.545c-0.271-1.612-1.158-2.924-2.267-4.079c-0.086-0.089-0.205,0.04-0.133,0.133c0.847,1.08,1.412,2.516,1.687,3.855c0.105,0.512,0.134,1.066,0.018,1.579c-0.059,0.259-0.152,0.503-0.306,0.721c-0.142,0.202-0.333,0.391-0.446,0.609c-0.08,0.154,0.017,0.365,0.206,0.359c0.641-0.023,1.009-0.697,1.173-1.236C15.429-80.23,15.413-80.905,15.305-81.545z" fill="#464646"/></g></g></g></g><g id="hair" data-body-part="hair"><g xmlns="http://www.w3.org/2000/svg" transform="translate(0, -27) scale(0.7)" preserveAspectRatio="none"><!---0050-01660008400083--><g><path style="" d="M18.766-151.637c0.137-1.252-0.431-3.028-1.361-4.459c-2.959,2.959-7.792,7.963-9.144,9.135c-0.137,1.091-0.294,2.866-0.395,4.087C11.438-146.006,14.974-148.776,18.766-151.637z" fill="#030303"/><path style="" d="M-21.307-115.214c-0.656,0-1.319-0.021-1.992-0.062l0.06-0.998c13.498,0.817,23.461-6.966,30.453-23.812l0.924,0.384C1.309-123.247-8.338-115.214-21.307-115.214z" fill="#323232"/><path style="" d="M-31.897-101.175c0.455,1.056,0.302,2.359-0.646,3.268c-2.734,0.756-7.497-3.22-5.542-10.722c0.697-1.305,1.377-2.459,2.404-2.507C-37.419-106.765-36.692-100.734-31.897-101.175z" fill="#1E1E1E"/><path style="" d="M-19.037-93.654c-0.631,1.105-1.64,3.063-2.082,4.108c-3.145,0.503-5.414-2.343-4.923-4.705c-0.881,0.424-1.625,0.798-3.176,0.576c-8.876-0.777-5.205-9.524-2.38-10.801C-29.622-102.527-21.143-95.082-19.037-93.654z" fill="#1E1E1E"/><path style="" d="M-30.353-102.523c-4.425,5.597,3.278,8.931,3.723,4.071C-27.485-96.573-31.37-96.926-30.353-102.523z" fill="#323232"/><path style="" d="M23.876-126.81l-0.088-0.996c1.288-0.114,1.722-1.286,1.859-2.25c0.664-4.675-3.723-13.543-12.108-16.796l0.361-0.933c8.837,3.429,13.446,12.874,12.737,17.87C26.376-128.074,25.37-126.942,23.876-126.81z" fill="#323232"/><path style="" d="M24.851-119.298c6.483,5.752,5.372,11.491,1.965,15.113c-1.333,1.418,1.407,3.73,4.016,2.34c-3.609,3.676-7.498,1.389-8.421-0.657c-0.872-1.519-0.96-10.703-0.981-13.5L24.851-119.298z" fill="#1E1E1E"/><path style="" d="M26.815-104.185c2.671-2.84,3.912-6.982,1.207-11.411c1.142,3.855,0.289,5.731-0.725,8.442c-0.433,1.158-3.701,2.765-2.114,5.249c1.049,1.642,3.177,1.454,4.79,0.81c0.286-0.219,0.572-0.459,0.857-0.749C28.222-100.455,25.482-102.767,26.815-104.185z" fill="#323232"/><path style="" d="M22.247-98.784c0.477,1.148,0.96,2.323,1.028,3.564c0.068,1.241-0.36,2.582-1.381,3.29c-0.951,0.66-2.22,0.664-3.235,1.219c-0.251,0.137-0.489,0.312-0.655,0.545c-0.515,0.721-0.057,1.907,0.809,2.095c0.866,0.188,1.774-0.701,1.605-1.571c0.536,0.851,0.269,2.07-0.495,2.724c-0.764,0.654-1.909,0.762-2.845,0.393c-0.698-0.275-1.304-0.807-1.605-1.494c-0.301-0.687-0.271-1.525,0.137-2.155c0.35-0.542,0.928-0.886,1.396-1.33c1.566-1.484,1.681-4.236,0.245-5.845L22.247-98.784z" fill="#323232"/><path style="" d="M21.487-98.565l-4.237,1.217c0.513,0.574,0.819,1.296,0.941,2.052c1.086,0.851,2.776,0.185,4.161-0.485C22.206-96.739,21.86-97.662,21.487-98.565z" fill="#1E1E1E"/><path style="" d="M20.967-100.185c-0.338,2.602-3.671,4.157-5.77,2.667C12.222-100.63,18.185-102.111,20.967-100.185z" fill="#1E1E1E"/><path style="" d="M15.198-97.518c0.43,0.305,1.719,0.582,1.506,0.433c-3.654-2.879,1.517-4.488,3.909-2.857c-0.052,0.723,0.246,0.595,0.354-0.244C18.185-102.111,12.222-100.63,15.198-97.518z" fill="#323232"/><path style="" d="M16.527-124.01c1.965,2.734,2.418,6.488,1.159,9.611c-0.837,2.076-2.396,4.007-2.258,6.241c0.093,1.515,0.963,2.852,1.738,4.157c0.776,1.304,1.951,2.779,1.723,4.279c-0.228,1.5-1.561,3.111-3.691,2.204c1.373,1.579,4.054,1.647,5.894,0.625c1.84-1.022,2.922-3.257,2.583-5.335c-0.19-1.162-0.778-2.285-0.636-3.454c0.171-1.406,1.336-2.453,2.422-3.362c3.048-2.55,2.257-7.338,0.063-10.652L16.527-124.01z" fill="#323232"/><path style="" d="M18.883-119.998c0.584,1.526,0.562,3.23,0.222,4.828c-0.34,1.598-0.982,3.114-1.62,4.618c1.024-1.117,2.073-2.275,2.588-3.701c0.436-1.209,0.455-2.533,0.287-3.807c-0.138-1.049-0.406-2.098-0.952-3.005c-0.517-0.858-1.272-1.586-1.795-2.424l-0.092-0.044L18.883-119.998z" fill="#1E1E1E"/><path style="" d="M25.524-119.695l-8.997-4.314c1.255,1.746,1.886,3.907,1.855,6.055c2.655,1.624,5.786,2.495,8.895,2.441C26.979-116.985,26.352-118.445,25.524-119.695z" fill="#1E1E1E"/><path style="" d="M-1.259-154.111c4.774,0.266,6.815-6.296,1.312-8.229c5.874,0.451,6.911,8.229,1.704,9.448L-1.259-154.111z" fill="#323232"/><path style="" d="M-38.094-131.341c-0.777,2.548-4.615,4.934-8.691,3.395c2.24,1.831,5.648,2.069,8.121,0.568L-38.094-131.341z" fill="#1E1E1E"/><path style="" d="M-36.332-134.039c-1.401-2.847-1.311-5.957,0.262-8.992c2.854-5.507,9.966-9.654,15.192-10.482l0.156,0.987c-4.981,0.79-11.752,4.729-14.46,9.955c-1.441,2.781-1.526,5.502-0.253,8.09L-36.332-134.039z" fill="#323232"/><path style="" d="M-37.842-116.556c-2.623,0-3.877-1.418-4.474-2.688c-2.566-5.462,2.354-17.264,10.323-24.759l0.686,0.729c-8.278,7.786-12.228,19.082-10.103,23.605c0.768,1.636,2.266,2.326,4.466,2.056l0.123,0.992C-37.183-116.577-37.523-116.556-37.842-116.556z" fill="#1E1E1E"/><path style="" d="M24.444-128.916c2.074,2.398,3.037,4.212,2.824,6.782c-1.157,4.118-4.724,1.11-5.34,0.427L24.444-128.916z" fill="#1E1E1E"/><g><path style="" d="M-21.712-100.814c-5.857,0.212-10.463-4.918-10.481-8.638c-0.016-3.279,4.633-5.987,7.702-0.871c-0.352-1.706-0.649-3.335-0.941-4.811c-2.85,0.446-8.234,1.029-11.419,0.268c-1.307-0.268-1.307,2.765,0.606,3.222c2.55,9.06,11.881,17.211,21.013,20.272C-18.264-94.086-20.281-97.388-21.712-100.814z" fill="#1E1E1E"/><path style="" d="M-24.008-108.119c-0.079-0.339-0.155-0.675-0.229-1.01c0.041,0.284,0.098,0.592,0.174,0.924C-24.043-108.177-24.028-108.147-24.008-108.119z" fill="#1E1E1E"/></g><path style="" d="M-33.146-96.73c-0.45-2.054,0-3.166,1.495-4.94c0.854-1.013,1.081-2.253,1.105-3.544c-0.951-1.278-1.529-2.659-1.621-3.912c-1.1-0.133-2.256-0.699-3.005-1.496c1.083,4.939-3.966,9.972-0.898,14.517c1.051,1.557,4.329,3.183,6.852,2.43C-31.292-94.13-32.8-95.154-33.146-96.73z" fill="#323232"/><path style="" d="M-33.807-102.429c1.112-1.235,1.895-2.753,2.301-4.364c-0.433-0.907-0.683-1.819-0.687-2.658c-0.001-0.221,0.022-0.439,0.061-0.652l-1.028-0.074c0.608,1.188,0.474,2.605,0.296,3.927C-33.04-104.945-33.248-103.622-33.807-102.429z" fill="#1E1E1E"/><path style="" d="M-34.7-114.598c-0.004-6.31,1.004-23.742,1.922-28.402c-5.417,6.298-11.224,17.9-6.773,24.639C-40.889-116.667-36.955-114.104-34.7-114.598z" fill="#1E1E1E"/><path style="" d="M22.644-120.089c2.536-0.819,2.562-4.093,2.536-5.125c-0.326-12.902-13.396-34.046-28.766-28.731c-0.915,0.316-1.757,0.723-1.757,1.548C-0.952-149.583,15.736-133.411,22.644-120.089z" fill="#323232"/><path style="" d="M19.168-138.29c-3.997-4.622-8.991-5.278-12.25-4.588C11.41-145.014,16.708-142.811,19.168-138.29z" fill="#1E1E1E"/><path style="" d="M21.421-120.089c2.536-0.819,2.562-4.093,2.536-5.125c-0.047-1.855-0.365-3.883-0.908-5.976c-1.422,1.055-3.235,1.661-5.015,1.678c-1.005,0.01-1.99-0.147-2.952-0.408C17.552-126.627,19.768-123.277,21.421-120.089z" fill="#1E1E1E"/><path style="" d="M9.245-146.326c0.922-0.876-0.356-2.462-2.502-2.04c1.268-1.207,4.629-1.086,7.187-0.701c-0.243-0.229-0.485-0.458-0.734-0.676c-5.333-1.401-9.533,0.24-10.348,5.637c0.432,0.486,0.872,0.986,1.317,1.494c4.135-3.726,10.268-1.94,13.587,0.794C16.667-144.19,13-145.815,9.245-146.326z" fill="#464646"/><path style="" d="M8.502-138.144c-4.391-1.442-6.332,2.336-8.44,3.92c-2.515,1.89-20.691,21.689-36.814,19.343C-44.63-147-17.518-160.481-1.976-154.38C4.114-151.377,8.502-145.815,8.502-138.144z" fill="#323232"/><path style="" d="M-26.939-117.405C-31.111-121-31-126.84-30.501-129.999c1.039-0.511,2.41-1.342,3.562-2.403C-28.841-128.652-29.717-121.288-26.939-117.405z" fill="#1E1E1E"/><path style="" d="M-2.484-147.148c-6.516-0.593-17.701,3.778-22.368,12.889C-18.841-141.431-9.741-146.704-2.484-147.148z" fill="#464646"/><path style="" d="M-29.791-136.305c-2.987,5.157-4.69,10.712-1.209,15.305C-32.111-125.593-31.868-131.945-29.791-136.305z" fill="#464646"/><path style="" d="M-18.474-146.836c-3.637,2.354-7.785,5.317-10.6,8.132C-27.348-142.723-20.778-146.333-18.474-146.836z" fill="#464646"/><path style="" d="M-17.949-150.901c-2.546,1.428-5.425,2.71-8.532,5.087C-24.407-149.667-19.963-150.901-17.949-150.901z" fill="#464646"/><path style="" d="M-32.301-126.407c-1.276,1.333-1.901,4.99-0.49,6.851C-33.241-121.417-33.143-124.641-32.301-126.407z" fill="#464646"/><path style="" d="M3.423-138.491c-8.201-3.903-24.349,0.558-25.513,10.64C-18.556-136.185-3.296-140.743,3.423-138.491z" fill="#464646"/><path style="" d="M-25.989-116.128c3.406-8.107,7.7-14.713,11.642-17.045c-5.318,2.634-11.029,9.184-13.224,17.536C-27.042-115.785-26.514-115.95-25.989-116.128z" fill="#1E1E1E"/><path style="" d="M-23.361-133.173c-2.929,3.437-5.861,10.395-2.238,16.852C-26.667-122.667-25.465-130.296-23.361-133.173z" fill="#1E1E1E"/><path style="" d="M-27.28-142.042c-4.012,4.708-13.609,18.819-5.72,27.353c-0.082-0.346,1.336-1.254,1.268-1.633C-40-119.778-32.584-134.565-27.28-142.042z" fill="#1E1E1E"/><path style="" d="M-20.041-125.266c-2.184,1.917-9.775,8.89-17.4,7.101c0.192,1.074,0.414,2.164,0.688,3.284c14.802,2.154,31.325-14.347,35.88-18.529C-8.524-133.361-15.087-129.615-20.041-125.266z" fill="#1E1E1E"/><path style="" d="M-20.709-105.387l-0.327-0.945c5.171-1.791,5.966-8.353,5.075-13.427l0.985-0.173C-14.018-114.471-14.944-107.384-20.709-105.387z" fill="#323232"/><path style="" d="M-17.23-118.683c-2.437,0.461-8.598,3.514-10.437,3.851c4.333,3.499,0.15,8.251-0.331,11.976c-0.342,2.65,1.593,5.499,4.247,5.812c3.196,0.377,3.42,2.182,1.238,4.252c-2.709,2.57-1.376,6.072,2.198,6.072c0.967,0,2.068-0.005,2.752-0.786c-3.993,0.061-2.73-2.543-1.212-4.023c3.219-3.138,2.258-7.36-0.559-10.249c-2.14-2.195,0.121-5.671,0.778-6.333C-17.175-109.503-15.556-113.184-17.23-118.683z" fill="#323232"/><path style="" d="M-18.268-117.118c0.069,3.155-0.954,5.377-0.392,7.782C-17.296-111.296-17.074-114.926-18.268-117.118z" fill="#464646"/><path style="" d="M-22.868-104.841c-0.354,2.434,1.42,2.856,2.826,3.785c2.552,1.686,3.709,4.427,2.387,7.83c0.551-7.64-5.27-6.44-6.274-9.071c-0.87-2.279-0.011-5.221,3.181-6.21C-22.422-107.147-22.633-106.462-22.868-104.841z" fill="#464646"/><path style="" d="M-20.038-92.862c1.447-0.761,1.209-4.138-0.582-5.306c1.427,3.168-0.714,4.501-1.891,5.293c-0.77,0.518-0.997,1.606-0.962,2.534c0.036,0.927,0.463,1.833,1.155,2.452C-23.477-91.37-21.889-91.889-20.038-92.862z" fill="#464646"/><path style="" d="M-23.848-114.717c1.222,2.954,0.282,7.453-3.668,9.965c-0.021,0.061-0.041,0.122-0.061,0.183c3.461-1.604,7.07-4.525,6.595-12.836C-21.609-117.152-23.848-114.717-23.848-114.717z" fill="#1E1E1E"/><path style="" d="M-17.23-118.683c-2.437,0.461-8.598,3.514-10.437,3.851c1.208,0.976,1.74,2.051,1.888,3.172c3.147,0.157,6.331-0.938,9.256-2.616C-16.53-115.577-16.732-117.048-17.23-118.683z" fill="#1E1E1E"/><path style="" d="M3.241-150.739c-4.293-1.229-10.32-1.427-15.26-0.097c5.323-0.811,11.545,0.506,16.996,2.048C4.446-149.479,3.867-150.131,3.241-150.739z" fill="#1E1E1E"/><path style="" d="M7.478-144.19c-0.126-0.355-0.264-0.703-0.412-1.045c-2.199-0.581-5.035-0.614-7.399,0.136C2.106-145.536,4.9-144.972,7.478-144.19z" fill="#1E1E1E"/><path style="" d="M5.336-143c-3.225-3.333-10.225-2.665-15.64,0.369C-3.889-144.009,1.778-144.009,5.336-143z" fill="#464646"/><path style="" d="M8.232-141.295c-0.052-0.304-0.102-0.609-0.169-0.905c-2.032-0.451-4.749-0.124-6.813,1.078C3.3-141.936,5.86-141.737,8.232-141.295z" fill="#1E1E1E"/><path style="" d="M6.658-146.114c-4.187-2.285-11.572-2.384-16.547,2.418c4.978-2.928,11.173-3.768,17.107-1.191C7.048-145.306,6.859-145.714,6.658-146.114z" fill="#1E1E1E"/><path style="" d="M-10.704-154.63c5.545,0.003,11.901,4.04,16.363,6.797c-0.983-1.48-2.186-2.792-3.562-3.927C-1.396-153.77-5.885-154.87-10.704-154.63z" fill="#1E1E1E"/><path style="" d="M8.502-138.144c0-7.67-4.388-13.232-10.478-16.236c-1.802-0.707-3.763-1.139-5.802-1.322c4.242,1.833,7.891,5.201,10.308,9.191c0.762,1.258,1.425,2.592,1.773,4.021c0.366,1.504,0.353,3.037,0.115,4.558C5.521-138.485,6.834-138.692,8.502-138.144z" fill="#1E1E1E"/><path style="" d="M24.584-120.978c0.958,0.529,2.157,0.089,2.685-1.157c-1.268,8.214-9.941,3.579-12.784-1.609c-2.892-5.276-5.003-10.888-7.097-16.425c3.226-0.05,6.527,0.121,8.782,2.785C20.444-132.333,19.111-124,24.584-120.978z" fill="#464646"/><path style="" d="M19.146-118.968c-2.044-2.489-3.731-5.316-5.029-8.243c-1.949-4.392-3.342-9.283-6.28-12.962c-0.15,0.001-0.3,0.002-0.45,0.005c2.095,5.536,4.206,11.149,7.097,16.425C15.498-121.895,17.252-120.12,19.146-118.968z" fill="#323232"/><path style="" d="M-37.768-104.538c1.99-2.453,3.101-7.746-1.009-11.509c1.444,5.195-2.843,8.12-3.962,9.604c-1.843,2.443-2.663,5.764-1.669,8.658c0.995,2.893,4.009,5.105,7.045,4.725c-1.871-0.925-2.863-3.123-2.851-5.211C-40.199-100.778-39.271-102.685-37.768-104.538z" fill="#323232"/><path style="" d="M0.259-128.916c1.204-1.533,4.848-6.254,7.244-9.511c0.326-0.443,0.233-1.618-0.108-1.761c-4.409-1.847-9.63,1.425-11.47,2.45c-5.445,3.035-21.593,23.634-31.794,21.735c-1.468-0.273-3.026-0.641-3.941-1.82c-1.117,2.833,3.099,4.313,4.395,4.584C-27-111.485-8.778-117.411,0.259-128.916z" fill="#464646"/><path style="" d="M8.859-139.586c1.771,2.883,5.697,6.438,7.712,11.28C15.593-132.852,12.715-138.185,8.859-139.586z" fill="#5A5A5A"/><path style="" d="M13.487-131.835c1.958,6.835,6.698,12.724,11.439,11.946C22.704-120.908,16.571-125.148,13.487-131.835z" fill="#5A5A5A"/><path style="" d="M16.571-128.306c-0.242-1.126-0.602-2.301-1.063-3.452c-0.201,0.096-0.405,0.187-0.605,0.285C15.525-130.479,16.103-129.431,16.571-128.306z" fill="#787878"/><path style="" d="M15.388-127.067c0.788,1.507,1.707,2.865,2.715,3.989c0.44-0.252,0.873-0.514,1.309-0.771c-1.088-1.013-2.196-2.197-3.224-3.543C15.921-127.284,15.657-127.171,15.388-127.067z" fill="#787878"/><path style="" d="M-19.903-100.957c-0.399,0.269-0.798,0.538-1.197,0.808c0.917,0.478,1.854,1.078,2.528,2.122c0.284-0.146,0.578-0.295,0.885-0.447C-18.166-99.447-18.926-100.282-19.903-100.957z" fill="#5A5A5A"/><path style="" d="M-32.229-130.97c-0.329,1.04-0.554,2.076-0.65,3.101c0.42-0.013,0.84-0.018,1.261-0.014c0.032-0.892,0.096-1.784,0.216-2.664C-31.677-130.689-31.953-130.83-32.229-130.97z" fill="#5A5A5A"/><path style="" d="M3.93-134.846c-0.241,0.771-0.531,1.527-0.843,2.274c1.447-1.888,3.115-4.087,4.416-5.855c0.326-0.443,0.231-1.613-0.112-1.752c-0.171-0.07-0.343-0.132-0.516-0.188C5.371-139.071,4.608-137.011,3.93-134.846z" fill="#323232"/><path style="" d="M8.84-129.335c0.759-2.469,1.017-8.539-1.229-11.033c-0.151-0.167-0.444-0.465-0.633-0.164c-2.19,4.48-0.291,10.315-1.113,13.22c-0.296,1.045-1.382,4.181-4.523,3.725C4.778-121.815,7.667-125.518,8.84-129.335z" fill="#464646"/><path style="" d="M19.731-106.212c-0.48-1.686-0.713-3.479-0.177-5.174c-1.74,2.308-1.56,6.737,1.219,8.188C20.331-103.428,19.886-105.667,19.731-106.212z" fill="#464646"/><path style="" d="M23.099-104.655c-0.551-1.277-1.347-2.264-1.435-3.681c-0.081-1.307-0.045-2.686,0.628-3.85c0.208-0.36,0.469-0.685,0.729-1.009c-1.526,0.326-2.282,2.428-2.479,3.799c-0.243,1.688,0.134,3.498,1.004,4.962c1.417,2.384,0.859,4.759-0.705,6.909C23.945-98.388,24.196-102.11,23.099-104.655z" fill="#464646"/><path style="" d="M24.62-110.977c0.832-0.965,0.965-1.682,0.965-2.896c-0.585,1.59-1.649,1.893-2.254,3.019c-0.632,1.177-0.972,2.567-0.679,3.893c0.215-1.134,0.455-2.323,1.199-3.205C24.09-110.451,24.376-110.695,24.62-110.977z" fill="#464646"/><path style="" d="M23.099-104.655c-0.205-0.474-0.443-0.909-0.667-1.34c-0.527,0-1.055,0-1.582,0.002c0.176,0.546,0.405,1.073,0.694,1.559c0.416,0.699,0.643,1.397,0.744,2.089c0.436-0.188,0.873-0.376,1.309-0.564C23.5-103.518,23.332-104.113,23.099-104.655z" fill="#5A5A5A"/><path style="" d="M-24.658-96.72c1.481,2.47-0.416,4.491-1.892,4.297C-23.815-90.081-21.593-94.749-24.658-96.72z" fill="#323232"/><path style="" d="M-40.97-95.172c-1.522-2.05-2.549-6.421-0.932-10.256C-44.704-101.667-44.778-96.481-40.97-95.172z" fill="#464646"/><path style="" d="M-29.889-94.111c-3.408-1.061-6.586-3.436-6.172-7.687C-38.185-97-34.778-93.667-29.889-94.111z" fill="#464646"/><path style="" d="M-39.256-101.776c0.619-1.379,1.806-2.368,2.344-3.77c0.578-1.506,0.273-3.228-0.401-4.693c0.265,1.247-0.128,2.791-0.723,3.907c-0.836,1.568-2.044,2.982-2.589,4.694c-0.606,1.902-0.013,3.622,0.916,5.305C-40.513-97.792-39.891-100.361-39.256-101.776z" fill="#464646"/><path style="" d="M-32.867-94.356c0.113-0.306,0.222-0.613,0.335-0.918c-0.846-0.505-1.603-1.123-2.2-1.867c-0.346,0.31-0.692,0.62-1.038,0.931C-35.097-95.333-34.094-94.695-32.867-94.356z" fill="#5A5A5A"/><path style="" d="M-25.835-118.104c8.168-1.414,16.242-10.764,18.054-13.301C-11.481-127.114-21.058-121.531-25.835-118.104z" fill="#5A5A5A"/><path style="" d="M-13.296-122.704c2.817-1.346,5.261-3.794,7.778-6.519c3.868-4.188,9.037-8.445,11.327-9.755C1.37-137.889-3.744-133-6.259-129.667C-8.662-126.482-11.074-124.482-13.296-122.704z" fill="#5A5A5A"/><path style="" d="M-1.975-130.393c-13.543,12.8-26.58,16.679-33.558,14.688c-0.543-0.155-1.197-0.294-1.776-0.626c-0.975-0.277-1.884-0.699-2.501-1.493c-0.125,0.316-0.174,0.612-0.177,0.895c0.926,1.661,2.688,2.992,4.842,3.148C-21.284-112.778-7.455-123.074-1.975-130.393z" fill="#5A5A5A"/><path style="" d="M-19.626-120.543c2.492-1.465,4.8-3.354,6.73-5.182c-0.179-0.268-0.358-0.535-0.536-0.803c-2.121,1.553-4.457,3.112-6.656,4.562C-19.947-121.488-19.792-121.014-19.626-120.543z" fill="#787878"/><path style="" d="M-8.484-123.757c2.716-2.234,4.951-4.555,6.509-6.635c-2.329,2.201-4.64,4.12-6.911,5.809C-8.751-124.308-8.623-124.03-8.484-123.757z" fill="#787878"/><path style="" d="M-19.106-136.355c4.87,1.101,9.644,0.057,13.033-2.148c1.12-0.729,2.523-1.977,2.899-3.794c0.004-1.698-0.691-4.363-1.687-6.478c-1.066-0.763-2.982-0.918-5.434-0.435c-4.837,0.955-10.099,4.626-11.733,7.239C-21.756-140.46-20.223-137.18-19.106-136.355z" fill="#FFFFFF" fill-opacity="0.4"/><path style="" d="M-20.687-136.852c0-1.259-0.757-2.963-1.837-4.285c-2.621,3.263-6.882,8.762-8.098,10.074c-0.018,1.099,0.019,2.881,0.051,4.105C-27.36-130.458-24.146-133.595-20.687-136.852z" fill="#1A1717"/><path style="" d="M-27.28-138.149c-3.777,4.277-6.164,12.816-1.21,20.744C-30.222-124.747-29.906-133.872-27.28-138.149z" fill="#1E1E1E"/><path style="" d="M-4.854-146.711c0.566,1.582,0.925,3.252,0.922,4.423c-0.346,1.67-1.635,2.816-2.664,3.487c-3.114,2.026-7.443,3.011-11.918,1.999c-1.027-0.758-2.435-3.773-2.685-5.161c1.502-2.401,6.278-5.8,10.723-6.678c2.253-0.444,4.014-0.301,4.993,0.4C-5.254-147.755-5.042-147.238-4.854-146.711c0.625-0.25,1.258-0.504,1.896-0.759c-0.234-0.649-0.499-1.285-0.789-1.876l-0.093-0.19l-0.161-0.137c-1.447-1.236-3.823-1.572-6.87-0.971c-5.376,1.06-10.731,4.969-12.291,8.005l-0.129,0.251l0.018,0.282c0.107,1.67,1.95,6.029,3.833,7.139l0.284,0.114c4.071,0.963,8.431,0.11,11.93-1.291c0.821-0.329,1.062-0.5,1.745-0.945c1.98-1.289,3.216-2.986,3.574-4.907l0.017-0.168c0.026-1.431-0.39-3.428-1.067-5.305C-3.596-147.214-4.229-146.961-4.854-146.711z" fill="#1A1717"/><path style="" d="M4.312-144.489c0.884,0.979,2.118,1.463,3.668,1.437c3.313-0.055,7.961-2.005,10.694-5.513c0.356-1.278-0.202-4.767-0.754-6.146c-2.214-1.115-7.934-1.134-11.635,0.507c-2.206,0.978-3.612,2.235-3.988,3.556C2.652-148.397,3.481-145.859,4.312-144.489z" fill="#FFFFFF" fill-opacity="0.4"/><path style="" d="M18.845-155.406l-0.127-0.243l-0.225-0.142c-2.627-1.661-8.931-1.471-12.594,0.154c-2.7,1.198-4.342,2.847-4.748,4.77l-0.039,0.183l0.027,0.187c0.087,0.598,0.208,1.216,0.354,1.83c0.604-0.098,1.239-0.135,1.887-0.14c-0.147-0.581-0.272-1.169-0.362-1.738c0.344-1.206,2.245-1.92,4.258-2.813c3.379-1.498,8.037-1.877,10.058-0.859c0.504,1.259,1.013,4.445,0.688,5.611c-2.495,3.202-6.792,4.945-9.817,4.995c-1.416,0.024-2.542-0.417-3.349-1.311c-0.548-0.905-1.094-2.368-1.477-3.885c-0.647,0.005-1.283,0.042-1.887,0.14c0.449,1.89,1.143,3.745,1.86,4.889l0.096,0.129c1.183,1.363,2.857,2.066,4.839,2.033c0.553-0.009,1.647-0.083,2.227-0.205c3.163-0.667,6.689-2.509,9.068-5.625l0.136-0.244C20.438-149.576,19.574-154.021,18.845-155.406z" fill="#1A1717"/><path style="" d="M-2.687-146.867l-1.583-2.548c1.449-0.9,5.081-2.154,7.156-1.448l-0.967,2.84C1.203-148.268-1.347-147.699-2.687-146.867z" fill="#231F20"/></g></g></g></svg>
