<svg xmlns:xlink="http://www.w3.org/1999/xlink" xmlns="http://www.w3.org/2000/svg" viewBox="-40.94377899169922 -146.29818725585938 68.82828521728516 163.4471893310547" preserveAspectRatio="xMidYMid meet" width="300"  height="400" > <g transform="translate(0, -27) scale(0.7)" preserveAspectRatio="none"><!--00009-00580001000017--><!--00005-00700001000018--><g/><!---0001-00860001300023--><!---0005-00130001600015--><!---0006-00320001000027--><!---0006-00530001400030--><!---0019-00950002600054--><g/><!---0018-00280001100028--><!---0017-00090001700016--><!---0017-00530001300032--><g transform="translate(0, -27) scale(0.7)" preserveAspectRatio="none"><!---0036-01550005900070--><g><g/><g/></g></g><g transform="translate(0, -27) scale(0.7)" preserveAspectRatio="none"><!--00004-01200002100020--><g><g><path style="" d="M7.854-110.101c-0.043,1.118,0.045,2.254,0.405,3.302c0.412,1.198,1.029,2.287,2.125,2.876c1.104,0.592,2.405,0.666,3.624,0.549c1.558-0.15,3.165-0.658,4.366-1.679c0.265-1.645,0.451-3.261,0.592-4.776c0.049-0.525,0.172-1.036,0.268-1.547c-1.562-0.123-3.129-0.167-4.696-0.128C12.24-111.447,9.956-111.106,7.854-110.101z" fill="#B37E78" fill-opacity="0.1"/><path style="" d="M12.797-111.399c-0.566,0.056-1.131,0.135-1.691,0.245c-0.074,0.014-0.147,0.034-0.22,0.049c-0.212,0.045-0.424,0.09-0.635,0.144c-0.107,0.027-0.213,0.061-0.32,0.091c-0.177,0.05-0.354,0.098-0.529,0.155c-0.367,0.119-0.728,0.259-1.085,0.413c-0.056,0.054-0.115,0.106-0.143,0.182c-0.066,0.178-0.069,0.374-0.065,0.565c0.026,1.171,0.189,2.631,0.844,3.604c1.821,2.703,5.73,2.457,8.209,0.928c0.516-0.318,1.025-0.735,1.407-1.164c0.161-1.349,0.267-2.571,0.399-3.642c0.065-0.523,0.172-1.036,0.268-1.547c-0.781-0.062-1.563-0.103-2.346-0.125c-0.783-0.021-1.567-0.023-2.35-0.004c-0.574,0.014-1.149,0.046-1.721,0.102C12.811-111.401,12.804-111.4,12.797-111.399z" fill="#B37E78" fill-opacity="0.1"/><path style="" d="M8.145-108.891c0.109,0.571,0.333,1.148,0.529,1.546c1.286,2.607,4.12,3.39,6.688,2.521c1.21-0.409,2.427-1.088,3.279-1.996c0.16-1.078,0.216-2.07,0.338-2.966c0.067-0.492,0.16-1.078,0.256-1.59c-0.781-0.062-1.563-0.103-2.346-0.125c-0.783-0.021-1.567-0.023-2.351-0.004c-0.574,0.014-1.149,0.046-1.721,0.102c-0.007,0.001-0.014,0.002-0.021,0.003c-0.566,0.056-1.131,0.135-1.691,0.245c-0.074,0.014-0.147,0.034-0.22,0.049c-0.212,0.045-0.424,0.09-0.635,0.144c-0.106,0.027-0.211,0.061-0.317,0.091c-0.081,0.023-0.161,0.047-0.241,0.071c-0.097,0.028-0.195,0.054-0.291,0.085c-0.367,0.119-0.728,0.259-1.085,0.413c-0.056,0.054-0.115,0.106-0.143,0.182c-0.066,0.178-0.069,0.374-0.065,0.565C8.113-109.344,8.13-109.117,8.145-108.891z" fill="#B37E78" fill-opacity="0.2"/><path style="" d="M9.071-107.272c-0.027,0.062-0.051,0.126-0.073,0.191c-0.269,0.816-0.068,1.778,0.499,2.391c0.182,0.197,0.396,0.358,0.62,0.498c0.33,0.207,0.684,0.371,1.053,0.489c0.398,0.126,0.811,0.198,1.227,0.224c0.728,0.046,1.455-0.042,2.097-0.445c0.656-0.412,0.828-1.044,0.734-1.802c-0.084-0.676-0.395-1.304-0.816-1.818c-0.491-0.6-1.147-1.063-1.882-1.236c-0.706-0.166-1.515-0.014-2.186,0.256C9.789-108.301,9.318-107.842,9.071-107.272z" fill="#F71C1C" fill-opacity="0.05"/><path style="" d="M18.849-108.546c0.059-0.482,0.073-0.695,0.112-1.117c0.002-0.023,0.041-0.283,0.045-0.306c-0.321,0.534-0.706,1.114-1.111,1.581c-0.919,1.06-2.088,1.931-3.413,2.296c-0.413,0.114-0.834,0.192-1.259,0.231c-0.379,0.036-0.732-0.042-1.103-0.018c0.748,0.211,1.465,0.317,2.233,0.184C16.109-105.998,17.686-107.15,18.849-108.546z" fill-opacity="0.35"/><path style="" d="M18.649-110.522c0.096,0.262-0.189,0.477-0.314,0.677c-0.214,0.343-0.405,0.686-0.654,1.005c-0.43,0.55-0.929,1.036-1.464,1.471c-1.098,0.894-2.435,1.37-3.823,1.3c-1.19-0.06-2.298-0.672-2.917-1.753c0.827,0.855,2.072,1.162,3.229,1.008c1.157-0.154,2.235-0.724,3.198-1.424C16.865-108.935,17.689-109.834,18.649-110.522z" fill-opacity="0.5"/><path style="" d="M14.829-106.203c-0.08-0.267-0.185-0.525-0.314-0.769c-0.052-0.099-0.364-0.5-0.463-0.246c-0.057,0.147,0.174,0.291,0.254,0.377C14.492-106.64,14.667-106.427,14.829-106.203z" fill="#191919"/><path style="" d="M15.715-106.729c-0.111-0.205-0.201-0.424-0.259-0.665c-0.042-0.171-0.105-0.423-0.251-0.534c-0.168-0.128-0.308,0.002-0.349,0.183c-0.078,0.351,0.394,0.844,0.586,1.08c0.298,0.367,0.64,0.694,1.015,0.97C16.185-106.031,15.916-106.358,15.715-106.729z" fill="#191919"/><path style="" d="M17.259-109.322c0.058-0.016,0.124,0.009,0.223,0.069c0.317,0.194,0.687,0.447,1.051,0.526c0.243,0.052,0.692,0.196,0.925,0.152c-0.405,0.076-0.821,0.079-1.226,0.011c-0.348-0.058-0.679-0.206-1.038-0.172c-0.105,0.01-0.419-0.034-0.494,0.055c0.139-0.166,0.289-0.328,0.413-0.508C17.166-109.265,17.209-109.309,17.259-109.322z" fill="#191919"/><path style="" d="M9.505-107.534c0.384,0.123,0.796,0.267,1.025,0.613c0.068,0.103,0.116,0.218,0.161,0.335c0.109,0.283,0.183,0.595,0.265,0.891c-0.186-0.355-0.432-0.629-0.677-0.935C10.028-106.941,9.786-107.251,9.505-107.534z" fill="#191919"/><path style="" d="M20.317-110.862c-0.093,0.05-0.187,0.121-0.273,0.164c-0.139,0.07-0.281,0.135-0.424,0.194c-0.276,0.114-0.568,0.171-0.857,0.242c-0.194,0.048-0.7,0.24-0.879,0.122c-0.051-0.034-0.083-0.098-0.08-0.161c0.196-0.087,0.375-0.166,0.583-0.176c0.235-0.011,0.47-0.046,0.701-0.09c0.453-0.087,0.897-0.22,1.342-0.342C20.393-110.9,20.355-110.883,20.317-110.862z" fill="#191919"/></g><g><path style="" d="M9.008-113.275c-0.452,0.583-0.792,1.222-0.983,1.926c-0.075,0.277-0.137,0.556-0.18,0.838c-0.022,0.148-0.039,0.296-0.049,0.445c-0.005,0.078-0.008,0.155-0.009,0.233c0,0.041,0.031,0.159,0.008,0.192c-0.078,0.113-0.129-0.197-0.138-0.247c-0.022-0.125-0.037-0.251-0.046-0.377c-0.019-0.259-0.016-0.518,0.008-0.777c0.047-0.517,0.176-1.031,0.386-1.523c0.601-1.407,2.046-2.579,3.814-3.095C10.707-114.975,9.72-114.194,9.008-113.275z" fill="#B37E78" fill-opacity="0.6"/><path style="" d="M17.148-110.699c-0.042-1.008-0.2-1.897-0.756-2.76c-0.159-0.246-0.341-0.483-0.561-0.698c-0.86-0.838-2.31-1.274-3.669-1.102c-1.682,0.213-3.045,1.283-3.724,2.514c-0.348,0.632-0.544,1.308-0.645,1.989c-0.05,0.338-0.174,0.723-0.139,1.06c0.04,0.386,0.237,0.758,0.473,1.046c0.295,0.361,0.677,0.631,1.072,0.862c1.316,0.771,2.888,1.156,4.361,0.783c0.603-0.153,1.172-0.426,1.736-0.699c0.298-0.144,0.597-0.291,0.862-0.495c0.715-0.553,1.023-1.431,0.997-2.334C17.152-110.59,17.151-110.645,17.148-110.699z" fill="#B37E78" fill-opacity="0.2"/><path style="" d="M14.956-113.42c-0.127-0.141-0.268-0.275-0.426-0.404c-0.66-0.541-1.387-0.822-2.238-0.837c-1.115-0.02-2.221,0.43-2.892,1.135c-0.358,0.376-0.596,0.814-0.774,1.261c-0.257,0.648-0.395,1.346-0.398,2.047c-0.002,0.59-0.163,1.048,0.223,1.569c0.235,0.317,0.581,0.572,0.944,0.698c0.321,0.112,0.566,0.302,0.868,0.465c0.697,0.377,1.49,0.54,2.273,0.548c1.342,0.013,2.712-0.433,3.738-1.357c0.092-0.083,0.184-0.174,0.231-0.291c0.042-0.106,0.044-0.224,0.041-0.338c-0.024-0.985-0.327-1.934-0.663-2.85C15.643-112.423,15.375-112.955,14.956-113.42z" fill="#B37E78" fill-opacity="0.2"/><path style="" d="M14.655-110.884c-0.305-1.129-0.869-2.17-1.778-2.592c-0.985-0.458-2.352-0.344-3.153,0.326c-0.971,0.813-1.253,2.42-1.164,3.647c0.02,0.283,0.059,0.569,0.173,0.825c0.122,0.276,0.325,0.505,0.549,0.697c1.036,0.888,2.487,1.029,3.822,0.876c0.455-0.052,0.913-0.136,1.329-0.339c0.13-0.063,0.259-0.141,0.347-0.261c0.124-0.169,0.149-0.394,0.159-0.606C14.976-109.052,14.896-109.995,14.655-110.884z" fill="#B37E78" fill-opacity="0.2"/><path style="" d="M11.105-113.086c1.325-0.626,2.803-0.812,4.247-0.746c1.086,0.05,2.188,0.248,3.131,0.809c0.222,0.132,0.436,0.287,0.609,0.487c0.13,0.151,0.336,0.415,0.281,0.632c-0.043,0.17-0.087,0.34-0.13,0.51c-0.009,0.034-0.018,0.069-0.04,0.095c-0.026,0.031-0.064,0.044-0.101,0.058c-0.259,0.097-0.498,0.256-0.694,0.46c-0.2,0.209-0.299,0.409-0.409,0.676c-0.445,1.087-1.508,1.727-2.514,2.252c-0.51,0.266-1.027,0.525-1.573,0.694c-1.787,0.552-3.826,0.032-5.16-1.316c-0.295-0.298-0.556-0.631-0.809-0.968c-0.067-0.089-0.135-0.183-0.154-0.295c-0.023-0.139,0.035-0.279,0.098-0.405C8.541-111.456,9.842-112.49,11.105-113.086z" fill-opacity="0.2"/><path style="" d="M19.185-111.389c0.065-0.119,0.046-0.273-0.127-0.504c-0.78-1.04-2.117-1.413-3.375-1.528c-0.963-0.088-1.945-0.062-2.883,0.196c-1.885,0.519-3.728,1.64-4.636,3.537c-0.051,0.107-0.1,0.223-0.09,0.342c0.011,0.136,0.095,0.25,0.179,0.353c0.453,0.552,1.044,1.066,1.666,1.391c0.63,0.329,1.333,0.476,2.034,0.546c1.751,0.175,3.628-0.156,5.004-1.328c0.433-0.369,0.817-0.83,0.998-1.384c0.108-0.33,0.147-0.698,0.358-0.968C18.556-111.048,19.05-111.144,19.185-111.389z" fill-opacity="0.2"/><path style="" d="M9.079-110.513c-0.072,0.072-0.142,0.145-0.211,0.22c-0.252,0.274-0.626,0.645-0.559,1.066c0.057,0.362,0.323,0.669,0.581,0.893c0.939,0.815,2.147,1.265,3.368,1.311c1.221,0.046,2.449-0.306,3.515-0.948c0.699-0.422,1.33-0.97,1.86-1.609c0.426-0.512,1.291-1.436,0.837-2.132c-0.162-0.248-0.411-0.418-0.667-0.551c-1.023-0.531-2.217-0.565-3.36-0.473c-0.512,0.041-1.024,0.106-1.529,0.206c-0.536,0.107-1.049,0.309-1.559,0.514c-0.531,0.213-1.037,0.496-1.503,0.84C9.58-110.976,9.321-110.754,9.079-110.513z" fill-opacity="0.2"/><path style="" d="M19.714-113.623c-0.011-0.071-0.038-0.142-0.087-0.214c-0.281-0.413-0.782-0.622-1.256-0.626c-1.464-0.012-2.48,1.116-3.201,2.324c-0.243,0.408-0.476,0.822-0.704,1.239c-0.337,0.616-0.67,1.245-1.144,1.751c-0.82,0.875-1.812,0.929-2.903,0.771c-0.331-0.048-0.653-0.113-0.971-0.226c-0.161-0.058-0.32-0.125-0.473-0.203c-0.08-0.04-0.357-0.142-0.392-0.229c0.325,0.803,1.189,1.563,1.964,1.85c0.307,0.114,0.634,0.16,0.96,0.188c0.718,0.063,1.385,0.002,2.074-0.224c0.671-0.22,1.36-0.339,2.014-0.646c0.864-0.405,1.639-1.052,2.145-1.894c0.286-0.476,0.512-1.039,0.98-1.311c0.148-0.086,0.413-0.139,0.521-0.282c0.106-0.141,0.076-0.404,0.117-0.578c0.082-0.352,0.164-0.704,0.246-1.055C19.656-113.216,19.746-113.421,19.714-113.623z" fill-opacity="0.15"/><path style="" d="M15.507-107.902c0.861-0.503,1.701-1.131,2.187-2.033c0.125-0.233,0.226-0.482,0.374-0.699c0.129-0.189,0.294-0.342,0.501-0.424c0.191-0.075,0.465,0.045,0.617-0.117c0.107-0.114,0.133-0.596,0.17-0.757c0.126-0.538-0.049-1.053-0.474-1.399c-0.297-0.242-0.689-0.351-1.064-0.295c-0.197,0.029-0.386,0.102-0.566,0.191c-0.792,0.393-1.369,1.114-1.769,1.916c-0.38,0.762-0.661,1.738-1.221,2.372c-0.52,0.588-1.238,0.959-1.977,1.118c-0.591,0.127-1.2,0.127-1.796,0.052c-0.288-0.036-0.565-0.106-0.846-0.166c-0.155-0.033-0.431-0.012-0.537-0.16c0.569,0.794,1.51,1.233,2.456,1.311C12.959-106.881,14.271-107.18,15.507-107.902z" fill-opacity="0.15"/><path style="" d="M18.733-111.606c-0.004-0.009-0.008-0.018-0.013-0.028c-0.179-0.38-0.566-0.662-0.978-0.645c-0.326,0.014-0.633,0.189-0.877,0.421c-0.244,0.232-0.433,0.519-0.62,0.803c-0.452,0.687-0.851,1.48-1.4,2.078c-0.499,0.544-1.088,0.985-1.749,1.279c-0.34,0.151-0.68,0.189-1.03,0.287c-0.21,0.058-0.421,0.11-0.634,0.154c-0.125,0.026-0.425,0.141-0.543,0.096c0.675,0.256,1.409,0.326,2.122,0.232c0.726-0.095,1.319-0.409,1.985-0.694c0.606-0.259,1.221-0.524,1.736-0.951c0.254-0.211,0.478-0.457,0.702-0.703c0.159-0.174,0.318-0.349,0.453-0.544c0.165-0.238,0.289-0.503,0.453-0.742C18.613-110.958,18.971-111.071,18.733-111.606z" fill-opacity="0.2"/><path style="" d="M11.89-109.064c-0.011,0.004,0,0.021,0.01,0.027c0.058,0.034,0.076,0.12,0.049,0.184c-0.027,0.064-0.088,0.107-0.153,0.126s-0.132,0.016-0.198,0.011c-0.091-0.006-0.184-0.015-0.263-0.063c-0.063-0.038-0.114-0.108-0.108-0.184c0.006-0.072,0.064-0.13,0.128-0.153C11.52-109.175,11.73-109.1,11.89-109.064z" fill="#FCFCFC" fill-opacity="0.4"/><path style="" d="M12.769-109.033c-0.004,0.005,0.002,0.017,0.007,0.02c0.027,0.018,0.043,0.085,0.039,0.141c-0.005,0.056-0.025,0.1-0.05,0.125s-0.053,0.033-0.08,0.039c-0.038,0.009-0.077,0.016-0.114-0.011c-0.03-0.021-0.058-0.07-0.063-0.132c-0.005-0.059,0.013-0.115,0.037-0.143C12.606-109.067,12.699-109.038,12.769-109.033z" fill="#FCFCFC" fill-opacity="0.4"/><path style="" d="M12.895-108.003c1.319-0.078,2.745-0.569,3.678-1.446c0.105-0.099,0.214-0.281,0.339-0.349c-0.387,0.213-0.78,0.416-1.183,0.597c-1.202,0.54-2.481,0.802-3.813,0.827c-1.18,0.022-2.513-0.218-3.496-1.076c0.156,0.252,0.343,0.487,0.568,0.67c0.508,0.413,1.27,0.572,1.87,0.679C11.537-107.979,12.221-107.963,12.895-108.003z" fill="#B37E78" fill-opacity="0.6"/><path style="" d="M12.895-108.003c1.319-0.078,2.745-0.569,3.678-1.446c0.105-0.099,0.214-0.281,0.339-0.349c-0.387,0.213-0.78,0.416-1.183,0.597c-1.202,0.54-2.481,0.802-3.813,0.827c-1.18,0.022-2.513-0.218-3.496-1.076c0.156,0.252,0.343,0.487,0.568,0.67c0.508,0.413,1.27,0.572,1.87,0.679C11.537-107.979,12.221-107.963,12.895-108.003z" fill-opacity="0.6"/><path style="" d="M18.587-111.3c-0.203,0.049-0.462,0.066-0.632,0.176c-0.096,0.062-0.146,0.176-0.195,0.283c-0.082,0.18-0.103,0.386-0.167,0.576c-0.044,0.129-0.098,0.259-0.188,0.358c-0.051,0.055-0.111,0.099-0.163,0.153c-0.053,0.055-0.096,0.12-0.14,0.184c-0.334,0.478-0.763,0.88-1.247,1.182c-0.242,0.151-0.498,0.277-0.763,0.375c-0.286,0.105-0.556,0.254-0.844,0.362c-1.281,0.48-2.72,0.569-3.97-0.031c-0.246-0.118-0.499-0.216-0.679-0.428c-0.041-0.048-0.091-0.086-0.14-0.126c-0.417-0.339-0.578-0.874-1.007-1.189c-0.331-0.243-0.687-0.385-0.848-0.803c0.034,0.486-0.007,0.982-0.114,1.457c-0.045,0.198-0.074,0.395-0.089,0.601c-0.009,0.122,0.047,0.549-0.014,0.635c0.114-0.162,0.172-0.431,0.258-0.633c0.086-0.203,0.213-0.335,0.354-0.233c0.163,0.118,0.266,0.323,0.372,0.493c0.132,0.211,0.265,0.422,0.397,0.633c0.014,0.022,0.03,0.045,0.054,0.051c0.031,0.007,0.062-0.02,0.074-0.051c0.013-0.031,0.013-0.066,0.019-0.099c0.009-0.049,0.032-0.097,0.071-0.126c0.23-0.165,0.709,0.458,0.846,0.607c0.055,0.06,0.109,0.122,0.179,0.16c0.093,0.05,0.196,0.004,0.297-0.008c0.134-0.016,0.269-0.024,0.404-0.024c0.058,0,0.121,0.002,0.167,0.039c0.032,0.026,0.052,0.066,0.071,0.104c0.317,0.643,0.807,1.189,1.398,1.558c-0.204-0.128-0.402-0.418-0.545-0.614c-0.15-0.206-0.333-0.466-0.352-0.734c0.278,0.142,0.602,0.199,0.896,0.061c0.038-0.018,0.076-0.039,0.117-0.042c0.15-0.013,0.206,0.144,0.283,0.241c0.107,0.134,0.262,0.246,0.393,0.353c0.281,0.229,0.584,0.429,0.902,0.596c-0.314-0.367-0.663-0.689-0.814-1.166c0.031,0.097,0.279,0.136,0.356,0.162c0.158,0.052,0.318,0.096,0.48,0.134c-0.107-0.091-0.204-0.194-0.291-0.307c-0.024-0.031-0.194-0.331-0.221-0.324c0.34-0.088,0.669,0.027,1.006,0.003c0.443-0.031,0.722-0.299,1.048-0.584c0.018-0.016,0.437,0.359,0.476,0.389c0.172,0.133,0.355,0.25,0.547,0.348c0.39,0.2,0.815,0.324,1.248,0.361c-0.169-0.014-0.37-0.134-0.521-0.214c-0.17-0.09-0.331-0.199-0.48-0.323c-0.301-0.252-0.558-0.571-0.727-0.937c-0.032-0.07,0.495-0.263,0.542-0.281c0.3-0.117,0.596-0.144,0.862-0.358c0.674,0.401,1.418,0.672,2.188,0.786c-0.229-0.034-0.485-0.173-0.697-0.267c-0.23-0.102-0.453-0.22-0.664-0.36c-0.133-0.089-0.551-0.331-0.524-0.506c0.016-0.104,0.136-0.196,0.2-0.268c0.067-0.077,0.145-0.14,0.213-0.212c0.088-0.095,0.153-0.229,0.224-0.339c0.012-0.019,0.026-0.039,0.045-0.048c0.018-0.008,0.038-0.007,0.057-0.006c0.45,0.028,0.908-0.028,1.342-0.163c0.218-0.068,0.43-0.156,0.631-0.267c0.159-0.088,0.344-0.249,0.515-0.299c-0.554,0.16-1.135,0.279-1.709,0.292c-0.178,0.004-0.357-0.004-0.534-0.023c-0.147-0.016-0.301-0.067-0.449-0.06c0.119-0.006,0.153-0.603,0.199-0.702c0.013-0.027,0.036-0.047,0.059-0.065c0.375-0.303,0.815-0.499,1.253-0.674c0.418-0.166,0.935-0.301,1.381-0.341c-0.555,0.049-1.112,0.104-1.654,0.245c-0.333,0.086-0.665,0.172-0.996,0.267C18.619-111.308,18.603-111.304,18.587-111.3z" fill="#0F0F0F"/><ellipse transform="matrix(0.0956 -0.9954 0.9954 0.0956 127.027 -79.3089)" style="" cx="19.866" cy="-109.563" rx="0.162" ry="0.154" fill="#0F0F0F"/><ellipse transform="matrix(0.0956 -0.9954 0.9954 0.0956 123.7807 -78.8249)" style="" cx="18.51" cy="-107.534" rx="0.146" ry="0.138" fill="#0F0F0F"/><ellipse transform="matrix(0.0956 -0.9954 0.9954 0.0956 121.1013 -79.1977)" style="" cx="16.965" cy="-106.246" rx="0.215" ry="0.204" fill="#0F0F0F" fill-opacity="0.8"/><ellipse transform="matrix(0.0956 -0.9954 0.9954 0.0956 119.9608 -80.453)" style="" cx="15.704" cy="-106.246" rx="0.148" ry="0.14" fill="#0F0F0F"/><ellipse transform="matrix(0.0956 -0.9954 0.9954 0.0956 122.4856 -80.0271)" style="" cx="17.201" cy="-107.422" rx="0.169" ry="0.16" fill="#0F0F0F" fill-opacity="0.45"/><ellipse transform="matrix(0.0956 -0.9954 0.9954 0.0956 116.972 -81.9086)" style="" cx="13.408" cy="-105.329" rx="0.157" ry="0.149" fill="#0F0F0F"/><ellipse transform="matrix(0.0956 -0.9954 0.9954 0.0956 118.5465 -82.1428)" style="" cx="14.067" cy="-106.313" rx="0.149" ry="0.141" fill="#0F0F0F" fill-opacity="0.4"/><ellipse transform="matrix(0.0956 -0.9954 0.9954 0.0956 115.0853 -87.2971)" style="" cx="9.499" cy="-106.985" rx="0.13" ry="0.123" fill="#0F0F0F"/><ellipse transform="matrix(0.0956 -0.9954 0.9954 0.0956 115.2696 -85.6166)" style="" cx="10.516" cy="-106.246" rx="0.185" ry="0.175" fill="#0F0F0F"/></g></g></g><g transform="translate(0, -27) scale(0.7)" preserveAspectRatio="none"><!--00005-01150002000014--><g><path style="" d="M7.783-109.725c-0.032,1.06,0.067,2.138,0.437,3.132c0.424,1.137,1.051,2.17,2.153,2.728c1.11,0.562,2.411,0.632,3.63,0.521c1.556-0.142,3.158-0.624,4.349-1.593c0.249-1.561,0.42-3.093,0.546-4.53c0.044-0.498,0.162-0.982,0.253-1.467c-1.563-0.117-3.131-0.159-4.698-0.122C12.156-111.003,9.875-110.678,7.783-109.725z" fill="#B37E78" fill-opacity="0.1"/><path style="" d="M12.713-110.957c-0.566,0.053-1.129,0.128-1.688,0.233c-0.074,0.014-0.146,0.032-0.22,0.047c-0.212,0.042-0.424,0.086-0.633,0.137c-0.107,0.026-0.212,0.058-0.319,0.087c-0.177,0.047-0.353,0.093-0.528,0.147c-0.365,0.113-0.725,0.246-1.081,0.391c-0.056,0.051-0.114,0.1-0.141,0.173c-0.064,0.169-0.065,0.355-0.059,0.536c0.037,1.111,0.214,2.496,0.879,3.418c1.848,2.564,5.754,2.331,8.218,0.88c0.513-0.302,1.018-0.697,1.396-1.104c0.148-1.279,0.242-2.439,0.364-3.455c0.06-0.497,0.162-0.982,0.253-1.467c-0.781-0.058-1.564-0.098-2.347-0.118c-0.783-0.02-1.567-0.022-2.351-0.003c-0.574,0.013-1.148,0.044-1.72,0.097C12.727-110.959,12.72-110.958,12.713-110.957z" fill="#B37E78" fill-opacity="0.1"/><path style="" d="M8.086-108.578c0.114,0.542,0.344,1.089,0.544,1.467c1.311,2.473,4.153,3.216,6.713,2.392c1.206-0.388,2.416-1.032,3.259-1.894c0.15-1.023,0.196-1.964,0.31-2.814c0.063-0.467,0.149-1.023,0.241-1.508c-0.781-0.058-1.564-0.098-2.347-0.118c-0.783-0.02-1.567-0.022-2.351-0.003c-0.574,0.013-1.148,0.044-1.72,0.097c-0.007,0.001-0.014,0.002-0.021,0.002c-0.566,0.053-1.129,0.128-1.688,0.233c-0.074,0.014-0.146,0.032-0.22,0.047c-0.212,0.042-0.424,0.086-0.633,0.137c-0.106,0.026-0.211,0.058-0.316,0.086c-0.08,0.021-0.16,0.044-0.24,0.067c-0.097,0.026-0.194,0.051-0.29,0.081c-0.365,0.113-0.725,0.246-1.081,0.391c-0.056,0.051-0.114,0.1-0.141,0.173c-0.064,0.169-0.065,0.355-0.059,0.536C8.05-109.007,8.068-108.792,8.086-108.578z" fill="#B37E78" fill-opacity="0.2"/><path style="" d="M9.028-107.041c-0.026,0.059-0.05,0.119-0.071,0.181c-0.261,0.774-0.051,1.687,0.522,2.268c0.184,0.186,0.399,0.339,0.624,0.472c0.332,0.196,0.688,0.352,1.057,0.463c0.399,0.12,0.813,0.187,1.229,0.213c0.729,0.044,1.454-0.04,2.093-0.422c0.652-0.391,0.818-0.99,0.716-1.71c-0.091-0.641-0.408-1.237-0.834-1.724c-0.497-0.569-1.157-1.008-1.894-1.172c-0.708-0.157-1.515-0.013-2.183,0.243C9.736-108.018,9.269-107.582,9.028-107.041z" fill="#F71C1C" fill-opacity="0.05"/><path style="" d="M18.793-108.25c0.055-0.458,0.066-0.66,0.102-1.059c0.002-0.022,0.039-0.268,0.042-0.29c-0.316,0.507-0.696,1.057-1.096,1.5c-0.909,1.005-2.069,1.831-3.391,2.178c-0.412,0.108-0.832,0.182-1.256,0.22c-0.379,0.034-0.733-0.04-1.103-0.017c0.75,0.2,1.468,0.3,2.235,0.174C16.078-105.833,17.644-106.926,18.793-108.25z" fill-opacity="0.35"/><path style="" d="M18.258-110.608c0.234,0.059,0.373,0.212,0.254,0.565c-0.186,0.55-0.525,1.068-0.889,1.515c-0.425,0.522-0.919,0.983-1.449,1.396c-1.09,0.848-2.422,1.3-3.81,1.233c-1.029-0.049-2.016-0.452-2.603-1.333c-0.083-0.125-1.021-1.623-0.905-1.668c1.222-0.468,2.452-0.929,3.729-1.211c0.72-0.159,1.451-0.257,2.181-0.355c0.805-0.096,1.611-0.114,2.421-0.125C17.449-110.595,17.941-110.687,18.258-110.608z" fill-opacity="0.5"/><path style="" d="M14.796-106.028c-0.082-0.253-0.19-0.498-0.321-0.73c-0.053-0.094-0.369-0.474-0.465-0.234c-0.056,0.14,0.177,0.276,0.257,0.358C14.455-106.442,14.631-106.24,14.796-106.028z" fill="#191919"/><path style="" d="M15.299-106.374c0.25,0.372,0.446,0.794,0.517,1.237c0.071-0.24,0.033-0.512-0.04-0.763c-0.063-0.215-0.158-0.421-0.207-0.638c-0.047-0.205-0.116-0.4-0.218-0.589c-0.132-0.243-0.652-0.826-0.773-0.288c-0.044,0.195,0.162,0.345,0.274,0.471C15.012-106.764,15.164-106.575,15.299-106.374z" fill="#191919"/><path style="" d="M16.898-107.701c0.134,0.116,0.263,0.233,0.386,0.368c0.088,0.097,0.174,0.197,0.257,0.299c0.059,0.073,0.195,0.193,0.219,0.284c-0.039-0.15-0.086-0.297-0.149-0.439c-0.058-0.131-0.147-0.232-0.231-0.347c-0.178-0.245-0.388-0.475-0.601-0.684c-0.2-0.197-0.458-0.446-0.734-0.527c-0.173-0.051-0.377-0.009-0.254,0.194c0.091,0.149,0.23,0.197,0.372,0.287c0.21,0.133,0.417,0.294,0.605,0.455C16.812-107.775,16.855-107.738,16.898-107.701z" fill="#191919"/><path style="" d="M17.567-109.468c0.174,0.04,0.357,0.039,0.53,0.082c0.424,0.106,0.83,0.359,1.173,0.631c0.171,0.136,0.333,0.286,0.475,0.456c0.072,0.086,0.139,0.177,0.2,0.272c0.045,0.071,0.089,0.215,0.149,0.266c-0.429-0.363-0.904-0.741-1.438-0.933c-0.269-0.097-0.554-0.148-0.839-0.162c-0.144-0.007-0.289-0.005-0.433,0.006c-0.066,0.005-0.321-0.002-0.359,0.042C17.214-109.022,17.403-109.233,17.567-109.468z" fill="#191919"/><path style="" d="M9.717-107.29c0.385,0.117,0.799,0.253,1.031,0.582c0.214,0.302,0.324,0.873,0.289,1.237C10.809-106.206,10.262-106.774,9.717-107.29z" fill="#191919"/><path style="" d="M21.25-110.536c0.038,0.001,0.075,0.003,0.113,0.005c-0.623,0.068-1.24,0.188-1.849,0.331c-0.573,0.135-1.137,0.304-1.685,0.521c-0.311,0.123-0.204-0.065-0.055-0.217c0.268-0.271,0.539-0.335,0.907-0.415C19.524-110.492,20.389-110.568,21.25-110.536z" fill="#191919"/><path style="" d="M16.408-107.951c0.426-0.309,0.796-0.666,1.184-1.019c0.362-0.329,0.681-0.657,0.916-1.092c0.051-0.095,0.099-0.198,0.092-0.305c-0.013-0.202-0.223-0.346-0.425-0.353c-0.202-0.008-0.393,0.086-0.568,0.186c-0.955,0.546-1.736,1.342-2.532,2.101c-0.232,0.221-0.467,0.44-0.73,0.624c-0.161,0.112-0.335,0.213-0.467,0.358c-0.142,0.156-0.306,0.5-0.017,0.582c0.263,0.074,0.683-0.084,0.929-0.17C15.377-107.244,15.916-107.594,16.408-107.951z" fill="#0F0F0F"/><path style="" d="M17.418-109.586c-0.613,0.831-1.366,1.559-2.216,2.145c-0.873,0.602-1.871,1.146-2.961,1.122c-0.838-0.019-1.621-0.17-2.29-0.714c-0.834-0.68-1.528-1.79-1.594-2.885c-0.002-0.032,1.292-0.33,1.415-0.362c0.494-0.129,0.989-0.255,1.49-0.359c1.109-0.229,2.244-0.308,3.375-0.29c0.654,0.011,1.305,0.048,1.963,0.1c0.354,0.028,0.709,0.055,1.057,0.13c0.118,0.026,0.371,0.041,0.384,0.173c0.01,0.093-0.163,0.258-0.212,0.336C17.7-109.983,17.563-109.782,17.418-109.586z" fill="#FFFEFE"/><path style="" d="M17.656-110.699c-0.347-0.075-0.703-0.103-1.057-0.13c-0.658-0.051-1.309-0.089-1.963-0.1c-1.131-0.018-2.266,0.061-3.375,0.29c-0.5,0.104-0.996,0.23-1.49,0.359c-0.122,0.032-1.417,0.331-1.415,0.362c0.034,0.567,0.239,1.137,0.542,1.65c0.085-0.015,0.17-0.03,0.253-0.046c1.025-0.188,2.066-0.295,3.108-0.32c1.042-0.025,2.086,0.032,3.12,0.17c0.089,0.012,0.428,0.086,0.849,0.181c0.433-0.4,0.839-0.829,1.189-1.303c0.145-0.196,0.282-0.398,0.41-0.604c0.048-0.078,0.221-0.242,0.212-0.336C18.026-110.658,17.774-110.674,17.656-110.699z" fill="#E5E6E6"/><path style="" d="M17.942-110.49c-0.161-0.121-0.345-0.196-0.539-0.25c-0.266-0.042-0.535-0.069-0.804-0.09c-0.658-0.051-1.309-0.089-1.963-0.1c-1.131-0.018-2.266,0.061-3.375,0.29c-0.5,0.104-0.996,0.23-1.49,0.359c-0.122,0.032-1.417,0.331-1.415,0.362c0.02,0.328,0.102,0.656,0.222,0.974c0.925-0.103,1.885-0.379,2.797-0.472c1.969-0.201,3.956-0.205,5.928-0.033c0.036-0.047,0.078-0.089,0.113-0.136c0.145-0.196,0.282-0.398,0.41-0.604c0.034-0.054,0.125-0.149,0.176-0.234C17.982-110.444,17.966-110.472,17.942-110.49z" fill="#CCCCCC"/></g></g><g transform="translate(0, -27) scale(0.7)" preserveAspectRatio="none"><!--00007-01160001300012--><g><path style="" d="M15.439-109.907c-0.013,0.223-0.051,0.438-0.115,0.632c-0.285,0.87-0.903,1.608-1.789,1.9c-0.12,0.04-0.243,0.073-0.366,0.101c-0.917,0.212-1.933,0.144-2.765-0.336c-0.763-0.441-1.206-1.217-1.206-2.098c0-0.971,0.553-1.772,1.401-2.222c0.617-0.327,1.319-0.457,2.014-0.518c0.742-0.065,1.561,0.071,2.135,0.582C15.255-111.415,15.479-110.62,15.439-109.907z" fill="#3FA2FF"/><path style="" d="M9.404-108.764c0.046,0.107,0.084,0.219,0.145,0.315c0.027,0.045,0.065,0.082,0.096,0.125c0.508,0.688,1.386,1.054,2.303,1.145c0.411,0.024,0.825-0.003,1.221-0.095c0.123-0.029,0.246-0.062,0.366-0.101c0.886-0.291,1.504-1.03,1.789-1.9c0.064-0.194,0.102-0.409,0.115-0.632c0.015-0.268-0.02-0.545-0.081-0.814c-0.112-0.293-0.297-0.553-0.462-0.817c-0.175-0.28-0.418-0.509-0.704-0.675c-0.489-0.219-1.052-0.282-1.579-0.236c-0.695,0.061-1.397,0.191-2.014,0.518c-0.849,0.45-1.401,1.251-1.401,2.222c0,0.239,0.035,0.457,0.091,0.661C9.315-108.948,9.365-108.858,9.404-108.764z" fill-opacity="0.05"/><path style="" d="M13.879-112.353c-0.257-0.086-0.469-0.125-0.737-0.119c-0.258,0.005-0.526,0.031-0.776,0.053c-0.176,0.015-0.368,0.117-0.541,0.099c0.562,0.056,1.111,0.235,1.598,0.52c0.22,0.128,0.274,0.48,0.323,0.717c0.058,0.281,0.075,0.57,0.05,0.856c-0.022,0.243-0.076,0.489-0.206,0.695c-0.103,0.163-0.25,0.293-0.403,0.411c-0.377,0.288-0.825,0.515-1.299,0.514c-0.751-0.001-1.602-0.412-1.743-1.207c-0.059-0.331,0.03-0.671,0.166-0.978c0.138-0.311,0.31-0.671,0.591-0.878c0.044-0.032,0.09-0.061,0.128-0.099c0.04-0.041,0.069-0.091,0.103-0.137c0.066-0.089,0.236-0.149,0.282-0.235c0.083-0.155-0.162-0.104-0.242-0.076c-0.153,0.054-0.303,0.136-0.445,0.214c-0.283,0.156-0.549,0.344-0.78,0.57c-0.468,0.459-0.751,1.066-0.751,1.726c0,1.451,1.255,2.572,2.819,2.55c-0.39-0.069-0.767-0.221-1.094-0.448c-0.411-0.285-0.728-0.684-0.974-1.121c0.367,0.469,1.117,0.821,1.628,0.962c0.694,0.192,1.615,0.245,2.257-0.126c0.393-0.227,0.663-0.625,0.828-1.049c0.31-0.797,0.275-1.722-0.094-2.494C14.4-111.781,14.16-112.089,13.879-112.353z" fill-opacity="0.15"/><path style="" d="M10.03-110.698c0.137-0.651,0.512-1.125,1.127-1.382c0.548-0.229,1.171-0.329,1.747-0.136c0.356,0.119,0.653,0.375,0.884,0.671c0.309,0.397,0.505,0.822,0.63,1.302c0.182,0.7-0.025,1.57-0.641,1.999c-1.023,0.713-2.627,0.502-3.366-0.512C9.982-109.341,9.878-109.975,10.03-110.698z" fill="#3FA2FF"/><path style="" d="M11.647-111.806c0.8-0.205,1.766-0.035,2.182,0.733c0.195,0.359,0.316,0.758,0.355,1.165c0.054,0.569-0.263,1.219-0.789,1.478c-0.336,0.166-0.718,0.222-1.093,0.22c-0.627-0.002-1.176-0.228-1.556-0.735c-0.624-0.834-0.601-2.156,0.409-2.676C11.307-111.699,11.473-111.762,11.647-111.806z" fill-opacity="0.2"/><path style="" d="M13.97-109.538c0.055-0.149,0.071-0.31,0.075-0.469c0.008-0.305-0.042-0.61-0.145-0.897c-0.026-0.056-0.042-0.116-0.071-0.17c-0.416-0.768-1.382-0.938-2.182-0.733c-0.174,0.045-0.34,0.107-0.491,0.185c-0.305,0.157-0.51,0.391-0.644,0.658c-0.023,0.106-0.037,0.213-0.041,0.321c-0.031,0.861,0.514,1.574,1.304,1.875c0.427,0.163,0.959,0.126,1.383-0.033C13.511-108.933,13.84-109.183,13.97-109.538z" fill-opacity="0.2"/><path style="" d="M13.706-111.073c-0.399-0.768-1.325-0.938-2.092-0.733c-0.101,0.027-0.191,0.072-0.285,0.112c-0.402,0.397-0.595,0.961-0.453,1.548c0.194,0.799,1.015,1.273,1.775,1.113c0.373-0.078,0.714-0.306,0.938-0.626c0.045-0.065,0.086-0.133,0.114-0.208c0.031-0.083,0.046-0.171,0.057-0.259c0.034-0.259,0.04-0.524,0.012-0.783C13.748-110.964,13.733-111.021,13.706-111.073z" fill-opacity="0.2"/><path style="" d="M11.574-110.288c-0.006,0.064-0.006,0.128,0,0.191c0.043,0.42,0.362,0.81,0.798,0.831c0.313,0.015,0.68-0.101,0.855-0.38c0.109-0.173,0.106-0.396,0.052-0.593c-0.072-0.259-0.251-0.565-0.5-0.682c-0.306-0.144-0.742-0.194-0.981,0.092C11.671-110.677,11.593-110.485,11.574-110.288z" fill-opacity="0.4"/><circle style="" cx="14.208" cy="-109.102" r="0.207" fill="#FFFFFF" fill-opacity="0.5"/><circle style="" cx="9.888" cy="-108.832" r="0.171" fill="#FFFFFF" fill-opacity="0.3"/></g></g><g transform="translate(0, -27) scale(0.7)" preserveAspectRatio="none"><!--00004-01220002200017--><g><path style="" d="M8.819-114.183c-0.45,0.747-0.787,1.565-0.972,2.468c-0.073,0.355-0.133,0.713-0.173,1.073c-0.021,0.189-0.037,0.379-0.045,0.57c-0.004,0.1-0.007,0.199-0.006,0.299c0,0.052,0.032,0.203,0.01,0.246c-0.078,0.145-0.132-0.253-0.142-0.317c-0.023-0.16-0.04-0.321-0.05-0.482c-0.022-0.331-0.021-0.664,0-0.995c0.043-0.662,0.167-1.321,0.374-1.951c0.592-1.802,2.036-3.303,3.814-3.965C10.515-116.361,9.527-115.36,8.819-114.183z" fill="#B37E78" fill-opacity="0.6"/><path style="" d="M17.044-110.884c0.047-1.22-0.227-2.451-0.785-3.536c-0.162-0.315-0.348-0.619-0.572-0.894c-0.875-1.074-2.341-1.632-3.708-1.412c-1.693,0.272-3.056,1.643-3.728,3.22c-0.345,0.809-0.535,1.676-0.631,2.548c-0.062,0.571-0.155,1.264-0.15,1.897c0.537-0.476,1.183-0.831,1.86-1.078c1.96-0.715,4.073-0.851,6.142-0.781c0.524,0.018,1.047,0.05,1.569,0.09C17.041-110.847,17.043-110.866,17.044-110.884z" fill="#B37E78" fill-opacity="0.2"/><path style="" d="M14.768-114.313c-0.486-1.009-1.55-1.62-2.653-1.645c-1.124-0.025-2.234,0.551-2.903,1.454c-0.357,0.482-0.593,1.043-0.767,1.616c-0.284,0.933-0.41,1.914-0.376,2.888c0.005,0.133,0.005,0.31,0.01,0.505c0.394-0.257,0.808-0.482,1.25-0.643c1.923-0.701,3.991-0.843,6.022-0.781c0.023-0.158,0.039-0.316,0.044-0.47c0.023-0.709-0.207-1.456-0.375-2.138C14.954-113.795,14.887-114.065,14.768-114.313z" fill="#B37E78" fill-opacity="0.2"/><path style="" d="M14.032-110.922c-0.012-0.327-0.041-0.654-0.08-0.974c-0.121-0.971-0.392-2.05-1.236-2.546c-0.997-0.586-2.374-0.441-3.175,0.418c-0.616,0.661-0.912,1.602-0.988,2.488c-0.048,0.565-0.018,1.145,0.081,1.714c0.225-0.12,0.455-0.229,0.695-0.316C10.837-110.688,12.434-110.888,14.032-110.922z" fill="#B37E78" fill-opacity="0.2"/><path style="" d="M12.211-112.428c-1.541,0.125-3.285,0.373-4.485,1.436c0.24-0.213,0.752-0.321,1.053-0.428c0.396-0.141,0.8-0.249,1.203-0.366c0.771-0.225,1.631-0.245,2.432-0.288c1.759-0.093,3.592,0.061,5.342,0.272c-0.857-0.392-1.768-0.475-2.691-0.58C14.118-112.489,13.161-112.505,12.211-112.428z" fill="#B37E78" fill-opacity="0.6"/><path style="" d="M11.005-112.557c1.319-0.594,2.795-0.771,4.24-0.707c1.086,0.048,2.191,0.235,3.139,0.767c0.371,0.208,0.731,0.488,0.884,0.885c0.153,0.397,0.023,0.926-0.368,1.095c-0.312,0.135-0.668,0.012-0.999-0.063c-0.348-0.079-0.706-0.105-1.062-0.13c-1.258-0.089-2.519-0.178-3.78-0.159c-1.242,0.019-2.513,0.151-3.674,0.618c-0.225,0.09-1.32,0.738-1.108,0.077c0.156-0.484,0.72-0.992,1.086-1.321C9.85-111.932,10.408-112.289,11.005-112.557z" fill-opacity="0.2"/><path style="" d="M19.23-110.867c-0.021-0.206-0.131-0.395-0.261-0.558c-0.79-0.987-2.131-1.34-3.39-1.45c-0.964-0.084-1.946-0.059-2.881,0.186c-1.072,0.28-2.049,0.846-2.889,1.561c-0.422,0.359-0.81,0.755-1.168,1.177c-0.008,0.009-0.02,0.023-0.029,0.033c0.285-0.082,0.652-0.285,0.772-0.333c1.161-0.467,2.432-0.599,3.674-0.618c1.261-0.019,2.522,0.07,3.78,0.159c0.356,0.025,0.714,0.051,1.062,0.13c0.332,0.076,0.687,0.198,0.999,0.063C19.056-110.584,19.158-110.717,19.23-110.867z" fill-opacity="0.2"/><path style="" d="M8.96-110.172c-0.045,0.044-0.125,0.12-0.214,0.206c0.257-0.095,0.536-0.245,0.638-0.286c1.161-0.467,2.432-0.599,3.674-0.618c1.261-0.019,2.522,0.07,3.78,0.159c0.356,0.025,0.714,0.051,1.062,0.13c0.192,0.044,0.391,0.098,0.586,0.114c0.116-0.251,0.057-0.561-0.102-0.789c-0.164-0.236-0.415-0.396-0.673-0.523c-1.029-0.504-2.223-0.536-3.365-0.449c-0.511,0.039-1.023,0.1-1.527,0.196c-0.646,0.122-1.28,0.301-1.884,0.559C10.209-111.16,9.526-110.728,8.96-110.172z" fill-opacity="0.2"/><path style="" d="M19.648-113.073c0.041-0.175,0.107-0.381,0.176-0.601c-0.11-0.035-0.223-0.063-0.336-0.084c-0.554-0.101-1.122-0.123-1.682-0.066c-1.525,0.153-3,0.893-3.936,2.122c-0.147,0.192-0.379,0.495-0.549,0.815c0.717-0.04,1.436-0.056,2.151-0.031c1.025,0.035,2.047,0.121,3.068,0.216c0.192,0.018,0.431,0.097,0.566-0.042c0.105-0.108,0.127-0.565,0.163-0.719C19.395-112,19.521-112.536,19.648-113.073z" fill-opacity="0.15"/><path style="" d="M19.647-113.068c-0.097-0.031-0.188-0.082-0.288-0.106c-2.001-0.481-4.385,0.447-5.382,2.262c0.499-0.016,0.997-0.024,1.494-0.007c1.025,0.035,2.047,0.121,3.068,0.216c0.192,0.018,0.431,0.097,0.566-0.042c0.105-0.108,0.127-0.565,0.163-0.719C19.395-111.998,19.521-112.533,19.647-113.068z" fill-opacity="0.15"/><path style="" d="M19.33-111.726c-0.11-0.196-0.262-0.372-0.444-0.511c-0.117-0.09-0.246-0.165-0.381-0.222c-0.564-0.236-1.216-0.188-1.794,0.011c-0.827,0.284-1.683,0.791-2.18,1.533c0.313-0.005,0.627-0.015,0.939-0.004c1.025,0.035,2.047,0.121,3.068,0.216c0.192,0.018,0.431,0.097,0.566-0.042c0.105-0.108,0.127-0.565,0.163-0.719C19.289-111.551,19.31-111.638,19.33-111.726z" fill-opacity="0.2"/><path style="" d="M12.211-112.428c-1.541,0.125-3.285,0.373-4.485,1.436c0.24-0.213,0.752-0.321,1.053-0.428c0.396-0.141,0.8-0.249,1.203-0.366c0.771-0.225,1.631-0.245,2.432-0.288c1.759-0.093,3.592,0.061,5.342,0.272c-0.857-0.392-1.768-0.475-2.691-0.58C14.118-112.489,13.161-112.505,12.211-112.428z" fill-opacity="0.3"/><path style="" d="M18.544-111.701c0.337,0.211,0.595,0.564,0.639,0.959c0.12,1.087-1.2,1.383-2.008,1.481c-0.498,0.06-0.971,0.292-1.48,0.252c-0.304-0.024-0.615-0.158-0.776-0.417c-0.232-0.371-0.089-0.865,0.145-1.234c0.496-0.78,1.39-1.291,2.314-1.321C17.779-111.994,18.191-111.918,18.544-111.701z" fill="none"/><path style="" d="M14.382-112.645c-0.012,0.006,0.003,0.023,0.016,0.027c0.073,0.027,0.108,0.118,0.088,0.193s-0.083,0.132-0.154,0.163c-0.071,0.031-0.149,0.039-0.226,0.046c-0.106,0.009-0.215,0.015-0.314-0.024c-0.079-0.031-0.151-0.098-0.156-0.183c-0.005-0.079,0.051-0.153,0.121-0.189C13.937-112.704,14.191-112.657,14.382-112.645z" fill="#FCFCFC" fill-opacity="0.4"/><path style="" d="M11.13-111.932c-0.177,0.342-0.457,0.81-0.809,0.999c-0.167,0.09-0.398,0.102-0.583,0.147c-0.161,0.04-0.633,0.074-0.738,0.217c0.202-0.277,0.342-0.599,0.408-0.935c0.068-0.346-0.014-0.588-0.062-0.923c0.067,0.475-0.054,0.967-0.31,1.369c-0.291,0.457-0.668,0.609-1.121,0.855c-0.181,0.098-0.361,0.21-0.483,0.376c0.243-0.115,0.492-0.219,0.746-0.31c-0.256,0.279-0.47,0.596-0.635,0.937c0.08-0.049,0.159-0.099,0.239-0.148c0.262,0.226,0.55,0.401,0.843,0.586c-0.024-0.166-0.119-0.312-0.178-0.469c-0.059-0.157-0.075-0.353,0.04-0.475c0.073-0.077,0.183-0.107,0.288-0.122c0.222-0.032,0.451-0.016,0.666,0.048c-0.131-0.033-0.143-0.236-0.045-0.329c0.098-0.093,0.247-0.101,0.382-0.095c0.158,0.007,0.32,0.029,0.459,0.104c0.039,0.021,0.079,0.047,0.124,0.05c0.091,0.004,0.152-0.087,0.212-0.156c0.14-0.162,0.371-0.24,0.581-0.196c0.16,0.033,0.298,0.129,0.451,0.188c0.152,0.059,0.344,0.072,0.461-0.041c0.08-0.077,0.109-0.198,0.194-0.27c0.148-0.125,0.374-0.043,0.542,0.053c0.251,0.144,0.49,0.309,0.713,0.494c-0.049-0.26-0.133-0.513-0.248-0.751c0.462-0.026,0.837,0.424,1.299,0.443c0.246,0.01,0.477-0.103,0.711-0.181c0.391-0.13,0.977-0.107,1.323,0.132c0.076,0.053,0.144,0.119,0.228,0.16c0.254,0.123,0.551-0.029,0.833-0.036c0.292-0.008,0.583,0.108,0.877,0.121c0.063-0.166,0.08-0.35,0.049-0.525c0.022,0.119,1.707-0.18,1.869-0.217c0.631-0.146,1.281-0.299,1.81-0.674c-1.084,0.392-2.218,0.577-3.368,0.443c0.375-0.29,0.667-0.627,0.908-1.036c-0.131,0.223-0.466,0.46-0.692,0.574c-0.266,0.135-0.529,0.274-0.832,0.313c-0.112,0.015-0.226,0.018-0.34,0.015c0.017,0,0.203-0.248,0.223-0.27c0.361-0.399,0.655-0.808,0.806-1.329c0.122-0.422,0.235-0.859,0.187-1.296c-0.052,0.732-0.336,1.443-0.792,2.017c-0.401,0.506-1.057,0.743-1.685,0.784c-0.066,0.004-0.579,0.003-0.609,0.037c0.763-0.87,0.997-2.17,0.586-3.252c0.085,0.672,0.031,1.34-0.237,1.965c-0.112,0.26-0.256,0.507-0.431,0.73c-0.083,0.106-0.172,0.215-0.272,0.305c-0.072,0.065-0.202,0.121-0.247,0.207c0.201-0.385,0.311-0.822,0.233-1.25c-0.06,0.471-0.328,0.774-0.636,1.105c-0.025,0.027-0.051,0.055-0.085,0.071c-0.037,0.018-0.08,0.019-0.121,0.02c-0.59,0.019-1.194,0.075-1.779,0.069c0.385-0.536,0.876-1.178,0.847-1.872c-0.177,0.393-0.402,0.765-0.669,1.103c-0.233,0.294-0.542,0.659-0.916,0.766c-0.145,0.042-0.3,0.049-0.435,0.116c-0.049,0.025-0.094,0.057-0.144,0.081c-0.065,0.032-0.136,0.05-0.207,0.064c-0.217,0.045-0.44,0.062-0.661,0.052c0.191-0.343,0.372-0.712,0.511-1.08s0.224-0.762,0.194-1.154C11.499-112.768,11.336-112.333,11.13-111.932z" fill="#0F0F0F"/><circle style="" cx="20.743" cy="-111.253" r="0.154" fill="#0F0F0F"/><circle style="" cx="18.881" cy="-112.18" r="0.138" fill="#0F0F0F"/><circle style="" cx="16.436" cy="-113.429" r="0.204" fill="#0F0F0F" fill-opacity="0.8"/><circle style="" cx="15.206" cy="-112.241" r="0.141" fill="#0F0F0F"/><circle style="" cx="12.763" cy="-112.911" r="0.16" fill="#0F0F0F" fill-opacity="0.45"/><circle style="" cx="11.102" cy="-112.195" r="0.175" fill="#0F0F0F"/><circle style="" cx="11.127" cy="-112.58" r="0.141" fill="#0F0F0F" fill-opacity="0.4"/><circle style="" cx="9.352" cy="-111.192" r="0.175" fill="#0F0F0F"/><circle style="" cx="8.424" cy="-110.679" r="0.175" fill="#0F0F0F"/></g></g><g transform="translate(0, -27) scale(0.7)" preserveAspectRatio="none"><!---0022-01210002500021--><g><g><path style="" d="M-1.814-110.156c0.041,1.18-0.087,2.374-0.57,3.463c-0.552,1.245-1.37,2.365-2.807,2.937c-1.447,0.575-3.144,0.596-4.732,0.418c-2.662-0.298-5.888-1.011-7.188-3.802c-0.734-1.576-0.893-3.498-0.609-5.215c0.548-0.024,1.06,0.259,1.594,0.336c0.585,0.085,1.25-0.02,1.842-0.019c1.258,0.003,2.516,0.038,3.772,0.106C-7.515-111.771-4.541-111.309-1.814-110.156z" fill="#B37E78" fill-opacity="0.1"/><path style="" d="M-8.241-111.745c0.738,0.084,1.472,0.193,2.201,0.334c0.096,0.018,0.191,0.042,0.286,0.062c0.276,0.057,0.552,0.114,0.826,0.18c0.139,0.034,0.277,0.074,0.416,0.11c0.23,0.06,0.461,0.12,0.688,0.187c0.476,0.142,0.945,0.306,1.41,0.483c0.072,0.059,0.148,0.117,0.184,0.198c0.084,0.191,0.085,0.397,0.077,0.598c-0.048,1.234-0.279,2.765-1.146,3.761c-2.467,2.835-7.136,2.281-10.149,0.894c-1.008-0.464-1.954-0.922-2.663-1.845c-1.155-1.505-1.164-3.269-1.038-5.111c0.004-0.064,0.011-0.134,0.053-0.181c0.057-0.064,0.152-0.06,0.235-0.051c1.09,0.118,2.182,0.091,3.285,0.091c1.021,0.013,2.043,0.046,3.065,0.101C-9.763-111.893-9.014-111.833-8.241-111.745z" fill="#B37E78" fill-opacity="0.1"/><path style="" d="M-2.209-108.894c-0.149,0.597-0.448,1.196-0.709,1.606c-1.709,2.691-5.415,3.39-8.752,2.36c-2.256-0.696-4.393-1.958-4.984-4.56c-0.194-0.855-0.192-1.746-0.169-2.625c1.058,0.179,2.169,0.066,3.246,0.079c1.021,0.013,2.043,0.046,3.065,0.101c0.748,0.041,1.497,0.1,2.27,0.188c0.738,0.084,1.472,0.193,2.201,0.334c0.096,0.018,0.191,0.042,0.286,0.062c0.276,0.057,0.552,0.114,0.826,0.18c0.138,0.033,0.275,0.074,0.412,0.11c0.105,0.027,0.209,0.056,0.313,0.085c0.126,0.034,0.253,0.066,0.378,0.103c0.476,0.142,0.945,0.306,1.41,0.483c0.072,0.059,0.148,0.117,0.184,0.198c0.084,0.191,0.085,0.397,0.077,0.598C-2.161-109.37-2.185-109.131-2.209-108.894z" fill="#B37E78" fill-opacity="0.2"/><path style="" d="M-3.436-107.228c0.034,0.067,0.065,0.135,0.092,0.204c0.34,0.872,0.066,1.877-0.681,2.498c-0.239,0.199-0.52,0.359-0.814,0.497c-0.433,0.204-0.897,0.361-1.378,0.468c-0.52,0.116-1.06,0.172-1.602,0.182c-0.95,0.016-1.896-0.109-2.728-0.563c-0.85-0.463-1.067-1.137-0.934-1.933c0.118-0.709,0.532-1.356,1.087-1.88c0.647-0.61,1.508-1.07,2.469-1.219c0.923-0.143,1.975,0.053,2.846,0.368C-4.36-108.345-3.75-107.84-3.436-107.228z" fill="#F71C1C" fill-opacity="0.05"/><path style="" d="M-16.114-109.056c-0.669-0.816-1.148-1.676-1.254-2.782c0.028,0.291,0.381,0.724,0.532,0.964c0.213,0.338,0.446,0.662,0.698,0.968c0.491,0.598,1.046,1.022,1.625,1.494c1.219,0.992,2.498,1.799,4.007,2.188c0.537,0.138,1.085,0.239,1.638,0.3c0.494,0.054,0.955-0.012,1.439,0.031c-0.978,0.189-1.915,0.269-2.914,0.094C-12.478-106.172-14.673-107.3-16.114-109.056z" fill-opacity="0.35"/><path style="" d="M-15.933-111.05c0.407,0.986,1.026,1.874,1.787,2.587c1.052,0.986,2.391,1.539,3.72,1.958c0.856,0.27,1.75,0.404,2.642,0.398c1.552-0.01,3.005-0.606,3.825-1.718c-1.089,0.864-2.717,1.133-4.223,0.919s-2.905-0.863-4.152-1.644c-0.542-0.339-1.238-0.718-1.635-1.237c-0.415-0.543-0.846-1.065-1.192-1.666c-0.039-0.068-0.079-0.138-0.137-0.187c-0.059-0.049-0.132-0.074-0.204-0.097c-0.053-0.017-0.743-0.239-0.736-0.21C-16.155-111.642-16.053-111.342-15.933-111.05z" fill-opacity="0.5"/><path style="" d="M-10.696-106.62c0.104-0.265,0.24-0.52,0.406-0.76c0.067-0.097,0.467-0.487,0.589-0.228c0.071,0.15-0.224,0.285-0.326,0.369C-10.264-107.045-10.487-106.838-10.696-106.62z" fill="#191919"/><path style="" d="M-11.812-107.187c0.143-0.201,0.259-0.418,0.336-0.658c0.055-0.171,0.138-0.421,0.324-0.527c0.214-0.121,0.391,0.015,0.439,0.199c0.094,0.356-0.51,0.832-0.755,1.061c-0.382,0.356-0.818,0.67-1.297,0.932C-12.415-106.505-12.07-106.822-11.812-107.187z" fill="#191919"/><path style="" d="M-13.735-109.859c-0.073-0.018-0.158,0.003-0.284,0.06c-0.404,0.181-0.875,0.421-1.337,0.484c-0.308,0.042-0.879,0.168-1.174,0.114c0.512,0.093,1.039,0.114,1.553,0.063c0.441-0.044,0.862-0.179,1.317-0.129c0.133,0.015,0.531-0.016,0.625,0.076c-0.174-0.173-0.362-0.343-0.516-0.528C-13.617-109.798-13.672-109.844-13.735-109.859z" fill="#191919"/><path style="" d="M-3.937-107.732c-0.488,0.107-1.011,0.235-1.306,0.573c-0.087,0.1-0.15,0.215-0.208,0.33c-0.142,0.28-0.239,0.59-0.346,0.884c0.24-0.349,0.555-0.614,0.869-0.911C-4.608-107.158-4.296-107.459-3.937-107.732z" fill="#191919"/><path style="" d="M-17.588-111.538c0.117,0.054,0.236,0.129,0.343,0.176c0.175,0.076,0.354,0.148,0.535,0.214c0.348,0.127,0.717,0.196,1.082,0.279c0.245,0.056,0.884,0.271,1.112,0.16c0.065-0.032,0.106-0.095,0.104-0.159c-0.248-0.096-0.473-0.183-0.737-0.202c-0.298-0.021-0.594-0.066-0.887-0.121c-0.572-0.107-1.133-0.259-1.695-0.401C-17.684-111.579-17.636-111.56-17.588-111.538z" fill="#191919"/></g><g><path style="" d="M-3.248-113.484c0.559,0.606,0.979,1.262,1.209,1.979c0.091,0.282,0.165,0.565,0.215,0.85c0.026,0.15,0.046,0.299,0.056,0.449c0.005,0.078,0.008,0.157,0.008,0.235c0,0.041-0.04,0.158-0.012,0.193c0.097,0.117,0.165-0.193,0.176-0.243c0.029-0.125,0.05-0.251,0.063-0.377c0.027-0.259,0.026-0.52,0-0.781c-0.053-0.522-0.208-1.044-0.466-1.548c-0.737-1.44-2.533-2.68-4.744-3.274C-5.358-115.265-4.129-114.437-3.248-113.484z" fill="#B37E78" fill-opacity="0.6"/><path style="" d="M-14.33-110.559c-0.218-0.304-0.41-0.638-0.573-1.008c-0.026-0.06-0.052-0.123-0.051-0.189c0.002-0.084,0.046-0.158,0.091-0.228c1.661-2.604,4.754-4.027,7.684-3.63c2.105,0.285,3.802,1.419,4.638,2.686c0.429,0.65,0.666,1.338,0.784,2.027c0.059,0.342,0.209,0.734,0.161,1.071c-0.055,0.386-0.306,0.752-0.605,1.032c-0.374,0.35-0.856,0.605-1.354,0.821c-1.659,0.719-3.634,1.04-5.477,0.602c-0.754-0.179-1.464-0.478-2.167-0.777c-0.371-0.158-0.745-0.318-1.075-0.535C-13.075-109.214-13.783-109.796-14.33-110.559z" fill="#B37E78" fill-opacity="0.2"/><path style="" d="M-10.794-114.062c1.092-0.619,2.303-0.977,3.446-0.954c1.399,0.028,2.778,0.526,3.611,1.264c0.444,0.393,0.738,0.844,0.955,1.301c0.315,0.663,0.479,1.37,0.474,2.075c-0.005,0.593,0.192,1.06-0.299,1.568c-0.299,0.309-0.735,0.551-1.191,0.662c-0.404,0.099-0.713,0.279-1.093,0.431c-0.878,0.35-1.875,0.48-2.856,0.454c-1.101-0.029-2.207-0.249-3.229-0.69c-0.475-0.205-0.892-0.459-1.3-0.777c-0.409-0.318-0.883-0.53-1.287-0.87c-0.225-0.189-0.451-0.427-0.474-0.73c-0.016-0.21,0.07-0.413,0.163-0.599C-13.234-112.209-12.099-113.322-10.794-114.062z" fill="#B37E78" fill-opacity="0.2"/><path style="" d="M-10.735-111.746c0.096-0.096,0.195-0.191,0.294-0.283c0.37-0.343,0.76-0.644,1.098-1.014c0.339-0.372,0.784-0.651,1.248-0.807c1.241-0.418,2.953-0.246,3.949,0.462c1.208,0.859,1.541,2.486,1.415,3.716c-0.029,0.284-0.081,0.57-0.227,0.823c-0.156,0.273-0.413,0.494-0.697,0.678c-1.309,0.849-3.13,0.929-4.802,0.719c-1.274-0.161-2.684-0.637-3.768-1.382c-0.084-0.058-0.172-0.124-0.208-0.224c-0.044-0.124,0.006-0.261,0.06-0.381C-11.984-110.32-11.4-111.082-10.735-111.746z" fill="#B37E78" fill-opacity="0.2"/><path style="" d="M-5.879-113.383c-1.653-0.685-3.504-0.936-5.315-0.93c-1.581,0.005-3.4,0.18-4.808,1.005c-0.425,0.249-0.812,0.598-1.035,1.055c0.393,0.128,0.811,0.228,1.192,0.39c0.193,0.082,0.609,0.487,0.783,0.487c0.249,0.218,0.37,0.423,0.504,0.697c0.545,1.112,1.869,1.8,3.125,2.372c0.636,0.29,1.281,0.572,1.963,0.764c2.234,0.631,4.796,0.195,6.485-1.104c0.373-0.287,0.704-0.611,1.026-0.939c0.085-0.086,0.172-0.178,0.196-0.29c0.031-0.139-0.041-0.282-0.118-0.412C-2.686-111.635-4.304-112.73-5.879-113.383z" fill-opacity="0.2"/><path style="" d="M-16.048-111.971c-0.063-0.028-0.123-0.056-0.18-0.084c-0.016-0.008-0.034-0.017-0.041-0.035c-0.097-0.227,0.631-0.664,0.763-0.746c0.498-0.309,1.015-0.587,1.575-0.747c0.755-0.215,1.539-0.301,2.318-0.332c1.208-0.048,2.439,0.021,3.612,0.32c2.357,0.601,4.653,1.807,5.769,3.753c0.063,0.11,0.122,0.229,0.109,0.348c-0.016,0.136-0.122,0.248-0.229,0.347c-0.574,0.536-1.321,1.028-2.105,1.328c-0.793,0.304-1.676,0.422-2.557,0.463c-2.197,0.102-4.546-0.311-6.257-1.548c-0.539-0.39-1.014-0.869-1.234-1.434c-0.131-0.336-0.176-0.708-0.437-0.988C-15.201-111.62-15.67-111.801-16.048-111.971z" fill-opacity="0.2"/><path style="" d="M-3.371-110.71c0.089,0.075,0.177,0.152,0.262,0.23c0.313,0.286,0.777,0.675,0.688,1.096c-0.076,0.362-0.413,0.659-0.74,0.874c-1.187,0.78-2.707,1.181-4.239,1.175c-1.531-0.006-3.067-0.411-4.395-1.103c-0.871-0.454-1.655-1.031-2.313-1.697c-0.537-0.536-0.918-1.192-1.44-1.716c0.147-0.184,0.298-0.366,0.479-0.512c0.572-0.463,1.521-0.736,2.225-0.825c0.92-0.117,1.853-0.075,2.773,0.015c0.641,0.063,1.282,0.15,1.914,0.273c0.671,0.13,1.311,0.355,1.949,0.583c0.663,0.237,1.294,0.543,1.874,0.909C-3.993-111.196-3.671-110.962-3.371-110.71z" fill-opacity="0.2"/><path style="" d="M-16.135-114.894c0.243-0.13,0.503-0.226,0.752-0.283c0.337-0.078,0.686-0.096,1.03-0.074c2.297,0.15,3.468,2.126,5.077,3.553c1.871,1.658,4.413,2.213,6.851,2.259c-0.292-0.006-0.867,1.048-1.101,1.234c-0.446,0.354-0.962,0.63-1.502,0.779c-0.368,0.101-0.758,0.133-1.147,0.148c-0.857,0.032-1.652-0.057-2.472-0.314c-0.922-0.289-1.862-0.458-2.784-0.758c-0.803-0.261-1.544-0.724-2.157-1.333c-0.53-0.527-0.999-1.121-1.55-1.625c-0.602-0.551-1.561-0.659-1.927-1.468C-17.5-113.737-16.899-114.486-16.135-114.894z" fill-opacity="0.15"/><path style="" d="M-10.957-108.286c-0.139-0.042-0.279-0.086-0.419-0.138c-0.551-0.204-1.081-0.473-1.576-0.801c-0.395-0.262-0.814-0.528-1.111-0.907c-0.531-0.679-1-1.415-1.601-2.018c-0.235-0.236-0.458-0.527-0.466-0.87c-0.01-0.422,0.312-0.776,0.665-0.974c0.739-0.414,1.658-0.347,2.426,0.004c1.667,0.762,2.607,2.498,3.961,3.684c1.587,1.39,3.723,2.051,5.766,1.784c-0.141,0.018-0.367,0.384-0.494,0.484c-0.218,0.172-0.482,0.298-0.734,0.403c-0.54,0.225-1.122,0.337-1.701,0.356c-1.17,0.039-2.595-0.056-3.66-0.622C-10.241-108.081-10.597-108.177-10.957-108.286z" fill-opacity="0.15"/><path style="" d="M-14.612-112.677c0.215-0.105,0.528-0.068,0.746-0.046c0.404,0.042,0.791,0.196,1.144,0.403c0.736,0.432,1.346,1.082,1.894,1.749c0.573,0.696,1.249,1.296,2.007,1.752c1.272,0.764,2.751,1.135,4.211,1.056c-0.218,0.012-0.528,0.27-0.748,0.341c-0.254,0.082-0.517,0.117-0.782,0.156c-0.607,0.09-1.226,0.083-1.833-0.006c-0.865-0.127-1.568-0.467-2.359-0.782c-0.52-0.207-1.015-0.356-1.544-0.519c-0.529-0.163-1.051-0.377-1.498-0.725c-0.772-0.602-1.451-1.705-1.494-2.737c-0.006-0.134-0.001-0.27,0.04-0.396C-14.787-112.552-14.71-112.629-14.612-112.677z" fill-opacity="0.2"/><path style="" d="M-6.609-109.372c0.013,0.004,0,0.021-0.012,0.026c-0.069,0.031-0.092,0.117-0.06,0.183c0.031,0.066,0.104,0.112,0.181,0.133s0.157,0.021,0.236,0.02c0.108-0.002,0.22-0.008,0.314-0.052c0.075-0.036,0.138-0.104,0.131-0.181c-0.007-0.072-0.074-0.134-0.151-0.16C-6.166-109.468-6.417-109.401-6.609-109.372z" fill="#FCFCFC" fill-opacity="0.4"/><path style="" d="M-7.658-109.378c0.005,0.005-0.003,0.017-0.008,0.02c-0.033,0.017-0.052,0.084-0.048,0.14c0.005,0.057,0.029,0.102,0.058,0.127c0.029,0.026,0.062,0.035,0.095,0.043c0.045,0.011,0.092,0.019,0.136-0.006c0.035-0.02,0.07-0.068,0.076-0.13c0.006-0.059-0.014-0.116-0.043-0.146C-7.463-109.405-7.575-109.38-7.658-109.378z" fill="#FCFCFC" fill-opacity="0.4"/><path style="" d="M-7.82-108.347c-1.573-0.135-3.267-0.688-4.371-1.61c-0.125-0.104-0.253-0.291-0.4-0.366c0.459,0.231,0.926,0.452,1.405,0.651c1.427,0.594,2.95,0.912,4.538,0.994c1.408,0.073,3-0.112,4.183-0.933c-0.189,0.247-0.415,0.475-0.686,0.65c-0.611,0.394-1.522,0.521-2.238,0.603C-6.2-108.266-7.017-108.278-7.82-108.347z" fill="#B37E78" fill-opacity="0.6"/><path style="" d="M-7.82-108.347c-1.573-0.135-3.267-0.688-4.371-1.61c-0.125-0.104-0.253-0.291-0.4-0.366c0.459,0.231,0.926,0.452,1.405,0.651c1.427,0.594,2.95,0.912,4.538,0.994c1.408,0.073,3-0.112,4.183-0.933c-0.189,0.247-0.415,0.475-0.686,0.65c-0.611,0.394-1.522,0.521-2.238,0.603C-6.2-108.266-7.017-108.278-7.82-108.347z" fill-opacity="0.6"/><path style="" d="M-15.392-111.905c0.256,0.058,0.585,0.086,0.799,0.204c0.12,0.066,0.183,0.183,0.243,0.292c0.102,0.184,0.126,0.393,0.205,0.586c0.054,0.132,0.12,0.265,0.234,0.368c0.063,0.058,0.14,0.105,0.204,0.161c0.067,0.058,0.12,0.125,0.175,0.191c0.417,0.494,0.955,0.917,1.564,1.242c0.305,0.162,0.627,0.3,0.962,0.409c0.361,0.118,0.701,0.279,1.064,0.4c1.616,0.537,3.437,0.687,5.027,0.137c0.314-0.109,0.634-0.196,0.865-0.401c0.052-0.047,0.116-0.083,0.178-0.121c0.532-0.324,0.742-0.854,1.29-1.153c0.422-0.23,0.875-0.358,1.084-0.771c-0.049,0.487-0.003,0.987,0.127,1.47c0.054,0.201,0.089,0.4,0.106,0.608c0.01,0.123-0.067,0.55,0.009,0.639c-0.143-0.168-0.213-0.441-0.319-0.648c-0.106-0.207-0.266-0.346-0.445-0.25c-0.208,0.112-0.341,0.313-0.478,0.48c-0.17,0.207-0.34,0.413-0.51,0.62c-0.018,0.021-0.038,0.044-0.069,0.049c-0.04,0.006-0.078-0.023-0.094-0.055c-0.016-0.032-0.016-0.067-0.023-0.101c-0.011-0.05-0.04-0.099-0.089-0.129c-0.289-0.176-0.904,0.43-1.079,0.574c-0.07,0.058-0.139,0.118-0.228,0.153c-0.119,0.047-0.248-0.005-0.375-0.021c-0.17-0.021-0.341-0.035-0.511-0.042c-0.074-0.003-0.153-0.003-0.211,0.033c-0.041,0.025-0.066,0.064-0.091,0.102c-0.41,0.633-1.037,1.161-1.79,1.508c0.26-0.12,0.515-0.403,0.698-0.595c0.192-0.201,0.427-0.454,0.455-0.724c-0.354,0.131-0.765,0.175-1.136,0.024c-0.048-0.019-0.096-0.042-0.148-0.047c-0.189-0.019-0.263,0.136-0.362,0.23c-0.137,0.13-0.334,0.237-0.502,0.338c-0.359,0.218-0.745,0.406-1.15,0.561c0.402-0.356,0.848-0.664,1.045-1.137c-0.04,0.096-0.354,0.125-0.453,0.147c-0.201,0.045-0.405,0.083-0.61,0.114c0.136-0.087,0.261-0.187,0.372-0.296c0.031-0.03,0.25-0.324,0.284-0.316c-0.429-0.102-0.847-0.002-1.274-0.04c-0.561-0.05-0.911-0.331-1.32-0.632c-0.022-0.016-0.557,0.342-0.608,0.371c-0.219,0.127-0.453,0.236-0.697,0.327c-0.496,0.184-1.036,0.292-1.585,0.31c0.214-0.007,0.471-0.119,0.663-0.193c0.216-0.083,0.421-0.186,0.611-0.304c0.385-0.241,0.714-0.55,0.932-0.911c0.042-0.069-0.624-0.286-0.683-0.306c-0.378-0.131-0.752-0.17-1.087-0.397c-0.859,0.375-1.804,0.615-2.78,0.697c0.291-0.024,0.616-0.153,0.886-0.239c0.292-0.093,0.577-0.202,0.845-0.334c0.169-0.084,0.702-0.31,0.67-0.486c-0.019-0.105-0.17-0.202-0.25-0.278c-0.084-0.08-0.182-0.146-0.267-0.223c-0.111-0.1-0.191-0.237-0.28-0.351c-0.015-0.02-0.032-0.04-0.057-0.051c-0.022-0.009-0.048-0.009-0.072-0.009c-0.571,0.009-1.15-0.067-1.698-0.221c-0.275-0.077-0.542-0.175-0.796-0.296c-0.201-0.095-0.433-0.265-0.649-0.322c0.7,0.184,1.433,0.329,2.16,0.366c0.226,0.012,0.452,0.011,0.676-0.001c0.187-0.01,0.382-0.055,0.57-0.041c-0.151-0.011-0.186-0.613-0.243-0.715c-0.016-0.028-0.045-0.048-0.073-0.068c-0.472-0.321-1.025-0.537-1.579-0.731c-0.527-0.185-1.181-0.343-1.745-0.402c0.702,0.073,1.407,0.152,2.092,0.316c0.42,0.101,0.84,0.202,1.257,0.31C-15.432-111.914-15.412-111.909-15.392-111.905z" fill="#0F0F0F"/><ellipse transform="matrix(0.1422 -0.9898 0.9898 0.1422 94.771 -111.3054)" style="" cx="-16.833" cy="-110.331" rx="0.163" ry="0.195" fill="#0F0F0F"/><ellipse transform="matrix(0.1422 -0.9898 0.9898 0.1422 94.1265 -107.8241)" style="" cx="-15.147" cy="-108.219" rx="0.146" ry="0.175" fill="#0F0F0F"/><ellipse transform="matrix(0.1422 -0.9898 0.9898 0.1422 94.42 -104.7287)" style="" cx="-13.214" cy="-106.841" rx="0.216" ry="0.258" fill="#0F0F0F" fill-opacity="0.8"/><ellipse transform="matrix(0.1422 -0.9898 0.9898 0.1422 95.717 -103.0961)" style="" cx="-11.623" cy="-106.773" rx="0.149" ry="0.178" fill="#0F0F0F"/><ellipse transform="matrix(0.1422 -0.9898 0.9898 0.1422 95.3606 -106.0343)" style="" cx="-13.497" cy="-108.036" rx="0.169" ry="0.203" fill="#0F0F0F" fill-opacity="0.45"/><ellipse transform="matrix(0.1422 -0.9898 0.9898 0.1422 97.1556 -99.3447)" style="" cx="-8.74" cy="-105.727" rx="0.157" ry="0.188" fill="#0F0F0F"/><ellipse transform="matrix(0.1422 -0.9898 0.9898 0.1422 97.4677 -101.0333)" style="" cx="-9.558" cy="-106.751" rx="0.149" ry="0.178" fill="#0F0F0F" fill-opacity="0.4"/><ellipse transform="matrix(0.1422 -0.9898 0.9898 0.1422 102.8416 -95.6926)" style="" cx="-3.79" cy="-107.181" rx="0.13" ry="0.156" fill="#0F0F0F"/><ellipse transform="matrix(0.1422 -0.9898 0.9898 0.1422 101.0522 -96.3808)" style="" cx="-5.081" cy="-106.493" rx="0.185" ry="0.221" fill="#0F0F0F"/></g></g></g><g transform="translate(0, -27) scale(0.7)" preserveAspectRatio="none"><!---0022-01140002400014--><g><path style="" d="M-1.703-109.592c0.04,1.06-0.083,2.138-0.546,3.134c-0.529,1.138-1.312,2.174-2.688,2.736c-1.386,0.566-3.01,0.641-4.531,0.535c-3.535-0.248-6.847-1.762-8.961-4.676c-0.19-0.262-0.375-0.551-0.393-0.874c-0.019-0.338,0.154-0.666,0.397-0.902c0.243-0.236,0.552-0.391,0.863-0.526c2.311-0.999,5.062-0.772,7.531-0.733C-7.163-110.853-4.315-110.538-1.703-109.592z" fill="#B37E78" fill-opacity="0.1"/><path style="" d="M-7.858-110.806c0.706,0.051,1.41,0.124,2.108,0.226c0.092,0.013,0.183,0.031,0.274,0.046c0.264,0.042,0.529,0.084,0.791,0.134c0.134,0.026,0.265,0.057,0.398,0.085c0.22,0.046,0.441,0.092,0.659,0.145c0.456,0.111,0.905,0.243,1.35,0.387c0.069,0.051,0.142,0.1,0.177,0.172c0.08,0.169,0.082,0.355,0.074,0.535c-0.046,1.111-0.267,2.497-1.097,3.422c-2.307,2.571-7.183,2.353-10.26,0.912c-1.059-0.496-5.385-3.129-3.591-4.668c1.112-0.954,2.568-1.444,4.009-1.478c0.978-0.023,1.956-0.028,2.935-0.012C-9.315-110.887-8.598-110.859-7.858-110.806z" fill="#B37E78" fill-opacity="0.1"/><path style="" d="M-2.081-108.444c-0.143,0.542-0.429,1.091-0.679,1.469c-1.637,2.478-5.185,3.231-8.381,2.417c-1.941-0.494-4.026-1.474-5.216-3.149c-0.101-0.142-0.197-0.292-0.245-0.46c-0.08-0.281-0.013-0.589,0.129-0.844s0.356-0.464,0.581-0.65c0.799-0.664,1.88-1.2,2.925-1.225c0.978-0.023,1.957-0.028,2.935-0.012c0.717,0.011,1.434,0.04,2.174,0.093c0.706,0.051,1.41,0.124,2.108,0.226c0.092,0.013,0.183,0.031,0.274,0.046c0.264,0.042,0.529,0.084,0.791,0.134c0.133,0.025,0.263,0.057,0.395,0.085c0.1,0.021,0.2,0.044,0.3,0.066c0.121,0.026,0.242,0.051,0.362,0.08c0.456,0.111,0.905,0.243,1.35,0.387c0.069,0.051,0.142,0.1,0.177,0.172c0.08,0.169,0.082,0.355,0.074,0.535C-2.036-108.873-2.059-108.658-2.081-108.444z" fill="#B37E78" fill-opacity="0.2"/><path style="" d="M-3.257-106.904c0.033,0.059,0.062,0.119,0.088,0.181c0.326,0.773,0.064,1.686-0.652,2.27c-0.229,0.187-0.498,0.341-0.779,0.475c-0.414,0.198-0.859,0.355-1.32,0.467c-0.498,0.122-1.015,0.191-1.534,0.217c-0.91,0.047-1.816-0.034-2.613-0.414c-0.814-0.388-1.021-0.987-0.894-1.707c0.113-0.641,0.509-1.238,1.041-1.727c0.62-0.571,1.444-1.013,2.365-1.18c0.884-0.16,1.891-0.019,2.726,0.235C-4.141-107.877-3.558-107.444-3.257-106.904z" fill="#F71C1C" fill-opacity="0.05"/><path style="" d="M-15.664-108.365c-0.32-0.346-0.607-0.716-0.853-1.11c-0.135-0.216-0.259-0.439-0.372-0.667c0.307,0.12,0.639,0.177,0.967,0.168c0.415,0.668,0.862,1.315,1.451,1.849c1.172,1.062,2.669,1.961,4.374,2.391c0.531,0.134,1.074,0.234,1.621,0.298c0.489,0.058,0.945,0.006,1.423,0.053c-0.968,0.153-1.894,0.208-2.883,0.034C-12.034-105.72-14.197-106.781-15.664-108.365z" fill-opacity="0.35"/><path style="" d="M-14.78-110.435c-0.293,0.06-0.466,0.213-0.317,0.566c0.232,0.549,0.656,1.066,1.11,1.511c0.53,0.52,1.147,0.98,1.809,1.39c1.36,0.844,3.023,1.29,4.757,1.219c0.951-0.039,1.941-0.25,2.769-0.751c0.415-0.251,0.783-0.576,1.069-0.969c0.143-0.196,0.281-0.412,0.351-0.643c0.062-0.204,0.073-0.453,0.191-0.651c-1.525-0.463-3.061-0.92-4.656-1.197c-0.898-0.156-1.811-0.251-2.723-0.346c-1.005-0.093-2.011-0.108-3.022-0.116C-13.771-110.425-14.384-110.516-14.78-110.435z" fill-opacity="0.5"/><path style="" d="M-10.458-105.869c0.103-0.254,0.237-0.499,0.401-0.731c0.066-0.094,0.46-0.476,0.58-0.235c0.07,0.139-0.221,0.277-0.321,0.359C-10.032-106.284-10.253-106.081-10.458-105.869z" fill="#191919"/><path style="" d="M-11.087-106.212c-0.313,0.373-0.557,0.796-0.645,1.239c-0.089-0.24-0.042-0.512,0.05-0.763c0.079-0.215,0.197-0.422,0.259-0.639c0.058-0.206,0.144-0.401,0.272-0.59c0.165-0.243,0.814-0.829,0.964-0.291c0.055,0.195-0.202,0.346-0.342,0.472C-10.728-106.604-10.917-106.415-11.087-106.212z" fill="#191919"/><path style="" d="M-13.082-107.534c-0.168,0.116-0.328,0.234-0.482,0.369c-0.11,0.098-0.217,0.198-0.321,0.3c-0.074,0.073-0.244,0.194-0.273,0.285c0.048-0.15,0.108-0.298,0.186-0.439c0.073-0.131,0.184-0.233,0.289-0.348c0.223-0.246,0.484-0.476,0.75-0.686c0.25-0.197,0.572-0.448,0.916-0.53c0.216-0.051,0.471-0.011,0.317,0.193c-0.113,0.15-0.287,0.198-0.464,0.289c-0.262,0.133-0.521,0.296-0.756,0.457C-12.975-107.608-13.029-107.571-13.082-107.534z" fill="#191919"/><path style="" d="M-13.918-109.298c-0.218,0.04-0.445,0.04-0.662,0.084c-0.53,0.108-1.037,0.362-1.465,0.636c-0.214,0.137-0.416,0.288-0.593,0.458c-0.09,0.086-0.174,0.177-0.25,0.273c-0.056,0.071-0.111,0.216-0.186,0.267c0.535-0.365,1.129-0.744,1.795-0.938c0.336-0.098,0.691-0.151,1.048-0.166c0.18-0.008,0.361-0.006,0.541,0.004c0.083,0.005,0.4-0.003,0.448,0.041C-13.477-108.853-13.713-109.064-13.918-109.298z" fill="#191919"/><path style="" d="M-4.46-106.614c-0.034-0.042-0.07-0.083-0.109-0.122c-0.168-0.171-0.316-0.048-0.472,0.077c-0.143,0.115,0.077,0.147,0.158,0.185c0.149,0.07,0.286,0.167,0.411,0.272c0.25,0.211,0.457,0.469,0.656,0.729C-3.986-105.875-4.186-106.274-4.46-106.614z" fill="#191919"/><path style="" d="M-18.504-110.264c0.185-0.034,0.408,0.051,0.597,0.061c0.255,0.014,0.512,0.06,0.765,0.095c0.593,0.083,1.212,0.157,1.791,0.296c0.372,0.089,0.741,0.189,1.106,0.304c0.388,0.122,0.255-0.066,0.068-0.217c-0.334-0.27-0.672-0.333-1.133-0.411c-0.073-0.012-0.146-0.024-0.22-0.036C-16.487-110.321-17.544-110.442-18.504-110.264z" fill="#191919"/><path style="" d="M-12.471-107.785c-0.532-0.307-0.994-0.663-1.478-1.014c-0.451-0.327-0.851-0.654-1.144-1.088c-0.064-0.095-0.124-0.197-0.115-0.305c0.016-0.202,0.278-0.346,0.53-0.355c0.252-0.009,0.49,0.084,0.709,0.184c1.192,0.542,2.167,1.336,3.161,2.091c0.29,0.22,0.583,0.439,0.912,0.621c0.201,0.112,0.418,0.211,0.583,0.356c0.177,0.156,0.382,0.499,0.022,0.582c-0.328,0.075-0.853-0.081-1.16-0.166C-11.184-107.082-11.856-107.43-12.471-107.785z" fill="#0F0F0F"/><path style="" d="M-13.732-109.416c0.766,0.828,1.705,1.553,2.766,2.137c1.09,0.599,2.336,1.139,3.697,1.111c1.046-0.022,2.024-0.176,2.858-0.723c1.042-0.683,1.908-1.796,1.99-2.891c0.002-0.032-1.613-0.325-1.766-0.357c-0.617-0.127-1.235-0.251-1.86-0.353c-1.384-0.225-2.801-0.3-4.213-0.277c-0.817,0.013-1.629,0.053-2.45,0.107c-0.442,0.029-0.886,0.058-1.32,0.134c-0.147,0.026-0.463,0.043-0.48,0.175c-0.012,0.093,0.204,0.257,0.264,0.335C-14.083-109.813-13.913-109.612-13.732-109.416z" fill="#FFFEFE"/><path style="" d="M-14.029-110.529c0.434-0.077,0.878-0.105,1.32-0.134c0.822-0.054,1.634-0.094,2.45-0.107c1.412-0.022,2.829,0.052,4.213,0.277c0.625,0.102,1.243,0.226,1.86,0.353c0.153,0.032,1.768,0.325,1.766,0.357c-0.043,0.567-0.298,1.138-0.677,1.653c-0.106-0.015-0.213-0.03-0.316-0.045c-1.28-0.185-2.579-0.287-3.88-0.308c-1.301-0.021-2.605,0.04-3.895,0.182c-0.112,0.012-0.534,0.088-1.06,0.184c-0.541-0.398-1.047-0.826-1.484-1.299c-0.181-0.195-0.352-0.397-0.512-0.603c-0.06-0.078-0.276-0.241-0.264-0.335C-14.491-110.486-14.176-110.503-14.029-110.529z" fill="#E5E6E6"/><path style="" d="M-14.386-110.318c0.201-0.121,0.431-0.197,0.673-0.252c0.333-0.043,0.668-0.071,1.004-0.094c0.822-0.054,1.634-0.094,2.45-0.107c1.412-0.022,2.829,0.052,4.213,0.277c0.625,0.102,1.243,0.226,1.86,0.353c0.153,0.032,1.768,0.325,1.766,0.357c-0.025,0.328-0.127,0.656-0.277,0.975c-1.155-0.1-2.354-0.372-3.493-0.462c-2.458-0.194-4.939-0.19-7.401-0.011c-0.045-0.047-0.097-0.088-0.141-0.136c-0.181-0.195-0.352-0.397-0.512-0.603c-0.042-0.054-0.156-0.149-0.219-0.233C-14.436-110.273-14.416-110.3-14.386-110.318z" fill="#CCCCCC"/></g></g><g transform="translate(0, -27) scale(0.7)" preserveAspectRatio="none"><!---0015-01160001400012--><g><path style="" d="M-4.847-112.175c0.346,0.215,0.658,0.489,0.896,0.821c0.31,0.433,0.503,0.712,0.525,1.263c0.02,0.486-0.078,0.976-0.288,1.415c-0.777,1.622-2.835,1.993-4.449,1.592c-0.852-0.211-1.642-0.65-2.247-1.29c-1.117-1.182-0.704-2.949,0.611-3.788c0.859-0.548,1.927-0.671,2.943-0.602c0.341,0.023,0.681,0.067,1.011,0.156C-5.493-112.513-5.156-112.367-4.847-112.175z" fill="#3FA2FF"/><path style="" d="M-4.847-112.175c0.346,0.215,0.658,0.489,0.896,0.821c0.31,0.433,0.503,0.712,0.525,1.263c0.02,0.486-0.078,0.976-0.288,1.415c-0.777,1.622-2.835,1.993-4.449,1.592c-0.852-0.211-1.642-0.65-2.247-1.29c-1.117-1.182-0.704-2.949,0.611-3.788c0.859-0.548,1.927-0.671,2.943-0.602c0.341,0.023,0.681,0.067,1.011,0.156C-5.493-112.513-5.156-112.367-4.847-112.175z" fill-opacity="0.05"/><path style="" d="M-5.345-112.056c1.004,0.494,1.598,1.562,1.465,2.683c-0.098,0.832-0.623,1.448-1.378,1.769c-1.724,0.732-4.618-0.141-5.144-2.079c-0.088-0.325-0.13-0.667-0.073-0.999c0.125-0.733,0.727-1.322,1.419-1.596c0.692-0.273,1.463-0.273,2.201-0.182C-6.335-112.396-5.815-112.287-5.345-112.056z" fill-opacity="0.15"/><path style="" d="M-5.571-111.887c-1.054-0.448-2.385-0.449-3.335,0.25c-0.832,0.611-1.29,1.709-0.694,2.645c0.647,1.018,1.973,1.269,3.094,1.25c0.4-0.007,0.805-0.045,1.182-0.178s0.729-0.368,0.944-0.706c0.178-0.28,0.253-0.614,0.283-0.944c0.021-0.229,0.021-0.462-0.022-0.689C-4.262-111.003-4.874-111.591-5.571-111.887z" fill="#3FA2FF"/><path style="" d="M-4.522-109.666c0.182-2.122-3.283-2.701-4.444-1.333c-0.276,0.325-0.405,0.77-0.346,1.192c0.159,1.148,1.476,1.666,2.49,1.724c0.534,0.03,1.095-0.03,1.544-0.321C-4.853-108.681-4.565-109.16-4.522-109.666z" fill-opacity="0.2"/><path style="" d="M-6.724-108.494c0.375,0.001,0.751-0.056,1.081-0.176c0.343-0.125,0.654-0.362,0.82-0.688c0.302-0.594,0.041-1.364-0.471-1.792s-1.211-0.565-1.877-0.557c-0.434,0.005-0.884,0.071-1.246,0.312c-0.498,0.331-0.716,0.97-0.612,1.545c0.111,0.615,0.81,1.066,1.374,1.228C-7.368-108.539-7.047-108.495-6.724-108.494z" fill-opacity="0.2"/><path style="" d="M-6.315-108.831c0.477-0.04,0.983-0.225,1.226-0.637c0.266-0.45,0.128-1.063-0.231-1.444c-0.359-0.38-0.892-0.555-1.414-0.592c-0.365-0.026-0.741,0.01-1.072,0.164c-0.685,0.317-0.99,1.189-0.571,1.849C-8.005-108.906-6.924-108.78-6.315-108.831z" fill-opacity="0.2"/><path style="" d="M-6.06-109.254c0.26-0.079,0.497-0.302,0.502-0.574c0.007-0.326-0.322-0.517-0.602-0.594c-0.25-0.069-0.531-0.103-0.787-0.069c-0.23,0.031-0.468,0.1-0.632,0.265c-0.164,0.165-0.227,0.447-0.09,0.634c0.132,0.18,0.482,0.341,0.695,0.384C-6.672-109.146-6.354-109.165-6.06-109.254z" fill-opacity="0.4"/><circle style="" cx="-9.989" cy="-108.631" r="0.19" fill="#FFFFFF" fill-opacity="0.4"/><circle style="" cx="-4.541" cy="-109.042" r="0.212" fill="#FFFFFF" fill-opacity="0.5"/></g></g><g transform="translate(0, -27) scale(0.7)" preserveAspectRatio="none"><!---0023-01220002600016--><g><path style="" d="M-2.918-114.118c0.626,0.851,1.03,1.868,1.139,2.92c-0.036-0.35,0.044-0.725,0.012-1.083c-0.036-0.403-0.14-0.777-0.234-1.168c-0.269-1.126-1.215-2.017-2.184-2.569c-0.753-0.43-1.471-0.829-2.311-1.075c0.283,0.083,0.607,0.383,0.854,0.547c0.309,0.205,0.613,0.417,0.907,0.642c0.501,0.385,0.981,0.824,1.408,1.29C-3.181-114.457-3.045-114.291-2.918-114.118z" fill="#B37E78" fill-opacity="0.6"/><path style="" d="M-13.23-110.698c-0.058-1.22,0.282-2.452,0.976-3.542c0.202-0.316,0.433-0.622,0.712-0.898c1.088-1.08,2.911-1.65,4.612-1.44c2.105,0.259,3.802,1.62,4.638,3.192c0.429,0.807,0.666,1.672,0.784,2.543c0.078,0.571,0.192,1.263,0.187,1.896c-0.668-0.472-1.471-0.822-2.313-1.064c-2.439-0.7-5.066-0.82-7.64-0.734c-0.652,0.022-1.302,0.058-1.952,0.101C-13.227-110.661-13.23-110.68-13.23-110.698z" fill="#B37E78" fill-opacity="0.2"/><path style="" d="M-10.399-114.144c0.605-1.013,1.928-1.632,3.299-1.665c1.398-0.034,2.778,0.534,3.611,1.432c0.444,0.479,0.738,1.038,0.955,1.61c0.353,0.931,0.51,1.91,0.467,2.885c-0.006,0.133-0.007,0.31-0.013,0.505c-0.49-0.254-1.005-0.476-1.555-0.634c-2.391-0.686-4.964-0.812-7.49-0.736c-0.029-0.158-0.049-0.316-0.055-0.47c-0.029-0.709,0.257-1.458,0.466-2.141C-10.631-113.625-10.548-113.895-10.399-114.144z" fill="#B37E78" fill-opacity="0.2"/><path style="" d="M-9.484-110.759c0.015-0.327,0.05-0.655,0.1-0.974c0.15-0.972,0.488-2.053,1.537-2.555c1.241-0.594,2.953-0.459,3.949,0.393c0.767,0.656,1.135,1.596,1.229,2.48c0.06,0.564,0.022,1.145-0.1,1.714c-0.279-0.118-0.566-0.225-0.864-0.311C-5.509-110.549-7.496-110.737-9.484-110.759z" fill="#B37E78" fill-opacity="0.2"/><path style="" d="M-7.219-112.278c1.917,0.114,4.086,0.348,5.578,1.402c-0.299-0.211-0.935-0.315-1.31-0.42c-0.493-0.138-0.995-0.243-1.497-0.357c-0.959-0.219-2.028-0.233-3.025-0.269c-2.188-0.08-4.468,0.088-6.644,0.313c1.065-0.398,2.199-0.489,3.347-0.601C-9.591-112.325-8.4-112.349-7.219-112.278z" fill="#B37E78" fill-opacity="0.6"/><path style="" d="M-5.718-112.417c-1.64-0.584-3.477-0.749-5.274-0.675c-1.351,0.056-2.725,0.252-3.905,0.791c-0.462,0.211-0.909,0.494-1.1,0.892s-0.028,0.927,0.458,1.093c0.388,0.133,0.83,0.007,1.243-0.071c0.433-0.082,0.878-0.11,1.321-0.138c1.565-0.098,3.133-0.197,4.702-0.188c1.545,0.009,3.126,0.132,4.57,0.59c0.28,0.089,1.642,0.728,1.378,0.069c-0.194-0.483-0.895-0.987-1.351-1.313C-4.282-111.8-4.977-112.153-5.718-112.417z" fill-opacity="0.2"/><path style="" d="M-15.949-110.665c0.026-0.207,0.163-0.396,0.325-0.56c0.982-0.993,2.65-1.356,4.217-1.475c1.199-0.091,2.42-0.073,3.584,0.164c1.333,0.272,2.548,0.831,3.593,1.539c0.524,0.355,1.008,0.749,1.452,1.168c0.01,0.009,0.025,0.023,0.036,0.033c-0.355-0.079-0.811-0.28-0.96-0.327c-1.445-0.458-3.025-0.581-4.57-0.59c-1.569-0.009-3.137,0.089-4.702,0.188c-0.443,0.028-0.888,0.056-1.321,0.138c-0.413,0.078-0.855,0.204-1.243,0.071C-15.733-110.383-15.86-110.514-15.949-110.665z" fill-opacity="0.2"/><path style="" d="M-3.175-110.047c0.056,0.044,0.156,0.119,0.266,0.205c-0.32-0.093-0.666-0.24-0.794-0.281c-1.445-0.458-3.025-0.581-4.57-0.59c-1.569-0.009-3.137,0.089-4.702,0.188c-0.443,0.028-0.888,0.056-1.321,0.138c-0.239,0.045-0.486,0.101-0.728,0.118c-0.144-0.25-0.071-0.56,0.127-0.79c0.204-0.237,0.516-0.4,0.837-0.528c1.279-0.511,2.765-0.553,4.185-0.475c0.636,0.035,1.272,0.093,1.899,0.184c0.804,0.117,1.592,0.291,2.343,0.545C-4.728-111.026-3.879-110.599-3.175-110.047z" fill-opacity="0.2"/><path style="" d="M-16.734-113.424c0.152-0.063,0.311-0.106,0.464-0.129c0.689-0.105,1.396-0.131,2.093-0.079c1.897,0.141,3.731,0.87,4.896,2.092c0.182,0.191,0.471,0.493,0.682,0.81c-0.892-0.035-1.786-0.045-2.675-0.015c-0.961,0.032-1.921,0.093-2.879,0.166c-0.841,0.064-1.704,0.083-2.455-0.37c-0.386-0.233-0.699-0.545-0.857-0.976c-0.096-0.262-0.115-0.559-0.01-0.818C-17.346-113.065-17.056-113.29-16.734-113.424z" fill-opacity="0.15"/><path style="" d="M-16.427-112.804c0.18-0.114,0.393-0.194,0.597-0.241c0.586-0.134,1.203-0.082,1.796-0.03c0.991,0.086,1.977,0.354,2.857,0.822c0.685,0.364,1.318,0.86,1.76,1.504c-0.62-0.013-1.24-0.016-1.858,0.004c-0.85,0.029-1.699,0.08-2.548,0.141c-0.38,0.028-0.789,0.11-1.169,0.078c-0.451-0.037-0.904-0.332-1.262-0.59c-0.261-0.189-0.493-0.438-0.581-0.748C-16.956-112.294-16.744-112.603-16.427-112.804z" fill-opacity="0.15"/><path style="" d="M-16.079-111.517c0.019-0.071,0.048-0.139,0.085-0.202c0.125-0.209,0.334-0.358,0.559-0.454c0.802-0.341,1.791-0.315,2.618-0.092c1.029,0.278,2.094,0.779,2.711,1.517c-0.39-0.002-0.78-0.01-1.168,0.003c-0.778,0.026-1.555,0.071-2.331,0.126c-0.388,0.027-0.777,0.051-1.164,0.088c-0.412,0.04-1.035-0.087-1.26-0.49C-16.112-111.17-16.123-111.351-16.079-111.517z" fill-opacity="0.2"/><path style="" d="M-7.219-112.278c1.917,0.114,4.086,0.348,5.578,1.402c-0.299-0.211-0.935-0.315-1.31-0.42c-0.493-0.138-0.995-0.243-1.497-0.357c-0.959-0.219-2.028-0.233-3.025-0.269c-2.188-0.08-4.468,0.088-6.644,0.313c1.065-0.398,2.199-0.489,3.347-0.601C-9.591-112.325-8.4-112.349-7.219-112.278z" fill-opacity="0.3"/><path style="" d="M-9.807-112.577c0.017,0.006-0.005,0.023-0.023,0.029c-0.101,0.028-0.149,0.122-0.122,0.199c0.027,0.077,0.115,0.136,0.214,0.167c0.098,0.031,0.207,0.04,0.314,0.046c0.146,0.008,0.298,0.013,0.435-0.027c0.109-0.032,0.209-0.103,0.216-0.19c0.007-0.082-0.07-0.157-0.168-0.194C-9.19-112.641-9.543-112.591-9.807-112.577z" fill="#FCFCFC" fill-opacity="0.4"/><path style="" d="M-5.852-111.791c-0.007,0.299-0.039,0.598-0.094,0.892c0.254,0.078,0.499,0.089,0.762,0.1c0.019,0.001,0.039,0.001,0.056-0.008c0.015-0.008,0.025-0.024,0.035-0.039c0.164-0.263,0.305-0.54,0.421-0.827c-0.022,0.056-0.003,0.162-0.011,0.225c-0.009,0.074-0.019,0.148-0.032,0.221c-0.029,0.16-0.077,0.316-0.142,0.466c0.082,0.025,0.176,0.007,0.242-0.047c0.039-0.032,0.068-0.074,0.095-0.116c0.064-0.101,0.12-0.208,0.166-0.318c0.003,0.198-0.022,0.398-0.065,0.591c0.002-0.02,0.813,0.104,0.892,0.121c0.16,0.035,0.354,0.055,0.517,0.037c0.168-0.019,0.357-0.119,0.51-0.189c0.296-0.136,0.574-0.309,0.825-0.516c0.26-0.214,0.476-0.474,0.682-0.74c-0.039,0.13-0.077,0.26-0.131,0.384c-0.057,0.131-0.166,0.25-0.253,0.365c-0.101,0.132-0.21,0.258-0.326,0.376c-0.096,0.097-0.197,0.188-0.302,0.274c-0.023,0.019-0.26,0.225-0.271,0.219c0.248,0.139,0.525,0.221,0.781,0.348c0.332,0.164,0.635,0.362,0.897,0.623c-0.468-0.232-0.97-0.473-1.476-0.603c0.21,0.172,0.418,0.347,0.621,0.527c0.22,0.194,0.44,0.398,0.584,0.654c-0.216-0.159-0.452-0.291-0.701-0.392c-0.03-0.012-0.061-0.024-0.094-0.023c-0.038,0.001-0.073,0.02-0.107,0.038c-0.326,0.179-0.655,0.339-0.985,0.509c0.029-0.166,0.148-0.313,0.221-0.47c0.074-0.157,0.093-0.354-0.05-0.474c-0.164-0.138-0.483-0.127-0.684-0.131c-0.242-0.005-0.484,0.01-0.726-0.011c-0.36-0.031-0.697-0.08-1.021-0.257c-0.293-0.16-0.531-0.339-0.888-0.277c-0.199,0.035-0.371,0.131-0.561,0.191s-0.427,0.075-0.574-0.037c-0.1-0.076-0.136-0.197-0.242-0.268c-0.184-0.124-0.465-0.04-0.674,0.057c-0.313,0.146-0.61,0.313-0.887,0.499c0.061-0.26,0.165-0.514,0.309-0.753c-0.575-0.022-1.041,0.431-1.616,0.453c-0.306,0.012-0.594-0.1-0.884-0.176c-0.486-0.127-1.216-0.1-1.646,0.143c-0.095,0.054-0.179,0.12-0.284,0.161c-0.316,0.125-0.685-0.025-1.036-0.03c-0.363-0.006-0.726,0.112-1.09,0.127c-0.079-0.166-0.1-0.349-0.06-0.525c-0.027,0.119-2.124-0.167-2.325-0.203c-0.785-0.141-1.593-0.29-2.251-0.66c1.349,0.384,2.759,0.56,4.189,0.417c-0.593-0.365-1.135-0.807-1.498-1.41c0.08,0.132,0.221,0.197,0.336,0.292c0.119,0.098,0.231,0.203,0.36,0.294c0.475,0.337,0.98,0.613,1.569,0.671c0.146,0.014,0.281,0.102,0.424,0.021c-0.987-0.677-1.902-2.101-1.531-3.338c-0.178,0.591,0.312,1.474,0.652,1.922c0.336,0.444,0.776,0.812,1.277,1.056c0.277,0.135,0.435,0.217,0.749,0.229c0.179,0.007,0.364,0.04,0.542,0.029c0.056-0.003,0.357-0.082,0.385-0.045c-0.643-0.842-0.997-2.332-0.397-3.29c-0.174,0.603-0.145,1.263,0.083,1.847c0.238,0.612,0.706,1.189,1.31,1.46c-0.25-0.383-0.387-0.82-0.29-1.248c0.075,0.47,0.408,0.772,0.792,1.1c0.031,0.027,0.064,0.054,0.105,0.07c0.046,0.017,0.099,0.019,0.15,0.019c0.769,0.012,1.533,0.047,2.325-0.008c0.01-0.007,0.013-0.02,0.015-0.032c0.066-0.35,0.086-0.706,0.114-1.06c0.028-0.364,0.056-0.727,0.101-1.09c0.05,0.182,0.039,0.371,0.08,0.553c0.041,0.186,0.035,0.376,0.04,0.567c0.003,0.093-0.017,1.026,0.023,1.035c0.235,0.051,0.476,0.066,0.71,0.117c0.231,0.05,0.457,0.121,0.691,0.17c0.29,0.061,0.47-1.616,0.504-1.858C-5.866-112.459-5.844-112.124-5.852-111.791z" fill="#0F0F0F"/><circle style="" cx="-15.286" cy="-112.923" r="0.186" fill="#0F0F0F"/><circle style="" cx="-12.407" cy="-112.892" r="0.195" fill="#0F0F0F"/><circle style="" cx="-10.498" cy="-111.523" r="0.185" fill="#0F0F0F"/><circle style="" cx="-9.335" cy="-111.295" r="0.15" fill="#0F0F0F"/><circle style="" cx="-8.599" cy="-111.349" r="0.174" fill="#0F0F0F" fill-opacity="0.8"/><circle style="" cx="-5.055" cy="-111.65" r="0.216" fill="#0F0F0F"/><circle style="" cx="-1.851" cy="-111.411" r="0.138" fill="#0F0F0F"/><circle style="" cx="-16.074" cy="-111.707" r="0.158" fill="#0F0F0F"/></g></g><!---0030-00510001100017--><!---0028-00660001100022--><g/><!---0024-00840001300025--><g/></g></svg>
