<svg xmlns:xlink="http://www.w3.org/1999/xlink" xmlns="http://www.w3.org/2000/svg" viewBox="-40.94377899169922 -146.29818725585938 68.82828521728516 163.4471893310547" preserveAspectRatio="xMidYMid meet" width="300"  height="400"><g transform="translate(0, -27) scale(0.7)" preserveAspectRatio="none">

<!--00007-01170001200011--><g><path style="" d="M9.24-107.867c-0.165-0.101-0.372,0.152-0.58,0.146c-0.123-0.24,0.013-0.32,0.046-0.527 c0.031-0.191,0.043-0.371,0.033-0.596c-0.023-0.46-0.045-0.926,0.008-1.371c0.37,0.02,2.2,2.58,2.576,2.89 C11.255-107.381,10.538-107.063,9.24-107.867z" fill="#E6BBA8"></path><path style="" d="M14.3-107.363c-1.478,0.385-3.87,0.23-5.278-1.069c-0.677-2.603-0.321-4.99,1.034-5.675 c1.899-0.958,8.608-1.212,7.565,3.074C17.292-109.678,16.655-107.978,14.3-107.363z" fill="#FFFFFF"></path><path style="" d="M17.494-110.564c0.047-0.159,0.089-0.317,0.126-0.47c1.042-4.286-5.667-4.032-7.565-3.074 c-0.947,0.479-1.395,1.797-1.354,3.432C10.523-111.435,14.868-111.26,17.494-110.564z" fill="#CCCCCC"></path><path style="" d="M16.329-107.263c-0.91,0.487-1.721,0.541-2.701,0.318c0.827-0.406,1.733-0.243,2.489-0.936 c0.308-0.283,0.572-0.654,0.833-0.998c0.263-0.347,0.457-0.719,0.796-0.238C17.441-108.329,17.011-107.628,16.329-107.263z" fill="#E6BBA8"></path><path style="" d="M15.066-107.612c0.082,0.334,0.358,0.639,0.791,0.77c0.642,0.194,2.522,0.367,2.52-0.82 c-0.001-0.466-0.476-0.927-0.895-1.066c-0.476-0.159-1.364-0.156-1.816,0.048C15.147-108.447,14.969-108.009,15.066-107.612z" fill="#8ACCF2"></path><path style="" d="M15.455-107.931c0.042,0.174,0.186,0.333,0.411,0.401c0.334,0.101,1.263,0.027,1.311-0.427 c0.025-0.241-0.248-0.482-0.466-0.555c-0.248-0.083-0.709-0.081-0.945,0.025C15.497-108.366,15.403-108.138,15.455-107.931z" fill="#CCECFF"></path></g><!--00008-01170000800010--><g><path style="" d="M14.54-111.637c-0.012,1.938-1.101,3.495-2.436,3.477c-1.332-0.019-2.4-1.604-2.389-3.542 c0.011-1.937,1.099-3.494,2.432-3.475C13.481-115.159,14.551-113.573,14.54-111.637z" fill="#3FA2FF"></path><path style="" d="M13.809-111.807c-0.009,1.605-0.839,2.896-1.855,2.882c-1.016-0.015-1.83-1.328-1.82-2.933 c0.009-1.607,0.838-2.897,1.855-2.883C13.006-114.726,13.819-113.413,13.809-111.807z" fill="#0F0F14"></path></g><!--00006-01190001400011--><g><path style="" d="M8.751-111.887c0.964-1.441,4.045-2.536,9.776-0.434c-0.402-1.816-3.038-5.103-6.383-4.582 C9.511-116.492,8.664-113.082,8.751-111.887z" fill="#F4D5BF"></path><path style="" d="M8.751-111.887c0.33-1.906,4.458-2.089,9.776-0.434 c-0.402-1.816-3.038-5.103-6.383-4.582C9.511-116.492,8.664-113.082,8.751-111.887z" fill="#B37E78" fill-opacity="0.65"></path><path style="" d="M8.427-110.781c0.173-0.558,0.957-1.275,1.267-1.632c2.277-0.214,6.223-0.115,7.515,0.24 c0.561,0.377,0.637,0.658,0.525,1.624c0.421-0.632,1.042-1.637,1.042-1.637s-0.662-1.103-1.098-1.219 c-1.636-0.435-5.707-0.764-8.467-0.355C8.627-113.118,8.309-112.159,8.427-110.781z" fill="#0F0F14"></path></g><!---0016-01170001500012--><g><path style="" d="M-11.051-107.813c-0.431,0.025-1.282,0.234-1.703,0.184 c-0.669-0.081-2.049-1.489-1.643-3.338C-13.688-110.088-12.471-108.487-11.051-107.813z" fill="#B37E78" fill-opacity="0.65"></path><path style="" d="M-2.791-107.999c0.175-0.132,0.452,0.133,0.7,0.117c0.132-0.246-0.034-0.319-0.086-0.524 c-0.048-0.189-0.073-0.368-0.073-0.594c0-0.461,0-0.927-0.09-1.369c-0.995,0-7.267,1.722-7.868,2.521 C-9.027-107.179-4.352-106.819-2.791-107.999z" fill="#E6BBA8"></path><path style="" d="M-2.429-107.126c-1.738,1.729-7.21,2.156-9.752-0.182 C-10.083-107.629-3.543-107.309-2.429-107.126z" fill="#B37E78" fill-opacity="0.65"></path><path style="" d="M-3.759-107.848c0.575-0.22,0.76-0.355,1.197-0.727c0.656-2.632,0.093-5-1.563-5.618 c-2.319-0.865-10.333-0.792-8.842,3.438c0.392,1.111,0.92,2.199,2.759,2.907C-8.746-107.881-5.275-107.848-3.759-107.848z" fill="#FFFFFF"></path><path style="" d="M-2.304-110.652c-0.004-1.72-0.621-3.092-1.821-3.54c-2.319-0.865-10.333-0.792-8.842,3.438 c0.039,0.11,0.081,0.22,0.124,0.33C-10.165-111.243-4.953-111.21-2.304-110.652z" fill="#CCCCCC"></path></g><!---0012-01170001000010--><g><path style="" d="M-9.639-111.6c-0.035,1.845,1.347,3.367,3.09,3.398c1.741,0.031,3.179-1.439,3.214-3.285 c0.037-1.843-1.344-3.366-3.085-3.397C-8.164-114.915-9.602-113.443-9.639-111.6z" fill="#3FA2FF"></path><path style="" d="M-8.745-111.736c-0.032,1.57,1.047,2.863,2.413,2.888c1.363,0.023,2.491-1.23,2.521-2.801 c0.031-1.571-1.046-2.864-2.412-2.888C-7.589-114.56-8.717-113.308-8.745-111.736z" fill="#0F0F14"></path></g><!---0018-01200001700012--><g><path style="" d="M-2.041-112.356c-1.26-1.854-5.682-2.822-11.646,0.184c0.537-2.458,2.796-5.211,6.745-5.186 C-3.637-117.336-2.009-115.321-2.041-112.356z" fill="#F2D3BD"></path><path style="" d="M-2.009-113.895c-0.526-0.748-1.644-1.012-2.292-1.123 c-0.01-0.146-0.128-1.177,0.037-1.729C-3.144-116.753-2.281-115.477-2.009-113.895z" fill="#B37E78" fill-opacity="0.65"></path><path style="" d="M-2.041-111.066c-0.445-0.922-0.918-1.122-1.501-1.496c-2.737-0.406-8.28,0.102-9.325,0.582 c-0.218,0.336,0.024,1.434,0.167,2.076c-1.358-0.847-1.811-1.942-1.811-1.942s1.138-0.967,1.73-1.345 c1.872-1.194,8.1-1.862,10.295-0.464C-1.861-113.258-1.792-112.563-2.041-111.066z" fill="#0F0F14"></path><g><path style="" d="M-3.479-114.995c0.322-0.907,0.242-1.094-0.643-1.711c-4.539-3.166-11.861-0.975-10.957,4.329 C-8.795-110.163-4.359-112.516-3.479-114.995z" fill="#F4D5BF"></path><path style="" d="M-3.706-114.686c0.301-0.532,0.233-1.037-0.63-1.686 c-4.219-3.173-10.999-1.397-10.094,3.907C-7.954-110.803-5.524-112.606-3.706-114.686z" fill="#FAA3B9" fill-opacity="0.3"></path><path style="" d="M-3.945-114.418c0.1-0.391,0.484-0.907-0.274-1.485 c-3.886-2.962-9.446-1.241-8.672,3.722C-7.589-111.144-5.71-112.872-3.945-114.418z" fill="#FAA3B9" fill-opacity="0.5"></path><path style="" d="M-3.463-116.185c-0.654,3.004-5.78,4.645-10.591,3.578c-0.487-0.108-0.965,0-1.024,0.229 c6.283,2.214,10.719-0.139,11.6-2.618C-3.269-115.583-3.223-115.887-3.463-116.185z" fill="#B37E78"></path><path style="" d="M-11.094-114.831c0.261,0.977,1.762,0.361,1.443-0.5 C-9.969-116.19-11.349-115.781-11.094-114.831z" fill="#FFFFFF" fill-opacity="0.5"></path></g></g></svg>
