<svg xmlns:xlink="http://www.w3.org/1999/xlink" xmlns="http://www.w3.org/2000/svg" viewBox="-40.94377899169922 -146.29818725585938 68.82828521728516 163.4471893310547" preserveAspectRatio="xMidYMid meet" width="300"  height="400" >
            <g transform="translate(0, -27) scale(0.7)" preserveAspectRatio="none">
<path fill="#F4D5BF" d="M6.362-107.306c-0.049-0.489-0.12-0.97-0.347-1.397c-0.791-1.483-3.062-1.004-3.695,0.32 c-0.637,1.331-0.303,2.879-0.727,4.258c-0.274,0.892-0.644,2.09,0.15,2.858c0.654,0.633,2.178,0.373,3.007,0.33 c1.283-0.066,3.647-0.569,3.124-2.391c-0.269-0.936-1.001-1.608-1.288-2.52C6.44-106.309,6.412-106.812,6.362-107.306z"></path><g><path fill="#E6BBA8" d="M2.322-100.772c0.188-0.063,0.381-0.222,0.552-0.279c0.476-0.16,1.359-0.016,1.131,0.67 c0.029-0.087,1.442,0.074,1.911-0.074c1.25-0.393,1.958-0.961,1.965-2.613c-0.485-0.565-1.547-0.396-1.974,0.017 c-0.783,0.759-1.526,1.146-2.815,1.146c-0.534,0-1.88,0-1.711,0.814c0.203,0.12,0.54,0.34,0.787,0.345 C2.219-100.745,2.271-100.755,2.322-100.772z"></path></g><path fill="#B37E78" d="M3.946-100.497c-0.483-0.71-1.352-0.417-2.142-0.47c0.493-0.318,1.601-0.863,2.214-0.658 c0.252,0.085,0.374,0.277,0.362,0.541c-0.004,0.096-0.359,0.704-0.412,0.621C3.961-100.475,3.954-100.486,3.946-100.497z"></path></g></svg>
