<svg xmlns:xlink="http://www.w3.org/1999/xlink" xmlns="http://www.w3.org/2000/svg" viewBox="-40.94377899169922 -146.29818725585938 68.82828521728516 163.4471893310547" preserveAspectRatio="xMidYMid meet" width="300"  height="400"><g transform="translate(0, -27) scale(0.7)" preserveAspectRatio="none"><!--00005-01220001500010--><path style="" d="M16.206-118.626c-1.871,0.469-5.63,1.351-6.294,1.39c-1.054,0.062-1.399-0.813-2-1.558c-0.247,0.616-0.222,1.742-0.125,2.419c0.066,0.46,0.56,0.76,1.02,0.927C9.723-115.118,14.011-116.914,16.206-118.626z" fill="#323232"></path></g><g transform="translate(0, -27) scale(0.7)" preserveAspectRatio="none"><!---0013-01220001900010--><path style="" d="M-2.372-115.122c0.725-0.125,1.334-0.913,1.966-1.241c0.964,2.059,2.07,0.269,2.519-1.097c-0.399,0.324-0.814,0.579-1.272,0.787c-0.083-0.173-0.551-1.485-0.613-2.037c-0.79,0.47-1.513,1.34-2.413,1.579c-1.058,0.28-5.253-1.278-7.798-1.537C-8.391-117.312-3.071-115.002-2.372-115.122z" fill="#323232"></path></g></svg>
