<svg xmlns:xlink="http://www.w3.org/1999/xlink" xmlns="http://www.w3.org/2000/svg" viewBox="-40.94377899169922 -146.29818725585938 68.82828521728516 163.4471893310547" preserveAspectRatio="xMidYMid meet" width="300"  height="400" >
            <g transform="translate(0, -27) scale(0.7)" preserveAspectRatio="none"><path style="" d="M28.682-124.274c-0.655,0-1.34-0.287-1.844-0.801c-0.722-0.736-0.958-1.722-1.029-2.419c-0.089-0.875,0.02-1.753,0.125-2.604l0.298,0.037c-0.103,0.833-0.209,1.695-0.124,2.536c0.066,0.649,0.283,1.565,0.944,2.239c0.602,0.614,1.485,0.863,2.199,0.62c0.703-0.239,1.184-0.89,1.524-1.431c1.242-1.973,1.855-4.342,1.726-6.67l0.3-0.017c0.133,2.39-0.496,4.821-1.771,6.847c-0.367,0.583-0.89,1.286-1.682,1.555C29.135-124.309,28.91-124.274,28.682-124.274z" fill="#1E1E1E" /></g><g><path style="" d="M29.285-117.419L29.18-117.7c0.783-0.294,1.371-1.043,1.848-2.357c1.496-4.12,1.533-9.263,1.562-13.396l0.3,0.002c-0.029,4.156-0.066,9.329-1.58,13.497C30.807-118.571,30.145-117.742,29.285-117.419z" fill="#1E1E1E" /></g><g><path style="" d="M28.374-80.357c-1.492-4.936-2.035-33.056,0.067-36.373C27.054-105.508,27.209-92.652,28.374-80.357z" fill="#1E1E1E" /><path style="" d="M28.618-133.576c0.73,2.93,1.27,5.907,1.617,8.906c0.771,6.664,0.598,13.442-0.536,20.055c-0.539,3.143-0.369,6.559-0.445,9.764c-0.083,3.495-0.111,6.992-0.089,10.489c-2.099-8.849-1.522-18.016-2.096-27.092c-0.451-7.138-0.08-14.328,1.105-21.381C28.214-133.074,28.536-133.349,28.618-133.576z" fill="#1E1E1E" /><path style="" d="M28.759-91.248c-1.705-10.775-1.837-21.798-0.391-32.612C29.764-114.451,28.254-100.103,28.759-91.248z" fill="#323232" /><path style="" d="M30.736-113.936c-1.136-6.45-1.864-12.972-2.178-19.513C30.21-126.884,30.923-120.703,30.736-113.936z" fill="#323232" /><path style="" d="M28.401-96.865c-0.955-5.136-1.005-11.447,0.047-16.13C28.822-107.479,29.02-102.358,28.401-96.865z" fill="#464646" /></g></g><g><path style="" d="M27.794-137.921c0.236-0.264,0.608-0.786,0.608-0.786c-0.063-0.11-0.139-0.381-0.119-0.507c0.02-0.125,0.112-0.255,0.239-0.256c0.472-0.041,0.923,0.414,0.877,0.886c-0.03,0.306-0.227,0.566-0.42,0.804c-0.638,0.788-1.316,1.542-2.03,2.261c-0.375,0.377-0.758,0.598-1.294,0.397c-0.331-0.124-0.672-0.506-0.433-0.868c0.152-0.231,0.514-0.285,0.727-0.11C26.552-136.733,27.213-137.274,27.794-137.921z" fill="#7E7E7E" /><path style="" d="M26.948-135.519c0.715-0.718,1.393-1.473,2.03-2.261c0.154-0.19,0.307-0.395,0.379-0.625c-0.409-0.185-0.956-0.303-0.956-0.303s-0.372,0.523-0.608,0.786c-0.58,0.648-1.241,1.188-1.846,1.821c0.027,0.2,0.167,0.644,0.35,1.008C26.531-135.162,26.742-135.313,26.948-135.519z" fill="#B2B2B2" /><path style="" d="M28.1-138.301c-0.103,0.136-0.214,0.277-0.306,0.38c-0.288,0.321-0.595,0.616-0.906,0.908c0.104,0.155,0.209,0.309,0.307,0.468c0.096,0.155,0.185,0.314,0.275,0.473c0.48-0.508,0.946-1.029,1.39-1.569C28.626-137.883,28.374-138.106,28.1-138.301z" fill="#FFFFFF" /></g><g><path style="" d="M32.308-148.255c0.385-3.584-1.395-7.232-3.556-9.131c-0.719-0.631-1.556-1.172-2.499-1.333c-1.048-0.178-2.148,0.142-3.012,0.761c-1.264,0.906-1.638,2.19-2.353,3.465c0.521-0.987,0.296,0.37,0.78-0.637c1.222-2.543,2.817-3.12,3.933-3.104c1.346,0.02,2.561,0.83,3.504,1.791C30.897-154.618,32.424-151.704,32.308-148.255z" fill="#1E1E1E" /><path style="" d="M14.853-137.668c-1.485-3.658-3.041-7.685-2.819-11.708c0.071-1.283,0.42-2.583,1.21-3.597c1.013-1.301,2.435-1.728,3.869-2.374c1.605-0.723,3.088-1.226,4.893-1.076c0.782-0.813,2.188-1.043,3.301-0.859c1.113,0.184,2.124,0.755,3.048,1.403c3.331,2.335,5.838,5.822,6.99,9.723s0.942,8.191-0.586,11.961c-1.35,3.332-3.58,6.019-7.254,7.54c-2.872-0.586-5.375-2.066-7.436-4.15S15.956-134.952,14.853-137.668z" fill="#1E1E1E" /><g><path style="" d="M34.423-144.225c0.476,1.32,0.958,2.694,0.829,4.091c-0.129,1.397-1.058,2.826-2.442,3.056c-0.89,0.147-2.082-0.216-2.777-0.791c-0.695-0.575-1.342-1.724-1.825-2.485c0.747,0.753,2.157,1.671,3.217,1.727c1.059,0.055,2.166-0.425,2.731-1.323c0.564-0.898,0.475-2.197-0.304-2.917c0.378,1.151-0.569,2.454-1.755,2.697s-2.428-0.39-3.183-1.337c-0.755-0.947-1.099-2.157-1.292-3.353c-0.114-0.706-0.181-1.439,0.009-2.128c0.191-0.689,0.686-1.331,1.375-1.521c0.777,0.251,1.471,0.752,1.955,1.41c-0.296-0.662-0.599-1.337-1.085-1.875c-0.486-0.539-1.194-0.928-1.916-0.85c-0.721,0.078-1.655,1.089-1.575,1.81c-0.085-1.995,0.395-3.377,1.613-3.687c1.218-0.31,2.752,0.733,3.608,1.655c0.855,0.921,1.131,1.707,1.614,2.882c-0.085-1.813-0.483-2.941-1.174-4.533c-0.386-0.89-1.03-1.72-1.68-2.523c-0.631-0.597-1.296-1.158-2.008-1.657c-0.924-0.648-1.935-1.219-3.048-1.403c-1.113-0.184-2.519,0.046-3.301,0.859c-0.416-0.035-0.813-0.031-1.2-0.002c-2.186,1.982-2.977,5.576-1.326,8.911c-0.274-0.536-0.009-2.117,0.137-2.728c0.532-2.234,2.05-4.21,4.157-5.16c-0.549,0.53-0.894,1.268-0.948,2.029c0.047-0.664,1.076-1.498,1.576-1.831c0.843-0.562,1.52-0.661,2.489-0.41c-2.693,0.484-3.9,4.078-4.001,6.283c-0.314-1.405-0.533-3.25,0-4.587c-2.451,5.038-1.799,10.861,1.559,15.409c-0.923-2.127-1.357-4.444-1.119-6.75c0.826,3.951,3.025,7.745,6.19,10.249c-1.885-0.205-3.686-1.126-4.618-2.778c1.065,2.848,2.455,4.143,4.79,4.78c1.931,0.527,4.346-0.76,5.49-2.38c0.495-1.527,0.792-3.117,0.872-4.721C35.801-141.629,35.188-143.125,34.423-144.225z" fill="#323232" /><path style="" d="M19.947-156.309c-0.608,0.116-1.198,0.298-1.789,0.525c-1.065,1.398-1.53,3.263-0.957,5.592C17.118-152.265,18.086-154.79,19.947-156.309z" fill="#323232" /></g><path style="" d="M30.114-152.173c-1.864-2.231-3.653-1.335-4.146,0.087c0.408-0.634,1.105-0.738,1.857-0.791C28.577-152.93,29.396-152.566,30.114-152.173z" fill="none" /><path style="" d="M22.177-156.047c-0.493-0.068-0.925,0.323-1.226,0.719c-0.925,1.217-1.373,2.787-1.229,4.309C20.08-152.919,20.839-154.65,22.177-156.047z" fill="#464646" /><path style="" d="M22.368-144.271c-1.499-2.954-1.549-6.604-0.129-9.597c0.543-1.145,1.366-2.256,2.565-2.668C22.513-152.943,21.463-148.434,22.368-144.271z" fill="#464646" /><path style="" d="M26.982-154.657c-0.912,0.223-1.68,0.873-2.191,1.66c-0.512,0.787-0.789,1.704-0.971,2.625c-0.918,4.668,0.685,10.09,4.625,12.952c0.863,0.627,2.01,1.294,3.118,1.18c-2.514-1.264-4.503-3.551-5.414-6.213c0.867,1.313,2.133,2.36,3.586,2.964c-3.067-2.426-4.436-6.857-3.223-10.573c0.191-0.584,0.454-1.171,0.92-1.57c0.467-0.4,1.182-0.563,1.708-0.245c-0.401-0.533-1.191-0.674-1.814-0.436c-1.073,0.411-1.629,1.904-1.92,3.335c-0.297-1.431,0.055-2.893,0.682-4.078c0.76-1.437,2.531-1.687,3.657-0.448C29.099-154.971,27.639-154.817,26.982-154.657z" fill="#464646" /><path style="" d="M26.537-139.897c-1.709-1.919-2.656-4.579-2.983-7.106c-0.332-2.563,0.439-5.562,2.041-6.914c-1.688,2.651-1.604,6.015,0.07,8.676c-0.375-1.281-0.09-2.45,0.513-3.942c-0.57,3.009,0.26,6.143,2.224,8.493c-1.561-1.181-2.468-2.71-3.466-4.649C25.178-143.454,25.631-141.568,26.537-139.897z" fill="#5A5A5A" /><path style="" d="M32.377-135.154c-1.745,0.412-3.634,0.276-5.227-0.546c0.584,0.857,1.436,1.371,2.468,1.473S31.637-134.428,32.377-135.154z" fill="#464646" /><path style="" d="M24.046-150.192c-0.776,2.046-0.501,5.148,0.768,6.93C24.15-145.239,24.053-148.106,24.046-150.192z" fill="#787878" /><path style="" d="M23.019-154.053c-1.488,1.334-2.015,3.635-1.256,5.484C21.801-150.476,22.284-152.293,23.019-154.053z" fill="#5A5A5A" /><g><path style="" d="M31.232-151.726c0.208-0.286,0.526-0.843,0.526-0.843c-0.074-0.103-0.176-0.365-0.168-0.492s0.086-0.265,0.212-0.278c0.466-0.088,0.959,0.32,0.961,0.794c0.001,0.307-0.169,0.585-0.338,0.842c-0.556,0.847-1.155,1.666-1.795,2.452c-0.336,0.413-0.695,0.671-1.248,0.524c-0.342-0.091-0.719-0.436-0.517-0.821c0.128-0.245,0.483-0.335,0.712-0.182C30.115-150.42,30.719-151.024,31.232-151.726z" fill="#7E7E7E" /><path style="" d="M30.63-149.252c0.639-0.786,1.239-1.605,1.795-2.452c0.134-0.205,0.266-0.424,0.315-0.66c-0.426-0.143-0.981-0.206-0.981-0.206s-0.318,0.557-0.526,0.843c-0.513,0.702-1.116,1.306-1.655,1.996c0.047,0.196,0.231,0.624,0.448,0.968C30.251-148.855,30.446-149.025,30.63-149.252z" fill="#B2B2B2" /><path style="" d="M31.498-152.134c-0.089,0.145-0.185,0.297-0.267,0.408c-0.254,0.348-0.531,0.672-0.811,0.994c0.119,0.144,0.239,0.287,0.353,0.435c0.111,0.145,0.216,0.294,0.321,0.444c0.427-0.553,0.839-1.118,1.226-1.7C32.064-151.771,31.791-151.968,31.498-152.134z" fill="#FFFFFF" /></g><g><path style="" d="M32.767-149.685c0.208-0.286,0.526-0.843,0.526-0.843c-0.074-0.103-0.176-0.365-0.168-0.492c0.007-0.127,0.086-0.265,0.212-0.278c0.466-0.088,0.959,0.32,0.961,0.794c0.001,0.307-0.169,0.585-0.338,0.842c-0.556,0.847-1.155,1.666-1.795,2.452c-0.336,0.413-0.695,0.671-1.248,0.524c-0.342-0.091-0.719-0.436-0.517-0.821c0.128-0.245,0.483-0.335,0.712-0.182C31.65-148.379,32.254-148.983,32.767-149.685z" fill="#7E7E7E" /><path style="" d="M32.165-147.211c0.639-0.786,1.239-1.605,1.795-2.452c0.134-0.205,0.266-0.424,0.315-0.66c-0.426-0.143-0.981-0.206-0.981-0.206s-0.318,0.557-0.526,0.843c-0.513,0.702-1.116,1.306-1.655,1.996c0.047,0.196,0.231,0.624,0.448,0.968C31.786-146.813,31.981-146.984,32.165-147.211z" fill="#B2B2B2" /><path style="" d="M33.033-150.093c-0.089,0.145-0.185,0.297-0.267,0.408c-0.254,0.348-0.531,0.672-0.811,0.994c0.119,0.144,0.239,0.287,0.353,0.435c0.111,0.145,0.216,0.294,0.321,0.444c0.427-0.553,0.839-1.118,1.226-1.7C33.599-149.73,33.326-149.927,33.033-150.093z" fill="#FFFFFF" /></g><path style="" d="M32.377-132.476c-0.814,0.831-2.275,0.572-3.193,0.34c-1.026-0.26-2.141-0.778-2.887-1.528c-0.054,1.418,1.497,2.566,2.883,2.873S32.113-130.7,32.377-132.476z" fill="#323232" /><path style="" d="M30.768-129.984c-0.782,0.331-1.622,0.308-2.441,0.101c-0.432-0.109-0.849-0.274-1.237-0.493c-0.169-0.095-0.996-0.537-0.998-0.749c0.005,0.679,0.45,1.295,1.055,1.605c1.172,0.601,2.844,0.441,3.77-0.532C30.868-130.027,30.818-130.005,30.768-129.984z" fill="#323232" /></g><g><path style="" d="M32.104-76.294c1.218-7.435,2.23-14.904,3.035-22.396C34.969-91.204,33.886-83.565,32.104-76.294z" fill="#1E1E1E" /><path style="" d="M34.038-112.641c0.024,1.696,0.058,3.39,0.122,5.082c0.174,4.596,0.394,17.199,0.33,19.389c-0.062,2.144,0.018,4.646-0.349,7.723c1.085-2.082,1.833-11.783,1.981-17.753c0.145-5.826,0.333-11.599,0.477-17.425c0.667,4.305,0.964,9.855,0.891,14.21c0.323-4.017,0.811-9.225,0.802-13.257c-0.009-4.018-0.199-8.033-0.389-12.046c-0.172-3.623-0.343-7.248-0.729-10.855c-0.379-3.545-1.195-9.079-5.771-9.179c-1.172-0.026-2.422,0.48-2.982,1.51c-0.559,1.03-0.135,2.564,0.983,2.916c0.758,0.239,1.757,0.346,2.187,1.014s0.602,1.466,0.751,2.246c0.853,4.478,1.113,9.037,1.383,13.578C33.98-121.213,33.977-116.923,34.038-112.641z" fill="#323232" /><path style="" d="M32.392-146.625c0.137,0.072,0.271,0.152,0.393,0.245c0.548,0.42,0.936,1.014,1.262,1.622c0.958,1.79,1.178,3.699,1.317,5.699c-0.55-1.512-1.283-3.028-2.356-4.238c-0.434-0.49-0.915-0.955-1.501-1.247c-0.586-0.291-1.295-0.391-1.899-0.138c-0.604,0.253-0.996,1.261-0.893,1.908c0.789-0.871,2.337-1.131,3.178-0.311s1.167,2.023,1.413,3.172c0.955,4.453,1.242,9.014,1.348,13.557c0.105,4.468,0.481,19.296,0.629,22.187c0.154,2.994,0.307,5.987,0.461,8.981c0,0,0.146-4.642,0.221-6.923c0.076-2.312,0.38-5.057,0.466-7.383c0.01-0.342,0.019-0.684,0.028-1.026c0.122-4.346,0.072-8.361,0.214-12.758c0.151-4.665-0.323-9.336-0.615-14.001c0.749,2.624,1.277,5.301,1.719,7.996c-0.14-2.768-0.31-5.536-0.604-8.292C36.824-140.844,36.096-145.798,32.392-146.625z" fill="#464646" /><path style="" d="M32.521-143.886c0.499,0.351,0.931,0.786,1.361,1.218c-0.155-1.719-1.825-3.192-3.551-3.203c-0.669-0.004-1.319,0.215-1.877,0.58c-0.01,0.017-0.023,0.031-0.032,0.049c-0.423,0.778-0.282,1.842,0.293,2.469c-0.034-0.439,0.135-0.899,0.447-1.217c0.428-0.435,1.071-0.616,1.678-0.564S32.022-144.237,32.521-143.886z" fill="#1E1E1E" /><path style="" d="M36.845-136.29c-0.501-2.459-1.109-4.896-1.821-7.302C36.612-141.322,37.297-139.023,36.845-136.29z" fill="#5A5A5A" /><path style="" d="M35.586-106.684c-0.566-5.53-0.472-13.706-0.561-20.599c-0.057-4.419,0.173-8.975-1.004-13.235c1.811,3.373,2.085,7.095,2.188,10.922C36.418-121.837,36.263-114.416,35.586-106.684z" fill="#5A5A5A" /><path style="" d="M35.306-119.252c0.841-4.08,0.761-8.348-0.232-12.394C34.741-127.407,34.847-123.479,35.306-119.252z" fill="#787878" /><g><path style="" d="M36.749-109.541c-0.377,0.47-0.803,0.902-1.268,1.287c-0.318,0.263-0.616,0.625-1.054,0.679c-0.362,0.044-0.635-0.077-0.766-0.406c-0.108-0.272-0.098-0.536,0.222-0.644c0.1-0.034,0.21-0.017,0.315-0.024c0.302-0.022,0.546-0.243,0.765-0.452c0.377-0.359,0.753-0.719,1.13-1.078c0.106-0.101,0.214-0.203,0.347-0.263c0.133-0.059,0.299-0.068,0.418,0.016c0.137,0.096,0.177,0.29,0.138,0.453S36.854-109.672,36.749-109.541z" fill="#B2B2B2" /><path style="" d="M34.734-107.669c0.282-0.137,0.509-0.389,0.747-0.585c0.442-0.366,0.846-0.777,1.21-1.221c0-0.341-0.054-0.674-0.18-0.982c-0.023,0.007-0.048,0.005-0.069,0.015c-0.133,0.059-0.242,0.162-0.347,0.263c-0.377,0.359-0.753,0.719-1.13,1.078c-0.103,0.099-0.213,0.199-0.332,0.281C34.705-108.444,34.735-108.059,34.734-107.669z" fill="#FFFFFF" /></g></g></g></g><g /><g /><g transform="translate(0, -27) scale(0.7)" preserveAspectRatio="none"><g><g /><g /></g></g><g transform="translate(0, -27) scale(0.7)" preserveAspectRatio="none"><g><g><path style="" d="M-8.627-121.405c1.089-2.681,2.464-5.332,4.632-7.248c2.168-1.917,4.629-3.34,7.387-2.464l-0.28-0.864l1.194,0.83l0.86-1.579c0.003-0.004,0.091,1.535,0.046,1.396c2.704-0.852,5.585,0.475,7.826,2.212c2.241,1.737,4.545,6.41,5.193,9.17c-0.095-5.196-1.519-12.984-3.275-17.875c-1.185-3.301-2.916-6.67-5.983-8.372c-2.885-1.601-6.502-1.412-9.584-0.234c-2.965,1.134-5.615,3.169-7.291,5.866c-1.74,2.8-2.369,6.177-2.342,9.473C-10.217-127.798-9.27-124.639-8.627-121.405z" fill="#1E1E1E" fill-opacity="0.5" /><path style="" d="M13.967-149.832c-0.929-1.595-2.038-2.645-3.524-3.384s-3.126-1.112-4.76-1.406c-1.639-0.295-3.33-0.516-4.961-0.18c-1.631,0.335-3.211,1.319-3.866,2.851c0.985-1.198,2.275-2.054,3.775-2.45c1.278-0.337,2.629-0.221,3.935-0.022c1.547,0.236,3.077,0.585,4.573,1.044C10.136-153.075,12.627-151.84,13.967-149.832z" fill="#1E1E1E" /><path style="" d="M-8.168-153.035c-1.549-1.417-5.342-1.766-8.279-0.895s-5.61,2.229-7.639,4.932c2.329-2.232,4.726-3.867,7.707-4.557S-10.621-154.282-8.168-153.035z" fill="#1E1E1E" /><path style="" d="M-2.938-151.563c-0.357-3.047-4.949-3.755-7.397-3.526c-2.938,0.275-6.231,1.496-7.554,4.203c1.365-1.884,3.029-2.894,5.273-3.509c2.244-0.615,5.008-0.663,7.144,0.261C-4.292-153.624-3.102-152.839-2.938-151.563z" fill="#1E1E1E" /><path style="" d="M3.249-134.365c-0.278-2.64-0.555-5.28-0.833-7.92c0.977,2.386,1.359,4.463,1.727,7.014c0.817-2.78,1.818-2.497,3.361-2.481s2.927,0.937,4.09,1.952c5.845,5.103,8.353,13.012,9.74,20.646c2.232-3.957,4.774-12.703,3.892-19.148c-0.661-4.826-2.972-8.611-5.896-12.433c-2.667-3.486-5.551-4.412-9.777-5.567c-2.968-1.698-7.984-2.321-12.76-0.566c-7.693-1.165-14.106-0.811-19.677,2.846c-5.571,3.657-9.468,9.508-11.647,15.806c-1.4,4.048-2.146,8.364-1.779,12.631c0.367,4.268,1.474,7.97,4.234,11.246c0.399-1.457,1.428-2.846,3.51-2.964c1.614,0.195,3.005,2.005,4.062,3.24c1.057,1.235,2.033,2.609,3.449,3.408c-0.416-5.293,0.741-10.7,3.286-15.36s6.471-8.554,11.15-11.064C-3.849-134.563,0.232-135.246,3.249-134.365z" fill="#1E1E1E" /><g><path style="" d="M-30.647-114.714c-3.117-1.97-4.811-5.959-4.065-9.57C-34.385-120.688-32.842-117.581-30.647-114.714z" fill="#323232" /><path style="" d="M-29.791-118.583c-2.103-2.436-3.286-4.769-3.221-8.077c0.245,4.245,4.256,8.996,9.051,11c-4.899-3.56-8.097-9.361-8.493-15.403c0.596,2.79,2.446,5.189,4.68,6.965s4.848,2.999,7.453,4.162c-3.881-2.46-7.017-6.08-8.897-10.273c2.358,3.085,6.017,5.141,9.879,5.55c-4.727-2.361-8.595-6.398-10.752-11.221c1.466,1.622,6.83,5.331,9.546,5.411c-3.2-3.088-6.4-6.175-9.601-9.263c4.357,0.637,8.657,1.655,12.836,3.041c-1.633-1.387-3.381-2.638-5.22-3.736c5.348,0.58,10.527,2.644,14.808,5.902c-5.41,6.582-9.92,13.902-13.367,21.694C-24.208-114.684-27.27-115.833-29.791-118.583z" fill="#323232" /><path style="" d="M-25.028-140.429c0,0,9.269-4.1,20.894,5.302c0,0,3.927-1.155,3.87-1.353c-0.057-0.198-5.135-4.347-9.374-6.3c0,0,5.054-0.623,9.886,4.911l3.001,3.504l-0.515-4.894c0,0-0.762-3.109-7.088-7.269c0,0,3.383-0.102,5.915,3.125c0,0,0.892-4.3-6.851-7.54c-6.494-2.717-11.597-0.896-11.597-0.896s3.86,0.098,5.967,1.431c0,0-12.014,0.333-17.562,7.456c0,0,7.764-2.596,13.254-1.056C-15.227-144.009-21.972-144.01-25.028-140.429z" fill="#323232" /><path style="" d="M-23.088-118.472c-3.639-1.242-6.535-4.456-7.393-8.204c1.923,3.04,4.653,5.481,7.934,6.958C-22.806-119.397-22.83-118.792-23.088-118.472z" fill="#464646" /><path style="" d="M-17.881-128.824c-2.199-0.018-4.434-0.324-6.424-1.258c-1.991-0.935-3.723-2.556-4.458-4.629C-25.592-132.15-21.798-129.951-17.881-128.824z" fill="#464646" /><path style="" d="M-14.065-130.004c-4.382-3.574-9.549-6.245-14.699-9.296c5.231,0.966,10.913,3.475,15.335,6.432C-14.073-132.027-14.143-131.061-14.065-130.004z" fill="#464646" /><path style="" d="M-14.194-135.254c0.624,0.641,1.225,1.303,1.813,1.954c-0.251-0.278,1.043-1.686,1.248-1.912c-1.717-1.102-5.754-3.505-8.395-3.634C-17.585-137.869-14.865-135.943-14.194-135.254z" fill="#464646" /><path style="" d="M-4.582-139.419c-3.805-2.134-10.19-3.383-15.787-2.44c2.503-1.17,5.756-2.039,8.474-1.541S-6.507-141.401-4.582-139.419z" fill="#464646" /><path style="" d="M-13.099-148.354c7.175,0.906,13.575,5.747,15.366,11.8c-3.062-3.398-7.101-5.905-11.505-7.141s-7.469-1.863-12.518-1.177c3.285-1.693,6.747-1.868,9.791-1.713c-2.293-1.077-5.076-1.501-7.607-1.407c3.053-1.819,6.724-2.579,10.249-2.122s6.881,2.128,9.369,4.666C-3.533-146.688-7.456-148.681-13.099-148.354z" fill="#464646" /><path style="" d="M-4.982-147.64c-1.944-1.866-5.066-2.377-7.503-1.228C-9.918-149.1-7.341-148.673-4.982-147.64z" fill="#5A5A5A" /><path style="" d="M-0.464-139.28c-1.541-2.42-3.635-4.566-6.259-5.727s-5.817-1.222-8.279,0.252C-9.698-144.636-4.447-142.783-0.464-139.28z" fill="#5A5A5A" /><path style="" d="M-20.831-109.891c0.028-1.478,0.155-2.881,0.371-4.344c0.466-3.155,1.098-6.299,2.077-9.345c0.489-1.522,1.057-3.019,1.7-4.483c0.322-0.732,0.662-1.455,1.021-2.17c0.15-0.298,0.788-1.969,1.085-2.03c-2.186,0.448-4.098,1.841-5.506,3.572c-1.408,1.731-2.357,3.789-3.143,5.877c-1.188,3.153-2.039,6.433-2.534,9.766C-24.316-111.712-22.68-110.562-20.831-109.891z" fill="#1E1E1E" /></g><g><path style="" d="M22.051-141.063c0.834,4.291-0.072,8.743-2.312,12.497c-0.255-0.368-0.616-1.038-0.871-1.406c2.961-4.513,3.145-11.076,0.309-15.669c-1.386,2.207-3.234,3.863-5.384,5.338c1.737-2.083,3.085-4.361,4.352-6.758c-2.261-1.177-5.352-0.802-7.679,0.238c-2.453,1.096-4.73,2.839-5.865,5.274c-0.513,1.102-0.771,2.293-0.934,3.503c0.179,0.887,0.334,1.791,0.476,2.775c0.817-2.78,1.818-2.497,3.361-2.481c1.543,0.016,2.927,0.937,4.09,1.952c0.423,0.37,0.824,0.758,1.214,1.156c1.991-2.16,3.882-4.725,5.928-7.964c-1.461,3.734-2.444,6.532-4.373,9.733c1.518,1.916,2.737,4.062,3.724,6.341c0.936,1.182,1.846,2.385,2.663,3.672c1.364-2.911,2.743-5.869,3.256-9.043C24.518-135.078,24.058-138.552,22.051-141.063z" fill="#323232" /><path style="" d="M16.543-148.377c-2.574-0.502-5.29-0.258-7.733,0.696c-2.443,0.954-4.606,2.614-6.159,4.727c-0.072-1.58,0.302-3.186,1.282-4.428c0.979-1.241,2.415-2.114,3.968-2.412c-2.446-0.431-5.009,0.037-6.932,1.608c-0.434-0.219-0.747-0.683-0.822-1.163c-0.075-0.48,0.027-0.973,0.191-1.43c0.676-1.88,2.495-3.296,4.484-3.488c0.846-0.082,1.839,0.129,2.231,0.883c-1.899-0.315-3.968,0.585-5.027,2.192c4.203-2.098,9.037-1.671,13.026,0.811C15.878-149.864,16.37-149.095,16.543-148.377z" fill="#323232" /><path style="" d="M17.246-129.862c2.477-2.814,3.523-6.827,2.735-10.492c-0.712,2.854-1.795,5.677-3.145,8.29C16.546-131.503,17.081-130.472,17.246-129.862z" fill="#464646" /><path style="" d="M13.238-135.347c2.603-2.569,4.545-5.803,5.591-9.308c-1.873,2.899-4.115,5.453-6.667,7.776C12.512-136.352,12.887-135.875,13.238-135.347z" fill="#464646" /><path style="" d="M16.575-146.427c-1.498,3.589-4.223,6.652-7.613,8.558c-1.06-0.408-2.303-0.479-3.393-0.161c1.585-1.771,3.032-3.52,4.617-5.292c-2.25,0.97-4.265,2.518-5.671,4.525c0.393-2.623,1.504-5.086,3.598-6.714c2.093-1.628,5.754-2.603,7.639-2.004c-1.917,1.095-3.406,2.676-4.326,4.683C13.533-143.606,15.06-144.77,16.575-146.427z" fill="#464646" /><g><path style="" d="M13.23-143.404c-1.037,2.043-2.895,3.654-5.064,4.393C9.81-140.945,10.99-142.21,13.23-143.404z" fill="#5A5A5A" /><path style="" d="M14.443-147.397c-3.072,1.52-5.901,3.527-8.35,5.925c0.423-1.807,1.373-3.469,2.896-4.529C10.512-147.062,12.602-147.628,14.443-147.397z" fill="#5A5A5A" /></g><path style="" d="M13.038-149.612c-3.788-0.025-7.477,1.587-10.131,4.29c0.678-2.37,2.273-3.57,4.24-4.334S11.113-150.479,13.038-149.612z" fill="#464646" /><path style="" d="M8.203-151.396c-1.274-0.535-2.743-0.588-4.052-0.148s-2.448,1.371-3.139,2.567C3.123-150.406,5.662-151.185,8.203-151.396z" fill="#464646" /></g><g><path style="" d="M-20.098-57.839c-3.538-14.15-5.185-32.547-2.782-48.258c-1.384,11.012-1.134,28.088,1.844,41.978C-20.529-61.756-20.61-60.201-20.098-57.839z" fill="#1E1E1E" /><path style="" d="M3.585-132.151c-2.312-1.764-4.417-0.173-5.342,0.623c-6.715,5.774-7.864,18.216-7.903,32.377c-0.032,11.607,0.457,32.83,2.465,41.799c-4.406-6.833-5.527-15.859-5.878-23.982s-1.02-15.628-1.599-24.893c-0.533,3.82-0.458,6.719-0.56,10.575c-0.171,6.498-0.307,12.287-0.478,18.784c-0.193,7.348-0.33,16.473,0.237,23.792c0.599,7.729,1.125,15.876,2.221,23.551c-3.633-6.853-6.049-13.265-6.853-22.532c-0.772-8.893-1.538-20.941-2.114-29.945c-0.587-9.192-1.174-12.239-1.365-21.428c-0.084-4.025-0.015-13.334,0.951-17.311c1.559-6.414,6.309-14.501,12.621-17.467c2.473-1.162,11.787-2.83,13.598,4.189c0,0-1.358-0.396-2.312,0.104C2.182-133.961,2.979-133.082,3.585-132.151z" fill="#323232" /><path style="" d="M-6.406-136.534c-6.45,3.454-11.857,13.227-12.746,20.489c-0.527-7.304,1.575-12.272,4.427-16.121c0.909-1.227,1.951-2.378,3.227-3.216C-10.223-136.221-7.927-136.666-6.406-136.534z" fill="#1E1E1E" /><path style="" d="M-13.073-81.334c-0.252-5.839-0.691-11.667-1.102-17.496c-0.416-5.893-0.893-11.997-0.482-17.918c0.33-4.75,1.388-9.519,3.712-13.675c1.065-1.905,2.665-3.585,4.278-4.863c-2.537,1.323-3.767,2.887-5.186,4.777c-3.593,4.785-4.403,10.873-4.6,16.639c-0.24,7.03,0.047,13.344,0.085,20.378c0.038,7.037,0.216,14.074,0.532,21.104c0.289,6.416-0.137,12.869,0.362,19.313c0.599,7.729,1.125,15.876,2.221,23.551c-3.633-6.853-6.049-13.265-6.853-22.532c-0.772-8.893-1.538-20.941-2.114-29.945c-0.587-9.192-1.174-12.239-1.365-21.428c-0.084-4.025-0.015-13.334,0.951-17.311c1.255-5.164,4.307-10.148,8.034-13.927c-5.994,8.368-6.853,17.518-6.585,29.329c1.087-7.846,1.486-11.881,3.276-17.548c2.181-6.903,6.125-12.93,14.231-15.038c-2.665-0.106-5.349,0.307-7.858,1.21c0.828-0.298,1.32-1.051,2.024-1.502c1.867-1.195,4.703-1.221,6.832-0.93c2.968,0.406,5.001,2.001,6.07,4.741c-1.847-1.796-5.019-1.553-7.118-0.06s-3.322,3.92-4.216,6.336c-4.593,12.411-2.826,26.407-2.054,39.297c0.451,7.534,0.902,15.067,1.353,22.601c-1.697-5.102-2.591-12.949-3.456-18.77c-0.017,6.416,0.603,13.919,1.862,20.21c-0.273-1.363-0.847-2.691-1.143-4.062c-0.268-1.241-0.446-2.463-0.812-3.667C-13.023-75.255-12.95-78.487-13.073-81.334z" fill="#464646" /><path style="" d="M-0.264-135.758c-3.649,1.852-6.142,4.456-8.638,10.173c0.651-2.013,1.078-5.234,2.299-6.962C-5.383-134.275-2.143-136.172-0.264-135.758z" fill="#1E1E1E" /><path style="" d="M-12.641-110.186c-1.516-5.644-0.692-11.879,2.237-16.936C-11.785-121.605-12.602-115.874-12.641-110.186z" fill="#323232" /><path style="" d="M-11.059-81.566c-0.805-6.982-1.09-14.028-1.373-21.056c-0.781,2.167-0.645,10.969-0.645,10.969c-1.317-8.233-2.159-16.757-1.58-25.095c0.211-3.032,1.09-6.295,2.208-9.127c-0.835,5.507-0.764,10.219-0.192,15.689c0.541-7.964,0.994-15.19,4.587-21.099c0.872-1.433,1.936-2.778,3.307-3.745s3.4-1.504,4.482-0.728c-1.738-0.347-3.549,1.198-4.598,2.269c-1.457,1.487-2.366,3.429-3.08,5.359c-2.267,6.126-2.983,12.692-3.037,19.188c-0.056,6.699,0.269,13.398,0.464,20.098c0.135,4.652,0.271,9.305,0.406,13.957C-10.49-77.105-10.801-79.332-11.059-81.566z" fill="#5A5A5A" /><path style="" d="M-1.757-131.528c0.925-0.795,3.03-2.387,5.342-0.623c-0.606-0.931-1.403-1.81-2.312-1.764c0.953-0.5,2.312-0.104,2.312-0.104c-0.068-0.262-0.165-0.487-0.253-0.725c-0.525-0.281-1.143-0.419-1.735-0.376c-1.254,0.092-2.356,0.831-3.333,1.623c-6.467,5.248-8.573,15.506-8.788,17.5c-0.236,2.186,0.038,4.943,0.007,7.141c-0.057,4.011,0.238,8.026,0.857,11.99c-0.002-0.796-0.002-1.56,0-2.286C-9.621-113.312-8.472-125.755-1.757-131.528z" fill="#1E1E1E" /><path style="" d="M-9.625-106.907c-0.137-3.49,0.834-6.917,1.799-10.274c0.875-3.045,1.759-6.108,3.164-8.947c1.405-2.839,3.374-5.472,6.032-7.196c-2.53,1.914-4.184,4.653-5.563,7.51s-2.298,5.91-3.211,8.949C-8.452-113.382-9.397-110.537-9.625-106.907z" fill="#1E1E1E" /><path style="" d="M-5.164-136.534c-2.824,0.418-5.485,1.864-7.372,4.007s-2.984,4.966-3.041,7.82C-14.168-129.853-10.097-134.502-5.164-136.534z" fill="#5A5A5A" /><path style="" d="M-20.291-90.743c0.153-11.69,0.701-21.772,3.131-32.143c0.275,1.829-0.356,8.585-0.406,10.343c-0.099,3.509-0.159,7.019-0.182,10.529c-0.045,7.02,0.061,14.042,0.302,21.058c0.4,11.627,1.454,23.263,2.219,34.874c-1.321-6.195-2.338-12.456-3.001-18.756c-0.658-6.245-0.68-12.545-1.661-18.754c-0.347,6.467-0.594,12.592-0.554,19.739c-1.211-9.382-0.708-13.926-1.229-20.734c-0.523-6.837-0.689-13.732-0.931-20.606c-0.02-0.565-0.04-1.131-0.06-1.696c-0.186-5.286-0.299-10.887,2.327-15.479C-21.724-111.886-21.709-101.22-20.291-90.743z" fill="#5A5A5A" /><path style="" d="M-18.153-87.502c-0.092-0.057-1.945-12.498-0.363-24.122C-17.878-103.516-17.718-95.623-18.153-87.502z" fill="#787878" /><path style="" d="M-21.288-85.293c-0.768-4.691-1.927-13.894-1.014-20.819C-20.885-99.255-20.872-90.386-21.288-85.293z" fill="#787878" /><path style="" d="M-13.824-105.093c-1.138-3.568-1.121-7.494,0.047-11.052C-13.542-112.356-13.463-108.873-13.824-105.093z" fill="#787878" /><path style="" d="M-10.942-97.216c-1.821-7.727-1.813-15.879,0.024-23.602C-10.965-112.922-10.895-105.112-10.942-97.216z" fill="#787878" /></g><g><path style="" d="M18.36-81.639c-2.556,13.313-5.746,32.079-8.877,43.412C11.867-43.709,16.354-67.691,18.36-81.639z" fill="#1E1E1E" /><path style="" d="M16.658-106.964c-0.288-4.879-0.691-11.802-2.8-17.913c-1.485-4.303-4.283-7.059-6.92-8.108c-2.136-0.85-1.569-0.468-0.637-0.637c4.75,1.64,6.43,5.045,7.174,6.624C16.447-120.698,16.476-113.927,16.658-106.964z" fill="#1E1E1E" /><path style="" d="M7.577-60.665c3.198-2.302,4.187-5.943,5.326-9.715c2.332-7.721,4.064-14.452,5.393-23.758c-0.617,4.257-0.704,8.633-1.069,12.922c-0.368,4.313-0.79,8.706-1.268,12.956c-0.771,6.849-1.767,13.676-3.121,20.435c-1.291,6.445-3.913,13.746-6.422,18.236c5.137-5.976,7.214-13.194,9.649-20.512c2.115-6.359,3.614-12.923,4.463-19.571c0.402-3.147,0.658-6.312,0.765-9.483c0.111-3.296,0.73-6.643,1.066-9.941c0.712-6.986,1.27-13.988,1.613-21.002c0.209-4.265,0.411-8.6-0.598-12.749c-0.852-3.505-2.538-6.732-4.372-9.813c-1.471-2.47-3.93-5.248-6.522-6.578c-1.825-0.937-4.098-1.185-5.917-0.237s-2.949,3.259-2.202,5.169c0.037-0.463,0.291-1.419,0.574-1.787c-0.045,1.007,0.179,2.029,0.47,2.994c4.69-1.288,11.511,3.042,11.222,17.201c-0.079,3.875-1.562,22.032-1.842,26.549c-0.296,4.772-1.383,9.458-2.537,14.083C11.609-72.705,10.094-65.528,7.577-60.665z" fill="#323232" /><path style="" d="M7.974-135.025c-1.006,0.254-1.941,0.81-2.672,1.558c0.034,0.123,0.065,0.247,0.102,0.368c4.053-1.113,9.695,1.976,10.966,11.975c-0.011-0.603-0.034-1.204-0.077-1.804c-0.154-2.15-0.534-4.275-1.258-6.339C13.964-132.324,11.772-135.986,7.974-135.025z" fill="#1E1E1E" /><path style="" d="M23.971-110.099c0.008-0.158,0.015-0.317,0.022-0.476c-0.473-5.903-1.52-11.762-3.178-17.449c-0.387-1.326-0.854-2.634-1.39-3.911c-0.141-0.242-0.281-0.485-0.424-0.726c-1.471-2.47-3.93-5.248-6.522-6.578c-1.825-0.937-4.098-1.185-5.917-0.237c-1.749,0.911-2.842,3.078-2.263,4.942c0.139-0.834,0.463-1.638,0.979-2.308c0.771-1.001,1.924-1.701,3.168-1.922c-0.992,0.534-1.692,1.613-2.067,2.676c1.352-0.883,3.597-0.427,4.99,0.39c1.623,0.952,2.791,2.596,3.914,4.059c1.935,2.523,2.269,5.598,2.438,8.664c0.189,3.434,0.152,6.877-0.03,10.31c-0.729,13.743-2.227,27.474-4.49,41.064c-0.03,0.182-0.065,0.364-0.096,0.546c1.606-5.358,2.921-10.29,4.013-16.001c1.932-11.761,2.653-23.735,2.085-35.612c1.289,3.529,1.306,6.825,1.342,10.534c0.063,6.523-0.371,13.008-0.824,19.507c-0.488,7.003-1.102,13.997-1.898,20.971c-1.464,12.83-2.14,26.747-11.409,42.066c5.137-5.976,7.214-13.194,9.649-20.512c2.115-6.359,3.614-12.923,4.463-19.571c0.402-3.147,0.659-6.312,0.765-9.483c0.111-3.296,0.73-6.643,1.066-9.941C23.07-96.082,23.628-103.085,23.971-110.099z" fill="#464646" /><path style="" d="M17.691-112.665c-0.502,9.464-1.378,18.92-2.608,28.331c0.221-0.632,0.424-1.271,0.597-1.915c0.868-3.224,1.215-6.56,1.644-9.871c0.529-4.081,1.188-8.156,1.293-12.27c0.072-2.809-0.136-5.652-0.792-8.376C17.805-115.398,17.764-114.031,17.691-112.665z" fill="#5A5A5A" /><path style="" d="M14.108-134.522c-0.727-0.673-1.509-1.315-2.429-1.679c-0.671-0.265-1.429-0.358-2.126-0.206c0.664,0.154,1.299,0.407,1.817,0.71c1.525,0.894,2.647,2.397,3.708,3.789c2.266,2.5,3.875,5.696,4.673,8.958c0.904,3.696,0.992,7.506,0.791,11.321c0.037,6.353-0.379,12.672-0.82,19.003c-0.488,7.003-1.102,13.997-1.898,20.971c-0.016,0.144,1.553-6.86,2.139-10.083c1.217-6.703,2.023-13.478,2.502-20.273c0.119-1.69,0.299-3.408,0.299-5.103c0.238-5.052,0.276-10.198-1.097-15.066C20.34-126.883,17.693-131.204,14.108-134.522z" fill="#5A5A5A" /><path style="" d="M20.98-102.208c0.648-6.451,0.559-12.976-0.265-19.408c-0.236-1.842-0.609-3.826-1.98-5.079C20.968-119.415,21.058-110.829,20.98-102.208z" fill="#787878" /></g></g><g><path style="" d="M-23.868-100.381c0,0,8.067-0.921,8.873-1.034c0,0,0.722,1.132,0,1.811c0,0-4.669,1.138-8.837,1.079C-23.832-98.525-25.111-99.952-23.868-100.381z" fill="#B2B2B2" /><path style="" d="M-20.817-98.658c1.474-0.137,2.847-0.353,3.892-0.546l-0.224-1.952c-1.183,0.138-2.64,0.307-3.903,0.452L-20.817-98.658z" fill="#FFFFFF" /><path style="" d="M-14.904-101.248c-0.051-0.102-0.091-0.167-0.091-0.167c-0.806,0.113-8.873,1.034-8.873,1.034c-0.28,0.097-0.427,0.245-0.495,0.416C-22.478-100.043-19.344-100.336-14.904-101.248z" fill="#7E7E7E" /></g><g><path style="" d="M-24.158-96.227c0,0,8.206-0.307,9.028-0.359c0,0,0.644,1.184-0.136,1.806c0,0-4.795,0.782-8.995,0.407C-24.261-94.373-25.444-95.893-24.158-96.227z" fill="#B2B2B2" /><path style="" d="M-21.21-94.277c1.497-0.025,2.898-0.137,3.967-0.25l-0.08-1.963c-1.204,0.048-2.686,0.106-3.971,0.155L-21.21-94.277z" fill="#FFFFFF" /><path style="" d="M-15.051-96.412c-0.043-0.105-0.079-0.174-0.079-0.174c-0.822,0.052-9.028,0.359-9.028,0.359c-0.29,0.075-0.449,0.212-0.53,0.377C-22.782-95.785-19.598-95.839-15.051-96.412z" fill="#7E7E7E" /></g><g><path style="" d="M15.904-113.132c0,0,4.376-1.801,4.813-1.998c0,0,0.406,0.782,0.021,1.406c0,0-2.526,1.513-4.793,2.028C15.945-111.696,15.233-112.632,15.904-113.132z" fill="#B2B2B2" /><path style="" d="M17.583-112.205c0.8-0.305,1.544-0.658,2.11-0.948l-0.145-1.485c-0.642,0.267-1.432,0.594-2.117,0.876L17.583-112.205z" fill="#FFFFFF" /><path style="" d="M20.769-115.012c-0.029-0.072-0.051-0.118-0.051-0.118c-0.437,0.197-4.813,1.998-4.813,1.998c-0.151,0.113-0.23,0.248-0.264,0.389C16.663-113.057,18.365-113.706,20.769-115.012z" fill="#7E7E7E" /></g></g></g><g transform="translate(0, -27) scale(0.7)" preserveAspectRatio="none"><g><g><g><path style="" d="M-45.846-129.027c-2.939-3.461-3.925-8.876-2.639-14.486c1.145-4.993,4.557-10.583,10.703-11.3c3.489-0.409,6.979,1.477,8.124,4.382l-0.232,0.092c-1.105-2.803-4.481-4.618-7.862-4.226c-6.017,0.702-9.363,6.198-10.488,11.107c-1.269,5.533-0.302,10.867,2.585,14.268L-45.846-129.027z" fill="#1E1E1E" /></g><g><path style="" d="M-36.697-104.888c-4.407-4.512-6.16-11.354-4.466-17.429l0.241,0.067c-1.67,5.991,0.058,12.737,4.403,17.187L-36.697-104.888z" fill="#1E1E1E" /></g><g><path style="" d="M-46.578-139.303c-1.341-5.22,0.926-12.022,6.928-13.91c2.845-0.893,6.026-0.445,8.512,1.202l-0.138,0.208c-2.423-1.605-5.527-2.043-8.299-1.172c-5.862,1.844-8.073,8.5-6.761,13.609L-46.578-139.303z" fill="#1E1E1E" /></g><g><path style="" d="M-38.888-117.755c-3.856,0-6.562-3.293-7.863-5.322c-2.632-4.105-3.011-10.137-0.902-14.341l0.224,0.112c-2.072,4.131-1.698,10.058,0.889,14.094c1.333,2.079,4.167,5.513,8.196,5.184c1.595-0.132,3.139-0.781,4.349-1.829l0.164,0.189c-1.25,1.082-2.845,1.752-4.492,1.889C-38.515-117.763-38.703-117.755-38.888-117.755z" fill="#1E1E1E" /></g><g><path style="" d="M-38.127-77.822c-0.779-8.439-0.821-17.036-0.862-25.35c-0.015-3.017-0.03-6.136-0.081-9.203l-0.173-10.551l0.25-0.004l0.173,10.551c0.05,3.068,0.066,6.188,0.081,9.206c0.041,8.309,0.083,16.9,0.861,25.328L-38.127-77.822z" fill="#1E1E1E" /></g><path style="" d="M-23.357-145.668c-0.043-1.614-0.694-3.164-1.591-4.506c-1.299-1.943-2.728-3.866-5.739-5.227c-1.133-0.512-2.191-0.559-3.255,0.085c1.248-0.626,2.816-0.025,3.916,0.835c0.854,0.667,1.61,1.54,2.131,2.492c0.234,0.427,0.281,0.925,0.489,1.339c0.476,0.946,1.553,1.346,2.229,2.102c0.38,0.425,0.725,0.882,1.03,1.365C-23.914-146.816-23.369-146.113-23.357-145.668z" fill="#1E1E1E" /><path style="" d="M-43.352-124.519c-1.873,0.131-3.788-0.558-5.148-1.852c-1.36-1.293-2.111-3.098-2.075-4.975c-0.648,2.054,0.162,4.39,1.699,5.9c1.536,1.509,3.688,2.268,5.832,2.48C-43.135-123.326-43.262-124.159-43.352-124.519z" fill="#1E1E1E" /></g><g><path style="" d="M-39.653-67.642c1.775-18.943,2.616-36.551,0.463-54.71c1.09-1.12,2.835-1.847,4.312-1.335c4.064,14.88,0.399,41.046-3.683,50.913C-38.756-71.057-39.243-68.698-39.653-67.642z" fill="#1E1E1E" /><path style="" d="M-36.06-125.261c1.925,9.808,1.447,20.039,0.507,29.989c-0.683,7.234-1.76,20.384-3.202,22.082c1.586-13.763,2.754-33.008,0.472-51.771C-37.556-124.805-36.802-125.264-36.06-125.261z" fill="#323232" /><path style="" d="M-34.121-92.783c0.434-8.065-0.01-14.214,0.313-21.313C-32.939-106.878-32.988-99.964-34.121-92.783z" fill="#323232" /><path style="" d="M-36.918-85.655c1.859-9.641,2.368-18.737,1.018-28.462C-35.7-104.295-36.315-95.461-36.918-85.655z" fill="#464646" /></g><g><path style="" d="M-39.462-118.764c0.728,1.535,4.319,1.957,6.708,0c3.74-3.065,6.106-8.832,5.913-13.558c2.844-2.584,4.646-6.641,4.455-10.479c-0.191-3.837-2.176-7.548-5.262-9.837c-2.038-1.046-6.889-1.617-10.795-0.343c-1.868,0.415-4.661,2.501-6.466,5.115c-3.114,4.51-4.064,10.951-3.213,16.366C-47.271-126.085-44.388-121.169-39.462-118.764z" fill="#1E1E1E" /><g><g><path style="" d="M-22.699-144.938c-0.617-1.789-1.583-3.457-2.756-4.703c0.899,2.237,1.104,4.625,0.736,7.007c-0.452-2.315-1.185-4.575-2.178-6.714c-0.425-0.915-0.911-1.827-1.648-2.515c-0.738-0.688-1.731-1.155-2.719-0.954c1.642,0.811,2.729,2.443,3.012,4.252c-1.731-2.045-3.819-4.531-6.456-5.103c-0.914,0.061-1.836,0.194-2.729,0.41c1.369,0.516,2.338,1.061,3.242,2.379c0.946,1.38,0.895,2.67,1.347,4.165c-0.731-2.416-2.586-4.576-5.255-4.557c-1.633,0.012-2.927,0.752-4.174,1.712c0.726-0.406,1.555-0.631,2.387-0.616c1.394,0.024,2.947,0.937,3.807,2.035c-3.022-1.085-6.627,0.143-8.624,2.657s-2.429,6.088-1.413,9.134c0.338,1.015,0.872,2.033,1.793,2.576c0.921,0.544,2.363,0.452,2.908-0.468c-4.478,1.032-4.035-6.98-2.831-9.245c1.373-2.584,4.717-4.108,7.507-3.227c-2.207-0.064-4.416,1.025-5.709,2.815c-1.293,1.789-1.649,4.243-0.897,6.319c-0.402-1.935,0.304-4.06,1.782-5.371c0.846-0.75,1.965-1.244,3.092-1.158c1.127,0.087,2.342,0.826,2.665,1.91c-1.104-1.443-3.767-1.394-4.948-0.382c-1.181,1.012-1.729,2.708-1.362,4.22c0.397-1.931,2.358-4.18,4.543-2.869c1.027,0.616,1.377,1.956,1.323,3.153c-0.075,1.638-0.75,3.241-1.87,4.438s-2.524,1.961-4.153,2.145c2.457,0.4,5.497-1.147,6.752-3.296c-0.453,2.379-1.982,4.533-4.078,5.746s-4.708,1.626-6.997,0.833c-0.157,0.467,0.114,0.995,0.519,1.274c0.406,0.279,0.914,0.357,1.406,0.39c3.065,0.205,6.252-1.003,8.146-3.422c-1.529,2.179-3.792,3.832-6.332,4.627c-0.897,0.281-1.941,0.513-2.697-0.046c0.052,2.095,2.869,1.994,4.226,1.603c4.942-1.424,9.141-6.358,9.811-11.118c-0.042,4.166-2.019,7.06-4.536,9.641c5.338-3.882,9.154-10.102,9.455-16.695c0.417,3.955-0.083,7.985-2.187,11.36c1.338-1.245,2.614-2.555,3.857-3.895c1.706-2.415,2.691-5.424,2.548-8.311C-22.423-143.522-22.541-144.235-22.699-144.938z" fill="#323232" /></g><path style="" d="M-45.878-133.25c-1.439-2.095-2.07-4.73-1.735-7.25c-0.278,1.438-0.762,2.726-0.533,4.173S-47.244-133.779-45.878-133.25z" fill="#323232" /><path style="" d="M-32.309-127.64c-2.045,2.591-5.15,4.319-8.43,4.691c1.528,1.17,3.708,0.873,5.27-0.251C-33.907-124.323-33.051-125.865-32.309-127.64z" fill="#323232" /><path style="" d="M-38.754-120.601c2.23-0.506,4.297-1.708,5.84-3.395c1.544-1.687,2.557-3.852,2.864-6.118c1.279,2.453,0.815,5.776-1.022,7.843C-32.91-120.204-36.168-119.62-38.754-120.601z" fill="#323232" /><path style="" d="M-40.918-137.742c0.194-0.692,0.705-1.287,1.359-1.584c0.654-0.297,1.439-0.289,2.087,0.021c0.046-0.647-0.656-1.196-1.303-1.243c-0.647-0.046-1.269,0.342-1.645,0.87C-40.796-139.15-40.824-138.384-40.918-137.742z" fill="#323232" /></g><g><path style="" d="M-45.317-141.348c0.694-2.597,2.724-4.798,5.257-5.699c-1.521-0.16-3.107,0.257-4.144,1.381C-45.241-144.542-45.598-142.851-45.317-141.348z" fill="#464646" /><path style="" d="M-36.143-140.671c0.384,2.265-0.084,4.664-1.29,6.619c1.048-0.737,1.821-1.861,2.082-3.116C-35.089-138.423-35.476-139.577-36.143-140.671z" fill="#464646" /><path style="" d="M-38.539-145.643c1.643,0.753,2.575,2.52,3.079,4.255c1.626,5.599-0.264,12.062-4.651,15.902c3.696-1.686,6.636-5.177,7.719-9.092c1.083-3.916,0.606-8.177-0.961-11.925c-0.534-1.276-1.221-2.54-2.313-3.39s-2.666-1.198-3.884-0.542c1.586,0.206,2.99,0.958,3.865,2.297c0.875,1.339,1.346,2.895,1.806,4.427C-34.912-145.181-36.764-145.914-38.539-145.643z" fill="#464646" /><path style="" d="M-33.929-151.975c3.478,6.578,4.214,14.552,1.998,21.655c2.861-2.526,4.699-6.542,4.466-10.352c-0.477,2.54-1.653,5.175-1.653,5.175c0.948-3.73,0.647-7.473,0.256-9.08C-29.608-147.647-31.328-150.179-33.929-151.975z" fill="#464646" /><path style="" d="M-27.76-132.269c1.714-4.117,1.651-10.827-0.436-16.321c2.005,2.239,3.356,5.17,3.353,8.176S-25.75-134.505-27.76-132.269z" fill="#464646" /><path style="" d="M-24.928-134.807c1.084-3.504,1.36-7.255,0.801-10.881C-22.029-142.223-22.393-137.965-24.928-134.807z" fill="#464646" /></g><g><path style="" d="M-26.302-138.122c-0.015-2.953,0.065-4.189-0.59-6.311C-25.275-142.676-25.647-140.386-26.302-138.122z" fill="#5A5A5A" /><path style="" d="M-30.898-133.229c0.948-5.615,0.387-11.477-1.61-16.81c2.397,1.887,3.341,5.23,3.401,8.28C-29.048-138.708-30.068-136.164-30.898-133.229z" fill="#5A5A5A" /><path style="" d="M-33.604-139.792c0.775-3.542,0.379-6.275-1.133-8.585c2.229,2.69,3.215,6.216,2.93,9.866s-2.412,7.766-4.869,10.48c2.581-3.433,4.255-8.845,4.083-13.603c-0.235,1.73-1.062,4.825-1.805,6.405c0.022-1.723,0.042-3.459-0.28-5.152c-0.322-1.693-1.015-3.359-2.239-4.572C-35.236-143.701-33.862-142.623-33.604-139.792z" fill="#5A5A5A" /><path style="" d="M-30.23-138.89c0.262-2.046,0.091-4.147-0.497-6.124c0.829,0.686,1.228,1.747,1.246,2.823C-29.464-141.115-29.942-139.926-30.23-138.89z" fill="#787878" /><path style="" d="M-32.656-136.738c0.313-2.488,0.195-5.029-0.348-7.477c0.533,0.484,0.786,1.112,0.952,1.812C-31.598-140.49-31.895-138.55-32.656-136.738z" fill="#787878" /></g></g><g><path style="" d="M-35.187-144.324c1.566-1.246,2.991-2.937,4.045-4.638c0.349-0.564,0.614-1.388,0.035-1.959c-0.201-0.198-0.515-0.29-0.78-0.191c-0.265,0.099-0.445,0.407-0.366,0.678c0.048,0.166,0.18,0.304,0.199,0.475c0.018,0.161-0.067,0.313-0.149,0.452c-0.426,0.727-0.846,1.242-1.383,1.869c-0.798,0.93-1.63,1.837-2.674,2.496c-0.15,0.095-0.312,0.188-0.489,0.19c-0.162,0.003-0.317-0.071-0.478-0.08c-0.514-0.029-0.537,0.79-0.249,1.012C-36.737-143.45-35.82-143.82-35.187-144.324z" fill="#7E7E7E" /><path style="" d="M-31.141-148.962c0.095-0.153,0.182-0.327,0.249-0.508c-0.364-0.197-0.764-0.308-1.183-0.344c-0.024,0.108-0.069,0.212-0.126,0.309c-0.427,0.727-0.846,1.242-1.383,1.869c-0.798,0.93-1.63,1.837-2.674,2.496c-0.046,0.029-0.095,0.053-0.143,0.079c0.059,0.055,0.118,0.111,0.175,0.164c0.226,0.211,0.49,0.508,0.77,0.767c0.094-0.061,0.185-0.125,0.271-0.193C-33.62-145.57-32.195-147.261-31.141-148.962z" fill="#B2B2B2" /><path style="" d="M-33.585-147.637c-0.089,0.103-0.18,0.204-0.27,0.306c0.257,0.342,0.479,0.703,0.676,1.079c0.638-0.715,1.217-1.477,1.729-2.254c-0.07-0.131-0.147-0.258-0.234-0.376c-0.155-0.21-0.346-0.409-0.563-0.551C-32.658-148.746-33.067-148.241-33.585-147.637z" fill="#FFFFFF" /></g><path style="" d="M-31.141-148.962c0.095-0.153,0.182-0.327,0.249-0.508c-0.364-0.197-0.764-0.308-1.183-0.344c-0.024,0.108-0.069,0.212-0.126,0.309c-0.427,0.727-0.846,1.242-1.383,1.869c-0.798,0.93-1.63,1.837-2.674,2.496c-0.046,0.029-0.095,0.053-0.143,0.079c0.059,0.055,0.118,0.111,0.175,0.164c0.226,0.211,0.49,0.508,0.77,0.767c0.094-0.061,0.185-0.125,0.271-0.193C-33.62-145.57-32.195-147.261-31.141-148.962z" fill="none" /><g><path style="" d="M-37.089-130.486c0.013,0.023,0.027,0.045,0.041,0.067c0.343,0.528,0.914,0.859,1.487,1.121c1.014,0.464,3.937,1.561,4.205-0.346c0.031-0.22,0.034-0.461-0.089-0.647c-0.123-0.185-0.414-0.27-0.573-0.114c0.011,0.202-0.068,0.408-0.212,0.55c-0.24,0.237-0.659,0.255-0.974,0.192c-0.757-0.152-1.494-0.402-2.188-0.741c-0.237-0.116-0.473-0.245-0.656-0.435s-0.31-0.45-0.284-0.712c0.014-0.147,0.074-0.286,0.111-0.429c0.036-0.144,0.046-0.305-0.033-0.431c-0.307-0.487-0.809,0.268-0.932,0.531C-37.395-131.438-37.331-130.903-37.089-130.486z" fill="#7E7E7E" /><path style="" d="M-35.561-129.298c0.532,0.243,1.589,0.658,2.513,0.724c0.3-0.32,0.492-0.717,0.548-1.125c-0.223,0.079-0.488,0.08-0.705,0.036c-0.757-0.152-1.495-0.402-2.188-0.741c-0.237-0.116-0.473-0.245-0.656-0.435c0,0-0.001-0.001-0.001-0.001c-0.234,0.256-0.501,0.479-0.783,0.682C-36.492-129.781-36.03-129.513-35.561-129.298z" fill="#B2B2B2" /><path style="" d="M-33.205-129.663c-0.702-0.141-1.383-0.374-2.032-0.677c-0.039,0.052-0.068,0.111-0.109,0.162c-0.159,0.199-0.464,0.428-0.654,0.66c0.144,0.079,0.291,0.152,0.439,0.22c0.433,0.198,1.214,0.51,1.988,0.656c0.287-0.299,0.537-0.633,0.736-0.997C-32.964-129.634-33.091-129.64-33.205-129.663z" fill="#FFFFFF" /></g><g><path style="" d="M-34.531-124.668c-0.841-0.009-1.779-0.567-2.469-1.012c-0.776-0.5-1.489-1.118-2.028-1.871c-0.318-0.445-0.531-0.987-0.48-1.531c0.051-0.544,0.409-1.076,0.933-1.23c0.198-0.058,0.46-0.033,0.544,0.156c0.193,0.438-0.622,0.892-0.424,1.469c0.088,0.257,0.272,0.468,0.456,0.668c0.604,0.655,1.291,1.241,2.056,1.7c0.505,0.303,1.367,0.998,1.94,0.468c0.115-0.107,0.211-0.256,0.366-0.285c0.382-0.072,0.396,0.554,0.305,0.775C-33.518-124.908-34.04-124.662-34.531-124.668z" fill="#7E7E7E" /><path style="" d="M-39.028-127.551c0.539,0.754,1.252,1.371,2.029,1.871c0.588,0.379,1.354,0.819,2.089,0.953c0.177-0.288,0.307-0.605,0.403-0.935c-0.5-0.004-1.064-0.435-1.435-0.658c-0.765-0.459-1.452-1.045-2.056-1.7c-0.184-0.2-0.368-0.411-0.456-0.667c-0.002-0.007-0.001-0.013-0.003-0.02c-0.299,0.157-0.602,0.347-0.891,0.563C-39.264-127.935-39.159-127.733-39.028-127.551z" fill="#B2B2B2" /><path style="" d="M-35.943-126.319c-0.509-0.306-0.97-0.682-1.409-1.082c-0.267,0.278-0.533,0.555-0.798,0.835c0.356,0.329,0.743,0.625,1.15,0.887c0.253,0.163,0.545,0.335,0.847,0.496c0.242-0.248,0.485-0.498,0.694-0.775c0.01-0.013,0.018-0.027,0.028-0.04C-35.62-126.113-35.797-126.232-35.943-126.319z" fill="#FFFFFF" /></g><path style="" d="M-36.826-120.991c3.139-1.307,5.681-3.983,6.825-7.185c-0.007,1.836-0.783,3.478-2.013,4.841C-33.244-121.972-35.001-121.186-36.826-120.991z" fill="#464646" /><path style="" d="M-33.825-121.104c1.571-0.919,2.858-2.317,3.644-3.959c0.096,0.95-0.281,1.694-0.874,2.442C-31.648-121.873-32.878-121.227-33.825-121.104z" fill="#464646" /><g><g><path style="" d="M-44.941-116.891c-0.353,7.979-0.188,14.73,2.029,21.748c-2.143-13.769,0.224-30.765,0.986-33.096c0.762-2.33,1.957-5.141,3.737-6.828c1.035-0.981,2.377-2.632,0.544-3.316c-0.762-0.284-1.627-0.053-2.377,0.261c-2.515,1.054-4.187,3.441-5.5,5.831c-2.684,4.889-4.162,11.877-4.359,18.186c-0.211,6.754-0.041,13.586,0.658,20.307c0.917,8.804,1.779,16.467,5.345,26.533c-0.113-1.158-0.226-2.702-0.339-3.86c0.944,3.363,2.886,8.228,4.48,9.429c-4.934-8.305-5.94-18.69-6.139-28.348C-46.059-98.998-46.651-106.581-44.941-116.891z" fill="#1E1E1E" /><path style="" d="M-38.727-137.198c-1.109,0.512-1.958,1.453-2.7,2.424c-4.098,5.367-5.774,12.19-6.663,18.883c-1.542,11.611-0.955,23.752,0.649,35.428c0.771,4.109,1.855,8.377,3.563,13.199c-0.113-1.158-0.226-2.702-0.339-3.86c0.016,0.057-0.231-2.799-0.373-4.286c-0.886-4.827-1.186-9.82-1.285-14.633c-0.184-8.955-0.777-16.538,0.934-26.848c-0.353,7.979-0.188,14.73,2.029,21.748c-2.143-13.769,0.224-30.765,0.986-33.096c0.762-2.33,1.957-5.141,3.737-6.828c0.717-0.68,1.581-1.681,1.433-2.46C-37.465-137.575-38.215-137.435-38.727-137.198z" fill="#323232" /><path style="" d="M-49.566-105.233c-1.104-7.952,0.165-16.929,2.801-23.922C-48.372-121.934-49.288-112.625-49.566-105.233z" fill="#323232" /><path style="" d="M-44.054-107.874c0.228-3.157,0.456-6.315,0.684-9.472c0.261-3.612,0.524-7.239,1.298-10.776c0.345-1.575,0.795-3.139,1.53-4.574c0.735-1.435,1.771-2.742,3.121-3.624c-2.824,0.738-4.539,3.596-5.444,6.173c-1.053,2.997-2.021,7.404-2.74,9.044c0.25-3.479,0.993-6.475,1.981-9.463c-2.221,3.152-3.028,7.468-3.45,11.301c-0.998,9.053-1.3,18.114-0.706,27.23c0.257,3.94,0.769,7.873,1.614,11.734c-0.228-1.04-0.084-2.311-0.124-3.378c-0.044-1.171-0.419-7.683-0.374-10.392c0.033-1.972,0.72-21.061,2.304-28.129C-44.528-118.905-44.44-110.473-44.054-107.874z" fill="#464646" /><path style="" d="M-44.097-113.693c-0.343-3.756-0.268-7.247,0.187-10.834c0.406-3.201,1.224-7.59,3.681-9.89C-42.735-129.155-43.539-123.083-44.097-113.693z" fill="#5A5A5A" /><path style="" d="M-47.423-92.937c-1.085-9.204-0.563-18.596,1.536-27.623C-46.883-111.35-47.484-102.2-47.423-92.937z" fill="#5A5A5A" /></g><g><path style="" d="M-48.1-85.228c-0.328,0.061-0.795,0.067-0.695,0.477c0.074,0.305,0.597,0.513,0.869,0.531c0.375,0.024,0.742-0.111,1.086-0.263c0.464-0.205,1.073-0.606,1.265-1.099c0.384-0.983-0.6-0.601-1.026-0.242c-0.398,0.336-0.926,0.464-1.434,0.582C-48.055-85.237-48.077-85.232-48.1-85.228z" fill="#B2B2B2" /><path style="" d="M-47.88-85.279c0.06,0.356,0.162,0.72,0.274,1.042c0.264-0.039,0.521-0.137,0.767-0.246c0.254-0.112,0.546-0.287,0.795-0.5c-0.048-0.356-0.133-0.706-0.239-1.049c-0.117,0.063-0.229,0.135-0.316,0.209C-46.958-85.521-47.421-85.389-47.88-85.279z" fill="#FFFFFF" /></g><g><path style="" d="M-47.626-82.769c-0.317,0.105-0.779,0.173-0.625,0.566c0.115,0.293,0.661,0.429,0.933,0.41c0.375-0.026,0.72-0.21,1.041-0.406c0.432-0.265,0.982-0.744,1.107-1.258c0.248-1.025-0.675-0.515-1.049-0.102c-0.349,0.386-0.856,0.584-1.343,0.769C-47.583-82.783-47.604-82.776-47.626-82.769z" fill="#B2B2B2" /><path style="" d="M-47.415-82.849c0.108,0.345,0.257,0.691,0.411,0.996c0.256-0.074,0.498-0.206,0.727-0.346c0.237-0.145,0.503-0.358,0.721-0.602c-0.095-0.346-0.226-0.682-0.378-1.007c-0.108,0.079-0.209,0.165-0.286,0.249C-46.534-83.213-46.975-83.019-47.415-82.849z" fill="#FFFFFF" /></g></g></g></g><g /><g /><g transform="translate(0, -27) scale(0.7)" preserveAspectRatio="none"><g><path style="" d="M-20.098-57.839c-0.512-2.362-0.431-3.917-0.938-6.28c-1.724-8.041-2.529-17.143-2.636-25.525c-0.11,0.016-0.221,0.027-0.331,0.044C-23.953-78.493-22.446-67.231-20.098-57.839z" fill="#1E1E1E" /><path style="" d="M-13.073-81.334c0.351,8.123,1.472,17.149,5.878,23.982c-1.473-6.578-2.128-19.744-2.36-30.877c-0.097-0.038-0.317-0.122-0.414-0.159c-1.113-0.249-2.307-0.577-3.55-1.009C-13.347-86.719-13.191-84.061-13.073-81.334z" fill="#323232" /><path style="" d="M-22.805-89.753c0.185,2.195,0.385,4.612,0.586,7.752c0.575,9.004,1.342,21.052,2.114,29.945c0.804,9.267,3.22,15.679,6.853,22.532c-1.096-7.675-1.622-15.822-2.221-23.551c-0.567-7.318-0.43-16.443-0.237-23.792c0.117-4.46,0.219-8.589,0.326-12.839c-0.268-0.035-0.657-0.088-0.926-0.116C-18.53-89.644-20.613-89.564-22.805-89.753z" fill="#323232" /><path style="" d="M-13.073-81.334c0.123,2.846,0.05,6.079,0.881,8.814c0.366,1.204,0.544,2.425,0.812,3.667c0.296,1.371,0.87,2.699,1.143,4.062c-1.259-6.291-1.879-13.795-1.862-20.21c0.865,5.821,1.759,13.668,3.456,18.77c-0.442-7.385-0.884-14.771-1.327-22.156c-1.146-0.423-2.333-0.76-3.552-1.009C-13.348-86.711-13.189-84.023-13.073-81.334z" fill="#464646" /><path style="" d="M-22.805-89.753c0.185,2.195,0.385,4.612,0.586,7.752c0.575,9.004,1.342,21.052,2.114,29.945c0.804,9.267,3.22,15.679,6.853,22.532c-1.096-7.675-1.622-15.822-2.221-23.551c-0.499-6.443-0.073-12.897-0.362-19.312c-0.261-5.808-0.404-11.621-0.476-17.434c-0.409-0.04-0.943-0.077-1.355-0.1c-1.602,0.111-2.721,0.168-4.344,0.089C-22.24-89.813-22.575-89.78-22.805-89.753z" fill="#464646" /><path style="" d="M-11.059-81.566c0.258,2.234,0.569,4.461,0.95,6.679c-0.133-4.566-0.266-9.132-0.399-13.698c-0.408-0.235-0.78-0.379-1.216-0.379C-11.547-86.494-11.342-84.025-11.059-81.566z" fill="#5A5A5A" /><path style="" d="M-17.666-89.923c-1.439-0.075-2.894-0.04-4.344,0.089c0.094,1.752,0.204,3.502,0.337,5.248c0.521,6.808,0.018,11.352,1.229,20.734c-0.04-7.147,0.207-13.272,0.554-19.739c0.981,6.208,1.004,12.509,1.661,18.754c0.663,6.3,1.68,12.561,3.001,18.756c-0.765-11.611-1.819-23.246-2.219-34.874C-17.549-83.944-17.614-86.933-17.666-89.923z" fill="#5A5A5A" /><path style="" d="M-18.066-89.938c-0.131-0.046-0.219-0.123-0.438-0.01c0.177,1.527,0.327,2.43,0.352,2.446C-18.109-88.319-18.097-89.125-18.066-89.938z" fill="#787878" /><path style="" d="M-21.288-85.293c0.107-1.318,0.185-2.891,0.219-4.614c-0.224-0.077-0.551-0.077-0.864,0.067C-21.72-88.094-21.491-86.533-21.288-85.293z" fill="#787878" /></path></g></svg>
