<svg xmlns:xlink="http://www.w3.org/1999/xlink" xmlns="http://www.w3.org/2000/svg" viewBox="-40.94377899169922 -146.29818725585938 68.82828521728516 163.4471893310547" preserveAspectRatio="xMidYMid meet" width="300"  height="400" >
            <g transform="translate(0, -27) scale(0.7)" preserveAspectRatio="none">
  <path style="" d="M12.653-94.083c2.625,0.717,4.755,0.214,5.604-3.422 c0.387-1.662,0.102-4.909-0.321-6.324c-0.375-1.254-2.575-2.234-4.415-1.41c-1.458,0.652-2.413,3.297-2.626,4.333 C10.232-97.7,11.03-94.526,12.653-94.083z" fill="#FAA3B9" fill-opacity="0.3" /><path style="" d="M12.256-98.526c0.583,2.468,3.584,2.886,4.6,1.661 c1.063-1.28,2.001-7.24-1.028-7.709c-1.009-0.157-2.047,0.197-2.439,0.662C12.171-102.48,11.859-100.205,12.256-98.526z" fill="#FAA3B9" fill-opacity="0.3" /><path style="" d="M15.34-101.514c1.452-0.538,0.292-2.776-0.974-2.167 C13.104-103.071,13.929-100.991,15.34-101.514z" fill="#FFFFFF" fill-opacity="0.5" /></g><g><path style="" d="M-10.161-92.654c4.481,0.702,6.979-0.367,7.646-4.052 c0.305-1.684,0.095-4.423-0.891-5.851c-0.872-1.265-4.704-2.237-7.575-1.388c-2.277,0.673-3.32,3.356-3.464,4.406 C-14.89-96.292-12.929-93.088-10.161-92.654z" fill="#FAA3B9" fill-opacity="0.3" /><path style="" d="M-11.714-97.145c1.462,2.491,4.928,2.658,6.634,1.557 c0.994-0.642,1.453-2.395,1.562-3.572c0.098-1.041,0.17-3.817-3.518-4.133c-1.699-0.145-3.341,0.217-3.896,0.69 C-12.652-101.143-12.708-98.838-11.714-97.145z" fill="#FAA3B9" fill-opacity="0.3" /><path style="" d="M-7.915-100.321c1.577-0.463,0.489-2.787-0.896-2.241 C-10.191-102.016-9.448-99.871-7.915-100.321z" fill="#FFFFFF" fill-opacity="0.5" /></g><g /><g /></svg>
