<?xml version='1.0' encoding='utf-8'?>
<svg xmlns:xlink="http://www.w3.org/1999/xlink" xmlns="http://www.w3.org/2000/svg" viewBox="-40.94377899169922 -146.29818725585938 68.82828521728516 163.4471893310547" preserveAspectRatio="xMidYMid meet" width="300"  height="400" ><g transform="translate(0, -27) scale(0.7)" preserveAspectRatio="none"><g /><g /><g><g /><g /></g><g><path style="" d="M1.242-102.483c-0.098-0.214-0.199-0.435-0.372-0.595s-0.435-0.249-0.649-0.151c-0.15,0.069-0.251,0.214-0.321,0.364c-0.289,0.621-0.135,1.656,0.469,2.051c0.18,0.118,0.392,0.179,0.604,0.213c0.162,0.026,0.333,0.036,0.487-0.023s0.285-0.202,0.285-0.366" fill="#FCFCFC" fill-opacity="0.3" /><path style="" d="M1.634-106.338c-0.123,0.077-0.246,0.157-0.367,0.239c-0.48,0.327-0.978,0.783-0.959,1.364c0.005,0.147,0.044,0.29,0.094,0.428c0.297,0.822,1.128,1.77,1.88,2.208c1.509,0.88,3.28,1.092,4.917,0.36c0.72-0.322,1.165-0.996,1.325-1.727c0.349-1.597-0.92-3.821-2.568-4.215c-0.577-0.138-1.185-0.016-1.753,0.157C3.297-107.248,2.438-106.837,1.634-106.338z" fill="#F1B2AA" fill-opacity="0.2" /><path style="" d="M2.008-105.975c-0.205,0.158-0.391,0.337-0.545,0.545c-0.508,0.684-0.435,1.381-0.1,2.11c0.259,0.564,0.619,0.931,1.156,1.26c1.362,0.835,2.961,1.037,4.439,0.342c0.65-0.306,1.052-0.945,1.196-1.64c0.124-0.596,0.054-1.223-0.149-1.797c-0.294-0.83-1.087-1.786-1.952-2.044c-0.522-0.155-1.084-0.057-1.608,0.09c-0.557,0.157-1.099,0.367-1.616,0.628C2.543-106.333,2.261-106.17,2.008-105.975z" fill="#F1B2AA" fill-opacity="0.2" /><path style="opacity: 0.2;" d="M2.453-105.454c-0.058,0.043-0.113,0.088-0.167,0.134c-0.308,0.264-0.55,0.633-0.571,1.038c-0.025,0.469,0.238,0.899,0.492,1.294c0.196,0.305,0.324,0.646,0.594,0.882c0.33,0.288,0.846,0.472,1.26,0.591c0.899,0.259,1.861,0.195,2.709-0.205c0.561-0.264,0.908-0.816,1.032-1.415c0.107-0.514,0.047-1.055-0.128-1.55C6.905-106.858,3.99-106.613,2.453-105.454z" fill="#F1B2AA" /><path style="" d="M3.24-105.44c-0.017,0.015-0.033,0.03-0.049,0.046c-1.083,1.042-0.676,2.575,0.512,3.303c1.151,0.706,2.503,0.877,3.751,0.289c0.549-0.258,0.889-0.799,1.011-1.386c0.105-0.503,0.046-1.034-0.126-1.518c-0.625-1.765-2.969-1.97-4.415-1.187C3.684-105.762,3.444-105.623,3.24-105.44z" fill="#F1B2AA" fill-opacity="0.25" /><path style="" d="M3.663-105.155c-0.014,0.012-0.027,0.025-0.04,0.037c-0.884,0.851-0.552,2.101,0.418,2.696c0.94,0.576,2.042,0.715,3.062,0.236c0.448-0.211,0.726-0.652,0.825-1.131c0.085-0.411,0.037-0.843-0.103-1.239c-0.51-1.441-2.423-1.607-3.603-0.968C4.025-105.417,3.829-105.304,3.663-105.155z" fill="#F1B2AA" fill-opacity="0.3" /><path style="" d="M4.03-104.906c-0.011,0.01-0.022,0.02-0.032,0.03c-0.711,0.684-0.444,1.69,0.336,2.168c0.756,0.463,1.642,0.575,2.462,0.19c0.36-0.169,0.583-0.524,0.664-0.909c0.069-0.33,0.03-0.678-0.082-0.996c-0.41-1.159-1.948-1.293-2.897-0.779C4.322-105.117,4.164-105.026,4.03-104.906z" fill="#F1B2AA" fill-opacity="0.4" /><path style="" d="M3.916-104.411c-0.011,0.01-0.022,0.02-0.032,0.03c-0.711,0.684-0.444,1.69,0.336,2.168c0.756,0.463,1.642,0.575,2.462,0.19c0.36-0.169,0.583-0.524,0.664-0.909c0.069-0.33,0.03-0.678-0.082-0.996c-0.41-1.159-1.948-1.293-2.897-0.779C4.207-104.622,4.05-104.531,3.916-104.411z" fill="#F1B2AA" fill-opacity="0.5" /><path style="" d="M4.331-104.22c-0.009,0.008-0.017,0.015-0.025,0.023c-0.551,0.53-0.344,1.31,0.261,1.681c0.586,0.359,1.273,0.446,1.909,0.147c0.279-0.131,0.452-0.407,0.514-0.705c0.053-0.256,0.023-0.526-0.064-0.773c-0.318-0.898-1.511-1.002-2.246-0.604C4.557-104.383,4.435-104.313,4.331-104.22z" fill="#F1B2AA" /><g><path style="" d="M2.48-101.884c-0.724,0.11-1.047,0.816-0.178,0.828c0.245,0.003,0.493-0.062,0.736-0.121c0.243-0.059,0.497-0.115,0.736-0.091c0.139,0.014,0.265,0.053,0.386,0.098c0.092,0.034,0.218,0.066,0.302,0.007c0.088-0.062,0.037-0.159-0.027-0.221C4.029-101.777,3.211-101.995,2.48-101.884z" fill="#B37E78" fill-opacity="0.5" /><path style="" d="M2.702-101.869c-0.347,0.053-0.7,0.291-0.598,0.471c0.082,0.147,0.396,0.175,0.675,0.164c0.141-0.005,1.196-0.311,1.212-0.291C3.762-101.788,3.278-101.956,2.702-101.869z" fill="#B37E78" /></g><g><path style="" d="M7.8-101.883c0.136,0.022,0.271,0.085,0.359,0.195c0.054,0.068,0.081,0.167,0.042,0.245c-0.015,0.031-0.039,0.056-0.063,0.08c-0.26,0.253-0.485,0.29-0.81,0.196c-0.237-0.069-0.466-0.085-0.699,0.021c-0.08,0.037-0.17,0.088-0.251,0.054c-0.01-0.004-0.019-0.01-0.023-0.019c-0.005-0.012,0.002-0.026,0.008-0.037C6.665-101.688,7.176-101.985,7.8-101.883z" fill="#B37E78" fill-opacity="0.5" /><path style="" d="M7.624-101.86c0.256,0.042,0.502,0.265,0.413,0.445c-0.072,0.147-0.309,0.183-0.516,0.181c-0.105-0.001-0.871-0.27-0.885-0.251C6.827-101.75,7.2-101.93,7.624-101.86z" fill="#B37E78" /></g><path style="" d="M5.15-102.869c-0.01-0.151,0.12-0.278,0.254-0.365c0.164-0.107,0.359-0.189,0.561-0.179c0.201,0.01,0.405,0.131,0.449,0.312C6.596-102.358,5.195-102.181,5.15-102.869z" fill="#FCFCFC" fill-opacity="0.7" /><path style="" d="M2.41-99.352c-0.042,0.359,0.016,0.678,0.235,0.89c0.777,0.753,1.745-0.412,1.31-1.221c-0.443-0.829-0.282-1.139-0.302-2.065C3.233-101.379,2.514-100.242,2.41-99.352z" fill="#C92739" /><path style="" d="M3.141-99.2c0.151-0.325-0.151-0.819-0.38-0.299C2.61-99.155,2.951-98.792,3.141-99.2z" fill="#F45B6B" /></g><g /><g /></svg>