<svg xmlns:xlink="http://www.w3.org/1999/xlink" xmlns="http://www.w3.org/2000/svg" viewBox="-40.94377899169922 -146.29818725585938 68.82828521728516 163.4471893310547" preserveAspectRatio="xMidYMid meet" width="300"  height="400" >
            <g transform="translate(0, -27) scale(0.7)" preserveAspectRatio="none"><path style="" d="M4.413-155.922v1.5V-155.922c-2.101,0-4.178,0.24-6.187,0.473c-1.918,0.222-3.729,0.432-5.476,0.432 c-0.25,0-0.498-0.004-0.746-0.014c-1.706-0.021-3.233-0.061-4.642-0.098c-1.581-0.042-3.074-0.081-4.42-0.081 c-4.123,0-7.256,0.355-10.129,2.123c-4.996,3.074-9.842,7.739-11.613,20.778c-3.103,0.644-5.169,3.422-5.878,7.97 c-0.711,4.561,0.692,8.462,1.929,11.905l0.256,0.713c0.506,1.422,2.002,2.169,3.321,2.829c0.426,0.213,0.932,0.466,1.25,0.681 c1.311,3.705,6.58,11.361,10.835,14.034c3.994,2.509,15.384,6.222,22.189,8.441c1.81,0.59,3.24,1.056,3.879,1.292 c7.953,2.927,14.055,4.999,20.182,4.999c3.632,0,7.114-0.75,10.647-2.293c2.339-1.021,7.047-6.077,7.197-9.769l0.005-0.125 l-0.016-0.124c-0.291-2.296-0.743-5.321-1.221-8.523c-1.011-6.765-2.154-14.411-2.429-19.319c1.395-3.009,3.98-9.836,1.948-15.572 c-0.974-2.748-2.857-4.855-5.602-6.271c-0.447-0.891-0.729-2.173-0.982-3.321c-0.163-0.738-0.316-1.435-0.513-2.074 c-1.158-3.761-5.875-7.809-13.493-7.809c-0.887,0-1.804,0.056-2.731,0.166C9.74-155.463,7.323-155.922,4.413-155.922L4.413-155.922 z" fill="#18181A" /><path style="" d="M35.509-91.569c-0.899-7.115-3.328-21.026-3.68-28.328c2.848-5.946,5.462-16.29-3.213-20.404 c-1.039-1.634-1.301-4.305-1.852-6.094c-1.119-3.635-6.364-7.724-15.024-6.543c-6.536-3.09-13.548-0.357-19.794-0.594 c-9.211-0.11-14.195-0.832-18.348,1.723c-4.926,3.031-9.514,7.665-11.059,20.857c-3.859,0.07-5.259,3.782-5.736,6.844 c-0.699,4.485,0.864,8.367,2.116,11.885c0.508,1.426,3.424,2.096,4.452,3.138c0.951,3.328,6.298,11.101,10.339,13.639 c4.946,3.107,22.82,8.502,25.789,9.595c12.003,4.417,19.993,6.983,29.71,2.739C31.185-83.975,35.391-88.645,35.509-91.569z" fill="#FFFFFF" /><path style="fill-rule: evenodd; clip-rule: evenodd;" d="M19.932-137.731c-0.588,2.435-4.021,2.024-6.166,2.901 c-2.321,0.581-4.79,1.013-5.803,2.901c-0.263,1.109,0.626,1.067,0.363,2.176c1.872,2.721,5.45,3.738,7.616,6.166 c1.41,0.283,2.762,0.624,3.627,1.451c-0.904,0.762-2.598-0.771-3.627-1.088c-1.626-0.411-1.619,1.901-2.901,0.726 c-1.962,1.182-2.269,4.018-4.352,5.078c-2.354,0.363-4.226-0.67-3.264-2.539c3.517,1.371,4.841-1.692,5.44-4.352 c-0.384-1.792-2.729-1.622-3.626-2.901c-0.536-1.398-0.72-3.148-1.088-4.715c-0.395-1.418-3-0.625-2.901-2.539 c0.807-0.282,1.415-0.762,2.539-0.726c0.881-0.716,2.387-2.077,3.626-3.264c0.707-0.677,5.736-1.849,7.616-1.451 C18.078-139.686,19.362-138.729,19.932-137.731z" fill="#18181A" /><path style="fill-rule: evenodd; clip-rule: evenodd;" d="M15.581-138.054c-0.518-0.134-1.169,0.006-1.631-0.141 c-0.034,0.472-0.083,0.85-0.181,1.275c0.884,0,2.347-0.824,2.423-0.701C16.04-137.865,15.825-137.99,15.581-138.054z" fill="#FFFFFF" /><path style="fill-rule: evenodd; clip-rule: evenodd;" d="M-13.434-139.182c-4.862,0.94-9.628,1.977-9.792,7.616 c3.035,1.149,5.495-0.895,8.341-1.088c2.274-0.034,4.08,0.399,5.728,0.992c0.064-0.735,0.087-1.48,0.095-2.283 c-0.88-0.344-1.822-0.643-2.921-0.523c0.003-0.963-0.137-2.071,0.363-2.539c3.095,0.29,5.665,1.104,6.528,3.626 c-1.402,0.609-2.611-0.033-3.969-0.565c-0.008,0.802-0.031,1.548-0.095,2.283c1.286,0.463,2.478,1.021,3.702,1.547 c0.8-1.255,2.461-1.649,2.901-3.265C-3.698-137.796-8.238-138.817-13.434-139.182z" fill="#18181A" /><path style="fill-rule: evenodd; clip-rule: evenodd;" d="M-20.688-133.016c-0.906-0.469,0.383-1.759,1.451-1.451 C-18.968-133.232-20.573-133.87-20.688-133.016z" fill="#FFFFFF" /><path style="fill-rule: evenodd; clip-rule: evenodd;" d="M28.999-122.862c1.145-1.273,2.736-2.1,3.989-3.264 c0.266-1.918,0.736-4.713,0-6.528c-1.165-2.462-3.506-3.747-5.803-5.077c-1.938-0.015-4.375,1.035-5.803,0.362 c1.698-0.841,4.338-0.74,6.891-0.726c1.732,1.412,3.857,2.429,5.078,4.353c0.688,2.449,0.307,5.807,0,8.341 C31.82-124.634,31.195-122.962,28.999-122.862z" fill="#18181A" /><path style="fill-rule: evenodd; clip-rule: evenodd;" d="M27.548-135.555c3.918,0.622,5.114,7.407,2.176,9.792 c-1.005-0.796,1.149-1.486,1.088-2.539c0.104-1.916-0.02-3.606-0.725-4.714C29.837-134.459,27.563-133.878,27.548-135.555z" fill="#18181A" /><path style="fill-rule: evenodd; clip-rule: evenodd;" d="M28.999-130.84c-2.004,0.07-2.87-0.999-5.077-0.725 c-1.592,0.342-1.803,2.065-2.539,3.264c-2.498,0.335-5.649,0.72-5.803-2.176c0.842-0.799,2.059,0.072,2.901,0.363 c1.871-0.668,2.58-2.498,4.352-3.265c1.177,0.21,1.687-0.247,2.539-0.362C27.024-133.219,29.351-133.369,28.999-130.84z" fill="#666666" /><path style="fill-rule: evenodd; clip-rule: evenodd;" d="M-13.797-131.565c0.009,3.756-2.831,4.665-5.44,5.802 c-1.572,0-3.143,0-4.714,0c-2.879-0.385-4.162-2.366-7.616-2.176c-0.651-0.046-0.765,0.444-1.451,0.362 c-1.869,0.67-2.692,2.386-3.627,3.99c-0.59,3.491,1.217,4.584,1.088,7.616c0.264,1.192-0.721,0.555-0.725,0 c-0.476-0.128-0.571-0.639-1.088-0.726c-0.617-0.713-0.417-2.243-1.088-2.901c0-1.451,0-2.901,0-4.352 c0.752-1.787,1.631-3.447,2.901-4.714c0.927-0.162,1.667-0.509,2.176-1.088c5.271-1.171,7.687,2.379,13.057,2.176 c2.745-0.512,3.789-2.625,5.803-3.989C-14.356-131.678-13.98-131.48-13.797-131.565z" fill="#666666" /><path style="fill-rule: evenodd; clip-rule: evenodd;" d="M23.921-129.027c1.956,0.583,1.573,3.504,3.264,4.352 c0.606,4.523,2.302,10.727,1.813,15.958c-0.246,2.626-1.147,4.591-2.176,6.528c-7.937,5.036-22.426,6.439-34.817,4.715 c-4.823-1.946-9.604-3.937-12.693-7.616c-3.946-2.823-6.413-7.126-9.792-10.518c0.279-1.367-0.442-1.733-0.362-2.901 c-0.885-0.807-2.59-0.795-4.352-0.725c0.438-1.858,2.585-2.009,3.627-3.264c-0.022-1.352,0.366-2.294,0.725-3.264 c0.897-0.854,1.418,0.713,1.813,1.451c2.252,1.606,4.954,2.34,9.067,3.627c9.602,3.004,24.186,7.162,35.179,2.901 c3.039-0.225,4.356-2.171,6.528-3.264c0.916-1.986,2.139-3.664,1.813-6.891C23.75-128.23,23.937-128.528,23.921-129.027z" fill="#18181A" /><path style="fill-rule: evenodd; clip-rule: evenodd;" d="M25.734-121.411c0.02-0.624-0.279-0.93-0.726-1.088 C24.989-121.875,25.289-121.569,25.734-121.411z" fill="#A6A6A6" /><path style="fill-rule: evenodd; clip-rule: evenodd;" d="M-21.05-114.52c0.28-1.731-0.567-2.334-0.363-3.99 c-2.656-1.091-4.593-2.901-8.341-2.901C-29.345-116.622-25.301-115.467-21.05-114.52z" fill="#CCCCCC" /><path style="fill-rule: evenodd; clip-rule: evenodd;" d="M25.009-114.883c1.082-1.944-0.32-4.173-1.451-5.077 C23.594-117.82,23.323-115.374,25.009-114.883z" fill="#A6A6A6" /><path style="fill-rule: evenodd; clip-rule: evenodd;" d="M21.02-118.147c-0.357,0.852-1.816,0.602-1.813,1.813 c-0.44,0.465,0.309,2.816,0.725,3.627c1.141,0.174,1.418-0.517,2.176-0.726C21.947-115.206,22.632-117.826,21.02-118.147z" fill="#A6A6A6" /><path style="fill-rule: evenodd; clip-rule: evenodd;" d="M-9.082-111.256c-0.045-1.496,0.63-2.271,0.362-3.989 c-3.223-1.25-6.867-2.079-10.88-2.539C-19.247-112.455-13.58-112.44-9.082-111.256z" fill="#F2F2F2" /><path style="fill-rule: evenodd; clip-rule: evenodd;" d="M11.228-114.158c-0.159,1.247,0.143,2.033,0.363,2.901 c2.6,0.183,4.364-0.472,6.166-1.088c-0.148-1.424-0.141-3.002-1.451-3.264C14.678-115.059,12.814-114.747,11.228-114.158z" fill="#CCCCCC" /><path style="fill-rule: evenodd; clip-rule: evenodd;" d="M-7.269-110.894c1.929,1.577,6.025,0.986,9.43,1.088 c-0.063-1.63-0.289-3.098-0.726-4.353c-3.055,0.033-5.287-0.757-8.341-0.726C-6.702-113.228-7.549-112.624-7.269-110.894z" fill="#F2F2F2" /><path style="fill-rule: evenodd; clip-rule: evenodd;" d="M3.974-110.168c1.944-0.231,4.065-0.287,5.803-0.725 c0.105-1.556-0.505-2.396-1.088-3.264c-1.692,0-3.385,0-5.078,0C3.576-112.67,3.54-111.185,3.974-110.168z" fill="#F2F2F2" /><path style="fill-rule: evenodd; clip-rule: evenodd;" d="M-20.325-107.629c1.604-3.676-3.022-5.822-5.44-5.44 C-23.962-111.246-22.874-108.708-20.325-107.629z" fill="#A6A6A6" /><path style="fill-rule: evenodd; clip-rule: evenodd;" d="M-18.874-105.816c2.07,2.282,5.376,3.328,7.979,5.078 c0.651-1.95,2.04-4.475,1.088-6.891c-2.846-0.902-5.792-1.703-8.342-2.901c-0.221,0.021-0.429,0.054-0.363,0.362 C-17.323-108.838-19.237-107.524-18.874-105.816z" fill="#CCCCCC" /><path style="fill-rule: evenodd; clip-rule: evenodd;" d="M27.185-109.08c-0.1-0.101-0.55,0.175-0.362,0.362 C26.923-108.617,27.373-108.893,27.185-109.08z" fill="#A6A6A6" /><path style="fill-rule: evenodd; clip-rule: evenodd;" d="M26.097-104.728c-0.001-1.11,1.453-2.629,0.362-3.626 C26.493-107.213,25.113-105.62,26.097-104.728z" fill="#A6A6A6" /><path style="fill-rule: evenodd; clip-rule: evenodd;" d="M-8.72-100.376c2.582,1.287,6,1.737,9.792,1.813 c0.984-1.957-0.068-4.676,0-6.891c-3.391-0.116-5.722-1.29-8.704-1.814C-7.089-104.065-8.766-103.082-8.72-100.376z" fill="#F2F2F2" /><path style="fill-rule: evenodd; clip-rule: evenodd;" d="M22.107-101.827c0.9-0.793,2.676-0.709,2.901-2.176 c-2.241,0.67-0.259-2.884-1.451-3.264C22.708-106.054,21.322-103.469,22.107-101.827z" fill="#A6A6A6" /><path style="fill-rule: evenodd; clip-rule: evenodd;" d="M18.118-105.453c-0.262,1.35-1.643,4.486-0.362,5.077 c0.307-0.539,1.167-0.525,1.813-0.726c-0.257-1.345,0.62-1.556,0.363-2.901c0.331-0.281,1.491-2.337,0-2.176 C19.624-105.641,19.019-105.399,18.118-105.453z" fill="#A6A6A6" /><path style="fill-rule: evenodd; clip-rule: evenodd;" d="M2.886-104.728c-0.146,2.442,0.323,4.271,0.725,6.166 c2.307,0.251,3.497-0.614,5.803-0.363c-0.261-2.458,0.697-3.881,0-5.803C7.122-104.47,4.144-105.123,2.886-104.728z" fill="#CCCCCC" /><path style="fill-rule: evenodd; clip-rule: evenodd;" d="M11.953-104.366c-0.526,1.409-0.833,3.037-0.726,5.078 c3.722,0.574,4.911-3.305,4.352-5.803C15.077-104.143,12.501-105.267,11.953-104.366z" fill="#CCCCCC" /><path style="fill-rule: evenodd; clip-rule: evenodd;" d="M-2.554-124.675c-0.382,1.553-2.825,1.043-3.264,2.539 c-0.505,2.198,1.724,1.661,1.451,3.626c-2.921,1.5-3.988-3.26-2.901-5.803C-6.111-124.988-3.693-126.114-2.554-124.675z" fill="#666666" /><path style="fill-rule: evenodd; clip-rule: evenodd;" d="M-9.082-125.038c2.451,2.65-3.073,3.069-5.44,3.264 C-13.364-123.517-8.526-121.581-9.082-125.038z" fill="#18181A" /><path style="fill-rule: evenodd; clip-rule: evenodd;" d="M2.523-121.411c-0.455,0.996-1.962,0.94-3.264,1.088 c-1.21-0.001-1.238,1.179-2.539,1.088c-0.116-0.852-0.573-1.361-0.363-2.539C-1.628-122.383,1.136-122.957,2.523-121.411z" fill="#18181A" /><path style="fill-rule: evenodd; clip-rule: evenodd;" d="M5.062-144.984c3.429-0.44,5.586-2.15,9.792-1.813 c2.052,0.97,3.618,2.426,4.714,4.352C19.357-148.922,8.603-147.641,5.062-144.984z" fill="#18181A" /><path style="fill-rule: evenodd; clip-rule: evenodd;" d="M-4.73-140.995c-0.103-1.72-1.184-4.365-2.539-3.627 C-6.144-143.692-5.651-142.129-4.73-140.995z" fill="#18181A" /><path style="fill-rule: evenodd; clip-rule: evenodd;" d="M6.513-140.27c0.22-0.889,1.035-3.048,0.363-3.626 C6.558-143.105,5.529-141.16,6.513-140.27z" fill="#18181A" /><path style="fill-rule: evenodd; clip-rule: evenodd;" d="M-27.941-140.632c-0.579-0.839,1.342-2.271,2.176-2.901 c2.439-3.123,6.306-4.816,9.792-6.891c2.038-0.501,4.2-0.877,6.166-1.451c5.834,0.424,8.063-0.626,11.243,0 c2.169,0.427-2.786,0.345-3.99,0.363c-2.931,0.042-5.809-0.027-9.066,0.363C-18.833-149.416-23.591-145.228-27.941-140.632z" fill="#18181A" /><path style="fill-rule: evenodd; clip-rule: evenodd;" d="M17.756-149.699c-0.807-0.282-1.415-0.762-2.539-0.726 c-6.167,1.658-14.021,2.853-21.76,1.813c-4.74,0.458-9.222,1.174-11.968,3.627c-2.149,0.509-3.115,2.204-4.714,3.264 c-0.375,0.955-1.438,1.222-1.813,2.176c-0.476,0.128-0.57,0.639-1.088,0.726c-0.435,0.508-0.141,0.031,0-0.362 c0.655-0.796,1.415-1.487,1.813-2.539c3.841-3.774,8.865-6.367,15.595-7.253c7.235-0.018,14.859,0.352,20.673-1.088 c0.786-0.543,2.041-0.618,3.264-0.726C16.412-150.773,17.783-150.936,17.756-149.699z" fill="#18181A" /><path style="fill-rule: evenodd; clip-rule: evenodd;" d="M-5.818-146.073c-1.691,1.089-4.958,0.603-7.253,1.088 c-4.539,1.264-8.04,3.566-10.518,6.89c-0.505-1.003,1.553-2.546,2.176-3.626C-17.499-144.456-12.862-146.468-5.818-146.073z" fill="#18181A" /><path style="fill-rule: evenodd; clip-rule: evenodd;" d="M-25.402-133.016c1.503-0.745-2.466,1.232-0.363,1.087 c-0.152,0.807-1.924,0.284-2.176,0C-27.576-132.771-26.693-133.098-25.402-133.016z" fill="#18181A" /><path style="fill-rule: evenodd; clip-rule: evenodd;" d="M-32.293-131.565c-1.452,0.966-4.225,0.61-5.803,1.451 c-3.958,1.832-3.245,10.034-1.45,13.781c0.911,1.749,2.995,2.325,4.715,3.265c-0.925,0.427-3.185-0.915-4.352-1.451 c-1.887-2.949-2.343-7.329-2.176-12.331C-40.087-130.172-36.875-131.554-32.293-131.565z" fill="#18181A" /><path style="fill-rule: evenodd; clip-rule: evenodd;" d="M-0.378-92.397c-3.417,0.754-6.674-1.785-10.155-2.176 c-2.833-1.519-5.891-2.813-9.067-3.989c0.928-0.43,3.329,0.771,4.352,1.451c2.125,0.05,2.952,1.4,5.078,1.451 C-7.337-94.142-3.794-93.333-0.378-92.397z" fill="#18181A" /><path style="fill-rule: evenodd; clip-rule: evenodd;" d="M-23.951-98.2c-0.648,0.102-0.745-0.343-0.363-0.362 c0.292,0.191,0.589,0.378,1.088,0.362c0.231,0.736,1.695,0.239,1.813,1.088c1.522,0.292,2.352,1.274,3.99,1.451 c2.131,1.616,5.366,2.129,7.979,3.264c8.939,2.218,19.045,2.758,29.014,2.176c-0.112,0.493-0.908,0.301-1.451,0.363 c-4.233,0.481-9.061,0.369-13.781,0.362c-8.457-0.852-15.739-2.878-22.486-5.44C-19.871-96.235-22.438-96.691-23.951-98.2z" fill="#18181A" /><path style="fill-rule: evenodd; clip-rule: evenodd;" d="M26.823-98.563c0.594,1.092-1.543,2.557-2.176,3.626 c-6.04,2.906-16.271,3.554-24.662,2.901c0.362,0,0.726,0,1.088,0c0.846,0,1.693,0,2.539,0c6.027-0.864,13.403-0.378,18.496-2.176 C24.112-95.228,25.4-96.963,26.823-98.563z" fill="#18181A" /></g><g /><g /></svg>
