<svg xmlns:xlink="http://www.w3.org/1999/xlink" xmlns="http://www.w3.org/2000/svg" viewBox="-36.42499923706055 -69.19300079345703 47.71500015258789 71.42200469970703" width="406" height="325"><!---0040-00730005400078--><g><g><rect x="-29.964" y="-55.798" transform="matrix(0.8899 -0.4561 0.4561 0.8899 22.1329 -18.658)" style="" width="4.751" height="1.23" fill="#494A4A"></rect><path style="" d="M-27.423-56.731c0.576,0.767,1.824,3.375,1.824,3.375l-1.882,0.961c0,0-2.013-3.317-2.013-3.317c-0.173-0.284-1.437-0.501-1.766-0.633c-0.478-0.192-1.143-0.397-1.56-0.683c-0.096-0.066-0.189-0.173-0.158-0.285c0.021-0.08,0.097-0.13,0.168-0.173c0.273-0.165,1.613-1.189,1.911-1.035C-30.895-58.519-28.283-57.876-27.423-56.731z" fill="#A8A8A8"></path><rect x="-19.152" y="-49.556" transform="matrix(0.8901 -0.4558 0.4558 0.8901 19.9494 -13.4849)" style="" width="2.334" height="2.9" fill="#4A4C4C"></rect><path style="" d="M-16.285-47.347c0,0-0.835-0.112-1.166-0.487c-0.238-0.27,0.157-0.757,0.399-1.012l-0.033-0.064l-2.078,1.064l0.042,0.082c0.362-0.005,1.078,0.013,1.248,0.223c0.226,0.279-0.233,1.104-0.251,1.136L-16.285-47.347z" fill="#676767"></path><polygon style="" points="-4.721,-30.459 -10.125,-27.692 -8.133,-26.007 -4.518,-27.857 " fill="#B9B9B9"></polygon><path style="" d="M-18.726-52.647c-0.097,0.057-0.197,0.114-0.302,0.165c-0.595,0.293-1.191,0.586-1.786,0.878c-0.466,0.229-0.939,0.463-1.318,0.818c-0.04,0.038-0.083,0.085-0.078,0.14c0.007,0.09,0.124,0.12,0.214,0.124c1.444,0.063,2.904-0.522,3.906-1.564c0.266-0.276,0.445-0.55,0.612-0.895c0.028-0.057,0.045-0.143-0.012-0.169c-0.019-0.009-0.042-0.007-0.063-0.004C-18.018-53.099-18.355-52.865-18.726-52.647z" fill="#676767"></path><rect x="1.983" y="-13.473" transform="matrix(0.8901 -0.4557 0.4557 0.8901 4.3928 0.3309)" style="" width="1.8" height="9.058" fill="#717171"></rect><polygon style="" points="0.411,-12.767 0.745,-13 4.979,-5.022 4.56,-4.76 " fill="#494A4A"></polygon><polygon style="" points="1.105,-13.386 5.483,-5.188 4.979,-5.022 0.745,-13 " fill="#FFFFFF"></polygon><path style="" d="M1.62-13.386l0.334,0.653c0,0-0.953,0.654-1.65,0.727c-0.196-0.326-0.342-0.717-0.342-0.717L1.62-13.386z" fill="#050507"></path><path style="" d="M-30.136-57.62c-0.75-0.339-3.393,0.133-5.275-1.857l6.852-3.508l4.163,8.132l-2.123,1.088C-27.481-55.209-28.867-57.046-30.136-57.62z" fill="#A8A8A8"></path><path style="" d="M-26.629-59.216c0,0-0.664,0.928-0.729,1.707c-0.497-0.851-0.924-1.592-0.924-1.592s1.06-0.463,0.158-3.035C-27.249-60.426-26.629-59.216-26.629-59.216z" fill="#FFFFFF"></path><polygon points="-23.891,-53.523 -28.559,-62.985 -25.352,-64.627 -19.704,-53.596 "></polygon><path style="" d="M-16.607-49.155l-0.035-0.068c0.002-0.03,0.006-0.062-0.021-0.081c-0.005,0.003-0.011,0.006-0.016,0.009l-1.292-2.522l0.076-0.039l0.31-0.16l-0.39-0.77l-1.57-3.06l-0.18-0.35l-0.55-1.08l-0.11-0.21v-0.01l-0.32-0.62h-0.01l-0.29-0.59l-0.1-0.18l-0.26-0.51l-0.55-1.07l-0.13-0.26l-0.52-1.01l-1-1.97h-0.01l-0.74-1.45l-0.26,0.13l-0.01,0.01l-0.59,0.3l-0.07,0.04l-0.11,0.05l-0.56,0.29h-0.01l-0.29,0.15l-1.91,0.98l0.6,1.17l1.12,2.2c0.01,0,0.01,0.01,0.01,0.01l0.85,1.65l0.74,1.45l1.08,2.1l0.55,1.08l0.33,0.65l0.46,0.9l0.4,0.78l0.01,0.01l0.58,1.14l0.388-0.197l1.363,2.662l0.142-0.073c0.068,0.005,0.15,0,0.261-0.021c0.953-0.18,1.857-0.683,2.531-1.377c0.012-0.012,0.017-0.031,0.028-0.046L-16.607-49.155z" fill="#A8A8A8"></path><polygon style="" points="-27.267,-63.642 -19.121,-47.765 -18.617,-47.998 -26.802,-64.02 " fill="#4A4C4C"></polygon><polygon style="" points="-26.216,-64.391 -18.041,-48.421 -18.617,-47.998 -26.802,-64.02 " fill="#676767"></polygon><polygon style="" points="-26.216,-64.182 -25.178,-64.713 -17.319,-48.791 -18.041,-48.421 " fill="#FFFFFF"></polygon><path style="" d="M-23.035-65.806l-12.89,6.59l-0.5-0.98c1.35-1.22,3.26-2.58,5.21-3.76c1.09-0.65,2.19-1.25,3.21-1.73c1.95-0.92,3.64-1.42,4.47-1.1L-23.035-65.806z" fill="#494A4A"></path><polygon style="" points="-20.717,-61.273 -23.04,-65.811 -23.496,-65.578 -21.172,-61.04 -21.99,-60.622 -21.79,-60.23 -20.972,-60.648 -20.517,-60.882 " fill="#494A4A"></polygon><polygon style="" points="-22.222,-50.582 -20.944,-50.854 -18.306,-52.225 -17.426,-53.179 -16.935,-52.309 -17.871,-51.377 -20.469,-50.039 -21.77,-49.73 " fill="#4A4C4C"></polygon><path style="" d="M-4.955-30.916l-0.69,0.35l-0.21,0.11l-0.91,0.46l-0.01,0.01l-0.48,0.24l-1.37,0.7l-0.49,0.25l-1.01,0.52c-0.21-0.03-0.41-0.05-0.61-0.05c-0.15,0-0.3,0.01-0.44,0.03c-0.15,0.02-0.29,0.04-0.43,0.08c0,0-0.01,0-0.02,0c-0.13,0.03-0.26,0.07-0.38,0.12c-0.07,0.02-0.14,0.05-0.21,0.08c-0.08,0.02-0.15,0.05-0.22,0.09c-0.26,0.12-0.5,0.27-0.72,0.42c-0.14,0.08-0.27,0.18-0.39,0.29c-0.32,0.26-0.59,0.53-0.79,0.75c-0.07,0.09-0.14,0.16-0.2,0.24c-0.06,0.07-0.11,0.13-0.15,0.18c-0.08,0.11-0.12,0.17-0.12,0.17l-0.63-0.83l-0.64-0.82l-0.19-0.26l-0.48-0.62l-0.28-0.36l-2.23-2.9h0.01l0.41-0.22l1.79-0.91l0.94-0.49l-0.52-1.02l-0.48-0.95l-0.68-1.32l-0.71-1.39l-0.75,0.39l-2.2,1.13c-0.1-0.1-0.2-0.21-0.29-0.31l-0.18-0.18c-0.05-0.05-0.1-0.1-0.15-0.14c-0.05-0.05-0.11-0.09-0.16-0.12c-0.05-0.03-0.11-0.06-0.17-0.09c-0.06-0.03-0.12-0.05-0.19-0.06c-0.06-0.01-0.12-0.02-0.18-0.02c-0.14,0-0.29,0.03-0.45,0.09h-0.01c-0.06,0.02-0.13,0.05-0.21,0.1c-0.26,0.13-0.63,0.34-1.13,0.57c-0.23-0.11-0.41-0.27-0.7-0.4h-0.01c-0.13-0.06-0.29-0.12-0.49-0.16c-0.1-0.02-0.21-0.04-0.33-0.06c-0.14-0.01-0.29-0.02-0.46-0.03c-0.79-0.03-1.87-0.04-2.59,0.25h-0.01l0.01,0.12l0.02,0.36l0.02,0.36c-0.18,0-0.35-0.02-0.49-0.04c-0.14-0.03-0.26-0.07-0.37-0.11c-0.07-0.03-0.13-0.06-0.18-0.09c-0.2-0.1-0.33-0.25-0.42-0.41c-0.04-0.06-0.07-0.13-0.09-0.2c-0.02-0.05-0.04-0.1-0.05-0.16c0,0,0,0,0-0.01c-0.01-0.04-0.02-0.09-0.03-0.13c-0.03-0.17-0.04-0.32-0.05-0.45l-0.09-1.22v-0.03l-0.1-1.43l-0.03-0.34l-0.04-0.57c0.17-0.1,0.37-0.17,0.59-0.23c0.02,0,0.03-0.01,0.05-0.01c0.01-0.01,0.02-0.01,0.04-0.01c0.12-0.03,0.24-0.05,0.37-0.07c0.02,0,0.04-0.01,0.07-0.01h0.04c0.08-0.01,0.17-0.02,0.26-0.03c0.27-0.02,0.56-0.03,0.86-0.01c0.03-0.01,0.06,0,0.09,0c0.61,0.02,1.24,0.09,1.85,0.18c0.02,0,0.03,0,0.05,0.01c0.25,0.03,0.49,0.07,0.72,0.12c0.24,0.04,0.46,0.08,0.67,0.11c0.11,0.02,0.21,0.04,0.3,0.06c0.48,0.09,0.86,0.16,1.08,0.17c0.04,0,0.08,0.01,0.12,0.01c0.06,0,0.13,0.01,0.19,0.01c0.11,0.01,0.23,0.01,0.35,0.02h0.16c0.32,0.01,0.65,0.02,0.97,0c0.15-0.02,0.31-0.03,0.46-0.06c0.11-0.01,0.22-0.03,0.33-0.05c0.15-0.03,0.3-0.07,0.44-0.12c0.16-0.05,0.31-0.12,0.45-0.19c0.14-0.08,0.27-0.16,0.4-0.26c0.32-0.26,0.58-0.61,0.75-1.08c0.02-0.04,0.02-0.08,0.03-0.12c0.02-0.04,0.03-0.08,0.03-0.12c0.05-0.35-0.03-0.72-0.15-1.06c-0.04-0.09-0.08-0.18-0.12-0.27c-0.04-0.08-0.08-0.17-0.12-0.24c-0.03-0.06-0.06-0.11-0.09-0.16c-0.12-0.2-0.21-0.33-0.21-0.33l0.08-0.04l0.18-0.09l2.62-1.35h0.01l2.01-1.03l0.3-0.15l0.19,0.36l1.45,2.83l0.27,0.54l0.14,0.28l0.64,1.24l0.77,1.5l0.12,0.07l1.62,0.93l0.95,1.85l1.24,2.42l1.9,3.71l0.37,0.71l0.16,0.33L-4.955-30.916z" fill="#676767"></path><path style="" d="M-14.326-26.956c0.056-2.193-1.495-3.565-3.269-4.883c-2.977,1.524-6.65,5.449-6.587,8.881c0.588,0.565,1.406,0.943,2.13,1.295c0.633,0.308,1.343,0.681,2.032,0.835c1.041,0.233,1.267-0.943,1.56-1.656c0.344-0.835,0.789-1.655,1.374-2.319c0.425-0.482,0.893-0.932,1.402-1.324C-15.557-26.223-14.327-26.901-14.326-26.956z" fill="#494A4A"></path><path style="" d="M-22.15-21.711c0.033,0.016,0.067,0.033,0.099,0.048c0.385,0.187,0.799,0.393,1.219,0.565c0.538-2.746,2.904-6.203,5.767-7.505c-0.131-0.369-0.583-0.76-0.805-1.084C-18.432-28.292-21.437-24.993-22.15-21.711z" fill="#717171"></path><path style="" d="M-15.683-26.127c0.126-0.097,1.356-0.774,1.357-0.829c0.011-0.438-0.057-0.837-0.163-1.216c-2.616,1.509-5.321,4.578-5.769,7.273c0.08,0.023,0.16,0.052,0.239,0.07c1.041,0.233,1.267-0.943,1.56-1.656c0.344-0.835,0.789-1.655,1.374-2.319C-16.66-25.285-16.193-25.734-15.683-26.127z" fill="#717171"></path><path style="" d="M-17.017-29.847l-0.638-1.43c-2.377,1.217-5.41,4.354-6.462,7.471c-0.042,0.285-0.07,0.569-0.065,0.849c0.333,0.32,0.741,0.577,1.163,0.806C-22.51-24.985-19.731-28.459-17.017-29.847z" fill="#717171"></path><path style="" d="M-17.6-26.79c-1.52,1.5-2.67,3.49-3.13,5.25l-0.92-1.72c0.77-1.83,2.15-3.58,3.62-4.88C-17.98-27.69-17.76-27.14-17.6-26.79z" fill="#2A2A2E"></path><path d="M-16.72-25.18c-0.14,0.12-0.26,0.25-0.37,0.38c-0.58,0.66-1.03,1.48-1.37,2.32c-0.16,0.4-0.3,0.94-0.59,1.3l-0.76-1.19c0.58-1.38,1.63-2.76,2.84-3.91C-16.92-26.05-16.83-25.65-16.72-25.18z"></path><path style="" d="M-19.03-29.87l-0.03,1.44c-1.43,1.25-2.7,2.93-3.42,4.58h-0.01c0,0-0.28-0.6-0.47-1.18C-22.38-26.76-19.03-29.87-19.03-29.87z" fill="#2A2A2E"></path><path style="" d="M-12.935-34.432c0,0-2.69,1.532-5.682,3.194c0.532,0.692,2.52,2.589,2.52,2.589l0.331-0.431l-0.831-1.691l4.25-2.265L-12.935-34.432z" fill="#494A4A"></path><polygon style="" points="-15.251,-28.391 -15.625,-27.886 -14.663,-26.608 -14.261,-27.033 " fill="#494A4A"></polygon><path style="" d="M-10.744-29.472c0,0-2.78,1.233-3.517,2.439c-0.438-0.534-0.99-1.359-0.99-1.359s1.558-1.883,3.7-2.656C-11.197-30.539-10.744-29.472-10.744-29.472z" fill="#A6A6A6"></path><path style="" d="M-12.679-33.248c-0.967,0.34-4.351,2.497-4.351,2.497s0.598,0.814,1.263,1.671l3.81-2.698C-11.956-31.779-12.446-32.757-12.679-33.248z" fill="#A6A6A6"></path><path style="" d="M-13.044-28.183c0.248-0.735,0.761-2.23,0.88-2.354c0.1-0.104,0.24-0.273,0.334-0.389c-1.285,0.534-2.327,1.418-2.909,1.992c0.38-0.19,1.027-0.402,1.046-0.374c-0.202,0.437-0.664,1.6-0.593,2.243c0.008,0.01,0.017,0.022,0.025,0.032C-14.019-27.428-13.556-27.826-13.044-28.183z" fill="#FFFFFF"></path><path style="" d="M-14.574-29.925c0.279-0.536,1.283-2.491,1.416-3.111c-0.902,0.448-2.412,1.371-3.255,1.897c0.432-0.115,1.135-0.35,1.729-0.783c-0.477,0.864-1.083,2.841-1.083,2.841L-14.574-29.925z" fill="#FFFFFF"></path><path style="" d="M-18.651-31.975l-0.227,0.771l4.073,5.324c0,0,0.152-0.225,0.424-0.535L-18.651-31.975z" fill="#494A4A"></path><path style="" d="M-14.93-27.13l-2.578-3.357c-0.22-0.003-0.456,0.149-0.581,0.33l2.905,3.783c0.204,0.012,0.402-0.051,0.398-0.35C-14.786-26.812-14.842-26.955-14.93-27.13z" fill="#A8A8A8"></path><path style="" d="M-24.411-24.367c-0.109,0.255-0.211,0.525-0.194,0.802c0.017,0.277,0.184,0.564,0.453,0.635c0.573-2.804,3.294-6.317,5.681-7.58c0.14-0.14-0.338-0.67-0.54-0.622c-0.231,0.055-0.654,0.613-0.831,0.775c-0.63,0.575-1.238,1.174-1.808,1.809C-22.771-27.302-23.751-25.914-24.411-24.367z" fill="#A8A8A8"></path><path style="" d="M-17.3-29.559c0.102-0.101,0.288-0.02,0.372,0.09c0.155,0.203,0.31,0.406,0.465,0.609c0.127,0.167,0.313,0.327,0.408,0.512c0.019,0.037,0.036,0.079,0.031,0.121c-0.005,0.046-0.034,0.087-0.069,0.117c-0.225,0.194-0.42-0.102-0.548-0.247c-0.241-0.271-0.514-0.591-0.684-0.913c-0.031-0.059-0.047-0.129-0.028-0.193C-17.341-29.505-17.322-29.536-17.3-29.559z" fill="#FFFFFF"></path><path style="" d="M-22.48-23.85h-0.01c0,0-0.28-0.6-0.47-1.18c0.58-1.73,3.93-4.84,3.93-4.84l-0.03,1.44C-20.49-27.18-21.76-25.5-22.48-23.85z" fill="#A8A8A8"></path><path style="" d="M-17.6-26.79c-1.52,1.5-2.67,3.49-3.13,5.25l-0.92-1.72c0.77-1.83,2.15-3.58,3.62-4.88C-17.98-27.69-17.76-27.14-17.6-26.79z" fill="#A8A8A8"></path><path style="" d="M-16.72-25.18c-0.14,0.12-0.26,0.25-0.37,0.38c-0.58,0.66-1.03,1.48-1.37,2.32c-0.16,0.4-0.3,0.94-0.59,1.3l-0.76-1.19c0.58-1.38,1.63-2.76,2.84-3.91C-16.92-26.05-16.83-25.65-16.72-25.18z" fill="#A8A8A8"></path><path style="" d="M-19.384-23.217c0.195-0.225,1.049-1.115,1.066,0.417c0.199-0.45,0.431-0.885,0.698-1.291c-0.349,0.114-0.763,0.077-0.538-0.899C-18.629-24.419-19.047-23.825-19.384-23.217z" fill="#FFFFFF"></path><path style="" d="M-18.547-25.728c-0.148,0.008-0.447,0.018-0.795-0.006c-0.291-0.019-0.202-0.558-0.083-0.992c-0.448,0.514-0.866,1.062-1.238,1.634c0.183-0.117,0.406-0.211,0.605-0.144c0.29,0.097,0.223,1.021,0.152,1.6C-19.536-24.356-19.075-25.066-18.547-25.728z" fill="#FFFFFF"></path><path style="" d="M-20.158-27.346c-0.361,0.034-0.691-0.145-0.238-1.162c-0.47,0.495-0.99,1.074-1.446,1.653c0.225-0.057,0.628-0.021,0.477,1.055C-20.997-26.337-20.6-26.86-20.158-27.346z" fill="#FFFFFF"></path><path style="" d="M-17.835-39.4l2.829,5.218l0.977-0.672l-3.178-5.983c0,0-0.157,0.642-0.228,0.805C-17.521-39.836-17.835-39.4-17.835-39.4z" fill="#A6A6A6"></path><path style="" d="M-22.855-40.406l0.137,2.448c0,0,3.763-1.236,4.441-1.982c0.678-0.745,1.013-2.577,1.013-2.577l-1.183-2.064l-0.448,0.192C-18.894-44.389-18.46-41.007-22.855-40.406z" fill="#A6A6A6"></path><path style="" d="M-19.563-39.17l0.714-3.402c0,0-0.232,0.192-0.701,0.478c-0.527,0.721-1.47,1.394-3.139,1.658c0.681,0.639,2.427-0.264,2.536-0.068c0.077,0.139-0.261,1.128-0.505,1.799C-20.287-38.853-19.91-39.011-19.563-39.17z" fill="#FFFFFF"></path><path style="" d="M-16.848-37.58l0.756,1.395c0.06,0.107,0.126,0.211,0.182,0.322l0.391-1.748l-0.531-1.045l-0.294-0.554L-16.848-37.58z" fill="#FFFFFF"></path><polygon style="" points="-6.102,-31.145 -11.708,-41.43 -9.281,-41.379 -4.469,-31.981 " fill="#A6A6A6"></polygon><path style="" d="M-5.947-34.867l-1.539-2.966c0,0,0.371,1.102,0.096,1.139s-1.048-1.026-1.048-1.026l1.635,3.193c0,0-0.372-0.908,0.019-1.08C-6.686-35.655-5.947-34.867-5.947-34.867z" fill="#FFFFFF"></path><rect x="-14.029" y="-49.114" transform="matrix(0.8901 -0.4557 0.4557 0.8901 20.3156 -11.4473)" style="" width="0.894" height="2.52" fill="#484949"></rect><polygon style="" points="-12.116,-42.052 -14.201,-46.125 -12.61,-46.939 -11.3,-44.382 " fill="#484949"></polygon><path style="" d="M-16.801-35.4c0.116-0.094-0.417-1.176-0.702-1.487c-0.168,0.082-0.261,0.665-0.449,0.64c-0.692-0.089-1.524,0.111-1.815,1.001l0.32,0.277C-19.235-35.985-17.678-35.994-16.801-35.4z" fill="#191A1E"></path><path d="M-17.03-35.798c0.108-0.103-0.51-1.139-0.82-1.426c-0.161,0.095-0.207,0.684-0.396,0.674c-0.697-0.033-1.51,0.233-1.728,1.144l0.341,0.25C-19.503-36.184-17.952-36.319-17.03-35.798z"></path><polygon style="" points="-9.754,-40.093 -14.785,-37.365 -10.13,-28.272 -4.957,-30.92 -9.611,-40.011 " fill="#606060"></polygon><path d="M-18.749-45.322c0,0,0.953,1.963,0.47,2.812c1.226,0.43,2.502-0.985,2.502-0.985l-1.609-2.854"></path><path style="" d="M-23.745-37.516c-0.17,0.17-0.52,0.34-0.81,0.35c-0.09,0.01-0.18,0-0.25-0.03c-0.06-0.02-0.2-0.18-0.31-0.29c-0.04-0.03-0.07-0.05-0.09-0.07c-0.72-0.42-3.2-0.48-5.04-0.03c-0.05-0.35-0.09-0.75-0.11-1.17c-0.01-0.21-0.02-0.42-0.03-0.64c-0.01-0.37-0.02-0.74-0.03-1.09c-0.01-0.16-0.01-0.32-0.02-0.48c0-0.22-0.01-0.43-0.02-0.62c0.02,0,0.03-0.01,0.05-0.01c0.01-0.01,0.02-0.01,0.04-0.01c0.12-0.03,0.24-0.05,0.37-0.07c0.02,0,0.04-0.01,0.07-0.01h0.04c0.08-0.01,0.17-0.02,0.26-0.03c0.27-0.02,0.56-0.03,0.86-0.01c0.03-0.01,0.06,0,0.09,0c0.61,0.02,1.24,0.09,1.85,0.18c0.02,0,0.03,0,0.05,0.01c0.25,0.03,0.49,0.07,0.72,0.12c0.24,0.04,0.46,0.08,0.67,0.11c0.11,0.02,0.21,0.04,0.3,0.06c0.48,0.09,0.86,0.16,1.08,0.17c0.04,0,0.08,0.01,0.12,0.01c0.06,0,0.13,0.01,0.19,0.01c0.12,0.01,0.23,0.01,0.35,0.01C-23.295-41.036-23.475-37.766-23.745-37.516z" fill="#4A4C4C"></path><path style="" d="M-24.323-38.816c-0.253,0.128-0.563,0.029-0.693-0.225c-0.129-0.253-0.029-0.562,0.224-0.692c0.253-0.129,0.563-0.029,0.693,0.224C-23.97-39.256-24.07-38.947-24.323-38.816z" fill="#919191"></path><path style="" d="M-28.716-38.942c-0.253,0.129-0.563,0.029-0.692-0.224s-0.03-0.562,0.224-0.692c0.253-0.129,0.562-0.029,0.693,0.224C-28.363-39.382-28.463-39.072-28.716-38.942z" fill="#919191"></path><path style="" d="M-16.289-33.7c-0.001-0.002,0-0.003,0-0.005c-0.069-0.23-0.228-0.43-0.325-0.649c-0.089-0.201-0.323-0.493-0.351-0.704c0.048,0.37,0.144,0.886-0.065,1.225c-0.145,0.236-0.5,0.44-0.738,0.561c-0.61,0.312-1.224,0.334-1.371,0.048l-1.426-2.786c-0.038-0.29,0.299-0.702,0.847-0.982c0.611-0.313,1.225-0.334,1.372-0.049l0.256-0.131l-0.206-0.402l0.036-0.018l-0.402-0.785l-2.951,1.512l0.184,0.413l-0.014,0.007l2.566,5.242l0.601-0.283l2.177-1.795C-16.082-33.293-16.172-33.477-16.289-33.7z" fill="#676767"></path><path style="" d="M-20.066-36.799c0,0-1.278-0.649-1.916-0.792c1.975-0.421,3.911-1.731,3.911-1.731l0.086,2.16l-0.362,0.12C-18.347-37.042-18.613-37.624-20.066-36.799z" fill="#494A4A"></path><path style="" d="M-18-38.76l2.526,5.001l-2.07,1.353h-0.905l-0.407-0.636c0,0,0.347,0.22,1.312-0.328c0.696-0.377,0.982-0.681,1.157-0.884C-16.212-34.457-18-37.958-18-37.958V-38.76z" fill="#A6A6A6"></path><ellipse transform="matrix(0.866 -0.5 0.5 0.866 16.4207 -17.457)" style="" cx="-24.365" cy="-39.37" rx="0.257" ry="0.316" fill="#FFFFFF"></ellipse><ellipse transform="matrix(0.866 -0.5 0.5 0.866 15.8752 -19.6521)" style="" cx="-28.734" cy="-39.449" rx="0.257" ry="0.316" fill="#FFFFFF"></ellipse><polygon style="" points="-18,-45.923 -14.815,-47.756 -10.92,-40.075 -14.201,-38.529 " fill="#A6A6A6"></polygon><polygon style="" points="-16.588,-46.651 -16.093,-46.904 -11.98,-39.216 -12.632,-38.925 " fill="#FFFFFF"></polygon><path style="" d="M-8.181-30.572c-0.658,0.336-1.464,0.077-1.801-0.581l-2.44-4.767c-0.336-0.658-0.077-1.465,0.582-1.802l0.418-0.213c0.657-0.337,1.464-0.077,1.801,0.582l2.44,4.766c0.336,0.658,0.076,1.465-0.582,1.802L-8.181-30.572z" fill="#CFCFCF"></path><path style="" d="M-8.389-31.044c-0.573,0.293-1.276,0.066-1.57-0.507l-2.127-4.155c-0.294-0.573-0.066-1.277,0.507-1.57l0.363-0.187c0.574-0.293,1.277-0.066,1.571,0.507l2.127,4.156c0.293,0.574,0.066,1.277-0.507,1.57L-8.389-31.044z" fill="#919191"></path><rect x="-11.173" y="-34.672" transform="matrix(0.89 -0.456 0.456 0.89 14.5413 -8.2378)" style="" width="2.743" height="0.835" fill="#717171"></rect><path style="" d="M-9.908-33.322l-0.711-1.39c-0.215-0.419-0.729-0.586-1.147-0.37l1.488,2.907C-9.86-32.39-9.693-32.904-9.908-33.322z" fill="#CFCFCF"></path><rect x="-11.277" y="-37.645" transform="matrix(0.8901 -0.4557 0.4557 0.8901 14.1141 -8.7172)" style="" width="0.512" height="8.032" fill="#484949"></rect><g><path style="" d="M-12.405-45.468c-0.639,0.327-1.422,0.075-1.749-0.564c-0.326-0.639-0.074-1.422,0.564-1.749c0.639-0.327,1.422-0.074,1.75,0.565C-11.513-46.579-11.766-45.794-12.405-45.468z" fill="#A8A8A8"></path><path style="" d="M-12.579-45.808c-0.451,0.23-1.003,0.052-1.234-0.399c-0.231-0.451-0.052-1.003,0.398-1.234c0.451-0.231,1.004-0.053,1.235,0.398C-11.95-46.591-12.127-46.04-12.579-45.808z" fill="#676767"></path></g><path style="" d="M3.976-4.834c-0.002-0.012,0.57-0.104,0.877-0.272c0.22-0.12,0.684-0.397,0.786-0.559c0.19,0.36,0.408,0.707,0.584,1.074c0.006,0.012,0.012,0.025,0.011,0.039C6.232-4.533,6.218-4.519,6.205-4.506C5.809-4.131,5.13-3.921,4.597-3.858C4.574-3.855,4.549-3.853,4.529-3.866c-0.015-0.01-0.023-0.026-0.031-0.042C4.357-4.182,4.035-4.532,3.976-4.834z" fill="#050507"></path><polygon style="" points="-4.721,-30.459 -4.901,-30.367 -5.291,-29.605 -5.243,-27.486 -4.518,-27.857 " fill="#717171"></polygon><polygon style="" points="-5.155,-31.316 -9.969,-29.053 -9.738,-28.474 -4.957,-30.92 " fill="#484949"></polygon><polygon style="" points="-7.307,-25.955 -9.143,-27.83 -7.321,-28.581 -6.155,-26.608 " fill="#484949"></polygon><g><rect x="-5.521" y="-27.259" transform="matrix(0.8901 -0.4557 0.4557 0.8901 8.8404 -3.4893)" style="" width="5.41" height="14.363" fill="#717171"></rect><rect x="-5.521" y="-27.259" transform="matrix(0.8901 -0.4557 0.4557 0.8901 8.8404 -3.4893)" style="" width="5.41" height="14.363" fill="#717171"></rect><rect x="-4.025" y="-23.202" transform="matrix(0.8901 -0.4557 0.4557 0.8901 10.0816 -3.7195)" style="" width="2.705" height="0.871" fill="#D6D6D6"></rect><rect x="-2.641" y="-20.497" transform="matrix(0.8901 -0.4558 0.4558 0.8901 9.0023 -2.7923)" style="" width="2.705" height="0.871" fill="#D6D6D6"></rect><rect x="-3.332" y="-21.849" transform="matrix(0.8901 -0.4557 0.4557 0.8901 9.5409 -3.2551)" style="" width="2.705" height="0.872" fill="#D6D6D6"></rect><rect x="-5.41" y="-25.907" transform="matrix(0.8901 -0.4557 0.4557 0.8901 11.1621 -4.6478)" style="" width="2.705" height="0.871" fill="#D6D6D6"></rect><rect x="-4.717" y="-24.555" transform="matrix(0.8901 -0.4557 0.4557 0.8901 10.6217 -4.1833)" style="" width="2.705" height="0.871" fill="#D6D6D6"></rect><rect x="-1.947" y="-19.144" transform="matrix(0.8901 -0.4557 0.4557 0.8901 8.4605 -2.3266)" style="" width="2.705" height="0.87" fill="#D6D6D6"></rect><rect x="-6.069" y="-27.127" transform="matrix(0.8901 -0.4557 0.4557 0.8901 11.6778 -5.0901)" style="" width="2.705" height="0.729" fill="#D6D6D6"></rect><rect x="0.119" y="-15.082" transform="matrix(0.8901 -0.4557 0.4557 0.8901 6.8467 -0.941)" style="" width="2.705" height="0.826" fill="#D6D6D6"></rect><rect x="-0.564" y="-16.439" transform="matrix(0.8901 -0.4558 0.4558 0.8901 7.3809 -1.3995)" style="" width="2.705" height="0.871" fill="#D6D6D6"></rect><rect x="-1.255" y="-17.792" transform="matrix(0.8901 -0.4557 0.4557 0.8901 7.9199 -1.8625)" style="" width="2.705" height="0.872" fill="#D6D6D6"></rect><g><path style="" d="M0.908-13.957c-0.22,0.175-0.676,0.392-0.981,0.345c-0.286-0.044-0.544-0.427-0.293-0.581c0.384-0.235,0.685-0.359,0.899-0.47c-0.04,0.112-0.102,0.379-0.034,0.476C0.566-14.092,0.783-13.959,0.908-13.957z" fill="#FFFFFF"></path><path style="" d="M0.066-15.285c0.017,0.006,0.221-0.036,0.239-0.03c-0.175,0.147-0.689,0.425-0.899,0.51c-0.344,0.14-0.841-0.349-0.522-0.68c0.192-0.2,0.817-0.497,1.074-0.582c-0.047,0.063-0.2,0.389-0.205,0.467c-0.005,0.089,0.05,0.172,0.122,0.225C-0.069-15.333-0.002-15.307,0.066-15.285z" fill="#FFFFFF"></path><path style="" d="M-0.548-16.741c0.063,0.029,0.134,0.109,0.203,0.102c-0.113,0.012-0.726,0.389-0.866,0.406c-0.326,0.039-0.798-0.397-0.535-0.67c0.22-0.229,0.732-0.413,1.024-0.516c-0.039,0.124-0.05,0.468,0.032,0.569C-0.653-16.803-0.603-16.765-0.548-16.741z" fill="#FFFFFF"></path><path style="" d="M-0.922-18.052c0,0.296-0.338,0.335-0.383,0.356c-0.137,0.064-0.301,0.056-0.442,0.114c-0.344,0.14-0.833-0.425-0.514-0.756c0.202-0.21,0.532-0.41,0.807-0.487C-1.532-18.737-1.377-18.134-0.922-18.052z" fill="#FFFFFF"></path><path style="" d="M-1.939-19.485c0.023,0.01,0.248,0.099,0.27,0.109c-0.209,0.203-0.642,0.331-0.889,0.454c-0.344,0.171-0.783-0.338-0.464-0.742c0.208-0.262,0.539-0.274,0.811-0.414c-0.009,0.055-0.032,0.106-0.039,0.162c-0.016,0.117,0.039,0.235,0.115,0.309C-2.077-19.551-2.009-19.515-1.939-19.485z" fill="#FFFFFF"></path><path style="" d="M-2.587-20.817c0.027,0.008,0.2,0.084,0.227,0.088c-0.203,0.16-0.574,0.361-0.813,0.459c-0.344,0.14-0.826-0.464-0.507-0.795c0.198-0.205,0.537-0.347,0.802-0.434c-0.073,0.101-0.029,0.433,0.049,0.531C-2.769-20.892-2.681-20.844-2.587-20.817z" fill="#FFFFFF"></path><path style="" d="M-3.072-22.087c-0.221,0.174-0.526,0.397-0.787,0.504c-0.344,0.14-0.815-0.503-0.495-0.834c0.171-0.178,0.507-0.469,0.739-0.543c-0.051,0.082-0.036,0.528-0.001,0.617C-3.468-21.965-3.095-22.105-3.072-22.087z" fill="#FFFFFF"></path><path style="" d="M-3.766-23.373c-0.288,0.151-0.623,0.383-0.951,0.436c-0.22,0.036-0.497-0.205-0.479-0.481c0.023-0.353,0.574-0.745,0.808-0.802c-0.039,0.071-0.042,0.369-0.009,0.442C-4.225-23.392-3.83-23.36-3.766-23.373z" fill="#FFFFFF"></path><path style="" d="M-4.482-24.766c-0.116,0.011-0.473,0.356-0.946,0.347c-0.332-0.006-0.446-0.18-0.322-0.531c0.1-0.286,0.545-0.508,0.795-0.552C-5.173-25.464-5.171-24.699-4.482-24.766z" fill="#FFFFFF"></path><path style="" d="M-5.291-26.016c-0.221,0.126-0.496,0.215-0.735,0.313c-0.344,0.14-0.746-0.171-0.426-0.502c0.191-0.198,0.58-0.462,0.861-0.445c-0.088,0.084-0.133,0.267-0.086,0.38C-5.631-26.16-5.416-26.016-5.291-26.016z" fill="#FFFFFF"></path></g><g><path style="" d="M-1.951-12.453l0.721-0.369c0.005-0.032,0.022-0.052,0.019-0.091c-0.033-0.397-0.457-0.612-0.457-0.612l-0.658,0.337L-1.951-12.453z" fill="#B9B9B9"></path><path style="" d="M-1.997-13.868c0,0,0.128-0.932-0.489-1.035c-0.487,0.207-0.724,0.518-0.724,0.518l0.302,0.86L-1.997-13.868z" fill="#B9B9B9"></path><path style="" d="M-2.609-15.354c0,0,0.128-0.932-0.489-1.035c-0.487,0.207-0.724,0.518-0.724,0.518l0.302,0.86L-2.609-15.354z" fill="#B9B9B9"></path><path style="" d="M-3.221-16.661c0,0,0.128-0.932-0.489-1.035c-0.487,0.207-0.822,0.447-0.822,0.447l0.401,0.93L-3.221-16.661z" fill="#B9B9B9"></path><path style="" d="M-3.917-18.014c0,0,0.128-0.932-0.489-1.035c-0.487,0.207-0.933,0.391-0.933,0.391l0.512,0.986L-3.917-18.014z" fill="#B9B9B9"></path><path style="" d="M-4.69-19.253c0,0,0.128-0.932-0.489-1.035c-0.487,0.207-0.933,0.391-0.933,0.391l0.512,0.986L-4.69-19.253z" fill="#B9B9B9"></path><path style="" d="M-5.381-20.606c0,0,0.128-0.932-0.489-1.035c-0.487,0.207-0.933,0.391-0.933,0.391l0.512,0.986L-5.381-20.606z" fill="#B9B9B9"></path><path style="" d="M-6.098-21.926c0,0,0.128-0.932-0.489-1.035C-7.074-22.754-7.52-22.57-7.52-22.57l0.512,0.986L-6.098-21.926z" fill="#B9B9B9"></path><path style="" d="M-6.735-23.425c0,0,0.128-0.932-0.489-1.035c-0.487,0.207-0.933,0.391-0.933,0.391l0.512,0.986L-6.735-23.425z" fill="#B9B9B9"></path><path style="" d="M-8.099-24.462l0.548-0.206c0,0,0.085-0.653-0.252-0.924l-0.692,0.354L-8.099-24.462z" fill="#B9B9B9"></path></g><rect x="-5.544" y="-20.446" transform="matrix(0.8905 -0.455 0.455 0.8905 8.8446 -3.4951)" style="" width="5.411" height="0.648" fill="#484949"></rect><rect x="-8.314" y="-25.856" transform="matrix(0.8898 -0.4563 0.4563 0.8898 11.0321 -5.3724)" style="" width="5.411" height="0.649" fill="#484949"></rect><rect x="-2.773" y="-15.035" transform="matrix(0.89 -0.4559 0.4559 0.89 6.6992 -1.6485)" style="" width="5.412" height="0.649" fill="#484949"></rect><rect x="-3.467" y="-16.386" transform="matrix(0.8903 -0.4553 0.4553 0.8903 7.2295 -2.1081)" style="" width="5.411" height="0.649" fill="#484949"></rect><rect x="-4.159" y="-17.741" transform="matrix(0.8908 -0.4544 0.4544 0.8908 7.7554 -2.5623)" style="" width="5.412" height="0.649" fill="#484949"></rect><rect x="-4.851" y="-19.093" transform="matrix(0.8905 -0.455 0.455 0.8905 8.3047 -3.0315)" style="" width="5.411" height="0.649" fill="#484949"></rect><rect x="-6.236" y="-21.799" transform="matrix(0.8903 -0.4553 0.4553 0.8903 9.3903 -3.9624)" style="" width="5.411" height="0.649" fill="#484949"></rect><rect x="-6.931" y="-23.149" transform="matrix(0.8898 -0.4563 0.4563 0.8898 9.95 -4.4426)" style="" width="5.412" height="0.648" fill="#484949"></rect><rect x="-7.622" y="-24.504" transform="matrix(0.8902 -0.4556 0.4556 0.8902 10.4762 -4.895)" style="" width="5.411" height="0.649" fill="#484949"></rect><path style="" d="M3.405-15.657c-0.202,0.103-0.463-0.008-0.585-0.247c-0.123-0.239-0.06-0.517,0.142-0.62l-0.375-0.732c-0.201,0.103-0.462-0.007-0.585-0.247c-0.122-0.24-0.059-0.517,0.142-0.619l-0.375-0.732c-0.201,0.103-0.462-0.007-0.586-0.248c-0.122-0.239-0.059-0.515,0.143-0.618l-0.375-0.732c-0.201,0.103-0.463-0.008-0.586-0.247c-0.123-0.24-0.059-0.516,0.143-0.62L0.133-22.05c-0.202,0.103-0.463-0.007-0.586-0.247c-0.123-0.239-0.059-0.517,0.142-0.62l-0.374-0.732c-0.202,0.103-0.462-0.007-0.585-0.246c-0.123-0.24-0.06-0.517,0.142-0.62l-0.375-0.732c-0.201,0.103-0.463-0.008-0.585-0.247c-0.123-0.24-0.06-0.516,0.142-0.62l-0.375-0.732c-0.201,0.103-0.463-0.008-0.585-0.247s-0.059-0.517,0.143-0.62l-0.188-0.366l-0.729,0.373l6.545,12.785l0.729-0.372L3.405-15.657z" fill="#484949"></path><path style="" d="M-9.038-24.5c0.201-0.104,0.462,0.008,0.585,0.247s0.06,0.516-0.142,0.619l0.375,0.733c0.201-0.103,0.462,0.006,0.585,0.247c0.122,0.239,0.059,0.516-0.142,0.619l0.374,0.732c0.202-0.104,0.464,0.007,0.587,0.247c0.122,0.239,0.059,0.516-0.143,0.619l0.375,0.732c0.202-0.103,0.462,0.008,0.585,0.247c0.123,0.24,0.06,0.517-0.142,0.621l0.374,0.731c0.202-0.103,0.464,0.007,0.586,0.247c0.123,0.241,0.06,0.517-0.142,0.62l0.375,0.733c0.202-0.103,0.462,0.006,0.585,0.246s0.059,0.517-0.142,0.62l0.375,0.731c0.201-0.103,0.463,0.008,0.585,0.247c0.123,0.239,0.06,0.516-0.142,0.619l0.375,0.731c0.2-0.103,0.462,0.008,0.584,0.248c0.123,0.239,0.06,0.516-0.142,0.62l0.188,0.365l0.728-0.372L-8.5-25.236l-0.728,0.372L-9.038-24.5z" fill="#B9B9B9"></path></g><path style="" d="M3.792-9.655l4.581-2.346c1.26-0.646,1.238-1.367,0.999-1.833c-0.12-0.235-0.401-0.357-0.752-0.377l-6.543-0.201l-0.042-0.082l-3.158,1.617l0.537,1.049l2.742-1.404l5.892,0.077c0,0-4.792,2.452-4.792,2.452c0,0-0.227-0.443-0.248-0.49c-0.097,0.031-0.154,0.112-0.217,0.188c-0.236,0.283-0.546,0.503-0.889,0.639c-0.166,0.066-0.341,0.113-0.518,0.138c-0.022,0.003-0.413,0.035-0.396,0.068C1-10.136,1.52-9.122,1.556-9.05c0.119,0.233,0.233,0.47,0.358,0.7C1.964-8.259,1.987-8.249,2.091-8.27c0.12-0.025,0.24-0.059,0.359-0.088c0.354-0.087,0.696-0.233,0.996-0.445C3.582-8.9,3.73-9.005,3.851-9.116C3.89-9.151,3.96-9.249,4.001-9.25C3.931-9.385,3.862-9.52,3.792-9.655z" fill="#494A4A"></path><path style="" d="M0.22-13.564c-0.101,0.74,0.367,1.136,0.367,1.136s1.207-0.618,1.484-0.76c-0.84,0.127-0.704-0.7-0.629-1.002L0.22-13.564z" fill="#717171"></path><rect x="2.955" y="-13.964" transform="matrix(0.8901 -0.4557 0.4557 0.8901 5.926 0.0944)" style="" width="0.408" height="3.44" fill="#494A4A"></rect><path style="" d="M3.777-4.291c0.015-0.104,0.119-0.078,0.294-0.114c0.376-0.078,0.74-0.212,1.078-0.393c0.103-0.055,1.044-0.655,1.004-0.733c0.646,1.262,1.292,2.524,1.938,3.785c0.264,0.516,0.616,1.045,0.814,1.59C9.042,0.219,8.52,0.605,8.219,0.799C7.81,1.063,6.757,1.504,6.433,0.961C5.965,0.177,5.591-0.683,5.175-1.496C4.807-2.215,4.439-2.934,4.07-3.653C3.993-3.804,3.794-4.055,3.777-4.226C3.775-4.252,3.775-4.273,3.777-4.291z" fill="#B9B9B9"></path><path style="" d="M8.817-13.979c0.301,0.072,0.625,0.228,0.284,0.44c-0.119,0.074-0.28,0.098-0.434,0.114c-0.393,0.041-3.26,0.173-2.612-0.484c0.2-0.203,0.763-0.148,1.059-0.155c0.486-0.01,0.972,0.004,1.455,0.043C8.637-14.015,8.726-14.001,8.817-13.979z" fill="#717171"></path><path style="" d="M-9.61-28.251c0.018,0.01,0.035,0.024,0.053,0.034c0.083,0.049,0.188,0.024,0.28-0.003c1.152-0.344,2.223-0.954,3.243-1.578c0.227-0.139,0.464-0.242,0.624-0.457c-0.028,0.01-0.053-0.029-0.043-0.057c0.011-0.028,0.04-0.043,0.067-0.056c0.075-0.035,0.698-0.286,0.703-0.105c0.009,0.281-0.3,0.547-0.504,0.704c-0.746,0.576-1.562,1.061-2.422,1.444c-0.441,0.196-0.894,0.366-1.355,0.508c-0.287,0.088-0.794,0.325-1.099,0.224c-0.077-0.025-0.144-0.099-0.134-0.18c0.007-0.055,0.047-0.101,0.086-0.14c0.118-0.12,0.249-0.227,0.39-0.32c0.023-0.015,0.049-0.031,0.076-0.029C-9.633-28.261-9.621-28.256-9.61-28.251z" fill="#B9B9B9"></path><path style="" d="M-7.831-33.78c-0.033,0.038-0.106,0.023-0.14-0.037c-0.343-0.61-0.666-1.229-0.963-1.865c-0.033-0.071-0.317-0.606-0.165-0.604c0.059,0.001,0.153,0.153,0.181,0.194c0.097,0.145,0.168,0.318,0.246,0.474c0.163,0.325,0.327,0.65,0.488,0.976c0.08,0.163,0.16,0.327,0.237,0.491C-7.912-34.076-7.759-33.863-7.831-33.78z" fill="#FFFFFF"></path><path style="" d="M-11.472-32.21c0.006,0.011,0.013,0.024,0.027,0.03c0.024,0.012,0.055,0.001,0.08-0.011c0.045-0.02,0.641-0.293,0.621-0.336c-0.093-0.198-1.007-2.001-1.01-2c-0.226,0.101-0.45,0.206-0.671,0.314c-0.031,0.015-0.065,0.034-0.069,0.063c-0.003,0.018,0.008,0.035,0.018,0.051C-12.091-33.496-11.817-32.836-11.472-32.21z" fill="#CFCFCF"></path><polygon points="-9.697,-28.493 -14.175,-37.696 -14.785,-37.365 -10.13,-28.272 "></polygon><path d="M-18.705-43.096c-0.01,0.36-0.09,0.7-0.23,0.98c-0.12,0.23-0.29,0.44-0.48,0.6c-0.22,0.21-0.49,0.37-0.78,0.5c-0.33,0.15-0.69,0.26-1.05,0.33c-0.66,0.13-1.33,0.19-2.01,0.18h-0.1c0-0.17,0-0.35,0.01-0.53c0,0-0.01,0,0-0.01c0.05,0.01,0.11,0.01,0.16,0.01c0.32,0.01,0.65,0.02,0.97,0c0.15-0.02,0.31-0.03,0.46-0.06c0.11-0.01,0.22-0.03,0.33-0.05c0.15-0.03,0.3-0.07,0.44-0.12c0.16-0.05,0.31-0.12,0.45-0.19c0.14-0.08,0.27-0.16,0.4-0.26c0.32-0.26,0.58-0.61,0.75-1.08c0.02-0.04,0.02-0.08,0.03-0.12c0.01-0.04,0.01-0.08,0.02-0.12h-0.01c0.06-0.35-0.02-0.72-0.14-1.06c-0.04-0.09-0.07-0.18-0.11-0.27c-0.04-0.08-0.08-0.17-0.12-0.24c-0.03-0.06-0.06-0.11-0.09-0.16c0.08-0.09,0.17-0.15,0.27-0.16c0.19-0.05,0.38,0.03,0.51,0.25c0.08,0.13,0.14,0.28,0.18,0.44C-18.725-43.886-18.675-43.486-18.705-43.096z"></path><path style="" d="M-23.58-41.053c-0.038-0.001-0.075,0-0.115-0.003c-0.06,0-0.13-0.01-0.19-0.01c-0.04,0-0.08-0.01-0.12-0.01c-0.22-0.01-0.6-0.08-1.08-0.17c-0.09-0.02-0.19-0.04-0.3-0.06c-0.21-0.03-0.43-0.07-0.67-0.11c-0.23-0.05-0.47-0.09-0.72-0.12c-0.02-0.01-0.03-0.01-0.05-0.01c-0.61-0.09-1.24-0.16-1.85-0.18c-0.03,0-0.06-0.01-0.09,0c-0.3-0.02-0.59-0.01-0.86,0.01c-0.09,0.01-0.18,0.02-0.26,0.03h-0.04c-0.03,0-0.05,0.01-0.07,0.01c-0.028,0.004-0.052,0.011-0.079,0.015c0.005,0.228,0.015,0.476,0.011,0.511c-0.012,0.112-0.011,0.229,0.038,0.33c0.177,0.365,1.075,0.181,2.758,0.315c0.799,0.064,2.056,0.228,2.856,0.293c0.261,0.021,0.598,0.011,0.7-0.284C-23.673-40.603-23.611-40.835-23.58-41.053z" fill="#919191"></path><path style="" d="M-13.758-46.198c0.147,0.262,0.695,0.183,0.926,0.119c0.372-0.103,0.648-0.597,0.547-0.976c0.023,0.087,0.143,0.173,0.172,0.278c0.039,0.139,0.018,0.266-0.022,0.401c-0.078,0.263-0.288,0.48-0.55,0.58C-13.073-45.647-13.553-45.834-13.758-46.198z" fill="#484949"></path><path style="" d="M-27.266-40.505c0.266,0.021,0.588,0.055,0.922,0.091l0.992-0.885c-0.012-0.002-0.021-0.004-0.033-0.007c-0.21-0.03-0.43-0.07-0.67-0.11c-0.23-0.05-0.47-0.09-0.72-0.12c-0.02-0.01-0.03-0.01-0.05-0.01c-0.045-0.007-0.092-0.011-0.138-0.017c-0.638,0.38-1.407,0.841-1.673,0.999C-28.255-40.558-27.805-40.548-27.266-40.505z" fill="#FFFFFF"></path><path style="" d="M-30.245-37.586c-0.026-0.325-0.169-3.303-0.203-4.001c-0.003,0-0.004,0.001-0.007,0.001c-0.22,0.06-0.42,0.13-0.59,0.23l0.04,0.57l0.03,0.34l0.1,1.43v0.03l0.09,1.22c0.01,0.13,0.02,0.28,0.05,0.45c0.01,0.04,0.02,0.09,0.03,0.13c0,0.01,0,0.01,0,0.01c0.01,0.06,0.03,0.11,0.05,0.16c0.02,0.07,0.05,0.14,0.09,0.2c0.09,0.16,0.22,0.31,0.42,0.41c0.045,0.027,0.101,0.054,0.163,0.081C-30.083-36.735-30.226-37.349-30.245-37.586z" fill="#919191"></path><path style="" d="M-5.795-26.62l-0.881-2.206l1.053-0.623c0,0-0.668,0.006-0.603-0.385c-1.097,0.708-2.519,1.254-2.519,1.254s0.787,0.091,0.307,0.57c0.828-0.246,1.048-0.415,1.048-0.415l0.976,1.942L-5.795-26.62z" fill="#FFFFFF"></path><path style="" d="M-9.738-28.474l4.158-2.129l0.237,0.462l-2.358,1.334c0,0-1.656,0.842-1.8,0.795C-9.625-28.052-9.738-28.474-9.738-28.474z" fill="#0C0C0D"></path><rect x="-8.542" y="-26.96" transform="matrix(0.8902 -0.4555 0.4555 0.8902 11.4815 -5.7583)" style="" width="4.671" height="0.518" fill="#0C0C0D"></rect><path style="" d="M-4.01-27.53l-1.66,0.85c-0.21-0.08-0.33-0.24-0.4-0.39L-4.25-28L-4.01-27.53z" fill="#484949"></path><path style="" d="M-7.115-29.139l1.771-1.002l-0.237-0.462l-1.727,0.884C-7.276-29.511-7.218-29.304-7.115-29.139z" fill="#484949"></path><path style="" d="M4.765-4.626C4.575-4.548,4.38-4.483,4.179-4.436l2.848,5.653c0.215-0.009,0.449-0.075,0.664-0.159L4.765-4.626z" fill="#494A4A"></path><path style="" d="M4.778-4.329l2.811,5.426c0.239-0.083,0.459-0.193,0.607-0.285L5.603-4.576L4.778-4.329z" fill="#717171"></path><path style="" d="M5.896-4.979c0,0,0.225-0.127,0.362-0.348C6.166-5.598,6.073-5.518,6.042-5.529c-0.075-0.026-0.158,0.02-0.209,0.081C5.782-5.386,5.754-5.309,5.71-5.243C5.623-5.109,5.483-5.022,5.347-4.938C5.087-4.779,4.822-4.616,4.525-4.55C4.378-4.516,4.213-4.511,4.087-4.593C4.067-4.606,4.047-4.621,4.024-4.622c-0.161-0.007-0.24,0.284-0.247,0.331c0,0,0.131,0.014,0.327,0.015c0.013-0.002,0.017,0.005,0.03,0.002c0.003-0.001,0.006-0.002,0.009-0.003c0.331,0,0.821-0.038,1.19-0.227c0.853,1.195,2.334,4.217,2.862,5.315c0.006-0.004,0.016-0.009,0.022-0.013c0.14-0.09,0.325-0.222,0.472-0.375L5.896-4.979z" fill="#FFFFFF"></path><path style="" d="M8.906-0.156c-0.03-0.084-0.07-0.167-0.107-0.25C8.292,0.705,7.078,0.89,6.402,0.902c0.011,0.019,0.02,0.04,0.031,0.059C6.757,1.504,7.81,1.063,8.219,0.799C8.52,0.605,9.042,0.219,8.906-0.156z" fill="#FFFFFF"></path><path style="" d="M2.818-11.036C2.81-11.025,2.8-11.016,2.791-11.005c-0.219,0.263-0.505,0.463-0.818,0.601l0.963,1.881C3.115-8.6,3.287-8.691,3.446-8.804c0.083-0.058,0.164-0.126,0.247-0.19l0.059-0.164L2.818-11.036z" fill="#717171"></path><path style="" d="M2.771-11.068c0.164-0.247,0.307-0.125,0.315,0.03c0.015,0.275-0.396,0.666-0.613,0.805c-0.398,0.255-1.324,0.556-1.521,0.059c-0.025-0.063,0.092-0.19,0.249-0.134C1.722-10.119,2.49-10.645,2.771-11.068z" fill="#FFFFFF"></path><path style="" d="M2.639-11.395c0.018,0.126-1.204,1.028-1.625,0.776c0.139,0.272,0.233,0.455,0.233,0.455s1.068,0.083,1.618-0.79C2.791-11.097,2.639-11.395,2.639-11.395z" fill="#1A1A1C"></path><path style="" d="M1.772-8.624c0,0,1.832-0.405,1.896-1.077c-0.175-0.322-0.412-1.002-0.412-1.002l0.412-0.211l0.615,1.008l-0.49,0.251L4.001-9.25c0,0-0.815,0.984-2.047,0.989C1.841-8.488,1.772-8.624,1.772-8.624z" fill="#1A1A1C"></path><polygon style="" points="-12.623,-37.32 -12.75,-37.537 -10.92,-38.529 -11.575,-39.767 -14.201,-38.529 -18,-45.923 -18.617,-45.609 -14.227,-37.802 -13.473,-37.783 -13.079,-37.087 " fill="#484949"></polygon><polygon style="" points="-17.222,-46.323 -16.588,-46.651 -12.474,-38.963 -13.158,-38.634 " fill="#4A4C4C"></polygon><path d="M-11.522-38.625c0,0-2.351,1.257-2.636,1.258c-0.628,0.002-0.628-0.932-0.628-0.932l2.829-1.317C-11.957-39.616-11.241-39.211-11.522-38.625z"></path><rect x="-19.25" y="-47.348" transform="matrix(0.8899 -0.4561 0.4561 0.8899 19.4802 -13.014)" style="" width="4.055" height="0.964" fill="#A6A6A6"></rect><path style="" d="M-16.235-46.939c-0.736-0.158-0.639-0.506-0.498-0.719l-1.436,0.736c0.828,0.088,0.296,0.81,0.296,0.81S-17.135-46.576-16.235-46.939z" fill="#FFFFFF"></path><polygon style="" points="-20.727,-45.068 -14.785,-48.112 -14.252,-47.161 -20.194,-44.117 " fill="#4A4C4C"></polygon><path style="" d="M-18.107-45.186l2.781-1.425c-0.251,0.03-0.574,0.048-0.756-0.029c-0.216-0.091-0.035-0.558,0.113-0.865l-2.435,1.247c0.323,0.05,0.749,0.13,0.903,0.224C-17.339-45.936-17.763-45.501-18.107-45.186z" fill="#676767"></path><path style="" d="M-20.693-45.099c-0.005,0.052,0.048,0.095,0.1,0.099s0.102-0.02,0.149-0.043c0.824-0.408,1.647-0.817,2.471-1.225c0.688-0.341,1.355-0.72,2.041-1.064c0.186-0.093,0.372-0.186,0.557-0.281c0.108-0.055,0.225-0.092,0.335-0.144c0.032-0.015,0.323-0.182,0.323-0.184c-0.003-0.042-0.012-0.084-0.027-0.124c-0.005-0.014-0.012-0.028-0.024-0.037c-0.023-0.016-0.055-0.005-0.081,0.007c-0.229,0.104-0.449,0.216-0.673,0.328c-0.746,0.376-1.476,0.782-2.218,1.165C-18.718-46.097-19.74-45.65-20.693-45.099z" fill="#A6A6A6"></path><path style="" d="M-23.59-66.799c-0.847-0.282-2.503,0.211-4.415,1.113c-1.02,0.48-2.12,1.08-3.21,1.73c-1.95,1.18-3.86,2.54-5.21,3.76l0.119,0.233C-35.158-60.408-25.747-64.111-23.59-66.799z" fill="#A8A8A8"></path><path style="" d="M-31.526-61.982c2.008-0.914,4.234-2.026,5.891-3.118c-0.949,0.132-1.745,0.296-1.954-0.056c-0.109-0.183,0.128-0.551,0.418-0.902c-0.272,0.115-0.549,0.237-0.834,0.372c-1.02,0.48-2.12,1.08-3.21,1.73c-0.833,0.504-1.649,1.043-2.427,1.588c1.352-0.557,3.689-1.883,3.912-1.53C-29.544-63.604-30.677-62.643-31.526-61.982z" fill="#FFFFFF"></path><path style="" d="M-27.589-56.6c0,0,0.616-0.315,0.518-0.434s-2.659-4.57-2.659-4.57l-4.433,2.387c0,0,2.925,1.445,5.031,1.605C-28.277-57.546-27.589-56.6-27.589-56.6z" fill="#717171"></path><polygon style="" points="-23.891,-53.523 -24.476,-53.523 -25.75,-55.954 -26.504,-55.635 -26.802,-56.223 -25.599,-56.975 " fill="#494A4A"></polygon><path style="" d="M-34.799-60.23c0,0,0.489,1.19,3.057,1.693c2.397,0.333,3.617,1.027,4.153,1.937c0.719,1.22,1.735,3.374,1.735,3.374l-0.776,0.396c0,0-1.521-3.291-2.131-3.77c-0.609-0.479-2.801-1.242-3.478-1.276c-0.677-0.034-3.295-1.018-3.392-1.947C-35.174-59.918-34.799-60.23-34.799-60.23z" fill="#494A4A"></path><path style="" d="M-18.327-51.142c-0.489,0.112-1.097,0.223-1.157,0.097c-0.055-0.115,0.327-0.548,0.693-0.927l-2.101,1.092c0.253-0.033,0.505-0.021,0.575,0.144c0.069,0.162-0.016,0.433-0.128,0.685L-18.327-51.142z" fill="#676767"></path><path d="M-16.865-49.659c0,0-1.226,1.844-3.037,1.553c0.15,0.292,0.259,0.505,0.259,0.505s1.682,0.075,3.036-1.555C-16.83-49.591-16.865-49.659-16.865-49.659z"></path><g><path style="" d="M-4.523-31.986l-4.222-8.332l1.025-0.519c1.086,2.276,2.173,4.552,3.259,6.828C-4.482-33.334-4.502-32.66-4.523-31.986z" fill="#484949"></path><path style="" d="M-7.54-38.706c0,0,2.283,4.444,3.044,5.864c0.012-0.389,0.024-0.778,0.036-1.167c-0.763-1.598-1.526-3.196-2.288-4.795L-7.54-38.706z" fill="#050507"></path><path style="" d="M-1.602-37.288c-0.114-0.029-0.146-0.172-0.218-0.319c-0.095-0.194-0.191-0.389-0.286-0.583c-0.023-0.046-0.373-0.762-0.373-0.762c0.125-0.061,0.25-0.122,0.374-0.183c0.2-0.098,0.533-0.332,0.68-0.058c0.107,0.199,0.199,0.407,0.299,0.61c0.087,0.178,0.174,0.356,0.261,0.534c0.029,0.06,0.129,0.192,0.127,0.256c-0.002,0.083-0.107,0.156-0.167,0.2c-0.16,0.117-0.336,0.212-0.522,0.283C-1.502-37.282-1.558-37.277-1.602-37.288z" fill="#717171"></path><path style="" d="M-1.539-39.383c0.073,0.027,0.097,0.092-0.022,0.195c-0.137,0.119-0.296,0.219-0.465,0.285c-0.061,0.024-0.312,0.089-0.339-0.009c-0.004-0.016-0.001-0.033,0.004-0.049c0.039-0.124,0.158-0.204,0.273-0.265c0.107-0.057,0.218-0.106,0.331-0.148C-1.684-39.401-1.597-39.404-1.539-39.383z" fill="#FFFFFF"></path><path style="" d="M-1.779-28.961c-0.545-1.281-1.669-4.754-1.731-4.726c0.782-0.351,1.548-0.757,2.32-1.135c0.077-0.038,2.02,2.97,2.178,3.203c0.207,0.304,0.412,0.61,0.619,0.914c0.106,0.156-0.141,0.702-1.066,1.298C-1.397-28.159-1.696-28.765-1.779-28.961z" fill="#A6A6A6"></path><path style="" d="M-1.679-28.704c-0.018,0.364,0.711,1.523,0.825,1.749c0.173,0.342,0.491,0.332,0.821,0.271c0.343-0.063,0.685-0.194,1.002-0.337c0.653-0.296,1.246-0.726,1.726-1.262c0.034-0.038,0.068-0.078,0.078-0.128c0.013-0.062-0.015-0.126-0.042-0.184c-0.208-0.444-0.426-0.883-0.654-1.317c-0.059-0.112-0.216-0.559-0.34-0.595c-0.199-0.059-0.518,0.435-0.645,0.553c-0.246,0.229-0.519,0.427-0.812,0.591c-0.295,0.166-0.609,0.297-0.934,0.389c-0.174,0.05-0.352,0.088-0.531,0.115c-0.12,0.018-0.357-0.01-0.456,0.062C-1.665-28.778-1.677-28.746-1.679-28.704z" fill="#A6A6A6"></path><path style="" d="M2.076-29.911c-0.051-0.097-0.173-0.425-0.285-0.543l-0.884,0.876l1.091,1.923c0.248-0.191,0.486-0.395,0.696-0.628c0.034-0.038,0.068-0.078,0.078-0.128c0.013-0.062-0.015-0.126-0.042-0.184C2.522-29.038,2.304-29.477,2.076-29.911z" fill="#717171"></path><path style="" d="M2.773-28.41c0.013-0.062-0.015-0.126-0.042-0.184c-0.208-0.444-0.426-0.883-0.654-1.317c-0.051-0.096-0.172-0.422-0.283-0.542c-0.26,0.295-0.569,0.65-0.885,1.021c0.22,0.073,0.832-0.287,0.832-0.287l0.79,1.585c0.052-0.053,0.116-0.094,0.165-0.149C2.728-28.32,2.763-28.36,2.773-28.41z" fill="#484949"></path><path style="" d="M0.084-28.803l0.895,1.776c0.169-0.077,0.321-0.186,0.481-0.281l-0.897-1.746L0.084-28.803z" fill="#FFFFFF"></path><path style="" d="M0.978-27.026l-0.895-1.776l-1.139,0.162l0.936,1.969c0.029-0.004,0.057-0.006,0.086-0.011c0.343-0.063,0.685-0.194,1.002-0.337C0.972-27.022,0.975-27.025,0.978-27.026z" fill="#484949"></path><path style="" d="M0.988-31.618c-0.149-0.218-1.864-2.874-2.143-3.176l-0.421,0.35l2.859,4.435c0.31-0.332,0.391-0.595,0.323-0.695C1.4-31.008,1.195-31.314,0.988-31.618z" fill="#717171"></path><path style="" d="M-3.063-33.901l2.309,5.156c0.238-0.078,0.537-0.218,0.902-0.429l-2.636-5.002C-2.678-34.082-2.871-33.992-3.063-33.901z" fill="#484949"></path><path style="" d="M-2.503-34.169l2.651,4.995c0.128-0.074,0.247-0.138,0.393-0.232c0.076-0.049,0.141-0.097,0.208-0.146l-2.735-4.872C-2.158-34.338-2.33-34.255-2.503-34.169z" fill="#FFFFFF"></path><path style="" d="M-0.877-34.424c0,0-0.519,1.205-2.441,1.205c-0.034-0.094-0.191-0.468-0.191-0.468l2.356-1.107L-0.877-34.424z" fill="#1D1D24"></path><path style="" d="M-1.179-37.268c-0.064,0.067-0.145,0.144-0.224,0.22c-0.238-0.486-0.476-0.971-0.714-1.457c-0.357-0.727-0.713-1.455-1.07-2.182c-0.102-0.208-0.204-0.415-0.305-0.623c-0.037-0.076-0.042-0.109-0.113-0.133c-0.309-0.106-0.768,0.129-1.039,0.252c-0.594,0.269-1.187,0.546-1.754,0.869c-0.847,0.482-0.847,0.926-0.847,0.926s1.146,2.333,2.02,4.113c-0.002,0-0.004,0-0.005,0.001l1.011,2.063c0.557-0.098,1.315-0.292,2.147-0.697c0.85-0.414,1.48-0.904,1.904-1.288C-0.505-35.892-0.842-36.58-1.179-37.268z" fill="#484949"></path><path style="" d="M-1.67-36.803c0,0-1.507,1.367-2.58,1.344c-0.321-0.057-0.05-0.359,0.255-0.404c0.305-0.045,1.674-0.778,1.886-1.031s0.521-0.233,0.439,0" fill="#1D1D24"></path><path style="" d="M-1.332-36.894l-0.686,0.608l0.915,1.807c0.249-0.167,0.469-0.332,0.659-0.489L-1.332-36.894z" fill="#717171"></path><path style="" d="M-6.764-38.943c0,0-0.266-0.016-0.168,0.183c0.398,0.811,1.113,2.266,1.707,3.477c-0.002,0-0.004,0-0.005,0.001l1.011,2.063c0.145-0.026,0.306-0.059,0.476-0.1L-6.764-38.943z" fill="#DBDBDB"></path><path style="" d="M-3.944-35.954c-0.175-0.341-0.35-0.681-0.525-1.022c0.255-0.076,0.559-0.191,0.882-0.37c0.286-0.158,0.522-0.33,0.71-0.487c0.169,0.344,0.337,0.688,0.506,1.032c-0.262,0.208-0.593,0.429-0.997,0.619C-3.57-36.088-3.763-36.014-3.944-35.954z" fill="#717171"></path><path style="" d="M-4.851-37.364l-1.011-2.063c0.257-0.048,0.571-0.132,0.908-0.285c0.43-0.196,0.755-0.438,0.983-0.642c0.337,0.688,0.674,1.376,1.011,2.063c-0.259,0.192-0.58,0.397-0.967,0.58C-4.26-37.552-4.574-37.442-4.851-37.364z" fill="#717171"></path><path style="" d="M-9.012-43.667c-0.015-0.001-0.03-0.005-0.044-0.013c-0.027-0.016-0.043-0.046-0.056-0.075c-0.591-1.243-1.2-2.478-1.806-3.715l3.038-1.489c0,0,1.884,3.844,1.896,3.869c-0.046-0.094-1.108,0.776-1.181,0.823c-0.536,0.348-1.162,0.56-1.8,0.6C-8.98-43.666-8.996-43.665-9.012-43.667z" fill="#484949"></path><path style="" d="M-10.012-47.404l-0.129-0.447l-0.777,0.381c0.606,1.236,1.216,2.472,1.806,3.715c0.014,0.029,0.029,0.059,0.056,0.075c0.013,0.008,0.028,0.011,0.044,0.013c0.015,0.001,0.031,0.001,0.047,0c0.193-0.012,0.383-0.045,0.571-0.087L-10.012-47.404z" fill="#A6A6A6"></path><rect x="-7.261" y="-47.112" transform="matrix(0.898 -0.4401 0.4401 0.898 19.6628 -7.4208)" style="" width="2.181" height="2" fill="#484949"></rect><rect x="-7.542" y="-45.079" transform="matrix(0.898 -0.4401 0.4401 0.898 18.0319 -7.1554)" style="" width="2.255" height="5.234" fill="#484949"></rect><path style="" d="M-4.411-40.938c0,0-1.538,0.902-2.09,0.861c-0.197,0.106-0.267,0.424,0,0.521c0.267,0.098,2.373-0.766,2.414-1.104C-4.045-40.999-4.411-40.938-4.411-40.938z" fill="#1D1D24"></path><path style="" d="M-7.635-41.278l-0.681-1.389l3.64-1.784l0.681,1.389c-0.513,0.327-1.112,0.671-1.794,1.005C-6.453-41.734-7.075-41.479-7.635-41.278z" fill="#484949"></path><path style="" d="M-7.635-41.278c0.101-0.036,0.215-0.084,0.32-0.124c-0.125-0.316-0.529-1.018-0.748-1.389l-0.254,0.124L-7.635-41.278z" fill="#A6A6A6"></path><path style="" d="M-6.746-42.963c-0.221,0.109-0.453,0.203-0.698,0.232c-0.082,0.01-0.167,0.012-0.244-0.018c-0.077-0.03-0.143-0.097-0.151-0.179c-0.001-0.013-0.001-0.028,0.009-0.038c0.009-0.01,0.025-0.012,0.038-0.013c0.36-0.024,0.715-0.118,1.042-0.271c0.34-0.159,0.593-0.438,0.893-0.659c0.074,0.013,0.114,0.102,0.099,0.175c-0.015,0.074-0.068,0.133-0.123,0.184C-6.151-43.289-6.414-43.127-6.746-42.963z" fill="#A6A6A6"></path><path style="" d="M-5.61-43.578c0.337-0.135,0.665-0.293,0.98-0.475c0.062-0.036,0.132-0.101,0.099-0.164c-0.033-0.063-0.126-0.043-0.191-0.013c-0.276,0.127-0.542,0.274-0.797,0.439c-0.038,0.025-0.078,0.052-0.096,0.094c-0.018,0.042-0.002,0.101,0.042,0.112" fill="#A6A6A6"></path><path style="" d="M-10.88-47.319c-0.012-0.022-0.021-0.045-0.027-0.068c-0.047-0.173,0.037-0.369,0.146-0.498c0.417-0.494,1.013-0.804,1.614-1.016c0.363-0.128,1.316-0.49,1.403,0.142c0.059,0.429-0.453,0.737-0.765,0.921c-0.366,0.216-0.744,0.417-1.143,0.564c-0.313,0.115-0.747,0.309-1.062,0.122C-10.783-47.193-10.843-47.25-10.88-47.319z" fill="#717171"></path><path style="" d="M-10.046-47.785c-0.156,0.043-0.374,0.048-0.427-0.106c-0.116-0.34,1.231-1.04,1.566-1.04c0.531,0,0.555,0.265,0.16,0.538C-9.141-48.12-9.582-47.913-10.046-47.785z" fill="#050507"></path><path style="" d="M-9.05-46.988c0.113,0.24,1.343,2.912,1.38,2.9c0.323-0.112,0.65-0.226,0.94-0.406c0.213-0.133,0.489-0.319,0.56-0.578c0.078-0.284-0.151-0.662-0.263-0.923c-0.291-0.684-0.65-1.335-0.977-2.002c-0.026,0.007-0.047,0.028-0.064,0.05c-0.365,0.459-0.809,0.648-1.325,0.867C-8.879-47.047-8.963-47.016-9.05-46.988z" fill="#717171"></path><path style="" d="M-9.705-47.406c0.406-0.032,1.002-0.273,1.246-0.613c0.026-0.037,0.051-0.079,0.048-0.123c-0.005-0.067-0.072-0.115-0.138-0.122c-0.066-0.007-0.132,0.018-0.193,0.044c-0.34,0.141-0.734,0.322-1.026,0.549c-0.072,0.056-0.143,0.162-0.081,0.23C-9.816-47.403-9.757-47.401-9.705-47.406z" fill="#FFFFFF"></path><path style="" d="M-6.581-46.718c0.255-0.124,0.511-0.248,0.766-0.372c0.114-0.055,0.261-0.106,0.355-0.022c-0.224,0.228-0.522,0.365-0.814,0.496c-0.113,0.051-0.258,0.099-0.352,0.017c0.007-0.051,0.035-0.099,0.076-0.13" fill="#A6A6A6"></path><path style="" d="M-3.93-37.71c-0.12,0.06-0.24,0.11-0.36,0.16l-1.05-1.85l0.44-0.3l1.08,1.93C-3.85-37.75-3.89-37.73-3.93-37.71z" fill="#FFFFFF"></path><path style="" d="M-3.03-36.36c-0.1,0.06-0.22,0.12-0.34,0.18c-0.04,0.02-0.08,0.04-0.12,0.05l-0.56-0.99c0.15-0.06,0.3-0.14,0.46-0.23L-3.03-36.36z" fill="#FFFFFF"></path><path style="" d="M-3.36-38.03c-0.14,0.1-0.29,0.18-0.46,0.26L-4.9-39.7l0.1-0.09l0.33-0.29L-4.43-40L-3.36-38.03z" fill="#A6A6A6"></path><path style="" d="M-2.6-36.63c-0.13,0.09-0.27,0.19-0.43,0.27l-0.56-0.99c0.17-0.09,0.32-0.19,0.45-0.28L-2.6-36.63z" fill="#A6A6A6"></path><path style="" d="M-1.103-34.479l-0.987-1.949l-0.749,0.419l0.962,1.987C-1.592-34.17-1.334-34.323-1.103-34.479z" fill="#A6A6A6"></path><path style="" d="M-2.525-33.718c0.149-0.061,0.298-0.123,0.453-0.198c0.087-0.042,0.162-0.088,0.245-0.132l-0.92-1.906c-0.068,0.037-0.17-0.013-0.242,0.023c-0.188,0.094-0.313,0.278-0.492,0.348L-2.525-33.718z" fill="#FFFFFF"></path><path style="" d="M-6.927-38.529c-0.078-0.176-0.157-0.352-0.235-0.528c0.538-0.159,1.178-0.383,1.876-0.704c0.901-0.413,1.63-0.861,2.18-1.244c0.089,0.157,0.178,0.315,0.267,0.472c-0.55,0.394-1.289,0.861-2.211,1.29C-5.749-38.916-6.39-38.689-6.927-38.529z" fill="#DBDBDB"></path><path style="" d="M-3.748-40.397c0.016,0.007,0.032,0.016,0.042,0.031c0.022,0.034,0,0.078-0.024,0.111c-0.075,0.106-0.164,0.197-0.264,0.278c-0.214,0.174-0.474,0.299-0.73,0.411c-0.102,0.045-0.283,0.167-0.387,0.073c-0.057-0.051-0.051-0.146-0.007-0.209c0.043-0.063,0.113-0.1,0.181-0.136c0.231-0.122,0.488-0.229,0.698-0.384C-4.1-40.326-3.944-40.478-3.748-40.397z" fill="#FFFFFF"></path><path style="" d="M-2.988-35.931c-0.883,0.44-1.684,0.588-2.208,0.644l0.206,0.42c0.557-0.098,1.315-0.292,2.147-0.697c0.835-0.407,1.455-0.886,1.879-1.267c-0.071-0.146-0.143-0.292-0.214-0.437C-1.535-36.894-2.128-36.36-2.988-35.931z" fill="#A6A6A6"></path><path style="" d="M-1.572-36.791c0.061-0.045,0.146,0.041,0.165,0.102c0.027,0.084,0.001,0.097-0.045,0.17c-0.112,0.175-0.343,0.33-0.508,0.451c-0.351,0.255-0.748,0.447-1.167,0.56c-0.063,0.017-0.131,0.032-0.193,0.01C-3.383-35.52-3.43-35.594-3.4-35.652c0.017-0.033,0.052-0.051,0.085-0.067C-2.692-36.025-2.136-36.376-1.572-36.791z" fill="#DBDBDB"></path><path style="" d="M1.598-30.506c0.095-0.034,0.212-0.048,0.252,0.048c0.043,0.105-0.108,0.302-0.158,0.376c-0.124,0.183-0.279,0.348-0.437,0.499c-0.603,0.578-1.359,0.93-2.174,1.1c-0.201,0.042-0.465,0.008-0.667-0.052c-0.02-0.006-0.041-0.013-0.056-0.029c-0.015-0.016-0.022-0.038-0.027-0.059c-0.018-0.07-0.025-0.142-0.021-0.213c0.222,0.074,0.459-0.006,0.673-0.044c0.276-0.048,0.549-0.119,0.81-0.217c0.72-0.269,1.354-0.751,1.768-1.417c-0.007,0.029-0.032,0.05-0.06,0.052C1.526-30.476,1.561-30.492,1.598-30.506z" fill="#A6A6A6"></path><path style="" d="M-5-40.73l-0.536-1.161l-0.709,0.421l0.553,1.116C-5.693-40.354-5.246-40.412-5-40.73z" fill="#A8A8A8"></path><path style="" d="M-5.755-42.209l-0.539-1.107l-0.795,0.401l0.667,1.151C-6.422-41.763-5.802-42.026-5.755-42.209z" fill="#A8A8A8"></path><path style="" d="M-7.047-42.936L-7.081-42.9l0.659,1.137c0,0,0.191-0.082,0.369-0.185l-0.628-1.172L-7.047-42.936z" fill="#FFFFFF"></path><path style="" d="M-6.172-40.155c-0.025-0.098-0.625-1.064-0.625-1.064s-0.154-0.032-0.27-0.014l0.566,1.156l0,0C-6.501-40.077-6.147-40.057-6.172-40.155z" fill="#A6A6A6"></path><path style="" d="M-6.718-44.502L-8.127-47.4c-0.209,0.119-0.432,0.217-0.672,0.319c-0.081,0.034-0.164,0.065-0.251,0.093c0.113,0.24,1.343,2.912,1.38,2.9c0.323-0.112,0.65-0.226,0.94-0.406C-6.726-44.497-6.722-44.5-6.718-44.502z" fill="#A8A8A8"></path><path style="" d="M-7.67-44.089c0.148-0.051,0.296-0.104,0.442-0.163l-1.405-2.902c-0.055,0.024-0.109,0.048-0.166,0.072c-0.081,0.034-0.164,0.065-0.251,0.093C-8.937-46.749-7.706-44.076-7.67-44.089z" fill="#FFFFFF"></path><path style="" d="M-6.246-41.47l0.553,1.116c0,0,0.189-0.033,0.388-0.136l-0.642-1.158L-6.246-41.47z" fill="#FFFFFF"></path><path style="" d="M1.464-30.916c0,0-1.018,1.985-3.331,1.741c0.088,0.214,0.09,0.358,0.47,0.326s2.477-0.298,3.027-1.755C1.739-30.916,1.464-30.916,1.464-30.916z" fill="#050507"></path><path style="" d="M1.464-30.916c0,0-0.295,0.574-0.927,1.067c-0.543,0.424-1.224,0.922-0.643,0.717c0.687-0.242,1.438-0.682,1.736-1.471C1.739-30.916,1.464-30.916,1.464-30.916z" fill="#484949"></path></g><path d="M-18.878-31.204l3.626-1.918c0,0,0.238,0.181,0.091,0.426s-3.298,2.066-3.298,2.066L-18.878-31.204z"></path></g><g><path style="" d="M-18.814-26.649c0,0-1.743-0.506-1.86-0.693c-0.089-0.142-0.244-0.763-0.266-1.342c0,0-0.375,1.018-0.673,1.179c-0.172,0.093-1.304,0.207-1.951,0.154c0,0,1.704,0.528,1.827,0.684c0.132,0.168,0.235,0.643,0.305,1.31c0,0,0.489-1.037,0.669-1.154C-20.616-26.606-19.461-26.701-18.814-26.649z" fill="#FFFFFF" fill-opacity="0.22"></path><path style="" d="M-20.915-27.034c-0.007,0-0.089,0.001-0.139-0.069c-0.048-0.067-0.026-0.142-0.023-0.149c0.03-0.374,0.061-0.749,0.091-1.123l-0.238,1.101c-0.004,0.018-0.02,0.072-0.07,0.114c-0.061,0.051-0.131,0.049-0.147,0.048c-0.374-0.03-0.749-0.061-1.123-0.091l1.101,0.238c0.01,0,0.084,0.005,0.133,0.07c0.049,0.066,0.031,0.138,0.029,0.148c-0.03,0.374-0.061,0.749-0.091,1.123l0.238-1.101c0.001-0.009,0.013-0.101,0.094-0.145c0.054-0.029,0.107-0.02,0.123-0.017c0.374,0.03,0.749,0.061,1.123,0.091L-20.915-27.034z" fill="#FFFFFF" fill-opacity="0.79"></path><path style="" d="M-17.986-26.526c0,0-2.855-0.576-2.939-0.71c-0.064-0.102,0.138-2.094,0.209-2.966c0,0-0.58,2.821-0.675,2.897c-0.11,0.088-2.129-0.097-3.001-0.168c0,0,2.844,0.548,2.932,0.66c0.095,0.121-0.132,2.144-0.202,3.016c0,0,0.572-2.858,0.702-2.942C-20.855-26.808-18.858-26.597-17.986-26.526z" fill="#FFFFFF" fill-opacity="0.22"></path><path style="" d="M-21.092-27.012c-0.003,0-0.031,0-0.049-0.024c-0.017-0.024-0.009-0.05-0.008-0.053c0.011-0.133,0.022-0.266,0.032-0.398l-0.084,0.391c-0.002,0.006-0.007,0.025-0.025,0.04c-0.022,0.018-0.047,0.017-0.052,0.017c-0.133-0.011-0.266-0.022-0.398-0.032l0.391,0.084c0.003,0,0.03,0.002,0.047,0.025c0.017,0.023,0.011,0.049,0.01,0.052c-0.011,0.133-0.022,0.266-0.032,0.398l0.084-0.391c0-0.003,0.004-0.036,0.033-0.051c0.019-0.01,0.038-0.007,0.044-0.006c0.133,0.011,0.266,0.022,0.398,0.032L-21.092-27.012z" fill="#FFFFFF"></path></g><g><path style="" d="M-5.252-48.979c0,0-1.654-0.161-1.79-0.309c-0.104-0.113-0.348-0.645-0.466-1.163c0,0-0.166,0.979-0.406,1.174c-0.139,0.113-1.139,0.406-1.729,0.468c0,0,1.622,0.188,1.759,0.307c0.147,0.129,0.32,0.539,0.495,1.127c0,0,0.265-1.015,0.407-1.151C-6.866-48.637-5.842-48.917-5.252-48.979z" fill="#FFFFFF" fill-opacity="0.22"></path><path style="" d="M-7.207-48.971c-0.006,0.001-0.08,0.015-0.136-0.038c-0.055-0.052-0.047-0.123-0.046-0.13c-0.036-0.342-0.072-0.684-0.107-1.026l-0.028,1.031c-0.001,0.017-0.006,0.068-0.044,0.114c-0.047,0.056-0.11,0.066-0.125,0.068c-0.342,0.036-0.684,0.072-1.026,0.107l1.031,0.028c0.009-0.001,0.077-0.01,0.132,0.041c0.055,0.051,0.051,0.119,0.051,0.128c0.036,0.342,0.072,0.684,0.107,1.026l0.028-1.031c-0.001-0.008-0.006-0.093,0.061-0.146c0.044-0.035,0.093-0.036,0.108-0.036c0.342-0.036,0.684-0.072,1.026-0.107L-7.207-48.971z" fill="#FFFFFF" fill-opacity="0.79"></path><path style="" d="M-4.486-49.008c0,0-2.666-0.037-2.764-0.143c-0.075-0.081-0.229-1.908-0.312-2.704c0,0-0.046,2.636-0.119,2.721c-0.084,0.098-1.932,0.272-2.728,0.355c0,0,2.651,0.014,2.749,0.099c0.106,0.093,0.243,1.951,0.327,2.748c0,0,0.032-2.668,0.135-2.766C-7.115-48.778-5.282-48.925-4.486-49.008z" fill="#FFFFFF" fill-opacity="0.22"></path><path style="" d="M-7.362-48.922c-0.002,0-0.028,0.005-0.048-0.014c-0.019-0.018-0.017-0.044-0.016-0.046c-0.013-0.121-0.025-0.243-0.038-0.364l-0.01,0.366c0,0.006-0.002,0.024-0.016,0.04c-0.017,0.02-0.039,0.023-0.044,0.024c-0.121,0.013-0.243,0.025-0.364,0.038l0.366,0.01c0.003,0,0.027-0.004,0.047,0.014c0.019,0.018,0.018,0.042,0.018,0.045c0.013,0.121,0.025,0.243,0.038,0.364l0.01-0.366c0-0.003-0.002-0.033,0.021-0.052c0.016-0.013,0.033-0.013,0.038-0.013c0.121-0.013,0.243-0.025,0.364-0.038L-7.362-48.922z" fill="#FFFFFF"></path></g><g><path style="" d="M2.119-27.025c0,0-1.176,0.231-1.301,0.157c-0.095-0.057-0.374-0.374-0.562-0.707c0,0,0.088,0.711-0.038,0.895c-0.073,0.107-0.703,0.516-1.098,0.681c0,0,1.16-0.206,1.279-0.152c0.128,0.058,0.332,0.306,0.576,0.676c0,0-0.027-0.756,0.043-0.88C1.074-26.454,1.723-26.86,2.119-27.025z" fill="#FFFFFF" fill-opacity="0.22"></path><path style="" d="M0.769-26.615c-0.004,0.002-0.052,0.027-0.102,0.002c-0.049-0.025-0.058-0.075-0.059-0.08c-0.096-0.229-0.191-0.458-0.287-0.687l0.194,0.718c0.003,0.012,0.01,0.048-0.007,0.088c-0.021,0.049-0.062,0.068-0.072,0.073c-0.229,0.096-0.458,0.191-0.687,0.287l0.718-0.194c0.006-0.003,0.051-0.023,0.099,0.001c0.048,0.024,0.06,0.072,0.062,0.078c0.096,0.229,0.191,0.458,0.287,0.687l-0.194-0.718c-0.002-0.005-0.023-0.063,0.012-0.114c0.023-0.033,0.057-0.044,0.067-0.047c0.229-0.096,0.458-0.191,0.687-0.287L0.769-26.615z" fill="#FFFFFF" fill-opacity="0.79"></path><path style="" d="M2.642-27.204c0,0-1.85,0.527-1.939,0.473c-0.068-0.041-0.553-1.271-0.776-1.804c0,0,0.514,1.831,0.481,1.904c-0.038,0.085-1.279,0.588-1.812,0.81c0,0,1.834-0.54,1.92-0.501c0.092,0.042,0.572,1.298,0.795,1.831c0,0-0.53-1.85-0.479-1.939C0.873-26.5,2.109-26.982,2.642-27.204z" fill="#FFFFFF" fill-opacity="0.22"></path><path style="" d="M0.672-26.548c-0.001,0.001-0.018,0.01-0.036,0.001c-0.017-0.009-0.021-0.027-0.021-0.029c-0.034-0.081-0.068-0.162-0.102-0.243l0.069,0.255c0.001,0.004,0.004,0.017-0.002,0.031c-0.007,0.017-0.022,0.024-0.026,0.026c-0.081,0.034-0.162,0.068-0.243,0.102l0.255-0.069c0.002-0.001,0.018-0.008,0.035,0c0.017,0.008,0.021,0.025,0.022,0.028c0.034,0.081,0.068,0.162,0.102,0.243l-0.069-0.255c-0.001-0.002-0.008-0.022,0.004-0.04c0.008-0.012,0.02-0.016,0.024-0.017c0.081-0.034,0.162-0.068,0.243-0.102L0.672-26.548z" fill="#FFFFFF"></path></g><g><path style="" d="M10.295-0.944c0,0-0.759,0.928-0.902,0.95C9.284,0.023,8.866-0.044,8.509-0.18c0,0,0.521,0.491,0.542,0.714C9.063,0.662,8.839,1.379,8.64,1.758c0,0,0.762-0.899,0.888-0.933c0.136-0.037,0.451,0.024,0.875,0.154c0,0-0.503-0.565-0.528-0.705C9.855,0.161,10.096-0.565,10.295-0.944z" fill="#FFFFFF" fill-opacity="0.22"></path><path style="" d="M9.517,0.232C9.516,0.236,9.495,0.286,9.44,0.298C9.386,0.31,9.347,0.277,9.343,0.274c-0.22-0.115-0.439-0.231-0.659-0.346l0.608,0.429c0.01,0.007,0.038,0.03,0.051,0.072C9.358,0.48,9.339,0.521,9.334,0.531C9.219,0.751,9.103,0.97,8.988,1.19l0.429-0.608c0.003-0.006,0.025-0.05,0.077-0.063C9.547,0.507,9.586,0.536,9.591,0.54c0.22,0.115,0.439,0.231,0.659,0.346L9.642,0.457C9.637,0.454,9.584,0.423,9.579,0.362c-0.004-0.04,0.016-0.07,0.022-0.079c0.115-0.22,0.231-0.439,0.346-0.659L9.517,0.232z" fill="#FFFFFF" fill-opacity="0.79"></path><path style="" d="M10.584-1.416c0,0-1.089,1.585-1.192,1.601C9.313,0.197,8.156-0.441,7.644-0.71c0,0,1.563,1.082,1.585,1.16c0.025,0.09-0.61,1.268-0.879,1.779c0,0,1.069-1.585,1.16-1.61c0.098-0.026,1.268,0.635,1.78,0.904c0,0-1.588-1.087-1.606-1.188C9.67,0.254,10.315-0.905,10.584-1.416z" fill="#FFFFFF" fill-opacity="0.22"></path><path style="" d="M9.485,0.345C9.484,0.346,9.477,0.364,9.458,0.368C9.439,0.373,9.425,0.361,9.423,0.36C9.345,0.319,9.268,0.278,9.19,0.237l0.215,0.152C9.409,0.392,9.419,0.4,9.423,0.415C9.429,0.433,9.422,0.448,9.42,0.451C9.379,0.529,9.338,0.607,9.297,0.684L9.45,0.469c0.001-0.002,0.009-0.018,0.027-0.022C9.495,0.442,9.51,0.453,9.511,0.454c0.078,0.041,0.156,0.082,0.234,0.123L9.529,0.425C9.528,0.424,9.509,0.413,9.507,0.391C9.506,0.377,9.512,0.366,9.515,0.363c0.041-0.078,0.082-0.156,0.123-0.234L9.485,0.345z" fill="#FFFFFF"></path></g><g><path style="" d="M-3.739-16.723c0,0-1.009,0.117-1.11,0.046c-0.076-0.054-0.291-0.341-0.428-0.635c0,0,0.027,0.607-0.091,0.754c-0.069,0.085-0.628,0.39-0.973,0.503c0,0,0.994-0.097,1.091-0.044c0.105,0.058,0.261,0.281,0.441,0.61c0,0,0.027-0.641,0.095-0.74C-4.659-16.31-4.084-16.61-3.739-16.723z" fill="#FFFFFF" fill-opacity="0.22"></path><path style="" d="M-4.906-16.466c-0.004,0.002-0.046,0.02-0.086-0.005c-0.04-0.024-0.044-0.067-0.044-0.072c-0.066-0.2-0.131-0.399-0.197-0.599l0.116,0.62c0.002,0.01,0.005,0.041-0.012,0.074c-0.021,0.04-0.057,0.054-0.066,0.057c-0.2,0.066-0.399,0.131-0.599,0.197l0.62-0.116c0.005-0.002,0.044-0.016,0.084,0.007c0.039,0.023,0.046,0.065,0.047,0.07c0.066,0.2,0.131,0.399,0.197,0.599l-0.116-0.62c-0.001-0.005-0.015-0.055,0.017-0.095c0.022-0.027,0.051-0.034,0.06-0.035c0.2-0.066,0.399-0.131,0.599-0.197L-4.906-16.466z" fill="#FFFFFF" fill-opacity="0.79"></path><path style="" d="M-3.285-16.84c0,0-1.598,0.322-1.67,0.271c-0.055-0.039-0.383-1.111-0.536-1.576c0,0,0.313,1.581,0.28,1.641c-0.038,0.069-1.119,0.412-1.585,0.564c0,0,1.586-0.334,1.656-0.295c0.075,0.042,0.397,1.135,0.55,1.6c0,0-0.325-1.599-0.276-1.67C-4.826-16.363-3.75-16.687-3.285-16.84z" fill="#FFFFFF" fill-opacity="0.22"></path><path style="" d="M-4.993-16.416c-0.001,0.001-0.016,0.007-0.031-0.002c-0.014-0.009-0.016-0.024-0.016-0.025c-0.023-0.071-0.046-0.142-0.07-0.213l0.041,0.22c0.001,0.004,0.002,0.015-0.004,0.026c-0.007,0.014-0.02,0.019-0.023,0.02c-0.071,0.023-0.142,0.046-0.213,0.07l0.22-0.041c0.002-0.001,0.016-0.006,0.03,0.003c0.014,0.008,0.016,0.023,0.017,0.025c0.023,0.071,0.046,0.142,0.07,0.213l-0.041-0.22c-0.001-0.002-0.005-0.019,0.006-0.034c0.008-0.009,0.018-0.012,0.021-0.013c0.071-0.023,0.142-0.046,0.213-0.07L-4.993-16.416z" fill="#FFFFFF"></path></g><g><path style="" d="M-24.963-40.092c0,0-0.97,0.099-1.066,0.029c-0.073-0.053-0.275-0.331-0.403-0.615c0,0,0.018,0.583-0.098,0.723c-0.067,0.081-0.608,0.366-0.941,0.469c0,0,0.955-0.08,1.048-0.027c0.1,0.057,0.246,0.273,0.415,0.591c0,0,0.035-0.615,0.101-0.71C-25.852-39.708-25.296-39.988-24.963-40.092z" fill="#FFFFFF" fill-opacity="0.22"></path><path style="" d="M-26.087-39.861c-0.004,0.002-0.044,0.018-0.083-0.006c-0.038-0.024-0.041-0.065-0.041-0.07c-0.06-0.193-0.12-0.385-0.181-0.578l0.103,0.597c0.001,0.01,0.005,0.04-0.012,0.071c-0.02,0.038-0.055,0.051-0.064,0.054c-0.193,0.06-0.385,0.12-0.578,0.181l0.597-0.103c0.005-0.002,0.043-0.015,0.08,0.008c0.037,0.023,0.043,0.063,0.044,0.068c0.06,0.193,0.12,0.385,0.181,0.578l-0.103-0.597c-0.001-0.005-0.014-0.053,0.018-0.091c0.021-0.025,0.049-0.032,0.058-0.033c0.193-0.06,0.385-0.12,0.578-0.181L-26.087-39.861z" fill="#FFFFFF" fill-opacity="0.79"></path><path style="" d="M-24.526-40.198c0,0-1.538,0.288-1.607,0.238c-0.052-0.038-0.353-1.071-0.493-1.52c0,0,0.279,1.522,0.247,1.579c-0.037,0.066-1.08,0.38-1.529,0.521c0,0,1.527-0.299,1.594-0.261c0.072,0.041,0.366,1.095,0.506,1.543c0,0-0.29-1.539-0.243-1.607C-26.012-39.761-24.974-40.058-24.526-40.198z" fill="#FFFFFF" fill-opacity="0.22"></path><path style="" d="M-26.171-39.815c-0.001,0.001-0.016,0.006-0.029-0.002c-0.013-0.008-0.015-0.023-0.015-0.025c-0.021-0.068-0.043-0.137-0.064-0.205l0.037,0.212c0.001,0.004,0.002,0.014-0.004,0.025c-0.007,0.013-0.02,0.018-0.023,0.019c-0.068,0.021-0.137,0.043-0.205,0.064l0.212-0.037c0.002-0.001,0.015-0.005,0.029,0.003c0.013,0.008,0.015,0.022,0.016,0.024c0.021,0.068,0.043,0.137,0.064,0.205l-0.037-0.212c0-0.002-0.005-0.019,0.006-0.032c0.007-0.009,0.017-0.011,0.021-0.012c0.068-0.021,0.137-0.043,0.205-0.064L-26.171-39.815z" fill="#FFFFFF"></path></g><g><path style="" d="M-22.878-67.805c0,0-0.97,0.099-1.066,0.029c-0.073-0.053-0.275-0.331-0.403-0.615c0,0,0.018,0.583-0.098,0.723c-0.067,0.081-0.608,0.366-0.941,0.469c0,0,0.955-0.08,1.048-0.027c0.1,0.057,0.246,0.273,0.415,0.591c0,0,0.035-0.615,0.101-0.71C-23.767-67.421-23.21-67.701-22.878-67.805z" fill="#FFFFFF" fill-opacity="0.22"></path><path style="" d="M-24.002-67.574c-0.004,0.002-0.044,0.018-0.083-0.006c-0.038-0.024-0.041-0.065-0.041-0.07c-0.06-0.193-0.12-0.385-0.181-0.578l0.103,0.597c0.001,0.01,0.005,0.04-0.012,0.071c-0.02,0.038-0.055,0.051-0.064,0.054c-0.193,0.06-0.385,0.12-0.578,0.181l0.597-0.103c0.005-0.002,0.043-0.015,0.08,0.008c0.037,0.023,0.043,0.063,0.044,0.068c0.06,0.193,0.12,0.385,0.181,0.578l-0.103-0.597c-0.001-0.005-0.014-0.053,0.018-0.091c0.021-0.025,0.049-0.032,0.058-0.033c0.193-0.06,0.385-0.12,0.578-0.181L-24.002-67.574z" fill="#FFFFFF" fill-opacity="0.79"></path><path style="" d="M-22.44-67.911c0,0-1.538,0.288-1.607,0.238c-0.052-0.038-0.353-1.071-0.493-1.52c0,0,0.279,1.522,0.247,1.579c-0.037,0.066-1.08,0.38-1.529,0.521c0,0,1.527-0.299,1.594-0.261c0.072,0.041,0.366,1.095,0.506,1.543c0,0-0.29-1.539-0.243-1.607C-23.926-67.473-22.889-67.77-22.44-67.911z" fill="#FFFFFF" fill-opacity="0.22"></path><path style="" d="M-24.085-67.527c-0.001,0.001-0.016,0.006-0.029-0.002c-0.013-0.008-0.015-0.023-0.015-0.025c-0.021-0.068-0.043-0.137-0.064-0.205l0.037,0.212c0.001,0.004,0.002,0.014-0.004,0.025c-0.007,0.013-0.02,0.018-0.023,0.019c-0.068,0.021-0.137,0.043-0.205,0.064l0.212-0.037c0.002-0.001,0.015-0.005,0.029,0.003c0.013,0.008,0.015,0.022,0.016,0.024c0.021,0.068,0.043,0.137,0.064,0.205l-0.037-0.212c0-0.002-0.005-0.019,0.006-0.032c0.007-0.009,0.017-0.011,0.021-0.012c0.068-0.021,0.137-0.043,0.205-0.064L-24.085-67.527z" fill="#FFFFFF"></path></g><g><path style="" d="M2.514-36.177c0,0-2.182-0.634-2.328-0.867c-0.111-0.178-0.305-0.955-0.333-1.68c0,0-0.469,1.274-0.842,1.475c-0.216,0.116-1.633,0.259-2.442,0.193c0,0,2.133,0.661,2.287,0.856c0.165,0.21,0.294,0.804,0.381,1.64c0,0,0.611-1.297,0.837-1.444C0.26-36.124,1.705-36.243,2.514-36.177z" fill="#FFFFFF" fill-opacity="0.22"></path><path style="" d="M-0.115-36.66c-0.009,0-0.111,0.001-0.173-0.086c-0.061-0.084-0.032-0.177-0.029-0.187c0.038-0.469,0.076-0.937,0.114-1.406L-0.5-36.959c-0.006,0.023-0.025,0.09-0.088,0.142c-0.077,0.064-0.164,0.061-0.185,0.06c-0.469-0.038-0.937-0.076-1.406-0.114l1.379,0.297c0.012,0,0.106,0.006,0.167,0.088c0.061,0.082,0.039,0.173,0.036,0.185c-0.038,0.469-0.076,0.937-0.114,1.406l0.297-1.379c0.001-0.011,0.016-0.126,0.118-0.181c0.068-0.036,0.134-0.025,0.154-0.021c0.469,0.038,0.937,0.076,1.406,0.114L-0.115-36.66z" fill="#FFFFFF" fill-opacity="0.79"></path><path style="" d="M3.551-36.024c0,0-3.573-0.721-3.678-0.889c-0.08-0.128,0.173-2.621,0.262-3.713c0,0-0.726,3.531-0.845,3.626c-0.138,0.11-2.665-0.121-3.756-0.21c0,0,3.559,0.686,3.67,0.826c0.119,0.151-0.165,2.684-0.253,3.775c0,0,0.716-3.577,0.878-3.683C-0.04-36.377,2.46-36.113,3.551-36.024z" fill="#FFFFFF" fill-opacity="0.22"></path><path style="" d="M-0.336-36.632c-0.003,0-0.039,0-0.062-0.03c-0.022-0.03-0.011-0.063-0.01-0.066c0.013-0.166,0.027-0.332,0.04-0.499l-0.105,0.489c-0.002,0.008-0.009,0.032-0.031,0.05c-0.027,0.023-0.058,0.022-0.065,0.021c-0.166-0.013-0.332-0.027-0.499-0.04l0.489,0.105c0.004,0,0.037,0.002,0.059,0.031c0.022,0.029,0.014,0.061,0.013,0.066c-0.013,0.166-0.027,0.332-0.04,0.499l0.105-0.489c0-0.004,0.006-0.045,0.042-0.064c0.024-0.013,0.048-0.009,0.055-0.007c0.166,0.014,0.332,0.027,0.499,0.04L-0.336-36.632z" fill="#FFFFFF"></path></g></g></svg>