<svg xmlns:xlink="http://www.w3.org/1999/xlink" xmlns="http://www.w3.org/2000/svg" viewBox="-33.86259078979492 -152.56614685058594 55.53127670288086 158.212890625" width="406" height="325"><!--00009-00580001000017--><g><path style="" d="M-7.576-127.348c0.234,2.535,0.569,5.112,0.522,7.685c-0.031,1.71,0.584,3.492,0.321,5.154c-0.256,1.617-0.518,2.714-0.496,4.397c0.023,1.776,0.026,3.565-0.488,5.248c-0.209,0.683-0.501,1.313-0.712,1.994c-0.591,1.904-0.523,4.1-1.16,5.975c-0.178-1.033-0.235-2.105-0.291-3.171c-0.053-1.009-0.106-2.017-0.16-3.026c-0.022-0.409-0.043-0.819-0.021-1.23c0.067-1.22,0.562-2.255,0.713-3.412c0.182-1.388-0.24-2.737-0.112-4.125c0.116-1.249,0.407-2.492,0.566-3.739c0.18-1.415-0.2-2.598-0.108-3.968c0.191-2.826,0.517-5.64,0.976-8.415c0.05-0.304,0.126-0.649,0.327-0.779C-7.661-128.291-7.62-127.82-7.576-127.348z" fill="#E6BBA8"></path><g><path style="" d="M-8.765-122.338c0.009-0.094,0.143-0.303,0.177-0.407c0.074-0.222,0.124-0.468,0.174-0.702c0.101-0.475,0.172-0.96,0.237-1.445c0.166-1.248,0.357-2.499,0.391-3.765c-0.004,0.162-0.206,0.479-0.239,0.676c-0.146,0.883-0.233,1.807-0.397,2.688C-8.553-124.311-8.667-123.326-8.765-122.338z" fill="#B37E78" fill-opacity="0.5"></path><path style="" d="M-9.748-102.429c0.013-0.86,0.065-1.72,0.154-2.566c0.133-1.266,0.689-2.44,0.737-3.735c0.033-0.87-0.18-1.767-0.175-2.649c0.006-0.969,0.15-1.925,0.256-2.882c0.081-0.733,0.251-1.673,0.177-2.399c-0.041-0.401-0.151-0.775-0.28-1.131c-0.023-0.064-0.046-0.109-0.07-0.153c0.072,0.758,0.16,1.512,0.053,2.346c-0.159,1.247-0.45,2.49-0.566,3.739c-0.129,1.388,0.294,2.737,0.112,4.125c-0.083,0.634-0.377,1.224-0.533,1.841c-0.581,2.301-0.093,4.709,0.071,7.037c0.024,0.345,0.053,0.689,0.091,1.03c0.02,0.175,0.179,0.786,0.13,0.931c0.047-0.138,0.083-0.282,0.123-0.424c-0.008-0.981-0.156-1.878-0.223-2.852C-9.741-100.915-9.76-101.671-9.748-102.429z" fill="#B37E78" fill-opacity="0.5"></path></g><path style="" d="M-8.729-110.164c0.007,0.004,0.014,0.006,0.022,0.006c0.088,0.003,0.107-0.217,0.194-0.235c0.057-0.012,0.097,0.074,0.117,0.15c0.177,0.687-0.089,1.516-0.182,2.205c-0.108,0.8-0.466,1.553-0.683,2.305c-0.576,1.999-0.399,4.289-0.171,6.338c-0.065-0.589,0.189-1.513,0.29-2.094c0.019-0.11,0.435-2.393,0.725-1.649c0.056,0.144-0.024,0.332,0.008,0.491c0.178-0.758,0.435-1.482,0.761-2.141c-0.127,0.066-0.278,0.128-0.384,0.017c-0.11-0.116-0.104-0.352-0.072-0.546c0.17-1.027,0.511-1.914,0.556-2.981c0.048-1.136-0.024-2.274,0.087-3.407c0.107-1.091,0.389-2.178,0.344-3.285c-0.043-1.063-0.024-2.133-0.065-3.202c-0.072-1.891-0.144-3.783-0.216-5.674c-0.035-0.92-0.106-1.841-0.221-2.744c-0.01-0.082-0.047-0.186-0.104-0.161c-0.22,1.58-0.368,3.2-0.495,4.79c-0.129,1.62-0.197,3.265-0.036,4.873c0.086,0.851,0.145,1.744,0.18,2.61c0.012,0.307,0.064,0.793-0.063,1.077c-0.158,0.35-0.28,0.066-0.464,0.197c-0.462,0.328-0.219,2.322-0.191,2.87C-8.79-110.28-8.773-110.188-8.729-110.164z" fill="#F4D5BF"></path><path style="" d="M-8.695-103.241c0.235-0.913,0.55-1.786,0.779-2.702c0.174-0.697,0.377-1.367,0.564-2.036c0.219-0.785,0.012-1.758,0.083-2.575c0.058-0.663,0.084-1.329,0.131-1.993c0.036-0.508,0.158-0.797,0.258-1.248c0.208-0.936-0.381-1.655-0.411-2.548c-0.042-1.266-0.138-2.529-0.098-3.802c0.046-1.485,0.015-2.985-0.167-4.441c-0.015-0.117-0.059-0.266-0.143-0.248c-0.304,2.002-0.174,4.166-0.229,6.193c-0.025,0.91-0.027,1.8,0.086,2.686c0.127,0.996,0.21,1.999,0.414,2.965c0.206,0.975,0.07,2.021-0.165,2.979c-0.11,0.449-0.307,0.869-0.407,1.323c-0.117,0.531-0.126,1.079-0.222,1.613c-0.274,1.531-0.995,2.906-1.064,4.474c-0.048,1.104-0.097,2.207-0.145,3.311c0.145-0.822,0.29-1.644,0.435-2.465C-8.908-102.254-8.819-102.755-8.695-103.241z" fill="#FFFFFF" fill-opacity="0.25"></path></g><!---0030-00510001100017--><!---0028-00660001100022--><g></g><!---0024-00840001300025--><g></g></svg>