<svg xmlns:xlink="http://www.w3.org/1999/xlink" xmlns="http://www.w3.org/2000/svg" viewBox="-40.94377899169922 -146.29818725585938 68.82828521728516 163.4471893310547" preserveAspectRatio="xMidYMid meet" width="300"  height="400"><!---0004-00880002400029--><g><path style="" d="M7.567-83.996c-2.652-2.298-9.003,0.421-7.584,5.1c1.914,6.314,3.798,16.414,3.798,16.414s4.405,1.179,7.577-0.346c4.137-1.989,6.185-5.44,6.185-5.44s-0.487-0.425-2.009-3.039C12.734-76.112,8.724-83.194,7.567-83.996z" fill="#3FA2FF"></path><path style="" d="M7.567-83.996c-2.652-2.298-9.003,0.421-7.584,5.1c1.914,6.314,3.798,16.414,3.798,16.414s4.405,1.179,7.577-0.346c4.137-1.989,6.185-5.44,6.185-5.44s-0.487-0.425-2.009-3.039C12.734-76.112,8.724-83.194,7.567-83.996z" fill="#000007" fill-opacity="0.2"></path><path style="" d="M13.313-75.13c-0.001-0.002-0.002-0.003-0.003-0.005c-0.049,0.12-4.445,7.507-4.445,7.507S5.754-80.95,0.075-81.678c-0.324,0.811-0.407,1.744-0.092,2.782c1.914,6.314,3.798,16.414,3.798,16.414s3.183,0.846,6.086,0.165c-0.113-0.333-0.181-0.61-0.153-0.749C11.941-65.93,13.243-74.832,13.313-75.13z" fill="#000007" fill-opacity="0.3"></path><path style="" d="M1.001-75.205c2.094-0.128,6.684-0.938,9.06-5.366c-0.107-0.171-0.212-0.339-0.316-0.501c-2.261,4.519-6.897,5.272-8.871,5.374C0.917-75.534,0.959-75.369,1.001-75.205z" fill="#000007" fill-opacity="0.2"></path></g><!---0022-00890003500046--><g><path style="" d="M-11.12-85.702c-2.169,1.021-5.23,2.246-5.868,3.65c-0.638,1.404,0.706,19.77,0.583,20.974c-0.145,1.42-1.989,11.693-1.989,11.693c1.909,1.591,9.438,3.69,16.705,3.182c8.249-0.576,11.455-3.421,11.455-3.421s-0.969-9.752-0.981-14.266c-0.01-3.429-0.326-9.592-0.381-10.583c-0.128-2.297-0.051-8.603-0.786-9.277c-0.955-0.875-4.191-2.208-4.191-2.208s-1.044,3.249-7.477,3.405C-9.634-82.416-11.12-85.702-11.12-85.702z" fill="#3FA2FF"></path><path style="" d="M-1.174-78.469c4.754-1.354,5.679-3.546,5.679-3.546s-0.571,5.87-4.995,7.029c-4.424,1.159-7.588-4.043-7.588-4.043S-3.633-77.769-1.174-78.469z" fill="#FFFFFF" fill-opacity="0.3"></path><path style="" d="M4.881-85.315c-0.153-0.071-0.299-0.138-0.437-0.2l-0.047-0.004c0.1,0.546-0.058,1.172-0.428,1.682c-0.924,1.272-3.247,2.298-6.062,2.678c-4.513,0.606-9.333-1.735-10.119-4.062c-0.151,0.063-0.302,0.127-0.455,0.19c-0.002,0.001-0.005,0.002-0.007,0.003c0.118,0.329,0.311,0.656,0.555,0.976l-0.565,0.302c-2.31,1.232-3.835,2.046-4.247,3.178c-0.036,0.098-0.13,0.332-0.267,0.661c-0.004,0.398-0.003,0.829,0.002,1.289c0.396-0.94,0.664-1.587,0.734-1.778c0.346-0.951,1.805-1.729,4.013-2.907l0.659-0.353c1.59,1.71,4.809,3.102,8.188,3.102c0.523,0,1.051-0.034,1.576-0.104c2.99-0.403,5.382-1.479,6.4-2.879C4.782-84.105,4.942-84.701,4.881-85.315z" fill="#000007" fill-opacity="0.2"></path><g><path d="M4.486-68.284c-0.16-0.192-0.275-0.382-0.359-0.555c-1.48-0.284-2.96-0.355-4.44-0.292c0.072,0.582,0.498,3.781,1.077,4.017L0.9-65.07H1c0.231,0,0.833-0.113,1.081-0.161l0.444-0.087c0,0-0.104-1.117-0.158-1.673c0.23,0.219,0.505,0.44,0.834,0.648c1.347,0.849,1.952,0.952,2.06,0.964l0.342,0.038l0.882-1.712l-0.513-0.204C5.711-67.36,4.935-67.747,4.486-68.284z"></path><g><path d="M-3.802-72.318c0.012-0.265,0.099-0.808,0.174-1.235l0.276-0.058c-0.031,0.473-0.067,1.14-0.088,1.807c0.858,0.073,1.707,0.174,2.551,0.289c0.026-0.478,0.06-0.956,0.103-1.402c0.08,0.029,0.167,0.047,0.262,0.047c0.002,0,0.003,0,0.005,0c0.094-0.008,0.367-0.053,0.612-0.094l0.026,0.09c-0.382,0.163-0.47,0.323-0.509,0.394c-0.042,0.075-0.103,0.207-0.081,1.028c1.626,0.236,3.217,0.551,4.756,0.943c-0.01-0.031-0.006-0.062-0.02-0.093c-0.111-0.24-0.509-0.926-1.059-1.867c-0.242-0.414-0.457-0.782-0.556-0.961c-0.626-1.13-0.802-1.302-0.954-1.4l-0.162-0.086H1.39c-0.296,0-1.2,0.309-2.023,0.615c0.052-0.415,0.091-0.689,0.092-0.697l0.114-0.776l-5.854,1.851l-0.064,0.275c-0.102,0.439-0.129,1.052-0.119,1.681c0.887,0.025,1.772,0.068,2.652,0.137C-3.811-71.992-3.812-72.149-3.802-72.318z"></path><path d="M-0.354-64.99c-0.004-0.03-0.399-2.751-0.513-4.11c-0.814,0.052-1.627,0.144-2.441,0.258c0.065,0.577,0.137,1.156,0.233,1.686c-0.117-0.379-0.222-0.734-0.253-0.893c-0.025-0.127-0.063-0.293-0.105-0.479c-0.021-0.091-0.043-0.191-0.065-0.289c-0.848,0.123-1.697,0.271-2.545,0.432c0.09,0.38,0.189,0.759,0.271,0.97c0.189,0.485,0.885,1.961,0.915,2.024l0.171,0.362l2.043-0.457c0.241,0.675,0.445,0.942,0.495,1l0.174,0.206l1.695-0.204L-0.354-64.99z"></path><path d="M4.286-70.509c-1.539-0.392-3.129-0.707-4.756-0.943c0.005,0.197,0.014,0.421,0.031,0.707l-0.134-0.038c0,0-0.14-0.039-0.348-0.083c0.006-0.213,0.02-0.431,0.032-0.649c-0.844-0.115-1.694-0.215-2.551-0.289c-0.01,0.316-0.017,0.631-0.016,0.928c-0.111,0.012-0.225,0.025-0.34,0.039c-0.018-0.291-0.023-0.635-0.018-0.994c-0.88-0.069-1.765-0.112-2.652-0.137c0.009,0.571,0.048,1.155,0.09,1.638c-0.211,0.065-0.384,0.129-0.53,0.196l-0.504,0.231l0.567,0.963l0.325-0.039c0,0,0.089-0.011,0.328-0.046c0.041,0.191,0.093,0.416,0.146,0.641c0.848-0.161,1.697-0.309,2.545-0.432c0,0,0-0.001,0-0.001c-0.046-0.205-0.092-0.415-0.127-0.613c0.084-0.01,0.167-0.019,0.25-0.027c0.02,0.202,0.046,0.407,0.069,0.611c0,0.001,0,0.003,0.001,0.004c0.814-0.114,1.627-0.206,2.441-0.258c-0.01-0.119-0.018-0.23-0.024-0.325c-0.001-0.018-0.003-0.036-0.004-0.054c0.067,0.005,0.339,0.034,0.553,0.056c0.005,0.065,0.01,0.125,0.016,0.194c0,0.003,0.005,0.043,0.012,0.099c1.48-0.063,2.96,0.008,4.44,0.292c-0.091-0.187-0.147-0.353-0.178-0.471C4.166-69.579,4.437-70.048,4.286-70.509z"></path></g><path style="" d="M1.547-71.61l1.036,2.006c0.338,0.289,0.679,0.573,1.027,0.841c-0.173-0.404-0.198-0.696-0.198-0.696s0.574-0.56,0.401-0.934c-0.173-0.374-1.326-2.303-1.598-2.795c-0.305-0.55-0.645-1.131-0.786-1.221C1.288-74.5-0.82-73.697-0.82-73.697s0.081,0.344,0.258,0.329c0.177-0.016,1.012-0.165,1.012-0.165l0.285,0.982c0,0-0.599,0.154-0.687,0.313c-0.015,0.028-0.021,0.13-0.024,0.258c0.483,0.477,0.971,0.944,1.464,1.401C1.48-70.961,1.49-71.352,1.547-71.61z" fill="#FFFFFF"></path><path style="" d="M4.102-67.963c-0.234-0.28-0.39-0.56-0.493-0.8c-0.348-0.268-0.689-0.552-1.027-0.841l0.028,0.055l-0.614-0.14l-0.441,0.252c0,0-0.055-0.558-0.068-1.143c-0.493-0.457-0.981-0.924-1.464-1.401c-0.012,0.603,0.096,2.103,0.148,2.709c0.14,1.631,0.695,3.661,0.783,3.697c0.088,0.036,1.029-0.147,1.029-0.147S1.86-67.069,1.812-67.53c-0.048-0.461-0.022-1.134-0.022-1.134s0.359,1.067,1.677,1.898c1.318,0.831,1.849,0.89,1.849,0.89l0.471-0.915C5.788-66.792,4.731-67.212,4.102-67.963z" fill="#FFFFFF"></path><path style="" d="M-0.707-70.302c0,0-0.331-0.093-0.72-0.147c0.009-2.022,0.391-4.622,0.391-4.622l-2.12,0.635l-0.027,0.278l0.376-0.079c0,0-0.187,2.387-0.142,3.813c-0.392,0.035-0.838,0.086-1.303,0.153c-0.051-0.507-0.098-1.252-0.05-2.07c0.024-0.509,0.271-1.786,0.271-1.786l-1.829,0.592c-0.215,0.923-0.059,2.789,0.021,3.574c-0.324,0.084-0.626,0.176-0.859,0.282l0.12,0.204c0,0,0.194-0.024,0.78-0.116c0.005,0.026,0.308,1.525,0.491,1.996c0.185,0.475,0.901,1.992,0.901,1.992l1.215-0.272c0,0-0.54-1.632-0.628-2.075c-0.077-0.383-0.271-1.14-0.344-1.664l-0.006,0.001c0,0-0.015-0.088-0.035-0.239c0.44-0.073,0.873-0.118,1.278-0.142c0.001,0.014,0.002,0.03,0.003,0.044c0.12,1.281,0.27,2.579,0.512,3.513c0.325,1.254,0.643,1.631,0.643,1.631l0.918-0.111c0,0-0.475-3.26-0.539-4.46c-0.018-0.195-0.028-0.41-0.034-0.632c0.467,0.018,0.765,0.05,0.765,0.05L-0.707-70.302z" fill="#FFFFFF"></path></g><path style="" d="M-17.697-48.925c0.147,0.084,0.305,0.168,0.478,0.253c0.083,0.041,0.168,0.081,0.256,0.122c0.189,0.087,0.392,0.173,0.604,0.259c0.084,0.034,0.163,0.068,0.25,0.102c0.619,0.24,1.326,0.473,2.104,0.693c0.101,0.029,0.208,0.056,0.311,0.084c0.299,0.081,0.607,0.16,0.925,0.236c0.123,0.03,0.247,0.059,0.372,0.087c0.337,0.077,0.683,0.15,1.037,0.22c0.102,0.02,0.2,0.042,0.303,0.061c0.469,0.089,0.95,0.172,1.442,0.247c0.029-0.738,0.089-1.583,0.211-1.949c0.239-0.716,1.193-3.023,1.67-3.977c0.477-0.955,5.091-12.25,5.091-12.25l-7.398,8.114c0,0,1.273-12.887,0.795-15.591c-0.44-2.493-2.105-9.029-7.159-10.599c-0.264,0.248-0.466,0.502-0.584,0.762c-0.134,0.296-0.18,1.349-0.171,2.831c0.056,5.286,0.727,15.403,0.761,17.722c0.001,0.097,0.002,0.178,0.001,0.246c0,0.003,0,0.008,0,0.012c-0.001,0.07-0.003,0.125-0.007,0.163c-0.145,1.42-1.989,11.693-1.989,11.693c0.137,0.114,0.31,0.231,0.503,0.349C-17.831-48.999-17.762-48.962-17.697-48.925z" fill="#000007" fill-opacity="0.2"></path><path style="" d="M8.839-61.796c-0.032-0.768-0.052-1.48-0.054-2.093c-0.004-1.418-0.061-3.301-0.129-5.094C5.395-58.323-2.831-48.701-5.133-46.151c1.14,0.038,2.295,0.029,3.445-0.051c1.877-0.131,3.481-0.383,4.858-0.689C4.986-49.676,7.375-56.976,8.839-61.796z" fill="#000007" fill-opacity="0.2"></path><path style="" d="M-4.73-47.603c3.013,0,5.997-0.362,8.599-1.01c2.493-0.621,4.466-1.479,5.76-2.465c-0.017-0.184-0.035-0.38-0.054-0.592c-1.205,1.018-3.212,1.92-5.827,2.571c-6.796,1.693-16.208,1.408-21.793-2.231c-0.033,0.185-0.064,0.358-0.093,0.522C-14.591-48.571-9.628-47.603-4.73-47.603z" fill="#000007" fill-opacity="0.2"></path><path style="" d="M-16.404-65.374c0.099,1.904-0.004,3.138,0.007,3.874c0.001,0.097,0.002,0.178,0.001,0.246c0,0.003,0,0.008,0,0.012c0,0.012-0.001,0.016-0.001,0.027c0.567-0.201,1.574,1.191,3.812-0.182c3.5-2.148,1.83-12.966,1.83-12.966S-13.842-65.637-16.404-65.374z" fill="#000007" fill-opacity="0.3"></path><path style="" d="M-16.351-48.288c0.081,0.033,0.157,0.066,0.242,0.098c0.619,0.24,1.326,0.473,2.104,0.693c0.101,0.029,0.208,0.056,0.311,0.084c0.299,0.081,0.607,0.16,0.925,0.236c0.123,0.03,0.247,0.059,0.372,0.087c0.266,0.061,0.543,0.118,0.82,0.174c1.716-2.922,3.903-8.848,4.693-10.527C-7.937-56.02-11.836-51.526-16.351-48.288z" fill="#000007" fill-opacity="0.2"></path><path d="M1.729-69.766c-0.016-0.213-0.034-0.512-0.041-0.818c-0.002-0.114-0.003-0.22-0.002-0.319l0.549,1.064l-0.271-0.062L1.729-69.766z"></path></g><!---0030-00860002200030--><g><path style="" d="M-16.99-82.257c-1.148,0.423-3.291,5.567-5.448,10.194c-2.4,5.148-3.67,8.519-3.67,8.519s0.824,0.952,2.042,2.042c1.511,1.352,3.726,2.263,6.533,2.39c2.807,0.128,4.762-1.117,4.762-1.117c0.265-1.045,0.301-2.326,1.219-7.722c0.661-3.883,1.733-8.861,1.052-11.132C-12.078-84.343-16.99-82.257-16.99-82.257z" fill="#3FA2FF"></path><path style="" d="M-18.056-81.082c-0.089,0.139-0.179,0.286-0.272,0.445c5.088,1.087,7.041,5.015,7.727,7.074c0.051-0.354,0.097-0.702,0.137-1.043C-11.399-76.833-13.513-80.042-18.056-81.082z" fill="#000007" fill-opacity="0.2"></path><path style="" d="M-14.67-82.657c-1.189,0.7-1.983,1.321-2.261,2.083c-0.354,0.973-6.069,14.258-7.848,18.389c0.125,0.126,0.252,0.251,0.383,0.375c1.701-3.949,7.567-17.58,7.935-18.593c0.267-0.735,1.204-1.369,2.633-2.161C-14.115-82.624-14.396-82.649-14.67-82.657z" fill="#000007" fill-opacity="0.2"></path><path style="" d="M-11.912-65.77c0.103-0.644,0.22-1.36,0.36-2.181c0.137-0.807,0.292-1.662,0.446-2.53c-1.868,3.41-5.271,7.175-5.271,7.175S-13.625-64.174-11.912-65.77z" fill="#000007" fill-opacity="0.2"></path><path style="" d="M-17.795-59.133c0.621-4.661,2.033-18.323,2.033-18.323c-1.52,2.249-5.573,11.962-7.371,16.661C-21.751-59.879-19.956-59.272-17.795-59.133z" fill="#FFFFFF" fill-opacity="0.3"></path></g></svg>
