<svg xmlns:xlink="http://www.w3.org/1999/xlink" xmlns="http://www.w3.org/2000/svg" viewBox="-40.94377899169922 -146.29818725585938 68.82828521728516 163.4471893310547" preserveAspectRatio="xMidYMid meet" width="300"  height="400"><!---0004-00880002400029--><g><path style="" d="M9.154-52.939c0.079,0.368,0.172,0.76,0.467,1.003c0.179,0.148,0.416,0.224,0.65,0.287c1.697,0.455,3.701,0.317,5.199-0.717c0.269-0.186,0.523-0.403,0.693-0.673c0,0,0.065-2.366-0.297-3.154c-0.055-0.12-7.27,0.712-7.27,0.712S9.04-53.47,9.154-52.939z" fill="#E0E0E0"></path><path style="" d="M11.629-53.611c2.385,0.256,4.274-1.177,4.483-1.308c0-0.001,0-0.001,0-0.001c-0.01-0.118-0.022-0.235-0.036-0.349c-0.001-0.011-0.003-0.023-0.004-0.033c-0.014-0.115-0.03-0.225-0.049-0.33c-0.002-0.009-0.004-0.018-0.006-0.027c-0.016-0.088-0.035-0.171-0.055-0.248c-0.006-0.022-0.011-0.043-0.018-0.063c-0.024-0.082-0.05-0.16-0.079-0.223c-0.055-0.12-7.27,0.712-7.27,0.712s0.444,2.011,0.558,2.541c0.079,0.368,0.172,0.76,0.467,1.003c0.179,0.148,0.416,0.224,0.65,0.287c0.568,0.152,1.171,0.231,1.778,0.239C11.894-52.182,11.71-52.984,11.629-53.611z" fill="#C7C7C7"></path><path style="" d="M5.917-70.165c-0.693,0.877-1.065,2.015-1.212,3.158c-0.141,1.106,0.041,2.184-0.019,3.282c-0.044,0.802-0.295,1.515-0.187,2.351c0.074,0.578,0.31,1.161,0.764,1.512c0.25,0.193,0.552,0.306,0.795,0.509c0.071,0.059,0.139,0.131,0.156,0.223c0.013,0.068-0.005,0.137-0.022,0.204c-0.122,0.474-0.213,0.974-0.37,1.437c-0.096,0.283-0.28,0.531-0.228,0.85C5.659-56.247,6.034-56,6.375-55.811c1.185,0.656,2.36,1.039,3.613,1.501c0.851,0.314,1.45,0.246,2.319,0.27c1.045,0.029,2.099,0.045,3.024-0.532c1.153-0.719,1.709-2.106,2.193-3.401c0.328-0.878,0.659-1.85,0.349-2.737c-0.273-0.782-0.996-1.329-1.277-2.108c-0.358-0.995,0.083-2.104-0.046-3.155c-0.134-1.097-0.903-2.308-1.739-2.944c-0.866-0.658-1.584-1.533-2.505-2.117c-1.94-1.229-4.621-1.098-6.199,0.643C6.042-70.318,5.979-70.243,5.917-70.165z" fill="#E0E0E0"></path><path style="" d="M17.873-60.71c-0.067-0.192-0.162-0.369-0.27-0.539c-0.01-0.016-0.021-0.031-0.031-0.046c-0.249-0.382-0.549-0.738-0.777-1.132l0,0c-1.029,0.795-1.94,1.704-2.658,2.723c-0.393,0.558-0.731,1.185-0.489,1.439c0.374,0.301,3.514-0.221,3.623,0.051c0.11,0.271-0.925,1.981-1.938,2.762c-0.26,0.2-0.932,0.489-1.409,0.475c-0.444-0.013-0.883-0.049-1.289-0.204c-1.204-0.461-2.311-1.108-3.253-1.9c-0.148-0.125-0.3-0.264-0.342-0.44c-0.061-0.25,0.112-0.496,0.267-0.717c0.783-1.117,1.764-2.405,1.764-2.405s-1.338-0.773-1.954-1.179c-0.615-0.406-1.042-1.051-1.008-1.784c0.058-1.245,0.195-2.489,0.439-3.719c0.268-1.353,0.675-2.707,1.47-3.903c0.186-0.281,0.403-0.547,0.636-0.803c-1.663-0.044-3.402,0.375-4.547,1.639c-0.066,0.073-0.13,0.148-0.191,0.226c-0.693,0.877-1.065,2.015-1.212,3.158c-0.141,1.106,0.041,2.184-0.019,3.282c-0.027,0.488-0.123,0.944-0.176,1.413c-0.001,0.046,0.007,0.093,0.003,0.139c-0.008,0.083-0.021,0.169-0.034,0.256c-0.005,0.177-0.004,0.356,0.02,0.544c0.074,0.578,0.31,1.161,0.764,1.512c0.25,0.193,0.552,0.306,0.795,0.509c0.071,0.059,0.139,0.131,0.156,0.223c0.013,0.068-0.005,0.137-0.022,0.204c-0.027,0.104-0.041,0.223-0.077,0.324c0,0,0,0,0,0.001c-0.013,0.055-0.027,0.11-0.039,0.165c-0.074,0.32-0.15,0.641-0.254,0.947c-0.048,0.142-0.118,0.274-0.17,0.412c-0.052,0.137-0.084,0.279-0.058,0.439C5.659-56.247,6.034-56,6.375-55.811c0.291,0.161,0.581,0.304,0.871,0.438c0.277,0.126,0.554,0.242,0.833,0.353c0.012,0.005,0.024,0.01,0.036,0.015c0.619,0.245,1.248,0.465,1.873,0.695c0.851,0.314,1.45,0.246,2.319,0.27c1.045,0.029,2.099,0.045,3.025-0.532c1.153-0.719,1.709-2.106,2.193-3.401c0.041-0.11,0.082-0.221,0.122-0.333c0.04-0.112,0.078-0.226,0.115-0.34c0.145-0.457,0.25-0.926,0.235-1.385C17.988-60.261,17.951-60.488,17.873-60.71z" fill="#C7C7C7"></path><path style="" d="M13.909-67.388c0.473-0.71,0.12-1.808-0.17-2.468c-0.112-0.105-0.227-0.205-0.34-0.308c-0.468,1.997-2.071,3.417-2.071,3.417S13.199-66.322,13.909-67.388z" fill="#C7C7C7"></path></g><!---0003-00880002000028--><g><path style="" d="M0.977-76.935c-0.077,0.234-0.019,0.489,0.04,0.729c0.279,1.126,0.581,2.248,0.904,3.363C2.204-71.866,2.695-70.957,2.979-70c0.229,0.772,0.229,1.56,0.557,2.332c0.679,1.597,1.999,3.412,3.564,4.001c2.176,0.819,5.124-0.224,6.184-2.284c0.268-0.521,0.606-0.956,0.692-1.566c0.04-0.282,0.045-0.57,0.037-0.855c-0.052-1.816-0.834-3.53-1.922-4.928c-1.813-2.42-2.872-4.611-3.881-7.364c-0.227-0.619-2.954-4.504-5.053-4.072S-1.059-83.336,0.977-76.935z" fill="#E0E0E0"></path><path style="" d="M13.985-67.613c0.029-0.252,0.036-0.506,0.029-0.759c-0.008-0.289-0.041-0.573-0.084-0.856c-0.204-0.644-0.508-1.159-0.508-1.159c-0.368,2.123-2.114,3.652-2.114,3.652s1.874,0.425,2.577-0.637C13.933-67.445,13.953-67.531,13.985-67.613z" fill="#C7C7C7"></path><path style="" d="M7.02-63.626c0.343,0.129,0.723,0.24,1.095,0.28c-0.035-0.347-0.001-0.874,0.051-1.232c0.129-0.875,0.175-1.672,0.287-2.554c0.145-1.148,0.541-2.28,1.04-3.321c0.441-0.919,1.569-2.052,2.684-2.726c-0.031-0.041-0.052-0.079-0.085-0.121c-0.227-0.303-0.441-0.601-0.646-0.898c-0.328-0.476-0.623-0.948-0.904-1.42c-0.04-0.068-0.083-0.136-0.122-0.204c-0.261-0.45-0.503-0.904-0.732-1.363c-0.043-0.086-0.086-0.174-0.129-0.261c-0.223-0.46-0.436-0.928-0.639-1.41c-0.032-0.077-0.064-0.158-0.096-0.235c-0.208-0.505-0.412-1.022-0.613-1.572c-0.015-0.041-0.043-0.099-0.08-0.167c-0.676-1.265-1.271-2.419-2.545-3.213c-1.083-0.675-2.219-0.853-3.422-0.418C2.132-84.45,2.1-84.44,2.068-84.427c-0.154,0.06-0.303,0.128-0.446,0.208c-0.013,0.007-0.025,0.016-0.055,0.035c-0.122,0.071-0.238,0.152-0.349,0.241c-0.034,0.027-0.067,0.056-0.1,0.085c-0.106,0.094-0.205,0.199-0.297,0.314c-0.017,0.021-0.035,0.039-0.052,0.061c-0.104,0.141-0.197,0.299-0.277,0.475c-0.016,0.036-0.029,0.076-0.045,0.113c-0.061,0.148-0.113,0.31-0.156,0.484c-0.005,0.02-0.01,0.042-0.014,0.062c-0.008,0.034-0.017,0.068-0.024,0.104c-0.045,0.225-0.08,0.464-0.092,0.734c-0.001,0.029-0.001,0.058-0.001,0.086c0,0.009,0.001,0.02,0,0.03c0,0.033,0.001,0.067,0.001,0.099c-0.003,0.154-0.005,0.31,0.004,0.48c0.001,0.016,0.002,0.033,0.003,0.049c0.029,0.497,0.105,1.057,0.237,1.692c0.01,0.05,0.027,0.108,0.038,0.158c0.059,0.272,0.123,0.55,0.203,0.85c0.095,0.357,0.206,0.733,0.332,1.131c-0.019,0.059-0.03,0.118-0.034,0.179c-0.009,0.121,0.008,0.245,0.033,0.368c0.013,0.061,0.027,0.122,0.042,0.182c0.126,0.512,0.305,1.018,0.412,1.533c0.163,0.61,0.316,1.223,0.492,1.83C2.204-71.866,2.695-70.957,2.979-70c0.229,0.772,0.229,1.56,0.557,2.332C4.216-66.071,5.456-64.215,7.02-63.626z" fill="#C7C7C7"></path></g><!---0022-00960003200020--><g><path style="" d="M-18.217-89.577c0.078-0.153,0.198-0.314,0.369-0.484c1.156-1.15,2.806-1.604,4.277-1.989c2.06-0.539,4.184-0.758,6.288-0.684c1.857,0.066,3.681,0.059,5.52,0.406c1.816,0.342,3.62,0.848,5.368,1.409c0.83,0.266,1.611,0.686,2.322,1.195c0.334,0.239,0.703,0.497,0.979,0.81c0.092,0.105,0.598,0.612,0.538,0.753c-1.469,3.401-3.763,6.406-6.697,8.54c-5.206-3.002-10.521-6.002-16.271-7.692C-16.489-87.597-18.866-88.293-18.217-89.577z" fill="#C7C7C7"></path><path style="" d="M6.907-88.914c-0.276-0.313-0.645-0.57-0.979-0.81c-0.712-0.51-1.492-0.929-2.322-1.195c-1.749-0.561-3.553-1.068-5.368-1.409c-1.839-0.346-3.663-0.34-5.52-0.406c-2.103-0.075-4.227,0.145-6.288,0.684c-1.471,0.385-3.122,0.839-4.277,1.989c-0.171,0.17-0.291,0.332-0.369,0.484c-0.166,0.329-0.132,0.62,0.025,0.875c0.1-0.078,0.192-0.169,0.295-0.243c2.399-1.716,5.349-2.316,8.164-2.493c4.259-0.267,8.541-0.13,12.475,1.611c0.926,0.41,1.819,0.902,2.651,1.488c0.548,0.385,1.059,0.833,1.507,1.339c0.192-0.381,0.375-0.768,0.544-1.161C7.505-88.303,6.999-88.809,6.907-88.914z" fill="#E0E0E0"></path></g><!---0023-00940003500048--><g><g><g><path style="" d="M-16.473-54.888c-0.002-0.001-0.189,3.053-0.197,3.264c-0.008,0.202-0.012,0.417,0.09,0.588c0.098,0.165,0.276,0.256,0.446,0.335c3.453,1.592,7.432,1.76,11.148,1.268c3.798-0.504,7.642-0.918,11.096-2.828c0.21-0.116,0.426-0.245,0.554-0.453c0.155-0.253,0.149-0.573,0.134-0.871C6.732-54.9,6.58-56.208,6.343-57.499c-1.76,0.807-3.559,0.9-5.433,0.986c-1.98,0.091-3.945,0.394-5.888,0.803c-1.951,0.41-3.867,0.981-5.835,1.299C-12.783-54.093-14.586-54.278-16.473-54.888z" fill="#E0E0E0"></path><path style="" d="M7.675-66.771c-0.564-4.391-0.867-7.383-1.161-12.412c-0.112-1.918,0.217-4.123-1.181-5.467c-1.069,0.802-2.136,1.605-3.205,2.407c-0.279,0.209-0.57,0.425-0.914,0.498c-0.558,0.118-1.11-0.163-1.608-0.429c-2.094-1.116-4.273-2.137-6.607-2.633c-2.688-0.572-6.462-1.296-8.796,0.688c-1.502,1.276-1.896,3.592-1.98,5.433c-0.097,2.112,0.319,4.199,0.474,6.296c0.152,2.047,0.512,4.035,0.738,6.082c0.102,0.919,0.178,1.851,0.045,2.768c-0.368,2.53-1.618,4.839-1.226,7.471c0.072,0.481,0.153,0.982,0.573,1.258c2.009,1.323,4.319,2.006,6.673,2.265c2.528,0.279,5.092,0.235,7.616-0.123c2.183-0.31,4.337-0.855,6.414-1.631c1.741-0.651,4.018-1.468,4.713-3.477c0.174-0.504,0.187-1.049,0.189-1.583C8.437-61.864,8.071-64.307,7.675-66.771z" fill="#F4F4F4"></path><path style="" d="M7.675-66.771c-0.564-4.391-0.867-7.383-1.161-12.412c-0.112-1.918,0.217-4.123-1.181-5.467c-1.069,0.802-2.136,1.605-3.205,2.407c-0.279,0.209-0.57,0.425-0.914,0.498c-0.558,0.118-1.11-0.163-1.608-0.429c-2.094-1.116-4.273-2.137-6.607-2.633c-2.688-0.572-6.462-1.296-8.796,0.688c-1.502,1.276-1.896,3.592-1.98,5.433c-0.097,2.112,0.319,4.199,0.474,6.296c0.152,2.047,0.512,4.035,0.738,6.082c0.102,0.919,0.178,1.851,0.045,2.768c-0.368,2.53-1.618,4.839-1.226,7.471c0.072,0.481,0.153,0.982,0.573,1.258c2.009,1.323,4.319,2.006,6.673,2.265c2.528,0.279,5.092,0.235,7.616-0.123c2.183-0.31,4.337-0.855,6.414-1.631c1.741-0.651,4.018-1.468,4.713-3.477c0.174-0.504,0.187-1.049,0.189-1.583C8.437-61.864,8.071-64.307,7.675-66.771z" fill="#F4F4F4"></path><path style="" d="M-4.755-55.78c0.226-0.326,0.608-0.692,0.657-1.111c0.033-0.282-0.099-0.32-0.182-0.551c-0.095-0.266-0.107-0.587-0.113-0.87c-0.031-1.304,0.474-2.578,1.152-3.658c0.832-1.325,1.933-2.443,2.873-3.688c1.282-1.698,2.531-3.488,3.522-5.374c0.185-0.351,0.446-0.843,0.692-1.48c-0.982,0.807-1.929,1.655-2.907,2.465C0.071-69.327-0.88-68.733-1.74-68.01c-0.227,0.191-0.457,0.375-0.691,0.553c-1.393,1.062-2.906,1.92-4.464,2.74c-0.376,0.198-0.775,0.397-1.195,0.378c-0.029-0.002-0.36-5.757-0.417-6.286c-0.213-2.004-0.557-3.982-0.819-5.974c-0.14-1.064-0.391-2.282-0.778-3.279c-0.39-1.006-0.983-1.994-1.804-2.678c-1.06-0.883-3.283-0.832-4.702-0.605c-0.619,0.962-0.923,2.163-1.067,3.308c-0.004,0.036-0.008,0.072-0.013,0.108c-0.043,0.362-0.072,0.719-0.088,1.059c-0.097,2.112,0.319,4.199,0.474,6.296c0.123,1.662,0.472,3.42,0.622,5.15c0.04,0.31,0.081,0.619,0.116,0.931c0.102,0.919,0.178,1.851,0.045,2.768c-0.368,2.53-1.618,4.839-1.226,7.471c0.072,0.481,0.153,0.982,0.573,1.258c0.996,0.656,2.08,1.161,3.205,1.531c1.134,0.372,2.28,0.596,3.451,0.787c0.531,0.087,1.071,0.099,1.602,0.182c0.364,0.057,0.678,0.264,1.05,0.098c0.241-0.108,0.436-0.302,0.621-0.496C-6.327-53.67-5.505-54.7-4.755-55.78z" fill="#E0E0E0"></path><path style="" d="M5.784-84.101c-1.09,0.727-2.181,1.452-3.271,2.179c-0.37,0.246-0.754,0.499-1.194,0.581c-0.465,0.087-0.941-0.027-1.395-0.15c-1.146-0.309-2.737-1.579-3.842-2.007c-1.849-0.716-3.181-0.697-5.119-1.144c-1.149-0.265-2.337-0.357-3.519-0.299c-0.437,0.181-2.431,0.324-2.987,0.601c-0.589,0.294-1.061,1.041-1.407,1.764c3.533-0.381,7.298-0.246,10.746,0.618c1.425,0.357,2.852,0.846,4.134,1.571c0.998,0.565,1.97,1.178,2.974,1.731c0.107,0.059,0.27,0.188,0.398,0.192c0.225,0.008,0.435-0.103,0.632-0.214c0.577-0.324,1.056-0.79,1.57-1.206c0.924-0.749,2.034-1.197,2.922-1.994C6.357-82.687,6.199-83.457,5.784-84.101z" fill="#E0E0E0"></path><path style="" d="M-11.277-71.299c0.024-1.123,0.211-2.147,0.285-3.256c0.14-2.099-0.533-4.254-1.882-5.819c-0.432-0.502-0.933-0.948-1.512-1.252c-0.852-0.448-1.829-0.552-2.782-0.406c-0.402,1.082-0.561,2.289-0.61,3.345c-0.097,2.112,0.319,4.199,0.474,6.296c0.152,2.047,0.512,4.035,0.738,6.082c0.102,0.919,0.178,1.851,0.045,2.768c-0.368,2.53-1.618,4.839-1.226,7.471c0.072,0.481,0.153,0.982,0.573,1.258c1.63,1.074,3.46,1.72,5.35,2.066c0.073-0.25,0.144-0.493,0.217-0.702c0.181-0.514,0.362-1.031,0.476-1.565c0.146-0.683,0.181-1.385,0.195-2.083c0.069-3.44-0.363-6.852-0.387-10.281C-11.332-68.684-11.305-69.992-11.277-71.299z" fill="#C7C7C7"></path><g><path style="" d="M8.703-87.83c-0.263-0.688-0.764-1.106-1.33-1.501c-0.328-0.228-0.689-0.398-1.065-0.501c-0.082-0.022-1.029-0.165-1.023-0.106c0.072,0.739-0.136,1.461-0.383,2.127c-0.526,1.413-1.234,2.714-1.949,3.946c-0.286,0.493-1,1.924-1.726,1.552c-0.076-0.039-0.141-0.098-0.204-0.157c-1.338-1.231-2.673-2.57-4.193-3.666c-0.668-0.482-1.405-0.957-2.131-1.323c-0.902-0.455-1.941-0.66-2.895-0.898c-0.999-0.248-2.005-0.451-3.013-0.654c-1.753-0.353-3.764-0.583-5.454-1.661c-0.125-0.08-1.084,0.842-1.202,0.952c-0.437,0.409-0.778,0.931-1.006,1.507c-0.096,0.243-0.173,0.511-0.116,0.798c0.071,0.358,0.335,0.675,0.588,0.961c0.022,0.025-0.935,1.372-0.918,1.624c0.017,0.258,0.179,0.512,0.347,0.737c0.25,0.337,0.528,0.654,0.827,0.943c0.209,0.203,0.439,0.399,0.699,0.487c0.344,0.117,0.681,0.027,0.991-0.069c0.675-0.21,1.322-0.476,1.989-0.714c4.389-1.564,9.794-0.847,13.859,2.306c0.491,0.381,0.987,0.749,1.527,1.043c0.772,0.42,1.073,0.571,2.215-0.607c1.05-0.833,2.606-2.184,3.69-3.102C7.99-84.791,9.385-86.016,8.703-87.83z" fill="#F4F4F4"></path><path style="" d="M2.416-80.052c-0.89,0.18-1.418-0.499-2.504-1.311c-2.05-1.53-4.363-2.803-6.875-3.436c-2.538-0.64-5.209-0.661-7.428,0.263c-0.415,0.173-0.83,0.096-1.287-0.149c-0.118-0.063-1.434-1.095-1.399-1.119c0.687-0.477,1.485-0.654,2.343-0.821c0.896-0.174,1.813-0.291,2.745-0.347c-0.569-0.132-1.143-0.22-1.714-0.263c-0.508-0.038-1.012-0.041-1.516-0.044c-0.385-0.002-0.828,0.102-1.179-0.166c-0.334-0.256-0.631-0.57-0.862-0.926c-0.286-0.441-0.455-0.938-0.519-1.431c-0.041,0.038-0.072,0.068-0.087,0.082c-0.437,0.409-0.778,0.931-1.006,1.507c-0.096,0.243-0.173,0.511-0.116,0.798c0.071,0.358,0.335,0.675,0.588,0.961c0.022,0.025-0.935,1.372-0.918,1.624c0.017,0.258,0.179,0.512,0.347,0.737c0.25,0.337,0.528,0.654,0.827,0.943c0.209,0.203,0.439,0.399,0.699,0.487c0.344,0.117,0.681,0.027,0.991-0.069c0.675-0.21,1.322-0.476,1.989-0.714c0.34-0.121,0.688-0.224,1.041-0.317c0.343-0.132,1.075-0.138,1.439-0.206c0.878-0.164,1.543-0.165,2.462-0.152c0.676,0.01,1.265-0.057,1.945,0.047c0.11,0.016,0.22,0.033,0.331,0.051c0.213,0.037,0.425,0.075,0.637,0.121c0.363,0.077,0.725,0.166,1.083,0.271c0.058,0.017,0.116,0.038,0.174,0.056c0.376,0.114,0.748,0.245,1.116,0.389c0.031,0.012,0.062,0.02,0.093,0.032c0.025,0.01,0.049,0.022,0.074,0.033c0.258,0.105,0.514,0.218,0.767,0.337c0.046,0.022,0.093,0.042,0.139,0.064c0.26,0.126,0.517,0.261,0.77,0.404c0.041,0.023,0.084,0.044,0.125,0.068c0.24,0.137,0.475,0.284,0.707,0.436c0.051,0.033,0.104,0.063,0.154,0.097c0.235,0.157,0.464,0.324,0.69,0.496c0.036,0.028,0.075,0.052,0.111,0.08c0.005,0.004,0.011,0.009,0.016,0.012c0.486,0.377,0.977,0.74,1.51,1.03C1.5-79.781,1.815-79.617,2.416-80.052z" fill="#E0E0E0"></path><path style="" d="M2.976-81.248c-0.612-0.461-0.95-0.857-1.137-1.135c-0.197,0.126-0.403,0.178-0.614,0.07c-0.023-0.012-0.041-0.033-0.062-0.047l-0.019,0.018C1.719-81.695,2.485-81.167,2.976-81.248z" fill="#E0E0E0"></path></g><path style="" d="M-8.71-51.213c-0.189,0.289-0.118,0.984-0.116,1.314c0.001,0.223-0.007,0.461-0.015,0.7c1.295,0.016,2.591-0.067,3.857-0.235c3.798-0.504,7.642-0.918,11.096-2.828c0.21-0.116,0.426-0.245,0.554-0.453c0.155-0.253,0.149-0.573,0.134-0.871c-0.021-0.409-0.065-0.816-0.102-1.224c-4.325,2.28-9.703,3.404-14.911,3.413C-8.367-51.397-8.619-51.352-8.71-51.213z" fill="#F4F4F4"></path></g><path style="" d="M-3.815-61.255c0.3-0.51,0.264-0.913,0.869-1.081c2.225-0.62,4.572-1.127,6.831-1.337c0.656-0.061,0.887,0.758,1.112,1.28c0.34,0.788,0.888,1.434,1.536,1.927c0.43,0.327,0.452,0.492,0.477,1.066c0.02,0.454,0.106,1.011-0.104,1.447c-0.184,0.381-0.489,0.65-0.813,0.876c-0.98,0.683-2.095,1.043-3.196,1.361c-3.079,0.887-6.69,2.065-9.71,0.969c-0.194-0.071-0.396-0.161-0.507-0.349c-0.102-0.172-0.109-0.397-0.113-0.61c-0.006-0.311-0.012-0.622-0.019-0.933c-0.005-0.261-0.009-0.532,0.085-0.779c0.269-0.709,1.297-1.037,1.809-1.53C-4.872-59.606-4.314-60.407-3.815-61.255z" fill="#F4F4F4"></path><path style="" d="M2.899-55.717c0.909-0.262,1.753-0.601,2.61-1.008c0.198-0.11,0.396-0.22,0.585-0.352c0.324-0.226,0.629-0.495,0.813-0.876c0.21-0.436,0.124-0.993,0.104-1.447c-0.025-0.574-0.047-0.738-0.477-1.066c-0.647-0.493-1.196-1.139-1.536-1.927c-0.15-0.347-0.304-0.819-0.581-1.083c0.264,0.252,0.179,0.986,0.176,1.326c-0.004,0.678-0.029,1.356-0.073,2.032c-0.019,0.296-0.043,0.594-0.126,0.877c-0.327,1.108-1.411,1.642-2.343,1.98c-0.129,0.047-0.262,0.094-0.396,0.081c0.09-0.277,0.181-0.553,0.271-0.83c0.144-0.441,0.196-0.883,0.287-1.331c0.048-0.238,0.093-0.471,0.103-0.715c0.005-0.115-0.084-0.594-0.035-0.666c-0.819,1.216-1.741,2.432-2.804,3.414c-0.314,0.289-0.867,0.621-1.231,0.819c-0.318,0.173-0.98,0.377-1.324,0.462c-0.453,0.113-0.73,0.174-1.187,0.255c-0.67,0.119-1.414,0.152-2.084,0.086c-0.374-0.037-0.742-0.13-1.088-0.278c0.002,0.086,0.003,0.172,0.005,0.258c0.004,0.213,0.011,0.437,0.113,0.61c0.05,0.085,0.123,0.146,0.202,0.198c0.1,0.052,0.195,0.11,0.305,0.15c0.755,0.274,1.547,0.406,2.358,0.436c0.406,0.015,0.816,0.004,1.229-0.027c0.826-0.062,1.663-0.206,2.493-0.393C0.513-55.01,1.742-55.384,2.899-55.717z" fill="#E0E0E0"></path></g><g><path style="" d="M0.924-65.42c-0.533-0.044-1.068,0.085-1.601,0.121c-0.249,0.017-0.459,0.007-0.69-0.072c-0.122-0.042-0.362-0.127-0.365-0.288c0.002,0.107,0.035,0.213,0.094,0.299c-0.445-0.238-0.739-0.73-0.747-1.249c-0.097,0.146-0.126,0.334-0.078,0.497c-0.351-0.656-0.141-1.778,0.658-2.056c-0.136-0.506-0.143-0.974-0.156-1.498c-0.013-0.524,0.011-1.059,0.168-1.571c-0.55-0.265-0.955-0.803-1.106-1.406c-0.272-1.089,0.225-2.287,0.256-3.401c0.039-1.39-0.261-2.033-0.647-2.968c-0.084-0.204-0.176-0.409-0.327-0.567c-0.034-0.036-0.073-0.076-0.067-0.127c0.034-0.299,1.166,0.402,1.272,0.478c0.204,0.146,0.344,0.343,0.508,0.529c0.396,0.45,0.724,0.962,0.964,1.518c0.564,1.304,0.475,2.914-0.083,4.259c-0.119,0.287-0.263,0.577-0.269,0.883c0.406-0.556,1.097-0.891,1.761-0.852c0.063-0.329,0.148-0.683,0.335-0.965c0.181-0.273,0.443-0.479,0.701-0.677c0.782-0.599,1.609-1.211,2.151-2.051C3.925-77,4.174-77.432,4.367-77.888c0.082-0.193,0.18-0.407,0.234-0.607c0.083-0.306,0.13-0.616,0.109-0.929c-0.02-0.29,0.285,0.111,0.315,0.166c0.083,0.15,0.15,0.31,0.212,0.47c0.114,0.293,0.194,0.601,0.238,0.916c0.05,0.349,0.056,0.706,0.019,1.061c-0.074,0.706-0.372,1.472-0.839,2.025c-0.328,0.388-0.783,0.619-1.234,0.818c-0.465,0.206-0.963,0.437-1.387,0.731c-0.31,0.215-0.609,0.506-0.814,0.825c0.369,0.018,0.673,0.242,0.945,0.484c0.604,0.538,1.089,1.214,1.393,1.974c0.383-0.072,0.792-0.002,1.131,0.17c-0.116,0.017-0.232,0.041-0.345,0.073c0.522,0.169,0.804,0.596,0.913,1.121c-0.064-0.088-0.15-0.159-0.247-0.206c0.067,0.032,0.06,0.323,0.058,0.388c-0.005,0.143-0.032,0.305-0.091,0.439c-0.102,0.23-0.263,0.448-0.428,0.637c-0.216,0.249-0.461,0.483-0.69,0.718c-0.246,0.253-0.469,0.518-0.704,0.782c-0.164,0.184-0.349,0.357-0.565,0.474c-0.232,0.125-0.356,0.068-0.593,0.069C1.635-65.283,1.285-65.39,0.924-65.42z" fill="#242424"></path><path d="M2.618-71.471c-0.557,0.478-1.114,0.957-1.679,1.426C0.071-69.327-0.88-68.733-1.74-68.01c-0.227,0.191-0.457,0.375-0.691,0.553c-0.03,0.023-0.062,0.043-0.092,0.065c-0.15,0.424-0.132,0.921,0.06,1.281c-0.048-0.163-0.018-0.351,0.078-0.497c0.008,0.52,0.302,1.011,0.747,1.249c-0.059-0.086-0.093-0.191-0.094-0.299c0.003,0.161,0.243,0.246,0.365,0.288c0.231,0.079,0.44,0.089,0.69,0.072c0.009-0.001,0.017-0.002,0.026-0.003c0.094-0.119,0.192-0.234,0.283-0.355c1.247-1.651,2.458-3.391,3.435-5.22C2.93-71.085,2.783-71.285,2.618-71.471z"></path><g><path d="M4.71-79.424c0.001,0.01-0.002,0.021-0.001,0.031c0.039-0.032,0.078-0.063,0.117-0.095C4.758-79.542,4.701-79.554,4.71-79.424z"></path></g><path style="" d="M3.445-66.567c0.129-0.036,0.262-0.031,0.364,0.066c0.094,0.089,0.134,0.233,0.1,0.364c-0.038,0.147-0.16,0.289-0.117,0.431c0.016,0.052,0.053,0.094,0.087,0.136c0.065,0.081,0.119,0.171,0.163,0.266c0.06,0.133,0.098,0.289,0.041,0.429c-0.056,0.138-0.194,0.23-0.335,0.271c-0.372,0.11-0.725-0.079-1.006-0.329c-0.167,0.195-0.449,0.278-0.682,0.203c-0.084,0.2-0.169,0.403-0.298,0.579s-0.307,0.325-0.515,0.373C1.04-63.731,0.804-63.804,0.7-63.985c-0.038-0.067-0.058-0.145-0.062-0.223c-0.006-0.1,0.01-0.202,0.048-0.297c-0.218-0.034-0.399-0.201-0.471-0.409c-0.062-0.178-0.103-0.443,0.006-0.617c0.126-0.2,0.394-0.242,0.622-0.231c0.342,0.017,0.676,0.106,0.976,0.26c0.032-0.146,0.199-0.223,0.346-0.239c0.146-0.016,0.3,0.001,0.435-0.063c0.178-0.264,0.438-0.589,0.733-0.722C3.369-66.542,3.407-66.556,3.445-66.567z" fill="#E82060"></path><path style="" d="M-1.972-71.202C-1.98-71.2-1.989-71.2-1.997-71.202c-0.367-0.074-0.66-0.218-0.873-0.429l-0.02-0.02c-0.026-0.026-0.05-0.051-0.077-0.068C-3-71.741-3.041-71.754-3.084-71.768c-0.055-0.018-0.111-0.036-0.162-0.072c-0.16-0.114-0.171-0.341-0.132-0.5c0.063-0.25,0.245-0.474,0.478-0.585c0.035-0.018,0.08-0.003,0.095,0.034c0.016,0.036-0.001,0.08-0.038,0.097c-0.191,0.091-0.342,0.276-0.394,0.482c-0.031,0.124-0.019,0.281,0.079,0.351c0.034,0.024,0.078,0.039,0.125,0.054c0.05,0.016,0.101,0.032,0.149,0.063c0.039,0.026,0.07,0.057,0.1,0.087l0.019,0.019c0.193,0.192,0.463,0.325,0.803,0.392c0.039,0.008,0.063,0.046,0.053,0.086C-1.917-71.229-1.943-71.206-1.972-71.202z" fill="#E82060"></path><path style="" d="M-1.411-71.38c-0.008,0.001-0.018,0.001-0.026-0.001c-0.293-0.062-0.652-0.17-0.832-0.464c-0.015-0.025-0.029-0.051-0.043-0.077c-0.025-0.047-0.048-0.092-0.08-0.126c-0.033-0.035-0.076-0.062-0.123-0.091l-0.032-0.02c-0.258-0.162-0.493-0.488-0.308-0.873c0.105-0.218,0.339-0.317,0.555-0.386c0.204-0.065,0.397-0.126,0.502-0.273c0.023-0.033,0.07-0.043,0.102-0.02c0.032,0.023,0.039,0.068,0.015,0.101c-0.136,0.189-0.363,0.261-0.564,0.325c-0.201,0.064-0.4,0.146-0.479,0.311c-0.143,0.298,0.04,0.552,0.259,0.69l0.03,0.019c0.052,0.032,0.106,0.065,0.152,0.114c0.044,0.048,0.073,0.103,0.1,0.156c0.013,0.023,0.025,0.047,0.038,0.069c0.152,0.249,0.477,0.345,0.743,0.401c0.039,0.009,0.062,0.047,0.052,0.087C-1.357-71.406-1.382-71.384-1.411-71.38z" fill="#E82060"></path><path style="" d="M0.14-72.377c-0.002,0-0.004,0-0.006,0.001c-0.04,0.003-0.073-0.027-0.075-0.067c-0.003-0.099,0.005-0.198,0.013-0.293c0.006-0.071,0.011-0.141,0.013-0.211c0.004-0.189-0.029-0.33-0.1-0.432c-0.009-0.013-0.019-0.026-0.03-0.039c-0.024-0.032-0.05-0.064-0.068-0.105c-0.039-0.084-0.036-0.178-0.034-0.26c0.001-0.024,0.001-0.049,0.001-0.073c-0.004-0.24-0.153-0.453-0.349-0.495c-0.155-0.033-0.337,0.035-0.465,0.174c-0.05,0.053-0.09,0.113-0.133,0.177c-0.036,0.053-0.072,0.106-0.113,0.156c-0.119,0.143-0.279,0.256-0.452,0.315c-0.039,0.015-0.079-0.006-0.09-0.045c-0.011-0.038,0.011-0.08,0.049-0.093c0.147-0.051,0.283-0.146,0.384-0.268c0.037-0.045,0.071-0.095,0.103-0.143c0.045-0.066,0.091-0.135,0.148-0.196c0.164-0.178,0.402-0.265,0.606-0.22c0.295,0.063,0.454,0.364,0.458,0.629c0.001,0.026,0,0.053-0.001,0.079c-0.002,0.073-0.005,0.142,0.021,0.196c0.012,0.026,0.032,0.051,0.052,0.078c0.012,0.015,0.023,0.03,0.034,0.045c0.089,0.127,0.13,0.296,0.125,0.515c-0.001,0.073-0.007,0.147-0.013,0.221c-0.008,0.096-0.015,0.187-0.013,0.277C0.205-72.416,0.177-72.383,0.14-72.377z" fill="#E82060"></path><path style="" d="M0.523-72.808c-0.009,0.001-0.019,0.001-0.028-0.001c-0.038-0.009-0.061-0.048-0.05-0.088c0.039-0.141,0.079-0.288,0.09-0.434c0.008-0.108,0.001-0.265-0.076-0.394l-0.017-0.027c-0.024-0.038-0.052-0.082-0.061-0.137c-0.013-0.076-0.003-0.147,0.006-0.216c0.012-0.089,0.022-0.166-0.016-0.244c-0.037-0.075-0.113-0.133-0.207-0.16c-0.083-0.024-0.179-0.023-0.296-0.002c-0.09,0.017-0.209,0.057-0.26,0.147c-0.02,0.036-0.065,0.05-0.099,0.031c-0.035-0.018-0.047-0.062-0.026-0.098c0.063-0.113,0.189-0.19,0.364-0.224c0.138-0.025,0.258-0.025,0.362,0.005c0.132,0.038,0.239,0.122,0.292,0.232c0.057,0.117,0.042,0.228,0.029,0.327c-0.008,0.061-0.016,0.118-0.007,0.173c0.004,0.027,0.022,0.055,0.041,0.084l0.019,0.03c0.076,0.127,0.109,0.292,0.095,0.477c-0.012,0.161-0.054,0.315-0.095,0.464C0.577-72.835,0.552-72.813,0.523-72.808z" fill="#E82060"></path><path style="" d="M-0.977-72.435c-0.05,0.016-0.102,0.052-0.131,0.096c-0.01,0.016-0.065,0.138-0.044,0.148c-0.038-0.019-0.087-0.04-0.131-0.042c-0.06-0.002-0.12,0.01-0.177,0.031c0.061-0.084,0.103-0.182,0.121-0.283c0.027,0.038,0.08,0.051,0.127,0.042c0.046-0.009,0.123-0.048,0.153-0.087c-0.024-0.037-0.076-0.06-0.119-0.068c-0.022-0.004-0.117-0.013-0.131,0.013c0.021-0.039,0.025-0.085,0.02-0.128c-0.021-0.196-0.171-0.341-0.294-0.478c-0.055-0.061-0.112-0.12-0.173-0.175c-0.024-0.022-0.16-0.104-0.163-0.131c-0.017-0.151-0.077-0.294-0.172-0.407c-0.082-0.01-0.167,0.072-0.163,0.156c-0.083-0.033-0.18-0.029-0.264,0.009c0.054-0.094,0.062-0.213,0.02-0.309c0.106,0.059,0.264-0.014,0.296-0.136c0.004-0.015,0.006-0.031,0.003-0.046c-0.008-0.037-0.048-0.059-0.086-0.059c-0.038,0-0.075,0.017-0.11,0.033c0.088-0.128,0.122-0.292,0.091-0.439c0.089,0.11,0.251,0.151,0.387,0.099c-0.029,0.063-0.06,0.13-0.051,0.198s0.073,0.129,0.138,0.107c0.08-0.027,0.085-0.144,0.048-0.218c0.1,0.073,0.247,0.075,0.355,0.005c-0.054,0.098-0.059,0.237-0.082,0.345c-0.028-0.029-0.075-0.037-0.113-0.019c-0.179,0.088,0.126,0.341,0.197,0.392c0.034,0.235,0.115,0.466,0.216,0.676c0.03,0.063,0.064,0.125,0.112,0.175s0.113,0.086,0.183,0.087c-0.058,0.063-0.073,0.163-0.036,0.237c0.036-0.027,0.077-0.059,0.098-0.099c0.021-0.039,0.027-0.088,0.007-0.126c0.033,0.019,0.075,0.012,0.113,0.001c0.054-0.016,0.107-0.039,0.155-0.068c-0.05,0.087-0.047,0.201,0.007,0.281c-0.045-0.026-0.103-0.031-0.154-0.014c-0.051,0.017-0.096,0.057-0.12,0.106c0.08,0.11,0.186,0.198,0.313,0.247c-0.06,0.017-0.14,0.104-0.19,0.143c-0.06,0.047-0.119,0.094-0.174,0.146c0.016-0.081,0.002-0.162-0.017-0.239C-0.916-72.253-0.971-72.437-0.977-72.435z" fill="#E82060"></path><path style="" d="M-1.938-71.602c-0.035-0.038-0.077-0.049-0.128-0.02c-0.045,0.025-0.074,0.078-0.072,0.129c-0.055-0.041-0.128-0.056-0.197-0.042c0.031-0.044,0.04-0.102,0.023-0.152c0.049,0.054,0.151,0.044,0.193-0.02c0.004-0.02-0.001-0.023-0.006-0.026c-0.044-0.026-0.094-0.039-0.146-0.038c0.038-0.111-0.008-0.227-0.053-0.33c0.072,0.057,0.159,0.086,0.252,0.074c-0.022,0.077,0.005,0.164,0.066,0.211c0.008,0.006,0.017,0.011,0.026,0.008c0.011-0.003,0.017-0.016,0.02-0.028c0.017-0.062,0.013-0.129-0.011-0.186c0.072,0.009,0.149-0.026,0.192-0.087c-0.004,0.074,0.025,0.147,0.079,0.195c-0.043,0.019-0.086,0.04-0.119,0.073c-0.034,0.033-0.057,0.081-0.049,0.126c0.008,0.046,0.046,0.081,0.089,0.096s0.091,0.015,0.137,0.012c-0.033,0.002-0.078,0.086-0.095,0.11c-0.035,0.049-0.08,0.091-0.121,0.134C-1.853-71.446-1.879-71.531-1.938-71.602z" fill="#E82060"></path><path style="" d="M0.053-72.618c0.083-0.057,0.174-0.101,0.269-0.131c-0.076-0.073-0.122-0.177-0.126-0.286c0.045-0.058,0.138-0.069,0.19-0.022c-0.003-0.072,0.038-0.14,0.077-0.203c-0.03,0.002-0.06,0.003-0.089-0.006c-0.028-0.008-0.054-0.028-0.062-0.057c-0.007,0.071-0.052,0.139-0.114,0.174c-0.041-0.082-0.042-0.186-0.002-0.273c-0.095-0.001-0.187-0.05-0.238-0.129c0.022,0.113,0.041,0.228-0.015,0.336c0.028-0.014,0.061-0.006,0.085,0.013c0.023,0.019,0.037,0.046,0.049,0.074c0.002,0.005,0.004,0.011-0.006,0.028c-0.037,0.032-0.089,0.041-0.134,0.031s-0.085-0.038-0.116-0.073c0.014,0.069-0.04,0.134-0.089,0.186c0.078-0.018,0.13,0.017,0.189,0.063c0.043-0.064,0.099-0.096,0.17-0.12c-0.006,0.069-0.011,0.138-0.019,0.207C0.067-72.777,0.072-72.63,0.053-72.618z" fill="#E82060"></path><path style="" d="M0.668-72.938c0.048,0.16,0.149,0.276,0.246,0.406C1-72.418-0.038-71.774-0.154-71.696c-0.417,0.279-0.845,0.539-1.269,0.807c-0.123,0.077-0.25,0.157-0.391,0.18c-0.012,0.002-0.025,0.003-0.035-0.002c-0.012-0.006-0.018-0.019-0.023-0.031c-0.065-0.153-0.124-0.309-0.205-0.454c-0.006-0.011-0.012-0.022-0.012-0.035c0-0.015,0.009-0.029,0.019-0.042c0.073-0.101,0.162-0.19,0.255-0.272c0.247-0.218,0.525-0.394,0.802-0.57c0.182-0.115,0.364-0.23,0.546-0.345c0.313-0.198,0.627-0.397,0.961-0.552c0.04-0.018,0.087-0.036,0.123-0.015C0.647-73.011,0.657-72.972,0.668-72.938z" fill="#E82060"></path><ellipse transform="matrix(0.6054 -0.796 0.796 0.6054 55.9984 -29.3708)" style="" cx="-1.62" cy="-71.157" rx="0.118" ry="0.112" fill="#010000"></ellipse><ellipse transform="matrix(0.6054 -0.796 0.796 0.6054 56.439 -29.0972)" style="" cx="-1.123" cy="-71.464" rx="0.118" ry="0.112" fill="#010000"></ellipse><ellipse transform="matrix(0.6054 -0.796 0.796 0.6054 56.9273 -28.8185)" style="" cx="-0.598" cy="-71.817" rx="0.118" ry="0.112" fill="#010000"></ellipse><ellipse transform="matrix(0.6054 -0.796 0.796 0.6054 57.4045 -28.5209)" style="" cx="-0.06" cy="-72.15" rx="0.118" ry="0.112" fill="#010000"></ellipse><ellipse transform="matrix(0.6054 -0.796 0.796 0.6054 57.8575 -28.2693)" style="" cx="0.421" cy="-72.481" rx="0.118" ry="0.112" fill="#010000"></ellipse></g></g><!---0034-00730002400032--><g><path style="" d="M-19.817-49.546c0.003-0.11-4.005-0.592-4.371-0.657c-1.283-0.227-2.782-0.922-4.068-0.595c-0.052,0.013-0.109,0.032-0.136,0.081c-0.021,0.039-0.019,0.087-0.015,0.133c0.122,1.726,0.205,3.427,0.369,5.154c0.014,0.15,0.03,0.307,0.105,0.437c0.089,0.155,0.246,0.249,0.399,0.33c2.128,1.12,4.55,1.066,6.518-0.229c0.268-0.176,0.533-0.383,0.682-0.662c0.102-0.192,0.142-0.405,0.178-0.613C-19.962-47.289-19.849-48.42-19.817-49.546z" fill="#C7C7C7"></path><path style="" d="M-13.814-65.605c-0.129-1.467-1.054-2.48-2.153-3.194c-1.292-0.839-3.037-1.319-4.529-0.86c-1.607,0.494-2.755,1.186-3.946,2.398c-1.34,1.363-2.64,2.843-3.714,4.419c-0.765,1.123-1.69,2.698-1.903,4.053c-0.112,0.712,0.06,1.264,0.441,1.797c0.321,0.448,0.641,0.897,0.962,1.345c0.049,0.068,0.099,0.14,0.107,0.227c0.022,0.217-0.398,0.664-0.508,0.848c-0.274,0.459-0.592,0.924-0.827,1.41c-0.231,0.478-0.449,0.989-0.439,1.509c0.016,0.797,0.554,1.419,1.089,1.934c1.543,1.486,3.292,2.85,5.587,2.552c1.5-0.195,2.889-0.895,4.302-1.475c1.275-0.524,2.458-1.363,3.416-2.434c0.311-0.348,0.618-0.773,0.598-1.233c-0.01-0.23-0.101-0.438-0.191-0.64c-0.151-0.341-0.302-0.681-0.454-1.022c-0.045-0.1-0.09-0.207-0.078-0.322c0.014-0.123,0.088-0.232,0.165-0.329c0.663-0.834,0.981-1.183,1.487-1.863c0.649-0.872,0.338-2.045,0.19-2.975c-0.124-0.772-0.021-1.433,0.094-2.211C-13.923-62.978-13.7-64.303-13.814-65.605z" fill="#F4F4F4"></path><path style="" d="M-14.554-64.465c-0.834,0.188-4.862-3.27-4.862-3.27s1.862,6.407,4.204,6.27c0.395-0.023,0.778-0.186,1.132-0.401c0.173-1.053,0.471-2.082,0.741-3.118c0.019-0.074,0.035-0.149,0.054-0.224C-13.831-64.834-14.332-64.516-14.554-64.465z" fill="#E0E0E0"></path><path style="" d="M-15.52-52.951c-0.151-0.341-0.302-0.681-0.454-1.022c-0.02-0.045-0.038-0.091-0.053-0.138c-0.23,0.186-0.458,0.375-0.692,0.553c-0.588,0.445-1.194,0.857-1.829,1.215c-0.301,0.17-0.628,0.339-0.936,0.316c-0.285-0.021-0.5-0.205-0.698-0.382c-2.483-2.214-4.837-4.568-7.054-7.053c-0.226-0.254-0.462-0.534-0.47-0.907c-0.009-0.356,0.192-0.724,0.389-1.065c0.922-1.587,1.953-3.127,3.081-4.599c0.419,0.387,1.05,1.466,1.47,1.853c0.594-1.587,1.127-3.529,1.756-5.291c-1.335,0.482-2.375,1.136-3.43,2.209c-1.337,1.361-2.635,2.837-3.707,4.409c-0.002,0.003-0.005,0.006-0.007,0.01c-0.109,0.16-0.221,0.331-0.334,0.507c-0.032,0.051-0.065,0.104-0.097,0.155c-0.082,0.13-0.163,0.264-0.244,0.4c-0.038,0.064-0.076,0.13-0.113,0.195c-0.078,0.136-0.154,0.275-0.229,0.415c-0.033,0.062-0.067,0.124-0.099,0.187c-0.103,0.202-0.203,0.406-0.293,0.612c-0.078,0.178-0.15,0.357-0.214,0.535c-0.129,0.356-0.226,0.708-0.28,1.047c-0.112,0.712,0.06,1.265,0.441,1.797c0.321,0.448,0.641,0.897,0.962,1.345c0,0,0,0,0,0.001c0.034,0.048,0.064,0.101,0.085,0.157c0,0,0,0,0,0c0.008,0.023,0.02,0.045,0.022,0.07c0.022,0.217-0.398,0.664-0.508,0.848c-0.274,0.459-0.592,0.924-0.827,1.41c-0.231,0.478-0.449,0.989-0.439,1.509c0.003,0.157,0.04,0.302,0.08,0.445c0.111,0.404,0.337,0.764,0.615,1.081c0.126,0.143,0.26,0.279,0.393,0.407c0.192,0.185,0.388,0.369,0.587,0.547c1.395,1.248,2.98,2.256,4.978,2.006c0.001,0,0.002,0,0.003,0c0.006-0.001,0.013-0.001,0.019-0.002c0.009-0.001,0.018-0.004,0.027-0.005c0.003,0,0.005-0.001,0.007-0.002c1.459-0.197,2.815-0.867,4.191-1.436c0.025-0.011,0.051-0.022,0.076-0.032c0.606-0.249,1.188-0.574,1.738-0.956c0.077-0.054,0.152-0.111,0.228-0.167c0.189-0.14,0.373-0.287,0.552-0.441c0.072-0.062,0.146-0.124,0.216-0.188c0.236-0.216,0.465-0.44,0.68-0.68c0.001-0.001,0.002-0.001,0.002-0.002c0.078-0.087,0.155-0.179,0.227-0.275c0.217-0.288,0.385-0.613,0.371-0.959c-0.005-0.115-0.03-0.224-0.065-0.33S-15.476-52.85-15.52-52.951z" fill="#E0E0E0"></path><path style="" d="M-20.286-50.512c-1.093,0.194-3.919,0.641-5.386,0.32s-2.964-1.495-3.039-1.844c-0.075-0.349,1.566-1.943,1.735-1.962c0.288-0.032,1.465,1.017,2.653,1.622C-22.966-51.684-21.765-51.107-20.286-50.512z" fill="#F4F4F4"></path><path style="" d="M-20.333-45.554c0.102-0.192,0.142-0.405,0.178-0.613c0.081-0.472,0.14-0.945,0.192-1.418c-0.527,0.433-1.709,0.935-2.475,1.092c-0.483,0.099-1.015,0.202-1.502,0.225c-0.508,0.023-1.061,0.001-1.554-0.109c-0.048,0.441-0.082,0.871-0.1,1.315c-0.003,0.081-0.042,0.676-0.057,1.059c1.595,0.316,3.231,0.035,4.636-0.889C-20.747-45.068-20.482-45.275-20.333-45.554z" fill="#E0E0E0"></path><path style="" d="M-27.044-56.31c-0.415-0.629-0.834-1.273-1.211-1.93c-0.492-0.858-0.674-1.803-0.554-2.853c0.039-0.347,0.11-0.69,0.189-1.033c-0.638,1.024-1.267,2.25-1.438,3.337c-0.112,0.712,0.06,1.264,0.441,1.797c0.321,0.448,0.641,0.897,0.962,1.345c0.049,0.068,0.099,0.14,0.107,0.227c0.006,0.057-0.021,0.131-0.063,0.211c1.013,0.255,2.027,0.511,3.039,0.766C-26.081-55.061-26.77-55.895-27.044-56.31z" fill="#C7C7C7"></path></g><!---0029-00880002300031--><g><g><path style="" d="M-25.329-67.197c-0.018,0.308,0.037,0.622,0.04,0.93c0.024,2.176,0.476,3.168,1.158,4.513c0.684,1.347,2.075,2.084,3.494,2.314c1.418,0.23,2.896-0.142,4.186-0.858c1.578-0.876,2.911-2.061,3.623-3.797c0.7-1.709,0.869-3.551,1.424-5.303c0.414-1.306,1.046-2.564,1.486-3.875c0.553-1.651,0.867-3.383,0.927-5.12c0.052-1.506-0.131-3.128-1.098-4.233c-1.248-1.427-3.289-1.535-5.021-1.279c-1.407,0.208-2.423,1.864-3.326,3.551c-0.709,1.323-1.389,2.662-2.039,4.015c-0.329,0.685-0.65,1.373-0.963,2.065c-0.306,0.675-0.69,1.37-0.915,2.076c-0.058,0.181-0.09,0.334-0.198,0.5c-0.406,0.623-0.825,1.236-1.245,1.849c-0.218,0.319-0.437,0.638-0.689,0.931c-0.191,0.222-0.403,0.43-0.553,0.682C-25.228-67.923-25.307-67.565-25.329-67.197z" fill="#F4F4F4"></path><path style="" d="M-10.09-82.627c-1.248-1.427-3.288-1.535-5.021-1.279c-1.176,0.173-2.077,1.362-2.869,2.731c-0.156,0.269-0.309,0.543-0.466,0.837c-0.644,1.203-1.258,2.422-1.853,3.649c-0.077,0.157-0.154,0.312-0.229,0.47c-0.174,0.365-0.343,0.733-0.517,1.099c-0.131,0.282-0.266,0.561-0.394,0.844c-0.347,0.767-0.7,1.531-1.042,2.3c-0.169,0.379-0.346,0.696-0.577,1.039c-0.244,0.363-0.472,0.58-0.719,0.942c-0.218,0.319-0.432,0.534-0.684,0.826c-0.191,0.222-0.427,0.679-0.578,0.931c-0.189,0.315-0.268,0.673-0.29,1.041c-0.018,0.308-0.017,0.789-0.004,1.096c0.028,0.635-0.051,1.039,0.042,1.502c0.292-0.318,1.086-1.157,1.264-1.385c0.59,0.651,1.105,1.367,1.733,1.98c0.911-4.65,2.362-9.201,4.065-13.596c0.417-1.075,0.969-2.246,1.691-3.132c0.361-0.444,0.814-0.804,1.292-1.114c0.503-0.326,0.94-0.516,1.527-0.633C-12.587-82.703-11.245-82.654-10.09-82.627z" fill="#E0E0E0"></path><path style="" d="M-14.265-64.45c-0.824,0.189-5.038-3.279-5.038-3.279c0.288,0.837,0.64,1.653,1.02,2.444c0.327,0.68,0.684,1.345,1.1,1.966c0.394,0.588,0.851,1.056,1.349,1.534c0.273,0.262,0.652,0.38,1.019,0.339c0.017-0.002,0.033-0.009,0.05-0.011c0.823-0.708,1.499-1.568,1.937-2.638c0.184-0.45,0.33-0.909,0.457-1.373c0.008-0.036,0.016-0.066,0.024-0.1c0.014-0.052,0.025-0.105,0.039-0.157C-13.064-65.166-13.944-64.524-14.265-64.45z" fill="#E0E0E0"></path><path style="" d="M-15.223-80.932c-0.978-0.397-1.963-0.363-2.933,0.061c-0.055,0.098-0.108,0.197-0.162,0.296l0.264,0.568c0.843-0.434,1.667-0.476,2.518-0.13c2.49,1.012,4.518,5.2,5.243,7.273l0.113,0.323c0.091-0.244,0.181-0.489,0.263-0.735c0.059-0.175,0.103-0.354,0.157-0.531C-10.421-75.451-12.387-79.779-15.223-80.932z" fill="#E0E0E0"></path><path style="" d="M-10.24-77.361c0.025,1.143,0.182,2.285,0.306,3.417c0.02,0.182,0.032,0.377,0.044,0.572c0.211-0.643,0.379-1.299,0.517-1.961C-9.745-76.594-10.24-77.361-10.24-77.361z" fill="#E0E0E0"></path></g><polygon style="" points="-19.51,-65.704 -22.638,-67.298 -22.44,-67.735 -19.312,-66.141 " fill="#E82060"></polygon><path style="" d="M-20.613-66.672l-0.408-0.192c0.071-0.169,0.137-0.339,0.197-0.513c0.062-0.175,0.098-0.278,0.083-0.359c-0.013-0.067-0.063-0.135-0.157-0.214c-0.19-0.159-0.384-0.263-0.595-0.319c-0.049-0.013-0.116-0.029-0.154-0.01c-0.046,0.021-0.105,0.103-0.127,0.134c-0.116,0.163-0.233,0.439-0.348,0.819l-0.427-0.141c0.133-0.439,0.27-0.755,0.42-0.967c0.078-0.108,0.175-0.227,0.315-0.29c0.161-0.073,0.317-0.045,0.436-0.014c0.271,0.072,0.52,0.204,0.758,0.404c0.115,0.095,0.273,0.25,0.318,0.494c0.04,0.217-0.029,0.413-0.084,0.57C-20.468-67.033-20.538-66.851-20.613-66.672z" fill="#E82060"></path><polygon style="" points="-18.67,-68.062 -21.475,-69.431 -21.283,-69.871 -18.478,-68.502 " fill="#E82060"></polygon><path style="" d="M-21.262-69.334l-0.412-0.184c0.033-0.081,0.326-0.804,0.542-1.099c0.104-0.142,0.268-0.271,0.417-0.328c0.177-0.069,0.342-0.025,0.464,0.018c0.243,0.088,0.434,0.219,0.569,0.389c0.198,0.251,0.231,0.658,0.082,1.037l-0.413-0.179c0.1-0.257,0.047-0.464-0.013-0.54c-0.083-0.105-0.21-0.189-0.376-0.249c-0.082-0.03-0.134-0.036-0.171-0.022c-0.068,0.026-0.159,0.099-0.21,0.168C-20.909-70.149-21.12-69.688-21.262-69.334z" fill="#E82060"></path><path style="" d="M-18.476-67.964l-0.404-0.199c0.055-0.125,0.134-0.279,0.214-0.432c0.098-0.188,0.199-0.382,0.243-0.507c0.08-0.227,0.06-0.322-0.003-0.407c-0.068-0.093-0.161-0.178-0.276-0.252c-0.12-0.077-0.297-0.159-0.459-0.119c-0.122,0.031-0.258,0.139-0.373,0.295c-0.102,0.138-0.191,0.356-0.27,0.547l-0.028,0.067l-0.409-0.189l0.027-0.066c0.09-0.219,0.191-0.467,0.33-0.655c0.181-0.245,0.404-0.412,0.627-0.469c0.246-0.061,0.518-0.003,0.791,0.173c0.16,0.104,0.293,0.226,0.394,0.364c0.227,0.311,0.147,0.648,0.067,0.875c-0.057,0.159-0.161,0.36-0.272,0.572C-18.35-68.223-18.424-68.081-18.476-67.964z" fill="#E82060"></path><polygon style="" points="-17.468,-70.322 -20.468,-71.805 -20.274,-72.244 -17.274,-70.762 " fill="#E82060"></polygon><polygon style="" points="-16.839,-71.649 -19.89,-73.152 -19.697,-73.591 -16.646,-72.089 " fill="#E82060"></polygon><path style="" d="M-21.555-67.285l-0.884-0.451l-0.198,0.438l0.974,0.496C-21.625-66.962-21.596-67.125-21.555-67.285z" fill="#C51C52"></path><path style="" d="M-21.814-68.723c-0.14,0.063-0.237,0.182-0.315,0.29c-0.15,0.212-0.288,0.528-0.42,0.967l0.427,0.141c0.114-0.38,0.232-0.655,0.348-0.819c0.022-0.031,0.081-0.114,0.127-0.134c0.038-0.019,0.105-0.002,0.154,0.01c0.063,0.017,0.122,0.047,0.183,0.072c0.041-0.155,0.087-0.309,0.129-0.464c-0.065-0.026-0.128-0.059-0.196-0.077C-21.497-68.769-21.653-68.796-21.814-68.723z" fill="#C51C52"></path><path style="" d="M-21.283-69.871l-0.192,0.44l0.447,0.218c0.044-0.157,0.086-0.314,0.131-0.47L-21.283-69.871z" fill="#C51C52"></path><path style="" d="M-20.713-70.944c-0.149,0.057-0.313,0.186-0.417,0.328c-0.217,0.295-0.509,1.018-0.542,1.099l0.412,0.184c0.142-0.355,0.353-0.815,0.48-0.988c0.023-0.031,0.055-0.062,0.088-0.09c0.055-0.185,0.102-0.372,0.159-0.556C-20.593-70.967-20.651-70.969-20.713-70.944z" fill="#C51C52"></path><path style="" d="M-20.274-72.244l-0.194,0.439l0.178,0.088c0.049-0.154,0.101-0.307,0.151-0.461L-20.274-72.244z" fill="#C51C52"></path><path style="" d="M-19.697-73.591l-0.193,0.439l0.06,0.03c0.051-0.153,0.099-0.308,0.151-0.46L-19.697-73.591z" fill="#C51C52"></path><polygon style="" points="-18.767,-71.223 -19.165,-71.437 -18.531,-72.759 -18.133,-72.545 " fill="#E82060"></polygon></g></svg>
