<svg xmlns:xlink="http://www.w3.org/1999/xlink" xmlns="http://www.w3.org/2000/svg" viewBox="-3.696368932723999 -98.46794128417969 15.386303901672363 8.0587158203125" width="406" height="325"><!---0006-01000001900011--><g><path style="" d="M8.473-96.516c-0.32-0.521-0.773-1.111-1.393-1.06 c-0.237,0.02-0.452,0.135-0.662,0.243c-0.764,0.394-1.229,0.272-2.019-0.034c-0.668-0.259-1.309-0.253-1.926,0.135 c-1.21,0.761-3.91,2.371-4.039,2.457c-1.404,0.936,0.42,1.143,1.117,1.315c0.045,0.011,0.097,0.027,0.114,0.07 c0.013,0.033,0,0.07-0.009,0.105c-0.161,0.618,0.666,1.619,1.144,1.952c0.744,0.519,2.1,0.484,2.968,0.464 c1.531-0.035,3.492,0.229,4.641-1.011c0.241-0.261,0.284-0.571,0.477-0.85c0.228-0.329,0.632-0.582,1.01-0.715 c0.733-0.256,0.055-0.763-0.194-1.07C9.224-95.108,8.872-95.867,8.473-96.516z" fill="#E6998F" fill-opacity="0.35"></path><path style="" d="M7.979-95.967c-0.273-0.42-0.796-0.824-1.324-0.783 c-0.201,0.016-0.385,0.109-0.563,0.196c-0.651,0.318-1.046,0.219-1.719-0.028c-0.569-0.209-1.114-0.204-1.64,0.109 c-1.03,0.614-3.329,1.914-3.438,1.983c-0.11,0.069-0.361,0.252-0.461,0.322c-0.563,0.391,0.214,0.588,0.292,0.667 c0.26,0.264,0.758-0.012,1.121,0.072c0.039,0.009,0.083,0.022,0.097,0.056c0.011,0.027,0,0.057-0.007,0.085 c-0.137,0.499,0.567,1.307,0.974,1.576c0.633,0.419,1.788,0.391,2.527,0.375c1.304-0.028,2.973,0.185,3.951-0.816 c0.206-0.211,0.242-0.461,0.406-0.686c0.194-0.266,0.547-0.813,0.868-0.919c0.624-0.207-0.103-0.418-0.25-0.708 C8.486-95.112,8.319-95.443,7.979-95.967z" fill="#E6998F" fill-opacity="0.85"></path><path style="" d="M8.925-96.824c-0.355-0.591-0.855-1.261-1.541-1.202 c-0.262,0.022-0.5,0.153-0.732,0.275c-0.845,0.446-1.359,0.308-2.234-0.039c-0.739-0.293-1.448-0.287-2.131,0.153 c-1.338,0.863-4.325,2.689-4.467,2.787c-0.142,0.097-0.254,0.257-0.247,0.429c0.007,0.15,0.099,0.282,0.2,0.393 c0.338,0.371,0.811,0.551,1.282,0.669c0.05,0.013,0.107,0.031,0.126,0.079c0.015,0.038,0,0.08-0.01,0.119 c-0.178,0.701,0.737,1.837,1.266,2.215c0.823,0.589,2.324,0.549,3.284,0.526c1.694-0.04,3.863,0.26,5.134-1.147 c0.267-0.296,0.314-0.648,0.528-0.965c0.253-0.374,0.7-0.661,1.117-0.811c0.811-0.291,0.061-0.866-0.214-1.213 C9.756-95.228,9.367-96.089,8.925-96.824z" fill="#E6998F" fill-opacity="0.35"></path><path style="" d="M0.232-93.803c0.588-0.33,1.171-0.693,1.682-1.108 c0.464-0.377,0.9-0.84,1.597-0.766c0.971,0.104,1.686,0.445,2.699,0.189c0.227-0.057,0.456-0.129,0.691-0.114 c0.676,0.044,1.744,1.187,2.036,1.703c-0.574-0.018-1.046-0.353-1.593-0.36c-0.948-0.012-1.277,0.862-2.317,0.665 c-0.757-0.144-1.106-0.711-1.909-0.752c-1.109-0.057-2.112,0.532-3.047,1.004" fill="#911B0E" fill-opacity="0.15"></path><path style="" d="M2.646-96.875c0.363-0.206,0.726-0.318,0.889-0.082 c0.069,0.1-0.008,0.242-0.112,0.306c-0.425,0.26-0.934,0.448-1.414,0.583c-0.095,0.027-0.234,0.022-0.249-0.076 c-0.005-0.035,0.01-0.069,0.026-0.1C1.965-96.585,2.33-96.694,2.646-96.875z" fill="#FFD1CC" fill-opacity="0.85"></path><path style="" d="M3.605-93.182c-0.308,0.078-0.568,0.254-0.606,0.516c-0.006,0.039,0.042,0.218,0.564,0.2 c0.564-0.02,1.678,0.225,1.103-0.512C4.476-93.222,4-93.282,3.605-93.182z" fill="#FFD1CC"></path><path style="" d="M-1.702-95.216c0.245-0.039,2.116-1.203,2.481-1.399 c0.902-0.483,1.679-1.416,2.809-1.336c0.466,0.033,0.896,0.208,1.345,0.336c0.471,0.134,0.923,0.164,1.408,0.03 c0.818-0.227,1.058-0.993,2.145,0.12c-0.14-0.549-0.482-1.027-1.048-1.002c-0.29,0.013-0.615,0.091-0.875,0.219 c-0.503,0.246-0.928,0.396-1.469,0.25C4.648-98.118,3.96-98.397,3.5-98.435c-1.208-0.101-2.332,0.812-3.222,1.516 C0.203-96.86-0.985-95.889-1.702-95.216z" fill="#FFD1CC" fill-opacity="0.5"></path><path style="" d="M2.75-97.833c1.033-0.481,1.697,0.305,2.708,0.333 c0.21,0.006,0.557-0.008,0.76-0.06C6.693-97.683,7.313-98.263,8-97.904c-0.188-0.594-0.977-0.553-1.562-0.281 c-0.395,0.183-1,0.375-1.719,0.094c-0.343-0.134-0.632-0.272-1-0.312c-0.459-0.05-0.735,0.011-1.219,0.279 c-0.637,0.353-1.509,1.224-2.042,1.708C1.25-96.75,2.092-97.527,2.75-97.833z" fill="#FFF4F2" fill-opacity="0.3"></path><path style="" d="M8.52-93.144c-0.589,0.35-1.057,0.749-1.815,0.916 c-0.989,0.217-1.797-0.185-2.716-0.037c-0.549,0.088-1.377,0.101-1.929,0.001c-0.433-0.078-0.714-0.304-1.016-0.509 c-0.194-0.131-0.396-0.254-0.653-0.323c-0.021,0.053-0.021,0.111-0.033,0.167c0.135,0.465,0.632,1.007,0.951,1.218 c0.633,0.419,1.788,0.391,2.527,0.375c1.304-0.028,2.973,0.185,3.951-0.816c0.206-0.211,0.242-0.461,0.406-0.686 C8.279-92.954,8.394-93.055,8.52-93.144z" fill="#911B0E" fill-opacity="0.15"></path><path style="" d="M0.902-92.342c0.205,0.5,0.375,1.083,0.683,1.083c0.357,0,0.539-0.768,0.614-1.167 c0.102-0.542,0.385-1.377,0.341-1.923c-0.003-0.031-0.007-0.064-0.024-0.088c-0.033-0.045-0.091-0.033-0.138-0.018 c-0.383,0.124-1.385,0.46-1.714,0.738C0.391-93.485,0.606-93.065,0.902-92.342z" fill="#DED4D3"></path><path style="" d="M8.479-92.758c-0.137,0.512-0.354,1-0.542,1c-0.218,0-0.285-0.624-0.331-1.013 c-0.062-0.527-0.235-1.34-0.208-1.872c0.002-0.031,0.004-0.063,0.015-0.086c0.02-0.043,0.055-0.033,0.084-0.018 c0.234,0.121,0.906,0.217,1.107,0.488C8.771-94.033,8.646-93.383,8.479-92.758z" fill="#DED4D3"></path><g><path style="" d="M3.14-94.409c-0.44,0.101-1.036,0.274-1.413,0.442c-0.629,0.279-1.262,0.485-1.924,0.747 c-0.939,0.371-2.032,0.332-2.942-0.106c-0.257-0.124-0.526-0.317-0.555-0.601c-0.035-0.352,0.324-0.623,0.668-0.707 c0.583-0.143,0.698,0.083,0.951,0.52c0.339,0.586,1.234,0.498,1.81,0.467c0.738-0.039,1.365-0.524,2.049-0.809 c0.589-0.245,1.382-0.619,2.028-0.626c0.684-0.007,1.13,0.383,1.78,0.397c0.641,0.014,1.172-0.401,1.801-0.391 c0.58,0.009,1.057,0.436,1.577,0.64c0.573,0.226,1.126,0.297,1.724,0.146c0.252-0.064,0.532-0.159,0.757-0.03 c0.458,0.263,0.18,0.863-0.186,1.016c-0.502,0.21-1.198-0.089-1.627-0.331c-0.723-0.408-1.335-0.619-2.144-0.742 c-0.736-0.112-1.443,0.326-2.181,0.285C4.506-94.136,3.997-94.607,3.14-94.409z" fill="#BF766E"></path><path style="" d="M3.14-94.409c-0.44,0.101-1.036,0.274-1.413,0.442 c-0.629,0.279-1.262,0.485-1.924,0.747c-0.939,0.371-2.032,0.332-2.942-0.106c-0.257-0.124-0.526-0.317-0.555-0.601 c-0.035-0.352,0.324-0.623,0.668-0.707c0.583-0.143,0.698,0.083,0.951,0.52c0.339,0.586,1.234,0.498,1.81,0.467 c0.738-0.039,1.365-0.524,2.049-0.809c0.589-0.245,1.382-0.619,2.028-0.626c0.684-0.007,1.13,0.383,1.78,0.397 c0.641,0.014,1.172-0.401,1.801-0.391c0.58,0.009,1.057,0.436,1.577,0.64c0.573,0.226,1.126,0.297,1.724,0.146 c0.252-0.064,0.532-0.159,0.757-0.03c0.458,0.263,0.18,0.863-0.186,1.016c-0.502,0.21-1.198-0.089-1.627-0.331 c-0.723-0.408-1.335-0.619-2.144-0.742c-0.736-0.112-1.443,0.326-2.181,0.285C4.506-94.136,3.997-94.607,3.14-94.409z" fill="#290400" fill-opacity="0.1"></path></g><path style="" d="M2.228-93.378c0.003-0.044-0.925,0.117-1.027,0.345c-0.118,0.263,0.057,0.865,0.133,1.123 c0.131,0.441,0.356,0.429,0.523,0.136C2.097-92.193,2.196-92.897,2.228-93.378z" fill="#FFFFFF"></path><path style="" d="M7.648-93.591c0.057-0.087,0.571-0.133,0.655,0.082c0.075,0.193,0.021,0.562-0.02,0.757 c-0.028,0.134-0.098,0.419-0.211,0.508C7.717-91.967,7.642-93.583,7.648-93.591z" fill="#FFFFFF"></path></g></svg>