<svg xmlns:xlink="http://www.w3.org/1999/xlink" xmlns="http://www.w3.org/2000/svg" viewBox="-40.94377899169922 -146.29818725585938 68.82828521728516 163.4471893310547" preserveAspectRatio="xMidYMid meet" width="300"  height="400" >
            <g transform="translate(0, -27) scale(0.7)" preserveAspectRatio="none">
<path fill="#E6BBA8" d="M-4.011-95.952c0.509-0.593,1.771-0.282,2.402-0.099c-0.718,0.712-0.976,0.789-0.864,1.88 C-3.089-94.216-4.675-95.177-4.011-95.952z"></path><path fill="#E6BBA8" d="M8.048-95.854c0.688,0.11,0.525,0.775,0.275,1.222c-0.356,0.636-0.822,0.681-1.434,0.935 C7.046-94.122,7.379-95.96,8.048-95.854z"></path><path fill="#F2ADA5" d="M7.791-94.773c-0.132,0.471-0.75,0.583-0.624,0.956c0.802,2.382-5.706,5.665-10.363-1.378 c2.837-2.125,7.05-0.87,8.14-0.87C5.983-96.065,8.569-97.537,7.791-94.773z"></path><path fill="#E6998F" d="M4.944-96.065c-1.089,0-5.303-1.255-8.14,0.87c0.063,0.096,0.128,0.182,0.192,0.274 c0.149,0.088,0.324,0.15,0.503,0.255c0.286,0.167,0.471,0.458,0.792,0.542c0.944,0.244,1.386,0.283,2.375,0.333 c0.493,0.025,1.482-0.215,1.958-0.167c0.618,0.062,1.149,0.533,1.794,0.544c0.843,0.016,1.76-0.467,2.581-0.668 c0.152-0.038,0.274-0.106,0.39-0.182c0.154-0.131,0.336-0.276,0.401-0.508C8.569-97.537,5.983-96.065,4.944-96.065z"></path><path fill="#BF766E" d="M2.553-93.662c-0.184,0.001-1.947,0.006-2.609-0.025c-1.496-0.072-2.435-0.409-3.459-1.505 c0.314-0.018,0.708-0.209,1.019-0.112c0.372,0.116-0.337,0.718,1.214,1.022c3.261,0.64,3.849-0.053,4.299-0.011 c0.854,0.078,1.479,0.67,2.383,0.522c0.317-0.052,1.066-0.553,1.164-0.565c0.168-0.022,0.291,0.129,0.401,0.124 c0.574-0.031,0.462-0.745,0.9-0.944c0.263-0.119-0.046,0.734-0.092,0.792c-0.449,0.569-1.337,0.333-3.068,1.156 C4.419-93.074,2.987-93.665,2.553-93.662z"></path><path fill="#FFD1CC" d="M0.746-92.668c0.115,0.39,1.144,0.797,1.438,0.395c0.317-0.432-0.732-0.744-1.069-0.777 C0.84-93.077,0.652-92.985,0.746-92.668z"></path></g></svg>
