<svg aria-label="user avatar" class="c-PJLV c-PJLV-ihinyfY-css" viewBox="-37.2599983215332 -146.29818725585938 65.14450073242188 163.4471893310547"><g><g transform="translate(0, -27) scale(0.7)" preserveAspectRatio="none"></g><g transform="translate(0, -27) scale(0.7)" preserveAspectRatio="none"><path style="fill:#F4D5BF;" d="M19.071-98.868c0.46-5.524-1.688-8.757-5.947-7.087c-2.729,1.071-4.285,8.252-4.486,10.954 c0.093,1.525,0.258,2.664,1.332,3.269C14.728-90.665,18.704-94.477,19.071-98.868z"></path><path style="fill:#FAA3B9;fill-opacity:0.3;" d="M12.653-94.083c2.625,0.717,4.755,0.214,5.604-3.422 c0.387-1.662,0.102-4.909-0.321-6.324c-0.375-1.254-2.575-2.234-4.415-1.41c-1.458,0.652-2.413,3.297-2.626,4.333 C10.232-97.7,11.03-94.526,12.653-94.083z"></path><path style="fill:#FAA3B9;fill-opacity:0.3;" d="M12.256-98.526c0.583,2.468,3.584,2.886,4.6,1.661 c1.063-1.28,2.001-7.24-1.028-7.709c-1.009-0.157-2.047,0.197-2.439,0.662C12.171-102.48,11.859-100.205,12.256-98.526z"></path><path style="fill:#FFFFFF;fill-opacity:0.5;" d="M15.34-101.514c1.452-0.538,0.292-2.776-0.974-2.167 C13.104-103.071,13.929-100.991,15.34-101.514z"></path></g><g><path style="fill:#F4D5BF;" d="M-11.052-89.925c6.062,0.95,9.441-0.496,10.344-5.481c0.412-2.279,0.129-5.983-1.205-7.916 c-1.181-1.711-6.363-3.025-10.249-1.876c-3.08,0.911-4.49,4.54-4.685,5.959C-17.449-94.845-14.796-90.511-11.052-89.925z"></path><path style="fill:#FAA3B9;fill-opacity:0.3;" d="M-10.161-92.654c4.481,0.702,6.979-0.367,7.646-4.052 c0.305-1.684,0.095-4.423-0.891-5.851c-0.872-1.265-4.704-2.237-7.575-1.388c-2.277,0.673-3.32,3.356-3.464,4.406 C-14.89-96.292-12.929-93.088-10.161-92.654z"></path><path style="fill:#FAA3B9;fill-opacity:0.3;" d="M-11.714-97.145c1.462,2.491,4.928,2.658,6.634,1.557 c0.994-0.642,1.453-2.395,1.562-3.572c0.098-1.041,0.17-3.817-3.518-4.133c-1.699-0.145-3.341,0.217-3.896,0.69 C-12.652-101.143-12.708-98.838-11.714-97.145z"></path><path style="fill:#FFFFFF;fill-opacity:0.5;" d="M-7.915-100.321c1.577-0.463,0.489-2.787-0.896-2.241 C-10.191-102.016-9.448-99.871-7.915-100.321z"></path></g><g transform="translate(0, -27) scale(0.7)" preserveAspectRatio="none"><path style="fill:#F1B2AA;fill-opacity:0.2;" d="M16.428-107.157c-3.265,0.537-6.562,3.477-6.043,7.02c0.5,3.415,2.527,4.642,5.097,4.453c2.291-3.397,2.75-8.059,3.152-11.656C17.97-107.352,17.238-107.29,16.428-107.157z"></path><path style="fill:#F1B2AA;fill-opacity:0.3;" d="M16.63-106.522c-2.921,0.457-5.861,2.984-5.385,6.035c0.476,3.048,2.413,4.072,4.832,3.815c1.656-3.053,2.129-6.851,2.479-9.992C17.973-106.673,17.341-106.634,16.63-106.522z"></path><path style="fill:#F1B2AA;fill-opacity:0.4;" d="M16.729-106.034c-2.306,0.361-4.627,2.356-4.251,4.764c0.412,2.639,2.214,3.347,4.381,2.915c0.975-2.517,1.358-5.326,1.64-7.793C17.976-106.176,17.389-106.137,16.729-106.034z"></path><path style="fill:#F1B2AA;fill-opacity:0.5;" d="M16.833-105.368c-1.589,0.249-3.189,1.624-2.93,3.284c0.309,1.979,1.749,2.394,3.418,1.922c0.049-0.014,0.092-0.034,0.14-0.048c0.475-1.731,0.746-3.519,0.949-5.189C17.969-105.474,17.449-105.465,16.833-105.368z"></path><path style="fill:#F1B2AA;fill-opacity:0.2;" d="M-4.159-99.572c1.191-3.521-2.912-6.606-7.301-7.287c-5.253-0.814-8.39,0-9.431,3.651c-1.052,3.689,1.967,6.231,6.608,7.419C-9.735-94.624-5.579-95.375-4.159-99.572z"></path><path style="fill:#F1B2AA;fill-opacity:0.3;" d="M-5.288-99.96c1.066-3.031-2.607-5.687-6.535-6.272c-4.702-0.701-7.51,0-8.442,3.143c-0.942,3.176,1.761,5.363,5.915,6.386C-10.279-95.701-6.559-96.347-5.288-99.96z"></path><path style="fill:#F1B2AA;fill-opacity:0.4;" d="M-6.864-100.796c0.842-2.393-2.058-4.49-5.16-4.952c-3.713-0.553-5.929,0-6.665,2.482c-0.743,2.507,1.39,4.235,4.67,5.042C-10.805-97.434-7.868-97.944-6.864-100.796z"></path><path style="fill:#F1B2AA;fill-opacity:0.5;" d="M-8.701-101.674c0.58-1.649-1.419-3.095-3.556-3.413c-2.559-0.381-4.087,0-4.594,1.711c-0.512,1.728,0.958,2.919,3.219,3.475C-11.417-99.356-9.393-99.707-8.701-101.674z"></path><circle style="fill:#FFFFFF;fill-opacity:0.4;" cx="-12.777" cy="-104.487" r="0.912"></circle><path style="fill:#FFFFFF;fill-opacity:0.4;" d="M17.778-104.659c0,0.504-0.408,0.912-0.912,0.912c-0.504,0-0.912-0.408-0.912-0.912c0-0.504,0.408-0.912,0.912-0.912C17.369-105.571,17.778-105.163,17.778-104.659z"></path></g></g></svg>
