<svg xmlns:xlink="http://www.w3.org/1999/xlink" xmlns="http://www.w3.org/2000/svg" viewBox="-40.94377899169922 -146.29818725585938 68.82828521728516 163.4471893310547" preserveAspectRatio="xMidYMid meet" width="300"  height="400"><path style="" d="M19.071-98.868c0.46-5.524-1.688-8.757-5.947-7.087c-2.729,1.071-4.285,8.252-4.486,10.954 c0.093,1.525,0.258,2.664,1.332,3.269C14.728-90.665,18.704-94.477,19.071-98.868z" fill="#F4D5BF"></path><path style="" d="M12.653-94.083c2.625,0.717,4.755,0.214,5.604-3.422 c0.387-1.662,0.102-4.909-0.321-6.324c-0.375-1.254-2.575-2.234-4.415-1.41c-1.458,0.652-2.413,3.297-2.626,4.333 C10.232-97.7,11.03-94.526,12.653-94.083z" fill="#FAA3B9" fill-opacity="0.3"></path><path style="" d="M12.256-98.526c0.583,2.468,3.584,2.886,4.6,1.661 c1.063-1.28,2.001-7.24-1.028-7.709c-1.009-0.157-2.047,0.197-2.439,0.662C12.171-102.48,11.859-100.205,12.256-98.526z" fill="#FAA3B9" fill-opacity="0.3"></path><path style="" d="M15.34-101.514c1.452-0.538,0.292-2.776-0.974-2.167 C13.104-103.071,13.929-100.991,15.34-101.514z" fill="#FFFFFF" fill-opacity="0.5"></path></g><g><path style="" d="M-11.052-89.925c6.062,0.95,9.441-0.496,10.344-5.481c0.412-2.279,0.129-5.983-1.205-7.916 c-1.181-1.711-6.363-3.025-10.249-1.876c-3.08,0.911-4.49,4.54-4.685,5.959C-17.449-94.845-14.796-90.511-11.052-89.925z" fill="#F4D5BF"></path><path style="" d="M-10.161-92.654c4.481,0.702,6.979-0.367,7.646-4.052 c0.305-1.684,0.095-4.423-0.891-5.851c-0.872-1.265-4.704-2.237-7.575-1.388c-2.277,0.673-3.32,3.356-3.464,4.406 C-14.89-96.292-12.929-93.088-10.161-92.654z" fill="#FAA3B9" fill-opacity="0.3"></path><path style="" d="M-11.714-97.145c1.462,2.491,4.928,2.658,6.634,1.557 c0.994-0.642,1.453-2.395,1.562-3.572c0.098-1.041,0.17-3.817-3.518-4.133c-1.699-0.145-3.341,0.217-3.896,0.69 C-12.652-101.143-12.708-98.838-11.714-97.145z" fill="#FAA3B9" fill-opacity="0.3"></path><path style="" d="M-7.915-100.321c1.577-0.463,0.489-2.787-0.896-2.241 C-10.191-102.016-9.448-99.871-7.915-100.321z" fill="#FFFFFF" fill-opacity="0.5"></path></g></svg>
